<svg id="Design-elements" xmlns="http://www.w3.org/2000/svg" width="29.654" height="135.089" viewBox="0 0 29.654 135.089">
  <path id="dots-03" d="M25.432,61.524a2.111,2.111,0,1,1,2.112,2.11A2.109,2.109,0,0,1,25.432,61.524Zm-12.716,0a2.109,2.109,0,1,1,2.109,2.11A2.108,2.108,0,0,1,12.715,61.524ZM0,61.524a2.106,2.106,0,1,1,2.106,2.11A2.107,2.107,0,0,1,0,61.524ZM25.432,49.638a2.111,2.111,0,1,1,2.112,2.109A2.11,2.11,0,0,1,25.432,49.638Zm-12.716,0a2.109,2.109,0,1,1,2.109,2.109A2.109,2.109,0,0,1,12.715,49.638ZM0,49.638a2.106,2.106,0,1,1,2.106,2.109A2.108,2.108,0,0,1,0,49.638ZM25.432,37.762a2.111,2.111,0,1,1,2.112,2.107A2.11,2.11,0,0,1,25.432,37.762Zm-12.716,0a2.109,2.109,0,1,1,2.109,2.107A2.109,2.109,0,0,1,12.715,37.762ZM0,37.762a2.106,2.106,0,1,1,2.106,2.107A2.108,2.108,0,0,1,0,37.762Zm25.432-11.89a2.111,2.111,0,1,1,2.112,2.109A2.109,2.109,0,0,1,25.432,25.872Zm-12.716,0a2.109,2.109,0,1,1,2.109,2.109A2.108,2.108,0,0,1,12.715,25.872ZM0,25.872A2.106,2.106,0,1,1,2.106,27.98,2.107,2.107,0,0,1,0,25.872ZM25.432,13.994A2.111,2.111,0,1,1,27.544,16.1,2.11,2.11,0,0,1,25.432,13.994Zm-12.716,0A2.109,2.109,0,1,1,14.824,16.1,2.109,2.109,0,0,1,12.715,13.994ZM0,13.994A2.106,2.106,0,1,1,2.106,16.1,2.107,2.107,0,0,1,0,13.994ZM25.432,2.112a2.111,2.111,0,1,1,2.112,2.112A2.112,2.112,0,0,1,25.432,2.112Zm-12.716,0a2.109,2.109,0,1,1,2.109,2.112A2.11,2.11,0,0,1,12.715,2.112ZM0,2.112A2.106,2.106,0,1,1,2.106,4.223,2.109,2.109,0,0,1,0,2.112Z" transform="translate(0 0)" fill="#12263f"/>
  <path id="dots-03-2" data-name="dots-03" d="M25.431,13.995A2.111,2.111,0,1,1,27.544,16.1,2.11,2.11,0,0,1,25.431,13.995Zm-12.715,0A2.108,2.108,0,1,1,14.824,16.1,2.108,2.108,0,0,1,12.716,13.995ZM0,13.995A2.106,2.106,0,1,1,2.107,16.1,2.108,2.108,0,0,1,0,13.995ZM25.431,2.112a2.111,2.111,0,1,1,2.112,2.111A2.113,2.113,0,0,1,25.431,2.112Zm-12.715,0a2.108,2.108,0,1,1,2.108,2.111A2.11,2.11,0,0,1,12.716,2.112ZM0,2.112A2.106,2.106,0,1,1,2.107,4.223,2.11,2.11,0,0,1,0,2.112Z" transform="translate(0 71.349)" fill="#12263f"/>
  <path id="dots-03-3" data-name="dots-03" d="M25.431,13.995A2.111,2.111,0,1,1,27.544,16.1,2.11,2.11,0,0,1,25.431,13.995Zm-12.715,0A2.108,2.108,0,1,1,14.824,16.1,2.108,2.108,0,0,1,12.716,13.995ZM0,13.995A2.106,2.106,0,1,1,2.107,16.1,2.108,2.108,0,0,1,0,13.995ZM25.431,2.112a2.111,2.111,0,1,1,2.112,2.111A2.113,2.113,0,0,1,25.431,2.112Zm-12.715,0a2.108,2.108,0,1,1,2.108,2.111A2.11,2.11,0,0,1,12.716,2.112ZM0,2.112A2.106,2.106,0,1,1,2.107,4.223,2.11,2.11,0,0,1,0,2.112Z" transform="translate(0 95.167)" fill="#12263f"/>
  <path id="dots-03-4" data-name="dots-03" d="M25.431,13.995A2.111,2.111,0,1,1,27.544,16.1,2.11,2.11,0,0,1,25.431,13.995Zm-12.715,0A2.108,2.108,0,1,1,14.824,16.1,2.108,2.108,0,0,1,12.716,13.995ZM0,13.995A2.106,2.106,0,1,1,2.107,16.1,2.108,2.108,0,0,1,0,13.995ZM25.431,2.112a2.111,2.111,0,1,1,2.112,2.111A2.113,2.113,0,0,1,25.431,2.112Zm-12.715,0a2.108,2.108,0,1,1,2.108,2.111A2.11,2.11,0,0,1,12.716,2.112ZM0,2.112A2.106,2.106,0,1,1,2.107,4.223,2.11,2.11,0,0,1,0,2.112Z" transform="translate(0 118.985)" fill="#12263f"/>
</svg>
