<svg xmlns="http://www.w3.org/2000/svg" xmlns:xlink="http://www.w3.org/1999/xlink" width="730.982" height="1290.613" viewBox="0 0 730.982 1290.613">
  <defs>
    <linearGradient id="linear-gradient" x1="0.5" x2="0.5" y2="1" gradientUnits="objectBoundingBox">
      <stop offset="0" stop-color="#039be5"/>
      <stop offset="1" stop-color="#fff" stop-opacity="0.2"/>
    </linearGradient>
    <clipPath id="clip-path">
      <ellipse id="Elipse_4979" data-name="Elipse 4979" cx="25.416" cy="25.416" rx="25.416" ry="25.416" fill="none"/>
    </clipPath>
  </defs>
  <g id="Grupo_155629" data-name="Grupo 155629" transform="translate(-135.988 -976.01)">
    <g id="Grupo_149857" data-name="Grupo 149857" transform="translate(135.991 1076.917)">
      <rect id="Rectángulo_44012" data-name="Rectángulo 44012" width="730.979" height="970.169" transform="translate(0 219.537)" opacity="0.15" fill="url(#linear-gradient)"/>
      <rect id="Rectángulo_44432" data-name="Rectángulo 44432" width="730.979" height="320.306" transform="translate(730.979 219.398) rotate(180)" opacity="0.15" fill="url(#linear-gradient)"/>
    </g>
    <g id="Grupo_149858" data-name="Grupo 149858" transform="translate(136.988 1256.258)" opacity="0.711">
      <path id="Trazado_174289" data-name="Trazado 174289" d="M149.237,383.022A65.159,65.159,0,1,0,214.4,448.181,65.159,65.159,0,0,0,149.237,383.022Zm0,117.293a52.134,52.134,0,1,1,52.134-52.134A52.135,52.135,0,0,1,149.237,500.315Z" transform="translate(299.484 -234.553)" fill="#fdfdfd"/>
      <g id="Grupo_124665" data-name="Grupo 124665" transform="translate(0 71.688)" opacity="0.23">
        <path id="Trazado_174290" data-name="Trazado 174290" d="M-24.374,304.431-122.2,402.256a8.546,8.546,0,0,1-12.087,0h0a8.547,8.547,0,0,1,0-12.088l97.825-97.825a8.547,8.547,0,0,1,12.087,0h0A8.547,8.547,0,0,1-24.374,304.431Z" transform="translate(136.79 -289.84)" fill="none" stroke="#8f9294" stroke-miterlimit="10" stroke-width="2"/>
        <path id="Trazado_174291" data-name="Trazado 174291" d="M-6.208,399.3l-74.669,74.668a6.524,6.524,0,0,1-9.226,0h0a6.524,6.524,0,0,1,0-9.227l74.668-74.669a6.525,6.525,0,0,1,9.227,0h0A6.525,6.525,0,0,1-6.208,399.3Z" transform="translate(112.668 -342.808)" fill="none" stroke="#8f9294" stroke-miterlimit="10" stroke-width="2"/>
      </g>
      <g id="Grupo_124669" data-name="Grupo 124669" transform="translate(653.246 164.632)">
        <g id="Grupo_124668" data-name="Grupo 124668">
          <line id="Línea_1655" data-name="Línea 1655" x1="6.264" y2="6.264" fill="none" stroke="#d8d9da" stroke-miterlimit="10" stroke-width="0.78"/>
          <line id="Línea_1656" data-name="Línea 1656" x1="6.264" y2="6.264" transform="translate(3.052)" fill="none" stroke="#d8d9da" stroke-miterlimit="10" stroke-width="0.78"/>
          <line id="Línea_1657" data-name="Línea 1657" x1="6.264" y2="6.264" transform="translate(6.103)" fill="none" stroke="#d8d9da" stroke-miterlimit="10" stroke-width="0.78"/>
          <line id="Línea_1658" data-name="Línea 1658" x1="6.264" y2="6.264" transform="translate(9.155)" fill="none" stroke="#d8d9da" stroke-miterlimit="10" stroke-width="0.78"/>
          <line id="Línea_1659" data-name="Línea 1659" x1="6.264" y2="6.264" transform="translate(12.207)" fill="none" stroke="#d8d9da" stroke-miterlimit="10" stroke-width="0.78"/>
          <line id="Línea_1660" data-name="Línea 1660" x1="6.264" y2="6.264" transform="translate(15.258)" fill="none" stroke="#d8d9da" stroke-miterlimit="10" stroke-width="0.78"/>
          <line id="Línea_1661" data-name="Línea 1661" x1="6.264" y2="6.264" transform="translate(18.31)" fill="none" stroke="#d8d9da" stroke-miterlimit="10" stroke-width="0.78"/>
          <line id="Línea_1662" data-name="Línea 1662" x1="6.264" y2="6.264" transform="translate(21.362)" fill="none" stroke="#d8d9da" stroke-miterlimit="10" stroke-width="0.78"/>
          <line id="Línea_1663" data-name="Línea 1663" x1="6.264" y2="6.264" transform="translate(24.413)" fill="none" stroke="#d8d9da" stroke-miterlimit="10" stroke-width="0.78"/>
          <line id="Línea_1664" data-name="Línea 1664" x1="6.264" y2="6.264" transform="translate(27.465)" fill="none" stroke="#d8d9da" stroke-miterlimit="10" stroke-width="0.78"/>
          <line id="Línea_1665" data-name="Línea 1665" x1="6.264" y2="6.264" transform="translate(30.517)" fill="none" stroke="#d8d9da" stroke-miterlimit="10" stroke-width="0.78"/>
          <line id="Línea_1666" data-name="Línea 1666" x1="6.264" y2="6.264" transform="translate(33.568)" fill="none" stroke="#d8d9da" stroke-miterlimit="10" stroke-width="0.78"/>
          <line id="Línea_1667" data-name="Línea 1667" x1="6.264" y2="6.264" transform="translate(36.62)" fill="none" stroke="#d8d9da" stroke-miterlimit="10" stroke-width="0.78"/>
        </g>
      </g>
      <g id="Grupo_149859" data-name="Grupo 149859" transform="translate(117.49 60.724)" opacity="0.394">
        <g id="Grupo_124677" data-name="Grupo 124677">
          <g id="Grupo_124673" data-name="Grupo 124673">
            <line id="Línea_1668" data-name="Línea 1668" y2="5.054" transform="translate(2.527)" fill="none" stroke="#8f9294" stroke-miterlimit="10" stroke-width="0.388"/>
            <line id="Línea_1669" data-name="Línea 1669" x2="5.054" transform="translate(0 2.527)" fill="none" stroke="#8f9294" stroke-miterlimit="10" stroke-width="0.388"/>
          </g>
          <g id="Grupo_124674" data-name="Grupo 124674" transform="translate(13.773)">
            <line id="Línea_1670" data-name="Línea 1670" y2="5.054" transform="translate(2.527)" fill="none" stroke="#8f9294" stroke-miterlimit="10" stroke-width="0.388"/>
            <line id="Línea_1671" data-name="Línea 1671" x2="5.054" transform="translate(0 2.527)" fill="none" stroke="#8f9294" stroke-miterlimit="10" stroke-width="0.388"/>
          </g>
          <g id="Grupo_124675" data-name="Grupo 124675" transform="translate(27.546)">
            <line id="Línea_1672" data-name="Línea 1672" y2="5.054" transform="translate(2.527)" fill="none" stroke="#8f9294" stroke-miterlimit="10" stroke-width="0.388"/>
            <line id="Línea_1673" data-name="Línea 1673" x2="5.054" transform="translate(0 2.527)" fill="none" stroke="#8f9294" stroke-miterlimit="10" stroke-width="0.388"/>
          </g>
          <g id="Grupo_124676" data-name="Grupo 124676" transform="translate(41.318)">
            <line id="Línea_1674" data-name="Línea 1674" y2="5.054" transform="translate(2.527)" fill="none" stroke="#8f9294" stroke-miterlimit="10" stroke-width="0.388"/>
            <line id="Línea_1675" data-name="Línea 1675" x2="5.054" transform="translate(0 2.527)" fill="none" stroke="#8f9294" stroke-miterlimit="10" stroke-width="0.388"/>
          </g>
        </g>
        <g id="Grupo_124682" data-name="Grupo 124682" transform="translate(0 10.488)">
          <g id="Grupo_124678" data-name="Grupo 124678">
            <line id="Línea_1676" data-name="Línea 1676" y2="5.054" transform="translate(2.527)" fill="none" stroke="#8f9294" stroke-miterlimit="10" stroke-width="0.388"/>
            <line id="Línea_1677" data-name="Línea 1677" x2="5.054" transform="translate(0 2.527)" fill="none" stroke="#8f9294" stroke-miterlimit="10" stroke-width="0.388"/>
          </g>
          <g id="Grupo_124679" data-name="Grupo 124679" transform="translate(13.773)">
            <line id="Línea_1678" data-name="Línea 1678" y2="5.054" transform="translate(2.527)" fill="none" stroke="#8f9294" stroke-miterlimit="10" stroke-width="0.388"/>
            <line id="Línea_1679" data-name="Línea 1679" x2="5.054" transform="translate(0 2.527)" fill="none" stroke="#8f9294" stroke-miterlimit="10" stroke-width="0.388"/>
          </g>
          <g id="Grupo_124680" data-name="Grupo 124680" transform="translate(27.546)">
            <line id="Línea_1680" data-name="Línea 1680" y2="5.054" transform="translate(2.527)" fill="none" stroke="#8f9294" stroke-miterlimit="10" stroke-width="0.388"/>
            <line id="Línea_1681" data-name="Línea 1681" x2="5.054" transform="translate(0 2.527)" fill="none" stroke="#8f9294" stroke-miterlimit="10" stroke-width="0.388"/>
          </g>
          <g id="Grupo_124681" data-name="Grupo 124681" transform="translate(41.318)">
            <line id="Línea_1682" data-name="Línea 1682" y2="5.054" transform="translate(2.527)" fill="none" stroke="#8f9294" stroke-miterlimit="10" stroke-width="0.388"/>
            <line id="Línea_1683" data-name="Línea 1683" x2="5.054" transform="translate(0 2.527)" fill="none" stroke="#8f9294" stroke-miterlimit="10" stroke-width="0.388"/>
          </g>
        </g>
        <g id="Grupo_124687" data-name="Grupo 124687" transform="translate(0 20.975)">
          <g id="Grupo_124683" data-name="Grupo 124683">
            <line id="Línea_1684" data-name="Línea 1684" y2="5.054" transform="translate(2.527)" fill="none" stroke="#8f9294" stroke-miterlimit="10" stroke-width="0.388"/>
            <line id="Línea_1685" data-name="Línea 1685" x2="5.054" transform="translate(0 2.527)" fill="none" stroke="#8f9294" stroke-miterlimit="10" stroke-width="0.388"/>
          </g>
          <g id="Grupo_124684" data-name="Grupo 124684" transform="translate(13.773)">
            <line id="Línea_1686" data-name="Línea 1686" y2="5.054" transform="translate(2.527)" fill="none" stroke="#8f9294" stroke-miterlimit="10" stroke-width="0.388"/>
            <line id="Línea_1687" data-name="Línea 1687" x2="5.054" transform="translate(0 2.527)" fill="none" stroke="#8f9294" stroke-miterlimit="10" stroke-width="0.388"/>
          </g>
          <g id="Grupo_124685" data-name="Grupo 124685" transform="translate(27.546)">
            <line id="Línea_1688" data-name="Línea 1688" y2="5.054" transform="translate(2.527)" fill="none" stroke="#8f9294" stroke-miterlimit="10" stroke-width="0.388"/>
            <line id="Línea_1689" data-name="Línea 1689" x2="5.054" transform="translate(0 2.527)" fill="none" stroke="#8f9294" stroke-miterlimit="10" stroke-width="0.388"/>
          </g>
          <g id="Grupo_124686" data-name="Grupo 124686" transform="translate(41.318)">
            <line id="Línea_1690" data-name="Línea 1690" y2="5.054" transform="translate(2.527)" fill="none" stroke="#8f9294" stroke-miterlimit="10" stroke-width="0.388"/>
            <line id="Línea_1691" data-name="Línea 1691" x2="5.054" transform="translate(0 2.527)" fill="none" stroke="#8f9294" stroke-miterlimit="10" stroke-width="0.388"/>
          </g>
        </g>
        <g id="Grupo_124692" data-name="Grupo 124692" transform="translate(0 31.463)">
          <g id="Grupo_124688" data-name="Grupo 124688">
            <line id="Línea_1692" data-name="Línea 1692" y2="5.054" transform="translate(2.527)" fill="none" stroke="#8f9294" stroke-miterlimit="10" stroke-width="0.388"/>
            <line id="Línea_1693" data-name="Línea 1693" x2="5.054" transform="translate(0 2.527)" fill="none" stroke="#8f9294" stroke-miterlimit="10" stroke-width="0.388"/>
          </g>
          <g id="Grupo_124689" data-name="Grupo 124689" transform="translate(13.773)">
            <line id="Línea_1694" data-name="Línea 1694" y2="5.054" transform="translate(2.527)" fill="none" stroke="#8f9294" stroke-miterlimit="10" stroke-width="0.388"/>
            <line id="Línea_1695" data-name="Línea 1695" x2="5.054" transform="translate(0 2.527)" fill="none" stroke="#8f9294" stroke-miterlimit="10" stroke-width="0.388"/>
          </g>
          <g id="Grupo_124690" data-name="Grupo 124690" transform="translate(27.546)">
            <line id="Línea_1696" data-name="Línea 1696" y2="5.054" transform="translate(2.527)" fill="none" stroke="#8f9294" stroke-miterlimit="10" stroke-width="0.388"/>
            <line id="Línea_1697" data-name="Línea 1697" x2="5.054" transform="translate(0 2.527)" fill="none" stroke="#8f9294" stroke-miterlimit="10" stroke-width="0.388"/>
          </g>
          <g id="Grupo_124691" data-name="Grupo 124691" transform="translate(41.318)">
            <line id="Línea_1698" data-name="Línea 1698" y2="5.054" transform="translate(2.527)" fill="none" stroke="#8f9294" stroke-miterlimit="10" stroke-width="0.388"/>
            <line id="Línea_1699" data-name="Línea 1699" x2="5.054" transform="translate(0 2.527)" fill="none" stroke="#8f9294" stroke-miterlimit="10" stroke-width="0.388"/>
          </g>
        </g>
      </g>
      <rect id="Rectángulo_35685" data-name="Rectángulo 35685" width="56.039" height="4.699" transform="translate(566.851 0)" fill="none" stroke="#8f9294" stroke-linecap="round" stroke-linejoin="round" stroke-width="1"/>
      <path id="Trazado_174309" data-name="Trazado 174309" d="M736.57,275.471A11.926,11.926,0,1,0,748.5,287.4,11.926,11.926,0,0,0,736.57,275.471Zm0,17.5a5.577,5.577,0,1,1,5.577-5.577A5.577,5.577,0,0,1,736.57,292.974Z" transform="translate(-18.514 -190.156)" fill="#fdfdfd"/>
      <g id="Grupo_124746" data-name="Grupo 124746" transform="translate(483.455 44.444)" opacity="0.367">
        <g id="Grupo_124745" data-name="Grupo 124745" transform="translate(0)" clip-path="url(#clip-path)">
          <path id="Trazado_174310" data-name="Trazado 174310" d="M485.419,136.445c-7.029,7.462-14.578,14.406-21.609,21.9" transform="translate(-466.543 -137.637)" fill="none" stroke="#606060" stroke-miterlimit="10" stroke-width="0.655"/>
          <path id="Trazado_174311" data-name="Trazado 174311" d="M488.614,136.393c-7.83,8.391-16.586,16.543-24.842,24.83" transform="translate(-466.522 -137.609)" fill="none" stroke="#606060" stroke-miterlimit="10" stroke-width="0.655"/>
          <path id="Trazado_174312" data-name="Trazado 174312" d="M491.519,136.4c-9.294,9.292-18.654,18.652-27.875,27.88" transform="translate(-466.453 -137.615)" fill="none" stroke="#606060" stroke-miterlimit="10" stroke-width="0.655"/>
          <path id="Trazado_174313" data-name="Trazado 174313" d="M494.494,136.55q-15.193,15.2-30.8,30.794" transform="translate(-466.481 -137.694)" fill="none" stroke="#606060" stroke-miterlimit="10" stroke-width="0.655"/>
          <path id="Trazado_174314" data-name="Trazado 174314" d="M498.148,136.489c-11.326,11.065-22.8,22.236-34.379,33.738" transform="translate(-466.521 -137.661)" fill="none" stroke="#606060" stroke-miterlimit="10" stroke-width="0.655"/>
          <path id="Trazado_174315" data-name="Trazado 174315" d="M500.452,136.579c-11.882,12.231-23.658,23.7-35.735,36.083-.3.3-.906.3-1.066.716" transform="translate(-466.457 -137.709)" fill="none" stroke="#606060" stroke-miterlimit="10" stroke-width="0.655"/>
          <path id="Trazado_174316" data-name="Trazado 174316" d="M503.848,136.461c-7.315,7.756-15.165,14.7-23.015,22.551-5.737,6.039-11.474,11.172-16.971,17.2" transform="translate(-466.571 -137.646)" fill="none" stroke="#606060" stroke-miterlimit="10" stroke-width="0.655"/>
          <path id="Trazado_174317" data-name="Trazado 174317" d="M505.836,137.765c-13.881,14.1-28.374,27.686-42.066,42.165" transform="translate(-466.521 -138.348)" fill="none" stroke="#606060" stroke-miterlimit="10" stroke-width="0.655"/>
          <path id="Trazado_174318" data-name="Trazado 174318" d="M505.866,144.249c-13.852,13.826-28.043,28.017-41.986,42.039" transform="translate(-466.581 -141.841)" fill="none" stroke="#606060" stroke-miterlimit="10" stroke-width="0.655"/>
          <path id="Trazado_174319" data-name="Trazado 174319" d="M507.4,147.767c-14.468,14.618-29.263,28.809-43.5,43.453" transform="translate(-466.59 -143.736)" fill="none" stroke="#606060" stroke-miterlimit="10" stroke-width="0.655"/>
          <path id="Trazado_174320" data-name="Trazado 174320" d="M510.253,147.736c-15.663,15.538-30.76,31.541-46.637,46.595" transform="translate(-466.438 -143.72)" fill="none" stroke="#606060" stroke-miterlimit="10" stroke-width="0.655"/>
          <path id="Trazado_174321" data-name="Trazado 174321" d="M514.972,147.97,467.2,195.737" transform="translate(-468.372 -143.846)" fill="none" stroke="#606060" stroke-miterlimit="10" stroke-width="0.655"/>
          <path id="Trazado_174322" data-name="Trazado 174322" d="M521.359,147.974c-15.948,15.731-31.649,31.733-47.744,47.793" transform="translate(-471.825 -143.848)" fill="none" stroke="#606060" stroke-miterlimit="10" stroke-width="0.655"/>
          <path id="Trazado_174323" data-name="Trazado 174323" d="M526.408,150.913c-15.414,15.281-30.51,30.981-46.351,46.449" transform="translate(-475.295 -145.431)" fill="none" stroke="#606060" stroke-miterlimit="10" stroke-width="0.655"/>
          <path id="Trazado_174324" data-name="Trazado 174324" d="M529.986,157.09c-14.6,14.545-28.488,29.642-43.457,43.6" transform="translate(-478.782 -148.759)" fill="none" stroke="#606060" stroke-miterlimit="10" stroke-width="0.655"/>
          <path id="Trazado_174325" data-name="Trazado 174325" d="M533.377,164.17c-13.583,13.392-26.868,26.98-40.348,40.318" transform="translate(-482.284 -152.573)" fill="none" stroke="#606060" stroke-miterlimit="10" stroke-width="0.655"/>
          <path id="Trazado_174326" data-name="Trazado 174326" d="M536.979,170.164c-12.463,12.439-24.842,25.12-37.426,37.527" transform="translate(-485.798 -155.802)" fill="none" stroke="#606060" stroke-miterlimit="10" stroke-width="0.655"/>
          <path id="Trazado_174327" data-name="Trazado 174327" d="M540.388,176.763q-17.286,17.263-34.446,34.52" transform="translate(-489.24 -159.357)" fill="none" stroke="#606060" stroke-miterlimit="10" stroke-width="0.655"/>
          <path id="Trazado_174328" data-name="Trazado 174328" d="M543.96,183.234c-10.351,10.637-20.919,21.2-31.452,31.49" transform="translate(-492.777 -162.843)" fill="none" stroke="#606060" stroke-miterlimit="10" stroke-width="0.655"/>
          <path id="Trazado_174329" data-name="Trazado 174329" d="M547.384,189.833c-9.408,9.4-19.07,19.067-28.452,28.467" transform="translate(-496.238 -166.398)" fill="none" stroke="#606060" stroke-miterlimit="10" stroke-width="0.655"/>
          <path id="Trazado_174330" data-name="Trazado 174330" d="M550.772,196.537q-12.634,12.639-25.4,25.389" transform="translate(-499.706 -170.01)" fill="none" stroke="#606060" stroke-miterlimit="10" stroke-width="0.655"/>
          <path id="Trazado_174331" data-name="Trazado 174331" d="M554.338,202.6q-8.791,8.754-17.535,17.554-2.5,2.519-4.986,5.047" transform="translate(-503.179 -173.276)" fill="none" stroke="#606060" stroke-miterlimit="10" stroke-width="0.655"/>
          <path id="Trazado_174332" data-name="Trazado 174332" d="M557.8,209.851c-6.38,6.511-13.022,13.154-19.52,19.261" transform="translate(-506.658 -177.182)" fill="none" stroke="#606060" stroke-miterlimit="10" stroke-width="0.655"/>
        </g>
      </g>
      <ellipse id="Elipse_4980" data-name="Elipse 4980" cx="2.474" cy="2.474" rx="2.474" ry="2.474" transform="translate(641.452 64.757)" fill="none" stroke="#606060" stroke-miterlimit="10" stroke-width="0.655"/>
      <g id="Grupo_124749" data-name="Grupo 124749" transform="translate(664.922 47.414)">
        <g id="Grupo_124668-2" data-name="Grupo 124668" transform="translate(0 0)">
          <line id="Línea_1655-2" data-name="Línea 1655" x1="4.928" y2="4.928" fill="none" stroke="#d8d9da" stroke-miterlimit="10" stroke-width="0.78"/>
          <line id="Línea_1656-2" data-name="Línea 1656" x1="4.928" y2="4.928" transform="translate(2.401)" fill="none" stroke="#d8d9da" stroke-miterlimit="10" stroke-width="0.78"/>
          <line id="Línea_1657-2" data-name="Línea 1657" x1="4.928" y2="4.928" transform="translate(4.802)" fill="none" stroke="#d8d9da" stroke-miterlimit="10" stroke-width="0.78"/>
          <line id="Línea_1658-2" data-name="Línea 1658" x1="4.928" y2="4.928" transform="translate(7.203)" fill="none" stroke="#d8d9da" stroke-miterlimit="10" stroke-width="0.78"/>
          <line id="Línea_1659-2" data-name="Línea 1659" x1="4.928" y2="4.928" transform="translate(9.604)" fill="none" stroke="#d8d9da" stroke-miterlimit="10" stroke-width="0.78"/>
          <line id="Línea_1660-2" data-name="Línea 1660" x1="4.928" y2="4.928" transform="translate(12.004)" fill="none" stroke="#d8d9da" stroke-miterlimit="10" stroke-width="0.78"/>
          <line id="Línea_1661-2" data-name="Línea 1661" x1="4.928" y2="4.928" transform="translate(14.405)" fill="none" stroke="#d8d9da" stroke-miterlimit="10" stroke-width="0.78"/>
          <line id="Línea_1662-2" data-name="Línea 1662" x1="4.928" y2="4.928" transform="translate(16.806)" fill="none" stroke="#d8d9da" stroke-miterlimit="10" stroke-width="0.78"/>
          <line id="Línea_1663-2" data-name="Línea 1663" x1="4.928" y2="4.928" transform="translate(19.207)" fill="none" stroke="#d8d9da" stroke-miterlimit="10" stroke-width="0.78"/>
          <line id="Línea_1664-2" data-name="Línea 1664" x1="4.928" y2="4.928" transform="translate(21.608)" fill="none" stroke="#d8d9da" stroke-miterlimit="10" stroke-width="0.78"/>
          <line id="Línea_1665-2" data-name="Línea 1665" x1="4.928" y2="4.928" transform="translate(24.009)" fill="none" stroke="#d8d9da" stroke-miterlimit="10" stroke-width="0.78"/>
          <line id="Línea_1666-2" data-name="Línea 1666" x1="4.928" y2="4.928" transform="translate(26.41)" fill="none" stroke="#d8d9da" stroke-miterlimit="10" stroke-width="0.78"/>
          <line id="Línea_1667-2" data-name="Línea 1667" x1="4.928" y2="4.928" transform="translate(28.811)" fill="none" stroke="#d8d9da" stroke-miterlimit="10" stroke-width="0.78"/>
        </g>
      </g>
    </g>
  </g>
</svg>
