<svg xmlns="http://www.w3.org/2000/svg" xmlns:xlink="http://www.w3.org/1999/xlink" width="1329" height="340.703" viewBox="0 0 1329 340.703">
  <defs>
    <linearGradient id="linear-gradient" x1="0.187" y1="1" x2="1.538" y2="1" gradientUnits="objectBoundingBox">
      <stop offset="0" stop-color="#f5f5f5" stop-opacity="0.2"/>
      <stop offset="0.421" stop-color="#f5f5f5"/>
      <stop offset="1" stop-color="#afafaf"/>
    </linearGradient>
    <clipPath id="clip-path">
      <rect id="Rect치ngulo_45490" data-name="Rect치ngulo 45490" width="1329" height="340.703" transform="translate(0 0)" fill="#fff"/>
    </clipPath>
  </defs>
  <g id="Grupo_154292" data-name="Grupo 154292" transform="translate(-135.518 -5709.157)">
    <rect id="Rect치ngulo_42598" data-name="Rect치ngulo 42598" width="1113" height="340" transform="translate(351 5709.86)" fill="url(#linear-gradient)"/>
    <g id="Enmascarar_grupo_80040" data-name="Enmascarar grupo 80040" transform="translate(135.518 5709.158)" clip-path="url(#clip-path)">
      <path id="Dots-01" d="M445.884,202.29a.494.494,0,1,1,.535-.492A.515.515,0,0,1,445.884,202.29Zm0-12.589a.489.489,0,1,1,0-.971.488.488,0,1,1,0,.971Zm0-12.6a.489.489,0,0,1-.508-.458.506.506,0,0,1,1.007,0A.487.487,0,0,1,445.884,177.1Zm0-12.691a.349.349,0,1,1,0-.692.349.349,0,1,1,0,.692Zm0-12.679a.255.255,0,0,1-.273-.242.258.258,0,0,1,.273-.242.261.261,0,0,1,.262.242A.258.258,0,0,1,445.884,151.734Zm-.082-12.811c0-.044.027-.07.082-.07a.075.075,0,0,1,.072.07.074.074,0,0,1-.072.066C445.829,138.988,445.8,138.964,445.8,138.923Zm-13.839,76.535a1.088,1.088,0,1,1,1.2-1.1A1.149,1.149,0,0,1,431.963,215.458Zm0-12.582a1.087,1.087,0,1,1,1.2-1.077A1.14,1.14,0,0,1,431.963,202.876Zm0-12.577a1.085,1.085,0,1,1,1.2-1.086A1.141,1.141,0,0,1,431.963,190.3Zm0-12.609a1.051,1.051,0,1,1,1.16-1.045A1.112,1.112,0,0,1,431.963,177.691Zm0-12.713a.912.912,0,1,1,1.006-.91A.954.954,0,0,1,431.963,164.978Zm0-12.687a.8.8,0,1,1,.889-.8A.848.848,0,0,1,431.963,152.291Zm0-12.709a.7.7,0,0,1-.735-.66.738.738,0,0,1,1.469,0A.7.7,0,0,1,431.963,139.582Zm0-12.822a.421.421,0,1,1,.472-.418A.449.449,0,0,1,431.963,126.76Zm-.227-12.987a.233.233,0,1,1,.227.206A.228.228,0,0,1,431.736,113.773ZM418.052,215.982a1.615,1.615,0,1,1,1.778-1.623A1.714,1.714,0,0,1,418.052,215.982Zm0-12.589a1.613,1.613,0,1,1,1.778-1.594A1.694,1.694,0,0,1,418.052,203.393Zm0-12.565a1.611,1.611,0,1,1,1.778-1.614A1.7,1.7,0,0,1,418.052,190.828Zm0-12.646a1.546,1.546,0,1,1,1.7-1.537A1.62,1.62,0,0,1,418.052,178.182Zm0-12.651a1.469,1.469,0,1,1,1.624-1.463A1.545,1.545,0,0,1,418.052,165.531Zm0-12.711a1.332,1.332,0,1,1,1.461-1.328A1.4,1.4,0,0,1,418.052,152.82Zm0-12.713a1.193,1.193,0,1,1,1.315-1.185A1.256,1.256,0,0,1,418.052,140.107Zm0-12.822a.947.947,0,1,1,1.034-.943A1,1,0,0,1,418.052,127.285Zm0-12.782a.738.738,0,1,1,.817-.73A.782.782,0,0,1,418.052,114.5Zm0-12.852a.457.457,0,1,1,0-.91.458.458,0,1,1,0,.91Zm-.19-13.031a.183.183,0,0,1,.19-.176.19.19,0,0,1,.191.176.187.187,0,0,1-.191.172A.181.181,0,0,1,417.862,88.62Zm-13.72,115.335a2.172,2.172,0,1,1,2.385-2.156A2.282,2.282,0,0,1,404.143,203.955Zm0-12.643a2.1,2.1,0,1,1,2.312-2.1A2.22,2.22,0,0,1,404.143,191.312Zm0-12.609a2.068,2.068,0,1,1,2.276-2.057A2.176,2.176,0,0,1,404.143,178.7Zm0-12.643a2,2,0,1,1,2.195-1.992A2.108,2.108,0,0,1,404.143,166.06Zm0-12.716a1.858,1.858,0,1,1,2.049-1.852A1.957,1.957,0,0,1,404.143,153.344Zm0-12.75a1.682,1.682,0,1,1,1.85-1.672A1.769,1.769,0,0,1,404.143,140.594Zm0-12.785a1.471,1.471,0,1,1,1.623-1.467A1.552,1.552,0,0,1,404.143,127.809Zm0-12.818a1.227,1.227,0,1,1,1.342-1.218A1.287,1.287,0,0,1,404.143,114.991Zm0-12.856a.945.945,0,1,1,1.043-.942A.994.994,0,0,1,404.143,102.135Zm0-12.851a.666.666,0,1,1,.725-.664A.7.7,0,0,1,404.143,89.284Zm0-12.93a.339.339,0,0,1-.353-.315.351.351,0,0,1,.7,0A.337.337,0,0,1,404.143,76.354ZM390.231,204.413a2.631,2.631,0,1,1,2.884-2.614A2.769,2.769,0,0,1,390.231,204.413Zm0-12.613a2.594,2.594,0,1,1,2.847-2.586A2.73,2.73,0,0,1,390.231,191.8Zm0-12.638a2.525,2.525,0,1,1,2.775-2.516A2.666,2.666,0,0,1,390.231,179.162Zm0-12.651a2.454,2.454,0,1,1,2.693-2.442A2.58,2.58,0,0,1,390.231,166.51Zm0-12.72a2.309,2.309,0,1,1,2.539-2.3A2.428,2.428,0,0,1,390.231,153.79Zm0-12.711a2.171,2.171,0,1,1,2.385-2.156A2.288,2.288,0,0,1,390.231,141.079Zm0-12.778a1.966,1.966,0,1,1,2.158-1.959A2.076,2.076,0,0,1,390.231,128.3Zm0-12.822a1.718,1.718,0,1,1,1.886-1.705A1.8,1.8,0,0,1,390.231,115.478Zm0-12.856a1.436,1.436,0,1,1,1.57-1.43A1.511,1.511,0,0,1,390.231,102.622Zm0-12.888a1.121,1.121,0,1,1,1.224-1.115A1.178,1.178,0,0,1,390.231,89.734Zm0-12.926a.77.77,0,1,1,.843-.77A.808.808,0,0,1,390.231,76.809Zm0-12.958a.385.385,0,1,1,.417-.381A.4.4,0,0,1,390.231,63.851ZM376.312,204.868a3.086,3.086,0,1,1,3.39-3.069A3.241,3.241,0,0,1,376.312,204.868Zm0-12.613a3.05,3.05,0,1,1,3.355-3.04A3.214,3.214,0,0,1,376.312,192.254Zm0-12.646a2.981,2.981,0,1,1,3.283-2.963A3.13,3.13,0,0,1,376.312,179.608Zm0-12.643a2.908,2.908,0,1,1,3.2-2.9A3.061,3.061,0,0,1,376.312,166.965Zm0-12.72a2.766,2.766,0,1,1,3.047-2.754A2.906,2.906,0,0,1,376.312,154.245Zm0-12.741a2.593,2.593,0,1,1,2.855-2.582A2.737,2.737,0,0,1,376.312,141.5Zm0-12.79a2.383,2.383,0,1,1,2.63-2.373A2.5,2.5,0,0,1,376.312,128.715Zm0-12.781a2.175,2.175,0,1,1,2.394-2.16A2.294,2.294,0,0,1,376.312,115.933Zm0-12.893a1.86,1.86,0,1,1,2.05-1.848A1.947,1.947,0,0,1,376.312,103.041Zm0-12.884a1.544,1.544,0,1,1,1.695-1.537A1.618,1.618,0,0,1,376.312,90.156Zm0-12.921a1.193,1.193,0,1,1,1.315-1.2A1.255,1.255,0,0,1,376.312,77.235Zm0-12.966a.805.805,0,1,1,.889-.8A.848.848,0,0,1,376.312,64.269Zm0-12.991a.385.385,0,1,1,.427-.385A.407.407,0,0,1,376.312,51.279Zm-13.919,154a3.506,3.506,0,1,1,3.863-3.48A3.681,3.681,0,0,1,362.393,205.278Zm0-12.615a3.471,3.471,0,1,1,3.827-3.45A3.646,3.646,0,0,1,362.393,192.664Zm0-12.609a3.432,3.432,0,1,1,3.781-3.409A3.61,3.61,0,0,1,362.393,180.055Zm0-12.671a3.333,3.333,0,1,1,3.673-3.315A3.5,3.5,0,0,1,362.393,167.383Zm0-12.72a3.185,3.185,0,1,1,3.518-3.172A3.356,3.356,0,0,1,362.393,154.663Zm0-12.781a2.981,2.981,0,1,1,3.292-2.96A3.123,3.123,0,0,1,362.393,141.882Zm0-12.782a2.772,2.772,0,1,1,3.056-2.758A2.9,2.9,0,0,1,362.393,129.1Zm0-12.818a2.523,2.523,0,1,1,2.774-2.509A2.657,2.657,0,0,1,362.393,116.281Zm0-12.856a2.244,2.244,0,1,1,2.483-2.233A2.355,2.355,0,0,1,362.393,103.425Zm0-12.892a1.927,1.927,0,1,1,2.131-1.914A2.028,2.028,0,0,1,362.393,90.533Zm0-12.922a1.578,1.578,0,1,1,1.741-1.573A1.658,1.658,0,0,1,362.393,77.612Zm0-12.953a1.193,1.193,0,1,1,1.315-1.188A1.249,1.249,0,0,1,362.393,64.659Zm0-12.995a.771.771,0,1,1,.852-.771A.812.812,0,0,1,362.393,51.664Zm0-13.032a.314.314,0,1,1,.353-.311A.329.329,0,0,1,362.393,38.632Zm-13.9,179.6a3.885,3.885,0,1,1,4.28-3.877A4.09,4.09,0,0,1,348.491,218.236Zm0-12.568a3.892,3.892,0,1,1,4.28-3.869A4.095,4.095,0,0,1,348.491,205.668Zm0-12.577a3.89,3.89,0,1,1,4.28-3.876A4.1,4.1,0,0,1,348.491,193.09Zm0-12.65a3.818,3.818,0,1,1,4.2-3.794A4.009,4.009,0,0,1,348.491,180.44Zm0-12.671a3.718,3.718,0,1,1,4.08-3.7A3.917,3.917,0,0,1,348.491,167.769Zm0-12.72a3.572,3.572,0,1,1,3.934-3.557A3.757,3.757,0,0,1,348.491,155.049Zm0-12.741a3.4,3.4,0,1,1,3.735-3.385A3.582,3.582,0,0,1,348.491,142.308Zm0-12.782a3.189,3.189,0,1,1,3.5-3.184A3.351,3.351,0,0,1,348.491,129.526Zm0-12.859a2.91,2.91,0,1,1,3.2-2.894A3.068,3.068,0,0,1,348.491,116.667Zm0-12.856a2.63,2.63,0,1,1,2.892-2.618A2.76,2.76,0,0,1,348.491,103.811Zm0-12.925a2.277,2.277,0,1,1,2.5-2.266A2.4,2.4,0,0,1,348.491,90.886Zm0-12.889a1.963,1.963,0,1,1,2.167-1.959A2.068,2.068,0,0,1,348.491,78Zm0-12.994a1.54,1.54,0,1,1,1.7-1.533A1.632,1.632,0,0,1,348.491,65Zm0-12.995a1.122,1.122,0,1,1,1.233-1.115A1.179,1.179,0,0,1,348.491,52.008Zm0-13.028a.665.665,0,1,1,0-1.32.663.663,0,1,1,0,1.32Zm-.236-13.237a.228.228,0,0,1,.236-.213.22.22,0,0,1,.226.213.216.216,0,0,1-.226.213A.223.223,0,0,1,348.255,25.744ZM334.572,206.053a4.276,4.276,0,1,1,4.715-4.254A4.508,4.508,0,0,1,334.572,206.053Zm0-12.619a4.238,4.238,0,1,1,4.67-4.221A4.457,4.457,0,0,1,334.572,193.434Zm0-12.638a4.17,4.17,0,1,1,4.588-4.151A4.388,4.388,0,0,1,334.572,180.8Zm0-12.683a4.066,4.066,0,1,1,4.479-4.045A4.271,4.271,0,0,1,334.572,168.113Zm0-12.708a3.929,3.929,0,1,1,4.325-3.914A4.131,4.131,0,0,1,334.572,155.405Zm0-12.757a3.753,3.753,0,1,1,4.135-3.726A3.941,3.941,0,0,1,334.572,142.648Zm0-12.815a3.5,3.5,0,1,1,3.863-3.491A3.683,3.683,0,0,1,334.572,129.833Zm0-12.827a3.257,3.257,0,1,1,3.591-3.234A3.419,3.419,0,0,1,334.572,117.007Zm0-12.852a2.98,2.98,0,1,1,3.283-2.963A3.122,3.122,0,0,1,334.572,104.155Zm0-12.921a2.63,2.63,0,1,1,2.893-2.614A2.767,2.767,0,0,1,334.572,91.234Zm0-12.958a2.241,2.241,0,1,1,2.466-2.238A2.361,2.361,0,0,1,334.572,78.277Zm0-12.955a1.86,1.86,0,1,1,2.049-1.852A1.954,1.954,0,0,1,334.572,65.322Zm0-12.995a1.44,1.44,0,1,1,1.587-1.434A1.515,1.515,0,0,1,334.572,52.327Zm0-13.035a.98.98,0,1,1,0-1.951.98.98,0,1,1,0,1.951Zm0-13.061a.49.49,0,1,1,.544-.488A.517.517,0,0,1,334.572,26.231Zm-13.911,192.7a4.588,4.588,0,1,1,5.052-4.573A4.827,4.827,0,0,1,320.66,218.932Zm0-12.564a4.592,4.592,0,1,1,5.052-4.57A4.824,4.824,0,0,1,320.66,206.368Zm0-12.581a4.59,4.59,0,1,1,5.052-4.573A4.824,4.824,0,0,1,320.66,193.787Zm0-12.65a4.517,4.517,0,1,1,4.979-4.491A4.75,4.75,0,0,1,320.66,181.137Zm0-12.707a4.381,4.381,0,1,1,4.824-4.361A4.611,4.611,0,0,1,320.66,168.429Zm0-12.709a4.245,4.245,0,1,1,4.661-4.229A4.468,4.468,0,0,1,320.66,155.721Zm0-12.757a4.07,4.07,0,1,1,4.479-4.041A4.277,4.277,0,0,1,320.66,142.964Zm0-12.815a3.822,3.822,0,1,1,4.208-3.807A4.012,4.012,0,0,1,320.66,130.149Zm0-12.827a3.573,3.573,0,1,1,3.936-3.549A3.748,3.748,0,0,1,320.66,117.322Zm0-12.884a3.26,3.26,0,1,1,3.59-3.245A3.432,3.432,0,0,1,320.66,104.438Zm0-12.892A2.941,2.941,0,1,1,323.9,88.62,3.1,3.1,0,0,1,320.66,91.546Zm0-12.954a2.561,2.561,0,1,1,2.812-2.553A2.689,2.689,0,0,1,320.66,78.592Zm0-12.962a2.171,2.171,0,1,1,2.394-2.16A2.282,2.282,0,0,1,320.66,65.63Zm0-13.024a1.717,1.717,0,1,1,1.886-1.713A1.81,1.81,0,0,1,320.66,52.606Zm0-13.036a1.26,1.26,0,1,1,1.388-1.25A1.331,1.331,0,0,1,320.66,39.57Zm0-13.056a.77.77,0,1,1,.843-.771A.811.811,0,0,1,320.66,26.514Zm-.272-13.347a.274.274,0,1,1,.272.242A.254.254,0,0,1,320.388,13.167ZM306.75,206.643a4.872,4.872,0,1,1,5.358-4.844A5.129,5.129,0,0,1,306.75,206.643Zm0-12.582a4.87,4.87,0,1,1,5.358-4.847A5.124,5.124,0,0,1,306.75,194.061Zm0-12.638a4.8,4.8,0,1,1,5.286-4.778A5.056,5.056,0,0,1,306.75,181.424Zm0-12.65a4.73,4.73,0,1,1,5.2-4.7A4.974,4.974,0,0,1,306.75,168.773Zm0-12.741a4.559,4.559,0,1,1,5.014-4.54A4.8,4.8,0,0,1,306.75,156.032Zm0-12.781a4.348,4.348,0,1,1,4.787-4.328A4.58,4.58,0,0,1,306.75,143.251Zm0-12.832a4.1,4.1,0,1,1,4.514-4.077A4.31,4.31,0,0,1,306.75,130.419Zm0-12.851a3.823,3.823,0,1,1,4.207-3.8A4.021,4.021,0,0,1,306.75,117.568Zm0-12.852a3.537,3.537,0,1,1,3.889-3.524A3.72,3.72,0,0,1,306.75,104.716Zm0-12.925a3.19,3.19,0,1,1,3.509-3.172A3.358,3.358,0,0,1,306.75,91.791Zm0-12.958a2.8,2.8,0,1,1,3.083-2.8A2.948,2.948,0,0,1,306.75,78.834Zm0-12.962a2.416,2.416,0,1,1,2.656-2.4A2.547,2.547,0,0,1,306.75,65.872Zm0-13.024a1.962,1.962,0,1,1,2.158-1.955A2.067,2.067,0,0,1,306.75,52.848Zm0-13.028a1.507,1.507,0,1,1,1.65-1.5A1.58,1.58,0,0,1,306.75,39.82Zm0-13.1a.978.978,0,1,1,1.079-.975A1.028,1.028,0,0,1,306.75,26.719Zm0-13.1a.455.455,0,1,1,.5-.455A.481.481,0,0,1,306.75,13.622ZM292.83,206.954a5.188,5.188,0,1,1,5.713-5.155A5.455,5.455,0,0,1,292.83,206.954Zm0-12.61a5.152,5.152,0,1,1,5.678-5.13A5.413,5.413,0,0,1,292.83,194.344Zm0-12.675a5.051,5.051,0,1,1,5.568-5.024A5.307,5.307,0,0,1,292.83,181.669Zm0-12.65a4.976,4.976,0,1,1,5.477-4.951A5.23,5.23,0,0,1,292.83,169.019Zm0-12.745a4.8,4.8,0,1,1,5.287-4.782A5.058,5.058,0,0,1,292.83,156.274Zm0-12.781a4.594,4.594,0,1,1,5.051-4.57A4.832,4.832,0,0,1,292.83,143.493Zm0-12.823a4.35,4.35,0,1,1,4.788-4.327A4.572,4.572,0,0,1,292.83,130.669Zm0-12.86a4.066,4.066,0,1,1,4.48-4.037A4.277,4.277,0,0,1,292.83,117.81Zm0-12.885a3.75,3.75,0,1,1,4.126-3.733A3.946,3.946,0,0,1,292.83,104.925Zm0-12.925a3.4,3.4,0,1,1,3.737-3.381A3.575,3.575,0,0,1,292.83,92Zm0-12.954a3.017,3.017,0,1,1,3.32-3.008A3.174,3.174,0,0,1,292.83,79.047Zm0-12.962a2.629,2.629,0,1,1,2.9-2.614A2.764,2.764,0,0,1,292.83,66.085Zm0-12.991a2.208,2.208,0,1,1,2.431-2.2A2.332,2.332,0,0,1,292.83,53.094Zm0-13.06a1.722,1.722,0,1,1,1.9-1.713A1.8,1.8,0,0,1,292.83,40.034Zm0-13.064a1.228,1.228,0,1,1,1.352-1.226A1.291,1.291,0,0,1,292.83,26.969Zm0-13.1a.7.7,0,1,1,.78-.7A.751.751,0,0,1,292.83,13.872ZM292.721.594a.11.11,0,0,1,.109-.111.126.126,0,0,1,.126.111A.123.123,0,0,1,292.83.7.107.107,0,0,1,292.721.594Zm-13.8,206.56a5.4,5.4,0,1,1,5.939-5.356A5.668,5.668,0,0,1,278.92,207.155Zm0-12.6a5.36,5.36,0,1,1,5.895-5.336A5.633,5.633,0,0,1,278.92,194.55Zm0-12.643a5.29,5.29,0,1,1,5.831-5.261A5.572,5.572,0,0,1,278.92,181.907Zm0-12.679a5.186,5.186,0,1,1,5.713-5.16A5.45,5.45,0,0,1,278.92,169.228Zm0-12.749a5.011,5.011,0,1,1,5.514-4.987A5.271,5.271,0,0,1,278.92,156.479Zm0-12.781a4.8,4.8,0,1,1,5.3-4.775A5.054,5.054,0,0,1,278.92,143.7Zm0-12.819a4.558,4.558,0,1,1,5.023-4.536A4.787,4.787,0,0,1,278.92,130.878Zm0-12.856a4.276,4.276,0,1,1,4.705-4.25A4.5,4.5,0,0,1,278.92,118.023Zm0-12.892a3.959,3.959,0,1,1,4.362-3.938A4.163,4.163,0,0,1,278.92,105.131Zm0-12.917A3.611,3.611,0,1,1,282.9,88.62,3.791,3.791,0,0,1,278.92,92.214Zm0-12.994a3.19,3.19,0,1,1,3.509-3.181A3.353,3.353,0,0,1,278.92,79.219Zm0-12.991a2.772,2.772,0,1,1,3.047-2.758A2.919,2.919,0,0,1,278.92,66.228Zm0-12.995a2.35,2.35,0,1,1,2.585-2.34A2.471,2.471,0,0,1,278.92,53.233Zm0-13.028a1.895,1.895,0,1,1,2.086-1.885A2,2,0,0,1,278.92,40.206Zm0-13.1a1.368,1.368,0,1,1,1.505-1.361A1.435,1.435,0,0,1,278.92,27.1Zm0-13.06a.88.88,0,1,1,0-1.75.879.879,0,1,1,0,1.75Zm0-13.171a.3.3,0,0,1-.308-.279.3.3,0,0,1,.308-.283.293.293,0,0,1,.309.283A.287.287,0,0,1,278.92.873ZM265.01,207.339c-3.393,0-6.14-2.483-6.14-5.541s2.747-5.549,6.14-5.549,6.139,2.484,6.139,5.549S268.4,207.339,265.01,207.339Zm0-12.606c-3.374,0-6.1-2.475-6.1-5.52s2.73-5.5,6.1-5.5,6.093,2.462,6.093,5.5A5.831,5.831,0,0,1,265.01,194.734Zm0-12.654c-3.32,0-6.023-2.426-6.023-5.434s2.7-5.443,6.023-5.443a5.465,5.465,0,1,1,0,10.876Zm0-12.679a5.361,5.361,0,1,1,5.9-5.332A5.636,5.636,0,0,1,265.01,169.4Zm0-12.737a5.194,5.194,0,1,1,5.713-5.172A5.454,5.454,0,0,1,265.01,156.663Zm0-12.786a4.978,4.978,0,1,1,5.477-4.955A5.239,5.239,0,0,1,265.01,143.878Zm0-12.832a4.728,4.728,0,1,1,5.2-4.7A4.979,4.979,0,0,1,265.01,131.046Zm0-12.879a4.42,4.42,0,1,1,4.86-4.394A4.657,4.657,0,0,1,265.01,118.167Zm0-12.893a4.1,4.1,0,1,1,4.507-4.081A4.3,4.3,0,0,1,265.01,105.273Zm0-12.925a3.75,3.75,0,1,1,4.126-3.729A3.945,3.945,0,0,1,265.01,92.349Zm0-12.958a3.365,3.365,0,1,1,3.7-3.353A3.542,3.542,0,0,1,265.01,79.391Zm0-13a2.943,2.943,0,1,1,3.237-2.926A3.1,3.1,0,0,1,265.01,66.4Zm0-13.024a2.49,2.49,0,1,1,2.739-2.479A2.626,2.626,0,0,1,265.01,53.372Zm0-13.031a2.033,2.033,0,1,1,2.24-2.02A2.139,2.139,0,0,1,265.01,40.341Zm0-13.1a1.508,1.508,0,1,1,1.659-1.5A1.584,1.584,0,0,1,265.01,27.243Zm0-13.134a.946.946,0,1,1,1.043-.943A1,1,0,0,1,265.01,14.11Zm0-13.1a.442.442,0,0,1-.463-.418.465.465,0,0,1,.926,0A.441.441,0,0,1,265.01,1.012ZM251.1,207.47c-3.473,0-6.285-2.533-6.285-5.672s2.811-5.692,6.285-5.692,6.284,2.553,6.284,5.692S254.572,207.47,251.1,207.47Zm0-12.569c-3.473,0-6.285-2.545-6.285-5.688s2.811-5.672,6.285-5.672,6.284,2.537,6.284,5.672S254.572,194.9,251.1,194.9Zm0-12.675c-3.411,0-6.175-2.5-6.175-5.581s2.764-5.574,6.175-5.574,6.175,2.492,6.175,5.574S254.508,182.227,251.1,182.227Zm0-12.712c-3.328,0-6.03-2.443-6.03-5.446s2.7-5.446,6.03-5.446a5.473,5.473,0,1,1,0,10.893Zm0-12.753a5.293,5.293,0,1,1,5.83-5.27A5.565,5.565,0,0,1,251.1,156.762Zm0-12.781a5.085,5.085,0,1,1,5.595-5.058A5.349,5.349,0,0,1,251.1,143.98Zm0-12.852a4.8,4.8,0,1,1,5.278-4.786A5.055,5.055,0,0,1,251.1,131.128Zm0-12.822a4.559,4.559,0,1,1,5.006-4.533A4.8,4.8,0,0,1,251.1,118.306Zm0-12.926a4.207,4.207,0,1,1,4.625-4.188A4.431,4.431,0,0,1,251.1,105.38Zm0-12.929a3.853,3.853,0,1,1,4.234-3.831A4.046,4.046,0,0,1,251.1,92.451Zm0-12.953a3.472,3.472,0,1,1,3.818-3.46A3.647,3.647,0,0,1,251.1,79.5Zm0-13.028a3.014,3.014,0,1,1,3.31-3A3.167,3.167,0,0,1,251.1,66.47Zm0-12.995a2.592,2.592,0,1,1,2.847-2.582A2.724,2.724,0,0,1,251.1,53.475Zm0-13.065a2.1,2.1,0,1,1,2.312-2.09A2.21,2.21,0,0,1,251.1,40.411Zm0-13.064a1.61,1.61,0,1,1,1.767-1.6A1.7,1.7,0,0,1,251.1,27.346Zm0-13.1a1.085,1.085,0,1,1,1.187-1.082A1.145,1.145,0,0,1,251.1,14.249Zm0-13.167a.513.513,0,0,1-.545-.488.542.542,0,0,1,1.079,0A.515.515,0,0,1,251.1,1.082Zm-13.91,206.5c-3.546,0-6.412-2.6-6.412-5.787S233.642,196,237.188,196c3.527,0,6.391,2.6,6.391,5.794S240.715,207.585,237.188,207.585Zm0-12.577c-3.546,0-6.412-2.593-6.412-5.794s2.866-5.786,6.412-5.786c3.527,0,6.391,2.6,6.391,5.786S240.715,195.008,237.188,195.008Zm0-12.683c-3.482,0-6.294-2.536-6.294-5.679s2.811-5.689,6.294-5.689c3.464,0,6.293,2.544,6.293,5.689S240.652,182.325,237.188,182.325Zm0-12.749c-3.374,0-6.1-2.463-6.1-5.508s2.729-5.516,6.1-5.516a5.539,5.539,0,1,1,0,11.024Zm0-12.712a5.682,5.682,0,0,1-5.95-5.372c0-2.963,2.666-5.364,5.95-5.364a5.4,5.4,0,1,1,0,10.737Zm0-12.786a5.185,5.185,0,1,1,5.7-5.156A5.463,5.463,0,0,1,237.188,144.078Zm0-12.889a4.87,4.87,0,1,1,5.359-4.847A5.123,5.123,0,0,1,237.188,131.189Zm0-12.851a4.592,4.592,0,1,1,5.041-4.566A4.834,4.834,0,0,1,237.188,118.339Zm0-12.892a4.274,4.274,0,1,1,4.7-4.254A4.5,4.5,0,0,1,237.188,105.446Zm0-12.954a3.89,3.89,0,1,1,4.28-3.872A4.093,4.093,0,0,1,237.188,92.492Zm0-12.925a3.54,3.54,0,1,1,3.889-3.529A3.724,3.724,0,0,1,237.188,79.568Zm0-13a3.118,3.118,0,1,1,3.437-3.1A3.277,3.277,0,0,1,237.188,66.572Zm0-13.024a2.664,2.664,0,1,1,2.92-2.656A2.807,2.807,0,0,1,237.188,53.549Zm0-13.036a2.205,2.205,0,1,1,2.421-2.192A2.317,2.317,0,0,1,237.188,40.513Zm0-13.093a1.682,1.682,0,1,1,1.848-1.676A1.778,1.778,0,0,1,237.188,27.42Zm0-13.1a1.157,1.157,0,1,1,1.268-1.156A1.215,1.215,0,0,1,237.188,14.323Zm0-13.138a.63.63,0,0,1-.662-.59A.633.633,0,0,1,237.188,0a.625.625,0,0,1,.653.594A.622.622,0,0,1,237.188,1.185Zm-13.92,206.471c-3.581,0-6.483-2.619-6.483-5.857s2.9-5.864,6.483-5.864,6.484,2.631,6.484,5.864S226.86,207.655,223.268,207.655Zm0-12.61c-3.554,0-6.438-2.61-6.438-5.831s2.883-5.819,6.438-5.819,6.439,2.6,6.439,5.819S226.823,195.045,223.268,195.045Zm0-12.679c-3.5,0-6.329-2.561-6.329-5.721s2.83-5.726,6.329-5.726,6.33,2.566,6.33,5.726S226.769,182.366,223.268,182.366Zm0-12.72c-3.41,0-6.166-2.492-6.166-5.578a5.9,5.9,0,0,1,6.166-5.585c3.41,0,6.176,2.508,6.176,5.585S226.678,169.646,223.268,169.646Zm0-12.745a5.434,5.434,0,1,1,0-10.815c3.3,0,5.986,2.43,5.986,5.406A5.725,5.725,0,0,1,223.268,156.9Zm0-12.822a5.186,5.186,0,1,1,5.713-5.156A5.461,5.461,0,0,1,223.268,144.078Zm0-12.815a4.944,4.944,0,1,1,5.442-4.921A5.206,5.206,0,0,1,223.268,131.263Zm0-12.888a4.63,4.63,0,1,1,5.1-4.6A4.865,4.865,0,0,1,223.268,118.375Zm0-12.892a4.31,4.31,0,1,1,4.743-4.291A4.531,4.531,0,0,1,223.268,105.483Zm0-12.954a3.928,3.928,0,1,1,4.326-3.91A4.13,4.13,0,0,1,223.268,92.529Zm0-12.962a3.541,3.541,0,1,1,3.9-3.529A3.721,3.721,0,0,1,223.268,79.568Zm0-13a3.119,3.119,0,1,1,3.438-3.1A3.273,3.273,0,0,1,223.268,66.572Zm0-13.024a2.665,2.665,0,1,1,2.93-2.656A2.813,2.813,0,0,1,223.268,53.549Zm0-13.036a2.206,2.206,0,1,1,2.431-2.192A2.316,2.316,0,0,1,223.268,40.513Zm0-13.093a1.682,1.682,0,1,1,1.851-1.676A1.767,1.767,0,0,1,223.268,27.42Zm0-13.1a1.157,1.157,0,1,1,1.27-1.156A1.212,1.212,0,0,1,223.268,14.323Zm0-13.138a.621.621,0,0,1-.653-.59.656.656,0,0,1,1.305,0A.621.621,0,0,1,223.268,1.185ZM209.349,207.618c-3.555,0-6.438-2.6-6.438-5.819s2.884-5.827,6.438-5.827,6.447,2.6,6.447,5.827S212.912,207.618,209.349,207.618Zm0-12.61c-3.528,0-6.4-2.593-6.4-5.794s2.874-5.786,6.4-5.786c3.545,0,6.41,2.6,6.41,5.786S212.894,195.008,209.349,195.008Zm0-12.683c-3.464,0-6.284-2.536-6.284-5.679s2.82-5.689,6.284-5.689c3.481,0,6.292,2.544,6.292,5.689S212.83,182.325,209.349,182.325Zm0-12.749a5.539,5.539,0,1,1,0-11.024c3.373,0,6.1,2.471,6.1,5.516S212.722,169.576,209.349,169.576Zm0-12.712a5.4,5.4,0,1,1,5.948-5.372A5.671,5.671,0,0,1,209.349,156.864Zm0-12.786a5.186,5.186,0,1,1,5.712-5.156A5.452,5.452,0,0,1,209.349,144.078Zm0-12.889a4.872,4.872,0,1,1,5.377-4.847A5.126,5.126,0,0,1,209.349,131.189Zm0-12.814a4.63,4.63,0,1,1,5.1-4.6A4.871,4.871,0,0,1,209.349,118.375Zm0-12.892a4.312,4.312,0,1,1,4.76-4.291A4.531,4.531,0,0,1,209.349,105.483Zm0-12.954a3.929,3.929,0,1,1,4.335-3.91A4.13,4.13,0,0,1,209.349,92.529Zm0-12.962a3.542,3.542,0,1,1,3.908-3.529A3.719,3.719,0,0,1,209.349,79.568Zm0-13a3.118,3.118,0,1,1,3.437-3.1A3.279,3.279,0,0,1,209.349,66.572Zm0-13.024a2.666,2.666,0,1,1,2.947-2.656A2.8,2.8,0,0,1,209.349,53.549Zm0-13.036a2.207,2.207,0,1,1,2.439-2.192A2.317,2.317,0,0,1,209.349,40.513Zm0-13.093a1.684,1.684,0,1,1,1.868-1.676A1.772,1.772,0,0,1,209.349,27.42Zm0-13.1a1.158,1.158,0,1,1,1.278-1.156A1.209,1.209,0,0,1,209.349,14.323Zm0-13.138a.622.622,0,0,1-.653-.59A.625.625,0,0,1,209.349,0a.633.633,0,0,1,.662.594A.63.63,0,0,1,209.349,1.185ZM195.439,207.516c-3.491,0-6.321-2.566-6.321-5.717,0-3.168,2.83-5.721,6.321-5.721s6.329,2.553,6.329,5.721C201.767,204.95,198.938,207.516,195.439,207.516Zm0-12.614c-3.465,0-6.285-2.545-6.285-5.688s2.82-5.672,6.285-5.672,6.293,2.537,6.293,5.672S198.911,194.9,195.439,194.9Zm0-12.647c-3.438,0-6.212-2.508-6.212-5.609s2.775-5.615,6.212-5.615,6.211,2.5,6.211,5.615S198.875,182.255,195.439,182.255Zm0-12.716c-3.337,0-6.058-2.442-6.058-5.471s2.721-5.47,6.058-5.47,6.066,2.45,6.066,5.47S198.784,169.539,195.439,169.539Zm0-12.745a5.327,5.327,0,1,1,5.876-5.3A5.6,5.6,0,0,1,195.439,156.794Zm0-12.814a5.085,5.085,0,1,1,5.595-5.058A5.356,5.356,0,0,1,195.439,143.98Zm0-12.824a4.836,4.836,0,1,1,5.323-4.815A5.089,5.089,0,0,1,195.439,131.157Zm0-12.851a4.56,4.56,0,1,1,5.024-4.533A4.788,4.788,0,0,1,195.439,118.306Zm0-12.926a4.207,4.207,0,1,1,4.634-4.188A4.425,4.425,0,0,1,195.439,105.38Zm0-12.929a3.854,3.854,0,1,1,4.243-3.831A4.046,4.046,0,0,1,195.439,92.451Zm0-12.953a3.472,3.472,0,1,1,3.817-3.46A3.653,3.653,0,0,1,195.439,79.5Zm0-13A3.049,3.049,0,1,1,198.8,63.47,3.208,3.208,0,0,1,195.439,66.5Zm0-13.028a2.593,2.593,0,1,1,2.856-2.582A2.727,2.727,0,0,1,195.439,53.475Zm0-13.065a2.1,2.1,0,1,1,2.321-2.09A2.214,2.214,0,0,1,195.439,40.411Zm0-13.064a1.611,1.611,0,1,1,1.777-1.6A1.7,1.7,0,0,1,195.439,27.346Zm0-13.1a1.085,1.085,0,1,1,1.2-1.082A1.14,1.14,0,0,1,195.439,14.249Zm0-13.167a.524.524,0,0,1-.544-.488.523.523,0,0,1,.544-.488.513.513,0,0,1,.544.488A.513.513,0,0,1,195.439,1.082Zm-13.911,206.3c-3.4,0-6.175-2.5-6.175-5.582s2.775-5.59,6.175-5.59a5.9,5.9,0,0,1,6.176,5.59C187.7,204.88,184.946,207.381,181.527,207.381Zm0-12.647a5.831,5.831,0,0,1-6.093-5.52c0-3.041,2.729-5.5,6.093-5.5s6.095,2.462,6.095,5.5A5.826,5.826,0,0,1,181.527,194.734Zm0-12.613c-3.337,0-6.057-2.459-6.057-5.475s2.72-5.476,6.057-5.476a5.788,5.788,0,0,1,6.058,5.476C187.586,179.661,184.874,182.12,181.527,182.12Zm0-12.72a5.361,5.361,0,1,1,5.9-5.332A5.641,5.641,0,0,1,181.527,169.4Zm0-12.737a5.194,5.194,0,1,1,5.714-5.172A5.468,5.468,0,0,1,181.527,156.663Zm0-12.786A4.978,4.978,0,1,1,187,138.923,5.244,5.244,0,0,1,181.527,143.878Zm0-12.832a4.729,4.729,0,1,1,5.214-4.7A4.97,4.97,0,0,1,181.527,131.046Zm0-12.879a4.42,4.42,0,1,1,4.861-4.394A4.64,4.64,0,0,1,181.527,118.167Zm0-12.893a4.1,4.1,0,1,1,4.516-4.081A4.3,4.3,0,0,1,181.527,105.273Zm0-12.925a3.751,3.751,0,1,1,4.135-3.729A3.946,3.946,0,0,1,181.527,92.349Zm0-12.958a3.366,3.366,0,1,1,3.709-3.353A3.538,3.538,0,0,1,181.527,79.391Zm0-13a2.944,2.944,0,1,1,3.247-2.926A3.1,3.1,0,0,1,181.527,66.4Zm0-12.991a2.523,2.523,0,1,1,2.784-2.512A2.655,2.655,0,0,1,181.527,53.405Zm0-13.064a2.033,2.033,0,1,1,2.24-2.02A2.139,2.139,0,0,1,181.527,40.341Zm0-13.065a1.54,1.54,0,1,1,1.7-1.533A1.626,1.626,0,0,1,181.527,27.276Zm0-13.13a.982.982,0,1,1,1.079-.979A1.026,1.026,0,0,1,181.527,14.146Zm0-13.134a.441.441,0,0,1-.462-.418.447.447,0,0,1,.462-.422.441.441,0,0,1,.463.422A.436.436,0,0,1,181.527,1.012Zm-13.9,206.2a5.435,5.435,0,1,1,5.976-5.41A5.719,5.719,0,0,1,167.626,207.209Zm0-12.619a5.671,5.671,0,0,1-5.948-5.376c0-2.959,2.658-5.361,5.948-5.361a5.4,5.4,0,1,1,0,10.737Zm0-12.642a5.329,5.329,0,1,1,5.859-5.3A5.6,5.6,0,0,1,167.626,181.948Zm0-12.72a5.184,5.184,0,1,1,5.695-5.16A5.452,5.452,0,0,1,167.626,169.228Zm0-12.749a5.01,5.01,0,1,1,5.5-4.987A5.272,5.272,0,0,1,167.626,156.479Zm0-12.781a4.8,4.8,0,1,1,5.278-4.775A5.056,5.056,0,0,1,167.626,143.7Zm0-12.782a4.591,4.591,0,1,1,5.042-4.573A4.834,4.834,0,0,1,167.626,130.915Zm0-12.855a4.31,4.31,0,1,1,4.734-4.287A4.533,4.533,0,0,1,167.626,118.06Zm0-12.889a3.994,3.994,0,1,1,4.389-3.979A4.2,4.2,0,0,1,167.626,105.171Zm0-12.958a3.609,3.609,0,1,1,3.963-3.594A3.808,3.808,0,0,1,167.626,92.214Zm0-12.961a3.224,3.224,0,1,1,3.537-3.214A3.4,3.4,0,0,1,167.626,79.252Zm0-12.991a2.8,2.8,0,1,1,3.084-2.791A2.95,2.95,0,0,1,167.626,66.261Zm0-12.995a2.384,2.384,0,1,1,2.612-2.373A2.52,2.52,0,0,1,167.626,53.266Zm0-13.06a1.895,1.895,0,1,1,2.086-1.885A1.987,1.987,0,0,1,167.626,40.206Zm0-13.065a1.4,1.4,0,1,1,0-2.786,1.4,1.4,0,1,1,0,2.786Zm0-13.1a.878.878,0,1,1,.953-.877A.922.922,0,0,1,167.626,14.044Zm0-13.138a.335.335,0,0,1-.363-.311.335.335,0,0,1,.363-.311.326.326,0,0,1,.336.311A.327.327,0,0,1,167.626.906ZM153.7,219.539a5.194,5.194,0,1,1,5.713-5.18A5.468,5.468,0,0,1,153.7,219.539Zm0-12.585a5.188,5.188,0,1,1,5.713-5.155A5.455,5.455,0,0,1,153.7,206.954Zm0-12.577a5.183,5.183,0,1,1,5.713-5.163A5.458,5.458,0,0,1,153.7,194.377Zm0-12.679a5.082,5.082,0,1,1,5.6-5.053A5.334,5.334,0,0,1,153.7,181.7Zm0-12.679a4.977,4.977,0,1,1,5.487-4.951A5.235,5.235,0,0,1,153.7,169.019Zm0-12.745a4.806,4.806,0,1,1,5.3-4.782A5.05,5.05,0,0,1,153.7,156.274Zm0-12.748a4.629,4.629,0,1,1,5.106-4.6A4.874,4.874,0,0,1,153.7,143.525Zm0-12.819a4.382,4.382,0,1,1,4.825-4.364A4.62,4.62,0,0,1,153.7,130.706Zm0-12.851a4.105,4.105,0,1,1,4.526-4.082A4.316,4.316,0,0,1,153.7,117.855Zm0-12.9a3.784,3.784,0,1,1,4.172-3.767A3.985,3.985,0,0,1,153.7,104.959Zm0-12.917a3.437,3.437,0,1,1,3.782-3.422A3.617,3.617,0,0,1,153.7,92.042Zm0-12.962a3.053,3.053,0,1,1,3.365-3.041A3.206,3.206,0,0,1,153.7,79.08Zm0-13a2.629,2.629,0,1,1,2.9-2.614A2.761,2.761,0,0,1,153.7,66.085Zm0-12.991a2.208,2.208,0,1,1,2.431-2.2A2.332,2.332,0,0,1,153.7,53.094Zm0-13.06a1.722,1.722,0,1,1,1.9-1.713A1.8,1.8,0,0,1,153.7,40.034Zm0-13.064a1.228,1.228,0,1,1,1.352-1.226A1.286,1.286,0,0,1,153.7,26.969Zm0-13.1a.7.7,0,1,1,.78-.7A.739.739,0,0,1,153.7,13.872ZM153.516.594A.177.177,0,0,1,153.7.422a.183.183,0,0,1,.2.172.181.181,0,0,1-.2.172A.175.175,0,0,1,153.516.594ZM139.787,206.713a4.943,4.943,0,1,1,5.441-4.914A5.2,5.2,0,0,1,139.787,206.713Zm0-12.651a4.871,4.871,0,1,1,5.368-4.847A5.12,5.12,0,0,1,139.787,194.061Zm0-12.609a4.835,4.835,0,1,1,5.332-4.806A5.075,5.075,0,0,1,139.787,181.452Zm0-12.679a4.73,4.73,0,1,1,5.2-4.7A4.971,4.971,0,0,1,139.787,168.773Zm0-12.713a4.589,4.589,0,1,1,5.06-4.569A4.822,4.822,0,0,1,139.787,156.06Zm0-12.79a4.383,4.383,0,1,1,4.824-4.348A4.612,4.612,0,0,1,139.787,143.271Zm0-12.811a4.134,4.134,0,1,1,4.552-4.118A4.353,4.353,0,0,1,139.787,130.46Zm0-12.851a3.858,3.858,0,1,1,4.253-3.836A4.053,4.053,0,0,1,139.787,117.609Zm0-12.856a3.578,3.578,0,1,1,3.945-3.561A3.763,3.763,0,0,1,139.787,104.753Zm0-12.962A3.19,3.19,0,1,1,143.3,88.62,3.35,3.35,0,0,1,139.787,91.791Zm0-12.917a2.842,2.842,0,1,1,3.128-2.836A2.985,2.985,0,0,1,139.787,78.874Zm0-12.961a2.455,2.455,0,1,1,2.7-2.443A2.588,2.588,0,0,1,139.787,65.913Zm0-13.028a2,2,0,1,1,2.2-1.992A2.1,2.1,0,0,1,139.787,52.885Zm0-13.031a1.541,1.541,0,1,1,1.7-1.533A1.624,1.624,0,0,1,139.787,39.853Zm0-13.056a1.055,1.055,0,1,1,1.17-1.053A1.123,1.123,0,0,1,139.787,26.8Zm0-13.138a.492.492,0,1,1,0-.979.492.492,0,1,1,0,.979ZM125.877,206.4a4.626,4.626,0,1,1,5.1-4.6A4.864,4.864,0,0,1,125.877,206.4Zm0-12.569a4.63,4.63,0,1,1,5.1-4.614A4.872,4.872,0,0,1,125.877,193.828Zm0-12.647a4.556,4.556,0,1,1,5.024-4.536A4.782,4.782,0,0,1,125.877,181.182Zm0-12.72a4.416,4.416,0,1,1,4.86-4.393A4.642,4.642,0,0,1,125.877,168.462Zm0-12.675a4.311,4.311,0,1,1,4.752-4.295A4.545,4.545,0,0,1,125.877,155.786Zm0-12.786a4.1,4.1,0,1,1,4.516-4.078A4.313,4.313,0,0,1,125.877,143Zm0-12.815a3.857,3.857,0,1,1,4.244-3.844A4.059,4.059,0,0,1,125.877,130.186Zm0-12.823a3.609,3.609,0,1,1,3.981-3.59A3.789,3.789,0,0,1,125.877,117.363Zm0-12.893a3.293,3.293,0,1,1,3.627-3.278A3.468,3.468,0,0,1,125.877,104.47Zm0-12.892a2.978,2.978,0,1,1,3.283-2.959A3.121,3.121,0,0,1,125.877,91.578Zm0-12.987a2.561,2.561,0,1,1,2.811-2.553A2.7,2.7,0,0,1,125.877,78.592Zm0-12.925a2.206,2.206,0,1,1,2.43-2.2A2.323,2.323,0,0,1,125.877,65.666Zm0-13.031a1.753,1.753,0,1,1,1.931-1.742A1.845,1.845,0,0,1,125.877,52.635Zm0-13.024a1.3,1.3,0,1,1,1.433-1.291A1.367,1.367,0,0,1,125.877,39.611Zm0-13.064a.806.806,0,1,1,.9-.8A.848.848,0,0,1,125.877,26.547Zm0-13.1a.3.3,0,0,1-.309-.283.31.31,0,0,1,.617,0A.3.3,0,0,1,125.877,13.45ZM111.966,206.081a4.309,4.309,0,1,1,4.743-4.283A4.535,4.535,0,0,1,111.966,206.081Zm0-12.577a4.3,4.3,0,1,1,4.743-4.29A4.527,4.527,0,0,1,111.966,193.5Zm0-12.679a4.2,4.2,0,1,1,4.634-4.18A4.421,4.421,0,0,1,111.966,180.825Zm0-12.679a4.1,4.1,0,1,1,4.515-4.078A4.307,4.307,0,0,1,111.966,168.146Zm0-12.68a4,4,0,1,1,4.4-3.975A4.2,4.2,0,0,1,111.966,155.466Zm0-12.781a3.785,3.785,0,1,1,4.163-3.763A3.991,3.991,0,0,1,111.966,142.685Zm0-12.782a3.576,3.576,0,1,1,3.927-3.561A3.771,3.771,0,0,1,111.966,129.9Zm0-12.855a3.295,3.295,0,1,1,3.619-3.275A3.476,3.476,0,0,1,111.966,117.048Zm0-12.893a2.979,2.979,0,1,1,3.273-2.963A3.136,3.136,0,0,1,111.966,104.155Zm0-12.884a2.664,2.664,0,1,1,2.929-2.651A2.8,2.8,0,0,1,111.966,91.271Zm0-12.961a2.276,2.276,0,1,1,2.5-2.271A2.4,2.4,0,0,1,111.966,78.309Zm0-12.954a1.895,1.895,0,1,1,2.085-1.885A1.994,1.994,0,0,1,111.966,65.355Zm0-13a1.473,1.473,0,1,1,1.623-1.467A1.552,1.552,0,0,1,111.966,52.36Zm0-13.068a.98.98,0,1,1,0-1.951.98.98,0,1,1,0,1.951Zm0-13.061a.49.49,0,1,1,0-.975.49.49,0,1,1,0,.975ZM98.055,205.7a3.925,3.925,0,1,1,4.316-3.9A4.126,4.126,0,0,1,98.055,205.7Zm0-12.573a3.927,3.927,0,1,1,4.316-3.914A4.133,4.133,0,0,1,98.055,193.127Zm0-12.647a3.857,3.857,0,1,1,4.244-3.835A4.06,4.06,0,0,1,98.055,180.481Zm0-12.68a3.752,3.752,0,1,1,4.126-3.733A3.952,3.952,0,0,1,98.055,167.8Zm0-12.707a3.615,3.615,0,1,1,3.971-3.6A3.8,3.8,0,0,1,98.055,155.094Zm0-12.766a3.431,3.431,0,1,1,3.781-3.406A3.6,3.6,0,0,1,98.055,142.328Zm0-12.8a3.19,3.19,0,1,1,3.509-3.184A3.365,3.365,0,0,1,98.055,129.526Zm0-12.79a2.981,2.981,0,1,1,3.273-2.963A3.136,3.136,0,0,1,98.055,116.736Zm0-12.893a2.665,2.665,0,1,1,2.929-2.651A2.807,2.807,0,0,1,98.055,103.844Zm0-12.888a2.348,2.348,0,1,1,2.584-2.336A2.469,2.469,0,0,1,98.055,90.956Zm0-12.921a2,2,0,1,1,2.194-2A2.1,2.1,0,0,1,98.055,78.034Zm0-12.995a1.577,1.577,0,1,1,1.732-1.569A1.652,1.652,0,0,1,98.055,65.04Zm0-12.995a1.155,1.155,0,1,1,1.27-1.152A1.217,1.217,0,0,1,98.055,52.045Zm0-13.024a.7.7,0,1,1,.771-.7A.742.742,0,0,1,98.055,39.021Zm0-13.036a.243.243,0,1,1,0-.483.243.243,0,1,1,0,.483ZM84.135,217.9a3.546,3.546,0,1,1,3.9-3.541A3.728,3.728,0,0,1,84.135,217.9Zm0-12.585a3.537,3.537,0,1,1,3.9-3.516A3.727,3.727,0,0,1,84.135,205.315Zm0-12.569a3.544,3.544,0,1,1,3.9-3.532A3.724,3.724,0,0,1,84.135,192.746Zm0-12.65a3.471,3.471,0,1,1,3.827-3.45A3.651,3.651,0,0,1,84.135,180.1Zm0-12.68a3.364,3.364,0,1,1,3.709-3.348A3.534,3.534,0,0,1,84.135,167.416Zm0-12.716a3.225,3.225,0,1,1,3.556-3.208A3.4,3.4,0,0,1,84.135,154.7Zm0-12.748a3.048,3.048,0,1,1,3.356-3.029A3.2,3.2,0,0,1,84.135,141.952Zm0-12.782a2.839,2.839,0,1,1,3.138-2.827A2.984,2.984,0,0,1,84.135,129.169Zm0-12.86a2.558,2.558,0,1,1,2.82-2.537A2.691,2.691,0,0,1,84.135,116.31Zm0-12.852a2.278,2.278,0,1,1,2.512-2.266A2.4,2.4,0,0,1,84.135,103.458Zm0-12.851a2,2,0,1,1,2.2-1.988A2.111,2.111,0,0,1,84.135,90.607Zm0-12.954a1.617,1.617,0,1,1,1.787-1.615A1.707,1.707,0,0,1,84.135,77.653Zm0-12.958a1.229,1.229,0,1,1,1.351-1.225A1.295,1.295,0,0,1,84.135,64.7Zm0-12.995a.809.809,0,1,1,.889-.807A.851.851,0,0,1,84.135,51.7Zm0-13.036a.351.351,0,1,1,.39-.344A.366.366,0,0,1,84.135,38.665ZM70.224,217.474a3.118,3.118,0,1,1,3.428-3.115A3.289,3.289,0,0,1,70.224,217.474Zm0-12.581a3.116,3.116,0,1,1,3.428-3.094A3.281,3.281,0,0,1,70.224,204.893Zm0-12.565a3.121,3.121,0,1,1,3.428-3.114A3.286,3.286,0,0,1,70.224,192.328Zm0-12.65a3.048,3.048,0,1,1,3.356-3.032A3.207,3.207,0,0,1,70.224,179.678Zm0-12.675a2.948,2.948,0,1,1,3.238-2.934A3.1,3.1,0,0,1,70.224,167Zm0-12.716a2.8,2.8,0,1,1,3.084-2.795A2.956,2.956,0,0,1,70.224,154.286Zm0-12.749a2.63,2.63,0,1,1,2.893-2.614A2.758,2.758,0,0,1,70.224,141.537Zm0-12.753a2.455,2.455,0,1,1,2.7-2.442A2.587,2.587,0,0,1,70.224,128.784Zm0-12.818a2.206,2.206,0,1,1,2.431-2.193A2.327,2.327,0,0,1,70.224,115.966Zm0-12.889a1.895,1.895,0,1,1,2.086-1.885A1.991,1.991,0,0,1,70.224,103.077Zm0-12.888a1.576,1.576,0,1,1,1.741-1.569A1.661,1.661,0,0,1,70.224,90.189Zm0-12.926a1.224,1.224,0,1,1,1.352-1.225A1.292,1.292,0,0,1,70.224,77.264Zm0-12.921a.878.878,0,1,1,.97-.873A.93.93,0,0,1,70.224,64.343Zm0-13.028a.422.422,0,1,1,.463-.422A.445.445,0,0,1,70.224,51.315ZM56.314,217.023a2.665,2.665,0,1,1,2.938-2.664A2.8,2.8,0,0,1,56.314,217.023Zm0-12.58a2.666,2.666,0,1,1,2.938-2.644A2.795,2.795,0,0,1,56.314,204.442Zm0-12.569a2.667,2.667,0,1,1,2.938-2.659A2.8,2.8,0,0,1,56.314,191.873Zm0-12.65a2.592,2.592,0,1,1,2.847-2.577A2.729,2.729,0,0,1,56.314,179.223Zm0-12.643a2.524,2.524,0,1,1,2.774-2.512A2.652,2.652,0,0,1,56.314,166.58Zm0-12.72a2.379,2.379,0,1,1,2.62-2.369A2.505,2.505,0,0,1,56.314,153.86Zm0-12.741a2.21,2.21,0,1,1,2.43-2.2A2.316,2.316,0,0,1,56.314,141.119Zm0-12.786a2,2,0,1,1,2.2-1.992A2.1,2.1,0,0,1,56.314,128.334Zm0-12.818a1.753,1.753,0,1,1,1.932-1.742A1.845,1.845,0,0,1,56.314,115.515Zm0-12.852a1.473,1.473,0,1,1,1.623-1.471A1.549,1.549,0,0,1,56.314,102.663Zm0-12.892a1.157,1.157,0,1,1,1.27-1.152A1.218,1.218,0,0,1,56.314,89.772Zm0-12.922a.807.807,0,1,1,.889-.811A.846.846,0,0,1,56.314,76.85Zm0-12.961a.42.42,0,1,1,0-.836.419.419,0,1,1,0,.836Zm-.036-13a.032.032,0,0,1,.036-.033.038.038,0,0,1,.036.033.038.038,0,0,1-.036.037A.033.033,0,0,1,56.277,50.893ZM42.4,216.555a2.207,2.207,0,1,1,2.421-2.2A2.317,2.317,0,0,1,42.4,216.555Zm0-12.564a2.205,2.205,0,1,1,2.421-2.193A2.314,2.314,0,0,1,42.4,203.992Zm0-12.577a2.209,2.209,0,1,1,2.421-2.2A2.32,2.32,0,0,1,42.4,191.414Zm0-12.679a2.1,2.1,0,1,1,2.312-2.09A2.215,2.215,0,0,1,42.4,178.735Zm0-12.647a2.028,2.028,0,1,1,2.231-2.02A2.141,2.141,0,0,1,42.4,166.088Zm0-12.7a1.895,1.895,0,1,1,2.086-1.894A1.99,1.99,0,0,1,42.4,153.385Zm0-12.757a1.717,1.717,0,1,1,1.886-1.705A1.8,1.8,0,0,1,42.4,140.628Zm0-12.745a1.542,1.542,0,1,1,1.7-1.541A1.624,1.624,0,0,1,42.4,127.883Zm0-12.822a1.3,1.3,0,1,1,1.423-1.287A1.365,1.365,0,0,1,42.4,115.06Zm0-12.893a.979.979,0,1,1,0-1.946.978.978,0,1,1,0,1.946Zm0-12.851a.7.7,0,1,1,.762-.7A.737.737,0,0,1,42.4,89.317Zm0-12.922a.352.352,0,1,1,0-.7.351.351,0,1,1,0,.7ZM28.483,216.048a1.681,1.681,0,1,1,1.85-1.689A1.772,1.772,0,0,1,28.483,216.048Zm0-12.569a1.688,1.688,0,1,1,1.85-1.68A1.77,1.77,0,0,1,28.483,203.479Zm0-12.589a1.68,1.68,0,1,1,1.85-1.676A1.764,1.764,0,0,1,28.483,190.89Zm0-12.642a1.61,1.61,0,1,1,0-3.205,1.612,1.612,0,1,1,0,3.205Zm0-12.647a1.544,1.544,0,1,1,1.7-1.533A1.623,1.623,0,0,1,28.483,165.6Zm0-12.708a1.4,1.4,0,1,1,1.551-1.4A1.472,1.472,0,0,1,28.483,152.893Zm0-12.757a1.221,1.221,0,1,1,0-2.431,1.223,1.223,0,1,1,0,2.431Zm0-12.741a1.055,1.055,0,1,1,1.161-1.053A1.121,1.121,0,0,1,28.483,127.4Zm0-12.819a.856.856,0,0,1-.888-.8.893.893,0,1,1,.888.8Zm0-12.9a.488.488,0,1,1,0-.971.489.489,0,1,1,0,.971Zm0-12.818a.252.252,0,0,1-.262-.242.255.255,0,0,1,.262-.246.264.264,0,0,1,.273.246A.261.261,0,0,1,28.483,88.862ZM14.573,215.523a1.157,1.157,0,1,1,1.269-1.164A1.218,1.218,0,0,1,14.573,215.523Zm0-12.58a1.154,1.154,0,1,1,1.269-1.144A1.211,1.211,0,0,1,14.573,202.943Zm0-12.573a1.155,1.155,0,1,1,1.269-1.156A1.212,1.212,0,0,1,14.573,190.37Zm0-12.647a1.086,1.086,0,1,1,1.2-1.077A1.142,1.142,0,0,1,14.573,177.723Zm0-12.68a.98.98,0,1,1,1.079-.975A1.022,1.022,0,0,1,14.573,165.043Zm0-12.683a.872.872,0,1,1,.971-.869A.922.922,0,0,1,14.573,152.36Zm0-12.741a.7.7,0,1,1,0-1.4.7.7,0,1,1,0,1.4Zm0-12.79a.489.489,0,1,1,.544-.488A.519.519,0,0,1,14.573,126.83Zm0-12.782a.28.28,0,1,1,.309-.275A.294.294,0,0,1,14.573,114.048ZM.662,214.966A.643.643,0,0,1,0,214.359a.623.623,0,0,1,.662-.581.614.614,0,0,1,.653.581A.634.634,0,0,1,.662,214.966Zm0-12.581a.594.594,0,1,1,0-1.18.593.593,0,1,1,0,1.18Zm0-12.568a.637.637,0,0,1-.662-.6.626.626,0,0,1,.662-.582.617.617,0,0,1,.653.582A.628.628,0,0,1,.662,189.816Zm0-12.68a.49.49,0,1,1,0-.975.49.49,0,1,1,0,.975Zm0-12.642a.425.425,0,1,1,0-.845.424.424,0,1,1,0,.845Zm0-12.688a.341.341,0,0,1-.354-.315.347.347,0,0,1,.354-.315.338.338,0,0,1,.344.315A.332.332,0,0,1,.662,151.807Zm-.19-12.884a.181.181,0,0,1,.19-.176.175.175,0,1,1,0,.349A.18.18,0,0,1,.472,138.923Zm.19,87.534a.508.508,0,0,1,.536.492.519.519,0,0,1-.536.492.527.527,0,0,1-.544-.492A.516.516,0,0,1,.662,226.457Zm0,12.646a.444.444,0,0,1,.463.419.437.437,0,0,1-.463.409.441.441,0,0,1-.472-.409A.447.447,0,0,1,.662,239.1Zm0,12.713a.289.289,0,0,1,.3.279.28.28,0,0,1-.3.279.3.3,0,0,1-.317-.279A.306.306,0,0,1,.662,251.815ZM.78,264.666a.12.12,0,1,1-.118-.1A.116.116,0,0,1,.78,264.666Zm13.793-38.8a1.08,1.08,0,1,1-1.2,1.082A1.137,1.137,0,0,1,14.573,225.867Zm0,12.712a.95.95,0,1,1,0,1.893.952.952,0,1,1,0-1.893Zm0,12.639a.934.934,0,0,1,.971.877.976.976,0,0,1-1.941,0A.939.939,0,0,1,14.573,251.217Zm0,12.761a.734.734,0,0,1,.771.688.742.742,0,0,1-.771.705.751.751,0,0,1-.78-.705A.743.743,0,0,1,14.573,263.978Zm0,12.811a.457.457,0,1,1-.5.451A.48.48,0,0,1,14.573,276.789Zm.263,13.023a.263.263,0,0,1-.526,0,.264.264,0,0,1,.526,0Zm13.647-64.486a1.623,1.623,0,1,1,0,3.229,1.621,1.621,0,1,1,0-3.229Zm0,12.7a1.511,1.511,0,1,1-1.659,1.5A1.586,1.586,0,0,1,28.483,238.021Zm0,12.72a1.368,1.368,0,1,1,0,2.721,1.367,1.367,0,1,1,0-2.721Zm0,12.7a1.228,1.228,0,1,1,0,2.442,1.226,1.226,0,1,1,0-2.442Zm0,12.835a.979.979,0,1,1-1.069.967A1.026,1.026,0,0,1,28.483,276.273Zm0,12.785a.767.767,0,1,1-.852.754A.812.812,0,0,1,28.483,289.058Zm0,12.851a.486.486,0,1,1-.535.492A.508.508,0,0,1,28.483,301.909Zm.237,13.048a.227.227,0,0,1-.237.23.232.232,0,0,1-.236-.23.229.229,0,0,1,.236-.2A.223.223,0,0,1,28.719,314.957ZM42.4,224.85a2.1,2.1,0,1,1-2.321,2.1A2.209,2.209,0,0,1,42.4,224.85Zm0,12.639a2.143,2.143,0,0,1,2.231,2.033,2.252,2.252,0,0,1-4.48,0A2.154,2.154,0,0,1,42.4,237.489Zm0,12.72a1.895,1.895,0,1,1-2.086,1.885A1.994,1.994,0,0,1,42.4,250.209Zm0,12.753a1.718,1.718,0,1,1-1.9,1.7A1.806,1.806,0,0,1,42.4,262.962Zm0,12.787a1.5,1.5,0,1,1,0,2.983,1.5,1.5,0,1,1,0-2.983Zm0,12.818a1.261,1.261,0,1,1-1.4,1.245A1.325,1.325,0,0,1,42.4,288.566Zm0,12.852a.981.981,0,1,1-1.089.983A1.029,1.029,0,0,1,42.4,301.418Zm0,12.9a.683.683,0,0,1,.725.639.732.732,0,0,1-1.46,0A.685.685,0,0,1,42.4,314.318Zm0,12.908a.322.322,0,0,1,.335.32.315.315,0,0,1-.335.311.319.319,0,0,1-.345-.311A.326.326,0,0,1,42.4,327.227Zm13.91-102.868a2.595,2.595,0,1,1-2.856,2.59A2.727,2.727,0,0,1,56.314,224.358Zm0,12.687a2.489,2.489,0,1,1-2.747,2.476A2.609,2.609,0,0,1,56.314,237.046Zm0,12.721a2.34,2.34,0,1,1-2.584,2.328A2.462,2.462,0,0,1,56.314,249.767Zm0,12.7a2.208,2.208,0,1,1-2.43,2.2A2.322,2.322,0,0,1,56.314,262.47Zm0,12.819a1.968,1.968,0,1,1-2.158,1.95A2.062,2.062,0,0,1,56.314,275.289Zm0,12.827a1.713,1.713,0,1,1-1.886,1.7A1.808,1.808,0,0,1,56.314,288.116Zm0,12.851a1.435,1.435,0,1,1-1.587,1.434A1.519,1.519,0,0,1,56.314,300.966Zm0,12.876a1.129,1.129,0,1,1-1.242,1.115A1.186,1.186,0,0,1,56.314,313.843Zm0,12.942a.767.767,0,1,1,0,1.525.766.766,0,1,1,0-1.525Zm0,12.95a.387.387,0,1,1,0,.771.387.387,0,1,1,0-.771ZM70.224,223.94a3.019,3.019,0,1,1-3.319,3.008A3.186,3.186,0,0,1,70.224,223.94Zm0,12.647a2.945,2.945,0,1,1-3.237,2.935A3.1,3.1,0,0,1,70.224,236.587Zm0,12.745a2.772,2.772,0,1,1-3.056,2.762A2.93,2.93,0,0,1,70.224,249.332Zm0,12.72a2.632,2.632,0,1,1-2.893,2.614A2.767,2.767,0,0,1,70.224,262.052Zm0,12.794a2.414,2.414,0,1,1-2.657,2.394A2.545,2.545,0,0,1,70.224,274.846Zm0,12.819a2.171,2.171,0,1,1-2.394,2.147A2.29,2.29,0,0,1,70.224,287.665Zm0,12.884a1.854,1.854,0,1,1-2.05,1.852A1.949,1.949,0,0,1,70.224,300.549Zm0,12.893a1.54,1.54,0,1,1,0,3.065,1.541,1.541,0,1,1,0-3.065Zm0,12.909a1.2,1.2,0,1,1-1.315,1.2A1.263,1.263,0,0,1,70.224,326.35Zm0,12.974a.8.8,0,1,1-.889.795A.843.843,0,0,1,70.224,339.325Zm0,12.99a.387.387,0,1,1-.426.377A.406.406,0,0,1,70.224,352.315ZM84.135,223.49a3.468,3.468,0,1,1-3.818,3.459A3.652,3.652,0,0,1,84.135,223.49Zm0,12.671a3.368,3.368,0,1,1-3.7,3.36A3.55,3.55,0,0,1,84.135,236.161Zm0,12.769a3.188,3.188,0,1,1-3.509,3.164A3.352,3.352,0,0,1,84.135,248.93Zm0,12.737a3.022,3.022,0,1,1-3.311,3A3.168,3.168,0,0,1,84.135,261.666Zm0,12.787a2.8,2.8,0,1,1-3.083,2.786A2.963,2.963,0,0,1,84.135,274.453Zm0,12.8a2.569,2.569,0,1,1-2.82,2.556A2.7,2.7,0,0,1,84.135,287.255Zm0,12.908a2.241,2.241,0,1,1-2.466,2.237A2.358,2.358,0,0,1,84.135,300.163Zm0,12.852a1.96,1.96,0,1,1-2.158,1.942A2.069,2.069,0,0,1,84.135,313.015Zm0,12.966a1.574,1.574,0,1,1-1.732,1.566A1.644,1.644,0,0,1,84.135,325.981Zm0,12.958a1.186,1.186,0,1,1-1.305,1.18A1.243,1.243,0,0,1,84.135,338.939Zm0,12.982a.774.774,0,1,1-.843.771A.808.808,0,0,1,84.135,351.921Zm0,13.04a.322.322,0,0,1,.344.3.335.335,0,0,1-.344.32.351.351,0,0,1-.354-.32A.338.338,0,0,1,84.135,364.961Zm13.92-154.454a3.886,3.886,0,1,1-4.29,3.852A4.079,4.079,0,0,1,98.055,210.507Zm0,12.606a3.853,3.853,0,1,1-4.253,3.836A4.055,4.055,0,0,1,98.055,223.113Zm0,12.671a3.753,3.753,0,1,1-4.136,3.738A3.947,3.947,0,0,1,98.055,235.783Zm0,12.721a3.609,3.609,0,1,1-3.981,3.59A3.8,3.8,0,0,1,98.055,248.5Zm0,12.777a3.407,3.407,0,1,1-3.754,3.385A3.572,3.572,0,0,1,98.055,261.281Zm0,12.794a3.185,3.185,0,1,1-3.518,3.164A3.35,3.35,0,0,1,98.055,274.075Zm0,12.811a2.949,2.949,0,1,1-3.247,2.925A3.09,3.09,0,0,1,98.055,286.886Zm0,12.892a2.629,2.629,0,1,1-2.9,2.623A2.768,2.768,0,0,1,98.055,299.778Zm0,12.926a2.279,2.279,0,1,1-2.521,2.254A2.39,2.39,0,0,1,98.055,312.7Zm0,12.925a1.925,1.925,0,1,1-2.131,1.918A2.016,2.016,0,0,1,98.055,325.629Zm0,12.958a1.541,1.541,0,1,1-1.7,1.532A1.618,1.618,0,0,1,98.055,338.587Zm0,12.99a1.125,1.125,0,1,1-1.242,1.115A1.172,1.172,0,0,1,98.055,351.577Zm0,13.032a.66.66,0,1,1,0,1.311.66.66,0,1,1,0-1.311Zm.181,13.228a.182.182,0,0,1-.181.181.193.193,0,0,1-.2-.181.186.186,0,0,1,.2-.172A.175.175,0,0,1,98.237,377.837Zm13.729-167.72a4.274,4.274,0,1,1-4.706,4.242A4.494,4.494,0,0,1,111.966,210.117Zm0,12.634a4.21,4.21,0,1,1-4.634,4.2A4.437,4.437,0,0,1,111.966,222.752Zm0,12.687a4.1,4.1,0,1,1-4.516,4.082A4.316,4.316,0,0,1,111.966,235.439Zm0,12.713a3.959,3.959,0,1,1-4.361,3.942A4.173,4.173,0,0,1,111.966,248.152Zm0,12.777a3.756,3.756,0,1,1-4.126,3.737A3.952,3.952,0,0,1,111.966,260.929Zm0,12.786a3.549,3.549,0,1,1-3.89,3.524A3.729,3.729,0,0,1,111.966,273.715Zm0,12.851a3.27,3.27,0,1,1-3.591,3.245A3.45,3.45,0,0,1,111.966,286.566Zm0,12.852a2.982,2.982,0,1,1-3.283,2.983A3.14,3.14,0,0,1,111.966,299.418Zm0,12.942a2.628,2.628,0,1,1-2.9,2.6A2.753,2.753,0,0,1,111.966,312.36Zm0,12.949a2.245,2.245,0,1,1-2.466,2.237A2.349,2.349,0,0,1,111.966,325.309Zm0,12.958a1.857,1.857,0,1,1-2.041,1.852A1.959,1.959,0,0,1,111.966,338.267Zm0,13a1.437,1.437,0,1,1,0,2.86,1.438,1.438,0,1,1,0-2.86Zm0,13.064a.948.948,0,1,1-1.043.935A1,1,0,0,1,111.966,364.33Zm0,13.065a.453.453,0,1,1,0,.9.454.454,0,1,1,0-.9ZM125.877,209.8a4.589,4.589,0,1,1-5.06,4.557A4.835,4.835,0,0,1,125.877,209.8Zm0,12.622a4.548,4.548,0,1,1-5.006,4.525A4.788,4.788,0,0,1,125.877,222.424Zm0,12.7a4.419,4.419,0,1,1-4.861,4.393A4.65,4.65,0,0,1,125.877,235.128Zm0,12.7a4.283,4.283,0,1,1-4.707,4.262A4.514,4.514,0,0,1,125.877,247.832Zm0,12.786a4.07,4.07,0,1,1-4.48,4.049A4.276,4.276,0,0,1,125.877,260.617Zm0,12.827a3.818,3.818,0,1,1-4.2,3.795A4.023,4.023,0,0,1,125.877,273.444Zm0,12.811a3.579,3.579,0,1,1-3.936,3.557A3.754,3.754,0,0,1,125.877,286.255Zm0,12.9a3.254,3.254,0,1,1-3.582,3.245A3.415,3.415,0,0,1,125.877,299.155Zm0,12.917a2.908,2.908,0,1,1-3.2,2.885A3.057,3.057,0,0,1,125.877,312.072Zm0,12.966a2.521,2.521,0,1,1-2.776,2.508A2.646,2.646,0,0,1,125.877,325.039Zm0,12.917a2.175,2.175,0,1,1-2.4,2.163A2.286,2.286,0,0,1,125.877,337.956Zm0,13.031a1.714,1.714,0,1,1-1.887,1.7A1.815,1.815,0,0,1,125.877,350.987Zm0,13.064a1.224,1.224,0,1,1-1.352,1.214A1.289,1.289,0,0,1,125.877,364.051Zm0,13.065a.733.733,0,1,1-.808.721A.772.772,0,0,1,125.877,377.116Zm.235,13.31a.239.239,0,0,1-.471,0,.237.237,0,0,1,.471,0Zm13.675-180.9a4.872,4.872,0,1,1-5.359,4.836A5.122,5.122,0,0,1,139.787,209.523Zm0,12.647a4.8,4.8,0,1,1-5.278,4.778A5.06,5.06,0,0,1,139.787,222.17Zm0,12.646a4.729,4.729,0,1,1-5.2,4.7A4.968,4.968,0,0,1,139.787,234.817Zm0,12.753a4.556,4.556,0,1,1-5.014,4.525A4.787,4.787,0,0,1,139.787,247.569Zm0,12.778A4.346,4.346,0,1,1,135,264.666,4.562,4.562,0,0,1,139.787,260.347Zm0,12.811a4.1,4.1,0,1,1-4.506,4.082A4.316,4.316,0,0,1,139.787,273.158Zm0,12.851a3.83,3.83,0,1,1-4.207,3.8A4.029,4.029,0,0,1,139.787,286.009Zm0,12.9a3.5,3.5,0,1,1-3.854,3.491A3.675,3.675,0,0,1,139.787,298.909Zm0,12.884a3.192,3.192,0,1,1-3.509,3.163A3.355,3.355,0,0,1,139.787,311.794Zm0,13a2.768,2.768,0,1,1-3.047,2.754A2.91,2.91,0,0,1,139.787,324.793Zm0,12.95a2.38,2.38,0,1,1-2.62,2.377A2.514,2.514,0,0,1,139.787,337.742Zm0,13a1.961,1.961,0,1,1-2.158,1.951A2.071,2.071,0,0,1,139.787,350.741Zm0,13.064a1.474,1.474,0,1,1-1.614,1.46A1.552,1.552,0,0,1,139.787,363.805Zm0,13.1a.94.94,0,1,1-1.043.934A1,1,0,0,1,139.787,376.9Zm0,13.1a.421.421,0,1,1,0,.837.42.42,0,1,1,0-.837ZM153.7,221.883a5.085,5.085,0,1,1-5.585,5.065A5.348,5.348,0,0,1,153.7,221.883Zm0,12.688a4.979,4.979,0,1,1-5.468,4.951A5.238,5.238,0,0,1,153.7,234.571Zm0,12.737a4.8,4.8,0,1,1-5.277,4.787A5.067,5.067,0,0,1,153.7,247.307Zm0,12.786a4.6,4.6,0,1,1-5.051,4.573A4.851,4.851,0,0,1,153.7,260.093Zm0,12.827a4.344,4.344,0,1,1-4.769,4.319A4.559,4.559,0,0,1,153.7,272.92Zm0,12.86a4.069,4.069,0,1,1-4.47,4.032A4.271,4.271,0,0,1,153.7,285.78Zm0,12.884a3.748,3.748,0,1,1-4.126,3.737A3.944,3.944,0,0,1,153.7,298.663Zm0,12.917a3.4,3.4,0,1,1-3.736,3.376A3.579,3.579,0,0,1,153.7,311.581Zm0,13a2.982,2.982,0,1,1-3.273,2.967A3.136,3.136,0,0,1,153.7,324.579Zm0,12.95a2.6,2.6,0,1,1-2.847,2.59A2.744,2.744,0,0,1,153.7,337.529Zm0,13a2.178,2.178,0,1,1-2.385,2.164A2.286,2.286,0,0,1,153.7,350.528Zm0,13.065a1.68,1.68,0,1,1-1.84,1.672A1.777,1.777,0,0,1,153.7,363.593Zm0,13.064a1.246,1.246,0,0,1,1.315,1.18,1.318,1.318,0,1,1-1.315-1.18Zm0,13.1a.708.708,0,0,1,.744.672.743.743,0,1,1-.744-.672Zm.091,13.237a.081.081,0,0,1-.091.074.083.083,0,0,1-.081-.074.1.1,0,0,1,.081-.074A.094.094,0,0,1,153.788,402.991ZM167.626,209a5.4,5.4,0,1,1-5.948,5.361C161.677,211.408,164.335,209,167.626,209Zm0,12.68a5.293,5.293,0,1,1-5.831,5.27A5.57,5.57,0,0,1,167.626,221.678Zm0,12.671a5.194,5.194,0,1,1-5.713,5.172A5.454,5.454,0,0,1,167.626,234.349Zm0,12.762a5.01,5.01,0,1,1-5.523,4.983A5.258,5.258,0,0,1,167.626,247.111Zm0,12.786a4.8,4.8,0,1,1-5.3,4.77A5.043,5.043,0,0,1,167.626,259.9Zm0,12.818a4.557,4.557,0,1,1-5.024,4.525A4.787,4.787,0,0,1,167.626,272.715Zm0,12.884a4.24,4.24,0,1,1-4.679,4.212A4.45,4.45,0,0,1,167.626,285.6Zm0,12.884a3.93,3.93,0,1,1-4.334,3.918A4.133,4.133,0,0,1,167.626,298.483Zm0,12.934a3.573,3.573,0,1,1-3.953,3.54A3.753,3.753,0,0,1,167.626,311.417Zm0,12.949a3.19,3.19,0,1,1-3.527,3.18A3.357,3.357,0,0,1,167.626,324.366Zm0,13.007a2.765,2.765,0,1,1-3.056,2.746A2.9,2.9,0,0,1,167.626,337.373Zm0,13.015a2.319,2.319,0,1,1-2.556,2.3A2.421,2.421,0,0,1,167.626,350.389Zm0,13.031a1.858,1.858,0,1,1-2.05,1.845A1.959,1.959,0,0,1,167.626,363.42Zm0,13.1a1.331,1.331,0,1,1-1.477,1.319A1.4,1.4,0,0,1,167.626,376.518Zm0,13.1a.83.83,0,0,1,.871.812.845.845,0,0,1-.871.8.864.864,0,0,1-.9-.8A.849.849,0,0,1,167.626,389.615Zm0,13.139a.254.254,0,0,1,.254.237.249.249,0,0,1-.254.238.262.262,0,0,1-.281-.238A.268.268,0,0,1,167.626,402.754Zm13.9-193.886c3.374,0,6.095,2.451,6.095,5.491a6.123,6.123,0,0,1-12.188,0C175.434,211.319,178.163,208.868,181.527,208.868Zm0,12.622a5.477,5.477,0,1,1,0,10.9c-3.319,0-6.021-2.443-6.021-5.442A5.769,5.769,0,0,1,181.527,221.49Zm0,12.7a5.363,5.363,0,1,1-5.9,5.328A5.635,5.635,0,0,1,181.527,234.194Zm0,12.737a5.193,5.193,0,1,1-5.712,5.163A5.459,5.459,0,0,1,181.527,246.931Zm0,12.785a4.98,4.98,0,1,1-5.477,4.95A5.229,5.229,0,0,1,181.527,259.716Zm0,12.818a4.729,4.729,0,1,1-5.2,4.7A4.988,4.988,0,0,1,181.527,272.534Zm0,12.934a4.382,4.382,0,1,1-4.815,4.343A4.606,4.606,0,0,1,181.527,285.468Zm0,12.884a4.061,4.061,0,1,1-4.47,4.049A4.285,4.285,0,0,1,181.527,298.352Zm0,12.909a3.719,3.719,0,1,1-4.09,3.7A3.928,3.928,0,0,1,181.527,311.261Zm0,12.975a3.332,3.332,0,1,1-3.663,3.311A3.5,3.5,0,0,1,181.527,324.236Zm0,12.982a2.915,2.915,0,1,1-3.191,2.9A3.074,3.074,0,0,1,181.527,337.218Zm0,13.031a2.455,2.455,0,1,1-2.7,2.443A2.583,2.583,0,0,1,181.527,350.249Zm0,13.031a1.995,1.995,0,1,1-2.2,1.984A2.1,2.1,0,0,1,181.527,363.281Zm0,13.1a1.474,1.474,0,1,1-1.613,1.459A1.548,1.548,0,0,1,181.527,376.378Zm0,13.13a.914.914,0,1,1,0,1.82.914.914,0,1,1,0-1.82Zm0,13.139a.35.35,0,1,1-.38.344A.36.36,0,0,1,181.527,402.647Zm13.911-193.964c3.473,0,6.293,2.545,6.293,5.676,0,3.164-2.82,5.7-6.293,5.7a6.011,6.011,0,0,1-6.285-5.7C189.154,211.229,191.974,208.683,195.439,208.683Zm0,12.675a5.9,5.9,0,0,1,6.175,5.59c0,3.082-2.757,5.581-6.175,5.581s-6.176-2.5-6.176-5.581S192.029,221.359,195.439,221.359Zm0,12.72a5.74,5.74,0,0,1,6.021,5.443c0,3-2.685,5.425-6.021,5.425-3.32,0-6.012-2.425-6.012-5.425A5.742,5.742,0,0,1,195.439,234.079Zm0,12.745a5.293,5.293,0,1,1-5.822,5.27A5.573,5.573,0,0,1,195.439,246.824Zm0,12.827a5.049,5.049,0,1,1-5.55,5.015A5.311,5.311,0,0,1,195.439,259.651Zm0,12.811a4.806,4.806,0,1,1-5.287,4.778A5.051,5.051,0,0,1,195.439,272.461Zm0,12.859a4.522,4.522,0,1,1-4.97,4.491A4.758,4.758,0,0,1,195.439,285.32Zm0,12.917a4.175,4.175,0,1,1-4.58,4.163A4.4,4.4,0,0,1,195.439,298.237Zm0,12.934a3.821,3.821,0,1,1-4.2,3.786A4.01,4.01,0,0,1,195.439,311.171Zm0,12.949a3.435,3.435,0,1,1-3.773,3.426A3.615,3.615,0,0,1,195.439,324.121Zm0,13.032a2.981,2.981,0,1,1-3.274,2.967A3.136,3.136,0,0,1,195.439,337.152Zm0,13.031a2.521,2.521,0,1,1-2.775,2.508A2.649,2.649,0,0,1,195.439,350.184Zm0,13.032a2.06,2.06,0,1,1-2.277,2.05A2.173,2.173,0,0,1,195.439,363.215Zm0,13.1a1.545,1.545,0,1,1,0,3.073,1.544,1.544,0,1,1,0-3.073Zm0,13.064a1.054,1.054,0,1,1-1.152,1.049A1.1,1.1,0,0,1,195.439,389.377Zm0,13.163a.457.457,0,1,1,0,.91.457.457,0,1,1,0-.91Zm13.911-193.959c3.545,0,6.41,2.582,6.41,5.778,0,3.213-2.865,5.8-6.41,5.8-3.528,0-6.4-2.59-6.4-5.8C202.947,211.162,205.821,208.581,209.349,208.581Zm0,12.671c3.481,0,6.292,2.549,6.292,5.7,0,3.131-2.811,5.688-6.292,5.688-3.464,0-6.284-2.556-6.284-5.688C203.065,223.8,205.885,221.252,209.349,221.252Zm0,12.761c3.373,0,6.1,2.467,6.1,5.508s-2.729,5.5-6.1,5.5a5.531,5.531,0,1,1,0-11.007Zm0,12.737a5.362,5.362,0,1,1-5.895,5.344A5.642,5.642,0,0,1,209.349,246.75Zm0,12.786a5.156,5.156,0,1,1-5.667,5.13A5.43,5.43,0,0,1,209.349,259.536Zm0,12.852a4.876,4.876,0,1,1-5.359,4.852A5.137,5.137,0,0,1,209.349,272.387Zm0,12.868a4.588,4.588,0,1,1-5.043,4.556A4.823,4.823,0,0,1,209.349,285.255Zm0,12.916a4.242,4.242,0,1,1-4.661,4.229A4.457,4.457,0,0,1,209.349,298.172Zm0,12.934a3.887,3.887,0,1,1-4.271,3.851A4.092,4.092,0,0,1,209.349,311.106Zm0,12.982a3.471,3.471,0,1,1-3.809,3.459A3.643,3.643,0,0,1,209.349,324.088Zm0,12.991a3.051,3.051,0,1,1-3.346,3.04A3.213,3.213,0,0,1,209.349,337.079Zm0,13.04a2.59,2.59,0,1,1-2.847,2.573A2.725,2.725,0,0,1,209.349,350.119Zm0,13.056a2.1,2.1,0,1,1-2.3,2.09A2.215,2.215,0,0,1,209.349,363.175Zm0,13.073a1.606,1.606,0,1,1-1.769,1.59A1.682,1.682,0,0,1,209.349,376.248Zm0,13.1a1.081,1.081,0,1,1,0,2.148,1.079,1.079,0,1,1,0-2.148Zm0,13.163a.486.486,0,1,1-.535.483A.518.518,0,0,1,209.349,402.508Zm13.919-193.927c3.537,0,6.412,2.582,6.412,5.778,0,3.213-2.875,5.8-6.412,5.8s-6.4-2.59-6.4-5.8C216.866,211.162,219.732,208.581,223.268,208.581Zm0,12.671c3.482,0,6.294,2.549,6.294,5.7,0,3.131-2.812,5.688-6.294,5.688s-6.293-2.556-6.293-5.688C216.975,223.8,219.8,221.252,223.268,221.252Zm0,12.711c3.383,0,6.14,2.492,6.14,5.558s-2.757,5.54-6.14,5.54-6.13-2.475-6.13-5.54A5.869,5.869,0,0,1,223.268,233.964Zm0,12.77c3.284,0,5.949,2.394,5.949,5.361a5.976,5.976,0,1,1-5.949-5.361Zm0,12.778a5.186,5.186,0,1,1-5.713,5.155A5.452,5.452,0,0,1,223.268,259.511Zm0,12.876a4.876,4.876,0,1,1-5.358,4.852A5.134,5.134,0,0,1,223.268,272.387Zm0,12.868a4.589,4.589,0,1,1-5.05,4.556A4.83,4.83,0,0,1,223.268,285.255Zm0,12.884a4.272,4.272,0,1,1-4.706,4.262A4.495,4.495,0,0,1,223.268,298.139Zm0,12.967a3.888,3.888,0,1,1-4.28,3.851A4.1,4.1,0,0,1,223.268,311.106Zm0,12.949a3.5,3.5,0,1,1-3.863,3.491A3.7,3.7,0,0,1,223.268,324.055Zm0,13a3.081,3.081,0,1,1-3.391,3.066A3.239,3.239,0,0,1,223.268,337.054Zm0,13.015a2.632,2.632,0,1,1-2.892,2.623A2.774,2.774,0,0,1,223.268,350.069Zm0,13.032a2.178,2.178,0,1,1-2.385,2.164A2.291,2.291,0,0,1,223.268,363.1Zm0,13.146a1.607,1.607,0,1,1-1.777,1.59A1.688,1.688,0,0,1,223.268,376.248Zm0,13.1a1.08,1.08,0,1,1-1.2,1.082A1.138,1.138,0,0,1,223.268,389.345Zm0,13.163a.487.487,0,1,1,0,.967.486.486,0,1,1,0-.967Zm13.92-193.894c3.518,0,6.356,2.582,6.356,5.745,0,3.18-2.837,5.762-6.356,5.762s-6.375-2.582-6.375-5.762C230.813,211.2,233.67,208.614,237.188,208.614Zm0,12.68c3.446,0,6.247,2.524,6.247,5.655s-2.8,5.639-6.247,5.639c-3.465,0-6.249-2.516-6.249-5.639A5.961,5.961,0,0,1,237.188,221.293Zm0,12.72a5.531,5.531,0,1,1,0,11.007c-3.374,0-6.1-2.451-6.1-5.5S233.814,234.013,237.188,234.013Zm0,12.737a5.363,5.363,0,1,1,0,10.672c-3.265,0-5.913-2.385-5.913-5.328A5.651,5.651,0,0,1,237.188,246.75Zm0,12.827a5.12,5.12,0,1,1-5.641,5.089A5.392,5.392,0,0,1,237.188,259.577Zm0,12.859a4.837,4.837,0,1,1-5.333,4.8A5.079,5.079,0,0,1,237.188,272.436Zm0,12.819a4.59,4.59,0,1,1-5.061,4.556A4.813,4.813,0,0,1,237.188,285.255Zm0,12.916a4.243,4.243,0,1,1-4.679,4.229A4.466,4.466,0,0,1,237.188,298.172Zm0,12.934a3.889,3.889,0,1,1-4.29,3.851A4.1,4.1,0,0,1,237.188,311.106Zm0,12.982a3.473,3.473,0,1,1-3.827,3.459A3.655,3.655,0,0,1,237.188,324.088Zm0,12.991a3.052,3.052,0,1,1-3.356,3.04A3.208,3.208,0,0,1,237.188,337.079Zm0,13.04a2.592,2.592,0,1,1-2.865,2.573A2.72,2.72,0,0,1,237.188,350.119Zm0,13.056a2.105,2.105,0,1,1-2.321,2.09A2.22,2.22,0,0,1,237.188,363.175Zm0,13.073a1.607,1.607,0,1,1-1.777,1.59A1.68,1.68,0,0,1,237.188,376.248Zm0,13.1a1.081,1.081,0,1,1-1.206,1.082A1.135,1.135,0,0,1,237.188,389.345Zm0,13.163a.485.485,0,1,1,0,.967.487.487,0,1,1,0-.967ZM251.1,208.716c3.446,0,6.248,2.529,6.248,5.643s-2.8,5.672-6.248,5.672-6.258-2.549-6.258-5.672S247.643,208.716,251.1,208.716Zm0,12.643c3.41,0,6.175,2.508,6.175,5.59s-2.765,5.581-6.175,5.581-6.175-2.5-6.175-5.581S247.688,221.359,251.1,221.359Zm0,12.72a5.462,5.462,0,1,1,0,10.868c-3.328,0-6.03-2.425-6.03-5.425C245.068,236.5,247.77,234.079,251.1,234.079Zm0,12.745a5.293,5.293,0,1,1-5.831,5.27A5.577,5.577,0,0,1,251.1,246.824Zm0,12.827a5.05,5.05,0,1,1-5.558,5.015A5.308,5.308,0,0,1,251.1,259.651Zm0,12.811a4.806,4.806,0,1,1-5.286,4.778A5.043,5.043,0,0,1,251.1,272.461Zm0,12.892a4.49,4.49,0,1,1-4.942,4.458A4.714,4.714,0,0,1,251.1,285.353Zm0,12.884a4.176,4.176,0,1,1-4.588,4.163A4.384,4.384,0,0,1,251.1,298.237Zm0,12.934a3.822,3.822,0,1,1-4.207,3.786A4.008,4.008,0,0,1,251.1,311.171Zm0,12.949a3.435,3.435,0,1,1-3.781,3.426A3.6,3.6,0,0,1,251.1,324.121Zm0,13.032a2.982,2.982,0,1,1-3.283,2.967A3.128,3.128,0,0,1,251.1,337.152Zm0,13.031a2.521,2.521,0,1,1-2.775,2.508A2.646,2.646,0,0,1,251.1,350.184Zm0,13.032a2.061,2.061,0,1,1-2.286,2.05A2.167,2.167,0,0,1,251.1,363.215Zm0,13.1a1.544,1.544,0,1,1-1.7,1.524A1.616,1.616,0,0,1,251.1,376.313Zm0,13.129a.981.981,0,1,1-1.079.984A1.04,1.04,0,0,1,251.1,389.443Zm0,13.13a.44.44,0,0,1,.453.418.46.46,0,0,1-.916,0A.444.444,0,0,1,251.1,402.573ZM265.01,208.868c3.364,0,6.093,2.451,6.093,5.491a6.128,6.128,0,0,1-12.2,0C258.906,211.319,261.636,208.868,265.01,208.868Zm0,12.622a5.476,5.476,0,1,1,0,10.9c-3.32,0-6.023-2.443-6.023-5.442A5.77,5.77,0,0,1,265.01,221.49Zm0,12.728a5.326,5.326,0,1,1-5.868,5.3A5.6,5.6,0,0,1,265.01,234.218Zm0,12.713a5.193,5.193,0,1,1-5.7,5.163A5.458,5.458,0,0,1,265.01,246.931Zm0,12.818a4.943,4.943,0,1,1-5.442,4.917A5.2,5.2,0,0,1,265.01,259.749Zm0,12.819a4.7,4.7,0,1,1-5.169,4.671A4.942,4.942,0,0,1,265.01,272.568Zm0,12.9a4.383,4.383,0,1,1-4.825,4.343A4.605,4.605,0,0,1,265.01,285.468Zm0,12.884a4.062,4.062,0,1,1-4.48,4.049A4.278,4.278,0,0,1,265.01,298.352Zm0,12.958a3.683,3.683,0,1,1-4.063,3.647A3.865,3.865,0,0,1,265.01,311.31Zm0,12.925a3.332,3.332,0,1,1-3.673,3.311A3.508,3.508,0,0,1,265.01,324.236Zm0,13.031a2.869,2.869,0,1,1-3.173,2.853A3.021,3.021,0,0,1,265.01,337.267Zm0,12.983a2.455,2.455,0,1,1-2.7,2.443A2.577,2.577,0,0,1,265.01,350.249Zm0,13.081a1.961,1.961,0,1,1-2.159,1.935A2.061,2.061,0,0,1,265.01,363.33Zm0,13.048a1.475,1.475,0,1,1-1.624,1.459A1.54,1.54,0,0,1,265.01,376.378Zm0,13.13a.914.914,0,1,1-1.006.918A.959.959,0,0,1,265.01,389.508Zm0,13.139a.35.35,0,1,1-.381.344A.361.361,0,0,1,265.01,402.647Zm13.91-193.619a5.368,5.368,0,1,1-5.9,5.331A5.635,5.635,0,0,1,278.92,209.028Zm0,12.65a5.293,5.293,0,1,1-5.83,5.27A5.573,5.573,0,0,1,278.92,221.678Zm0,12.671a5.193,5.193,0,1,1-5.7,5.172A5.465,5.465,0,0,1,278.92,234.349Zm0,12.795a4.975,4.975,0,1,1-5.476,4.95A5.229,5.229,0,0,1,278.92,247.144Zm0,12.777a4.765,4.765,0,1,1-5.242,4.745A5.012,5.012,0,0,1,278.92,259.921Zm0,12.826a4.519,4.519,0,1,1-4.978,4.492A4.754,4.754,0,0,1,278.92,272.747Zm0,12.852a4.239,4.239,0,1,1-4.67,4.212A4.461,4.461,0,0,1,278.92,285.6Zm0,12.917a3.888,3.888,0,1,1-4.28,3.884A4.1,4.1,0,0,1,278.92,298.516Zm0,12.9a3.571,3.571,0,1,1-3.935,3.54A3.755,3.755,0,0,1,278.92,311.417Zm0,12.949a3.188,3.188,0,1,1-3.509,3.18A3.352,3.352,0,0,1,278.92,324.366Zm0,13.007a2.765,2.765,0,1,1-3.056,2.746A2.906,2.906,0,0,1,278.92,337.373Zm0,13.015a2.318,2.318,0,1,1-2.538,2.3A2.432,2.432,0,0,1,278.92,350.389Zm0,13.073a1.9,1.9,0,0,1,2,1.8,2.02,2.02,0,1,1-2-1.8Zm0,13.057a1.331,1.331,0,1,1-1.469,1.319A1.4,1.4,0,0,1,278.92,376.518Zm0,13.138a.767.767,0,1,1,0,1.525.766.766,0,1,1,0-1.525Zm0,13.1a.259.259,0,0,1,.272.237.274.274,0,0,1-.544,0A.259.259,0,0,1,278.92,402.754ZM292.83,209.27a5.123,5.123,0,1,1-5.631,5.089A5.383,5.383,0,0,1,292.83,209.27Zm0,12.654a5.045,5.045,0,1,1-5.549,5.024A5.316,5.316,0,0,1,292.83,221.924Zm0,12.679a4.942,4.942,0,1,1-5.431,4.918A5.192,5.192,0,0,1,292.83,234.6Zm0,12.752a4.763,4.763,0,1,1-5.25,4.738A5.009,5.009,0,0,1,292.83,247.356Zm0,12.787a4.556,4.556,0,1,1-5.014,4.524A4.782,4.782,0,0,1,292.83,260.142Zm0,12.8a4.316,4.316,0,1,1-4.743,4.295A4.544,4.544,0,0,1,292.83,272.945Zm0,12.868a4.028,4.028,0,1,1-4.434,4A4.237,4.237,0,0,1,292.83,285.813Zm0,12.892a3.715,3.715,0,1,1-4.08,3.7A3.907,3.907,0,0,1,292.83,298.7Zm0,12.909a3.368,3.368,0,1,1-3.7,3.344A3.541,3.541,0,0,1,292.83,311.613Zm0,12.966a2.981,2.981,0,1,1-3.273,2.967A3.136,3.136,0,0,1,292.83,324.579Zm0,13a2.554,2.554,0,1,1-2.811,2.541A2.681,2.681,0,0,1,292.83,337.578Zm0,13.032a2.093,2.093,0,1,1-2.312,2.082A2.215,2.215,0,0,1,292.83,350.61Zm0,13.031a1.727,1.727,0,0,1,1.822,1.623,1.826,1.826,0,0,1-3.635,0A1.726,1.726,0,0,1,292.83,363.642Zm0,13.048a1.161,1.161,0,1,1-1.27,1.147A1.218,1.218,0,0,1,292.83,376.69Zm0,13.105a.63.63,0,1,1-.689.631A.655.655,0,0,1,292.83,389.8Zm.081,13.2a.077.077,0,0,1-.081.074.076.076,0,0,1-.073-.074.077.077,0,0,1,.154,0Zm13.84-193.435a4.837,4.837,0,1,1-5.332,4.8A5.1,5.1,0,0,1,306.75,209.556Zm0,12.615a4.8,4.8,0,1,1-5.3,4.778A5.057,5.057,0,0,1,306.75,222.17Zm0,12.663a4.7,4.7,0,1,1-5.169,4.688A4.944,4.944,0,0,1,306.75,234.833Zm0,12.769a4.516,4.516,0,1,1-4.979,4.492A4.745,4.745,0,0,1,306.75,247.6Zm0,12.769a4.316,4.316,0,1,1-4.743,4.295A4.536,4.536,0,0,1,306.75,260.372Zm0,12.827a4.066,4.066,0,1,1-4.481,4.041A4.284,4.284,0,0,1,306.75,273.2Zm0,12.811a3.83,3.83,0,1,1-4.208,3.8A4.035,4.035,0,0,1,306.75,286.009Zm0,12.933a3.472,3.472,0,1,1-3.819,3.459A3.664,3.664,0,0,1,306.75,298.942Zm0,12.884a3.155,3.155,0,1,1-3.474,3.131A3.324,3.324,0,0,1,306.75,311.827Zm0,12.966a2.768,2.768,0,1,1-3.047,2.754A2.9,2.9,0,0,1,306.75,324.793Zm0,12.982a2.352,2.352,0,1,1-2.593,2.344A2.475,2.475,0,0,1,306.75,337.775Zm0,13a1.932,1.932,0,1,1-2.133,1.918A2.026,2.026,0,0,1,306.75,350.774Zm0,13.065a1.434,1.434,0,1,1-1.587,1.426A1.508,1.508,0,0,1,306.75,363.839Zm0,13.064a.94.94,0,1,1,0,1.869.94.94,0,1,1,0-1.869Zm0,13.1a.42.42,0,1,1,0,.837.421.421,0,1,1,0-.837Zm13.91-167.519a4.486,4.486,0,1,1-4.942,4.467A4.717,4.717,0,0,1,320.66,222.481Zm0,12.679a4.383,4.383,0,1,1-4.824,4.361A4.608,4.608,0,0,1,320.66,235.16Zm0,12.72a4.243,4.243,0,1,1-4.67,4.213A4.454,4.454,0,0,1,320.66,247.881Zm0,12.769a4.036,4.036,0,1,1-4.435,4.016A4.253,4.253,0,0,1,320.66,260.65Zm0,12.794a3.818,3.818,0,1,1-4.2,3.795A4.023,4.023,0,0,1,320.66,273.444Zm0,12.852a3.538,3.538,0,1,1-3.89,3.516A3.719,3.719,0,0,1,320.66,286.3Zm0,12.892a3.229,3.229,0,1,1-3.545,3.213A3.4,3.4,0,0,1,320.66,299.188Zm0,12.926a2.871,2.871,0,1,1-3.164,2.844A3.019,3.019,0,0,1,320.66,312.113Zm0,12.925a2.521,2.521,0,1,1-2.774,2.508A2.654,2.654,0,0,1,320.66,325.039Zm0,12.982a2.109,2.109,0,1,1-2.321,2.1A2.228,2.228,0,0,1,320.66,338.021Zm0,13a1.685,1.685,0,1,1-1.859,1.672A1.767,1.767,0,0,1,320.66,351.02Zm0,13.032a1.224,1.224,0,1,1-1.351,1.214A1.282,1.282,0,0,1,320.66,364.051Zm0,13.1a.7.7,0,1,1-.771.688A.735.735,0,0,1,320.66,377.149Zm.236,13.277a.229.229,0,0,1-.236.2.219.219,0,0,1-.226-.2.211.211,0,0,1,.226-.213A.219.219,0,0,1,320.9,390.426Zm13.675-180.28a4.242,4.242,0,1,1-4.662,4.212A4.465,4.465,0,0,1,334.572,210.147Zm0,12.655a4.168,4.168,0,1,1-4.589,4.147A4.378,4.378,0,0,1,334.572,222.8Zm0,12.67a4.069,4.069,0,1,1-4.472,4.05A4.284,4.284,0,0,1,334.572,235.472Zm0,12.77a3.881,3.881,0,1,1-4.281,3.852A4.079,4.079,0,0,1,334.572,248.242Zm0,12.737a3.716,3.716,0,1,1-4.091,3.688A3.906,3.906,0,0,1,334.572,260.978Zm0,12.8a3.472,3.472,0,1,1-3.819,3.459A3.654,3.654,0,0,1,334.572,273.781Zm0,12.835a3.221,3.221,0,1,1-3.546,3.2A3.384,3.384,0,0,1,334.572,286.616Zm0,12.851a2.941,2.941,0,1,1-3.238,2.934A3.1,3.1,0,0,1,334.572,299.466Zm0,12.917a2.594,2.594,0,1,1-2.848,2.573A2.734,2.734,0,0,1,334.572,312.384Zm0,12.966a2.208,2.208,0,1,1-2.431,2.2A2.33,2.33,0,0,1,334.572,325.35Zm0,12.958a1.817,1.817,0,1,1-2,1.811A1.917,1.917,0,0,1,334.572,338.308Zm0,12.99a1.4,1.4,0,1,1,0,2.786,1.4,1.4,0,1,1,0-2.786Zm0,13.065a.907.907,0,1,1-1.007.9A.958.958,0,0,1,334.572,364.364Zm0,13.064a.438.438,0,0,1,.463.409.446.446,0,0,1-.463.426.438.438,0,0,1-.455-.426A.43.43,0,0,1,334.572,377.428Zm13.92-154.291a3.826,3.826,0,1,1-4.208,3.811A4.014,4.014,0,0,1,348.491,223.137Zm0,12.72a3.683,3.683,0,1,1-4.053,3.664A3.859,3.859,0,0,1,348.491,235.857Zm0,12.687a3.572,3.572,0,1,1-3.936,3.55A3.75,3.75,0,0,1,348.491,248.544Zm0,12.762a3.368,3.368,0,1,1-3.7,3.36A3.537,3.537,0,0,1,348.491,261.306Zm0,12.794a3.155,3.155,0,1,1-3.473,3.139A3.311,3.311,0,0,1,348.491,274.1Zm0,12.851a2.88,2.88,0,1,1-3.174,2.86A3.024,3.024,0,0,1,348.491,286.951Zm0,12.868a2.592,2.592,0,1,1-2.866,2.582A2.729,2.729,0,0,1,348.491,299.819Zm0,12.926a2.241,2.241,0,1,1-2.466,2.212A2.357,2.357,0,0,1,348.491,312.745Zm0,12.916a1.895,1.895,0,1,1-2.086,1.885A2,2,0,0,1,348.491,325.661Zm0,12.966a1.5,1.5,0,1,1,0,2.984,1.5,1.5,0,1,1,0-2.984Zm0,12.983a1.087,1.087,0,1,1-1.2,1.082A1.143,1.143,0,0,1,348.491,351.61Zm0,13.032a.658.658,0,0,1,.689.623.671.671,0,0,1-.689.639.683.683,0,0,1-.709-.639A.671.671,0,0,1,348.491,364.642Zm.118,13.2a.118.118,0,0,1-.236,0,.12.12,0,0,1,.236,0Zm13.784-166.92a3.468,3.468,0,1,1-3.818,3.442A3.655,3.655,0,0,1,362.393,210.918Zm0,12.622a3.428,3.428,0,1,1-3.782,3.409A3.6,3.6,0,0,1,362.393,223.539Zm0,12.671a3.328,3.328,0,1,1-3.655,3.312A3.511,3.511,0,0,1,362.393,236.21Zm0,12.72a3.188,3.188,0,1,1-3.51,3.164A3.348,3.348,0,0,1,362.393,248.93Zm0,12.786a2.974,2.974,0,1,1-3.275,2.95A3.137,3.137,0,0,1,362.393,261.716Zm0,12.785a2.76,2.76,0,1,1-3.038,2.738A2.9,2.9,0,0,1,362.393,274.5Zm0,12.8a2.525,2.525,0,1,1-2.775,2.508A2.64,2.64,0,0,1,362.393,287.3Zm0,12.892a2.212,2.212,0,1,1-2.431,2.2A2.338,2.338,0,0,1,362.393,300.2Zm0,12.876a1.895,1.895,0,1,1-2.086,1.885A1.993,1.993,0,0,1,362.393,313.072Zm0,12.933a1.544,1.544,0,1,1-1.687,1.541A1.614,1.614,0,0,1,362.393,326.005Zm0,12.967a1.156,1.156,0,1,1-1.262,1.147A1.208,1.208,0,0,1,362.393,338.972Zm0,12.982a.741.741,0,1,1-.808.738A.779.779,0,0,1,362.393,351.954Zm0,13.032a.3.3,0,0,1,.317.279.307.307,0,0,1-.317.287.3.3,0,0,1-.3-.287A.29.29,0,0,1,362.393,364.986Zm13.919-153.66a3.055,3.055,0,1,1-3.355,3.032A3.221,3.221,0,0,1,376.312,211.327Zm0,12.654a2.975,2.975,0,1,1-3.282,2.967A3.137,3.137,0,0,1,376.312,223.981Zm0,12.679a2.872,2.872,0,1,1-3.165,2.861A3.027,3.027,0,0,1,376.312,236.66Zm0,12.671a2.772,2.772,0,1,1-3.046,2.762A2.924,2.924,0,0,1,376.312,249.332Zm0,12.786a2.559,2.559,0,1,1-2.82,2.549A2.7,2.7,0,0,1,376.312,262.117Zm0,12.795a2.348,2.348,0,1,1-2.585,2.327A2.473,2.473,0,0,1,376.312,274.912Zm0,12.818A2.1,2.1,0,1,1,374,289.811,2.2,2.2,0,0,1,376.312,287.73Zm0,12.851a1.825,1.825,0,1,1-2,1.82A1.918,1.918,0,0,1,376.312,300.581Zm0,12.885a1.507,1.507,0,1,1-1.659,1.491A1.582,1.582,0,0,1,376.312,313.466Zm0,12.941a1.2,1.2,0,0,1,1.269,1.139,1.282,1.282,0,1,1-1.269-1.139Zm0,12.942a.773.773,0,1,1,0,1.541.774.774,0,1,1,0-1.541Zm0,12.99a.382.382,0,0,1,.39.353.376.376,0,0,1-.39.352.361.361,0,0,1-.38-.352A.367.367,0,0,1,376.312,352.339Zm13.919-140.562a2.6,2.6,0,1,1-2.856,2.582A2.736,2.736,0,0,1,390.231,211.777Zm0,12.663a2.521,2.521,0,1,1-2.784,2.508A2.651,2.651,0,0,1,390.231,224.441Zm0,12.646a2.451,2.451,0,1,1-2.7,2.435A2.574,2.574,0,0,1,390.231,237.087Zm0,12.713a2.314,2.314,0,1,1,0,4.606,2.316,2.316,0,1,1,0-4.606Zm0,12.777a2.1,2.1,0,1,1-2.322,2.09A2.214,2.214,0,0,1,390.231,262.576Zm0,12.754a1.925,1.925,0,1,1-2.131,1.909A2.029,2.029,0,0,1,390.231,275.33Zm0,12.81a1.689,1.689,0,1,1-1.859,1.672A1.775,1.775,0,0,1,390.231,288.14Zm0,12.852a1.409,1.409,0,1,1-1.55,1.409A1.471,1.471,0,0,1,390.231,300.992Zm0,12.9a1.079,1.079,0,1,1,0,2.147,1.081,1.081,0,1,1,0-2.147Zm0,12.916a.773.773,0,0,1,.806.738.809.809,0,0,1-1.612,0A.768.768,0,0,1,390.231,326.808Zm0,12.958a.367.367,0,0,1,.381.353.388.388,0,0,1-.771,0A.37.37,0,0,1,390.231,339.767Zm13.911-127.489a2.1,2.1,0,1,1-2.322,2.081A2.217,2.217,0,0,1,404.143,212.278Zm0,12.6a2.069,2.069,0,1,1-2.285,2.065A2.183,2.183,0,0,1,404.143,224.883Zm0,12.687a1.961,1.961,0,1,1-2.159,1.951A2.067,2.067,0,0,1,404.143,237.57Zm0,12.7a1.825,1.825,0,1,1-2.013,1.82A1.922,1.922,0,0,1,404.143,250.274Zm0,12.761a1.644,1.644,0,1,1-1.814,1.631A1.718,1.718,0,0,1,404.143,263.035Zm0,12.778a1.434,1.434,0,1,1-1.587,1.426A1.509,1.509,0,0,1,404.143,275.813Zm0,12.786a1.226,1.226,0,1,1,0,2.442,1.227,1.227,0,1,1,0-2.442Zm0,12.884a.914.914,0,1,1-1.006.917A.964.964,0,0,1,404.143,301.483Zm0,12.86a.63.63,0,1,1-.7.614A.657.657,0,0,1,404.143,314.343Zm0,12.909a.312.312,0,0,1,.309.295.3.3,0,0,1-.309.279.292.292,0,0,1-.309-.279A.305.305,0,0,1,404.143,327.251Zm13.91-101.836a1.617,1.617,0,0,1,1.7,1.533,1.709,1.709,0,1,1-1.7-1.533Zm0,12.63a1.482,1.482,0,1,1-1.622,1.475A1.551,1.551,0,0,1,418.052,238.046Zm0,12.72a1.4,1.4,0,0,1,1.461,1.328,1.473,1.473,0,0,1-2.929,0A1.408,1.408,0,0,1,418.052,250.766Zm0,12.753a1.154,1.154,0,1,1-1.269,1.147A1.212,1.212,0,0,1,418.052,263.519Zm0,12.786a.94.94,0,1,1-1.042.934A.982.982,0,0,1,418.052,276.305Zm0,12.818a.7.7,0,1,1,0,1.393.7.7,0,1,1,0-1.393Zm0,12.852a.445.445,0,0,1,.463.426.438.438,0,0,1-.463.41.431.431,0,0,1-.462-.41A.438.438,0,0,1,418.052,301.975Zm.119,12.982a.116.116,0,0,1-.119.115.1.1,0,0,1-.108-.115c0-.049.036-.081.108-.081S418.171,314.909,418.171,314.957Zm13.792-88.992a.988.988,0,1,1-1.079.984A1.044,1.044,0,0,1,431.963,225.965Zm0,12.639a.914.914,0,1,1-1,.918A.96.96,0,0,1,431.963,238.6Zm0,12.72a.771.771,0,1,1,0,1.533.77.77,0,1,1,0-1.533Zm0,12.72a.654.654,0,0,1,.69.623.665.665,0,0,1-.69.631.673.673,0,0,1-.7-.631A.661.661,0,0,1,431.963,264.043Zm0,12.786a.451.451,0,0,1,.472.409.469.469,0,0,1-.934,0A.448.448,0,0,1,431.963,276.83Zm.235,12.982a.232.232,0,0,1-.462,0,.234.234,0,0,1,.462,0Zm13.685-75.927a.487.487,0,1,1-.544.475A.512.512,0,0,1,445.884,213.884Zm0,12.638a.446.446,0,0,1,.462.426.469.469,0,1,1-.462-.426Zm0,12.639a.388.388,0,0,1,.389.361.369.369,0,0,1-.389.344.358.358,0,0,1-.39-.344A.376.376,0,0,1,445.884,239.161Zm.262,12.933a.265.265,0,0,1-.262.246.261.261,0,0,1-.273-.246.256.256,0,0,1,.273-.246A.259.259,0,0,1,446.145,252.094Zm-.189,12.572a.068.068,0,0,1-.072.066c-.055,0-.082-.017-.082-.066,0-.033.027-.066.082-.066C445.911,264.6,445.956,264.633,445.956,264.666Z" transform="translate(1010.528 -136.223)" fill="#fff" fill-rule="evenodd" opacity="0.19"/>
      <g id="Grupo_154296" data-name="Grupo 154296" transform="translate(876.903 -143.444)" opacity="0.09">
        <path id="Trazado_174290" data-name="Trazado 174290" d="M59.688,315.342-111.288,486.318a14.937,14.937,0,0,1-21.126,0h0a14.939,14.939,0,0,1,0-21.126L38.562,294.215a14.939,14.939,0,0,1,21.126,0h0A14.939,14.939,0,0,1,59.688,315.342Z" transform="translate(136.79 -289.84)" fill="none" stroke="#8f9294" stroke-miterlimit="10" stroke-width="2"/>
        <path id="Trazado_174291" data-name="Trazado 174291" d="M57.955,407.627l-130.5,130.5a11.4,11.4,0,0,1-16.125,0h0a11.4,11.4,0,0,1,0-16.126l130.5-130.5a11.4,11.4,0,0,1,16.126,0h0A11.4,11.4,0,0,1,57.955,407.627Z" transform="translate(128.113 -308.893)" fill="none" stroke="#8f9294" stroke-miterlimit="10" stroke-width="2"/>
      </g>
    </g>
  </g>
</svg>
