<svg xmlns="http://www.w3.org/2000/svg" width="294.978" height="102.994" viewBox="0 0 294.978 102.994">
  <g id="Grupo_161554" data-name="Grupo 161554" transform="translate(-255 -5870.754)">
    <path id="Trazado_199656" data-name="Trazado 199656" d="M5.88,14.315h-2.1V19H1.143V6.2H5.9A5.375,5.375,0,0,1,9.4,7.214a3.488,3.488,0,0,1,1.23,2.856,3.937,3.937,0,0,1-.567,2.184,3.866,3.866,0,0,1-1.718,1.393l2.769,5.229V19H8.279Zm-2.1-2.136H5.906a2.178,2.178,0,0,0,1.538-.505,1.806,1.806,0,0,0,.545-1.393,1.933,1.933,0,0,0-.514-1.424A2.137,2.137,0,0,0,5.9,8.339H3.779Zm13.061,7a4.668,4.668,0,0,1-3.406-1.283,4.561,4.561,0,0,1-1.314-3.419v-.246a5.745,5.745,0,0,1,.554-2.562,4.064,4.064,0,0,1,1.569-1.74,4.4,4.4,0,0,1,2.316-.611,3.947,3.947,0,0,1,3.072,1.23,5,5,0,0,1,1.121,3.489v1.037H14.7a2.36,2.36,0,0,0,.743,1.494,2.245,2.245,0,0,0,1.569.563A2.742,2.742,0,0,0,19.3,16.064l1.248,1.4A3.813,3.813,0,0,1,19,18.723,5.075,5.075,0,0,1,16.84,19.176Zm-.29-7.813a1.587,1.587,0,0,0-1.226.512,2.651,2.651,0,0,0-.6,1.466h3.533v-.2a1.891,1.891,0,0,0-.457-1.311A1.638,1.638,0,0,0,16.55,11.362Zm9.6,5.766a1.666,1.666,0,0,0,1.143-.387,1.355,1.355,0,0,0,.457-1.028h2.382a3.258,3.258,0,0,1-.527,1.771,3.48,3.48,0,0,1-1.419,1.248,4.442,4.442,0,0,1-1.991.444,4.129,4.129,0,0,1-3.217-1.3A5.13,5.13,0,0,1,21.8,14.3v-.167a5.071,5.071,0,0,1,1.169-3.507,4.08,4.08,0,0,1,3.208-1.31,4,4,0,0,1,2.861,1.015,3.594,3.594,0,0,1,1.094,2.7H27.747a1.745,1.745,0,0,0-.457-1.206,1.7,1.7,0,0,0-2.5.183,3.749,3.749,0,0,0-.453,2.1v.264a3.8,3.8,0,0,0,.448,2.113A1.549,1.549,0,0,0,26.147,17.128Zm11.127.905a3.185,3.185,0,0,1-2.6,1.143,3,3,0,0,1-2.333-.879,3.752,3.752,0,0,1-.822-2.575V9.49h2.54v6.151q0,1.487,1.354,1.487a1.834,1.834,0,0,0,1.775-.9V9.49h2.549V19H37.345ZM47,11.872a6.9,6.9,0,0,0-.914-.07,1.86,1.86,0,0,0-1.89.976V19h-2.54V9.49h2.4l.07,1.134a2.354,2.354,0,0,1,2.118-1.31,2.662,2.662,0,0,1,.791.114Zm6.372,4.5a.818.818,0,0,0-.461-.734,5.241,5.241,0,0,0-1.481-.479q-3.393-.712-3.393-2.883a2.613,2.613,0,0,1,1.05-2.114,4.237,4.237,0,0,1,2.747-.848,4.56,4.56,0,0,1,2.9.853,2.687,2.687,0,0,1,1.085,2.215h-2.54a1.229,1.229,0,0,0-.352-.9,1.488,1.488,0,0,0-1.1-.356,1.52,1.52,0,0,0-.993.29.916.916,0,0,0-.352.738.783.783,0,0,0,.4.681,4.114,4.114,0,0,0,1.349.448,11.019,11.019,0,0,1,1.6.426,2.628,2.628,0,0,1,2.013,2.558,2.481,2.481,0,0,1-1.116,2.1,4.815,4.815,0,0,1-2.883.8,5.029,5.029,0,0,1-2.123-.426,3.561,3.561,0,0,1-1.455-1.169,2.716,2.716,0,0,1-.527-1.6h2.408a1.326,1.326,0,0,0,.5,1.037,1.987,1.987,0,0,0,1.248.36,1.839,1.839,0,0,0,1.1-.277A.861.861,0,0,0,53.367,16.372Zm3.709-2.215a5.64,5.64,0,0,1,.545-2.522A3.989,3.989,0,0,1,59.19,9.921a4.577,4.577,0,0,1,2.377-.606,4.33,4.33,0,0,1,3.142,1.178,4.727,4.727,0,0,1,1.358,3.2l.018.65a4.97,4.97,0,0,1-1.222,3.511,4.735,4.735,0,0,1-6.561,0,5.058,5.058,0,0,1-1.226-3.586Zm2.54.18a3.555,3.555,0,0,0,.51,2.073,1.831,1.831,0,0,0,2.9.009,3.89,3.89,0,0,0,.519-2.267,3.519,3.519,0,0,0-.519-2.06,1.686,1.686,0,0,0-1.459-.731,1.658,1.658,0,0,0-1.441.726A3.955,3.955,0,0,0,59.616,14.338ZM72.8,16.372a.818.818,0,0,0-.461-.734,5.241,5.241,0,0,0-1.481-.479q-3.393-.712-3.393-2.883a2.613,2.613,0,0,1,1.05-2.114,4.237,4.237,0,0,1,2.747-.848,4.56,4.56,0,0,1,2.9.853,2.687,2.687,0,0,1,1.085,2.215H72.7a1.229,1.229,0,0,0-.352-.9,1.488,1.488,0,0,0-1.1-.356,1.52,1.52,0,0,0-.993.29.916.916,0,0,0-.352.738.783.783,0,0,0,.4.681,4.114,4.114,0,0,0,1.349.448,11.019,11.019,0,0,1,1.6.426,2.628,2.628,0,0,1,2.013,2.558,2.481,2.481,0,0,1-1.116,2.1,4.815,4.815,0,0,1-2.883.8,5.029,5.029,0,0,1-2.123-.426,3.561,3.561,0,0,1-1.455-1.169,2.716,2.716,0,0,1-.527-1.6h2.408a1.326,1.326,0,0,0,.5,1.037,1.987,1.987,0,0,0,1.248.36,1.839,1.839,0,0,0,1.1-.277A.861.861,0,0,0,72.8,16.372Zm8.191-2.2a5.731,5.731,0,0,1,1-3.542,3.237,3.237,0,0,1,2.729-1.318,2.913,2.913,0,0,1,2.294,1.037V5.5h2.549V19H87.267l-.123-1.011A2.989,2.989,0,0,1,84.7,19.176a3.228,3.228,0,0,1-2.694-1.323A5.916,5.916,0,0,1,80.991,14.175Zm2.54.189A3.754,3.754,0,0,0,84,16.415a1.517,1.517,0,0,0,1.354.713,1.7,1.7,0,0,0,1.661-.995V12.375a1.675,1.675,0,0,0-1.644-.995Q83.531,11.38,83.531,14.364ZM94.21,19H91.661V9.49H94.21Zm-2.7-11.971a1.251,1.251,0,0,1,.382-.94,1.648,1.648,0,0,1,2.079,0,1.244,1.244,0,0,1,.387.94,1.247,1.247,0,0,1-.391.949,1.629,1.629,0,0,1-2.065,0A1.247,1.247,0,0,1,91.512,7.029Zm9.94,9.343a.818.818,0,0,0-.461-.734,5.241,5.241,0,0,0-1.481-.479q-3.393-.712-3.393-2.883a2.613,2.613,0,0,1,1.05-2.114,4.237,4.237,0,0,1,2.747-.848,4.56,4.56,0,0,1,2.9.853,2.687,2.687,0,0,1,1.085,2.215h-2.54a1.229,1.229,0,0,0-.352-.9,1.488,1.488,0,0,0-1.1-.356,1.52,1.52,0,0,0-.993.29.916.916,0,0,0-.352.738.783.783,0,0,0,.4.681,4.114,4.114,0,0,0,1.349.448,11.019,11.019,0,0,1,1.6.426,2.628,2.628,0,0,1,2.013,2.558,2.481,2.481,0,0,1-1.116,2.1,4.815,4.815,0,0,1-2.883.8A5.029,5.029,0,0,1,97.8,18.75a3.561,3.561,0,0,1-1.455-1.169,2.716,2.716,0,0,1-.527-1.6h2.408a1.326,1.326,0,0,0,.5,1.037,1.987,1.987,0,0,0,1.248.36,1.839,1.839,0,0,0,1.1-.277A.861.861,0,0,0,101.452,16.372Zm12.665-2.039a5.7,5.7,0,0,1-1,3.52,3.2,3.2,0,0,1-2.694,1.323,2.963,2.963,0,0,1-2.329-1v4.482h-2.54V9.49h2.355l.088.932a2.985,2.985,0,0,1,2.408-1.107,3.22,3.22,0,0,1,2.733,1.3,5.858,5.858,0,0,1,.976,3.586Zm-2.54-.185a3.743,3.743,0,0,0-.47-2.048,1.532,1.532,0,0,0-1.367-.721,1.663,1.663,0,0,0-1.644.914v3.894a1.692,1.692,0,0,0,1.661.94Q111.577,17.128,111.577,14.148Zm3.718.009a5.64,5.64,0,0,1,.545-2.522,3.989,3.989,0,0,1,1.569-1.714,4.577,4.577,0,0,1,2.377-.606,4.33,4.33,0,0,1,3.142,1.178,4.727,4.727,0,0,1,1.358,3.2l.018.65a4.97,4.97,0,0,1-1.222,3.511,4.735,4.735,0,0,1-6.561,0,5.058,5.058,0,0,1-1.226-3.586Zm2.54.18a3.555,3.555,0,0,0,.51,2.073,1.831,1.831,0,0,0,2.9.009,3.89,3.89,0,0,0,.519-2.267,3.519,3.519,0,0,0-.519-2.06,1.686,1.686,0,0,0-1.459-.731,1.658,1.658,0,0,0-1.441.726A3.955,3.955,0,0,0,117.835,14.338ZM128.206,9.49l.079,1.1a3.32,3.32,0,0,1,2.733-1.274,2.759,2.759,0,0,1,2.25.888,4.142,4.142,0,0,1,.756,2.654V19h-2.54V12.918a1.648,1.648,0,0,0-.352-1.173,1.574,1.574,0,0,0-1.169-.365,1.747,1.747,0,0,0-1.608.914V19h-2.54V9.49ZM138.63,19h-2.549V9.49h2.549Zm-2.7-11.971a1.251,1.251,0,0,1,.382-.94,1.648,1.648,0,0,1,2.079,0,1.244,1.244,0,0,1,.387.94,1.247,1.247,0,0,1-.391.949,1.629,1.629,0,0,1-2.065,0A1.247,1.247,0,0,1,135.932,7.029Zm13.359,7.3a5.758,5.758,0,0,1-.976,3.564,3.231,3.231,0,0,1-2.725,1.279,2.969,2.969,0,0,1-2.47-1.187L143.007,19h-2.285V5.5h2.54v4.843a2.893,2.893,0,0,1,2.312-1.028,3.258,3.258,0,0,1,2.729,1.279,5.767,5.767,0,0,1,.989,3.6Zm-2.54-.185a3.783,3.783,0,0,0-.457-2.1,1.545,1.545,0,0,0-1.362-.664,1.676,1.676,0,0,0-1.67.993v3.753a1.7,1.7,0,0,0,1.688,1,1.568,1.568,0,0,0,1.617-1.213A6.257,6.257,0,0,0,146.751,14.148ZM153.536,19h-2.549V5.5h2.549Zm6.469.176a4.668,4.668,0,0,1-3.406-1.283,4.561,4.561,0,0,1-1.314-3.419v-.246a5.745,5.745,0,0,1,.554-2.562,4.064,4.064,0,0,1,1.569-1.74,4.4,4.4,0,0,1,2.316-.611,3.947,3.947,0,0,1,3.072,1.23,5,5,0,0,1,1.121,3.489v1.037H157.86a2.36,2.36,0,0,0,.743,1.494,2.245,2.245,0,0,0,1.569.563,2.742,2.742,0,0,0,2.294-1.063l1.248,1.4a3.813,3.813,0,0,1-1.547,1.261A5.075,5.075,0,0,1,160,19.176Zm-.29-7.813a1.587,1.587,0,0,0-1.226.512,2.651,2.651,0,0,0-.6,1.466h3.533v-.2a1.891,1.891,0,0,0-.457-1.311A1.638,1.638,0,0,0,159.715,11.362Zm10.793,5.01a.818.818,0,0,0-.461-.734,5.241,5.241,0,0,0-1.481-.479q-3.393-.712-3.393-2.883a2.613,2.613,0,0,1,1.05-2.114,4.237,4.237,0,0,1,2.747-.848,4.56,4.56,0,0,1,2.9.853,2.687,2.687,0,0,1,1.085,2.215h-2.54a1.229,1.229,0,0,0-.352-.9,1.488,1.488,0,0,0-1.1-.356,1.52,1.52,0,0,0-.993.29.916.916,0,0,0-.352.738.783.783,0,0,0,.4.681,4.114,4.114,0,0,0,1.349.448,11.019,11.019,0,0,1,1.6.426,2.628,2.628,0,0,1,2.013,2.558,2.481,2.481,0,0,1-1.116,2.1,4.815,4.815,0,0,1-2.883.8,5.029,5.029,0,0,1-2.123-.426,3.561,3.561,0,0,1-1.455-1.169,2.716,2.716,0,0,1-.527-1.6h2.408a1.326,1.326,0,0,0,.5,1.037,1.987,1.987,0,0,0,1.248.36,1.839,1.839,0,0,0,1.1-.277A.861.861,0,0,0,170.508,16.372Z" transform="translate(377 5951.092)" fill="#fff"/>
    <path id="Trazado_199655" data-name="Trazado 199655" d="M12.5,0,25,19H0Z" transform="translate(274 5902.904) rotate(90)" fill="#f59d36"/>
    <g id="_3Ca0nq.tif" data-name="3Ca0nq.tif" transform="translate(300.649 6462.146)">
      <g id="Grupo_161523" data-name="Grupo 161523" transform="translate(-26.649 -591.391)">
        <path id="Trazado_199614" data-name="Trazado 199614" d="M-20.91-493.521a2.281,2.281,0,0,1-.941-2.048c.032-4.245.012-8.491.016-12.736,0-1.593.463-2.051,2.052-2.056.894,0,1.788-.023,2.681.008a1.452,1.452,0,0,1,1.552,1.468,1.441,1.441,0,0,1-1.59,1.412c-.54.016-1.081,0-1.783,0,0,1.251-.025,2.451.031,3.647.007.152.435.4.677.405,1.052.045,2.106.021,3.159.021H2.739c0-1.263,0-2.4,0-3.543,0-.682-.511-.523-.893-.524q-5.65-.011-11.3-.005c-.287,0-.576.009-.862-.013a1.338,1.338,0,0,1-1.344-1.355,1.375,1.375,0,0,1,1.213-1.487,3.993,3.993,0,0,1,.859-.036q5.6,0,11.2,0H2.744c0-1.5,0-2.9,0-4.3,0-2.45.183-2.637,2.585-2.637H27.05v-6.776c-.755.312-1.477.622-2.207.911A30.052,30.052,0,0,1-10.663-533.4c-.71-.968-.719-1.816-.023-2.372.73-.583,1.61-.355,2.343.628A26.827,26.827,0,0,0,10.6-524.091,26.773,26.773,0,0,0,26.52-527.1a1.085,1.085,0,0,0,.624-1.134c.009-3.012.025-3.117,3.065-2.969a3.879,3.879,0,0,0,3.653-1.672c.814-1.1,1.707-2.141,2.317-2.9a28.1,28.1,0,0,1-.378-2.981c-.04-3.217-.016-6.436-.016-9.783-1.05,0-2.027-.012-3,0a1.635,1.635,0,0,1-1.753-.889c-.347-.8.055-1.386.618-1.943,2.451-2.425,4.872-4.88,7.33-7.3a1.116,1.116,0,0,0,.355-1.4c-4.034-10.222-11.447-16.228-22.311-17.95-.472-.075-.95-.112-1.426-.155a3.273,3.273,0,0,0-.479.041v1.135q0,12.641,0,25.282c0,1.692-.392,2.085-2.079,2.085H-13.441A26.053,26.053,0,0,0-12-542.146c.082.241.186.475.265.717a1.509,1.509,0,0,1-.776,2.075,1.426,1.426,0,0,1-1.922-1.065c-.548-1.762-1.064-3.538-1.473-5.335-.28-1.232-.354-2.51-.534-3.872h-5.436c-.99,0-1.979.007-2.969,0-1.3-.011-1.818-.51-1.8-1.787a39.5,39.5,0,0,1,7.1-22.459,39.936,39.936,0,0,1,22.69-16.118,38.509,38.509,0,0,1,10.208-1.4c1.229-.007,1.756.506,1.761,1.731.011,2.807,0,5.613,0,8.447,1.551.235,3.075.366,4.55.7,11.746,2.7,19.343,9.892,23,21.333a4.875,4.875,0,0,0,1.062,1.838c1.942,2.028,3.946,4,5.947,5.97a1.665,1.665,0,0,1,.6,1.951c-.323.76-1.013.889-1.759.879-.952-.013-1.9,0-2.98,0v1.572c0,3,0,6,0,9,0,1.393-.51,1.89-1.915,1.9-1.085.007-2.172-.02-3.255.017a1.136,1.136,0,0,0-.8.327c-1.038,1.438-2.029,2.911-3.107,4.477h.96c4.214,0,8.427.013,12.641,0,4.709-.019,4.33-.273,4.316,4.365,0,.6,0,1.2,0,1.679a46.353,46.353,0,0,1,4.921.622,15.623,15.623,0,0,1,11.935,13,5.443,5.443,0,0,0,.176.637v3.448a3.059,3.059,0,0,0-.176.523,15.782,15.782,0,0,1-11.788,12.989c-.669.17-1.345.314-2.018.47ZM12.171-588.4c-20.2.54-35.707,17.931-35.774,35.824H12.171ZM42.8-509.262A12.887,12.887,0,0,0,55.65-496.414a12.932,12.932,0,0,0,12.87-12.849A12.888,12.888,0,0,0,55.6-522.14,12.839,12.839,0,0,0,42.8-509.262Zm-61.68,12.774H2.686V-500.4H-18.881ZM5.685-510.426H27.06v-3.9H5.685Zm.027,6.967H27.066v-3.933H5.712Zm21.37,3.058H5.729v3.921H27.083Zm24.409-27.876H30.1v3.938c.257.018.446.043.636.043q9.763,0,19.527,0c.191,0,.434.053.562-.042.256-.191.622-.454.639-.709C51.533-526.094,51.491-527.148,51.491-528.278ZM36.076-551.5c.217.021.368.044.521.049,1.725.06,2.074.41,2.075,2.1q0,4.644,0,9.289v1.025h3.974v-1.114q0-4.549,0-9.1c0-1.837.291-2.13,2.159-2.2a.986.986,0,0,0,.282-.061l-4.5-4.505Zm-6,55.038H46.23c-1.041-1.093-2.128-2.118-3.065-3.266a1.8,1.8,0,0,0-1.6-.749c-3.478.029-6.956.013-10.434.013H30.073ZM30.065-517.3c3.952,0,7.8,0,11.648-.009a.7.7,0,0,0,.49-.21c1-1.246,1.985-2.509,2.976-3.771H30.065Zm10.846,13.852-1-3.945h-9.8v3.945Zm-.286-10.893H30.1v3.914h9.747Z" transform="translate(26.649 591.391)" fill="#fff"/>
        <path id="Trazado_199615" data-name="Trazado 199615" d="M382.134-207.772c0-1.484-.8-2.222-2.454-2.256-2.633-.054-4.47-1.375-5.085-3.656a5.343,5.343,0,0,1,2.941-6.286c.47-.215.759-.384.77-1a1.339,1.339,0,0,1,1.485-1.393,1.3,1.3,0,0,1,1.353,1.417c-.01.57.273.738.714.943a5.122,5.122,0,0,1,3.161,4.536,1.468,1.468,0,0,1-1.23,1.752c-.849.112-1.487-.453-1.655-1.466-.248-1.5-1.039-2.311-2.293-2.36a2.423,2.423,0,0,0-2.528,2.428,2.086,2.086,0,0,0,2.332,2.182c2.8.045,4.822,1.532,5.3,3.9a5.546,5.546,0,0,1-3.132,6.336,1.364,1.364,0,0,0-.623.869c-.171.9-.68,1.48-1.462,1.476a1.431,1.431,0,0,1-1.424-1.493c-.011-.583-.305-.734-.734-.931a5.158,5.158,0,0,1-3.118-4.271c-.149-1.149.359-1.9,1.268-2,.855-.1,1.44.489,1.605,1.611a2.4,2.4,0,0,0,2.629,2.209A2.366,2.366,0,0,0,382.134-207.772Z" transform="translate(-297.437 293.185)" fill="#fff"/>
      </g>
    </g>
  </g>
</svg>
