<svg xmlns="http://www.w3.org/2000/svg" width="59.799" height="71.579" viewBox="0 0 59.799 71.579">
  <g id="HN1gzq" transform="translate(770.204 2867.51)">
    <g id="Grupo_155884" data-name="Grupo 155884" transform="translate(-770.204 -2867.51)">
      <path id="Trazado_198323" data-name="Trazado 198323" d="M-722.948-2867.51a10.217,10.217,0,0,1,.73,2.622c.047,13.624.033,27.248.033,40.872v2.034c1.988-.323,3.653-.1,4.984,1.34.157.17.762-.021,1.141-.119a4.25,4.25,0,0,1,5.636,4.2c.055,2.225-.031,4.453,0,6.678a13.185,13.185,0,0,1-2.235,6.851,8.615,8.615,0,0,0-1.35,5.1,5.633,5.633,0,0,1-.665,2h-21.645a21.784,21.784,0,0,1-.63-3.595,4.3,4.3,0,0,0-1.151-2.787c-1.667-2.124-3.7-2.667-6.336-2.611-7.795.167-15.6.063-23.394.059-2.067,0-2.347-.253-2.351-2.264q-.02-10.975-.005-21.95c0-.212,0-.424.009-.636.035-.9.4-1.738,1.375-1.467a2.15,2.15,0,0,1,1.241,1.584c.105,4.133.057,8.269.057,12.4,0,3.114,0,6.228,0,9.422h23.8c-.573-.6-1.021-1.062-1.463-1.531a4.779,4.779,0,0,1-.111-6.709,4.784,4.784,0,0,1,6.711.159c.529.512,1.009,1.074,1.781,1.9.065-.825.127-1.256.127-1.687.007-4.719,0-9.437.007-14.156.005-2.853,1.81-4.869,4.311-4.847,2.525.022,4.284,2.016,4.3,4.884.009,2.221,0,4.443,0,6.688h3.049v-41.561H-767.5v1.738q0,9.7,0,19.405c0,.371.133.823-.03,1.1a12.473,12.473,0,0,1-1.265,1.548c-.454-.487-1.25-.941-1.3-1.466-.171-1.787-.086-3.6-.087-5.4,0-5.779-.031-11.559.033-17.337a9.36,9.36,0,0,1,.729-2.465Zm5.768,68.715a34.063,34.063,0,0,1,1.928-5.057,14.958,14.958,0,0,0,2.175-9.088,25,25,0,0,1-.007-3.019c.032-1.039-.161-1.985-1.326-2.2-1.145-.213-1.7.393-1.935,1.558-.092.455-.925,1.141-1.292,1.068a1.98,1.98,0,0,1-1.287-1.276c-.221-1.146-.032-2.578-1.654-2.588s-1.446,1.434-1.705,2.567a1.892,1.892,0,0,1-1.39,1.092c-.355.034-.942-.689-1.142-1.187a6.129,6.129,0,0,1-.067-1.731c-.073-1.033-.656-1.879-1.663-1.667-.59.125-1.076,1.047-1.463,1.7-.186.314.1.9-.065,1.238-.307.624-.7,1.514-1.227,1.657-1.059.286-1.451-.624-1.491-1.557-.048-1.111-.016-2.225-.018-3.338-.005-3.179,0-6.358-.019-9.538-.005-.977-.511-1.821-1.477-1.633-.615.119-1.176.949-1.577,1.577-.219.342-.058.929-.059,1.406q-.005,7.392-.005,14.784a2.617,2.617,0,0,1-1.592,2.689,2.679,2.679,0,0,1-3.169-.78c-.5-.548-1.038-1.06-1.576-1.572-1.161-1.1-2.178-1.211-3.048-.337s-.782,1.879.358,3.032c1.938,1.959,3.815,3.99,5.869,5.82,1.869,1.664,3.284,3.4,2.789,6.093-.013.069.117.164.211.289Z" transform="translate(770.204 2867.51)" fill="#12263f"/>
      <path id="Trazado_198324" data-name="Trazado 198324" d="M-727.923-2813.473q-6.913,0-13.826,0c-1.927,0-2.138-.209-2.15-2.066s.024-3.707-.01-5.559c-.022-1.2.512-1.744,1.71-1.743q14.223.013,28.446,0c1.28,0,1.8.585,1.77,1.854-.049,1.852-.063,3.707,0,5.558.052,1.431-.525,1.991-1.96,1.977C-718.6-2813.5-723.262-2813.473-727.923-2813.473Zm-13.319-6.636a15.892,15.892,0,0,1-.015,2.059c-.212,1.5.315,1.982,1.883,1.965,7.629-.082,15.26-.035,22.89-.04.557,0,1.114-.055,1.664-.084v-3.9Z" transform="translate(752.275 2837.054)" fill="#12263f"/>
      <path id="Trazado_198325" data-name="Trazado 198325" d="M-730.714-2768.091c0,3.5-.032,7,.015,10.492.019,1.433-.55,1.981-1.992,1.949q-4.61-.1-9.224,0c-1.41.028-2.025-.467-2.018-1.925q.053-10.491,0-20.983c-.006-1.365.608-1.929,1.911-1.925,3.128.008,6.256.018,9.384,0,1.432-.01,1.956.676,1.937,2.066C-730.746-2774.98-730.714-2771.535-730.714-2768.091Zm-10.417-9.5v19.153h7.652v-19.153Z" transform="translate(752.291 2808.173)" fill="#12263f"/>
      <path id="Trazado_198326" data-name="Trazado 198326" d="M-727.7-2843.513q6.763,0,13.527,0c.424,0,.949-.124,1.247.077.466.312,1.068.85,1.074,1.3s-.557,1.047-1.021,1.351c-.343.224-.926.1-1.4.1q-13.447.005-26.895,0c-.476,0-1.063.125-1.4-.1-.459-.309-1.009-.909-1-1.369s.621-.977,1.091-1.284c.3-.2.825-.071,1.248-.071Q-734.468-2843.514-727.7-2843.513Z" transform="translate(752.044 2851.173)" fill="#12263f"/>
      <path id="Trazado_198327" data-name="Trazado 198327" d="M-682.484-2777.645q-2.7,0-5.4,0c-.932,0-1.753-.219-1.777-1.335-.026-1.189.82-1.487,1.815-1.49q5.478-.014,10.956,0c.978,0,1.863.246,1.856,1.447-.007,1.231-.924,1.379-1.894,1.379Z" transform="translate(715.284 2808.165)" fill="#12263f"/>
      <path id="Trazado_198328" data-name="Trazado 198328" d="M-686.939-2754.807c-.474,0-1.04.162-1.4-.04-.48-.271-1.142-.858-1.1-1.25a1.979,1.979,0,0,1,1.125-1.379,3.9,3.9,0,0,1,2.332-.052,6.828,6.828,0,0,1,1.809,1.365c-.6.464-1.182.97-1.827,1.369-.229.141-.619.022-.935.022Z" transform="translate(715.136 2792.622)" fill="#12263f"/>
      <path id="Trazado_198329" data-name="Trazado 198329" d="M-686.939-2731.823c-.475,0-1.044.164-1.4-.04-.48-.273-1.138-.863-1.1-1.26a1.98,1.98,0,0,1,1.119-1.39,3.9,3.9,0,0,1,2.339-.041,6.867,6.867,0,0,1,1.809,1.369,22.739,22.739,0,0,1-1.824,1.371c-.229.142-.62.022-.938.022Z" transform="translate(715.137 2776.96)" fill="#12263f"/>
      <path id="Trazado_198330" data-name="Trazado 198330" d="M-766.747-2771.083c-.936.581-1.535,1.235-1.935,1.131-.514-.134-.869-.878-1.292-1.359.464-.385.92-1.062,1.392-1.073S-767.622-2771.742-766.747-2771.083Z" transform="translate(770.048 2802.646)" fill="#12263f"/>
    </g>
  </g>
</svg>
