<svg xmlns="http://www.w3.org/2000/svg" xmlns:xlink="http://www.w3.org/1999/xlink" width="878.71" height="199.906" viewBox="0 0 878.71 199.906">
  <defs>
    <filter id="Trazado_199659" x="0" y="0" width="155.702" height="199.906" filterUnits="userSpaceOnUse">
      <feOffset dy="3" input="SourceAlpha"/>
      <feGaussianBlur stdDeviation="3" result="blur"/>
      <feFlood flood-opacity="0.161"/>
      <feComposite operator="in" in2="blur"/>
      <feComposite in="SourceGraphic"/>
    </filter>
    <filter id="Trazado_199660" x="180.111" y="0" width="155.702" height="199.906" filterUnits="userSpaceOnUse">
      <feOffset dy="3" input="SourceAlpha"/>
      <feGaussianBlur stdDeviation="3" result="blur-2"/>
      <feFlood flood-opacity="0.161"/>
      <feComposite operator="in" in2="blur-2"/>
      <feComposite in="SourceGraphic"/>
    </filter>
    <filter id="Trazado_199661" x="361.077" y="0" width="155.702" height="199.906" filterUnits="userSpaceOnUse">
      <feOffset dy="3" input="SourceAlpha"/>
      <feGaussianBlur stdDeviation="3" result="blur-3"/>
      <feFlood flood-opacity="0.161"/>
      <feComposite operator="in" in2="blur-3"/>
      <feComposite in="SourceGraphic"/>
    </filter>
    <filter id="Trazado_199662" x="723.008" y="0" width="155.702" height="199.906" filterUnits="userSpaceOnUse">
      <feOffset dy="3" input="SourceAlpha"/>
      <feGaussianBlur stdDeviation="3" result="blur-4"/>
      <feFlood flood-opacity="0.161"/>
      <feComposite operator="in" in2="blur-4"/>
      <feComposite in="SourceGraphic"/>
    </filter>
    <filter id="Trazado_199663" x="542.042" y="0" width="155.702" height="199.906" filterUnits="userSpaceOnUse">
      <feOffset dy="3" input="SourceAlpha"/>
      <feGaussianBlur stdDeviation="3" result="blur-5"/>
      <feFlood flood-opacity="0.161"/>
      <feComposite operator="in" in2="blur-5"/>
      <feComposite in="SourceGraphic"/>
    </filter>
  </defs>
  <g id="Grupo_161556" data-name="Grupo 161556" transform="translate(-372 -629.838)">
    <g transform="matrix(1, 0, 0, 1, 372, 629.84)" filter="url(#Trazado_199659)">
      <path id="Trazado_199659-2" data-name="Trazado 199659" d="M10,0H127.7a10,10,0,0,1,10,10V171.906a10,10,0,0,1-10,10H10a10,10,0,0,1-10-10V10A10,10,0,0,1,10,0Z" transform="translate(9 6)" fill="#fff"/>
    </g>
    <g transform="matrix(1, 0, 0, 1, 372, 629.84)" filter="url(#Trazado_199660)">
      <path id="Trazado_199660-2" data-name="Trazado 199660" d="M10,0H127.7a10,10,0,0,1,10,10V171.906a10,10,0,0,1-10,10H10a10,10,0,0,1-10-10V10A10,10,0,0,1,10,0Z" transform="translate(189.11 6)" fill="#fff"/>
    </g>
    <g transform="matrix(1, 0, 0, 1, 372, 629.84)" filter="url(#Trazado_199661)">
      <path id="Trazado_199661-2" data-name="Trazado 199661" d="M10,0H127.7a10,10,0,0,1,10,10V171.906a10,10,0,0,1-10,10H10a10,10,0,0,1-10-10V10A10,10,0,0,1,10,0Z" transform="translate(370.08 6)" fill="#fff"/>
    </g>
    <g transform="matrix(1, 0, 0, 1, 372, 629.84)" filter="url(#Trazado_199662)">
      <path id="Trazado_199662-2" data-name="Trazado 199662" d="M10,0H127.7a10,10,0,0,1,10,10V171.906a10,10,0,0,1-10,10H10a10,10,0,0,1-10-10V10A10,10,0,0,1,10,0Z" transform="translate(732.01 6)" fill="#fff"/>
    </g>
    <g transform="matrix(1, 0, 0, 1, 372, 629.84)" filter="url(#Trazado_199663)">
      <path id="Trazado_199663-2" data-name="Trazado 199663" d="M10,0H127.7a10,10,0,0,1,10,10V171.906a10,10,0,0,1-10,10H10a10,10,0,0,1-10-10V10A10,10,0,0,1,10,0Z" transform="translate(551.04 6)" fill="#fff"/>
    </g>
    <path id="Trazado_199664" data-name="Trazado 199664" d="M42.763,11.642H38.544V16h-2.2V5.336H43.29v1.78H38.544V9.87h4.219ZM48.769,16a2.351,2.351,0,0,1-.212-.71,2.561,2.561,0,0,1-2,.857,2.814,2.814,0,0,1-1.93-.674,2.167,2.167,0,0,1-.765-1.7A2.24,2.24,0,0,1,44.8,11.84a4.608,4.608,0,0,1,2.7-.681h.974V10.7a1.306,1.306,0,0,0-.282-.879,1.109,1.109,0,0,0-.89-.33,1.261,1.261,0,0,0-.839.256.871.871,0,0,0-.3.7H44.037a2.126,2.126,0,0,1,.425-1.274,2.808,2.808,0,0,1,1.2-.919,4.378,4.378,0,0,1,1.743-.333,3.459,3.459,0,0,1,2.325.736,2.575,2.575,0,0,1,.861,2.069v3.435a3.789,3.789,0,0,0,.315,1.707V16Zm-1.75-1.472a1.823,1.823,0,0,0,.864-.209,1.371,1.371,0,0,0,.586-.56V12.4h-.791q-1.589,0-1.692,1.1l-.007.125a.847.847,0,0,0,.278.652A1.081,1.081,0,0,0,47.018,14.528Zm9.492-.718a.682.682,0,0,0-.385-.612,4.368,4.368,0,0,0-1.234-.4q-2.827-.593-2.827-2.4a2.178,2.178,0,0,1,.875-1.761,3.531,3.531,0,0,1,2.289-.707,3.8,3.8,0,0,1,2.413.71,2.239,2.239,0,0,1,.9,1.846H56.43a1.024,1.024,0,0,0-.293-.751,1.24,1.24,0,0,0-.916-.3,1.267,1.267,0,0,0-.828.242.763.763,0,0,0-.293.615.652.652,0,0,0,.333.568,3.428,3.428,0,0,0,1.124.374,9.183,9.183,0,0,1,1.333.355,2.19,2.19,0,0,1,1.677,2.131,2.067,2.067,0,0,1-.93,1.754,4.013,4.013,0,0,1-2.4.67,4.191,4.191,0,0,1-1.769-.355,2.968,2.968,0,0,1-1.212-.974,2.263,2.263,0,0,1-.439-1.337h2.007a1.105,1.105,0,0,0,.417.864,1.656,1.656,0,0,0,1.04.3,1.533,1.533,0,0,0,.919-.231A.718.718,0,0,0,56.51,13.81Zm7.068,2.336a3.89,3.89,0,0,1-2.838-1.069,3.8,3.8,0,0,1-1.095-2.849v-.205a4.787,4.787,0,0,1,.461-2.135,3.386,3.386,0,0,1,1.307-1.45,3.669,3.669,0,0,1,1.93-.509A3.289,3.289,0,0,1,65.9,8.954a4.167,4.167,0,0,1,.934,2.908v.864H61.791a1.966,1.966,0,0,0,.619,1.245,1.871,1.871,0,0,0,1.307.469,2.285,2.285,0,0,0,1.912-.886l1.04,1.165a3.178,3.178,0,0,1-1.289,1.051A4.229,4.229,0,0,1,63.578,16.146Zm-.242-6.511a1.323,1.323,0,0,0-1.022.427,2.209,2.209,0,0,0-.5,1.221h2.944v-.169a1.576,1.576,0,0,0-.381-1.092A1.365,1.365,0,0,0,63.337,9.635Zm8.994,4.175a.682.682,0,0,0-.385-.612,4.368,4.368,0,0,0-1.234-.4q-2.827-.593-2.827-2.4a2.178,2.178,0,0,1,.875-1.761,3.531,3.531,0,0,1,2.289-.707,3.8,3.8,0,0,1,2.413.71,2.239,2.239,0,0,1,.9,1.846H72.25a1.024,1.024,0,0,0-.293-.751,1.24,1.24,0,0,0-.916-.3,1.267,1.267,0,0,0-.828.242.763.763,0,0,0-.293.615.652.652,0,0,0,.333.568,3.428,3.428,0,0,0,1.124.374,9.183,9.183,0,0,1,1.333.355,2.19,2.19,0,0,1,1.677,2.131,2.067,2.067,0,0,1-.93,1.754,4.013,4.013,0,0,1-2.4.67,4.191,4.191,0,0,1-1.769-.355,2.968,2.968,0,0,1-1.212-.974,2.263,2.263,0,0,1-.439-1.337h2.007a1.105,1.105,0,0,0,.417.864,1.656,1.656,0,0,0,1.04.3,1.533,1.533,0,0,0,.919-.231A.718.718,0,0,0,72.331,13.81ZM14.762,27.664a11.24,11.24,0,0,1,.447-3.193,8.427,8.427,0,0,1,1.318-2.684,4.923,4.923,0,0,1,1.89-1.622l.41,1.143a5.1,5.1,0,0,0-1.67,2.446,11.327,11.327,0,0,0-.6,3.867v.227a11.543,11.543,0,0,0,.593,3.882,5.2,5.2,0,0,0,1.677,2.483l-.41,1.121a4.925,4.925,0,0,1-1.857-1.578,8.286,8.286,0,0,1-1.315-2.611,11.173,11.173,0,0,1-.483-3.091Zm12.3.447a4.753,4.753,0,0,1-.831,2.933,2.665,2.665,0,0,1-2.245,1.1,2.469,2.469,0,0,1-1.941-.835v3.735H19.933V24.075H21.9l.073.776a2.488,2.488,0,0,1,2.007-.923,2.683,2.683,0,0,1,2.278,1.084A4.882,4.882,0,0,1,27.067,28Zm-2.117-.154a3.119,3.119,0,0,0-.392-1.707,1.276,1.276,0,0,0-1.139-.6,1.386,1.386,0,0,0-1.37.762v3.245a1.41,1.41,0,0,0,1.384.784Q24.95,30.44,24.95,27.957ZM30.612,32H28.488V20.75h2.124Zm6.335,0a2.351,2.351,0,0,1-.212-.71,2.561,2.561,0,0,1-2,.857,2.814,2.814,0,0,1-1.93-.674,2.167,2.167,0,0,1-.765-1.7,2.24,2.24,0,0,1,.934-1.934,4.608,4.608,0,0,1,2.7-.681h.974V26.7a1.306,1.306,0,0,0-.282-.879,1.109,1.109,0,0,0-.89-.33,1.261,1.261,0,0,0-.839.256.871.871,0,0,0-.3.7H32.216a2.126,2.126,0,0,1,.425-1.274,2.808,2.808,0,0,1,1.2-.919,4.378,4.378,0,0,1,1.743-.333,3.459,3.459,0,0,1,2.325.736,2.575,2.575,0,0,1,.861,2.069v3.435a3.789,3.789,0,0,0,.315,1.707V32ZM35.2,30.528a1.823,1.823,0,0,0,.864-.209,1.371,1.371,0,0,0,.586-.56V28.4h-.791q-1.589,0-1.692,1.1l-.007.125a.847.847,0,0,0,.278.652A1.081,1.081,0,0,0,35.2,30.528Zm7.148-6.453.066.916a2.767,2.767,0,0,1,2.278-1.062,2.3,2.3,0,0,1,1.875.74,3.451,3.451,0,0,1,.63,2.212V32H45.077V26.932a1.373,1.373,0,0,0-.293-.978,1.312,1.312,0,0,0-.974-.3,1.456,1.456,0,0,0-1.34.762V32H40.353V24.075Zm10.1,8.071a3.89,3.89,0,0,1-2.838-1.069,3.8,3.8,0,0,1-1.095-2.849v-.205a4.787,4.787,0,0,1,.461-2.135,3.386,3.386,0,0,1,1.307-1.45,3.669,3.669,0,0,1,1.93-.509,3.289,3.289,0,0,1,2.56,1.025,4.167,4.167,0,0,1,.934,2.908v.864H50.658a1.966,1.966,0,0,0,.619,1.245,1.871,1.871,0,0,0,1.307.469,2.285,2.285,0,0,0,1.912-.886l1.04,1.165a3.178,3.178,0,0,1-1.289,1.051A4.229,4.229,0,0,1,52.446,32.146ZM52.2,25.635a1.323,1.323,0,0,0-1.022.427,2.209,2.209,0,0,0-.5,1.221h2.944v-.169a1.576,1.576,0,0,0-.381-1.092A1.365,1.365,0,0,0,52.2,25.635ZM61.5,32a2.351,2.351,0,0,1-.212-.71,2.561,2.561,0,0,1-2,.857,2.814,2.814,0,0,1-1.93-.674,2.167,2.167,0,0,1-.765-1.7,2.24,2.24,0,0,1,.934-1.934,4.608,4.608,0,0,1,2.7-.681H61.2V26.7a1.306,1.306,0,0,0-.282-.879,1.109,1.109,0,0,0-.89-.33,1.261,1.261,0,0,0-.839.256.871.871,0,0,0-.3.7H56.767a2.126,2.126,0,0,1,.425-1.274,2.808,2.808,0,0,1,1.2-.919,4.378,4.378,0,0,1,1.743-.333,3.459,3.459,0,0,1,2.325.736,2.575,2.575,0,0,1,.861,2.069v3.435a3.789,3.789,0,0,0,.315,1.707V32Zm-1.75-1.472a1.823,1.823,0,0,0,.864-.209,1.371,1.371,0,0,0,.586-.56V28.4h-.791q-1.589,0-1.692,1.1l-.007.125a.847.847,0,0,0,.278.652A1.081,1.081,0,0,0,59.748,30.528Zm8.5-.088a1.388,1.388,0,0,0,.952-.322,1.129,1.129,0,0,0,.381-.857h1.985a2.715,2.715,0,0,1-.439,1.476,2.9,2.9,0,0,1-1.183,1.04,3.7,3.7,0,0,1-1.659.37,3.44,3.44,0,0,1-2.681-1.08,4.275,4.275,0,0,1-.981-2.985v-.139a4.226,4.226,0,0,1,.974-2.922,3.4,3.4,0,0,1,2.673-1.091,3.333,3.333,0,0,1,2.384.846,3,3,0,0,1,.912,2.252H69.577a1.455,1.455,0,0,0-.381-1.005,1.416,1.416,0,0,0-2.084.153,3.125,3.125,0,0,0-.377,1.749v.22a3.164,3.164,0,0,0,.374,1.761A1.291,1.291,0,0,0,68.244,30.44ZM75,32H72.88V24.075H75Zm-2.249-9.976a1.042,1.042,0,0,1,.319-.784,1.373,1.373,0,0,1,1.732,0,1.118,1.118,0,0,1,0,1.575,1.358,1.358,0,0,1-1.721,0A1.039,1.039,0,0,1,72.756,22.024Zm3.662,5.94a4.7,4.7,0,0,1,.454-2.1,3.324,3.324,0,0,1,1.307-1.428,3.814,3.814,0,0,1,1.981-.505,3.609,3.609,0,0,1,2.618.981,3.939,3.939,0,0,1,1.132,2.666l.015.542a4.142,4.142,0,0,1-1.018,2.926,3.946,3.946,0,0,1-5.468,0,4.215,4.215,0,0,1-1.022-2.988Zm2.117.15a2.962,2.962,0,0,0,.425,1.727,1.526,1.526,0,0,0,2.417.007,3.241,3.241,0,0,0,.432-1.889,2.933,2.933,0,0,0-.432-1.716,1.4,1.4,0,0,0-1.216-.609,1.382,1.382,0,0,0-1.2.605A3.3,3.3,0,0,0,78.534,28.115Zm2.043-7.365h2.307l-2.029,2.271H79.135Zm6.6,3.325.066.916a2.767,2.767,0,0,1,2.278-1.062,2.3,2.3,0,0,1,1.875.74,3.451,3.451,0,0,1,.63,2.212V32H89.909V26.932a1.373,1.373,0,0,0-.293-.978,1.312,1.312,0,0,0-.974-.3,1.456,1.456,0,0,0-1.34.762V32H85.185V24.075Zm7,10.6-1.106-.579.264-.476a3.806,3.806,0,0,0,.505-1.78V30.2h1.787l-.007,1.465a3.805,3.805,0,0,1-.41,1.641A4.206,4.206,0,0,1,94.179,34.673ZM25.291,48.146a3.89,3.89,0,0,1-2.838-1.069,3.8,3.8,0,0,1-1.095-2.849v-.205a4.787,4.787,0,0,1,.461-2.135,3.386,3.386,0,0,1,1.307-1.45,3.669,3.669,0,0,1,1.93-.509,3.289,3.289,0,0,1,2.56,1.025,4.167,4.167,0,0,1,.934,2.908v.864H23.5a1.966,1.966,0,0,0,.619,1.245,1.871,1.871,0,0,0,1.307.469,2.285,2.285,0,0,0,1.912-.886l1.04,1.165a3.178,3.178,0,0,1-1.289,1.051A4.229,4.229,0,0,1,25.291,48.146Zm-.242-6.511a1.323,1.323,0,0,0-1.022.427,2.209,2.209,0,0,0-.5,1.221H26.47v-.169a1.576,1.576,0,0,0-.381-1.092A1.365,1.365,0,0,0,25.049,41.635Zm6.943-1.56v8.357a2.835,2.835,0,0,1-.7,2.04,2.645,2.645,0,0,1-2.007.729,4.3,4.3,0,0,1-1.047-.125V49.4a3.973,3.973,0,0,0,.667.066q.959,0,.959-1.018V40.075ZM29.7,38.024a1.042,1.042,0,0,1,.319-.784,1.378,1.378,0,0,1,1.736,0,1.123,1.123,0,0,1-.007,1.575,1.358,1.358,0,0,1-1.721,0A1.039,1.039,0,0,1,29.7,38.024Zm7.6,10.122a3.89,3.89,0,0,1-2.838-1.069,3.8,3.8,0,0,1-1.095-2.849v-.205a4.787,4.787,0,0,1,.461-2.135,3.386,3.386,0,0,1,1.307-1.45,3.669,3.669,0,0,1,1.93-.509,3.289,3.289,0,0,1,2.56,1.025,4.167,4.167,0,0,1,.934,2.908v.864H35.508a1.966,1.966,0,0,0,.619,1.245,1.871,1.871,0,0,0,1.307.469,2.285,2.285,0,0,0,1.912-.886l1.04,1.165A3.178,3.178,0,0,1,39.1,47.769,4.229,4.229,0,0,1,37.3,48.146Zm-.242-6.511a1.323,1.323,0,0,0-1.022.427,2.209,2.209,0,0,0-.5,1.221h2.944v-.169a1.576,1.576,0,0,0-.381-1.092A1.365,1.365,0,0,0,37.054,41.635Zm8,4.8A1.388,1.388,0,0,0,46,46.118a1.129,1.129,0,0,0,.381-.857H48.37a2.715,2.715,0,0,1-.439,1.476,2.9,2.9,0,0,1-1.183,1.04,3.7,3.7,0,0,1-1.659.37,3.44,3.44,0,0,1-2.681-1.08,4.275,4.275,0,0,1-.981-2.985v-.139A4.226,4.226,0,0,1,42.4,41.02a3.4,3.4,0,0,1,2.673-1.091,3.333,3.333,0,0,1,2.384.846,3,3,0,0,1,.912,2.252H46.385A1.455,1.455,0,0,0,46,42.022a1.416,1.416,0,0,0-2.084.153,3.125,3.125,0,0,0-.377,1.749v.22a3.164,3.164,0,0,0,.374,1.761A1.291,1.291,0,0,0,45.052,46.44Zm9.272.754a2.654,2.654,0,0,1-2.168.952,2.5,2.5,0,0,1-1.945-.732,3.127,3.127,0,0,1-.685-2.146V40.075h2.117V45.2q0,1.239,1.128,1.239a1.528,1.528,0,0,0,1.479-.748V40.075h2.124V48H54.383Zm6.943-.754a1.388,1.388,0,0,0,.952-.322,1.129,1.129,0,0,0,.381-.857h1.985a2.715,2.715,0,0,1-.439,1.476,2.9,2.9,0,0,1-1.183,1.04,3.7,3.7,0,0,1-1.659.37,3.44,3.44,0,0,1-2.681-1.08,4.275,4.275,0,0,1-.981-2.985v-.139a4.226,4.226,0,0,1,.974-2.922,3.4,3.4,0,0,1,2.673-1.091,3.333,3.333,0,0,1,2.384.846,3,3,0,0,1,.912,2.252H62.6a1.455,1.455,0,0,0-.381-1.005,1.416,1.416,0,0,0-2.084.153,3.125,3.125,0,0,0-.377,1.749v.22a3.164,3.164,0,0,0,.374,1.761A1.291,1.291,0,0,0,61.268,46.44ZM68.028,48H65.9V40.075h2.124Zm-2.249-9.976a1.042,1.042,0,0,1,.319-.784,1.373,1.373,0,0,1,1.732,0,1.118,1.118,0,0,1,0,1.575,1.358,1.358,0,0,1-1.721,0A1.039,1.039,0,0,1,65.779,38.024Zm3.662,5.94a4.7,4.7,0,0,1,.454-2.1A3.324,3.324,0,0,1,71.2,40.434a3.814,3.814,0,0,1,1.981-.505,3.609,3.609,0,0,1,2.618.981,3.939,3.939,0,0,1,1.132,2.666l.015.542a4.142,4.142,0,0,1-1.018,2.926,3.946,3.946,0,0,1-5.468,0,4.215,4.215,0,0,1-1.022-2.988Zm2.117.15a2.962,2.962,0,0,0,.425,1.727,1.526,1.526,0,0,0,2.417.007,3.241,3.241,0,0,0,.432-1.889,2.933,2.933,0,0,0-.432-1.716,1.4,1.4,0,0,0-1.216-.609,1.382,1.382,0,0,0-1.2.605A3.3,3.3,0,0,0,71.558,44.115ZM73.6,36.75h2.307L73.88,39.021H72.159Zm6.6,3.325.066.916a2.767,2.767,0,0,1,2.278-1.062,2.3,2.3,0,0,1,1.875.74,3.451,3.451,0,0,1,.63,2.212V48H82.933V42.932a1.373,1.373,0,0,0-.293-.978,1.312,1.312,0,0,0-.974-.3,1.456,1.456,0,0,0-1.34.762V48H78.208V40.075Zm7,10.6L86.1,50.095l.264-.476a3.806,3.806,0,0,0,.505-1.78V46.2h1.787l-.007,1.465a3.805,3.805,0,0,1-.41,1.641A4.206,4.206,0,0,1,87.2,50.673ZM13.909,61.415l1.472-5.339h2.212L14.92,64H12.9l-2.673-7.925h2.212Zm8.262,2.732a3.89,3.89,0,0,1-2.838-1.069,3.8,3.8,0,0,1-1.095-2.849v-.205a4.787,4.787,0,0,1,.461-2.135,3.386,3.386,0,0,1,1.307-1.45,3.669,3.669,0,0,1,1.93-.509,3.289,3.289,0,0,1,2.56,1.025,4.167,4.167,0,0,1,.934,2.908v.864H20.384A1.966,1.966,0,0,0,21,61.971a1.871,1.871,0,0,0,1.307.469,2.285,2.285,0,0,0,1.912-.886l1.04,1.165a3.178,3.178,0,0,1-1.289,1.051A4.229,4.229,0,0,1,22.171,64.146Zm-.242-6.511a1.323,1.323,0,0,0-1.022.427,2.209,2.209,0,0,0-.5,1.221H23.35v-.169a1.576,1.576,0,0,0-.381-1.092A1.365,1.365,0,0,0,21.929,57.635Zm9.155.425A5.75,5.75,0,0,0,30.323,58a1.55,1.55,0,0,0-1.575.813V64H26.631V56.075h2l.059.945a1.961,1.961,0,0,1,1.765-1.091,2.218,2.218,0,0,1,.659.1ZM34.336,64H32.212V56.075h2.124Zm-2.249-9.976a1.042,1.042,0,0,1,.319-.784,1.373,1.373,0,0,1,1.732,0,1.118,1.118,0,0,1,0,1.575,1.358,1.358,0,0,1-1.721,0A1.039,1.039,0,0,1,32.088,54.024ZM36.592,64V57.628H35.413V56.075h1.179v-.366a2.972,2.972,0,0,1,.919-2.3,3.7,3.7,0,0,1,2.552-.809,8.466,8.466,0,0,1,2.4.432l-.308,1.75a9.373,9.373,0,0,0-1.113-.275,5.47,5.47,0,0,0-.85-.062q-1.479,0-1.479,1.311v.322h1.56v1.553h-1.56V64Zm6.863,0H41.331V56.075h2.124ZM48.5,62.44a1.388,1.388,0,0,0,.952-.322,1.129,1.129,0,0,0,.381-.857h1.985a2.715,2.715,0,0,1-.439,1.476,2.9,2.9,0,0,1-1.183,1.04,3.7,3.7,0,0,1-1.659.37,3.44,3.44,0,0,1-2.681-1.08,4.275,4.275,0,0,1-.981-2.985v-.139a4.226,4.226,0,0,1,.974-2.922,3.4,3.4,0,0,1,2.673-1.091,3.333,3.333,0,0,1,2.384.846,3,3,0,0,1,.912,2.252H49.834a1.455,1.455,0,0,0-.381-1.005,1.416,1.416,0,0,0-2.084.153,3.125,3.125,0,0,0-.377,1.749v.22a3.164,3.164,0,0,0,.374,1.761A1.291,1.291,0,0,0,48.5,62.44ZM57.62,64a2.351,2.351,0,0,1-.212-.71,2.561,2.561,0,0,1-2,.857,2.814,2.814,0,0,1-1.93-.674,2.167,2.167,0,0,1-.765-1.7,2.24,2.24,0,0,1,.934-1.934,4.608,4.608,0,0,1,2.7-.681h.974V58.7a1.306,1.306,0,0,0-.282-.879,1.109,1.109,0,0,0-.89-.33,1.261,1.261,0,0,0-.839.256.871.871,0,0,0-.3.7H52.889a2.126,2.126,0,0,1,.425-1.274,2.808,2.808,0,0,1,1.2-.919,4.378,4.378,0,0,1,1.743-.333,3.459,3.459,0,0,1,2.325.736,2.575,2.575,0,0,1,.861,2.069v3.435a3.789,3.789,0,0,0,.315,1.707V64Zm-1.75-1.472a1.823,1.823,0,0,0,.864-.209,1.371,1.371,0,0,0,.586-.56V60.4h-.791q-1.589,0-1.692,1.1l-.007.125a.847.847,0,0,0,.278.652A1.081,1.081,0,0,0,55.87,62.528Zm8.5-.088a1.388,1.388,0,0,0,.952-.322,1.129,1.129,0,0,0,.381-.857h1.985a2.715,2.715,0,0,1-.439,1.476,2.9,2.9,0,0,1-1.183,1.04,3.7,3.7,0,0,1-1.659.37,3.44,3.44,0,0,1-2.681-1.08,4.275,4.275,0,0,1-.981-2.985v-.139a4.226,4.226,0,0,1,.974-2.922,3.4,3.4,0,0,1,2.673-1.091,3.333,3.333,0,0,1,2.384.846,3,3,0,0,1,.912,2.252H65.7a1.455,1.455,0,0,0-.381-1.005,1.416,1.416,0,0,0-2.084.153,3.125,3.125,0,0,0-.377,1.749v.22A3.164,3.164,0,0,0,63.23,61.9,1.291,1.291,0,0,0,64.366,62.44ZM71.126,64H69V56.075h2.124Zm-2.249-9.976a1.042,1.042,0,0,1,.319-.784,1.373,1.373,0,0,1,1.732,0,1.118,1.118,0,0,1,0,1.575,1.358,1.358,0,0,1-1.721,0A1.039,1.039,0,0,1,68.877,54.024Zm3.662,5.94a4.7,4.7,0,0,1,.454-2.1A3.324,3.324,0,0,1,74.3,56.434a3.814,3.814,0,0,1,1.981-.505,3.609,3.609,0,0,1,2.618.981,3.939,3.939,0,0,1,1.132,2.666l.015.542a4.142,4.142,0,0,1-1.018,2.926,3.946,3.946,0,0,1-5.468,0A4.215,4.215,0,0,1,72.54,60.06Zm2.117.15a2.962,2.962,0,0,0,.425,1.727,1.526,1.526,0,0,0,2.417.007,3.241,3.241,0,0,0,.432-1.889,2.933,2.933,0,0,0-.432-1.716,1.4,1.4,0,0,0-1.216-.609,1.382,1.382,0,0,0-1.2.605A3.3,3.3,0,0,0,74.656,60.115ZM76.7,52.75h2.307l-2.029,2.271H75.257Zm6.6,3.325.066.916a2.767,2.767,0,0,1,2.278-1.062,2.3,2.3,0,0,1,1.875.74,3.451,3.451,0,0,1,.63,2.212V64H86.031V58.932a1.373,1.373,0,0,0-.293-.978,1.312,1.312,0,0,0-.974-.3,1.456,1.456,0,0,0-1.34.762V64H81.307V56.075ZM96.446,61l1.465-4.929h2.271L97,65.23l-.176.417A2.416,2.416,0,0,1,94.476,67.2a3.33,3.33,0,0,1-.937-.139v-1.6l.322.007a1.741,1.741,0,0,0,.9-.183,1.2,1.2,0,0,0,.465-.608l.249-.652L92.7,56.075h2.278ZM31.938,72.075l.066.886a2.785,2.785,0,0,1,2.278-1.033,2.114,2.114,0,0,1,2.1,1.208,2.721,2.721,0,0,1,2.38-1.208,2.364,2.364,0,0,1,1.919.751,3.451,3.451,0,0,1,.63,2.26V80H39.189V74.946a1.509,1.509,0,0,0-.264-.985,1.169,1.169,0,0,0-.93-.311,1.321,1.321,0,0,0-1.318.908L36.684,80H34.567V74.954a1.491,1.491,0,0,0-.271-1,1.18,1.18,0,0,0-.923-.308,1.372,1.372,0,0,0-1.3.747V80H29.953V72.075Zm14.648,8.071a3.89,3.89,0,0,1-2.838-1.069,3.8,3.8,0,0,1-1.095-2.849v-.205a4.787,4.787,0,0,1,.461-2.135,3.386,3.386,0,0,1,1.307-1.45,3.669,3.669,0,0,1,1.93-.509,3.289,3.289,0,0,1,2.56,1.025,4.167,4.167,0,0,1,.934,2.908v.864H44.8a1.966,1.966,0,0,0,.619,1.245,1.871,1.871,0,0,0,1.307.469,2.285,2.285,0,0,0,1.912-.886l1.04,1.165a3.178,3.178,0,0,1-1.289,1.051A4.229,4.229,0,0,1,46.586,80.146Zm-.242-6.511a1.323,1.323,0,0,0-1.022.427,2.209,2.209,0,0,0-.5,1.221h2.944v-.169a1.576,1.576,0,0,0-.381-1.092A1.365,1.365,0,0,0,46.344,73.635Zm6.943-1.56v8.357a2.835,2.835,0,0,1-.7,2.04,2.645,2.645,0,0,1-2.007.729,4.3,4.3,0,0,1-1.047-.125V81.4a3.973,3.973,0,0,0,.667.066q.959,0,.959-1.018V72.075ZM51,70.024a1.042,1.042,0,0,1,.319-.784,1.378,1.378,0,0,1,1.736,0,1.123,1.123,0,0,1-.007,1.575,1.358,1.358,0,0,1-1.721,0A1.039,1.039,0,0,1,51,70.024Zm3.618,5.94a4.7,4.7,0,0,1,.454-2.1,3.324,3.324,0,0,1,1.307-1.428,3.814,3.814,0,0,1,1.981-.505,3.609,3.609,0,0,1,2.618.981,3.939,3.939,0,0,1,1.132,2.666l.015.542A4.142,4.142,0,0,1,61.1,79.044a3.946,3.946,0,0,1-5.468,0,4.215,4.215,0,0,1-1.022-2.988Zm2.117.15a2.962,2.962,0,0,0,.425,1.727,1.526,1.526,0,0,0,2.417.007A3.241,3.241,0,0,0,60,75.961a2.933,2.933,0,0,0-.432-1.716,1.4,1.4,0,0,0-1.216-.609,1.382,1.382,0,0,0-1.2.605A3.3,3.3,0,0,0,56.73,76.115ZM67.878,74.06A5.751,5.751,0,0,0,67.116,74a1.55,1.55,0,0,0-1.575.813V80H63.425V72.075h2l.059.945a1.961,1.961,0,0,1,1.765-1.091,2.218,2.218,0,0,1,.659.1ZM73.268,80a2.351,2.351,0,0,1-.212-.71,2.561,2.561,0,0,1-2,.857,2.814,2.814,0,0,1-1.93-.674,2.167,2.167,0,0,1-.765-1.7,2.24,2.24,0,0,1,.934-1.934,4.608,4.608,0,0,1,2.7-.681h.974V74.7a1.306,1.306,0,0,0-.282-.879,1.109,1.109,0,0,0-.89-.33,1.261,1.261,0,0,0-.839.256.871.871,0,0,0-.3.7H68.537a2.126,2.126,0,0,1,.425-1.274,2.808,2.808,0,0,1,1.2-.919,4.378,4.378,0,0,1,1.743-.333,3.459,3.459,0,0,1,2.325.736,2.575,2.575,0,0,1,.861,2.069v3.435a3.789,3.789,0,0,0,.315,1.707V80Zm-1.75-1.472a1.823,1.823,0,0,0,.864-.209,1.371,1.371,0,0,0,.586-.56V76.4h-.791q-1.589,0-1.692,1.1l-.007.125a.847.847,0,0,0,.278.652A1.081,1.081,0,0,0,71.518,78.528Zm8.848-2.7a10.666,10.666,0,0,1-.476,3.186,8.648,8.648,0,0,1-1.37,2.7,4.935,4.935,0,0,1-1.912,1.611l-.41-1.121a5.15,5.15,0,0,0,1.641-2.417,11.192,11.192,0,0,0,.623-3.757v-.388a11.445,11.445,0,0,0-.6-3.86,5.369,5.369,0,0,0-1.666-2.5l.41-1.121a4.936,4.936,0,0,1,1.879,1.567,8.537,8.537,0,0,1,1.37,2.644,10.59,10.59,0,0,1,.509,3.127Z" transform="translate(392.119 715.38)" fill="#12263f"/>
    <path id="Trazado_199665" data-name="Trazado 199665" d="M10.815,12.448a3.774,3.774,0,0,1-1.271,2.71,4.463,4.463,0,0,1-3.021.989A4.013,4.013,0,0,1,3.3,14.766a5.661,5.661,0,0,1-1.176-3.79v-.652a6.393,6.393,0,0,1,.542-2.71,4.062,4.062,0,0,1,1.549-1.8,4.339,4.339,0,0,1,2.34-.626,4.348,4.348,0,0,1,2.974.989,4.055,4.055,0,0,1,1.3,2.776h-2.2a2.227,2.227,0,0,0-.575-1.5,2.129,2.129,0,0,0-1.505-.465,1.867,1.867,0,0,0-1.644.787,4.413,4.413,0,0,0-.56,2.443v.806a4.723,4.723,0,0,0,.524,2.527,1.832,1.832,0,0,0,1.652.8,2.169,2.169,0,0,0,1.52-.465,2.1,2.1,0,0,0,.575-1.439Zm5.757-2.388A5.751,5.751,0,0,0,15.81,10a1.55,1.55,0,0,0-1.575.813V16H12.118V8.075h2l.059.945a1.961,1.961,0,0,1,1.765-1.091,2.218,2.218,0,0,1,.659.1ZM19.823,16H17.7V8.075h2.124ZM17.575,6.024a1.042,1.042,0,0,1,.319-.784,1.373,1.373,0,0,1,1.732,0,1.036,1.036,0,0,1,.322.784,1.039,1.039,0,0,1-.326.791,1.358,1.358,0,0,1-1.721,0A1.039,1.039,0,0,1,17.575,6.024Zm6.526.1V8.075h1.355V9.628H24.1v3.955a.944.944,0,0,0,.168.63.846.846,0,0,0,.645.19,3.376,3.376,0,0,0,.623-.051v1.6a4.358,4.358,0,0,1-1.282.19A2.021,2.021,0,0,1,21.984,13.9V9.628H20.827V8.075h1.157V6.127Zm6.182,10.02a3.89,3.89,0,0,1-2.838-1.069,3.8,3.8,0,0,1-1.095-2.849v-.205a4.787,4.787,0,0,1,.461-2.135,3.386,3.386,0,0,1,1.307-1.45,3.669,3.669,0,0,1,1.93-.509,3.289,3.289,0,0,1,2.56,1.025,4.167,4.167,0,0,1,.934,2.908v.864H28.5a1.966,1.966,0,0,0,.619,1.245,1.871,1.871,0,0,0,1.307.469,2.285,2.285,0,0,0,1.912-.886l1.04,1.165a3.178,3.178,0,0,1-1.289,1.051A4.229,4.229,0,0,1,30.282,16.146Zm-.242-6.511a1.323,1.323,0,0,0-1.022.427,2.209,2.209,0,0,0-.5,1.221h2.944v-.169a1.576,1.576,0,0,0-.381-1.092A1.365,1.365,0,0,0,30.041,9.635Zm9.155.425A5.751,5.751,0,0,0,38.434,10a1.55,1.55,0,0,0-1.575.813V16H34.743V8.075h2l.059.945a1.961,1.961,0,0,1,1.765-1.091,2.218,2.218,0,0,1,.659.1ZM42.448,16H40.324V8.075h2.124ZM40.2,6.024a1.042,1.042,0,0,1,.319-.784,1.373,1.373,0,0,1,1.732,0,1.036,1.036,0,0,1,.322.784,1.039,1.039,0,0,1-.326.791,1.358,1.358,0,0,1-1.721,0A1.039,1.039,0,0,1,40.2,6.024Zm3.662,5.94a4.7,4.7,0,0,1,.454-2.1,3.324,3.324,0,0,1,1.307-1.428A3.814,3.814,0,0,1,47.6,7.929a3.609,3.609,0,0,1,2.618.981,3.939,3.939,0,0,1,1.132,2.666l.015.542a4.142,4.142,0,0,1-1.018,2.926,3.946,3.946,0,0,1-5.468,0,4.215,4.215,0,0,1-1.022-2.988Zm2.117.15a2.962,2.962,0,0,0,.425,1.727,1.526,1.526,0,0,0,2.417.007,3.241,3.241,0,0,0,.432-1.889,2.933,2.933,0,0,0-.432-1.716A1.4,1.4,0,0,0,47.6,9.635a1.382,1.382,0,0,0-1.2.605A3.3,3.3,0,0,0,45.978,12.115Zm10.986,1.7a.682.682,0,0,0-.385-.612,4.368,4.368,0,0,0-1.234-.4q-2.827-.593-2.827-2.4a2.178,2.178,0,0,1,.875-1.761,3.531,3.531,0,0,1,2.289-.707,3.8,3.8,0,0,1,2.413.71,2.239,2.239,0,0,1,.9,1.846H56.884a1.024,1.024,0,0,0-.293-.751,1.24,1.24,0,0,0-.916-.3,1.267,1.267,0,0,0-.828.242.763.763,0,0,0-.293.615.652.652,0,0,0,.333.568,3.428,3.428,0,0,0,1.124.374,9.183,9.183,0,0,1,1.333.355,2.19,2.19,0,0,1,1.677,2.131,2.067,2.067,0,0,1-.93,1.754,4.013,4.013,0,0,1-2.4.67,4.191,4.191,0,0,1-1.769-.355,2.968,2.968,0,0,1-1.212-.974,2.263,2.263,0,0,1-.439-1.337h2.007a1.105,1.105,0,0,0,.417.864,1.656,1.656,0,0,0,1.04.3,1.533,1.533,0,0,0,.919-.231A.718.718,0,0,0,56.965,13.81Zm14.29-1.7a4.753,4.753,0,0,1-.831,2.933,2.665,2.665,0,0,1-2.245,1.1,2.469,2.469,0,0,1-1.941-.835v3.735H64.12V8.075h1.963l.073.776a2.488,2.488,0,0,1,2.007-.923,2.683,2.683,0,0,1,2.278,1.084A4.882,4.882,0,0,1,71.254,12Zm-2.117-.154a3.119,3.119,0,0,0-.392-1.707,1.276,1.276,0,0,0-1.139-.6,1.386,1.386,0,0,0-1.37.762v3.245a1.41,1.41,0,0,0,1.384.784Q69.137,14.44,69.137,11.957ZM77.157,16a2.351,2.351,0,0,1-.212-.71,2.561,2.561,0,0,1-2,.857,2.814,2.814,0,0,1-1.93-.674,2.167,2.167,0,0,1-.765-1.7,2.24,2.24,0,0,1,.934-1.934,4.608,4.608,0,0,1,2.7-.681h.974V10.7a1.306,1.306,0,0,0-.282-.879,1.109,1.109,0,0,0-.89-.33,1.261,1.261,0,0,0-.839.256.871.871,0,0,0-.3.7H72.426a2.126,2.126,0,0,1,.425-1.274,2.808,2.808,0,0,1,1.2-.919A4.378,4.378,0,0,1,75.8,7.929a3.459,3.459,0,0,1,2.325.736,2.575,2.575,0,0,1,.861,2.069v3.435a3.789,3.789,0,0,0,.315,1.707V16Zm-1.75-1.472a1.823,1.823,0,0,0,.864-.209,1.371,1.371,0,0,0,.586-.56V12.4h-.791q-1.589,0-1.692,1.1l-.007.125a.847.847,0,0,0,.278.652A1.081,1.081,0,0,0,75.407,14.528ZM85.06,10.06A5.751,5.751,0,0,0,84.3,10a1.55,1.55,0,0,0-1.575.813V16H80.607V8.075h2l.059.945A1.961,1.961,0,0,1,84.43,7.929a2.218,2.218,0,0,1,.659.1ZM90.451,16a2.351,2.351,0,0,1-.212-.71,2.561,2.561,0,0,1-2,.857,2.814,2.814,0,0,1-1.93-.674,2.167,2.167,0,0,1-.765-1.7,2.24,2.24,0,0,1,.934-1.934,4.608,4.608,0,0,1,2.7-.681h.974V10.7a1.306,1.306,0,0,0-.282-.879,1.109,1.109,0,0,0-.89-.33,1.261,1.261,0,0,0-.839.256.871.871,0,0,0-.3.7H85.719a2.126,2.126,0,0,1,.425-1.274,2.808,2.808,0,0,1,1.2-.919,4.378,4.378,0,0,1,1.743-.333,3.459,3.459,0,0,1,2.325.736,2.575,2.575,0,0,1,.861,2.069v3.435a3.789,3.789,0,0,0,.315,1.707V16ZM88.7,14.528a1.823,1.823,0,0,0,.864-.209,1.371,1.371,0,0,0,.586-.56V12.4H89.36q-1.589,0-1.692,1.1l-.007.125a.847.847,0,0,0,.278.652A1.081,1.081,0,0,0,88.7,14.528ZM99.87,16H97.746V4.75H99.87Zm6.335,0a2.351,2.351,0,0,1-.212-.71,2.561,2.561,0,0,1-2,.857,2.814,2.814,0,0,1-1.93-.674,2.167,2.167,0,0,1-.765-1.7,2.24,2.24,0,0,1,.934-1.934,4.608,4.608,0,0,1,2.7-.681h.974V10.7a1.306,1.306,0,0,0-.282-.879,1.109,1.109,0,0,0-.89-.33,1.261,1.261,0,0,0-.839.256.871.871,0,0,0-.3.7h-2.117a2.126,2.126,0,0,1,.425-1.274,2.808,2.808,0,0,1,1.2-.919,4.378,4.378,0,0,1,1.743-.333,3.459,3.459,0,0,1,2.325.736,2.575,2.575,0,0,1,.861,2.069v3.435a3.789,3.789,0,0,0,.315,1.707V16Zm-1.75-1.472a1.823,1.823,0,0,0,.864-.209,1.371,1.371,0,0,0,.586-.56V12.4h-.791q-1.589,0-1.692,1.1l-.007.125a.847.847,0,0,0,.278.652A1.081,1.081,0,0,0,104.455,14.528ZM7,27.979a4.776,4.776,0,0,1,.831-2.952,2.7,2.7,0,0,1,2.274-1.1,2.427,2.427,0,0,1,1.912.864V20.75h2.124V32H12.232l-.1-.842a2.491,2.491,0,0,1-2.036.989,2.69,2.69,0,0,1-2.245-1.1A4.93,4.93,0,0,1,7,27.979Zm2.117.158a3.128,3.128,0,0,0,.388,1.709,1.265,1.265,0,0,0,1.128.594,1.416,1.416,0,0,0,1.384-.829V26.479a1.4,1.4,0,0,0-1.37-.829Q9.119,25.65,9.119,28.137Zm10.313,4.01a3.89,3.89,0,0,1-2.838-1.069A3.8,3.8,0,0,1,15.5,28.228v-.205a4.787,4.787,0,0,1,.461-2.135,3.386,3.386,0,0,1,1.307-1.45,3.669,3.669,0,0,1,1.93-.509,3.289,3.289,0,0,1,2.56,1.025,4.167,4.167,0,0,1,.934,2.908v.864H17.644a1.966,1.966,0,0,0,.619,1.245,1.871,1.871,0,0,0,1.307.469,2.285,2.285,0,0,0,1.912-.886l1.04,1.165a3.178,3.178,0,0,1-1.289,1.051A4.229,4.229,0,0,1,19.432,32.146Zm-.242-6.511a1.323,1.323,0,0,0-1.022.427,2.209,2.209,0,0,0-.5,1.221h2.944v-.169a1.576,1.576,0,0,0-.381-1.092A1.365,1.365,0,0,0,19.19,25.635Zm7.236-3.508v1.948h1.355v1.553H26.426v3.955a.944.944,0,0,0,.168.63.846.846,0,0,0,.645.19,3.376,3.376,0,0,0,.623-.051v1.6a4.358,4.358,0,0,1-1.282.19A2.021,2.021,0,0,1,24.31,29.9v-4.27H23.152V24.075H24.31V22.127Zm6.182,10.02a3.89,3.89,0,0,1-2.838-1.069,3.8,3.8,0,0,1-1.095-2.849v-.205a4.787,4.787,0,0,1,.461-2.135,3.386,3.386,0,0,1,1.307-1.45,3.669,3.669,0,0,1,1.93-.509,3.289,3.289,0,0,1,2.56,1.025,4.167,4.167,0,0,1,.934,2.908v.864H30.821a1.966,1.966,0,0,0,.619,1.245,1.871,1.871,0,0,0,1.307.469,2.285,2.285,0,0,0,1.912-.886l1.04,1.165a3.178,3.178,0,0,1-1.289,1.051A4.229,4.229,0,0,1,32.608,32.146Zm-.242-6.511a1.323,1.323,0,0,0-1.022.427,2.209,2.209,0,0,0-.5,1.221h2.944v-.169a1.576,1.576,0,0,0-.381-1.092A1.365,1.365,0,0,0,32.366,25.635Zm9.155.425A5.75,5.75,0,0,0,40.76,26a1.55,1.55,0,0,0-1.575.813V32H37.068V24.075h2l.059.945a1.961,1.961,0,0,1,1.765-1.091,2.218,2.218,0,0,1,.659.1Zm3-1.985.066.886a2.785,2.785,0,0,1,2.278-1.033,2.114,2.114,0,0,1,2.1,1.208,2.721,2.721,0,0,1,2.38-1.208,2.364,2.364,0,0,1,1.919.751,3.451,3.451,0,0,1,.63,2.26V32H51.775V26.946a1.509,1.509,0,0,0-.264-.985,1.169,1.169,0,0,0-.93-.311,1.321,1.321,0,0,0-1.318.908L49.27,32H47.154V26.954a1.491,1.491,0,0,0-.271-1,1.18,1.18,0,0,0-.923-.308,1.372,1.372,0,0,0-1.3.747V32H42.54V24.075ZM57.759,32H55.635V24.075h2.124Zm-2.249-9.976a1.042,1.042,0,0,1,.319-.784,1.373,1.373,0,0,1,1.732,0,1.118,1.118,0,0,1,0,1.575,1.358,1.358,0,0,1-1.721,0A1.039,1.039,0,0,1,55.511,22.024Zm5.94,2.051.066.916a2.767,2.767,0,0,1,2.278-1.062,2.3,2.3,0,0,1,1.875.74,3.451,3.451,0,0,1,.63,2.212V32H64.183V26.932a1.373,1.373,0,0,0-.293-.978,1.312,1.312,0,0,0-.974-.3,1.456,1.456,0,0,0-1.34.762V32H59.458V24.075ZM72.5,32a2.351,2.351,0,0,1-.212-.71,2.561,2.561,0,0,1-2,.857,2.814,2.814,0,0,1-1.93-.674,2.167,2.167,0,0,1-.765-1.7,2.24,2.24,0,0,1,.934-1.934,4.608,4.608,0,0,1,2.7-.681H72.2V26.7a1.306,1.306,0,0,0-.282-.879,1.109,1.109,0,0,0-.89-.33,1.261,1.261,0,0,0-.839.256.871.871,0,0,0-.3.7H67.764a2.126,2.126,0,0,1,.425-1.274,2.808,2.808,0,0,1,1.2-.919,4.378,4.378,0,0,1,1.743-.333,3.459,3.459,0,0,1,2.325.736,2.575,2.575,0,0,1,.861,2.069v3.435a3.789,3.789,0,0,0,.315,1.707V32Zm-1.75-1.472a1.823,1.823,0,0,0,.864-.209,1.371,1.371,0,0,0,.586-.56V28.4H71.4q-1.589,0-1.692,1.1l-.007.125a.847.847,0,0,0,.278.652A1.081,1.081,0,0,0,70.745,30.528Zm8.5-.088a1.388,1.388,0,0,0,.952-.322,1.129,1.129,0,0,0,.381-.857h1.985a2.715,2.715,0,0,1-.439,1.476,2.9,2.9,0,0,1-1.183,1.04,3.7,3.7,0,0,1-1.659.37,3.44,3.44,0,0,1-2.681-1.08,4.275,4.275,0,0,1-.981-2.985v-.139a4.226,4.226,0,0,1,.974-2.922,3.4,3.4,0,0,1,2.673-1.091,3.333,3.333,0,0,1,2.384.846,3,3,0,0,1,.912,2.252H80.574a1.455,1.455,0,0,0-.381-1.005,1.416,1.416,0,0,0-2.084.153,3.125,3.125,0,0,0-.377,1.749v.22a3.164,3.164,0,0,0,.374,1.761A1.291,1.291,0,0,0,79.241,30.44ZM86,32H83.877V24.075H86Zm-2.249-9.976a1.042,1.042,0,0,1,.319-.784,1.373,1.373,0,0,1,1.732,0,1.118,1.118,0,0,1,0,1.575,1.358,1.358,0,0,1-1.721,0A1.039,1.039,0,0,1,83.753,22.024Zm3.662,5.94a4.7,4.7,0,0,1,.454-2.1,3.324,3.324,0,0,1,1.307-1.428,3.814,3.814,0,0,1,1.981-.505,3.609,3.609,0,0,1,2.618.981,3.939,3.939,0,0,1,1.132,2.666l.015.542A4.142,4.142,0,0,1,93.9,31.044a3.946,3.946,0,0,1-5.468,0,4.215,4.215,0,0,1-1.022-2.988Zm2.117.15a2.962,2.962,0,0,0,.425,1.727,1.526,1.526,0,0,0,2.417.007,3.241,3.241,0,0,0,.432-1.889,2.933,2.933,0,0,0-.432-1.716,1.4,1.4,0,0,0-1.216-.609,1.382,1.382,0,0,0-1.2.605A3.3,3.3,0,0,0,89.532,28.115Zm2.043-7.365h2.307l-2.029,2.271H90.132Zm6.6,3.325.066.916a2.767,2.767,0,0,1,2.278-1.062,2.3,2.3,0,0,1,1.875.74,3.451,3.451,0,0,1,.63,2.212V32h-2.117V26.932a1.373,1.373,0,0,0-.293-.978,1.312,1.312,0,0,0-.974-.3,1.456,1.456,0,0,0-1.34.762V32H96.182V24.075Zm-82.258,19.9a4.776,4.776,0,0,1,.831-2.952,2.7,2.7,0,0,1,2.274-1.1,2.427,2.427,0,0,1,1.912.864V36.75h2.124V48H21.145l-.1-.842a2.491,2.491,0,0,1-2.036.989,2.69,2.69,0,0,1-2.245-1.1A4.93,4.93,0,0,1,15.916,43.979Zm2.117.158a3.128,3.128,0,0,0,.388,1.709,1.265,1.265,0,0,0,1.128.594,1.416,1.416,0,0,0,1.384-.829V42.479a1.4,1.4,0,0,0-1.37-.829Q18.033,41.65,18.033,44.137Zm10.313,4.01a3.89,3.89,0,0,1-2.838-1.069,3.8,3.8,0,0,1-1.095-2.849v-.205a4.787,4.787,0,0,1,.461-2.135,3.386,3.386,0,0,1,1.307-1.45,3.669,3.669,0,0,1,1.93-.509,3.289,3.289,0,0,1,2.56,1.025,4.167,4.167,0,0,1,.934,2.908v.864H26.558a1.966,1.966,0,0,0,.619,1.245,1.871,1.871,0,0,0,1.307.469,2.285,2.285,0,0,0,1.912-.886l1.04,1.165a3.178,3.178,0,0,1-1.289,1.051A4.229,4.229,0,0,1,28.345,48.146ZM28.1,41.635a1.323,1.323,0,0,0-1.022.427,2.209,2.209,0,0,0-.5,1.221h2.944v-.169a1.576,1.576,0,0,0-.381-1.092A1.365,1.365,0,0,0,28.1,41.635Zm12.891.425A5.75,5.75,0,0,0,40.232,42a1.55,1.55,0,0,0-1.575.813V48H36.541V40.075h2l.059.945a1.961,1.961,0,0,1,1.765-1.091,2.218,2.218,0,0,1,.659.1Zm4.666,6.086a3.89,3.89,0,0,1-2.838-1.069,3.8,3.8,0,0,1-1.095-2.849v-.205a4.787,4.787,0,0,1,.461-2.135,3.386,3.386,0,0,1,1.307-1.45,3.669,3.669,0,0,1,1.93-.509,3.289,3.289,0,0,1,2.56,1.025,4.167,4.167,0,0,1,.934,2.908v.864H43.873a1.966,1.966,0,0,0,.619,1.245,1.871,1.871,0,0,0,1.307.469,2.285,2.285,0,0,0,1.912-.886l1.04,1.165a3.178,3.178,0,0,1-1.289,1.051A4.229,4.229,0,0,1,45.66,48.146Zm-.242-6.511a1.323,1.323,0,0,0-1.022.427,2.209,2.209,0,0,0-.5,1.221h2.944v-.169a1.576,1.576,0,0,0-.381-1.092A1.365,1.365,0,0,0,45.418,41.635Zm8,4.8a1.388,1.388,0,0,0,.952-.322,1.129,1.129,0,0,0,.381-.857h1.985a2.715,2.715,0,0,1-.439,1.476,2.9,2.9,0,0,1-1.183,1.04,3.7,3.7,0,0,1-1.659.37,3.44,3.44,0,0,1-2.681-1.08,4.275,4.275,0,0,1-.981-2.985v-.139a4.226,4.226,0,0,1,.974-2.922,3.4,3.4,0,0,1,2.673-1.091,3.333,3.333,0,0,1,2.384.846,3,3,0,0,1,.912,2.252H54.749a1.455,1.455,0,0,0-.381-1.005,1.416,1.416,0,0,0-2.084.153,3.125,3.125,0,0,0-.377,1.749v.22a3.164,3.164,0,0,0,.374,1.761A1.291,1.291,0,0,0,53.416,46.44Zm9.272.754a2.654,2.654,0,0,1-2.168.952,2.5,2.5,0,0,1-1.945-.732,3.127,3.127,0,0,1-.685-2.146V40.075h2.117V45.2q0,1.239,1.128,1.239a1.528,1.528,0,0,0,1.479-.748V40.075h2.124V48H62.747Zm8.1-5.134A5.75,5.75,0,0,0,70.027,42a1.55,1.55,0,0,0-1.575.813V48H66.336V40.075h2l.059.945a1.961,1.961,0,0,1,1.765-1.091,2.218,2.218,0,0,1,.659.1Zm5.31,3.75a.682.682,0,0,0-.385-.612,4.368,4.368,0,0,0-1.234-.4q-2.827-.593-2.827-2.4a2.178,2.178,0,0,1,.875-1.761,3.531,3.531,0,0,1,2.289-.707,3.8,3.8,0,0,1,2.413.71,2.239,2.239,0,0,1,.9,1.846H76.019a1.024,1.024,0,0,0-.293-.751,1.24,1.24,0,0,0-.916-.3,1.267,1.267,0,0,0-.828.242.763.763,0,0,0-.293.615.652.652,0,0,0,.333.568,3.428,3.428,0,0,0,1.124.374,9.183,9.183,0,0,1,1.333.355,2.19,2.19,0,0,1,1.677,2.131,2.067,2.067,0,0,1-.93,1.754,4.013,4.013,0,0,1-2.4.67,4.191,4.191,0,0,1-1.769-.355,2.968,2.968,0,0,1-1.212-.974A2.263,2.263,0,0,1,71.4,45.48h2.007a1.105,1.105,0,0,0,.417.864,1.656,1.656,0,0,0,1.04.3,1.533,1.533,0,0,0,.919-.231A.718.718,0,0,0,76.1,45.81Zm3.091-1.846a4.7,4.7,0,0,1,.454-2.1,3.324,3.324,0,0,1,1.307-1.428,3.814,3.814,0,0,1,1.981-.505,3.609,3.609,0,0,1,2.618.981,3.939,3.939,0,0,1,1.132,2.666l.015.542a4.142,4.142,0,0,1-1.018,2.926,3.946,3.946,0,0,1-5.468,0A4.215,4.215,0,0,1,79.19,44.06Zm2.117.15a2.962,2.962,0,0,0,.425,1.727,1.526,1.526,0,0,0,2.417.007,3.241,3.241,0,0,0,.432-1.889,2.933,2.933,0,0,0-.432-1.716,1.4,1.4,0,0,0-1.216-.609,1.382,1.382,0,0,0-1.2.605A3.3,3.3,0,0,0,81.307,44.115Zm10.986,1.7a.682.682,0,0,0-.385-.612,4.368,4.368,0,0,0-1.234-.4q-2.827-.593-2.827-2.4a2.178,2.178,0,0,1,.875-1.761,3.531,3.531,0,0,1,2.289-.707,3.8,3.8,0,0,1,2.413.71,2.239,2.239,0,0,1,.9,1.846H92.212a1.024,1.024,0,0,0-.293-.751,1.24,1.24,0,0,0-.916-.3,1.267,1.267,0,0,0-.828.242.763.763,0,0,0-.293.615.652.652,0,0,0,.333.568,3.428,3.428,0,0,0,1.124.374,9.183,9.183,0,0,1,1.333.355,2.19,2.19,0,0,1,1.677,2.131,2.067,2.067,0,0,1-.93,1.754,4.013,4.013,0,0,1-2.4.67,4.191,4.191,0,0,1-1.769-.355,2.968,2.968,0,0,1-1.212-.974A2.263,2.263,0,0,1,87.6,45.48H89.6a1.105,1.105,0,0,0,.417.864,1.656,1.656,0,0,0,1.04.3,1.533,1.533,0,0,0,.919-.231A.718.718,0,0,0,92.293,45.81Z" transform="translate(572.229 715.38)" fill="#12263f"/>
    <path id="Trazado_199666" data-name="Trazado 199666" d="M9.549,13.8H5.7L4.964,16H2.627L6.6,5.336H8.633L12.625,16H10.288Zm-3.259-1.78H8.955L7.615,8.031ZM17.774,13.81a.682.682,0,0,0-.385-.612,4.368,4.368,0,0,0-1.234-.4q-2.827-.593-2.827-2.4A2.178,2.178,0,0,1,14.2,8.635a3.531,3.531,0,0,1,2.289-.707,3.8,3.8,0,0,1,2.413.71,2.239,2.239,0,0,1,.9,1.846H17.693a1.024,1.024,0,0,0-.293-.751,1.24,1.24,0,0,0-.916-.3,1.267,1.267,0,0,0-.828.242.763.763,0,0,0-.293.615.652.652,0,0,0,.333.568,3.428,3.428,0,0,0,1.124.374,9.183,9.183,0,0,1,1.333.355,2.19,2.19,0,0,1,1.677,2.131,2.067,2.067,0,0,1-.93,1.754,4.013,4.013,0,0,1-2.4.67,4.191,4.191,0,0,1-1.769-.355,2.968,2.968,0,0,1-1.212-.974,2.263,2.263,0,0,1-.439-1.337h2.007a1.105,1.105,0,0,0,.417.864,1.656,1.656,0,0,0,1.04.3,1.533,1.533,0,0,0,.919-.231A.718.718,0,0,0,17.774,13.81Zm10.554-1.7a4.753,4.753,0,0,1-.831,2.933,2.665,2.665,0,0,1-2.245,1.1,2.469,2.469,0,0,1-1.941-.835v3.735H21.194V8.075h1.963l.073.776a2.488,2.488,0,0,1,2.007-.923,2.683,2.683,0,0,1,2.278,1.084A4.882,4.882,0,0,1,28.328,12Zm-2.117-.154a3.119,3.119,0,0,0-.392-1.707,1.276,1.276,0,0,0-1.139-.6,1.386,1.386,0,0,0-1.37.762v3.245a1.41,1.41,0,0,0,1.384.784Q26.211,14.44,26.211,11.957Zm7.075,4.189a3.89,3.89,0,0,1-2.838-1.069,3.8,3.8,0,0,1-1.095-2.849v-.205a4.787,4.787,0,0,1,.461-2.135,3.386,3.386,0,0,1,1.307-1.45,3.669,3.669,0,0,1,1.93-.509,3.289,3.289,0,0,1,2.56,1.025,4.167,4.167,0,0,1,.934,2.908v.864H31.5a1.966,1.966,0,0,0,.619,1.245,1.871,1.871,0,0,0,1.307.469,2.285,2.285,0,0,0,1.912-.886l1.04,1.165a3.178,3.178,0,0,1-1.289,1.051A4.229,4.229,0,0,1,33.287,16.146Zm-.242-6.511a1.323,1.323,0,0,0-1.022.427,2.209,2.209,0,0,0-.5,1.221h2.944v-.169a1.576,1.576,0,0,0-.381-1.092A1.365,1.365,0,0,0,33.045,9.635Zm8,4.8A1.388,1.388,0,0,0,42,14.118a1.129,1.129,0,0,0,.381-.857h1.985a2.715,2.715,0,0,1-.439,1.476,2.9,2.9,0,0,1-1.183,1.04,3.7,3.7,0,0,1-1.659.37,3.44,3.44,0,0,1-2.681-1.08,4.275,4.275,0,0,1-.981-2.985v-.139a4.226,4.226,0,0,1,.974-2.922,3.4,3.4,0,0,1,2.673-1.091,3.333,3.333,0,0,1,2.384.846,3,3,0,0,1,.912,2.252H42.376A1.455,1.455,0,0,0,42,10.022a1.416,1.416,0,0,0-2.084.153,3.125,3.125,0,0,0-.377,1.749v.22a3.164,3.164,0,0,0,.374,1.761A1.291,1.291,0,0,0,41.043,14.44ZM48.1,6.127V8.075h1.355V9.628H48.1v3.955a.944.944,0,0,0,.168.63.846.846,0,0,0,.645.19,3.376,3.376,0,0,0,.623-.051v1.6a4.358,4.358,0,0,1-1.282.19A2.021,2.021,0,0,1,45.987,13.9V9.628H44.829V8.075h1.157V6.127Zm1.985,5.837a4.7,4.7,0,0,1,.454-2.1A3.324,3.324,0,0,1,51.85,8.434a3.814,3.814,0,0,1,1.981-.505,3.609,3.609,0,0,1,2.618.981,3.939,3.939,0,0,1,1.132,2.666l.015.542a4.142,4.142,0,0,1-1.018,2.926,3.946,3.946,0,0,1-5.468,0,4.215,4.215,0,0,1-1.022-2.988Zm2.117.15a2.962,2.962,0,0,0,.425,1.727,1.526,1.526,0,0,0,2.417.007,3.241,3.241,0,0,0,.432-1.889,2.933,2.933,0,0,0-.432-1.716,1.4,1.4,0,0,0-1.216-.609,1.382,1.382,0,0,0-1.2.605A3.3,3.3,0,0,0,52.2,12.115Zm10.986,1.7a.682.682,0,0,0-.385-.612,4.368,4.368,0,0,0-1.234-.4q-2.827-.593-2.827-2.4a2.178,2.178,0,0,1,.875-1.761,3.531,3.531,0,0,1,2.289-.707,3.8,3.8,0,0,1,2.413.71,2.239,2.239,0,0,1,.9,1.846H63.111a1.024,1.024,0,0,0-.293-.751,1.24,1.24,0,0,0-.916-.3,1.267,1.267,0,0,0-.828.242.763.763,0,0,0-.293.615.652.652,0,0,0,.333.568,3.428,3.428,0,0,0,1.124.374,9.183,9.183,0,0,1,1.333.355,2.19,2.19,0,0,1,1.677,2.131,2.067,2.067,0,0,1-.93,1.754,4.013,4.013,0,0,1-2.4.67,4.191,4.191,0,0,1-1.769-.355,2.968,2.968,0,0,1-1.212-.974A2.263,2.263,0,0,1,58.5,13.48H60.5a1.105,1.105,0,0,0,.417.864,1.656,1.656,0,0,0,1.04.3,1.533,1.533,0,0,0,.919-.231A.718.718,0,0,0,63.191,13.81ZM72.581,16H70.457V4.75h2.124Zm5.391.146a3.89,3.89,0,0,1-2.838-1.069,3.8,3.8,0,0,1-1.095-2.849v-.205A4.787,4.787,0,0,1,74.5,9.888a3.386,3.386,0,0,1,1.307-1.45,3.669,3.669,0,0,1,1.93-.509A3.289,3.289,0,0,1,80.3,8.954a4.167,4.167,0,0,1,.934,2.908v.864H76.184a1.966,1.966,0,0,0,.619,1.245,1.871,1.871,0,0,0,1.307.469,2.285,2.285,0,0,0,1.912-.886l1.04,1.165a3.178,3.178,0,0,1-1.289,1.051A4.229,4.229,0,0,1,77.972,16.146ZM77.73,9.635a1.323,1.323,0,0,0-1.022.427,2.209,2.209,0,0,0-.5,1.221h2.944v-.169a1.576,1.576,0,0,0-.381-1.092A1.365,1.365,0,0,0,77.73,9.635Zm4.395,2.344a4.644,4.644,0,0,1,.868-2.937,2.812,2.812,0,0,1,2.34-1.113,2.466,2.466,0,0,1,2.029.894l.088-.747h1.919v7.661a3.387,3.387,0,0,1-.472,1.809,3.034,3.034,0,0,1-1.329,1.172,4.673,4.673,0,0,1-2.007.4,4.346,4.346,0,0,1-1.7-.348,3.016,3.016,0,0,1-1.252-.9l.938-1.289a2.48,2.48,0,0,0,1.919.886,1.815,1.815,0,0,0,1.311-.45,1.69,1.69,0,0,0,.469-1.278v-.425a2.448,2.448,0,0,1-1.926.828,2.8,2.8,0,0,1-2.311-1.117,4.643,4.643,0,0,1-.883-2.963Zm2.117.158a2.892,2.892,0,0,0,.432,1.691,1.375,1.375,0,0,0,1.187.612,1.47,1.47,0,0,0,1.384-.726V10.376a1.466,1.466,0,0,0-1.37-.726,1.383,1.383,0,0,0-1.2.624A3.26,3.26,0,0,0,84.241,12.137ZM95.586,16a2.351,2.351,0,0,1-.212-.71,2.561,2.561,0,0,1-2,.857,2.814,2.814,0,0,1-1.93-.674,2.167,2.167,0,0,1-.765-1.7,2.24,2.24,0,0,1,.934-1.934,4.608,4.608,0,0,1,2.7-.681h.974V10.7A1.306,1.306,0,0,0,95,9.826a1.109,1.109,0,0,0-.89-.33,1.261,1.261,0,0,0-.839.256.871.871,0,0,0-.3.7H90.855a2.126,2.126,0,0,1,.425-1.274,2.808,2.808,0,0,1,1.2-.919,4.378,4.378,0,0,1,1.743-.333,3.459,3.459,0,0,1,2.325.736,2.575,2.575,0,0,1,.861,2.069v3.435a3.789,3.789,0,0,0,.315,1.707V16Zm-1.75-1.472a1.823,1.823,0,0,0,.864-.209,1.371,1.371,0,0,0,.586-.56V12.4H94.5q-1.589,0-1.692,1.1l-.007.125a.847.847,0,0,0,.278.652A1.081,1.081,0,0,0,93.836,14.528ZM101.27,16H99.146V4.75h2.124Zm5.391.146a3.89,3.89,0,0,1-2.838-1.069,3.8,3.8,0,0,1-1.095-2.849v-.205a4.787,4.787,0,0,1,.461-2.135,3.386,3.386,0,0,1,1.307-1.45,3.669,3.669,0,0,1,1.93-.509,3.289,3.289,0,0,1,2.56,1.025,4.167,4.167,0,0,1,.934,2.908v.864h-5.046a1.966,1.966,0,0,0,.619,1.245,1.871,1.871,0,0,0,1.307.469,2.285,2.285,0,0,0,1.912-.886l1.04,1.165a3.178,3.178,0,0,1-1.289,1.051A4.229,4.229,0,0,1,106.661,16.146Zm-.242-6.511a1.323,1.323,0,0,0-1.022.427,2.209,2.209,0,0,0-.5,1.221h2.944v-.169a1.576,1.576,0,0,0-.381-1.092A1.365,1.365,0,0,0,106.419,9.635Zm8.994,4.175a.682.682,0,0,0-.385-.612,4.368,4.368,0,0,0-1.234-.4q-2.827-.593-2.827-2.4a2.178,2.178,0,0,1,.875-1.761,3.531,3.531,0,0,1,2.289-.707,3.8,3.8,0,0,1,2.413.71,2.239,2.239,0,0,1,.9,1.846h-2.117a1.024,1.024,0,0,0-.293-.751,1.24,1.24,0,0,0-.916-.3,1.267,1.267,0,0,0-.828.242.763.763,0,0,0-.293.615.652.652,0,0,0,.333.568,3.428,3.428,0,0,0,1.124.374,9.183,9.183,0,0,1,1.333.355,2.19,2.19,0,0,1,1.677,2.131,2.067,2.067,0,0,1-.93,1.754,4.013,4.013,0,0,1-2.4.67,4.191,4.191,0,0,1-1.769-.355,2.968,2.968,0,0,1-1.212-.974,2.263,2.263,0,0,1-.439-1.337h2.007a1.105,1.105,0,0,0,.417.864,1.656,1.656,0,0,0,1.04.3,1.533,1.533,0,0,0,.919-.231A.718.718,0,0,0,115.413,13.81Z" transform="translate(931.595 715.38)" fill="#12263f"/>
    <path id="Trazado_199667" data-name="Trazado 199667" d="M16.8,12.448a3.774,3.774,0,0,1-1.271,2.71,4.463,4.463,0,0,1-3.021.989,4.013,4.013,0,0,1-3.226-1.381,5.661,5.661,0,0,1-1.176-3.79v-.652a6.393,6.393,0,0,1,.542-2.71,4.062,4.062,0,0,1,1.549-1.8,4.339,4.339,0,0,1,2.34-.626,4.348,4.348,0,0,1,2.974.989,4.055,4.055,0,0,1,1.3,2.776h-2.2a2.227,2.227,0,0,0-.575-1.5,2.129,2.129,0,0,0-1.505-.465,1.867,1.867,0,0,0-1.644.787,4.413,4.413,0,0,0-.56,2.443v.806a4.723,4.723,0,0,0,.524,2.527,1.832,1.832,0,0,0,1.652.8,2.169,2.169,0,0,0,1.52-.465,2.1,2.1,0,0,0,.575-1.439Zm5.757-2.388A5.751,5.751,0,0,0,21.8,10a1.55,1.55,0,0,0-1.575.813V16H18.105V8.075h2l.059.945a1.961,1.961,0,0,1,1.765-1.091,2.218,2.218,0,0,1,.659.1ZM25.811,16H23.686V8.075h2.124ZM23.562,6.024a1.042,1.042,0,0,1,.319-.784,1.373,1.373,0,0,1,1.732,0,1.036,1.036,0,0,1,.322.784,1.039,1.039,0,0,1-.326.791,1.358,1.358,0,0,1-1.721,0A1.039,1.039,0,0,1,23.562,6.024Zm6.526.1V8.075h1.355V9.628H30.088v3.955a.944.944,0,0,0,.168.63.846.846,0,0,0,.645.19,3.376,3.376,0,0,0,.623-.051v1.6a4.358,4.358,0,0,1-1.282.19A2.021,2.021,0,0,1,27.971,13.9V9.628H26.814V8.075h1.157V6.127Zm6.182,10.02a3.89,3.89,0,0,1-2.838-1.069,3.8,3.8,0,0,1-1.095-2.849v-.205A4.787,4.787,0,0,1,32.8,9.888a3.386,3.386,0,0,1,1.307-1.45,3.669,3.669,0,0,1,1.93-.509,3.289,3.289,0,0,1,2.56,1.025,4.167,4.167,0,0,1,.934,2.908v.864H34.482a1.966,1.966,0,0,0,.619,1.245,1.871,1.871,0,0,0,1.307.469,2.285,2.285,0,0,0,1.912-.886l1.04,1.165a3.178,3.178,0,0,1-1.289,1.051A4.229,4.229,0,0,1,36.269,16.146Zm-.242-6.511a1.323,1.323,0,0,0-1.022.427,2.209,2.209,0,0,0-.5,1.221h2.944v-.169a1.576,1.576,0,0,0-.381-1.092A1.365,1.365,0,0,0,36.028,9.635Zm9.155.425A5.751,5.751,0,0,0,44.421,10a1.55,1.55,0,0,0-1.575.813V16H40.73V8.075h2l.059.945a1.961,1.961,0,0,1,1.765-1.091,2.218,2.218,0,0,1,.659.1ZM48.435,16H46.311V8.075h2.124ZM46.186,6.024a1.042,1.042,0,0,1,.319-.784,1.373,1.373,0,0,1,1.732,0,1.036,1.036,0,0,1,.322.784,1.039,1.039,0,0,1-.326.791,1.358,1.358,0,0,1-1.721,0A1.039,1.039,0,0,1,46.186,6.024Zm3.662,5.94a4.7,4.7,0,0,1,.454-2.1A3.324,3.324,0,0,1,51.61,8.434a3.814,3.814,0,0,1,1.981-.505,3.609,3.609,0,0,1,2.618.981,3.939,3.939,0,0,1,1.132,2.666l.015.542a4.142,4.142,0,0,1-1.018,2.926,3.946,3.946,0,0,1-5.468,0,4.215,4.215,0,0,1-1.022-2.988Zm2.117.15a2.962,2.962,0,0,0,.425,1.727,1.526,1.526,0,0,0,2.417.007,3.241,3.241,0,0,0,.432-1.889,2.933,2.933,0,0,0-.432-1.716,1.4,1.4,0,0,0-1.216-.609,1.382,1.382,0,0,0-1.2.605A3.3,3.3,0,0,0,51.965,12.115Zm10.986,1.7a.682.682,0,0,0-.385-.612,4.368,4.368,0,0,0-1.234-.4q-2.827-.593-2.827-2.4a2.178,2.178,0,0,1,.875-1.761,3.531,3.531,0,0,1,2.289-.707,3.8,3.8,0,0,1,2.413.71,2.239,2.239,0,0,1,.9,1.846H62.871a1.024,1.024,0,0,0-.293-.751,1.24,1.24,0,0,0-.916-.3,1.267,1.267,0,0,0-.828.242.763.763,0,0,0-.293.615.652.652,0,0,0,.333.568A3.428,3.428,0,0,0,62,11.236a9.183,9.183,0,0,1,1.333.355,2.19,2.19,0,0,1,1.677,2.131,2.067,2.067,0,0,1-.93,1.754,4.013,4.013,0,0,1-2.4.67,4.191,4.191,0,0,1-1.769-.355,2.968,2.968,0,0,1-1.212-.974,2.263,2.263,0,0,1-.439-1.337h2.007a1.105,1.105,0,0,0,.417.864,1.656,1.656,0,0,0,1.04.3,1.533,1.533,0,0,0,.919-.231A.718.718,0,0,0,62.952,13.81Zm14.29-1.7a4.753,4.753,0,0,1-.831,2.933,2.665,2.665,0,0,1-2.245,1.1,2.469,2.469,0,0,1-1.941-.835v3.735H70.107V8.075H72.07l.073.776a2.488,2.488,0,0,1,2.007-.923,2.683,2.683,0,0,1,2.278,1.084A4.882,4.882,0,0,1,77.241,12Zm-2.117-.154a3.119,3.119,0,0,0-.392-1.707,1.276,1.276,0,0,0-1.139-.6,1.386,1.386,0,0,0-1.37.762v3.245a1.41,1.41,0,0,0,1.384.784Q75.124,14.44,75.124,11.957ZM83.145,16a2.351,2.351,0,0,1-.212-.71,2.561,2.561,0,0,1-2,.857A2.814,2.814,0,0,1,79,15.473a2.167,2.167,0,0,1-.765-1.7,2.24,2.24,0,0,1,.934-1.934,4.608,4.608,0,0,1,2.7-.681h.974V10.7a1.306,1.306,0,0,0-.282-.879,1.109,1.109,0,0,0-.89-.33,1.261,1.261,0,0,0-.839.256.871.871,0,0,0-.3.7H78.413a2.126,2.126,0,0,1,.425-1.274,2.808,2.808,0,0,1,1.2-.919,4.378,4.378,0,0,1,1.743-.333,3.459,3.459,0,0,1,2.325.736,2.575,2.575,0,0,1,.861,2.069v3.435a3.789,3.789,0,0,0,.315,1.707V16Zm-1.75-1.472a1.823,1.823,0,0,0,.864-.209,1.371,1.371,0,0,0,.586-.56V12.4h-.791q-1.589,0-1.692,1.1l-.007.125a.847.847,0,0,0,.278.652A1.081,1.081,0,0,0,81.394,14.528Zm9.653-4.468A5.751,5.751,0,0,0,90.286,10a1.55,1.55,0,0,0-1.575.813V16H86.594V8.075h2l.059.945a1.961,1.961,0,0,1,1.765-1.091,2.218,2.218,0,0,1,.659.1ZM96.438,16a2.351,2.351,0,0,1-.212-.71,2.561,2.561,0,0,1-2,.857,2.814,2.814,0,0,1-1.93-.674,2.167,2.167,0,0,1-.765-1.7,2.24,2.24,0,0,1,.934-1.934,4.608,4.608,0,0,1,2.7-.681h.974V10.7a1.306,1.306,0,0,0-.282-.879,1.109,1.109,0,0,0-.89-.33,1.261,1.261,0,0,0-.839.256.871.871,0,0,0-.3.7H91.707a2.126,2.126,0,0,1,.425-1.274,2.808,2.808,0,0,1,1.2-.919,4.378,4.378,0,0,1,1.743-.333,3.459,3.459,0,0,1,2.325.736,2.575,2.575,0,0,1,.861,2.069v3.435a3.789,3.789,0,0,0,.315,1.707V16Zm-1.75-1.472a1.823,1.823,0,0,0,.864-.209,1.371,1.371,0,0,0,.586-.56V12.4h-.791q-1.589,0-1.692,1.1l-.007.125a.847.847,0,0,0,.278.652A1.081,1.081,0,0,0,94.687,14.528ZM105.857,16h-2.124V4.75h2.124Zm6.335,0a2.351,2.351,0,0,1-.212-.71,2.561,2.561,0,0,1-2,.857,2.814,2.814,0,0,1-1.93-.674,2.167,2.167,0,0,1-.765-1.7,2.24,2.24,0,0,1,.934-1.934,4.608,4.608,0,0,1,2.7-.681h.974V10.7a1.306,1.306,0,0,0-.282-.879,1.109,1.109,0,0,0-.89-.33,1.261,1.261,0,0,0-.839.256.871.871,0,0,0-.3.7h-2.117a2.126,2.126,0,0,1,.425-1.274,2.808,2.808,0,0,1,1.2-.919,4.378,4.378,0,0,1,1.743-.333,3.459,3.459,0,0,1,2.325.736,2.575,2.575,0,0,1,.861,2.069v3.435a3.789,3.789,0,0,0,.315,1.707V16Zm-1.75-1.472a1.823,1.823,0,0,0,.864-.209,1.371,1.371,0,0,0,.586-.56V12.4H111.1q-1.589,0-1.692,1.1l-.007.125a.847.847,0,0,0,.278.652A1.081,1.081,0,0,0,110.442,14.528ZM22.1,28.111a4.753,4.753,0,0,1-.831,2.933,2.665,2.665,0,0,1-2.245,1.1,2.469,2.469,0,0,1-1.941-.835v3.735H14.971V24.075h1.963l.073.776a2.488,2.488,0,0,1,2.007-.923,2.683,2.683,0,0,1,2.278,1.084A4.882,4.882,0,0,1,22.1,28Zm-2.117-.154A3.119,3.119,0,0,0,19.6,26.25a1.276,1.276,0,0,0-1.139-.6,1.386,1.386,0,0,0-1.37.762v3.245a1.41,1.41,0,0,0,1.384.784Q19.988,30.44,19.988,27.957ZM25.649,32H23.525V20.75h2.124Zm6.335,0a2.351,2.351,0,0,1-.212-.71,2.561,2.561,0,0,1-2,.857,2.814,2.814,0,0,1-1.93-.674,2.167,2.167,0,0,1-.765-1.7,2.24,2.24,0,0,1,.934-1.934,4.608,4.608,0,0,1,2.7-.681h.974V26.7a1.306,1.306,0,0,0-.282-.879,1.109,1.109,0,0,0-.89-.33,1.261,1.261,0,0,0-.839.256.871.871,0,0,0-.3.7H27.253a2.126,2.126,0,0,1,.425-1.274,2.808,2.808,0,0,1,1.2-.919,4.378,4.378,0,0,1,1.743-.333,3.459,3.459,0,0,1,2.325.736,2.575,2.575,0,0,1,.861,2.069v3.435a3.789,3.789,0,0,0,.315,1.707V32Zm-1.75-1.472a1.823,1.823,0,0,0,.864-.209,1.371,1.371,0,0,0,.586-.56V28.4h-.791q-1.589,0-1.692,1.1l-.007.125a.847.847,0,0,0,.278.652A1.081,1.081,0,0,0,30.234,30.528Zm7.148-6.453.066.916a2.767,2.767,0,0,1,2.278-1.062,2.3,2.3,0,0,1,1.875.74,3.451,3.451,0,0,1,.63,2.212V32H40.115V26.932a1.373,1.373,0,0,0-.293-.978,1.312,1.312,0,0,0-.974-.3,1.456,1.456,0,0,0-1.34.762V32H35.391V24.075Zm10.1,8.071a3.89,3.89,0,0,1-2.838-1.069,3.8,3.8,0,0,1-1.095-2.849v-.205a4.787,4.787,0,0,1,.461-2.135,3.386,3.386,0,0,1,1.307-1.45,3.669,3.669,0,0,1,1.93-.509,3.289,3.289,0,0,1,2.56,1.025,4.167,4.167,0,0,1,.934,2.908v.864H45.7a1.966,1.966,0,0,0,.619,1.245,1.871,1.871,0,0,0,1.307.469,2.285,2.285,0,0,0,1.912-.886l1.04,1.165a3.178,3.178,0,0,1-1.289,1.051A4.229,4.229,0,0,1,47.483,32.146Zm-.242-6.511a1.323,1.323,0,0,0-1.022.427,2.209,2.209,0,0,0-.5,1.221h2.944v-.169a1.576,1.576,0,0,0-.381-1.092A1.365,1.365,0,0,0,47.241,25.635ZM56.536,32a2.351,2.351,0,0,1-.212-.71,2.561,2.561,0,0,1-2,.857,2.814,2.814,0,0,1-1.93-.674,2.167,2.167,0,0,1-.765-1.7,2.24,2.24,0,0,1,.934-1.934,4.608,4.608,0,0,1,2.7-.681h.974V26.7a1.306,1.306,0,0,0-.282-.879,1.109,1.109,0,0,0-.89-.33,1.261,1.261,0,0,0-.839.256.871.871,0,0,0-.3.7H51.8a2.126,2.126,0,0,1,.425-1.274,2.808,2.808,0,0,1,1.2-.919,4.378,4.378,0,0,1,1.743-.333,3.459,3.459,0,0,1,2.325.736,2.575,2.575,0,0,1,.861,2.069v3.435a3.789,3.789,0,0,0,.315,1.707V32Zm-1.75-1.472a1.823,1.823,0,0,0,.864-.209,1.371,1.371,0,0,0,.586-.56V28.4h-.791q-1.589,0-1.692,1.1l-.007.125a.847.847,0,0,0,.278.652A1.081,1.081,0,0,0,54.785,30.528Zm8.5-.088a1.388,1.388,0,0,0,.952-.322,1.129,1.129,0,0,0,.381-.857H66.6a2.715,2.715,0,0,1-.439,1.476,2.9,2.9,0,0,1-1.183,1.04,3.7,3.7,0,0,1-1.659.37,3.44,3.44,0,0,1-2.681-1.08,4.275,4.275,0,0,1-.981-2.985v-.139a4.226,4.226,0,0,1,.974-2.922A3.4,3.4,0,0,1,63.3,23.929a3.333,3.333,0,0,1,2.384.846,3,3,0,0,1,.912,2.252H64.614a1.455,1.455,0,0,0-.381-1.005,1.416,1.416,0,0,0-2.084.153,3.125,3.125,0,0,0-.377,1.749v.22a3.164,3.164,0,0,0,.374,1.761A1.291,1.291,0,0,0,63.281,30.44ZM70.041,32H67.917V24.075h2.124Zm-2.249-9.976a1.042,1.042,0,0,1,.319-.784,1.373,1.373,0,0,1,1.732,0,1.118,1.118,0,0,1,0,1.575,1.358,1.358,0,0,1-1.721,0A1.039,1.039,0,0,1,67.793,22.024Zm3.662,5.94a4.7,4.7,0,0,1,.454-2.1,3.324,3.324,0,0,1,1.307-1.428,3.814,3.814,0,0,1,1.981-.505,3.609,3.609,0,0,1,2.618.981,3.939,3.939,0,0,1,1.132,2.666l.015.542a4.142,4.142,0,0,1-1.018,2.926,3.946,3.946,0,0,1-5.468,0,4.215,4.215,0,0,1-1.022-2.988Zm2.117.15A2.962,2.962,0,0,0,74,29.842a1.526,1.526,0,0,0,2.417.007,3.241,3.241,0,0,0,.432-1.889,2.933,2.933,0,0,0-.432-1.716,1.4,1.4,0,0,0-1.216-.609,1.382,1.382,0,0,0-1.2.605A3.3,3.3,0,0,0,73.572,28.115Zm2.043-7.365h2.307l-2.029,2.271H74.172Zm6.6,3.325.066.916a2.767,2.767,0,0,1,2.278-1.062,2.3,2.3,0,0,1,1.875.74,3.451,3.451,0,0,1,.63,2.212V32H84.946V26.932a1.373,1.373,0,0,0-.293-.978,1.312,1.312,0,0,0-.974-.3,1.456,1.456,0,0,0-1.34.762V32H80.222V24.075Zm9.858,3.9a4.776,4.776,0,0,1,.831-2.952,2.7,2.7,0,0,1,2.274-1.1,2.427,2.427,0,0,1,1.912.864V20.75h2.124V32H97.3l-.1-.842a2.491,2.491,0,0,1-2.036.989,2.69,2.69,0,0,1-2.245-1.1A4.93,4.93,0,0,1,92.073,27.979Zm2.117.158a3.128,3.128,0,0,0,.388,1.709,1.265,1.265,0,0,0,1.128.594,1.416,1.416,0,0,0,1.384-.829V26.479a1.4,1.4,0,0,0-1.37-.829Q94.189,25.65,94.189,28.137Zm10.313,4.01a3.89,3.89,0,0,1-2.838-1.069,3.8,3.8,0,0,1-1.095-2.849v-.205a4.787,4.787,0,0,1,.461-2.135,3.386,3.386,0,0,1,1.307-1.45,3.669,3.669,0,0,1,1.93-.509,3.289,3.289,0,0,1,2.56,1.025,4.167,4.167,0,0,1,.934,2.908v.864h-5.046a1.966,1.966,0,0,0,.619,1.245,1.871,1.871,0,0,0,1.307.469,2.285,2.285,0,0,0,1.912-.886l1.04,1.165a3.178,3.178,0,0,1-1.289,1.051A4.229,4.229,0,0,1,104.5,32.146Zm-.242-6.511a1.323,1.323,0,0,0-1.022.427,2.209,2.209,0,0,0-.5,1.221h2.944v-.169a1.576,1.576,0,0,0-.381-1.092A1.365,1.365,0,0,0,104.26,25.635ZM27.942,48a2.351,2.351,0,0,1-.212-.71,2.561,2.561,0,0,1-2,.857,2.814,2.814,0,0,1-1.93-.674,2.167,2.167,0,0,1-.765-1.7,2.24,2.24,0,0,1,.934-1.934,4.608,4.608,0,0,1,2.7-.681h.974V42.7a1.306,1.306,0,0,0-.282-.879,1.109,1.109,0,0,0-.89-.33,1.261,1.261,0,0,0-.839.256.871.871,0,0,0-.3.7H23.21a2.126,2.126,0,0,1,.425-1.274,2.808,2.808,0,0,1,1.2-.919,4.378,4.378,0,0,1,1.743-.333,3.459,3.459,0,0,1,2.325.736,2.575,2.575,0,0,1,.861,2.069v3.435a3.789,3.789,0,0,0,.315,1.707V48Zm-1.75-1.472a1.823,1.823,0,0,0,.864-.209,1.371,1.371,0,0,0,.586-.56V44.4h-.791q-1.589,0-1.692,1.1l-.007.125a.847.847,0,0,0,.278.652A1.081,1.081,0,0,0,26.191,46.528Zm8.5-.088a1.388,1.388,0,0,0,.952-.322,1.129,1.129,0,0,0,.381-.857h1.985a2.715,2.715,0,0,1-.439,1.476,2.9,2.9,0,0,1-1.183,1.04,3.7,3.7,0,0,1-1.659.37,3.44,3.44,0,0,1-2.681-1.08,4.275,4.275,0,0,1-.981-2.985v-.139a4.226,4.226,0,0,1,.974-2.922,3.4,3.4,0,0,1,2.673-1.091,3.333,3.333,0,0,1,2.384.846,3,3,0,0,1,.912,2.252H36.02a1.455,1.455,0,0,0-.381-1.005,1.416,1.416,0,0,0-2.084.153,3.125,3.125,0,0,0-.377,1.749v.22a3.164,3.164,0,0,0,.374,1.761A1.291,1.291,0,0,0,34.687,46.44Zm7.061-8.313v1.948H43.1v1.553H41.748v3.955a.944.944,0,0,0,.168.63.846.846,0,0,0,.645.19,3.376,3.376,0,0,0,.623-.051v1.6a4.358,4.358,0,0,1-1.282.19A2.021,2.021,0,0,1,39.631,45.9v-4.27H38.474V40.075h1.157V38.127ZM46.516,48H44.392V40.075h2.124Zm-2.249-9.976a1.042,1.042,0,0,1,.319-.784,1.373,1.373,0,0,1,1.732,0,1.118,1.118,0,0,1,0,1.575,1.358,1.358,0,0,1-1.721,0A1.039,1.039,0,0,1,44.268,38.024Zm6.958,7.39L52.7,40.075H54.91L52.236,48H50.215l-2.673-7.925h2.212ZM58.074,48H55.95V40.075h2.124Zm-2.249-9.976a1.042,1.042,0,0,1,.319-.784,1.373,1.373,0,0,1,1.732,0,1.118,1.118,0,0,1,0,1.575,1.358,1.358,0,0,1-1.721,0A1.039,1.039,0,0,1,55.825,38.024Zm3.662,5.955a4.776,4.776,0,0,1,.831-2.952,2.7,2.7,0,0,1,2.274-1.1,2.427,2.427,0,0,1,1.912.864V36.75h2.124V48H64.717l-.1-.842a2.491,2.491,0,0,1-2.036.989,2.69,2.69,0,0,1-2.245-1.1A4.93,4.93,0,0,1,59.487,43.979Zm2.117.158a3.128,3.128,0,0,0,.388,1.709,1.265,1.265,0,0,0,1.128.594,1.416,1.416,0,0,0,1.384-.829V42.479a1.4,1.4,0,0,0-1.37-.829Q61.6,41.65,61.6,44.137ZM72.861,48a2.351,2.351,0,0,1-.212-.71,2.561,2.561,0,0,1-2,.857,2.814,2.814,0,0,1-1.93-.674,2.167,2.167,0,0,1-.765-1.7,2.24,2.24,0,0,1,.934-1.934,4.608,4.608,0,0,1,2.7-.681h.974V42.7a1.306,1.306,0,0,0-.282-.879,1.109,1.109,0,0,0-.89-.33,1.261,1.261,0,0,0-.839.256.871.871,0,0,0-.3.7H68.13a2.126,2.126,0,0,1,.425-1.274,2.808,2.808,0,0,1,1.2-.919,4.378,4.378,0,0,1,1.743-.333,3.459,3.459,0,0,1,2.325.736,2.575,2.575,0,0,1,.861,2.069v3.435A3.789,3.789,0,0,0,75,47.875V48Zm-1.75-1.472a1.823,1.823,0,0,0,.864-.209,1.371,1.371,0,0,0,.586-.56V44.4H71.77q-1.589,0-1.692,1.1l-.007.125a.847.847,0,0,0,.278.652A1.081,1.081,0,0,0,71.111,46.528Zm4.871-2.549a4.776,4.776,0,0,1,.831-2.952,2.7,2.7,0,0,1,2.274-1.1A2.427,2.427,0,0,1,81,40.793V36.75h2.124V48H81.211l-.1-.842a2.491,2.491,0,0,1-2.036.989,2.69,2.69,0,0,1-2.245-1.1A4.93,4.93,0,0,1,75.981,43.979Zm2.117.158a3.128,3.128,0,0,0,.388,1.709,1.265,1.265,0,0,0,1.128.594A1.416,1.416,0,0,0,81,45.611V42.479a1.4,1.4,0,0,0-1.37-.829Q78.1,41.65,78.1,44.137Zm10.313,4.01a3.89,3.89,0,0,1-2.838-1.069,3.8,3.8,0,0,1-1.095-2.849v-.205a4.787,4.787,0,0,1,.461-2.135,3.386,3.386,0,0,1,1.307-1.45,3.669,3.669,0,0,1,1.93-.509,3.289,3.289,0,0,1,2.56,1.025,4.167,4.167,0,0,1,.934,2.908v.864H86.624a1.966,1.966,0,0,0,.619,1.245,1.871,1.871,0,0,0,1.307.469,2.285,2.285,0,0,0,1.912-.886l1.04,1.165a3.178,3.178,0,0,1-1.289,1.051A4.229,4.229,0,0,1,88.411,48.146Zm-.242-6.511a1.323,1.323,0,0,0-1.022.427,2.209,2.209,0,0,0-.5,1.221H89.59v-.169a1.576,1.576,0,0,0-.381-1.092A1.365,1.365,0,0,0,88.169,41.635Zm8.994,4.175a.682.682,0,0,0-.385-.612,4.368,4.368,0,0,0-1.234-.4q-2.827-.593-2.827-2.4a2.178,2.178,0,0,1,.875-1.761,3.531,3.531,0,0,1,2.289-.707,3.8,3.8,0,0,1,2.413.71,2.239,2.239,0,0,1,.9,1.846H97.082a1.024,1.024,0,0,0-.293-.751,1.24,1.24,0,0,0-.916-.3,1.267,1.267,0,0,0-.828.242.763.763,0,0,0-.293.615.652.652,0,0,0,.333.568,3.428,3.428,0,0,0,1.124.374,9.183,9.183,0,0,1,1.333.355,2.19,2.19,0,0,1,1.677,2.131,2.067,2.067,0,0,1-.93,1.754,4.013,4.013,0,0,1-2.4.67,4.191,4.191,0,0,1-1.769-.355,2.968,2.968,0,0,1-1.212-.974,2.263,2.263,0,0,1-.439-1.337h2.007a1.105,1.105,0,0,0,.417.864,1.656,1.656,0,0,0,1.04.3,1.533,1.533,0,0,0,.919-.231A.718.718,0,0,0,97.163,45.81Z" transform="translate(747.208 711.959)" fill="#12263f"/>
    <path id="Trazado_199668" data-name="Trazado 199668" d="M38.99,12.1H37.24V16h-2.2V5.336h3.962a4.479,4.479,0,0,1,2.915.842,2.907,2.907,0,0,1,1.025,2.38,3.281,3.281,0,0,1-.472,1.82,3.222,3.222,0,0,1-1.432,1.161L43.348,15.9V16H40.99Zm-1.75-1.78h1.772A1.815,1.815,0,0,0,40.294,9.9a1.505,1.505,0,0,0,.454-1.161,1.611,1.611,0,0,0-.428-1.187,1.781,1.781,0,0,0-1.315-.432H37.24ZM46.71,16H44.586V8.075H46.71ZM44.462,6.024a1.042,1.042,0,0,1,.319-.784,1.373,1.373,0,0,1,1.732,0,1.036,1.036,0,0,1,.322.784,1.039,1.039,0,0,1-.326.791,1.358,1.358,0,0,1-1.721,0A1.039,1.039,0,0,1,44.462,6.024ZM52.1,16.146a3.89,3.89,0,0,1-2.838-1.069,3.8,3.8,0,0,1-1.095-2.849v-.205a4.787,4.787,0,0,1,.461-2.135,3.386,3.386,0,0,1,1.307-1.45,3.669,3.669,0,0,1,1.93-.509,3.289,3.289,0,0,1,2.56,1.025,4.167,4.167,0,0,1,.934,2.908v.864H50.314a1.966,1.966,0,0,0,.619,1.245,1.871,1.871,0,0,0,1.307.469,2.285,2.285,0,0,0,1.912-.886l1.04,1.165A3.178,3.178,0,0,1,53.9,15.769,4.229,4.229,0,0,1,52.1,16.146Zm-.242-6.511a1.323,1.323,0,0,0-1.022.427,2.209,2.209,0,0,0-.5,1.221H53.28v-.169a1.576,1.576,0,0,0-.381-1.092A1.365,1.365,0,0,0,51.859,9.635Zm8.994,4.175a.682.682,0,0,0-.385-.612,4.368,4.368,0,0,0-1.234-.4q-2.827-.593-2.827-2.4a2.178,2.178,0,0,1,.875-1.761,3.531,3.531,0,0,1,2.289-.707,3.8,3.8,0,0,1,2.413.71,2.239,2.239,0,0,1,.9,1.846H60.773a1.024,1.024,0,0,0-.293-.751,1.24,1.24,0,0,0-.916-.3,1.267,1.267,0,0,0-.828.242.763.763,0,0,0-.293.615.652.652,0,0,0,.333.568,3.428,3.428,0,0,0,1.124.374,9.183,9.183,0,0,1,1.333.355,2.19,2.19,0,0,1,1.677,2.131,2.067,2.067,0,0,1-.93,1.754,4.013,4.013,0,0,1-2.4.67,4.191,4.191,0,0,1-1.769-.355,2.968,2.968,0,0,1-1.212-.974,2.263,2.263,0,0,1-.439-1.337h2.007a1.105,1.105,0,0,0,.417.864,1.656,1.656,0,0,0,1.04.3,1.533,1.533,0,0,0,.919-.231A.718.718,0,0,0,60.853,13.81Zm3.113-1.831a4.644,4.644,0,0,1,.868-2.937,2.812,2.812,0,0,1,2.34-1.113,2.466,2.466,0,0,1,2.029.894l.088-.747H71.21v7.661a3.387,3.387,0,0,1-.472,1.809,3.034,3.034,0,0,1-1.329,1.172,4.673,4.673,0,0,1-2.007.4,4.346,4.346,0,0,1-1.7-.348,3.016,3.016,0,0,1-1.252-.9l.938-1.289a2.48,2.48,0,0,0,1.919.886,1.815,1.815,0,0,0,1.311-.45,1.69,1.69,0,0,0,.469-1.278v-.425a2.448,2.448,0,0,1-1.926.828,2.8,2.8,0,0,1-2.311-1.117,4.643,4.643,0,0,1-.883-2.963Zm2.117.158a2.892,2.892,0,0,0,.432,1.691,1.375,1.375,0,0,0,1.187.612,1.47,1.47,0,0,0,1.384-.726V10.376a1.466,1.466,0,0,0-1.37-.726,1.383,1.383,0,0,0-1.2.624A3.259,3.259,0,0,0,66.083,12.137Zm6.423-.172a4.7,4.7,0,0,1,.454-2.1,3.324,3.324,0,0,1,1.307-1.428,3.814,3.814,0,0,1,1.981-.505,3.609,3.609,0,0,1,2.618.981A3.939,3.939,0,0,1,80,11.576l.015.542A4.142,4.142,0,0,1,79,15.044a3.946,3.946,0,0,1-5.468,0,4.215,4.215,0,0,1-1.022-2.988Zm2.117.15a2.962,2.962,0,0,0,.425,1.727,1.526,1.526,0,0,0,2.417.007,3.241,3.241,0,0,0,.432-1.889,2.933,2.933,0,0,0-.432-1.716,1.4,1.4,0,0,0-1.216-.609,1.382,1.382,0,0,0-1.2.605A3.3,3.3,0,0,0,74.623,12.115Zm10.986,1.7a.682.682,0,0,0-.385-.612,4.368,4.368,0,0,0-1.234-.4q-2.827-.593-2.827-2.4a2.178,2.178,0,0,1,.875-1.761,3.531,3.531,0,0,1,2.289-.707,3.8,3.8,0,0,1,2.413.71,2.239,2.239,0,0,1,.9,1.846H85.529a1.024,1.024,0,0,0-.293-.751,1.24,1.24,0,0,0-.916-.3,1.267,1.267,0,0,0-.828.242.763.763,0,0,0-.293.615.652.652,0,0,0,.333.568,3.428,3.428,0,0,0,1.124.374,9.183,9.183,0,0,1,1.333.355,2.19,2.19,0,0,1,1.677,2.131,2.067,2.067,0,0,1-.93,1.754,4.013,4.013,0,0,1-2.4.67,4.191,4.191,0,0,1-1.769-.355,2.968,2.968,0,0,1-1.212-.974,2.263,2.263,0,0,1-.439-1.337h2.007a1.105,1.105,0,0,0,.417.864,1.656,1.656,0,0,0,1.04.3,1.533,1.533,0,0,0,.919-.231A.718.718,0,0,0,85.609,13.81Z" transform="translate(1109.14 711.959)" fill="#12263f"/>
    <g id="Grupo_142439" data-name="Grupo 142439" transform="translate(601.31 655.51)">
      <circle id="Elipse_4868" data-name="Elipse 4868" cx="26.086" cy="26.086" r="26.086" transform="translate(0 0)" fill="#2ec49f"/>
      <g id="frSa2F" transform="translate(528.854 -675.98)">
        <g id="Grupo_155878" data-name="Grupo 155878" transform="translate(-517.109 687.009)">
          <path id="Trazado_198257" data-name="Trazado 198257" d="M-515.394,687.009h25.03A2.46,2.46,0,0,1-488.6,689.7c-.041,5.2,0,10.406-.032,15.609a2.932,2.932,0,0,0,.708,2.028,7.077,7.077,0,0,1-1.189,9.938,8.744,8.744,0,0,1-3.652,1.536h-1.556a.6.6,0,0,0-.179-.1,6.843,6.843,0,0,1-5.368-3.867c-.21-.414-.484-.421-.846-.421q-6.921.008-13.842,0a2.252,2.252,0,0,1-2.529-2.514c0-7.365.022-14.729-.02-22.094A2.623,2.623,0,0,1-515.394,687.009Zm14.919,26.315c-.505-3.1.321-5.663,2.857-7.457a6.982,6.982,0,0,1,7.91-.233V692.54h-26.265c-.014.176-.034.313-.034.449q0,9.5,0,19c0,.974.382,1.328,1.394,1.33q4.735.008,9.471,0Zm10.814-21.952v-1.526c0-1.471-.259-1.737-1.7-1.737h-22.954c-.259,0-.568-.075-.765.04-.334.194-.8.479-.848.781a16.637,16.637,0,0,0-.04,2.441Zm2.17,20.283a6.077,6.077,0,0,0-6.355-6.016,6.084,6.084,0,0,0-5.711,6.3,6,6,0,0,0,6.244,5.752A6.006,6.006,0,0,0-487.491,711.656Z" transform="translate(517.109 -687.009)" fill="#fff"/>
          <path id="Trazado_198258" data-name="Trazado 198258" d="M-493.14,777.028l.777.848c-1.415.829-.857,2.206-.921,3.411-.057,1.089-.027,1.106-1.121,1.107-.8,0-1.6-.02-2.4.007-.558.018-.845-.2-.843-.765,0-.963,0-1.926,0-2.889,0-.524.256-.766.795-.734.445.026.893-.011,1.339.009C-494.605,778.061-493.7,778.113-493.14,777.028Zm-2.673,2.843.546-.72h-1.26v2.079h2.147v-1.3l-.665.576Z" transform="translate(500.396 -764.304)" fill="#fff"/>
          <path id="Trazado_198259" data-name="Trazado 198259" d="M-436.6,753.342v.982h-14.165v-.982Z" transform="translate(460.145 -743.966)" fill="#fff"/>
          <path id="Trazado_198260" data-name="Trazado 198260" d="M-435.329,785.34v-1h14.151v1Z" transform="translate(446.888 -770.582)" fill="#fff"/>
          <path id="Trazado_198261" data-name="Trazado 198261" d="M-493.149,730.5l.735.736c-.021.1-.016.164-.041.179-1.015.617-.841,1.614-.846,2.568-.011,2.112.281,1.821-1.82,1.843-.588.006-1.177-.018-1.764.006-.5.02-.757-.188-.759-.688q-.006-1.481,0-2.962a.611.611,0,0,1,.707-.679c.47.006.941-.016,1.411,0C-494.591,731.547-493.658,731.6-493.149,730.5Zm-3.366,2.079v2.174h2.141V733.42l-.642.528-.736-.673.547-.691Z" transform="translate(500.396 -724.356)" fill="#fff"/>
          <path id="Trazado_198262" data-name="Trazado 198262" d="M-493.1,824.3l.827.759c-1.277.587-1.029,1.674-1.039,2.686-.02,2,.3,1.77-1.808,1.785-.587,0-1.175-.015-1.761,0-.534.018-.783-.215-.779-.747q.009-1.409,0-2.817c0-.519.21-.79.762-.76.4.022.8,0,1.2,0A2.723,2.723,0,0,0-493.1,824.3Zm-2.089,1.976h-1.341v2.176h2.147v-1.331l-.754.618-.677-.738Z" transform="translate(500.408 -804.898)" fill="#fff"/>
          <path id="Trazado_198263" data-name="Trazado 198263" d="M-421.082,737.979v.963h-14.153v-.963Z" transform="translate(446.809 -730.774)" fill="#fff"/>
          <path id="Trazado_198264" data-name="Trazado 198264" d="M-439.254,801.093h-11.365v-.948h11.365Z" transform="translate(460.017 -784.153)" fill="#fff"/>
          <path id="Trazado_198265" data-name="Trazado 198265" d="M-444.766,846.345v1.012h-5.891v-1.012Z" transform="translate(460.05 -823.823)" fill="#fff"/>
          <path id="Trazado_198266" data-name="Trazado 198266" d="M-430.9,831.154v.926h-4.268v-.926Z" transform="translate(446.753 -810.779)" fill="#fff"/>
          <path id="Trazado_198267" data-name="Trazado 198267" d="M-450.662,784.28h.963V785.3h-.963Z" transform="translate(460.054 -770.531)" fill="#fff"/>
          <path id="Trazado_198268" data-name="Trazado 198268" d="M-450.774,738.839v-.975h.965v.975Z" transform="translate(460.15 -730.676)" fill="#fff"/>
          <path id="Trazado_198269" data-name="Trazado 198269" d="M-450.8,832.052V831.1h.964v.947Z" transform="translate(460.176 -810.737)" fill="#fff"/>
          <path id="Trazado_198270" data-name="Trazado 198270" d="M-484.57,704.023h-.99v-.955h.99Z" transform="translate(490.019 -700.799)" fill="#fff"/>
          <path id="Trazado_198271" data-name="Trazado 198271" d="M-499.935,703.219v.922h-.958v-.922Z" transform="translate(503.185 -700.928)" fill="#fff"/>
          <path id="Trazado_198272" data-name="Trazado 198272" d="M-469.908,703.021h.948v.954h-.948Z" transform="translate(476.58 -700.758)" fill="#fff"/>
          <path id="Trazado_198273" data-name="Trazado 198273" d="M-380.114,836.694a4.852,4.852,0,0,1-4.84-5.115,4.864,4.864,0,0,1,5.069-4.674,4.848,4.848,0,0,1,4.738,5.01A4.839,4.839,0,0,1-380.114,836.694Zm3.926-4.849a3.928,3.928,0,0,0-3.889-3.917,3.945,3.945,0,0,0-3.842,3.821,3.928,3.928,0,0,0,3.818,3.92A3.938,3.938,0,0,0-376.188,831.845Z" transform="translate(403.635 -807.13)" fill="#fff"/>
          <path id="Trazado_198274" data-name="Trazado 198274" d="M-363.894,848.712l.806.861c-1,.988-1.962,1.982-2.981,2.917a.864.864,0,0,1-.829-.029c-.561-.453-1.046-1-1.62-1.569l.856-.784,1.147,1.4Z" transform="translate(389.522 -825.856)" fill="#fff"/>
        </g>
      </g>
    </g>
    <g id="Grupo_142441" data-name="Grupo 142441" transform="translate(782.276 655.51)">
      <circle id="Elipse_4870" data-name="Elipse 4870" cx="26.086" cy="26.086" r="26.086" transform="translate(0 0)" fill="#f59d36"/>
      <g id="igIudo.tif" transform="translate(8.724 8.306)">
        <g id="Grupo_155494" data-name="Grupo 155494">
          <path id="Trazado_197412" data-name="Trazado 197412" d="M-1332.061,1297.651h-1.755c-.068.342-.125.685-.2,1.022a6.706,6.706,0,0,1-2.422,3.815.618.618,0,0,0-.281.59c.025.29.006.584.006.922h1.147v1.189h-1.138v2.305h-8.169v-2.286h-1.13v-1.179h1.095v-.913c-.774.207-1.533.453-2.31.61a14.2,14.2,0,0,1-8.675-.9,14.361,14.361,0,0,1-5.342-3.987,14.359,14.359,0,0,1-3.33-7.625,16.279,16.279,0,0,1,0-3.513.686.686,0,0,0-.173-.479c-.743-.769-1.505-1.518-2.261-2.275-.081-.081-.157-.167-.274-.291.316-.3.615-.6.927-.882a.283.283,0,0,0,.084-.391c-.14-.282-.252-.579-.385-.891h-1.489v-4.661c.406,0,.813-.01,1.219,0,.2.008.281-.079.39-.249a1,1,0,0,0-.338-1.569,5.019,5.019,0,0,1-.392-.316l3.375-3.371c.248.271.534.563.794.876a.325.325,0,0,0,.507.077.167.167,0,0,1,.065-.027c.7-.117.876-.555.767-1.2a3.49,3.49,0,0,1,0-.633h4.654v1.515c.3.129.6.244.879.38a.287.287,0,0,0,.394-.068c.291-.318.6-.62.913-.942.87.874,1.7,1.7,2.524,2.542a.553.553,0,0,0,.523.184,13.711,13.711,0,0,1,3.687.005,14.2,14.2,0,0,1,8.734,4.574,14.266,14.266,0,0,1,3.688,12.259.681.681,0,0,0,.146.489,6.868,6.868,0,0,1,1.494,2.682c.129.457.211.928.318,1.407h1.731Zm-15.716-1.188a6.918,6.918,0,0,1,3.979-5.713,6.856,6.856,0,0,1,6.924.49,10.343,10.343,0,0,0,.072-3.135,13.054,13.054,0,0,0-2-5.76,13.263,13.263,0,0,0-7.726-5.754,13.2,13.2,0,0,0-5.4-.37c-.6.078-.788.4-.545.951a2.1,2.1,0,0,1,.138.36.347.347,0,0,0,.422.3c.4-.024.81-.006,1.214-.006v4.66a3.033,3.033,0,0,1-.539,0,1.011,1.011,0,0,0-1.348.877c-.04.182-.059.293.087.426.31.282.6.582.857.828l-3.345,3.348c-.11-.13-.258-.282-.38-.454-.357-.5-.774-.7-1.333-.3a.322.322,0,0,1-.13.051c-.213.038-.274.162-.266.373.016.417,0,.834,0,1.246h-4.661c0-.441.01-.862-.007-1.281a.4.4,0,0,0-.161-.3,6.5,6.5,0,0,0-.81-.337.244.244,0,0,0-.216.027,1.687,1.687,0,0,0-.4.628,12.682,12.682,0,0,0,.08,4.273,13.145,13.145,0,0,0,2.727,5.948,13.236,13.236,0,0,0,5.52,4.07,13.232,13.232,0,0,0,7.188.74c.729-.123,1.44-.347,2.179-.53a.913.913,0,0,0-.072-.132,7,7,0,0,1-2-4.134c-.01-.082-.176-.2-.274-.207-.5-.021-1-.01-1.517-.01v-1.177Zm-16.984-20.06c-.336.871-.623,1.635-.932,2.391a.406.406,0,0,1-.293.2c-.322.025-.647.009-.968.009v2.308c.346,0,.663-.011.978.007a.352.352,0,0,1,.267.141c.314.788.61,1.583.944,2.462l-.777.737,1.681,1.675.7-.826c.846.322,1.6.6,2.346.9a.445.445,0,0,1,.219.318c.03.322.01.648.01.966h2.317v-1.146l2.609-1.082.711.836,1.667-1.667-.808-.712c.335-.883.623-1.659.931-2.427a.372.372,0,0,1,.275-.174c.333-.021.669-.008,1-.008V1279c-.344,0-.672.014-1-.008a.377.377,0,0,1-.279-.175c-.308-.767-.6-1.542-.928-2.411l.791-.679-1.693-1.693-.7.786c-.85-.326-1.625-.618-2.392-.928a.367.367,0,0,1-.186-.264c-.023-.334-.009-.67-.009-1h-2.308c0,.346.011.673-.007,1a.343.343,0,0,1-.151.259c-.778.311-1.563.6-2.476.952l-.679-.818-1.68,1.685ZM-1337.9,1304c0-.476.029-.912-.009-1.342a.861.861,0,0,1,.428-.86,5.579,5.579,0,0,0,2.354-5.981,5.78,5.78,0,0,0-7.86-4.153,5.853,5.853,0,0,0-3.588,6.068,5.918,5.918,0,0,0,2.642,4.223.6.6,0,0,1,.222.415c.026.536.01,1.074.01,1.619h2.311V1299.3l-.266-.107a2.317,2.317,0,0,1-1.435-2.55,2.357,2.357,0,0,1,2.27-1.945,2.383,2.383,0,0,1,2.318,1.9,2.32,2.32,0,0,1-1.4,2.576.406.406,0,0,0-.313.452c.011,1.339,0,2.679.006,4.018,0,.113.014.225.022.349Zm-.02,1.222h-5.758v1.1h5.758Zm-4.022-8.193a1.152,1.152,0,0,0,1.147,1.178,1.159,1.159,0,0,0,1.148-1.144,1.152,1.152,0,0,0-1.15-1.172A1.147,1.147,0,0,0-1341.942,1297.024Z" transform="translate(1368.138 -1271.425)" fill="#fff"/>
          <path id="Trazado_197413" data-name="Trazado 197413" d="M-1274.694,1534.811l-1.044,1.731-1.008-.6,2.027-3.382,3.986,1.989-.524,1.052-2.3-1.148a8.588,8.588,0,0,0,2.9,4.474,8.629,8.629,0,0,0,4.882,1.933v1.172a9.732,9.732,0,0,1-5.6-2.175A9.9,9.9,0,0,1-1274.694,1534.811Z" transform="translate(1283.202 -1514.116)" fill="#fff"/>
          <path id="Trazado_197414" data-name="Trazado 197414" d="M-1104.488,1387.921v-1.207a10.06,10.06,0,0,1,8.952,7.2l1.014-1.674,1.007.6c-.64,1.065-1.265,2.111-1.9,3.15a.289.289,0,0,1-.246.114c-1.257-.41-2.51-.833-3.79-1.262l.37-1.109,2.447.809a8.548,8.548,0,0,0-2.861-4.6A8.621,8.621,0,0,0-1104.488,1387.921Z" transform="translate(1123.111 -1378.571)" fill="#fff"/>
          <path id="Trazado_197415" data-name="Trazado 197415" d="M-1310.735,1333.849a4.636,4.636,0,0,1,4.65-4.657,4.65,4.65,0,0,1,4.664,4.649,4.663,4.663,0,0,1-4.656,4.663A4.65,4.65,0,0,1-1310.735,1333.849Zm7.425,2.005.146-.025.577-1.417h-1.142v-1.165h1.135l-.62-1.5-.775.846-.894-.874.828-.669-.03-.122-1.434-.581v1.151h-1.166v-1.15l-1.5.629.862.69-.943.988-.645-.845a3.01,3.01,0,0,0-.571,1.449h1.051v1.167h-1.142l.587,1.409.141.035.661-.782.921.886-.909.741,1.506.609V1336.2h1.183v1.128l1.5-.624-.844-.758.853-.9Z" transform="translate(1314.79 -1325.112)" fill="#fff"/>
          <path id="Trazado_197416" data-name="Trazado 197416" d="M-1045.581,1627.248h-1.137V1626.1h1.137Z" transform="translate(1069.421 -1601.051)" fill="#fff"/>
          <path id="Trazado_197417" data-name="Trazado 197417" d="M-951.128,1583.12l.775-.732.788.8-.8.708Z" transform="translate(980.583 -1560.423)" fill="#fff"/>
          <path id="Trazado_197418" data-name="Trazado 197418" d="M-987.7,1568.279v1.144h-1.12v-1.144Z" transform="translate(1015.613 -1547.311)" fill="#fff"/>
          <path id="Trazado_197419" data-name="Trazado 197419" d="M-949.439,1664.807l-.754.762-.763-.8.789-.775Z" transform="translate(980.424 -1636.266)" fill="#fff"/>
          <path id="Trazado_197420" data-name="Trazado 197420" d="M-1031.6,1583.424l-.762.781-.8-.819.835-.743Z" transform="translate(1056.825 -1560.66)" fill="#fff"/>
          <path id="Trazado_197421" data-name="Trazado 197421" d="M-1031.513,1664.289l.793.745-.828.8-.719-.788Z" transform="translate(1055.991 -1636.539)" fill="#fff"/>
          <path id="Trazado_197422" data-name="Trazado 197422" d="M-930.116,1627.263h-1.119v-1.14h1.119Z" transform="translate(962.095 -1601.069)" fill="#fff"/>
        </g>
      </g>
    </g>
    <g id="Grupo_155656" data-name="Grupo 155656" transform="translate(1144.207 655.51)">
      <circle id="Elipse_4870-2" data-name="Elipse 4870" cx="26.086" cy="26.086" r="26.086" transform="translate(0 0)" fill="#f59d36"/>
      <g id="o4muyW.tif" transform="translate(1088.127 340.286)">
        <g id="Grupo_155880" data-name="Grupo 155880" transform="translate(-1073.546 -332.229)">
          <path id="Trazado_198282" data-name="Trazado 198282" d="M-1053.115-296.665h-16.244c-.027-.02-.051-.054-.08-.059a3.156,3.156,0,0,1-2.032-4.755c1.1-1.887,2.117-3.819,3.171-5.731l1.574-2.856c-.537-.407-1.048-.8-1.571-1.18a.386.386,0,0,0-.309-.014c-.465.172-.919.373-1.385.545a1.033,1.033,0,0,1-1.362-.491q-1.015-1.735-2.01-3.483a1.054,1.054,0,0,1,.292-1.475c.37-.3.757-.573,1.115-.882a.47.47,0,0,0,.134-.372,10.856,10.856,0,0,1,0-3.933.472.472,0,0,0-.145-.369c-.349-.3-.724-.575-1.087-.862a1.062,1.062,0,0,1-.308-1.5q.988-1.731,1.993-3.452a1.048,1.048,0,0,1,1.416-.5c.441.17.874.364,1.32.52a.471.471,0,0,0,.391-.05,11.263,11.263,0,0,1,3.4-1.965.509.509,0,0,0,.26-.336c.094-.487.144-.983.223-1.473a1.022,1.022,0,0,1,1.034-.89q2.082-.009,4.164,0a1.017,1.017,0,0,1,1.034.888c.077.479.155.959.2,1.441a.392.392,0,0,0,.305.39,10.266,10.266,0,0,1,3.34,1.931.379.379,0,0,0,.464.068c.423-.185.852-.356,1.282-.523a1.049,1.049,0,0,1,1.418.492q1.005,1.721,1.994,3.453a1.064,1.064,0,0,1-.3,1.5c-.362.288-.739.558-1.085.864a.51.51,0,0,0-.145.4,10.787,10.787,0,0,1-.005,3.9.472.472,0,0,0,.137.373c.359.309.745.586,1.115.882a1.056,1.056,0,0,1,.294,1.475q-1,1.747-2.01,3.483a1.036,1.036,0,0,1-1.394.48c-.442-.168-.875-.36-1.319-.523a.433.433,0,0,0-.341,0c-.526.375-1.036.771-1.569,1.174.046.088.1.2.163.31,1.545,2.8,3.1,5.6,4.632,8.411a3.121,3.121,0,0,1-2.019,4.616A.8.8,0,0,0-1053.115-296.665Zm-8.109-2.083q3.7,0,7.392,0a1.05,1.05,0,0,0,1.01-1.665q-3.718-6.757-7.442-13.51a1.076,1.076,0,0,0-.986-.648,1.07,1.07,0,0,0-.956.639q-3.727,6.773-7.458,13.544a1.388,1.388,0,0,0-.178.517,1.038,1.038,0,0,0,1.156,1.122Q-1064.954-298.744-1061.224-298.747Zm9.885-16.269c-.372-.292-.709-.573-1.063-.831a1.142,1.142,0,0,1-.458-1.339,8.161,8.161,0,0,0,.019-4.284,1.246,1.246,0,0,1,.522-1.508c.338-.234.65-.5.983-.766l-1.172-2.03c-.476.19-.933.377-1.394.553a.992.992,0,0,1-1.124-.215,9.02,9.02,0,0,0-4.064-2.347,1,1,0,0,1-.761-.891c-.071-.487-.146-.973-.22-1.46h-2.333c-.069.453-.155.893-.2,1.338a1.16,1.16,0,0,1-.961,1.077,8.476,8.476,0,0,0-3.791,2.2,1.108,1.108,0,0,1-1.33.254c-.42-.181-.848-.34-1.279-.512-.363.628-.7,1.232-1.06,1.825-.1.173-.058.26.087.367.307.227.6.476.9.7a1.11,1.11,0,0,1,.421,1.289,8.421,8.421,0,0,0,0,4.42,1.126,1.126,0,0,1-.446,1.312c-.36.266-.7.552-1.073.842l1.174,2.031c.433-.172.846-.321,1.246-.5a1.17,1.17,0,0,1,1.391.263c.5.459,1.044.871,1.6,1.328.2-.354.363-.643.525-.935s.329-.6.492-.9a6.648,6.648,0,0,1-1.417-10.087,6.591,6.591,0,0,1,9.516-.262,6.368,6.368,0,0,1,1.958,4.978,6.579,6.579,0,0,1-3.12,5.364l1.021,1.843c.555-.453,1.09-.842,1.564-1.293a1.221,1.221,0,0,1,1.48-.281c.387.173.786.318,1.2.482Zm-7.5-.559a4.473,4.473,0,0,0,1.929-5.045,4.522,4.522,0,0,0-4.463-3.272,4.528,4.528,0,0,0-4.266,3.57,4.433,4.433,0,0,0,2.015,4.739A3.174,3.174,0,0,1-1058.841-315.575Z" transform="translate(1073.545 332.229)" fill="#fff"/>
          <path id="Trazado_198283" data-name="Trazado 198283" d="M-909.536-22.423c0,.728,0,1.456,0,2.184a1.03,1.03,0,0,1-1.038,1.1,1.029,1.029,0,0,1-1.04-1.1q0-2.2,0-4.4a1.029,1.029,0,0,1,1.038-1.1,1.029,1.029,0,0,1,1.041,1.095C-909.533-23.9-909.536-23.162-909.536-22.423Z" transform="translate(922.884 47.063)" fill="#fff"/>
          <path id="Trazado_198284" data-name="Trazado 198284" d="M-909.517,90.09a1.031,1.031,0,0,1-1.047,1.051,1.032,1.032,0,0,1-1.033-1.03,1.03,1.03,0,0,1,1.046-1.05A1.031,1.031,0,0,1-909.517,90.09Z" transform="translate(922.865 -59.746)" fill="#fff"/>
        </g>
      </g>
    </g>
    <g id="Grupo_155490" data-name="Grupo 155490" transform="translate(963.241 655.51)">
      <circle id="Elipse_4870-3" data-name="Elipse 4870" cx="26.086" cy="26.086" r="26.086" transform="translate(0 0)" fill="#2ec49f"/>
      <g id="_0iDTkt.tif" data-name="0iDTkt.tif" transform="translate(1173.365 -248.842)">
        <g id="Grupo_155879" data-name="Grupo 155879" transform="translate(-1161.049 259.678)">
          <path id="Trazado_198275" data-name="Trazado 198275" d="M-1152.87,290.934a1.01,1.01,0,0,1-.528-1.164h-.343c-1.445,0-2.89,0-4.334,0a2.927,2.927,0,0,1-2.947-2.484,2.652,2.652,0,0,1-.025-.456q0-10.134,0-20.268,0-.619.471-.6a.424.424,0,0,1,.436.387,2.044,2.044,0,0,1,.006.335q0,10.012,0,20.023a1.99,1.99,0,0,0,1.479,2.056,2.624,2.624,0,0,0,.662.082q2.274.01,4.548,0a.733.733,0,0,0,.373-.178,3.736,3.736,0,0,1,.638-.5c.242-.1.271-.238.276-.458a1.655,1.655,0,0,1,1.286-1.674,2.484,2.484,0,0,1,.575-.044q2.625,0,5.25,0a1.685,1.685,0,0,1,1.885,1.877c0,.05,0,.1,0,.172a1.831,1.831,0,0,1,1.031.8.172.172,0,0,0,.117.077,2.652,2.652,0,0,0,2.391-.684,2.1,2.1,0,0,0,.488-1.512,3.881,3.881,0,0,1-.44.045,1.364,1.364,0,0,1-.984-.415c-1.524-1.527-3.055-3.046-4.573-4.579a1.606,1.606,0,0,1,.78-2.593,4.1,4.1,0,0,1,.982-.052.481.481,0,0,0,.287-.075q1.942-1.921,3.865-3.861a.434.434,0,0,0,.07-.289c0-.16-.058-.32-.057-.48.007-1.6.021-3.21.033-4.814,0-.3,0-.608,0-.96h-5.748a2.153,2.153,0,0,1-2.327-2.314q0-2.656,0-5.311v-.349c-.11-.009-.2-.021-.286-.022q-5.189-.025-10.377-.047a2.027,2.027,0,0,0-2.223,2.212c0,.458,0,.916,0,1.374,0,.349-.181.561-.463.557s-.454-.21-.448-.54a16.338,16.338,0,0,1,.071-2.19,2.829,2.829,0,0,1,2.782-2.326q5.342-.01,10.683,0a2.354,2.354,0,0,1,1.7.769q1.9,1.9,3.815,3.782c.99.981,1.975,1.968,2.974,2.94a2.5,2.5,0,0,1,.807,1.931c-.023,1.139-.006,2.279-.006,3.419v.352a3.783,3.783,0,0,1,.376-.117,1.4,1.4,0,0,1,1.365.4q2.239,2.272,4.5,4.522a1.394,1.394,0,0,1,.316,1.623,1.742,1.742,0,0,1-2.047,1.072.329.329,0,0,0-.255.064c-.265.237-.515.491-.792.761l1.929,1.527c.622.492,1.237.993,1.87,1.472a2.979,2.979,0,0,1,1.165,1.551v.733a.446.446,0,0,0-.059.1,2.807,2.807,0,0,1-1.757,1.851,1.537,1.537,0,0,1-1.537-.165,5.087,5.087,0,0,1-.924-.871c-.573-.685-1.11-1.4-1.663-2.1-.449-.571-.9-1.141-1.383-1.754-.271.286-.522.537-.753.8-.049.057-.027.176-.034.267a2.848,2.848,0,0,1-.1,1.028,2.476,2.476,0,0,0-.219,1.2,2.9,2.9,0,0,1-3.019,3h-.679a.946.946,0,0,1-.574,1.1h-6.1c-.179-.169-.356-.339-.245-.623s.349-.3.6-.3q2.516,0,5.032,0h.322c.115-.749-.177-1.1-.884-1.1q-3.934,0-7.868,0a.788.788,0,0,0-.79,1.1c.614,0,1.233-.005,1.852,0,.312,0,.542.233.475.5a1.559,1.559,0,0,1-.267.417Zm10.439-11.164,3.856,3.859,4-4c-.4-.391-.838-.8-1.264-1.225a.825.825,0,0,1-.222-.318.421.421,0,0,1,.216-.518.447.447,0,0,1,.579.107l1.529,1.534a.7.7,0,0,0,1.228-.277.5.5,0,0,0-.109-.585q-2.252-2.257-4.5-4.52a.588.588,0,0,0-.907.067.608.608,0,0,0-.077.932c.355.364.717.722,1.075,1.082s.43.623.207.852-.493.17-.873-.211c-.256-.258-.514-.515-.761-.763Zm2.525-12.069.029-.072-6.452-6.385v.353q0,2.363,0,4.727a1.222,1.222,0,0,0,1.365,1.377q2.394,0,4.788,0Zm3.486,15.221c1.109,1.407,2.211,2.813,3.323,4.212a1.094,1.094,0,0,0,1.04.45,1.869,1.869,0,0,0,1.291-1.178,1.148,1.148,0,0,0-.528-1.287q-1.563-1.241-3.13-2.477l-.964-.76Zm-3.237,2.9a.917.917,0,0,0,.843-.569c.128-.29-.016-.477-.208-.667q-2.214-2.206-4.423-4.417a.6.6,0,0,0-.908.066c-.324.32-.365.632-.1.9q2.259,2.268,4.528,4.527A1.026,1.026,0,0,0-1139.658,285.823Zm-11.55,2.143h7.108c.075-.725-.221-1.063-.914-1.063h-5.28C-1151.005,286.9-1151.282,287.215-1151.208,287.966Z" transform="translate(1161.049 -259.678)" fill="#fff"/>
          <path id="Trazado_198276" data-name="Trazado 198276" d="M-1089.244,511.339q2.624,0,5.247,0c.374,0,.574.15.589.432a.419.419,0,0,1-.365.482,1.885,1.885,0,0,1-.364.023h-10.189c-.081,0-.163,0-.244,0a.48.48,0,0,1-.495-.474.477.477,0,0,1,.512-.458c.732-.009,1.464,0,2.2,0Z" transform="translate(1099.1 -495.944)" fill="#fff"/>
          <path id="Trazado_198277" data-name="Trazado 198277" d="M-1090.125,632.061h-4.148c-.081,0-.163,0-.244,0-.331-.015-.539-.189-.546-.455a.489.489,0,0,1,.551-.481q4.362,0,8.724,0c.356,0,.553.179.552.471s-.188.462-.557.464C-1087.237,632.064-1088.681,632.061-1090.125,632.061Z" transform="translate(1099.1 -608.402)" fill="#fff"/>
          <path id="Trazado_198278" data-name="Trazado 198278" d="M-1088.763,571.24c1.2,0,2.4,0,3.6,0a1.17,1.17,0,0,1,.387.053.367.367,0,0,1,.262.456.812.812,0,0,1-.322.387.764.764,0,0,1-.387.039q-3.55,0-7.1,0c-.5,0-.744-.163-.732-.483s.244-.456.731-.456Z" transform="translate(1097.218 -552.182)" fill="#fff"/>
          <path id="Trazado_198279" data-name="Trazado 198279" d="M-1089.023,392.534h-3.23a2,2,0,0,1-.334-.018.432.432,0,0,1-.39-.437.436.436,0,0,1,.366-.46,1.393,1.393,0,0,1,.332-.022q3.276,0,6.551,0a1.4,1.4,0,0,1,.361.033.417.417,0,0,1,.328.453.415.415,0,0,1-.361.427,1.785,1.785,0,0,1-.333.024Q-1087.378,392.535-1089.023,392.534Z" transform="translate(1097.141 -383.526)" fill="#fff"/>
          <path id="Trazado_198280" data-name="Trazado 198280" d="M-1091.194,452.418q-1.541,0-3.082,0a1.825,1.825,0,0,1-.334-.02.43.43,0,0,1-.382-.445.431.431,0,0,1,.348-.444,1.027,1.027,0,0,1,.271-.028q3.173,0,6.347,0c.11,0,.257-.011.321.052.127.123.291.3.283.443s-.193.3-.333.406c-.074.057-.216.034-.327.035Q-1089.638,452.42-1091.194,452.418Z" transform="translate(1099.032 -439.747)" fill="#fff"/>
          <path id="Trazado_198281" data-name="Trazado 198281" d="M-947.745,452.409c-.773,0-1.546,0-2.319,0-.111,0-.254.022-.326-.036-.138-.11-.311-.263-.327-.413-.015-.134.138-.319.263-.426a.652.652,0,0,1,.38-.06q2.3-.005,4.607,0c.051,0,.1,0,.153,0a.493.493,0,0,1,.524.48.476.476,0,0,1-.514.453c-.61.011-1.22,0-1.831,0Z" transform="translate(963.584 -439.738)" fill="#fff"/>
        </g>
      </g>
    </g>
    <g id="Grupo_142438" data-name="Grupo 142438" transform="translate(421.199 655.51)">
      <ellipse id="Elipse_4775" data-name="Elipse 4775" cx="25.659" cy="26.086" rx="25.659" ry="26.086" transform="translate(0 0)" fill="#f59d36"/>
      <g id="lJ8LYt.tif" transform="translate(553.195 -58.661)">
        <g id="Grupo_155877" data-name="Grupo 155877" transform="translate(-542.345 69.699)">
          <path id="Trazado_198251" data-name="Trazado 198251" d="M-333.61,281.142c-.169-.15-.346-.292-.506-.452q-1.876-1.869-3.747-3.744c-.5-.5-.5-.79,0-1.285.088-.088.191-.161.268-.225l-1.409-1.41a7.166,7.166,0,0,1-6.367,1.393,6.991,6.991,0,0,1-4.222-2.982A7.228,7.228,0,0,1-348.373,263a7.223,7.223,0,0,1,9.634.065,7.237,7.237,0,0,1,.763,9.931l1.411,1.4c.091-.1.209-.255.349-.387a.66.66,0,0,1,1.019,0q2.034,2.019,4.059,4.049a3.883,3.883,0,0,1,.27.335v.436l-2.306,2.306Zm-9.963-18.609a5.89,5.89,0,0,0-5.9,5.916,5.867,5.867,0,0,0,5.992,5.85,5.856,5.856,0,0,0,5.772-5.938A5.873,5.873,0,0,0-343.573,262.533Zm11.028,16.109-3.176-3.181-.83.821,3.176,3.181Z" transform="translate(362.775 -249.235)" fill="#fff"/>
          <path id="Trazado_198252" data-name="Trazado 198252" d="M-531.715,88.307v1.328h-1.3V92.28h2.615v1.327h-5.275v-1.3h1.292V89.64h-.325q-2.789,0-5.577,0a1.976,1.976,0,0,1-2.058-2.057q0-7.914,0-15.829a1.975,1.975,0,0,1,2.059-2.054h22.465a2,2,0,0,1,2.075,2.113q0,5.468,0,10.937v.887H-517.1v-.368q0-5.671,0-11.342c0-.7-.191-.894-.883-.894H-540.1c-.708,0-.909.2-.909.909q0,7.727,0,15.455c0,.7.2.91.907.91q3.988,0,7.977,0Z" transform="translate(542.345 -69.699)" fill="#fff"/>
          <path id="Trazado_198253" data-name="Trazado 198253" d="M-452.941,118.568l-.96-.965c.388-.38.788-.769,1.184-1.161.428-.424.847-.856,1.28-1.274a.331.331,0,0,0,.1-.4,1.981,1.981,0,0,1,1.391-2.578,1.972,1.972,0,0,1,2.448,1.566,3.183,3.183,0,0,1-.083,1.038.326.326,0,0,0,.084.348c.565.55,1.114,1.118,1.681,1.665a.407.407,0,0,0,.336.081,2.252,2.252,0,0,1,1.346,0,.408.408,0,0,0,.341-.067c.576-.554,1.143-1.118,1.695-1.7a.45.45,0,0,0,.049-.373,2,2,0,0,1,1.344-2.536,1.972,1.972,0,0,1,2.487,1.419,1.887,1.887,0,0,1-.55,1.935,1.874,1.874,0,0,1-1.984.454.374.374,0,0,0-.455.111c-.527.545-1.065,1.078-1.606,1.609a.327.327,0,0,0-.1.4,1.978,1.978,0,0,1-.67,2.227,2.027,2.027,0,0,1-2.331.07,1.977,1.977,0,0,1-.785-2.245.407.407,0,0,0-.115-.487c-.546-.526-1.079-1.065-1.609-1.607a.3.3,0,0,0-.377-.091,1.714,1.714,0,0,1-1.277.006.34.34,0,0,0-.428.112C-451.316,116.944-452.132,117.756-452.941,118.568Zm3.474-3.794a.639.639,0,0,0,.665-.63.666.666,0,0,0-.653-.682.671.671,0,0,0-.652.656A.642.642,0,0,0-449.467,114.774Zm9.279,0a.664.664,0,0,0,.7-.632.689.689,0,0,0-.634-.679.667.667,0,0,0-.678.626A.64.64,0,0,0-440.188,114.773Zm-3.961,4a.64.64,0,0,0-.652-.644.663.663,0,0,0-.662.644.688.688,0,0,0,.677.669A.66.66,0,0,0-444.149,118.77Z" transform="translate(459.424 -109.472)" fill="#fff"/>
          <path id="Trazado_198254" data-name="Trazado 198254" d="M-499.8,293.439h1.32c0,.381,0,.759,0,1.138,0,.6.248.843.852.845q.528,0,1.057.006c.018,0,.036.015.069.029v1.3a5.757,5.757,0,0,1-2.115-.176,1.875,1.875,0,0,1-1.178-1.658C-499.827,294.441-499.8,293.953-499.8,293.439Z" transform="translate(502.466 -279.468)" fill="#fff"/>
          <path id="Trazado_198255" data-name="Trazado 198255" d="M-499.552,252.181v-1.3h1.29v1.3Z" transform="translate(502.224 -239.564)" fill="#fff"/>
          <path id="Trazado_198256" data-name="Trazado 198256" d="M-228.915,308.971c-.379,0-.76.012-1.14-.012-.064,0-.162-.156-.172-.248a3.25,3.25,0,0,0-2.264-2.882,7.618,7.618,0,0,0-1.036-.225v-1.252A4.55,4.55,0,0,1-228.915,308.971Z" transform="translate(252.81 -289.691)" fill="#fff"/>
        </g>
      </g>
    </g>
    <path id="Trazado_199669" data-name="Trazado 199669" d="M14.008,0A14.008,14.008,0,1,1,0,14.008,14.008,14.008,0,0,1,14.008,0Z" transform="translate(704.488 715.027)" fill="#12263f"/>
    <path id="Trazado_199670" data-name="Trazado 199670" d="M8.757,3.018l6.62,6.625a1.251,1.251,0,0,0,1.767-1.772L9.643.364A1.249,1.249,0,0,0,7.918.328L.365,7.865A1.251,1.251,0,0,0,2.132,9.638Z" transform="translate(724.09 719.783) rotate(90)" fill="#fff"/>
    <path id="Trazado_199671" data-name="Trazado 199671" d="M14.008,0A14.008,14.008,0,1,1,0,14.008,14.008,14.008,0,0,1,14.008,0Z" transform="translate(884.98 715.027)" fill="#12263f"/>
    <path id="Trazado_199672" data-name="Trazado 199672" d="M8.757,3.018l6.62,6.625a1.251,1.251,0,0,0,1.767-1.772L9.643.364A1.249,1.249,0,0,0,7.918.328L.365,7.865A1.251,1.251,0,0,0,2.132,9.638Z" transform="translate(904.582 719.783) rotate(90)" fill="#fff"/>
    <path id="Trazado_199673" data-name="Trazado 199673" d="M14.008,0A14.008,14.008,0,1,1,0,14.008,14.008,14.008,0,0,1,14.008,0Z" transform="translate(1065.473 715.027)" fill="#12263f"/>
    <path id="Trazado_199674" data-name="Trazado 199674" d="M8.757,3.018l6.62,6.625a1.251,1.251,0,0,0,1.767-1.772L9.643.364A1.249,1.249,0,0,0,7.918.328L.365,7.865A1.251,1.251,0,0,0,2.132,9.638Z" transform="translate(1085.074 719.783) rotate(90)" fill="#fff"/>
    <path id="Trazado_199675" data-name="Trazado 199675" d="M14.008,0A14.008,14.008,0,1,1,0,14.008,14.008,14.008,0,0,1,14.008,0Z" transform="translate(523.996 715.027)" fill="#12263f"/>
    <path id="Trazado_199676" data-name="Trazado 199676" d="M8.757,3.018l6.62,6.625a1.251,1.251,0,0,0,1.767-1.772L9.643.364A1.249,1.249,0,0,0,7.918.328L.365,7.865A1.251,1.251,0,0,0,2.132,9.638Z" transform="translate(543.598 719.783) rotate(90)" fill="#fff"/>
  </g>
</svg>
