<svg xmlns="http://www.w3.org/2000/svg" width="86.034" height="71.161" viewBox="0 0 86.034 71.161">
  <g id="VSgYqh" transform="translate(932.19 872.479)">
    <g id="Grupo_155881" data-name="Grupo 155881" transform="translate(-932.19 -872.479)">
      <path id="Trazado_198285" data-name="Trazado 198285" d="M-889.1-872.477h40.312c2.09,0,2.631.523,2.632,2.616q.009,20.87.012,41.739a2.713,2.713,0,0,1-.828,2.019q-5.376,5.373-10.747,10.75a2.659,2.659,0,0,1-2.011.829q-23.3-.033-46.608-.023-11.673,0-23.346.01c-1.944,0-2.491-.526-2.491-2.459q-.005-23.893,0-47.786c0-1.82,0-3.639.005-5.459.008-1.538.641-2.182,2.17-2.234.224-.008.448,0,.672,0Zm39.394,3.568h-78.9v50.8h67.5v-.872q0-4.032,0-8.063c0-1.747.666-2.413,2.425-2.416q4.032-.007,8.064,0h.908Zm-2.537,42.99h-5.273v5.256Z" transform="translate(932.182 872.479)" fill="#12263f"/>
      <path id="Trazado_198286" data-name="Trazado 198286" d="M-894.4-511.684q17.594,0,35.187.014a7.041,7.041,0,0,1,2.119.339c3.164,1.022,6.313,2.09,9.462,3.158,1.272.431,1.783,1.366,1.256,2.432a2.073,2.073,0,0,1-1.069.947c-3.439,1.2-6.9,2.351-10.356,3.487a4.584,4.584,0,0,1-1.408.158q-35.271.011-70.542.006c-1.845,0-2.446-.612-2.445-2.47,0-1.931,0-3.863.008-5.794.009-1.677.611-2.277,2.264-2.277Zm34.117,3.57h-57.765v3.411h57.765Zm-68.366,3.466c2.244,0,4.416.009,6.586-.02a.63.63,0,0,0,.42-.447c.039-.994.02-1.991.02-2.984h-7.026Zm71.99-.744,3.161-1.042-3.239-1.077c0,.681,0,1.238,0,1.794A1.919,1.919,0,0,0-856.654-505.392Z" transform="translate(932.19 572.303)" fill="#12263f"/>
      <path id="Trazado_198287" data-name="Trazado 198287" d="M-846.766-787.719h-3.966c-1.564,0-2.227-.663-2.229-2.254q-.009-5.417,0-10.835v-.937c-5,0-9.918,0-14.841,0a8.328,8.328,0,0,1-1.086-.063,1.593,1.593,0,0,1-1.553-1.724c-.017-2.575-.006-5.149-.006-7.834-.327-.015-.619-.038-.912-.039-2.24,0-4.479,0-6.719,0a1.866,1.866,0,0,1-2.093-2.058q-.034-4.955,0-9.911a1.923,1.923,0,0,1,2.156-2.095q10.016-.013,20.032,0c1.777,0,2.406.582,2.425,2.337.035,3.239.015,6.48-.025,9.72-.017,1.4-.691,2.005-2.094,2.006-3.048,0-6.1,0-9.209,0v6.13h13.925v-11.39c0-.5-.015-1.009,0-1.512a1.815,1.815,0,0,1,1.992-1.962c1.366-.009,2.733,0,4.2,0,0-.868-.011-1.669,0-2.47a1.7,1.7,0,0,1,1.9-1.917q8.607-.021,17.214,0a1.7,1.7,0,0,1,1.895,1.926q.011,4.157,0,8.315a1.788,1.788,0,0,1-1.935,2.027q-8.567.037-17.134,0a1.784,1.784,0,0,1-1.93-2.017c-.006-.75,0-1.5,0-2.3h-2.625V-805.3h2.624c0-1.069-.007-2.1,0-3.129.011-1.393.638-2.111,2.007-2.117q8.483-.038,16.966,0c1.378.005,2.023.724,2.026,2.107q.008,3.989,0,7.979c0,1.61-.56,2.207-2.129,2.211-3.936.01-7.871-.008-11.807-.016-1.788,0-3.576.014-5.362-.025a1.625,1.625,0,0,1-1.7-1.755c-.015-.525,0-1.051,0-1.6a3.24,3.24,0,0,0-.48-.09c-.7-.007-1.4,0-2.152,0v10.456h2.63c0-1.05,0-2.1,0-3.155.006-1.373.626-2.008,1.973-2.009q8.525,0,17.05,0a1.741,1.741,0,0,1,1.976,1.935q.011,4.158.006,8.315a1.8,1.8,0,0,1-2.022,2q-8.483.011-16.966,0a1.8,1.8,0,0,1-2.027-2C-846.772-786.665-846.766-787.137-846.766-787.719ZM-859.1-821.9h-17.509v6.921H-859.1Zm29.794.911h-13.9v5.152h13.9Zm-13.895,19.18h13.886V-807H-843.2Zm13.895,8.928h-13.885v5.12H-829.3Z" transform="translate(888.927 833.379)" fill="#12263f"/>
      <path id="Trazado_198288" data-name="Trazado 198288" d="M-879.8-595.317h22.731v3.4H-879.8Z" transform="translate(888.601 641.884)" fill="#12263f"/>
      <path id="Trazado_198289" data-name="Trazado 198289" d="M-866.58-657.579v3.36h-13.148v-3.36Z" transform="translate(888.542 693.685)" fill="#12263f"/>
      <path id="Trazado_198290" data-name="Trazado 198290" d="M-866.709-626.316v3.391h-13.166v-3.391Z" transform="translate(888.665 667.675)" fill="#12263f"/>
      <path id="Trazado_198291" data-name="Trazado 198291" d="M-530.513-816.158h-4.255v-3.425h4.255Z" transform="translate(601.54 828.47)" fill="#12263f"/>
      <path id="Trazado_198292" data-name="Trazado 198292" d="M-488.566-816.132h-4.265v-3.437h4.265Z" transform="translate(566.649 828.459)" fill="#12263f"/>
      <path id="Trazado_198293" data-name="Trazado 198293" d="M-530.605-784.989h-4.254v-3.449h4.254Z" transform="translate(601.616 802.558)" fill="#12263f"/>
      <path id="Trazado_198294" data-name="Trazado 198294" d="M-488.515-788.324v3.418h-4.261v-3.418Z" transform="translate(566.603 802.463)" fill="#12263f"/>
      <path id="Trazado_198295" data-name="Trazado 198295" d="M-530.542-753.864h-4.272v-3.444h4.272Z" transform="translate(601.578 776.658)" fill="#12263f"/>
      <path id="Trazado_198296" data-name="Trazado 198296" d="M-488.6-753.9h-4.256v-3.442h4.256Z" transform="translate(566.669 776.689)" fill="#12263f"/>
      <path id="Trazado_198297" data-name="Trazado 198297" d="M-534.987-722.037v-3.409h4.286v3.409Z" transform="translate(601.722 750.15)" fill="#12263f"/>
      <path id="Trazado_198298" data-name="Trazado 198298" d="M-492.941-722.151v-3.427h4.266v3.427Z" transform="translate(566.741 750.259)" fill="#12263f"/>
      <path id="Trazado_198299" data-name="Trazado 198299" d="M-787.439-657.71v3.4h-3.45v-3.4Z" transform="translate(814.629 693.794)" fill="#12263f"/>
    </g>
  </g>
</svg>
