<svg xmlns="http://www.w3.org/2000/svg" width="71.578" height="71.579" viewBox="0 0 71.578 71.579">
  <g id="VF3ejo.tif" transform="translate(923.16 2464.906)">
    <g id="Grupo_155883" data-name="Grupo 155883" transform="translate(-923.16 -2464.906)">
      <path id="Trazado_198307" data-name="Trazado 198307" d="M-851.581-2409.633c-.058.152-.128.3-.172.456a5.774,5.774,0,0,1-5.642,4.3q-9.127.01-18.255,0h-.863c.494,1.495.941,2.91,1.447,4.3.061.168.441.3.681.312a4.633,4.633,0,0,1,4.327,4.488,2.278,2.278,0,0,1-2.423,2.441q-7.4.007-14.791,0t-14.791,0a2.407,2.407,0,0,1-2.589-3.035,4.667,4.667,0,0,1,4.383-3.895c.2-.012.527-.117.578-.258.435-1.193.822-2.4,1.22-3.611.074-.223.131-.452.215-.746h-.852q-9.019,0-18.038,0a5.741,5.741,0,0,1-6.011-6.035q0-18.219,0-36.437a5.736,5.736,0,0,1,6.034-6.01q19.626,0,39.251,0H-877c.145-.7.237-1.364.424-2a12.506,12.506,0,0,1,10.443-9.412,3.1,3.1,0,0,0,.406-.133h2.886a2.906,2.906,0,0,0,.4.134,12.557,12.557,0,0,1,10.358,9.034c.224.677.332,1.392.494,2.089Zm-2.34-35.117c-3.638,4.368-8.159,6.269-13.662,4.771-5.534-1.507-8.508-5.437-9.417-11.074h-.711q-19.62,0-39.24,0c-2.51,0-3.9,1.411-3.9,3.949q0,16.086,0,32.171v.829h.93c6.708,0,13.418-.078,20.124.049,1.935.037,3.429-.343,4.6-1.91a1.46,1.46,0,0,1,1.04-.43c3.871-.03,7.746.089,11.611-.065,1.888-.075,3.36.319,4.449,1.887a1.211,1.211,0,0,0,1.12.478q11.18-.021,22.361-.011c.231,0,.462-.021.7-.032Zm-66.86,32.95c-.383,2.9,1.113,4.623,3.938,4.623h58.935c.168,0,.337,0,.5,0a3.592,3.592,0,0,0,3.4-4.621h-.852c-7.045,0-14.092-.072-21.135.047-1.91.032-3.38-.352-4.53-1.9a1.458,1.458,0,0,0-1.037-.438c-3.222-.033-6.449.093-9.664-.062a4.53,4.53,0,0,0-4.388,1.857,1.279,1.279,0,0,1-1.181.506q-11.542-.024-23.083-.011Zm46.109-40.419a10.456,10.456,0,0,0,10.361,10.406,10.46,10.46,0,0,0,10.423-10.345,10.455,10.455,0,0,0-10.4-10.44A10.451,10.451,0,0,0-874.673-2452.22Zm-2.78,51.95c-.456-1.377-.91-2.662-1.3-3.967a.78.78,0,0,0-.91-.649c-4.78.02-9.56.012-14.34.012-1.769,0-1.771,0-2.319,1.663-.317.963-.629,1.928-.959,2.94Zm5.051,4.6a2.321,2.321,0,0,0-2.624-2.277q-12.333,0-24.666,0c-.168,0-.338-.007-.5.009a2.213,2.213,0,0,0-2.111,2.269Z" transform="translate(923.16 2464.906)" fill="#12263f"/>
      <path id="Trazado_198308" data-name="Trazado 198308" d="M-861.464-2309.461c-2.838,0-5.676.01-8.514,0a5.264,5.264,0,0,1-5.178-6.393q1.854-8.615,3.8-17.21a5.21,5.21,0,0,1,5.17-4.1q4.726-.012,9.451,0a5.21,5.21,0,0,1,5.235,4.1q1.943,8.6,3.806,17.211a5.262,5.262,0,0,1-5.19,6.383C-855.74-2309.451-858.6-2309.461-861.464-2309.461Zm-5.729-25.189a2.965,2.965,0,0,0-1.908,2.246c-1.239,5.572-2.5,11.14-3.719,16.717-.5,2.306.846,3.918,3.214,3.922q3.644.006,7.288,0c3.1,0,6.206.016,9.308-.006a2.971,2.971,0,0,0,3.013-3.717c-.512-2.441-1.065-4.873-1.605-7.308q-1.076-4.847-2.165-9.69a2.809,2.809,0,0,0-1.886-2.145c0,1.814,0,3.52,0,5.225a7.051,7.051,0,0,1-.076,1.292,5.784,5.784,0,0,1-6.312,4.784,5.8,5.8,0,0,1-5.147-5.875C-867.2-2330.979-867.193-2332.753-867.193-2334.65Zm9.213-.17h-6.886c0,2.054-.094,4.073.028,6.079a3.39,3.39,0,0,0,3.385,3.118,3.391,3.391,0,0,0,3.445-3.131C-857.886-2330.758-857.98-2332.776-857.98-2334.82Z" transform="translate(882.203 2355.639)" fill="#12263f"/>
      <path id="Trazado_198309" data-name="Trazado 198309" d="M-651.466-2238.869v-2.218h25.3v2.218Z" transform="translate(690.755 2273.453)" fill="#12263f"/>
      <path id="Trazado_198310" data-name="Trazado 198310" d="M-651.577-2174.862v-2.2h25.319v2.2Z" transform="translate(690.849 2218.685)" fill="#12263f"/>
      <path id="Trazado_198311" data-name="Trazado 198311" d="M-619.54-2270.8v-2.216h20.708v2.216Z" transform="translate(663.445 2300.763)" fill="#12263f"/>
      <path id="Trazado_198312" data-name="Trazado 198312" d="M-651.459-2206.938v-2.221h18.373v2.221Z" transform="translate(690.749 2246.141)" fill="#12263f"/>
      <path id="Trazado_198313" data-name="Trazado 198313" d="M-503.106-2206.827h-4.5v-2.241h4.5Z" transform="translate(567.694 2246.064)" fill="#12263f"/>
      <path id="Trazado_198314" data-name="Trazado 198314" d="M-651.466-2273.08h2.222v2.235h-2.222Z" transform="translate(690.755 2300.819)" fill="#12263f"/>
      <path id="Trazado_198315" data-name="Trazado 198315" d="M-555.659-2145.338h2.222v2.235h-2.222Z" transform="translate(608.802 2191.549)" fill="#12263f"/>
      <path id="Trazado_198316" data-name="Trazado 198316" d="M-523.693-2145.307h2.214v2.226h-2.214Z" transform="translate(581.458 2191.523)" fill="#12263f"/>
      <path id="Trazado_198317" data-name="Trazado 198317" d="M-491.745-2145.3h2.21v2.223h-2.21Z" transform="translate(554.13 2191.514)" fill="#12263f"/>
      <path id="Trazado_198318" data-name="Trazado 198318" d="M-715.214-2097.413H-713v2.214h-2.212Z" transform="translate(745.284 2150.555)" fill="#12263f"/>
      <path id="Trazado_198319" data-name="Trazado 198319" d="M-681.073-2095.094h-2.215v-2.228h2.215Z" transform="translate(717.975 2150.476)" fill="#12263f"/>
      <path id="Trazado_198320" data-name="Trazado 198320" d="M-651.435-2097.4h2.214v2.226h-2.214Z" transform="translate(690.728 2150.547)" fill="#12263f"/>
      <path id="Trazado_198321" data-name="Trazado 198321" d="M-556.84-2395.305l-4.18-4.181,1.676-1.49,2.436,2.582,8.478-8.491,1.533,1.637Z" transform="translate(613.388 2415.275)" fill="#12263f"/>
      <path id="Trazado_198322" data-name="Trazado 198322" d="M-569.2-2424.68h-2.2c-.384-3.606,3.123-8.139,7.985-8.01v2.244a6.123,6.123,0,0,0-4.044,1.7A6.034,6.034,0,0,0-569.2-2424.68Z" transform="translate(622.292 2437.352)" fill="#12263f"/>
    </g>
  </g>
</svg>
