<svg xmlns="http://www.w3.org/2000/svg" width="382.012" height="98.593" viewBox="0 0 382.012 98.593">
  <g id="Grupo_161556" data-name="Grupo 161556" transform="translate(-877 -5884.19)">
    <path id="Trazado_199658" data-name="Trazado 199658" d="M10.775,8.339H6.855V19H4.219V8.339H.352V6.2H10.775ZM14.792,19H12.243V9.49h2.549Zm-2.7-11.971a1.251,1.251,0,0,1,.382-.94,1.436,1.436,0,0,1,1.042-.369,1.44,1.44,0,0,1,1.037.369,1.244,1.244,0,0,1,.387.94,1.247,1.247,0,0,1-.391.949,1.629,1.629,0,0,1-2.065,0A1.247,1.247,0,0,1,12.094,7.029Zm9.167,12.146a4.668,4.668,0,0,1-3.406-1.283,4.561,4.561,0,0,1-1.314-3.419v-.246a5.745,5.745,0,0,1,.554-2.562,4.064,4.064,0,0,1,1.569-1.74,4.4,4.4,0,0,1,2.316-.611,3.947,3.947,0,0,1,3.072,1.23,5,5,0,0,1,1.121,3.489v1.037H19.116a2.36,2.36,0,0,0,.743,1.494,2.245,2.245,0,0,0,1.569.563,2.742,2.742,0,0,0,2.294-1.063l1.248,1.4a3.813,3.813,0,0,1-1.547,1.261A5.075,5.075,0,0,1,21.261,19.176Zm-.29-7.813a1.587,1.587,0,0,0-1.226.512,2.651,2.651,0,0,0-.6,1.466h3.533v-.2a1.891,1.891,0,0,0-.457-1.311A1.638,1.638,0,0,0,20.971,11.362ZM29,9.49l.079,1.063a3.342,3.342,0,0,1,2.733-1.239,2.536,2.536,0,0,1,2.522,1.45,3.265,3.265,0,0,1,2.856-1.45,2.836,2.836,0,0,1,2.3.9,4.141,4.141,0,0,1,.756,2.711V19H37.7V12.936a1.811,1.811,0,0,0-.316-1.182,1.4,1.4,0,0,0-1.116-.374,1.585,1.585,0,0,0-1.582,1.09L34.69,19H32.15V12.944a1.789,1.789,0,0,0-.325-1.2,1.416,1.416,0,0,0-1.107-.369,1.646,1.646,0,0,0-1.564.9V19h-2.54V9.49Zm21.762,4.843a5.7,5.7,0,0,1-1,3.52,3.2,3.2,0,0,1-2.694,1.323,2.963,2.963,0,0,1-2.329-1v4.482H42.2V9.49h2.355l.088.932a2.985,2.985,0,0,1,2.408-1.107,3.22,3.22,0,0,1,2.733,1.3,5.858,5.858,0,0,1,.976,3.586Zm-2.54-.185a3.743,3.743,0,0,0-.47-2.048,1.532,1.532,0,0,0-1.367-.721,1.663,1.663,0,0,0-1.644.914v3.894a1.692,1.692,0,0,0,1.661.94Q48.217,17.128,48.217,14.148Zm3.718.009a5.64,5.64,0,0,1,.545-2.522,3.989,3.989,0,0,1,1.569-1.714,4.577,4.577,0,0,1,2.377-.606,4.33,4.33,0,0,1,3.142,1.178,4.727,4.727,0,0,1,1.358,3.2l.018.65a4.97,4.97,0,0,1-1.222,3.511,4.735,4.735,0,0,1-6.561,0,5.058,5.058,0,0,1-1.226-3.586Zm2.54.18a3.555,3.555,0,0,0,.51,2.073,1.831,1.831,0,0,0,2.9.009,3.89,3.89,0,0,0,.519-2.267,3.519,3.519,0,0,0-.519-2.06,1.686,1.686,0,0,0-1.459-.731,1.658,1.658,0,0,0-1.441.726A3.955,3.955,0,0,0,54.475,14.338Zm16.893,4.838a4.668,4.668,0,0,1-3.406-1.283,4.561,4.561,0,0,1-1.314-3.419v-.246a5.745,5.745,0,0,1,.554-2.562,4.064,4.064,0,0,1,1.569-1.74,4.4,4.4,0,0,1,2.316-.611,3.947,3.947,0,0,1,3.072,1.23,5,5,0,0,1,1.121,3.489v1.037H69.223a2.36,2.36,0,0,0,.743,1.494,2.245,2.245,0,0,0,1.569.563,2.742,2.742,0,0,0,2.294-1.063l1.248,1.4a3.813,3.813,0,0,1-1.547,1.261A5.075,5.075,0,0,1,71.367,19.176Zm-.29-7.813a1.587,1.587,0,0,0-1.226.512,2.651,2.651,0,0,0-.6,1.466h3.533v-.2a1.891,1.891,0,0,0-.457-1.311A1.638,1.638,0,0,0,71.077,11.362Zm10.793,5.01a.818.818,0,0,0-.461-.734,5.241,5.241,0,0,0-1.481-.479q-3.393-.712-3.393-2.883a2.613,2.613,0,0,1,1.05-2.114,4.237,4.237,0,0,1,2.747-.848,4.56,4.56,0,0,1,2.9.853,2.687,2.687,0,0,1,1.085,2.215h-2.54a1.229,1.229,0,0,0-.352-.9,1.488,1.488,0,0,0-1.1-.356,1.52,1.52,0,0,0-.993.29.916.916,0,0,0-.352.738.783.783,0,0,0,.4.681,4.114,4.114,0,0,0,1.349.448,11.019,11.019,0,0,1,1.6.426,2.628,2.628,0,0,1,2.013,2.558,2.481,2.481,0,0,1-1.116,2.1,4.815,4.815,0,0,1-2.883.8,5.029,5.029,0,0,1-2.123-.426,3.561,3.561,0,0,1-1.455-1.169,2.716,2.716,0,0,1-.527-1.6h2.408a1.326,1.326,0,0,0,.5,1.037,1.987,1.987,0,0,0,1.248.36,1.839,1.839,0,0,0,1.1-.277A.861.861,0,0,0,81.87,16.372Zm7.146-9.22V9.49h1.626v1.863H89.016V16.1a1.133,1.133,0,0,0,.2.756,1.015,1.015,0,0,0,.773.229,4.051,4.051,0,0,0,.747-.062v1.925a5.229,5.229,0,0,1-1.538.229,2.425,2.425,0,0,1-2.725-2.7V11.354H85.087V9.49h1.389V7.152ZM94.737,19H92.188V9.49h2.549Zm-2.7-11.971a1.251,1.251,0,0,1,.382-.94,1.648,1.648,0,0,1,2.079,0,1.244,1.244,0,0,1,.387.94,1.247,1.247,0,0,1-.391.949,1.629,1.629,0,0,1-2.065,0A1.247,1.247,0,0,1,92.039,7.029ZM99.211,9.49l.079,1.063a3.342,3.342,0,0,1,2.733-1.239,2.536,2.536,0,0,1,2.522,1.45,3.265,3.265,0,0,1,2.856-1.45,2.836,2.836,0,0,1,2.3.9,4.141,4.141,0,0,1,.756,2.711V19h-2.549V12.936a1.811,1.811,0,0,0-.316-1.182,1.4,1.4,0,0,0-1.116-.374,1.585,1.585,0,0,0-1.582,1.09l.009,6.53h-2.54V12.944a1.789,1.789,0,0,0-.325-1.2,1.416,1.416,0,0,0-1.107-.369,1.646,1.646,0,0,0-1.564.9V19h-2.54V9.49ZM117.923,19a2.821,2.821,0,0,1-.255-.853,3.073,3.073,0,0,1-2.4,1.028,3.376,3.376,0,0,1-2.316-.809,2.6,2.6,0,0,1-.918-2.039,2.687,2.687,0,0,1,1.121-2.32,5.529,5.529,0,0,1,3.239-.817h1.169v-.545a1.567,1.567,0,0,0-.338-1.055,1.331,1.331,0,0,0-1.068-.4,1.513,1.513,0,0,0-1.006.308,1.045,1.045,0,0,0-.365.844h-2.54a2.551,2.551,0,0,1,.51-1.529,3.37,3.37,0,0,1,1.441-1.1,5.253,5.253,0,0,1,2.092-.4,4.15,4.15,0,0,1,2.791.883,3.09,3.09,0,0,1,1.033,2.483V16.8a4.546,4.546,0,0,0,.378,2.048V19Zm-2.1-1.767a2.188,2.188,0,0,0,1.037-.25,1.645,1.645,0,0,0,.7-.672V14.676h-.949q-1.907,0-2.03,1.318l-.009.149a1.017,1.017,0,0,0,.334.782A1.3,1.3,0,0,0,115.822,17.233Zm5.845-3.059a5.731,5.731,0,0,1,1-3.542,3.237,3.237,0,0,1,2.729-1.318,2.913,2.913,0,0,1,2.294,1.037V5.5h2.549V19h-2.294l-.123-1.011a2.989,2.989,0,0,1-2.443,1.187,3.228,3.228,0,0,1-2.694-1.323A5.916,5.916,0,0,1,121.667,14.175Zm2.54.189a3.754,3.754,0,0,0,.466,2.051,1.517,1.517,0,0,0,1.354.713,1.7,1.7,0,0,0,1.661-.995V12.375a1.675,1.675,0,0,0-1.644-.995Q124.207,11.38,124.207,14.364Zm7.6-.207a5.64,5.64,0,0,1,.545-2.522,3.989,3.989,0,0,1,1.569-1.714,4.577,4.577,0,0,1,2.377-.606,4.33,4.33,0,0,1,3.142,1.178,4.727,4.727,0,0,1,1.358,3.2l.018.65a4.97,4.97,0,0,1-1.222,3.511,4.735,4.735,0,0,1-6.561,0,5.058,5.058,0,0,1-1.226-3.586Zm2.54.18a3.555,3.555,0,0,0,.51,2.073,1.831,1.831,0,0,0,2.9.009,3.89,3.89,0,0,0,.519-2.267,3.519,3.519,0,0,0-.519-2.06,1.686,1.686,0,0,0-1.459-.731,1.658,1.658,0,0,0-1.441.726A3.955,3.955,0,0,0,134.35,14.338Zm12.12-.163a5.731,5.731,0,0,1,1-3.542A3.237,3.237,0,0,1,150.2,9.314a2.913,2.913,0,0,1,2.294,1.037V5.5h2.549V19h-2.294l-.123-1.011a2.989,2.989,0,0,1-2.443,1.187,3.228,3.228,0,0,1-2.694-1.323A5.916,5.916,0,0,1,146.47,14.175Zm2.54.189a3.754,3.754,0,0,0,.466,2.051,1.517,1.517,0,0,0,1.354.713,1.7,1.7,0,0,0,1.661-.995V12.375a1.675,1.675,0,0,0-1.644-.995Q149.01,11.38,149.01,14.364Zm12.375,4.812a4.668,4.668,0,0,1-3.406-1.283,4.561,4.561,0,0,1-1.314-3.419v-.246a5.745,5.745,0,0,1,.554-2.562,4.064,4.064,0,0,1,1.569-1.74,4.4,4.4,0,0,1,2.316-.611,3.947,3.947,0,0,1,3.072,1.23,5,5,0,0,1,1.121,3.489v1.037H159.24a2.36,2.36,0,0,0,.743,1.494,2.245,2.245,0,0,0,1.569.563,2.742,2.742,0,0,0,2.294-1.063l1.248,1.4a3.813,3.813,0,0,1-1.547,1.261A5.075,5.075,0,0,1,161.385,19.176Zm-.29-7.813a1.587,1.587,0,0,0-1.226.512,2.651,2.651,0,0,0-.6,1.466H162.8v-.2a1.891,1.891,0,0,0-.457-1.311A1.638,1.638,0,0,0,161.095,11.362Zm15.469.51a6.9,6.9,0,0,0-.914-.07,1.86,1.86,0,0,0-1.89.976V19h-2.54V9.49h2.4l.07,1.134a2.354,2.354,0,0,1,2.118-1.31,2.662,2.662,0,0,1,.791.114Zm5.6,7.3a4.668,4.668,0,0,1-3.406-1.283,4.561,4.561,0,0,1-1.314-3.419v-.246A5.745,5.745,0,0,1,178,11.666a4.064,4.064,0,0,1,1.569-1.74,4.4,4.4,0,0,1,2.316-.611,3.947,3.947,0,0,1,3.072,1.23,5,5,0,0,1,1.121,3.489v1.037h-6.056a2.36,2.36,0,0,0,.743,1.494,2.245,2.245,0,0,0,1.569.563,2.742,2.742,0,0,0,2.294-1.063l1.248,1.4a3.813,3.813,0,0,1-1.547,1.261A5.075,5.075,0,0,1,182.162,19.176Zm-.29-7.813a1.587,1.587,0,0,0-1.226.512,2.651,2.651,0,0,0-.6,1.466h3.533v-.2a1.891,1.891,0,0,0-.457-1.311A1.638,1.638,0,0,0,181.872,11.362ZM193.025,19a2.821,2.821,0,0,1-.255-.853,3.073,3.073,0,0,1-2.4,1.028,3.376,3.376,0,0,1-2.316-.809,2.6,2.6,0,0,1-.918-2.039,2.687,2.687,0,0,1,1.121-2.32,5.529,5.529,0,0,1,3.239-.817h1.169v-.545a1.567,1.567,0,0,0-.338-1.055,1.331,1.331,0,0,0-1.068-.4,1.513,1.513,0,0,0-1.006.308,1.045,1.045,0,0,0-.365.844h-2.54a2.551,2.551,0,0,1,.51-1.529,3.37,3.37,0,0,1,1.441-1.1,5.253,5.253,0,0,1,2.092-.4,4.15,4.15,0,0,1,2.791.883,3.09,3.09,0,0,1,1.033,2.483V16.8a4.546,4.546,0,0,0,.378,2.048V19Zm-2.1-1.767a2.188,2.188,0,0,0,1.037-.25,1.645,1.645,0,0,0,.7-.672V14.676h-.949q-1.907,0-2.03,1.318l-.009.149a1.017,1.017,0,0,0,.334.782A1.3,1.3,0,0,0,190.925,17.233ZM199.846,19H197.3V5.5h2.549Zm4.772,0h-2.549V9.49h2.549Zm-2.7-11.971a1.251,1.251,0,0,1,.382-.94,1.648,1.648,0,0,1,2.079,0,1.244,1.244,0,0,1,.387.94,1.247,1.247,0,0,1-.391.949,1.629,1.629,0,0,1-2.065,0A1.247,1.247,0,0,1,201.92,7.029Zm7.708,9.923h4.649V19h-7.893V17.453l4.474-5.915h-4.342V9.49h7.62v1.5ZM221.379,19a2.821,2.821,0,0,1-.255-.853,3.073,3.073,0,0,1-2.4,1.028,3.376,3.376,0,0,1-2.316-.809,2.6,2.6,0,0,1-.918-2.039,2.687,2.687,0,0,1,1.121-2.32,5.529,5.529,0,0,1,3.239-.817h1.169v-.545a1.567,1.567,0,0,0-.338-1.055,1.331,1.331,0,0,0-1.068-.4,1.513,1.513,0,0,0-1.006.308,1.045,1.045,0,0,0-.365.844H215.7a2.551,2.551,0,0,1,.51-1.529,3.37,3.37,0,0,1,1.441-1.1,5.253,5.253,0,0,1,2.092-.4,4.15,4.15,0,0,1,2.791.883,3.09,3.09,0,0,1,1.033,2.483V16.8a4.546,4.546,0,0,0,.378,2.048V19Zm-2.1-1.767a2.188,2.188,0,0,0,1.037-.25,1.645,1.645,0,0,0,.7-.672V14.676h-.949q-1.907,0-2.03,1.318l-.009.149a1.017,1.017,0,0,0,.334.782A1.3,1.3,0,0,0,219.278,17.233Zm10.2-.105a1.666,1.666,0,0,0,1.143-.387,1.355,1.355,0,0,0,.457-1.028h2.382a3.258,3.258,0,0,1-.527,1.771,3.48,3.48,0,0,1-1.419,1.248,4.442,4.442,0,0,1-1.991.444,4.129,4.129,0,0,1-3.217-1.3,5.13,5.13,0,0,1-1.178-3.582v-.167a5.071,5.071,0,0,1,1.169-3.507,4.08,4.08,0,0,1,3.208-1.31,4,4,0,0,1,2.861,1.015,3.594,3.594,0,0,1,1.094,2.7h-2.382a1.745,1.745,0,0,0-.457-1.206,1.7,1.7,0,0,0-2.5.183,3.749,3.749,0,0,0-.453,2.1v.264a3.8,3.8,0,0,0,.448,2.113A1.549,1.549,0,0,0,229.474,17.128ZM237.586,19h-2.549V9.49h2.549Zm-2.7-11.971a1.251,1.251,0,0,1,.382-.94,1.648,1.648,0,0,1,2.079,0,1.244,1.244,0,0,1,.387.94,1.247,1.247,0,0,1-.391.949,1.629,1.629,0,0,1-2.065,0A1.247,1.247,0,0,1,234.888,7.029Zm4.395,7.128a5.64,5.64,0,0,1,.545-2.522A3.989,3.989,0,0,1,241.4,9.921a4.577,4.577,0,0,1,2.377-.606,4.33,4.33,0,0,1,3.142,1.178,4.727,4.727,0,0,1,1.358,3.2l.018.65a4.97,4.97,0,0,1-1.222,3.511,4.735,4.735,0,0,1-6.561,0,5.058,5.058,0,0,1-1.226-3.586Zm2.54.18a3.555,3.555,0,0,0,.51,2.073,1.831,1.831,0,0,0,2.9.009,3.89,3.89,0,0,0,.519-2.267,3.519,3.519,0,0,0-.519-2.06,1.686,1.686,0,0,0-1.459-.731,1.658,1.658,0,0,0-1.441.726A3.955,3.955,0,0,0,241.822,14.338ZM244.274,5.5h2.769l-2.435,2.725h-2.065Zm7.919,3.99.079,1.1a3.32,3.32,0,0,1,2.733-1.274,2.759,2.759,0,0,1,2.25.888,4.142,4.142,0,0,1,.756,2.654V19h-2.54V12.918a1.648,1.648,0,0,0-.352-1.173,1.574,1.574,0,0,0-1.169-.365,1.747,1.747,0,0,0-1.608.914V19H249.8V9.49Z" transform="translate(1001 5951.093)" fill="#fff"/>
    <path id="Trazado_199657" data-name="Trazado 199657" d="M12.5,0,25,19H0Z" transform="translate(896 5927.904) rotate(90)" fill="#f59d36"/>
    <g id="eZtkOX.tif" transform="translate(906.189 7095.061)">
      <g id="Grupo_161524" data-name="Grupo 161524" transform="translate(-10.818 -1210.871)">
        <path id="Trazado_199616" data-name="Trazado 199616" d="M87.783-1145.566a20.16,20.16,0,0,1-.913,2.478,7.641,7.641,0,0,1-6.483,4.424c-3.1.2-6.215.045-9.391.045v-3.251c2.725,0,5.42.017,8.115-.012a7.24,7.24,0,0,0,2.02-.264,4.768,4.768,0,0,0,3.346-4.469c.03-8.694.014-17.387.012-26.081a2.235,2.235,0,0,0-.085-.38c-3,0-6-.022-9,.016-.685.009-.913.573-.578,1.164,2.653,4.675.962,8.66-4.288,9.989a9.238,9.238,0,0,1-8.178-1.552,5.6,5.6,0,0,1-1.233-8.222c.176-.251.369-.7.26-.888a1.208,1.208,0,0,0-.891-.493c-2.906-.036-5.812-.022-8.812-.022-.018.378-.047.706-.047,1.034,0,2.6-.013,5.2,0,7.8a3.963,3.963,0,0,1-2.227,3.859,3.885,3.885,0,0,1-4.413-.526c-1.284-1-2.584-.961-3.481.355a13.733,13.733,0,0,0-1.345,3.361c-.076.224.177.551.253.837a3.08,3.08,0,0,1,.274,1.266c-.324,1.5.573,2.318,1.6,3.015,1.05.709,1.987.25,2.9-.455a3.737,3.737,0,0,1,4.153-.423,3.79,3.79,0,0,1,2.268,3.514c.049,2.155.014,4.312.016,6.469v1.093h3.4v3.258h-9.97c0,1.111.014,2.094,0,3.076a1.684,1.684,0,0,1-1.907,1.889c-1.13.017-2.261-.032-3.388.03a1.106,1.106,0,0,0-.779.547,32.705,32.705,0,0,0-1.316,3.221,1.217,1.217,0,0,0,.189,1.019c.771.869,1.635,1.655,2.443,2.493a1.5,1.5,0,0,1,.022,2.419q-3.382,3.443-6.821,6.829a1.664,1.664,0,0,1-2.545-.014c-.818-.778-1.581-1.616-2.417-2.373a1.121,1.121,0,0,0-.927-.261c-1.3.5-2.571,1.078-3.912,1.657,0,1.259.012,2.558,0,3.856-.016,1.334-.614,1.93-1.963,1.935q-4.622.017-9.243,0c-1.334-.006-1.919-.612-1.933-1.963-.013-1.3,0-2.6,0-3.831-1.36-.586-2.633-1.163-3.934-1.668a1.015,1.015,0,0,0-.851.224c-.809.737-1.556,1.541-2.342,2.3a1.722,1.722,0,0,1-2.765.043q-3.322-3.285-6.608-6.607c-.951-.962-.936-1.682,0-2.654.785-.812,1.614-1.582,2.377-2.414a1.016,1.016,0,0,0,.227-.85c-.507-1.3-1.087-2.573-1.677-3.936-1.228,0-2.526.01-3.824,0-1.353-.014-1.959-.6-1.964-1.932q-.02-4.62,0-9.241c.005-1.354.6-1.948,1.931-1.963,1.3-.015,2.6,0,3.855,0,.6-1.37,1.192-2.669,1.709-4a1.061,1.061,0,0,0-.3-.839c-.742-.8-1.545-1.553-2.305-2.341a1.7,1.7,0,0,1-.016-2.69q3.284-3.323,6.609-6.607a1.7,1.7,0,0,1,2.692,0c.814.783,1.581,1.615,2.414,2.376a1.008,1.008,0,0,0,.854.2c1.3-.506,2.571-1.083,3.918-1.665,0-1.113.044-2.276-.012-3.435-.061-1.243.282-2.161,1.655-2.427v-1.887q0-15.864,0-31.728c0-4.836,2.156-7.651,6.822-8.913.06-.016.108-.077.162-.118H80.8c.22.074.436.161.66.22A8.158,8.158,0,0,1,87.1-1205.9c.288.642.457,1.337.681,2.008Zm-72.3-30.8c2.957,0,5.792.014,8.626-.016a4.6,4.6,0,0,0,1.2-.353,4.845,4.845,0,0,0-.429-1.18,5.528,5.528,0,0,1,.748-7.6,9.593,9.593,0,0,1,12.579.01,5.584,5.584,0,0,1,.7,7.688c-.218.289-.446.827-.319,1.05.144.253.681.384,1.05.389,2.67.031,5.34.019,8.01.012a5.24,5.24,0,0,0,.7-.1c0-3.043-.016-6.02.006-9a3.824,3.824,0,0,1,2.257-3.626,3.843,3.843,0,0,1,4.244.455c1.569,1.173,2.93.972,3.983-.681a6.3,6.3,0,0,0,.393-6.272c-1.006-2.238-2.55-2.63-4.561-1.233a3.968,3.968,0,0,1-6.152-2.227,7.337,7.337,0,0,1-.165-1.827c-.018-2.212-.007-4.424-.007-6.707H47.21q-13.146,0-26.291,0c-3.425,0-5.437,2-5.439,5.4q-.006,9.241,0,18.482Zm36.152-31.215c0,2.484-.015,4.809.016,7.134,0,.336.162.9.361.952a1.472,1.472,0,0,0,1.08-.285,5.542,5.542,0,0,1,7.888.936,9.19,9.19,0,0,1,1.843,8.483,7.3,7.3,0,0,1-4.122,5.317,5.388,5.388,0,0,1-5.761-.914c-.741-.559-1.289-.2-1.3.774-.02,2.224-.007,4.448-.007,6.672,0,.7,0,1.4,0,2.148h4.563c1.506,0,3.012-.016,4.517.005a3.858,3.858,0,0,1,3.636,2.244,3.843,3.843,0,0,1-.434,4.246c-1.194,1.612-.974,2.986.737,4.041a6.366,6.366,0,0,0,6.28.318c1.684-.765,2.877-2.5,1.209-4.541a3.881,3.881,0,0,1,2.149-6.136,6.256,6.256,0,0,1,1.621-.169c2.83-.016,5.661-.007,8.587-.007v-1.1q0-12.317,0-24.635c0-3.5-1.98-5.478-5.466-5.479q-13.141,0-26.283,0ZM-2.711-1155.3c.937.9,1.771,1.708,2.616,2.507a1.916,1.916,0,0,1,.322,2.5c-.8,1.726-1.524,3.5-2.193,5.28-.408,1.087-.823,1.492-2.01,1.5-1.154.011-2.307,0-3.485,0v6.572c1.19,0,2.314-.007,3.438,0,1.26.01,1.638.392,2.069,1.557q.972,2.633,2.152,5.188c.52,1.128.537,1.7-.338,2.573-.821.815-1.684,1.588-2.469,2.324l4.787,4.774c.728-.766,1.492-1.6,2.287-2.4.929-.936,1.462-.927,2.648-.369,1.632.768,3.3,1.485,4.993,2.094,1.392.5,1.722.8,1.728,2.242,0,1.113,0,2.226,0,3.313h6.574c0-1.212.019-2.368-.006-3.524a1.876,1.876,0,0,1,1.437-1.967q2.77-1.042,5.47-2.266a1.839,1.839,0,0,1,2.33.328c.832.859,1.657,1.726,2.443,2.544l4.662-4.665a.2.2,0,0,0-.056-.1c-.745-.755-1.495-1.505-2.239-2.261-.936-.951-.943-1.48-.4-2.647.785-1.7,1.5-3.433,2.152-5.188.432-1.169.806-1.546,2.069-1.555,1.15-.008,2.3,0,3.422,0v-6.572c-1.177,0-2.271.005-3.365,0-1.323-.008-1.689-.378-2.136-1.6-.63-1.726-1.333-3.431-2.113-5.094-.576-1.23-.583-1.74.409-2.727.789-.786,1.6-1.551,2.267-2.2l-4.685-4.7c-.724.731-1.511,1.54-2.315,2.331a1.863,1.863,0,0,1-2.572.367c-1.7-.783-3.429-1.511-5.185-2.159-1.177-.435-1.572-.811-1.583-2.047-.01-1.151,0-2.3,0-3.458H13.835c0,1.233-.013,2.393,0,3.552a1.875,1.875,0,0,1-1.482,1.932q-2.682.988-5.287,2.176c-1.122.512-1.692.524-2.568-.363-.809-.821-1.577-1.683-2.376-2.542-.331.313-.507.473-.677.64C.108-1158.082-1.232-1156.761-2.711-1155.3Zm51.054-17.779h-1q-3.953,0-7.906,0a3.929,3.929,0,0,1-3.825-2.276,3.863,3.863,0,0,1,.525-4.322,2.375,2.375,0,0,0-.5-3.73,6.549,6.549,0,0,0-7.415-.041,2.4,2.4,0,0,0-.523,3.8,3.858,3.858,0,0,1,.484,4.328,3.9,3.9,0,0,1-3.746,2.239c-2.635,0-5.271,0-7.906,0-.33,0-.66.03-.981.045v4.882c2.093,0,4.11-.008,6.127,0,1.414.007,2,.587,2.01,1.99.012,1.3,0,2.593,0,3.806,1.348.578,2.592,1.146,3.867,1.63a1.109,1.109,0,0,0,.934-.208c.767-.679,1.466-1.435,2.2-2.157,1.136-1.124,1.932-1.13,3.061-.01s2.257,2.262,3.461,3.471c.238-.515.416-.911.6-1.3,1.783-3.733,5.945-5.288,9.24-2.562a1.027,1.027,0,0,0,.907.18,1.15,1.15,0,0,0,.363-.872C48.354-1167.1,48.343-1170,48.343-1173.084ZM39.257-1146.8c1.317,0,2.614-.014,3.91,0a1.679,1.679,0,0,1,1.887,1.9c.017.98,0,1.96,0,2.96h3.287c0-2.347.019-4.63-.018-6.912a4.293,4.293,0,0,0-.379-1.184,4.887,4.887,0,0,0-1.178.418,5.572,5.572,0,0,1-7.861-1.075c-.3-.355-.581-.724-.871-1.086l-.3.028c-.042.368-.219.787-.1,1.1C38.114-1149.376,38.683-1148.136,39.257-1146.8Z" transform="translate(10.818 1210.871)" fill="#fff"/>
        <path id="Trazado_199617" data-name="Trazado 199617" d="M310.181-872.376a2.589,2.589,0,0,1-2.381,1.045c-8.28-.033-16.56,0-24.84-.051a4.157,4.157,0,0,1-2.238-.739c-3.177-2.259-6.292-4.6-9.422-6.928a4.538,4.538,0,0,1-1.329-6.315,4.533,4.533,0,0,1,6.251-1.255c1.419.795,2.828,1.608,4.38,2.491v-1.277q0-8.364,0-16.728c0-3.1,2.036-5.33,4.863-5.358s4.983,2.271,4.993,5.365c.009,2.63,0,5.261,0,8.009a5.194,5.194,0,0,1,4.894.988,5.061,5.061,0,0,1,6.564-.038,2.372,2.372,0,0,0,.33-.157c3.151-2.084,6.575-.877,7.746,2.73a2.266,2.266,0,0,0,.185.352Zm-3.3-2.259c0-5,.016-9.885-.014-14.769a1.575,1.575,0,0,0-1.553-1.608,1.647,1.647,0,0,0-1.708,1.554c-.191,1.083-.739,1.652-1.609,1.67s-1.468-.565-1.675-1.618c-.214-1.088-.766-1.644-1.633-1.648s-1.468.586-1.657,1.631c-.192,1.06-.776,1.639-1.645,1.633s-1.453-.6-1.642-1.648c-.193-1.064-.772-1.649-1.661-1.61a1.653,1.653,0,0,0-1.618,1.558c-.233,1.19-.869,1.789-1.788,1.7s-1.5-.822-1.5-1.985c-.009-2.736,0-5.473,0-8.209,0-1.5.022-3.01-.011-4.515a1.627,1.627,0,0,0-1.57-1.7,1.674,1.674,0,0,0-1.7,1.686c-.019.272-.006.547-.006.821q0,9.953.005,19.907a1.976,1.976,0,0,1-.9,2.021,1.945,1.945,0,0,1-2.1-.342c-2.068-1.269-4.132-2.547-6.233-3.76a2.166,2.166,0,0,0-1.512-.283,1.464,1.464,0,0,0-.889,1.074,2.213,2.213,0,0,0,.774,1.509c3.062,2.241,6.172,4.416,9.291,6.578a2.3,2.3,0,0,0,1.229.336c3.387.026,6.774.015,10.161.015Z" transform="translate(-211.58 969.924)" fill="#fff"/>
        <path id="Trazado_199618" data-name="Trazado 199618" d="M53.1-924.628a14.8,14.8,0,0,1,14.819-14.8,14.82,14.82,0,0,1,14.755,14.662,14.8,14.8,0,0,1-14.719,14.9A14.8,14.8,0,0,1,53.1-924.628Zm3.286-.042a11.521,11.521,0,0,0,11.449,11.524,11.537,11.537,0,0,0,11.552-11.531,11.524,11.524,0,0,0-11.4-11.467A11.513,11.513,0,0,0,56.386-924.67Z" transform="translate(-39.946 995.29)" fill="#fff"/>
        <path id="Trazado_199619" data-name="Trazado 199619" d="M99.553-899.512a6.591,6.591,0,0,1,6.606,6.563,6.585,6.585,0,0,1-6.59,6.577,6.585,6.585,0,0,1-6.553-6.512A6.58,6.58,0,0,1,99.553-899.512Zm3.318,6.531a3.3,3.3,0,0,0-3.295-3.242,3.3,3.3,0,0,0-3.268,3.37,3.3,3.3,0,0,0,3.345,3.192A3.312,3.312,0,0,0,102.871-892.981Z" transform="translate(-71.649 963.587)" fill="#fff"/>
      </g>
    </g>
  </g>
</svg>
