<svg xmlns="http://www.w3.org/2000/svg" width="76.197" height="76.273" viewBox="0 0 76.197 76.273">
  <g id="Vnwes6" transform="translate(924.268 1573.435)">
    <g id="Grupo_155882" data-name="Grupo 155882" transform="translate(-924.268 -1573.435)">
      <path id="Trazado_198300" data-name="Trazado 198300" d="M-848.071-1529.133h-7.282v4.928c-1.019,0-1.958-.027-2.893.019a.914.914,0,0,0-.686.4,30.879,30.879,0,0,1-5.149,8.137,2.93,2.93,0,0,0-.174.339c.392.331.828.723,1.289,1.083a.781.781,0,0,1,.218,1.225,4.19,4.19,0,0,0-.356.8c.052.061.067.095.086.1,1.38.216,1.613,1.087,1.5,2.335a26.286,26.286,0,0,0,0,3.993,1,1,0,0,1-.885,1.217,6.446,6.446,0,0,0-.671.247,1.323,1.323,0,0,0,.046.3c.552,1.336.548,1.33-.45,2.319-1.019,1.01-2.059,2-3.024,3.06-.461.507-.855.622-1.42.243a5.293,5.293,0,0,0-.764-.346l-.609,1.575h-6.616l-.595-1.5c-.07,0-.1-.018-.12-.006-1.182.889-1.957.276-2.763-.645a40.243,40.243,0,0,0-2.874-2.882c-.428-.4-.542-.732-.2-1.23a4.373,4.373,0,0,0,.347-.808c-.561-.555-1.96-.156-1.522-1.629a29.2,29.2,0,0,1-8.256-.47,31.152,31.152,0,0,1-7.926-2.782c-.671.764-1.414,1.577-2.108,2.428a1.321,1.321,0,0,0-.19.778c-.013,2.614-.008,5.227-.008,7.841v.88h-22.134v-.773q0-8.994,0-17.988a8.629,8.629,0,0,1,6.549-8.58,13.951,13.951,0,0,0,1.39-.427c.246-.1.644-.33.629-.464a1.473,1.473,0,0,0-.441-.931c-.88-.7-1.829-1.312-2.735-1.98a12.525,12.525,0,0,1-5.388-10.725,12.605,12.605,0,0,1,10.842-12.072,3.245,3.245,0,0,1,.91-.111c1.249.228,1.878-.448,2.558-1.392a28.52,28.52,0,0,1,13.265-10.17.948.948,0,0,0,.726-1.041,9.882,9.882,0,0,1,8.91-9.54,9.881,9.881,0,0,1,10.44,7.443,8.734,8.734,0,0,1,.281,2.042.976.976,0,0,0,.762,1.1,28.808,28.808,0,0,1,10.829,7.21,1.675,1.675,0,0,1,.26.282c.8,1.372,1.978,1.667,3.525,1.622,3.993-.117,7.992-.04,11.988-.04h.894Zm-13.406,4.887h-13.551v-22.114h4.914v-7.4h3.618c-1.885-2.487-6.71-5.7-10.214-6.829-1.7,4.251-4.742,6.812-9.407,6.819-4.69.007-7.76-2.555-9.462-6.83-5.04,1.772-10.027,5.775-12.262,9.337,1.98,0,3.92-.02,5.858.005a4.923,4.923,0,0,1,4.72,4.167,4.521,4.521,0,0,1-2.93,5.011c-.342.143-.691.269-1.064.413l.344.672a20.824,20.824,0,0,1,2.482,9.708.689.689,0,0,1-.589.794c-.882.254-1.734.611-2.616.863-.411.117-.566.321-.493.7a2.7,2.7,0,0,1-1.193,2.759c-.516.416-.933.951-1.424,1.4a14.181,14.181,0,0,1-1.151.843c.086.525-.012,1.36.352,1.859a32.583,32.583,0,0,0,2.83,3.038,7.7,7.7,0,0,1,.625-.8q3.849-3.869,7.716-7.719a4.786,4.786,0,0,1,7.527.517,1.134,1.134,0,0,0,.754.358,3.727,3.727,0,0,1,3.638,3.8c.006.743,0,1.486,0,2.229a3.7,3.7,0,0,1-3.826,3.824c-1.64.007-3.279-.007-4.919.011a1.2,1.2,0,0,0-.764.211c-1.924,1.875-3.821,3.777-5.805,5.75a27.352,27.352,0,0,0,14.091,2.511,9.8,9.8,0,0,0-.006-1.122c-.156-1.285-.063-2.411,1.594-2.705a5.016,5.016,0,0,0-.354-.765c-.37-.545-.225-.922.238-1.353,1.031-.958,2.008-1.975,3.005-2.97,1.077-1.075,1.076-1.075,2.506-.5a.612.612,0,0,0,.183,0l.6-1.5h6.609c.106.272.205.531.308.789s.2.5.318.781c.536-.238,1.035-.66,1.452-.59.446.075.815.614,1.25.977A26.162,26.162,0,0,0-861.477-1524.246Zm-11.068-19.614v17.144h14.627v-17.144Zm-40.641,7.368c-.359,0-.635.01-.91,0a1.308,1.308,0,0,0-1.437.785,1.415,1.415,0,0,0,.42,1.666c.421.413.812.859,1.259,1.24a1.847,1.847,0,0,1,.683,1.594c-.047,1.972-.022,3.947-.009,5.92a1.122,1.122,0,0,0,.172.705c1.124,1.184,2.281,2.338,3.382,3.454,1.367-.694,1.526-1.764,1.232-3.1h-2.32v-2.448c1.238,0,2.436-.02,3.632.009a1.758,1.758,0,0,0,1.214-.472,2.96,2.96,0,0,0,1.266-3.043c-.026-.149.015-.31-.006-.46-.064-.453.109-.685.565-.815.858-.245,1.692-.576,2.547-.833.419-.126.534-.309.488-.766a18.957,18.957,0,0,0-2.8-7.958,1.068,1.068,0,0,0-.79-.383c-2.331-.029-4.663-.02-7-.015-1.171,0-1.59.438-1.593,1.642C-913.188-1538.7-913.186-1537.632-913.186-1536.492Zm45.532-9.845h12.311v14.688h4.82V-1551.2h-17.131Zm-37.75,36.766c-.624-.68-1.03-1.174-1.491-1.611a8.36,8.36,0,0,0-1.534-1.265q-4.672-2.65-9.392-5.216a2.645,2.645,0,0,0-3.647,1.015,2.6,2.6,0,0,0,1.244,3.62q4.648,2.537,9.3,5.073a6.1,6.1,0,0,0,7.894-1.132q4.183-4.182,8.365-8.366c.192-.192.372-.4.457-.488l-2.97-3.056-8,8c.356.341.786.707,1.151,1.129a.652.652,0,0,1,.049.619C-904.374-1510.719-904.832-1510.235-905.4-1509.572Zm-16.34,9.892h17.09v-5.285a2.585,2.585,0,0,0-.351.052,8.707,8.707,0,0,1-7.1-.82c-2.929-1.632-5.885-3.216-8.831-4.818-.251-.136-.517-.248-.854-.407,0,3.756,0,7.369,0,10.981A1.97,1.97,0,0,0-921.744-1499.68Zm35.62-56.512a7.425,7.425,0,0,0,7.361-7.4,7.42,7.42,0,0,0-7.394-7.36,7.419,7.419,0,0,0-7.361,7.394A7.424,7.424,0,0,0-886.124-1556.192Zm7.089,44.692c-.339.415-.626,1.113-1.09,1.262a1.356,1.356,0,0,0-1.077,1.737,1.97,1.97,0,0,1,0,.614,1.254,1.254,0,0,0,1.121,1.674c.593.119,1.153,1.327.814,1.806-.676.958-.278,1.566.479,2.154a2.5,2.5,0,0,1,.488.488,1.081,1.081,0,0,0,1.669.32,1.4,1.4,0,0,1,2.007.726,1.34,1.34,0,0,0,1.778,1.1,1.752,1.752,0,0,1,.613,0c.922.181,1.4-.2,1.616-1.1a1.47,1.47,0,0,1,1.867-.809c.9.6,1.48.312,2.031-.441a2.146,2.146,0,0,1,.49-.486,1.156,1.156,0,0,0,.354-1.795,1.428,1.428,0,0,1,.662-1.914c1.165-.251,1.329-.972,1.192-1.949a1.439,1.439,0,0,1,0-.46,1.225,1.225,0,0,0-1.084-1.627,1.445,1.445,0,0,1-.826-1.854c.608-.891.307-1.474-.42-2.036a2.562,2.562,0,0,1-.544-.54,1.113,1.113,0,0,0-1.732-.323,1.437,1.437,0,0,1-1.96-.709,1.38,1.38,0,0,0-1.827-1.144,1.729,1.729,0,0,1-.613,0c-.891-.175-1.342.207-1.565,1.065a1.459,1.459,0,0,1-1.843.855c-.926-.612-1.516-.3-2.1.459a5.291,5.291,0,0,1-.868.867.62.62,0,0,0-.145.926A12.079,12.079,0,0,1-879.035-1511.5Zm-16.427-11.411c1.2,1.171,2.347,2.3,3.515,3.41a.976.976,0,0,0,.616.2q2.5.023,4.993,0a1.273,1.273,0,0,0,1.412-1.434c.012-.589,0-1.178,0-1.767,0-1.286-.41-1.746-1.7-1.67a1.882,1.882,0,0,1-2.188-1.214,2.172,2.172,0,0,0-3.549-.629C-893.39-1525.058-894.352-1524.028-895.463-1522.912Zm-11.745,8.256c.664-.7,1.272-1.394,1.943-2.023a.774.774,0,0,0,.118-1.2c-.585-.7-1.21-1.369-1.965-2.216l-2.436,2.813a7.813,7.813,0,0,0-.616-.862c-1.385-1.4-2.773-2.807-4.188-4.181a1.1,1.1,0,0,0-.82-.316,15.507,15.507,0,0,0-2.573.74,18.405,18.405,0,0,0-2.057,1.133l.086.265c1.712-.231,3.076.591,4.461,1.369C-912.621-1517.656-909.978-1516.2-907.207-1514.656Z" transform="translate(924.268 1573.435)" fill="#12263f"/>
      <path id="Trazado_198301" data-name="Trazado 198301" d="M-572.161-1362.5v-2.349h9.8v2.349Z" transform="translate(626.284 1396.907)" fill="#12263f"/>
      <path id="Trazado_198302" data-name="Trazado 198302" d="M-571.874-1333.057h9.738v2.394h-9.738Z" transform="translate(626.041 1370.006)" fill="#12263f"/>
      <path id="Trazado_198303" data-name="Trazado 198303" d="M-572.064-1298.51v-2.371h9.769v2.371Z" transform="translate(626.202 1342.776)" fill="#12263f"/>
      <path id="Trazado_198304" data-name="Trazado 198304" d="M-811.125-1341.268a1.243,1.243,0,0,1,1.266,1.177,1.248,1.248,0,0,1-1.217,1.307,1.25,1.25,0,0,1-1.264-1.181A1.234,1.234,0,0,1-811.125-1341.268Z" transform="translate(829.547 1376.955)" fill="#12263f"/>
      <path id="Trazado_198305" data-name="Trazado 198305" d="M-700.01-1547.374l9.746,5.859-9.746,5.851Zm2.507,7.206,2.292-1.35-2.292-1.344Z" transform="translate(734.481 1551.38)" fill="#12263f"/>
      <path id="Trazado_198306" data-name="Trazado 198306" d="M-616.029-1183.108a6.153,6.153,0,0,1-6.179,6.188,6.159,6.159,0,0,1-6.169-6.2,6.153,6.153,0,0,1,6.219-6.147A6.15,6.15,0,0,1-616.029-1183.108Zm-2.483.034a3.725,3.725,0,0,0-3.633-3.713,3.723,3.723,0,0,0-3.75,3.671,3.728,3.728,0,0,0,3.632,3.714A3.727,3.727,0,0,0-618.512-1183.073Z" transform="translate(673.859 1248.319)" fill="#12263f"/>
    </g>
  </g>
</svg>
