<svg xmlns="http://www.w3.org/2000/svg" xmlns:xlink="http://www.w3.org/1999/xlink" width="1329" height="342.376" viewBox="0 0 1329 342.376">
  <defs>
    <linearGradient id="linear-gradient" x1="1.194" y1="1" x2="-1.173" y2="1" gradientUnits="objectBoundingBox">
      <stop offset="0" stop-color="#f5f5f5" stop-opacity="0.2"/>
      <stop offset="0.3" stop-color="#f5f5f5" stop-opacity="0.267"/>
      <stop offset="0.421" stop-color="#f5f5f5"/>
      <stop offset="1" stop-color="#afafaf"/>
    </linearGradient>
    <clipPath id="clip-path">
      <rect id="Rect치ngulo_45491" data-name="Rect치ngulo 45491" width="1329" height="342.376" transform="translate(0 0)" fill="#fff"/>
    </clipPath>
  </defs>
  <g id="Grupo_154978" data-name="Grupo 154978" transform="translate(-136.672 -4607.916)">
    <rect id="Rect치ngulo_37336" data-name="Rect치ngulo 37336" width="1073.5" height="340.49" transform="translate(136.681 4607.916)" fill="url(#linear-gradient)"/>
    <g id="Enmascarar_grupo_80041" data-name="Enmascarar grupo 80041" transform="translate(136.672 4607.917)" clip-path="url(#clip-path)">
      <path id="Dots-01" d="M311.045,187.32a.465.465,0,1,1,.373-.455A.424.424,0,0,1,311.045,187.32Zm0-11.658a.456.456,0,0,1,0-.9.457.457,0,0,1,0,.9Zm0-11.665a.4.4,0,0,1-.354-.424.356.356,0,1,1,.7,0A.4.4,0,0,1,311.045,164Zm0-11.752a.293.293,0,0,1-.272-.319.3.3,0,0,1,.272-.322.307.307,0,0,1,.271.322A.3.3,0,0,1,311.045,152.245Zm0-11.741a.207.207,0,0,1-.19-.224.209.209,0,0,1,.19-.224.213.213,0,0,1,.183.224A.211.211,0,0,1,311.045,140.5Zm-.057-11.863c0-.041.019-.064.057-.064a.062.062,0,0,1,.051.064.06.06,0,0,1-.051.061A.053.053,0,0,1,310.988,128.642Zm-9.654,70.872a.94.94,0,0,1-.829-1.017.844.844,0,1,1,1.665,0A.94.94,0,0,1,301.335,199.513Zm0-11.651a1.018,1.018,0,1,1,.835-1A.928.928,0,0,1,301.335,187.863Zm0-11.646a1.016,1.016,0,1,1,.835-1.005A.93.93,0,0,1,301.335,176.217Zm0-11.676a.984.984,0,1,1,.81-.968A.9.9,0,0,1,301.335,164.541Zm0-11.772a.854.854,0,1,1,.7-.842A.778.778,0,0,1,301.335,152.769Zm0-11.748a.747.747,0,0,1,0-1.473.747.747,0,0,1,0,1.473Zm0-11.768a.569.569,0,0,1-.513-.611.522.522,0,1,1,1.025,0A.564.564,0,0,1,301.335,129.253Zm0-11.873a.392.392,0,1,1,.329-.387A.365.365,0,0,1,301.335,117.379Zm-.158-12.026a.166.166,0,1,1,.322,0,.163.163,0,1,1-.322,0ZM291.63,200a1.4,1.4,0,0,1-1.239-1.5,1.258,1.258,0,1,1,2.48,0A1.4,1.4,0,0,1,291.63,200Zm0-11.658a1.51,1.51,0,1,1,1.24-1.476A1.374,1.374,0,0,1,291.63,188.341Zm0-11.635a1.388,1.388,0,0,1-1.239-1.5,1.258,1.258,0,1,1,2.48,0A1.388,1.388,0,0,1,291.63,176.707Zm0-11.71a1.45,1.45,0,1,1,1.183-1.423A1.316,1.316,0,0,1,291.63,165Zm0-11.715a1.374,1.374,0,1,1,1.133-1.354A1.255,1.255,0,0,1,291.63,153.281Zm0-11.771a1.249,1.249,0,1,1,1.019-1.23A1.141,1.141,0,0,1,291.63,141.511Zm0-11.772a1.117,1.117,0,1,1,.918-1.1A1.021,1.021,0,0,1,291.63,129.739Zm0-11.873a.889.889,0,1,1,.721-.873A.81.81,0,0,1,291.63,117.865Zm0-11.836a.689.689,0,1,1,.57-.676A.634.634,0,0,1,291.63,106.029Zm0-11.9a.427.427,0,1,1,.355-.425A.4.4,0,0,1,291.63,94.129ZM291.5,82.062a.15.15,0,0,1,.133-.163.155.155,0,0,1,.134.163.152.152,0,0,1-.134.16A.147.147,0,0,1,291.5,82.062Zm-9.571,106.8a2.036,2.036,0,1,1,1.663-2A1.854,1.854,0,0,1,281.927,188.862Zm0-11.707a1.969,1.969,0,1,1,1.613-1.943A1.8,1.8,0,0,1,281.927,177.154Zm0-11.676a1.937,1.937,0,1,1,1.588-1.9A1.767,1.767,0,0,1,281.927,165.478Zm0-11.707a1.876,1.876,0,1,1,1.531-1.844A1.713,1.713,0,0,1,281.927,153.771Zm0-11.775a1.739,1.739,0,1,1,1.43-1.715A1.591,1.591,0,0,1,281.927,142Zm0-11.806a1.576,1.576,0,1,1,1.29-1.548A1.439,1.439,0,0,1,281.927,130.19Zm0-11.839a1.376,1.376,0,1,1,1.133-1.359A1.26,1.26,0,0,1,281.927,118.351Zm0-11.87a1.151,1.151,0,1,1,.936-1.128A1.045,1.045,0,0,1,281.927,106.481Zm0-11.9a.885.885,0,1,1,.727-.872A.808.808,0,0,1,281.927,94.576Zm0-11.9a.626.626,0,1,1,.506-.615A.566.566,0,0,1,281.927,82.677Zm0-11.973a.275.275,0,0,1-.247-.292.246.246,0,1,1,.486,0A.275.275,0,0,1,281.927,70.7Zm-9.7,118.582a2.467,2.467,0,1,1,2.012-2.421A2.249,2.249,0,0,1,272.223,189.286Zm0-11.68a2.432,2.432,0,1,1,1.986-2.394A2.22,2.22,0,0,1,272.223,177.606Zm0-11.7a2.366,2.366,0,1,1,1.936-2.33A2.168,2.168,0,0,1,272.223,165.9Zm0-11.715a2.3,2.3,0,1,1,1.879-2.261A2.1,2.1,0,0,1,272.223,154.188Zm0-11.779a2.163,2.163,0,1,1,1.771-2.129A1.97,1.97,0,0,1,272.223,142.409Zm0-11.771a2.034,2.034,0,1,1,1.663-2A1.856,1.856,0,0,1,272.223,130.639Zm0-11.833a1.843,1.843,0,1,1,1.506-1.814A1.688,1.688,0,0,1,272.223,118.806Zm0-11.873a1.61,1.61,0,1,1,1.316-1.579A1.465,1.465,0,0,1,272.223,106.933Zm0-11.9a1.348,1.348,0,1,1,1.1-1.324A1.227,1.227,0,0,1,272.223,95.028Zm0-11.934a1.053,1.053,0,1,1,.854-1.032A.955.955,0,0,1,272.223,83.094Zm0-11.969a.722.722,0,1,1,.588-.713A.656.656,0,0,1,272.223,71.125Zm0-12a.327.327,0,0,1-.3-.353.3.3,0,1,1,.588,0A.327.327,0,0,1,272.223,59.126Zm-9.71,130.581a2.893,2.893,0,1,1,2.365-2.842A2.636,2.636,0,0,1,262.513,189.707Zm0-11.68a2.857,2.857,0,1,1,2.34-2.815A2.615,2.615,0,0,1,262.513,178.027Zm0-11.71a2.791,2.791,0,1,1,2.29-2.743A2.543,2.543,0,0,1,262.513,166.317Zm0-11.707a2.723,2.723,0,1,1,2.233-2.683A2.49,2.49,0,0,1,262.513,154.609Zm0-11.779a2.59,2.59,0,1,1,2.125-2.55A2.363,2.363,0,0,1,262.513,142.831Zm0-11.8a2.428,2.428,0,1,1,1.992-2.391A2.226,2.226,0,0,1,262.513,131.032Zm0-11.843a2.231,2.231,0,1,1,1.835-2.2A2.035,2.035,0,0,1,262.513,119.189Zm0-11.835a2.037,2.037,0,1,1,1.67-2A1.864,1.864,0,0,1,262.513,107.354Zm0-11.939a1.741,1.741,0,1,1,1.43-1.711A1.584,1.584,0,0,1,262.513,95.415Zm0-11.931a1.447,1.447,0,1,1,1.182-1.423A1.317,1.317,0,0,1,262.513,83.485Zm0-11.965a1.025,1.025,0,0,1-.91-1.108.928.928,0,1,1,1.828,0A1.03,1.03,0,0,1,262.513,71.52Zm0-12.006a.754.754,0,1,1,.62-.74A.688.688,0,0,1,262.513,59.513Zm0-12.029a.36.36,0,1,1,.3-.357A.331.331,0,0,1,262.513,47.484Zm-9.71,142.6a3.283,3.283,0,1,1,2.695-3.222A2.991,2.991,0,0,1,252.8,190.087Zm0-11.681a3.249,3.249,0,1,1,2.669-3.195A2.963,2.963,0,0,1,252.8,178.406Zm0-11.676a3.213,3.213,0,1,1,2.638-3.157A2.933,2.933,0,0,1,252.8,166.73Zm0-11.734a3.12,3.12,0,1,1,2.562-3.07A2.846,2.846,0,0,1,252.8,155Zm0-11.779a2.98,2.98,0,1,1,2.454-2.937A2.728,2.728,0,0,1,252.8,143.218Zm0-11.835a2.79,2.79,0,1,1,2.3-2.741A2.538,2.538,0,0,1,252.8,131.382Zm0-11.836a2.6,2.6,0,1,1,2.132-2.554A2.364,2.364,0,0,1,252.8,119.546Zm0-11.87a2.364,2.364,0,1,1,1.935-2.323A2.16,2.16,0,0,1,252.8,107.676Zm0-11.9a2.1,2.1,0,1,1,1.732-2.068A1.915,1.915,0,0,1,252.8,95.772Zm0-11.938a1.8,1.8,0,1,1,1.487-1.772A1.647,1.647,0,0,1,252.8,83.834Zm0-11.965a1.476,1.476,0,1,1,1.215-1.457A1.349,1.349,0,0,1,252.8,71.868Zm0-11.995a1.117,1.117,0,1,1,.917-1.1A1.018,1.018,0,0,1,252.8,59.874Zm0-12.033a.722.722,0,0,1,0-1.419.721.721,0,0,1,0,1.419Zm0-12.067a.292.292,0,1,1,.246-.288A.268.268,0,0,1,252.8,35.773Zm-9.7,166.313a3.638,3.638,0,1,1,2.985-3.59C246.09,200.492,244.756,202.086,243.105,202.086Zm0-11.638a3.645,3.645,0,0,1,0-7.173c1.651,0,2.985,1.6,2.985,3.59A3.322,3.322,0,0,1,243.105,190.448Zm0-11.647a3.644,3.644,0,1,1,2.985-3.59C246.09,177.2,244.756,178.8,243.105,178.8Zm0-11.714a3.577,3.577,0,1,1,2.928-3.513A3.257,3.257,0,0,1,243.105,167.087Zm0-11.733a3.486,3.486,0,1,1,2.846-3.427A3.183,3.183,0,0,1,243.105,155.353Zm0-11.779a3.344,3.344,0,1,1,2.744-3.294A3.054,3.054,0,0,1,243.105,143.575Zm0-11.8a3.191,3.191,0,1,1,2.606-3.135A2.911,2.911,0,0,1,243.105,131.777Zm0-11.836a2.99,2.99,0,1,1,2.441-2.948A2.728,2.728,0,0,1,243.105,119.941Zm0-11.908a2.726,2.726,0,1,1,2.233-2.68A2.492,2.492,0,0,1,243.105,108.033Zm0-11.9a2.463,2.463,0,1,1,2.017-2.425A2.245,2.245,0,0,1,243.105,96.129Zm0-11.968a2.134,2.134,0,1,1,1.745-2.1A1.95,1.95,0,0,1,243.105,84.16Zm0-11.935a1.837,1.837,0,1,1,1.512-1.814A1.681,1.681,0,0,1,243.105,72.225Zm0-12.033a1.443,1.443,0,1,1,1.183-1.419A1.325,1.325,0,0,1,243.105,60.193Zm0-12.033a1.052,1.052,0,1,1,.86-1.032A.959.959,0,0,1,243.105,48.159Zm0-12.063a.619.619,0,0,1,0-1.222.622.622,0,0,1,0,1.222Zm-.165-12.257a.186.186,0,0,1,.165-.2.182.182,0,0,1,.158.2.177.177,0,0,1-.158.2A.181.181,0,0,1,242.941,23.839ZM233.395,190.8c-1.809,0-3.284-1.773-3.284-3.939s1.474-3.939,3.284-3.939,3.289,1.761,3.289,3.939S235.216,190.8,233.395,190.8Zm0-11.685c-1.8,0-3.252-1.749-3.252-3.908s1.455-3.9,3.252-3.9,3.258,1.752,3.258,3.9S235.2,179.12,233.395,179.12Zm0-11.7c-1.765,0-3.2-1.719-3.2-3.844s1.436-3.841,3.2-3.841,3.2,1.723,3.2,3.841S235.166,167.417,233.395,167.417Zm0-11.745c-1.721,0-3.119-1.67-3.119-3.746s1.4-3.745,3.119-3.745,3.125,1.677,3.125,3.745S235.122,155.673,233.395,155.673Zm0-11.768c-1.664,0-3.012-1.624-3.012-3.624s1.348-3.616,3.012-3.616,3.017,1.617,3.017,3.616S235.058,143.9,233.395,143.9Zm0-11.813a3.514,3.514,0,1,1,2.885-3.45A3.2,3.2,0,0,1,233.395,132.092Zm0-11.867a3.28,3.28,0,1,1,2.695-3.233A3,3,0,0,1,233.395,120.225Zm0-11.878a3.049,3.049,0,1,1,2.5-2.994A2.778,2.778,0,0,1,233.395,108.348Zm0-11.9a2.791,2.791,0,1,1,2.29-2.743A2.539,2.539,0,0,1,233.395,96.447Zm0-11.965a2.463,2.463,0,1,1,2.018-2.421A2.249,2.249,0,0,1,233.395,84.483Zm0-12a2.1,2.1,0,1,1,1.721-2.073A1.921,1.921,0,0,1,233.395,72.484Zm0-12a1.741,1.741,0,1,1,1.429-1.715A1.591,1.591,0,0,1,233.395,60.488Zm0-12.033a1.348,1.348,0,1,1,1.107-1.328A1.232,1.232,0,0,1,233.395,48.455Zm0-12.071a.918.918,0,0,1,0-1.807.918.918,0,0,1,0,1.807Zm0-12.094a.458.458,0,1,1,.379-.452A.419.419,0,0,1,233.395,24.29Zm-9.7,178.441c-1.949,0-3.523-1.9-3.523-4.235,0-2.322,1.574-4.22,3.523-4.22s3.524,1.9,3.524,4.22C227.214,200.834,225.639,202.731,223.69,202.731Zm0-11.634c-1.949,0-3.523-1.894-3.523-4.232s1.574-4.231,3.523-4.231,3.524,1.9,3.524,4.231S225.639,191.1,223.69,191.1Zm0-11.65c-1.949,0-3.523-1.893-3.523-4.235s1.574-4.223,3.523-4.223,3.524,1.89,3.524,4.223S225.639,179.446,223.69,179.446Zm0-11.714c-1.917,0-3.473-1.856-3.473-4.159s1.556-4.163,3.473-4.163,3.473,1.86,3.473,4.163S225.607,167.732,223.69,167.732Zm0-11.767c-1.86,0-3.365-1.811-3.365-4.038s1.505-4.033,3.365-4.033,3.365,1.806,3.365,4.033S225.55,155.965,223.69,155.965Zm0-11.768c-1.8,0-3.258-1.761-3.258-3.916s1.455-3.908,3.258-3.908,3.252,1.756,3.252,3.908S225.487,144.2,223.69,144.2Zm0-11.813c-1.728,0-3.125-1.677-3.125-3.742s1.4-3.757,3.125-3.757,3.125,1.681,3.125,3.757S225.417,132.384,223.69,132.384Zm0-11.867a3.58,3.58,0,1,1,2.935-3.525A3.265,3.265,0,0,1,223.69,120.518Zm0-11.878a3.346,3.346,0,1,1,2.745-3.287A3.045,3.045,0,0,1,223.69,108.64Zm0-11.931a3.053,3.053,0,1,1,2.5-3.005A2.79,2.79,0,0,1,223.69,96.709Zm0-11.938a2.754,2.754,0,1,1,2.259-2.709A2.521,2.521,0,0,1,223.69,84.771Zm0-12a2.4,2.4,0,1,1,1.962-2.364A2.189,2.189,0,0,1,223.69,72.776Zm0-12a2.032,2.032,0,1,1,1.67-2A1.854,1.854,0,0,1,223.69,60.773Zm0-12.06a1.609,1.609,0,1,1,1.316-1.586A1.472,1.472,0,0,1,223.69,48.713Zm0-12.071a1.18,1.18,0,1,1,.968-1.157A1.079,1.079,0,0,1,223.69,36.642Zm0-12.09a.722.722,0,0,1,0-1.419.722.722,0,0,1,0,1.419Zm-.19-12.36a.192.192,0,1,1,.38,0,.193.193,0,1,1-.38,0Zm-9.514,179.158c-2.069,0-3.745-2.011-3.745-4.486s1.677-4.493,3.745-4.493,3.738,2.015,3.738,4.493S216.055,191.351,213.987,191.351Zm0-11.651c-2.069,0-3.745-2-3.745-4.489s1.677-4.485,3.745-4.485,3.738,2.007,3.738,4.485S216.055,179.7,213.987,179.7Zm0-11.7c-2.037,0-3.694-1.977-3.694-4.424s1.657-4.421,3.694-4.421,3.688,1.973,3.688,4.421S216.017,168,213.987,168Zm0-11.714c-2.012,0-3.638-1.947-3.638-4.357s1.626-4.36,3.638-4.36,3.631,1.954,3.631,4.36S215.992,156.283,213.987,156.283Zm0-11.8c-1.931,0-3.5-1.882-3.5-4.2s1.568-4.2,3.5-4.2,3.5,1.879,3.5,4.2S215.922,144.485,213.987,144.485Zm0-11.835c-1.841,0-3.341-1.8-3.341-4.008s1.5-4,3.341-4,3.34,1.792,3.34,4S215.828,132.65,213.987,132.65Zm0-11.882c-1.741,0-3.151-1.685-3.151-3.775s1.41-3.775,3.151-3.775,3.149,1.692,3.149,3.775S215.72,120.768,213.987,120.768Zm0-11.9a3.267,3.267,0,0,1-2.936-3.515c0-1.943,1.316-3.529,2.936-3.529s2.935,1.586,2.935,3.529A3.271,3.271,0,0,1,213.987,108.868Zm0-11.9A3.314,3.314,0,1,1,216.7,93.7,3.024,3.024,0,0,1,213.987,96.967Zm0-11.968a2.988,2.988,0,1,1,2.448-2.937A2.728,2.728,0,0,1,213.987,85Zm0-12a2.628,2.628,0,1,1,2.151-2.589A2.4,2.4,0,0,1,213.987,73Zm0-12a2.263,2.263,0,1,1,1.853-2.224A2.068,2.068,0,0,1,213.987,61Zm0-12.06a1.839,1.839,0,1,1,1.505-1.81A1.68,1.68,0,0,1,213.987,48.937Zm0-12.063a1.413,1.413,0,1,1,1.151-1.389A1.285,1.285,0,0,1,213.987,36.874Zm0-12.132a.916.916,0,1,1,.752-.9A.836.836,0,0,1,213.987,24.742Zm0-12.128a.427.427,0,1,1,.348-.421A.39.39,0,0,1,213.987,12.614Zm-9.711,179.025c-2.195,0-3.979-2.14-3.979-4.774s1.784-4.785,3.979-4.785,3.986,2.144,3.986,4.785S206.478,191.639,204.276,191.639Zm0-11.677c-2.182,0-3.953-2.117-3.953-4.751,0-2.611,1.771-4.74,3.953-4.74s3.961,2.13,3.961,4.74C208.237,177.845,206.465,179.962,204.276,179.962Zm0-11.737c-2.138,0-3.871-2.084-3.871-4.652s1.734-4.653,3.871-4.653,3.885,2.075,3.885,4.653S206.421,168.225,204.276,168.225Zm0-11.714c-2.106,0-3.814-2.054-3.814-4.585s1.708-4.584,3.814-4.584,3.821,2.053,3.821,4.584S206.389,156.511,204.276,156.511Zm0-11.8c-2.03,0-3.688-1.981-3.688-4.428s1.658-4.425,3.688-4.425,3.688,1.985,3.688,4.425S206.313,144.709,204.276,144.709Zm0-11.835c-1.942,0-3.523-1.894-3.523-4.232s1.581-4.235,3.523-4.235,3.524,1.894,3.524,4.235S206.225,132.874,204.276,132.874Zm0-11.874c-1.84,0-3.334-1.795-3.334-4.007s1.494-4.007,3.334-4.007,3.34,1.8,3.34,4.007S206.13,121,204.276,121Zm0-11.908c-1.721,0-3.125-1.669-3.125-3.738s1.4-3.753,3.125-3.753,3.125,1.681,3.125,3.753S206,109.092,204.276,109.092Zm0-11.931a3.513,3.513,0,1,1,2.878-3.457A3.209,3.209,0,0,1,204.276,97.161Zm0-11.968a3.188,3.188,0,1,1,2.607-3.131A2.907,2.907,0,0,1,204.276,85.192Zm0-12a2.826,2.826,0,1,1,2.316-2.785A2.582,2.582,0,0,1,204.276,73.2Zm0-12a2.46,2.46,0,1,1,2.024-2.421A2.247,2.247,0,0,1,204.276,61.194Zm0-12.029a2.068,2.068,0,1,1,1.7-2.038A1.9,1.9,0,0,1,204.276,49.165Zm0-12.094a1.613,1.613,0,1,1,1.322-1.586A1.469,1.469,0,0,1,204.276,37.071Zm0-12.1a1.15,1.15,0,1,1,.943-1.135A1.052,1.052,0,0,1,204.276,24.973Zm0-12.128a.606.606,0,0,1-.538-.653.549.549,0,1,1,1.082,0A.61.61,0,0,1,204.276,12.845ZM204.2.55c0-.053.032-.1.076-.1a.1.1,0,0,1,.088.1.1.1,0,0,1-.088.1A.089.089,0,0,1,204.2.55Zm-9.628,191.274c-2.289,0-4.143-2.22-4.143-4.96s1.854-4.982,4.143-4.982,4.143,2.227,4.143,4.982S196.862,191.825,194.572,191.825Zm0-11.672c-2.277,0-4.118-2.205-4.118-4.941s1.84-4.937,4.118-4.937,4.112,2.212,4.112,4.937S196.844,180.153,194.572,180.153Zm0-11.707c-2.239,0-4.067-2.178-4.067-4.872s1.828-4.873,4.067-4.873,4.068,2.179,4.068,4.873S196.818,168.445,194.572,168.445Zm0-11.741c-2.2,0-3.979-2.14-3.979-4.778s1.778-4.777,3.979-4.777,3.985,2.14,3.985,4.777S196.774,156.7,194.572,156.7Zm0-11.806c-2.132,0-3.852-2.068-3.852-4.618s1.72-4.615,3.852-4.615,3.847,2.068,3.847,4.615S196.7,144.9,194.572,144.9Zm0-11.835c-2.037,0-3.688-1.985-3.688-4.421s1.651-4.424,3.688-4.424,3.694,1.977,3.694,4.424S196.61,133.063,194.572,133.063Zm0-11.87c-1.935,0-3.5-1.875-3.5-4.2,0-2.308,1.563-4.2,3.5-4.2s3.5,1.889,3.5,4.2C198.076,119.319,196.5,121.193,194.572,121.193Zm0-11.9c-1.809,0-3.283-1.761-3.283-3.935s1.474-3.943,3.283-3.943,3.283,1.765,3.283,3.943S196.388,109.289,194.572,109.289Zm0-11.938c-1.683,0-3.042-1.632-3.042-3.647s1.359-3.647,3.042-3.647,3.043,1.628,3.043,3.647S196.255,97.351,194.572,97.351Zm0-11.961a3.381,3.381,0,1,1,2.777-3.328A3.084,3.084,0,0,1,194.572,85.39Zm0-12.033a2.988,2.988,0,1,1,2.448-2.945A2.729,2.729,0,0,1,194.572,73.357Zm0-12.03a2.6,2.6,0,1,1,2.125-2.554A2.372,2.372,0,0,1,194.572,61.327Zm0-12.033a2.2,2.2,0,1,1,1.8-2.167A2.01,2.01,0,0,1,194.572,49.294Zm0-12.063a1.774,1.774,0,1,1,1.455-1.746A1.625,1.625,0,0,1,194.572,37.231Zm0-12.132a1.281,1.281,0,1,1,1.05-1.26A1.167,1.167,0,0,1,194.572,25.1Zm0-12.094a.823.823,0,0,1,0-1.621.751.751,0,0,1,.67.808A.75.75,0,0,1,194.572,13Zm0-12.2a.242.242,0,0,1-.215-.258.248.248,0,0,1,.215-.262.24.24,0,0,1,.215.262A.234.234,0,0,1,194.572.808ZM184.869,192c-2.367,0-4.283-2.3-4.283-5.131s1.916-5.138,4.283-5.138,4.282,2.3,4.282,5.138S187.234,192,184.869,192Zm0-11.673c-2.353,0-4.258-2.292-4.258-5.111s1.9-5.1,4.258-5.1,4.251,2.28,4.251,5.1S187.216,180.323,184.869,180.323Zm0-11.718c-2.316,0-4.2-2.246-4.2-5.031s1.886-5.04,4.2-5.04,4.194,2.261,4.194,5.04S187.191,168.6,184.869,168.6Zm0-11.741c-2.278,0-4.118-2.209-4.118-4.937s1.841-4.94,4.118-4.94,4.118,2.212,4.118,4.94S187.139,156.864,184.869,156.864Zm0-11.794c-2.2,0-3.979-2.144-3.979-4.789s1.778-4.782,3.979-4.782,3.985,2.144,3.985,4.782S187.07,145.07,184.869,145.07Zm0-11.839c-2.113,0-3.821-2.061-3.821-4.588s1.708-4.583,3.821-4.583,3.821,2.052,3.821,4.583S186.981,133.23,184.869,133.23Zm0-11.882c-2.006,0-3.638-1.946-3.638-4.356s1.632-4.356,3.638-4.356,3.631,1.958,3.631,4.356S186.874,121.348,184.869,121.348Zm0-11.926c-1.872,0-3.4-1.826-3.4-4.069s1.525-4.076,3.4-4.076,3.39,1.83,3.39,4.076S186.74,109.422,184.869,109.422Zm0-11.939c-1.741,0-3.144-1.688-3.144-3.779s1.4-3.779,3.144-3.779,3.144,1.693,3.144,3.779S186.608,97.483,184.869,97.483Zm0-11.968a3.513,3.513,0,1,1,2.878-3.453A3.207,3.207,0,0,1,184.869,85.515Zm0-12a3.153,3.153,0,1,1,2.58-3.1A2.879,2.879,0,0,1,184.869,73.516Zm0-12.033a2.757,2.757,0,1,1,2.258-2.709A2.517,2.517,0,0,1,184.869,61.483Zm0-12.06a2.332,2.332,0,1,1,1.911-2.3A2.134,2.134,0,0,1,184.869,49.423Zm0-12.067a1.9,1.9,0,1,1,1.562-1.871A1.738,1.738,0,0,1,184.869,37.356Zm0-12.128a1.412,1.412,0,1,1,1.158-1.389A1.288,1.288,0,0,1,184.869,25.227Zm0-12.162a.81.81,0,0,1-.728-.873.739.739,0,1,1,1.455,0A.81.81,0,0,1,184.869,13.066Zm0-12.128a.359.359,0,0,1-.323-.387.329.329,0,1,1,.646,0A.359.359,0,0,1,184.869.937Zm-9.7,191.18c-2.423,0-4.384-2.345-4.384-5.252s1.961-5.271,4.384-5.271,4.384,2.364,4.384,5.271S177.587,192.117,175.165,192.117Zm0-11.639c-2.423,0-4.384-2.357-4.384-5.267s1.961-5.252,4.384-5.252,4.384,2.349,4.384,5.252S177.587,180.478,175.165,180.478Zm0-11.737c-2.379,0-4.308-2.318-4.308-5.168s1.928-5.161,4.308-5.161,4.308,2.307,4.308,5.161S177.543,168.741,175.165,168.741Zm0-11.771c-2.322,0-4.207-2.262-4.207-5.043s1.885-5.043,4.207-5.043,4.194,2.265,4.194,5.043S177.486,156.97,175.165,156.97Zm0-11.809c-2.246,0-4.067-2.175-4.067-4.88s1.822-4.873,4.067-4.873,4.067,2.178,4.067,4.873S177.4,145.161,175.165,145.161Zm0-11.835c-2.158,0-3.9-2.1-3.9-4.684s1.745-4.686,3.9-4.686,3.9,2.091,3.9,4.686S177.315,133.325,175.165,133.325Zm0-11.9c-2.036,0-3.688-1.985-3.688-4.432s1.651-4.421,3.688-4.421,3.682,1.98,3.682,4.421S177.2,121.424,175.165,121.424Zm0-11.873c-1.936,0-3.5-1.882-3.5-4.2s1.568-4.2,3.5-4.2,3.492,1.878,3.492,4.2S177.1,109.551,175.165,109.551Zm0-11.969c-1.79,0-3.239-1.734-3.239-3.878s1.449-3.874,3.239-3.874,3.227,1.742,3.227,3.874S176.949,97.582,175.165,97.582Zm0-11.972a3.609,3.609,0,0,1,0-7.1c1.632,0,2.954,1.59,2.954,3.552A3.287,3.287,0,0,1,175.165,85.61Zm0-11.995a3.253,3.253,0,1,1,2.663-3.2A2.967,2.967,0,0,1,175.165,73.615Zm0-12.064a2.825,2.825,0,1,1,2.309-2.778A2.575,2.575,0,0,1,175.165,61.551Zm0-12.033a2.43,2.43,0,1,1,1.986-2.391A2.215,2.215,0,0,1,175.165,49.518Zm0-12.1a1.968,1.968,0,1,1,1.613-1.935A1.8,1.8,0,0,1,175.165,37.42Zm0-12.1a1.51,1.51,0,1,1,1.233-1.484A1.379,1.379,0,0,1,175.165,25.323Zm0-12.128a.929.929,0,0,1-.841-1,.848.848,0,1,1,1.669,0A.928.928,0,0,1,175.165,13.194Zm0-12.192a.416.416,0,0,1-.38-.452.383.383,0,1,1,.753,0A.42.42,0,0,1,175.165,1Zm-9.7,191.221c-2.474,0-4.473-2.406-4.473-5.358s2-5.366,4.473-5.366,4.458,2.406,4.458,5.366S167.921,192.223,165.461,192.223Zm0-11.647c-2.474,0-4.473-2.4-4.473-5.365s2-5.358,4.473-5.358,4.458,2.405,4.458,5.358S167.921,180.577,165.461,180.577Zm0-11.744c-2.429,0-4.39-2.348-4.39-5.259s1.961-5.268,4.39-5.268,4.39,2.356,4.39,5.268S167.877,168.833,165.461,168.833Zm0-11.805c-2.354,0-4.258-2.281-4.258-5.1s1.9-5.108,4.258-5.108,4.244,2.288,4.244,5.108S167.808,157.027,165.461,157.027Zm0-11.771c-2.29,0-4.15-2.224-4.15-4.975s1.86-4.967,4.15-4.967,4.143,2.224,4.143,4.967S167.744,145.256,165.461,145.256Zm0-11.839c-2.2,0-3.992-2.137-3.992-4.774s1.79-4.781,3.992-4.781,3.979,2.137,3.979,4.781S167.662,133.416,165.461,133.416Zm0-11.935c-2.076,0-3.746-2.011-3.746-4.489s1.67-4.485,3.746-4.485,3.738,2.007,3.738,4.485S167.522,121.481,165.461,121.481Zm0-11.9c-1.949,0-3.531-1.894-3.531-4.228s1.581-4.235,3.531-4.235,3.517,1.9,3.517,4.235S167.4,109.581,165.461,109.581Zm0-11.938c-1.822,0-3.29-1.765-3.29-3.939s1.468-3.939,3.29-3.939,3.276,1.76,3.276,3.939S167.27,97.643,165.461,97.643Zm0-12a3.644,3.644,0,1,1,2.986-3.586C168.447,84.043,167.106,85.648,165.461,85.648Zm0-11.968a3.317,3.317,0,1,1,2.713-3.268A3.026,3.026,0,0,1,165.461,73.679Zm0-12.033a2.92,2.92,0,1,1,2.4-2.873A2.663,2.663,0,0,1,165.461,61.646Zm0-12.06a2.5,2.5,0,1,1,2.037-2.459A2.282,2.282,0,0,1,165.461,49.586Zm0-12.071a2.067,2.067,0,1,1,1.689-2.03A1.882,1.882,0,0,1,165.461,37.515Zm0-12.124a1.576,1.576,0,1,1,1.289-1.552A1.442,1.442,0,0,1,165.461,25.391Zm0-12.128a.988.988,0,0,1-.892-1.07.9.9,0,1,1,1.777,0A.991.991,0,0,1,165.461,13.263Zm0-12.166A.51.51,0,0,1,165,.55a.466.466,0,1,1,.917,0A.505.505,0,0,1,165.461,1.1ZM155.75,192.288c-2.5,0-4.523-2.425-4.523-5.423s2.024-5.43,4.523-5.43,4.523,2.436,4.523,5.43S158.256,192.288,155.75,192.288Zm0-11.677c-2.48,0-4.491-2.417-4.491-5.4s2.011-5.388,4.491-5.388,4.492,2.409,4.492,5.388S158.23,180.611,155.75,180.611Zm0-11.741c-2.441,0-4.415-2.372-4.415-5.3s1.974-5.3,4.415-5.3,4.416,2.376,4.416,5.3S158.193,168.871,155.75,168.871Zm0-11.779c-2.379,0-4.3-2.308-4.3-5.165s1.923-5.172,4.3-5.172,4.309,2.322,4.309,5.172S158.129,157.092,155.75,157.092Zm0-11.8c-2.3,0-4.168-2.246-4.168-5.009s1.866-5.006,4.168-5.006,4.175,2.25,4.175,5.006S158.053,145.29,155.75,145.29Zm0-11.873c-2.195,0-3.985-2.137-3.985-4.774s1.79-4.781,3.985-4.781,3.986,2.137,3.986,4.781S157.952,133.416,155.75,133.416Zm0-11.867c-2.094,0-3.8-2.045-3.8-4.557s1.7-4.554,3.8-4.554,3.8,2.038,3.8,4.554S157.851,121.55,155.75,121.55Zm0-11.934c-1.961,0-3.549-1.913-3.549-4.262,0-2.364,1.588-4.269,3.549-4.269s3.556,1.9,3.556,4.269C159.306,107.7,157.712,109.615,155.75,109.615Zm0-11.938c-1.828,0-3.308-1.777-3.308-3.973s1.48-3.969,3.308-3.969,3.309,1.776,3.309,3.969S157.579,97.677,155.75,97.677Zm0-12c-1.663,0-3.011-1.625-3.011-3.62s1.348-3.617,3.011-3.617a3.354,3.354,0,0,1,3.018,3.617C158.768,84.057,157.42,85.682,155.75,85.682Zm0-12a3.316,3.316,0,1,1,2.721-3.268A3.026,3.026,0,0,1,155.75,73.679Zm0-12.033a2.92,2.92,0,1,1,2.4-2.873A2.662,2.662,0,0,1,155.75,61.646Zm0-12.06a2.5,2.5,0,1,1,2.044-2.459A2.286,2.286,0,0,1,155.75,49.586Zm0-12.071a2.065,2.065,0,1,1,1.7-2.03A1.882,1.882,0,0,1,155.75,37.515Zm0-12.124a1.438,1.438,0,0,1-1.29-1.552,1.312,1.312,0,1,1,2.581,0A1.438,1.438,0,0,1,155.75,25.391Zm0-12.128a.988.988,0,0,1-.885-1.07.9.9,0,1,1,1.771,0A.988.988,0,0,1,155.75,13.263Zm0-12.166a.505.505,0,0,1-.455-.546.464.464,0,1,1,.911,0A.5.5,0,0,1,155.75,1.1Zm-9.71,191.157c-2.48,0-4.491-2.41-4.491-5.389s2.012-5.4,4.491-5.4,4.5,2.409,4.5,5.4S148.526,192.254,146.04,192.254Zm0-11.677c-2.461,0-4.466-2.4-4.466-5.365s2-5.358,4.466-5.358,4.472,2.405,4.472,5.358S148.513,180.577,146.04,180.577Zm0-11.744c-2.416,0-4.384-2.348-4.384-5.259s1.967-5.268,4.384-5.268,4.389,2.356,4.389,5.268S148.469,168.833,146.04,168.833Zm0-11.805c-2.347,0-4.245-2.281-4.245-5.1s1.9-5.108,4.245-5.108,4.257,2.288,4.257,5.108S148.393,157.027,146.04,157.027Zm0-11.771c-2.284,0-4.138-2.224-4.138-4.975s1.854-4.967,4.138-4.967,4.149,2.224,4.149,4.967S148.336,145.256,146.04,145.256Zm0-11.839c-2.2,0-3.979-2.137-3.979-4.774s1.783-4.781,3.979-4.781,3.985,2.137,3.985,4.781S148.248,133.416,146.04,133.416Zm0-11.935c-2.062,0-3.739-2.011-3.739-4.489s1.676-4.485,3.739-4.485,3.751,2.007,3.751,4.485S148.115,121.481,146.04,121.481Zm0-11.866c-1.954,0-3.549-1.913-3.549-4.262,0-2.364,1.594-4.269,3.549-4.269s3.554,1.9,3.554,4.269C149.595,107.7,148.008,109.615,146.04,109.615Zm0-11.938c-1.828,0-3.308-1.777-3.308-3.973s1.48-3.969,3.308-3.969,3.321,1.776,3.321,3.969S147.875,97.677,146.04,97.677Zm0-12c-1.664,0-3.011-1.625-3.011-3.62s1.347-3.617,3.011-3.617a3.363,3.363,0,0,1,3.024,3.617C149.064,84.057,147.7,85.682,146.04,85.682Zm0-12a3.314,3.314,0,1,1,2.726-3.268A3.026,3.026,0,0,1,146.04,73.679Zm0-12.033a2.92,2.92,0,1,1,2.4-2.873A2.666,2.666,0,0,1,146.04,61.646Zm0-12.06a2.494,2.494,0,1,1,2.056-2.459A2.277,2.277,0,0,1,146.04,49.586Zm0-12.071a2.064,2.064,0,1,1,1.7-2.03A1.882,1.882,0,0,1,146.04,37.515Zm0-12.124a1.574,1.574,0,1,1,1.3-1.552A1.442,1.442,0,0,1,146.04,25.391Zm0-12.128a.987.987,0,0,1-.879-1.07.9.9,0,1,1,1.771,0A.992.992,0,0,1,146.04,13.263Zm0-12.166a.505.505,0,0,1-.456-.546.466.466,0,1,1,.917,0A.51.51,0,0,1,146.04,1.1Zm-9.7,191.062c-2.435,0-4.409-2.376-4.409-5.294,0-2.933,1.974-5.3,4.409-5.3s4.415,2.364,4.415,5.3C140.752,189.783,138.778,192.159,136.337,192.159Zm0-11.681c-2.417,0-4.384-2.357-4.384-5.267s1.967-5.252,4.384-5.252,4.39,2.349,4.39,5.252S138.759,180.478,136.337,180.478Zm0-11.711c-2.4,0-4.334-2.322-4.334-5.194s1.936-5.2,4.334-5.2,4.333,2.318,4.333,5.2S138.734,168.768,136.337,168.768Zm0-11.775c-2.328,0-4.226-2.261-4.226-5.066s1.9-5.065,4.226-5.065,4.232,2.269,4.232,5.065S138.67,156.993,136.337,156.993Zm0-11.8c-2.259,0-4.087-2.2-4.087-4.91s1.828-4.9,4.087-4.9,4.1,2.2,4.1,4.9S138.6,145.191,136.337,145.191Zm0-11.865c-2.151,0-3.9-2.1-3.9-4.684s1.752-4.686,3.9-4.686,3.9,2.091,3.9,4.686S138.494,133.325,136.337,133.325Zm0-11.875c-2.05,0-3.714-2-3.714-4.458s1.664-4.452,3.714-4.452,3.713,1.993,3.713,4.452S138.392,121.451,136.337,121.451Zm0-11.9c-1.93,0-3.492-1.882-3.492-4.2s1.562-4.2,3.492-4.2,3.5,1.878,3.5,4.2S138.272,109.551,136.337,109.551Zm0-11.969c-1.777,0-3.227-1.734-3.227-3.878s1.449-3.874,3.227-3.874,3.232,1.742,3.232,3.874S138.121,97.582,136.337,97.582Zm0-11.972a3.609,3.609,0,1,1,2.96-3.548A3.288,3.288,0,0,1,136.337,85.61Zm0-11.995a3.253,3.253,0,1,1,2.663-3.2A2.972,2.972,0,0,1,136.337,73.615Zm0-12.033a2.854,2.854,0,1,1,2.347-2.808A2.607,2.607,0,0,1,136.337,61.581Zm0-12.063a2.428,2.428,0,1,1,1.993-2.391A2.219,2.219,0,0,1,136.337,49.518Zm0-12.1a1.966,1.966,0,1,1,1.619-1.935A1.8,1.8,0,0,1,136.337,37.42Zm0-12.1a1.508,1.508,0,1,1,1.24-1.484A1.38,1.38,0,0,1,136.337,25.323Zm0-12.128a.929.929,0,0,1-.829-1,.846.846,0,1,1,1.664,0A.929.929,0,0,1,136.337,13.194Zm0-12.192a.424.424,0,0,1-.379-.452A.424.424,0,0,1,136.337.1a.416.416,0,0,1,.38.452A.416.416,0,0,1,136.337,1Zm-9.7,191.032c-2.372,0-4.308-2.315-4.308-5.169s1.936-5.176,4.308-5.176,4.308,2.322,4.308,5.176S129.017,192.034,126.632,192.034Zm0-11.711c-2.347,0-4.25-2.292-4.25-5.111s1.9-5.1,4.25-5.1,4.252,2.28,4.252,5.1S128.986,180.323,126.632,180.323Zm0-11.68c-2.328,0-4.225-2.277-4.225-5.07s1.9-5.07,4.225-5.07,4.226,2.269,4.226,5.07S128.967,168.643,126.632,168.643Zm0-11.779c-2.271,0-4.118-2.209-4.118-4.937s1.847-4.94,4.118-4.94,4.119,2.212,4.119,4.94S128.91,156.864,126.632,156.864Zm0-11.794c-2.194,0-3.985-2.144-3.985-4.789s1.79-4.782,3.985-4.782,3.986,2.144,3.986,4.782S128.834,145.07,126.632,145.07Zm0-11.839c-2.106,0-3.821-2.061-3.821-4.588s1.714-4.583,3.821-4.583,3.821,2.052,3.821,4.583S128.745,133.23,126.632,133.23Zm0-11.882c-2.005,0-3.631-1.946-3.631-4.356s1.625-4.356,3.631-4.356,3.637,1.958,3.637,4.356S128.638,121.348,126.632,121.348Zm0-11.926c-1.872,0-3.384-1.826-3.384-4.069s1.512-4.076,3.384-4.076,3.391,1.83,3.391,4.076S128.511,109.422,126.632,109.422Zm0-11.939c-1.739,0-3.143-1.688-3.143-3.779s1.4-3.779,3.143-3.779,3.15,1.693,3.15,3.779S128.372,97.483,126.632,97.483Zm0-11.968a3.512,3.512,0,1,1,2.885-3.453A3.208,3.208,0,0,1,126.632,85.515Zm0-12a3.151,3.151,0,1,1,2.587-3.1A2.878,2.878,0,0,1,126.632,73.516Zm0-12.033a2.755,2.755,0,1,1,2.265-2.709A2.521,2.521,0,0,1,126.632,61.483Zm0-12.029a2.362,2.362,0,1,1,1.942-2.326A2.159,2.159,0,0,1,126.632,49.453Zm0-12.1a1.9,1.9,0,1,1,1.562-1.871A1.738,1.738,0,0,1,126.632,37.356Zm0-12.1a1.443,1.443,0,1,1,1.183-1.419A1.319,1.319,0,0,1,126.632,25.258Zm0-12.158a.835.835,0,0,1-.752-.907.765.765,0,1,1,1.505,0A.835.835,0,0,1,126.632,13.1Zm0-12.162A.358.358,0,0,1,126.31.55a.364.364,0,0,1,.322-.391.36.36,0,0,1,.323.391A.354.354,0,0,1,126.632.937Zm-9.7,190.937c-2.315,0-4.181-2.243-4.181-5.01s1.866-5.005,4.181-5.005c2.3,0,4.169,2.235,4.169,5.005S119.231,191.875,116.935,191.875Zm0-11.685c-2.3,0-4.15-2.216-4.15-4.978,0-2.74,1.854-4.964,4.15-4.964s4.137,2.224,4.137,4.964C121.072,177.974,119.219,180.19,116.935,180.19Zm0-11.707c-2.27,0-4.092-2.2-4.092-4.91s1.822-4.911,4.092-4.911c2.252,0,4.087,2.2,4.087,4.911S119.187,168.483,116.935,168.483Zm0-11.779c-2.208,0-3.985-2.14-3.985-4.778s1.777-4.777,3.985-4.777,3.973,2.14,3.973,4.777S119.13,156.7,116.935,156.7Zm0-11.806c-2.132,0-3.853-2.068-3.853-4.618s1.72-4.615,3.853-4.615,3.84,2.068,3.84,4.615S119.054,144.9,116.935,144.9Zm0-11.835c-2.043,0-3.694-1.985-3.694-4.421s1.651-4.424,3.694-4.424,3.682,1.977,3.682,4.424S118.965,133.063,116.935,133.063Zm0-11.836c-1.954,0-3.53-1.9-3.53-4.235s1.575-4.227,3.53-4.227,3.517,1.885,3.517,4.227S118.877,121.227,116.935,121.227Zm0-11.9c-1.84,0-3.315-1.784-3.315-3.97s1.474-3.973,3.315-3.973c1.822,0,3.3,1.776,3.3,3.973S118.757,109.323,116.935,109.323Zm0-11.935c-1.7,0-3.075-1.647-3.075-3.684s1.373-3.677,3.075-3.677S120,91.67,120,93.7,118.624,97.388,116.935,97.388Zm0-12a3.383,3.383,0,1,1,2.765-3.328A3.093,3.093,0,0,1,116.935,85.39Zm0-12a3.023,3.023,0,1,1,2.467-2.976A2.762,2.762,0,0,1,116.935,73.387Zm0-12.03a2.628,2.628,0,1,1,2.151-2.584A2.4,2.4,0,0,1,116.935,61.357Zm0-12.033a2.236,2.236,0,1,1,1.822-2.2A2.045,2.045,0,0,1,116.935,49.324Zm0-12.094a1.774,1.774,0,1,1,1.455-1.746A1.616,1.616,0,0,1,116.935,37.231Zm0-12.1a1.31,1.31,0,0,1,0-2.58,1.313,1.313,0,0,1,0,2.58Zm0-12.128a.75.75,0,0,1-.676-.812.682.682,0,1,1,1.341,0A.75.75,0,0,1,116.935,13Zm0-12.166a.269.269,0,0,1-.253-.288.247.247,0,1,1,.487,0A.267.267,0,0,1,116.935.839Zm-9.717,202.454c-2.195,0-3.979-2.155-3.979-4.8,0-2.626,1.784-4.774,3.979-4.774s3.986,2.148,3.986,4.774C111.2,201.138,109.419,203.292,107.218,203.292Zm0-11.654c-2.195,0-3.979-2.14-3.979-4.774s1.784-4.785,3.979-4.785,3.986,2.144,3.986,4.785S109.419,191.639,107.218,191.639Zm0-11.646c-2.195,0-3.979-2.143-3.979-4.781s1.784-4.767,3.979-4.767,3.986,2.129,3.986,4.767S109.419,179.993,107.218,179.993Zm0-11.741c-2.157,0-3.9-2.094-3.9-4.679s1.739-4.683,3.9-4.683,3.91,2.091,3.91,4.683S109.381,168.252,107.218,168.252Zm0-11.741c-2.1,0-3.814-2.054-3.814-4.585s1.714-4.584,3.814-4.584,3.828,2.053,3.828,4.584S109.331,156.511,107.218,156.511Zm0-11.8c-2.03,0-3.681-1.981-3.681-4.428s1.651-4.425,3.681-4.425,3.695,1.985,3.695,4.425S109.255,144.709,107.218,144.709Zm0-11.805c-1.954,0-3.549-1.917-3.549-4.262s1.594-4.265,3.549-4.265,3.562,1.9,3.562,4.265S109.179,132.9,107.218,132.9Zm0-11.871c-1.847,0-3.365-1.806-3.365-4.041s1.519-4.033,3.365-4.033,3.366,1.81,3.366,4.033S109.078,121.034,107.218,121.034Zm0-11.9c-1.733,0-3.144-1.7-3.144-3.78s1.411-3.783,3.144-3.783,3.157,1.693,3.157,3.783S108.964,109.134,107.218,109.134Zm0-11.942a3.543,3.543,0,1,1,2.91-3.488A3.24,3.24,0,0,1,107.218,97.192Zm0-11.961a3.22,3.22,0,1,1,2.638-3.169A2.944,2.944,0,0,1,107.218,85.23Zm0-12a2.858,2.858,0,1,1,2.347-2.816A2.61,2.61,0,0,1,107.218,73.228Zm0-12.034a2.46,2.46,0,1,1,2.024-2.421A2.247,2.247,0,0,1,107.218,61.194Zm0-12.029a2.068,2.068,0,1,1,1.7-2.038A1.9,1.9,0,0,1,107.218,49.165Zm0-12.094a1.612,1.612,0,1,1,1.323-1.586A1.469,1.469,0,0,1,107.218,37.071Zm0-12.1a1.15,1.15,0,1,1,.943-1.135A1.051,1.051,0,0,1,107.218,24.973Zm0-12.128a.605.605,0,0,1-.531-.653.546.546,0,1,1,1.075,0A.606.606,0,0,1,107.218,12.845ZM107.092.55a.135.135,0,1,1,.265,0,.135.135,0,1,1-.265,0ZM97.514,191.415c-2.094,0-3.8-2.038-3.8-4.55s1.7-4.558,3.8-4.558,3.8,2.05,3.8,4.558S99.608,191.415,97.514,191.415Zm0-11.715c-2.063,0-3.738-2-3.738-4.489s1.676-4.485,3.738-4.485,3.745,2.007,3.745,4.485S99.583,179.7,97.514,179.7Zm0-11.676c-2.05,0-3.707-1.989-3.707-4.451s1.658-4.456,3.707-4.456,3.719,2,3.719,4.456S99.57,168.024,97.514,168.024Zm0-11.741c-2.005,0-3.631-1.947-3.631-4.357s1.625-4.36,3.631-4.36,3.631,1.954,3.631,4.36S99.52,156.283,97.514,156.283Zm0-11.772c-1.948,0-3.523-1.889-3.523-4.231s1.575-4.224,3.523-4.224,3.53,1.89,3.53,4.224S99.463,144.512,97.514,144.512Zm0-11.843c-1.853,0-3.365-1.806-3.365-4.027s1.512-4.049,3.365-4.049,3.365,1.821,3.365,4.049S99.374,132.668,97.514,132.668Zm0-11.863c-1.752,0-3.175-1.708-3.175-3.813s1.423-3.8,3.175-3.8,3.175,1.708,3.175,3.8S99.266,120.806,97.514,120.806Zm0-11.9c-1.632,0-2.955-1.594-2.955-3.552s1.322-3.555,2.955-3.555a3.612,3.612,0,0,1,0,7.108Zm0-11.9a3.349,3.349,0,1,1,2.752-3.3A3.06,3.06,0,0,1,97.514,97Zm0-12a2.988,2.988,0,1,1,2.448-2.937A2.724,2.724,0,0,1,97.514,85Zm0-11.961A2.662,2.662,0,1,1,99.7,70.411,2.431,2.431,0,0,1,97.514,73.037Zm0-12A2.3,2.3,0,1,1,99.4,58.773,2.1,2.1,0,0,1,97.514,61.035Zm0-12.064a1.873,1.873,0,1,1,1.537-1.844A1.709,1.709,0,0,1,97.514,48.971Zm0-12.067A1.443,1.443,0,1,1,98.7,35.485,1.32,1.32,0,0,1,97.514,36.9Zm0-12.09a.907.907,0,0,1-.8-.975.823.823,0,1,1,1.619,0A.912.912,0,0,1,97.514,24.814Zm0-12.166a.461.461,0,1,1,.379-.455A.424.424,0,0,1,97.514,12.648Zm-9.7,178.475c-1.968,0-3.555-1.909-3.555-4.258s1.587-4.265,3.555-4.265,3.555,1.909,3.555,4.265S89.771,191.123,87.811,191.123Zm0-11.639c-1.968,0-3.555-1.917-3.555-4.273s1.587-4.257,3.555-4.257,3.555,1.913,3.555,4.257S89.771,179.484,87.811,179.484Zm0-11.711c-1.936,0-3.492-1.882-3.492-4.2s1.556-4.194,3.492-4.194,3.5,1.871,3.5,4.194S89.746,167.774,87.811,167.774Zm0-11.779c-1.873,0-3.391-1.817-3.391-4.068s1.518-4.068,3.391-4.068,3.39,1.818,3.39,4.068S89.683,155.995,87.811,155.995Zm0-11.737c-1.828,0-3.315-1.783-3.315-3.977s1.487-3.966,3.315-3.966,3.315,1.776,3.315,3.966S89.639,144.258,87.811,144.258Zm0-11.839c-1.74,0-3.151-1.689-3.151-3.776s1.411-3.775,3.151-3.775,3.15,1.693,3.15,3.775S89.55,132.418,87.811,132.418Zm0-11.866c-1.639,0-2.961-1.6-2.961-3.56a3.009,3.009,0,1,1,5.921,0C90.771,118.954,89.449,120.552,87.811,120.552Zm0-11.874a3.378,3.378,0,1,1,2.777-3.325A3.083,3.083,0,0,1,87.811,108.678Zm0-11.939a3.084,3.084,0,1,1,2.53-3.035A2.819,2.819,0,0,1,87.811,96.739Zm0-11.938a2.788,2.788,0,1,1,2.29-2.74A2.537,2.537,0,0,1,87.811,84.8Zm0-12.026a2.4,2.4,0,1,1,1.961-2.364A2.195,2.195,0,0,1,87.811,72.776Zm0-11.969a2.065,2.065,0,1,1,1.7-2.034A1.888,1.888,0,0,1,87.811,60.807Zm0-12.067a1.641,1.641,0,1,1,1.347-1.613A1.5,1.5,0,0,1,87.811,48.74Zm0-12.06a1.217,1.217,0,1,1,1-1.2A1.112,1.112,0,0,1,87.811,36.68Zm0-12.1a.753.753,0,1,1,.626-.744A.689.689,0,0,1,87.811,24.583Zm0-12.128a.241.241,0,0,1-.215-.262.218.218,0,1,1,.43,0A.241.241,0,0,1,87.811,12.454Zm-9.7,178.377c-1.828,0-3.308-1.784-3.308-3.966,0-2.2,1.48-3.973,3.308-3.973s3.309,1.772,3.309,3.973C81.415,189.047,79.934,190.831,78.106,190.831Zm0-11.647c-1.828,0-3.308-1.772-3.308-3.973s1.48-3.958,3.308-3.958,3.309,1.765,3.309,3.958S79.934,179.184,78.106,179.184Zm0-11.741c-1.784,0-3.232-1.727-3.232-3.87s1.449-3.875,3.232-3.875,3.232,1.735,3.232,3.875S79.89,167.444,78.106,167.444Zm0-11.741c-1.746,0-3.15-1.689-3.15-3.776s1.4-3.775,3.15-3.775,3.15,1.693,3.15,3.775S79.84,155.7,78.106,155.7Zm0-11.741c-1.695,0-3.068-1.643-3.068-3.681s1.373-3.681,3.068-3.681,3.068,1.651,3.068,3.681S79.8,143.962,78.106,143.962Zm0-11.835a3.546,3.546,0,1,1,2.9-3.484A3.243,3.243,0,0,1,78.106,132.126Zm0-11.836a3.352,3.352,0,1,1,2.739-3.3A3.065,3.065,0,0,1,78.106,120.29Zm0-11.9a3.088,3.088,0,1,1,2.524-3.033A2.823,2.823,0,0,1,78.106,108.386Zm0-11.939A2.792,2.792,0,1,1,80.39,93.7,2.548,2.548,0,0,1,78.106,96.447Zm0-11.931a2.5,2.5,0,1,1,2.043-2.455A2.278,2.278,0,0,1,78.106,84.517Zm0-12a2.132,2.132,0,1,1,1.746-2.1A1.951,1.951,0,0,1,78.106,72.514Zm0-12a1.775,1.775,0,1,1,1.455-1.746A1.621,1.621,0,0,1,78.106,60.519Zm0-12.033a1.379,1.379,0,1,1,1.132-1.359A1.262,1.262,0,0,1,78.106,48.486Zm0-12.1a.918.918,0,0,1,0-1.807.918.918,0,0,1,0,1.807Zm0-12.094a.458.458,0,0,1,0-.9.46.46,0,0,1,0,.9ZM68.4,190.478a3.353,3.353,0,0,1-3.018-3.613c0-2,1.347-3.62,3.018-3.62s3.011,1.621,3.011,3.62S70.066,190.478,68.4,190.478Zm0-11.643c-1.671,0-3.018-1.625-3.018-3.624A3.352,3.352,0,0,1,68.4,171.6c1.663,0,3.011,1.617,3.011,3.613S70.066,178.835,68.4,178.835Zm0-11.711a3.613,3.613,0,1,1,2.96-3.551A3.3,3.3,0,0,1,68.4,167.125Zm0-11.741a3.515,3.515,0,1,1,2.878-3.457A3.212,3.212,0,0,1,68.4,155.383Zm0-11.767a3.389,3.389,0,1,1,2.77-3.336A3.094,3.094,0,0,1,68.4,143.616Zm0-11.821a3.213,3.213,0,1,1,2.638-3.154A2.925,2.925,0,0,1,68.4,131.8Zm0-11.855a2.988,2.988,0,1,1,2.448-2.948A2.737,2.737,0,0,1,68.4,119.941Zm0-11.843a2.795,2.795,0,1,1,2.283-2.744A2.548,2.548,0,0,1,68.4,108.1Zm0-11.939A2.5,2.5,0,1,1,70.446,93.7,2.281,2.281,0,0,1,68.4,96.159Zm0-11.934a2.2,2.2,0,1,1,1.8-2.163A2.008,2.008,0,0,1,68.4,84.225Zm0-11.965a1.872,1.872,0,1,1,1.531-1.848A1.708,1.708,0,0,1,68.4,72.26Zm0-12.033a1.478,1.478,0,1,1,1.208-1.453A1.344,1.344,0,0,1,68.4,60.227Zm0-12.033a1.082,1.082,0,1,1,.886-1.066A.988.988,0,0,1,68.4,48.193Zm0-12.06a.658.658,0,1,1,.538-.649A.6.6,0,0,1,68.4,36.134Zm0-12.071a.227.227,0,0,1,0-.448.228.228,0,0,1,0,.448ZM58.692,201.775a3.322,3.322,0,0,1,0-6.534,3.322,3.322,0,0,1,0,6.534Zm0-11.654a3.311,3.311,0,1,1,2.721-3.256A3.029,3.029,0,0,1,58.692,190.121Zm0-11.639a3.32,3.32,0,0,1,0-6.531,3.32,3.32,0,0,1,0,6.531Zm0-11.714a3.25,3.25,0,1,1,2.669-3.195A2.968,2.968,0,0,1,58.692,166.768Zm0-11.741a3.149,3.149,0,1,1,2.588-3.1A2.874,2.874,0,0,1,58.692,155.027Zm0-11.775a3.02,3.02,0,1,1,2.48-2.971A2.761,2.761,0,0,1,58.692,143.252Zm0-11.805a2.855,2.855,0,1,1,2.341-2.8A2.6,2.6,0,0,1,58.692,131.447Zm0-11.836a2.656,2.656,0,1,1,2.189-2.618A2.428,2.428,0,0,1,58.692,119.611Zm0-11.908a2.4,2.4,0,1,1,1.967-2.349A2.184,2.184,0,0,1,58.692,107.7Zm0-11.9a2.133,2.133,0,1,1,1.752-2.1A1.95,1.95,0,0,1,58.692,95.8Zm0-11.9a1.87,1.87,0,1,1,1.537-1.841A1.715,1.715,0,0,1,58.692,83.9Zm0-12a1.513,1.513,0,1,1,1.246-1.5A1.39,1.39,0,0,1,58.692,71.906Zm0-12a1.152,1.152,0,1,1,.943-1.135A1.056,1.056,0,0,1,58.692,59.908Zm0-12.033a.758.758,0,1,1,.62-.748A.695.695,0,0,1,58.692,47.875Zm0-12.071a.3.3,0,0,1-.272-.319.305.305,0,0,1,.272-.326.3.3,0,0,1,.272.326A.3.3,0,0,1,58.692,35.8Zm-9.7,165.577a2.92,2.92,0,0,1,0-5.746,2.922,2.922,0,0,1,0,5.746Zm0-11.65a2.917,2.917,0,0,1,0-5.742,2.919,2.919,0,0,1,0,5.742Zm0-11.635a2.924,2.924,0,0,1,0-5.752,2.925,2.925,0,0,1,0,5.752Zm0-11.714a2.855,2.855,0,0,1,0-5.616,2.855,2.855,0,0,1,0,5.616Zm0-11.737a2.764,2.764,0,0,1,0-5.434,2.764,2.764,0,0,1,0,5.434Zm0-11.775a2.627,2.627,0,1,1,2.151-2.588A2.4,2.4,0,0,1,48.988,142.869Zm0-11.806a2.463,2.463,0,1,1,2.018-2.421A2.242,2.242,0,0,1,48.988,131.063Zm0-11.809a2.3,2.3,0,1,1,1.886-2.261A2.1,2.1,0,0,1,48.988,119.254Zm0-11.869a2.066,2.066,0,1,1,1.7-2.031A1.889,1.889,0,0,1,48.988,107.384Zm0-11.935A1.774,1.774,0,1,1,50.443,93.7,1.618,1.618,0,0,1,48.988,95.449Zm0-11.934A1.475,1.475,0,1,1,50.2,82.062,1.349,1.349,0,0,1,48.988,83.515Zm0-11.969a1.145,1.145,0,1,1,.943-1.135A1.051,1.051,0,0,1,48.988,71.546Zm0-11.965a.821.821,0,1,1,.677-.808A.755.755,0,0,1,48.988,59.581Zm0-12.063a.4.4,0,1,1,.323-.391A.362.362,0,0,1,48.988,47.518Zm-9.7,153.445a2.5,2.5,0,0,1,0-4.91,2.5,2.5,0,0,1,0,4.91Zm0-11.65a2.5,2.5,0,0,1,0-4.911,2.5,2.5,0,0,1,0,4.911Zm0-11.639a2.5,2.5,0,0,1,0-4.914,2.5,2.5,0,0,1,0,4.914Zm0-11.714a2.428,2.428,0,0,1,0-4.778,2.43,2.43,0,0,1,0,4.778Zm0-11.707a2.366,2.366,0,0,1,0-4.652,2.366,2.366,0,0,1,0,4.652Zm0-11.779a2.228,2.228,0,1,1,1.828-2.193A2.034,2.034,0,0,1,39.284,142.474Zm0-11.8a2.07,2.07,0,1,1,1.7-2.034A1.883,1.883,0,0,1,39.284,130.676Zm0-11.839a1.87,1.87,0,1,1,1.537-1.844A1.711,1.711,0,0,1,39.284,118.837Zm0-11.87a1.641,1.641,0,1,1,1.348-1.613A1.5,1.5,0,0,1,39.284,106.967Zm0-11.9A1.379,1.379,0,1,1,40.416,93.7,1.261,1.261,0,0,1,39.284,95.066Zm0-11.938a1.085,1.085,0,1,1,.886-1.066A.989.989,0,0,1,39.284,83.128Zm0-11.965a.756.756,0,1,1,.62-.751A.69.69,0,0,1,39.284,71.163Zm0-12a.4.4,0,1,1,.316-.387A.357.357,0,0,1,39.284,59.16Zm-.025-12.033c0-.015.006-.03.025-.03a.031.031,0,0,1,.025.03c0,.019-.013.034-.025.034S39.259,47.146,39.259,47.127ZM29.58,200.53a2.067,2.067,0,0,1,0-4.068,2.069,2.069,0,0,1,0,4.068Zm0-11.634a2.066,2.066,0,0,1,0-4.065,2.067,2.067,0,0,1,0,4.065Zm0-11.647a2.07,2.07,0,0,1,0-4.072,2.071,2.071,0,0,1,0,4.072Zm0-11.741a1.971,1.971,0,0,1,0-3.878,1.972,1.972,0,0,1,0,3.878Zm0-11.711a1.9,1.9,0,0,1,0-3.737,1.9,1.9,0,0,1,0,3.737Zm0-11.763a1.774,1.774,0,0,1,0-3.491,1.775,1.775,0,0,1,0,3.491Zm0-11.813a1.61,1.61,0,1,1,1.316-1.579A1.465,1.465,0,0,1,29.58,130.221Zm0-11.8a1.445,1.445,0,1,1,1.183-1.427A1.323,1.323,0,0,1,29.58,118.419Zm0-11.873a1.216,1.216,0,1,1,.993-1.192A1.108,1.108,0,0,1,29.58,106.545Zm0-11.939a.916.916,0,1,1,.753-.9A.842.842,0,0,1,29.58,94.607Zm0-11.9a.6.6,0,0,1-.538-.645.545.545,0,1,1,1.07,0A.6.6,0,0,1,29.58,82.707Zm0-11.965a.306.306,0,0,1-.272-.33.3.3,0,0,1,.272-.318.3.3,0,0,1,.266.318A.3.3,0,0,1,29.58,70.742ZM19.869,200.06a1.445,1.445,0,0,1-1.29-1.564,1.424,1.424,0,0,1,1.29-1.533,1.423,1.423,0,0,1,1.29,1.533A1.444,1.444,0,0,1,19.869,200.06Zm0-11.639a1.583,1.583,0,0,1,0-3.112,1.583,1.583,0,0,1,0,3.112Zm0-11.658a1.574,1.574,0,0,1,0-3.1,1.574,1.574,0,0,1,0,3.1Zm0-11.706a1.51,1.51,0,0,1,0-2.968,1.507,1.507,0,0,1,0,2.968Zm0-11.711a1.448,1.448,0,0,1,0-2.846,1.447,1.447,0,0,1,0,2.846Zm0-11.767a1.316,1.316,0,0,1,0-2.588,1.315,1.315,0,0,1,0,2.588Zm0-11.813a1.145,1.145,0,0,1,0-2.251,1.142,1.142,0,0,1,0,2.251Zm0-11.8a.988.988,0,1,1,.81-.975A.912.912,0,0,1,19.869,117.968Zm0-11.871a.7.7,0,0,1-.62-.744.63.63,0,1,1,.62.744Zm0-11.942a.457.457,0,0,1,0-.9.456.456,0,0,1,0,.9Zm0-11.869a.206.206,0,0,1-.183-.224.21.21,0,0,1,.183-.228.214.214,0,0,1,.19.228A.21.21,0,0,1,19.869,82.286Zm-9.7,117.288a1,1,0,0,1-.885-1.078.982.982,0,0,1,.885-1.055.982.982,0,0,1,.885,1.055A1,1,0,0,1,10.166,199.574Zm0-11.649a1.081,1.081,0,0,1,0-2.126,1.081,1.081,0,0,1,0,2.126Zm0-11.643a1.083,1.083,0,0,1,0-2.129,1.083,1.083,0,0,1,0,2.129Zm0-11.711a1.016,1.016,0,0,1,0-2,1.016,1.016,0,0,1,0,2Zm0-11.741a.918.918,0,0,1,0-1.806.918.918,0,0,1,0,1.806Zm0-11.744a.814.814,0,0,1,0-1.6.814.814,0,0,1,0,1.6Zm0-11.8a.657.657,0,0,1,0-1.294.658.658,0,0,1,0,1.294Zm0-11.843a.456.456,0,1,1,.38-.452A.421.421,0,0,1,10.166,117.444Zm0-11.836a.262.262,0,1,1,.215-.255A.239.239,0,0,1,10.166,105.608Zm-9.7,93.45A.525.525,0,0,1,0,198.5a.5.5,0,0,1,.462-.538.5.5,0,0,1,.455.538A.52.52,0,0,1,.462,199.058Zm0-11.65a.554.554,0,0,1,0-1.093.556.556,0,0,1,0,1.093Zm0-11.638A.519.519,0,0,1,0,175.212a.5.5,0,0,1,.462-.539.5.5,0,0,1,.455.539A.514.514,0,0,1,.462,175.769Zm0-11.741a.458.458,0,0,1,0-.9.459.459,0,0,1,0,.9Zm0-11.706a.367.367,0,0,1-.329-.395.362.362,0,0,1,.329-.387.361.361,0,0,1,.323.387A.366.366,0,0,1,.462,152.322Zm0-11.749a.276.276,0,0,1-.247-.292.281.281,0,0,1,.247-.292.276.276,0,0,1,.24.292A.271.271,0,0,1,.462,140.573ZM.329,128.642a.148.148,0,0,1,.133-.163.152.152,0,0,1,.133.163.151.151,0,0,1-.133.16A.147.147,0,0,1,.329,128.642ZM.462,209.7a.415.415,0,0,1,.374.455.424.424,0,0,1-.374.455.429.429,0,0,1-.38-.455A.419.419,0,0,1,.462,209.7Zm0,11.71a.361.361,0,0,1,.323.388.353.353,0,0,1-.323.379.354.354,0,0,1-.329-.379A.362.362,0,0,1,.462,221.409Zm0,11.772a.238.238,0,0,1,.209.258c0,.151-.089.258-.209.258a.237.237,0,0,1-.221-.258A.247.247,0,0,1,.462,233.18Zm.082,11.9a.1.1,0,0,1-.082.107.1.1,0,0,1-.083-.107.092.092,0,0,1,.083-.091A.091.091,0,0,1,.544,245.08Zm9.622-35.928a1.01,1.01,0,0,1,0,1.989,1.01,1.01,0,0,1,0-1.989Zm0,11.771a.893.893,0,0,1,0,1.753.89.89,0,0,1,0-1.753Zm0,11.7a.76.76,0,0,1,.677.812.747.747,0,0,1-.677.8.751.751,0,0,1-.677-.8A.764.764,0,0,1,10.166,232.626Zm0,11.817a.6.6,0,0,1,.538.637.606.606,0,0,1-.538.653.61.61,0,0,1-.544-.653A.6.6,0,0,1,10.166,244.443Zm0,11.863a.429.429,0,1,1-.348.417A.391.391,0,0,1,10.166,256.306Zm.184,12.059c0,.137-.083.236-.184.236s-.183-.1-.183-.236a.186.186,0,1,1,.367,0Zm9.52-59.714a1.52,1.52,0,0,1,0,2.99,1.523,1.523,0,0,1,0-2.99Zm0,11.756a1.416,1.416,0,0,1,0,2.785,1.416,1.416,0,0,1,0-2.785Zm0,11.779a1.159,1.159,0,0,1,1.05,1.252,1.174,1.174,0,0,1-1.05,1.267,1.179,1.179,0,0,1-1.05-1.267A1.164,1.164,0,0,1,19.869,232.186Zm0,11.756a1.064,1.064,0,0,1,.949,1.138.957.957,0,1,1-1.885,0A1.055,1.055,0,0,1,19.869,243.942Zm0,11.885a.92.92,0,1,1-.746.9A.832.832,0,0,1,19.869,255.828Zm0,11.839a.716.716,0,0,1,0,1.412.716.716,0,0,1,0-1.412Zm0,11.9a.454.454,0,0,1,0,.9.455.455,0,0,1,0-.9Zm.165,12.082c0,.122-.07.213-.165.213a.193.193,0,0,1-.164-.213.182.182,0,0,1,.164-.182A.178.178,0,0,1,20.035,291.649Zm9.546-83.439a1.968,1.968,0,0,1,0,3.871,1.966,1.966,0,0,1,0-3.871Zm0,11.7a1.746,1.746,0,0,1,1.556,1.882,1.722,1.722,0,0,1-1.556,1.867,1.727,1.727,0,0,1-1.569-1.867A1.751,1.751,0,0,1,29.58,219.914Zm0,11.779a1.775,1.775,0,0,1,0,3.491,1.774,1.774,0,0,1,0-3.491Zm0,11.809a1.608,1.608,0,1,1-1.322,1.578A1.469,1.469,0,0,1,29.58,243.5Zm0,11.84a1.4,1.4,0,0,1,0,2.762,1.4,1.4,0,0,1,0-2.762Zm0,11.869a1.179,1.179,0,1,1-.974,1.153A1.075,1.075,0,0,1,29.58,267.211Zm0,11.9a.917.917,0,1,1-.759.91A.838.838,0,0,1,29.58,279.112Zm0,11.946a.551.551,0,0,1,.506.591.52.52,0,1,1-1.018,0A.551.551,0,0,1,29.58,291.058Zm0,11.953a.266.266,0,0,1,.234.3.242.242,0,1,1-.475,0A.267.267,0,0,1,29.58,303.011Zm9.7-95.256a2.432,2.432,0,0,1,0,4.781,2.43,2.43,0,0,1,0-4.781Zm0,11.748a2.33,2.33,0,0,1,0,4.584,2.329,2.329,0,0,1,0-4.584Zm0,11.779a2.189,2.189,0,1,1-1.8,2.155A2,2,0,0,1,39.284,231.283Zm0,11.763a2.068,2.068,0,1,1-1.7,2.034A1.888,1.888,0,0,1,39.284,243.046Zm0,11.87a1.846,1.846,0,1,1-1.505,1.806A1.676,1.676,0,0,1,39.284,254.917Zm0,11.878a1.6,1.6,0,1,1-1.316,1.57A1.466,1.466,0,0,1,39.284,266.794Zm0,11.9a1.341,1.341,0,0,1,0,2.642,1.341,1.341,0,0,1,0-2.642Zm0,11.923a1.057,1.057,0,1,1-.867,1.032A.964.964,0,0,1,39.284,290.617Zm0,11.984a.716.716,0,0,1,0,1.412.718.718,0,0,1,0-1.412Zm0,11.991a.364.364,0,0,1,0,.714.363.363,0,0,1,0-.714Zm9.7-107.225a2.828,2.828,0,0,1,0,5.563,2.828,2.828,0,0,1,0-5.563Zm0,11.711a2.759,2.759,0,0,1,0,5.427,2.759,2.759,0,0,1,0-5.427Zm0,11.8a2.6,2.6,0,1,1-2.132,2.558A2.385,2.385,0,0,1,48.988,230.881Zm0,11.779a2.466,2.466,0,1,1-2.018,2.421A2.249,2.249,0,0,1,48.988,242.659Zm0,11.847a2.261,2.261,0,1,1-1.854,2.216A2.065,2.065,0,0,1,48.988,254.506Zm0,11.87a2.032,2.032,0,1,1-1.67,1.988A1.857,1.857,0,0,1,48.988,266.377Zm0,11.931a1.735,1.735,0,1,1-1.43,1.715A1.586,1.586,0,0,1,48.988,278.307Zm0,11.939a1.31,1.31,0,0,1,1.183,1.4,1.208,1.208,0,1,1-2.372,0A1.314,1.314,0,0,1,48.988,290.246Zm0,11.954a1.128,1.128,0,1,1-.917,1.107A1.029,1.029,0,0,1,48.988,302.2Zm0,12.014a.683.683,0,0,1,.62.736.63.63,0,1,1-1.24,0A.684.684,0,0,1,48.988,314.214Zm0,12.029a.328.328,0,0,1,.3.349.3.3,0,1,1-.594,0A.328.328,0,0,1,48.988,326.243Zm9.7-119.292a3.248,3.248,0,1,1-2.663,3.2A2.968,2.968,0,0,1,58.692,206.951Zm0,11.734a3.157,3.157,0,1,1-2.581,3.112A2.888,2.888,0,0,1,58.692,218.685Zm0,11.824a2.986,2.986,0,1,1-2.448,2.93A2.721,2.721,0,0,1,58.692,230.508Zm0,11.794a2.835,2.835,0,1,1-2.309,2.778A2.576,2.576,0,0,1,58.692,242.3Zm0,11.84a2.628,2.628,0,1,1-2.151,2.58A2.407,2.407,0,0,1,58.692,254.143Zm0,11.855a2.408,2.408,0,1,1-1.967,2.367A2.2,2.2,0,0,1,58.692,266Zm0,11.953a2.1,2.1,0,1,1-1.721,2.072A1.916,1.916,0,0,1,58.692,277.95Zm0,11.9a1.836,1.836,0,1,1-1.506,1.8A1.678,1.678,0,0,1,58.692,289.851Zm0,12.006a1.474,1.474,0,1,1-1.208,1.45A1.336,1.336,0,0,1,58.692,301.857Zm0,12a1.111,1.111,0,1,1-.911,1.093A1.01,1.01,0,0,1,58.692,313.857Zm0,12.021a.727.727,0,1,1-.588.714A.657.657,0,0,1,58.692,325.878Zm0,12.075a.261.261,0,0,1,.24.282.276.276,0,0,1-.24.3.286.286,0,0,1-.247-.3A.271.271,0,0,1,58.692,337.953ZM68.4,194.929a3.312,3.312,0,0,1,2.986,3.567c0,2-1.335,3.59-2.986,3.59a3.636,3.636,0,0,1,0-7.157Zm0,11.673a3.605,3.605,0,1,1-2.967,3.552A3.3,3.3,0,0,1,68.4,206.6Zm0,11.733a3.514,3.514,0,1,1-2.885,3.462A3.211,3.211,0,0,1,68.4,218.335Zm0,11.78a3.378,3.378,0,1,1-2.777,3.324A3.089,3.089,0,0,1,68.4,230.114Zm0,11.832a3.19,3.19,0,1,1-2.619,3.134A2.906,2.906,0,0,1,68.4,241.946Zm0,11.847a2.98,2.98,0,1,1-2.454,2.93A2.722,2.722,0,0,1,68.4,253.793Zm0,11.863a2.762,2.762,0,1,1-2.265,2.709A2.512,2.512,0,0,1,68.4,265.656Zm0,11.938a2.46,2.46,0,1,1-2.024,2.429A2.252,2.252,0,0,1,68.4,277.594Zm0,11.969a2.131,2.131,0,1,1-1.759,2.087A1.941,1.941,0,0,1,68.4,289.563Zm0,11.969a1.8,1.8,0,1,1-1.487,1.776A1.641,1.641,0,0,1,68.4,301.531Zm0,12a1.441,1.441,0,1,1-1.189,1.419A1.315,1.315,0,0,1,68.4,313.531Zm0,12.029a1.053,1.053,0,1,1-.867,1.032A.954.954,0,0,1,68.4,325.559Zm0,12.068a.616.616,0,0,1,0,1.214.616.616,0,0,1,0-1.214Zm.126,12.249c0,.091-.057.167-.126.167a.157.157,0,0,1-.139-.167.149.149,0,0,1,.139-.159A.144.144,0,0,1,68.529,349.876Zm9.577-155.308c1.809,0,3.283,1.757,3.283,3.928,0,2.186-1.474,3.946-3.283,3.946s-3.283-1.76-3.283-3.946C74.823,196.325,76.291,194.568,78.106,194.568Zm0,11.7c1.784,0,3.232,1.746,3.232,3.886,0,2.125-1.449,3.871-3.232,3.871s-3.232-1.746-3.232-3.871C74.874,208.013,76.323,206.268,78.106,206.268Zm0,11.748c1.734,0,3.15,1.685,3.15,3.78s-1.416,3.779-3.15,3.779-3.15-1.685-3.15-3.779S76.361,218.016,78.106,218.016Zm0,11.772c1.676,0,3.037,1.647,3.037,3.651s-1.36,3.643-3.037,3.643a3.382,3.382,0,0,1-3.043-3.643C75.064,231.435,76.43,229.788,78.106,229.788Zm0,11.832a3.52,3.52,0,1,1-2.878,3.461A3.215,3.215,0,0,1,78.106,241.62Zm0,11.84a3.328,3.328,0,1,1-2.714,3.263A3.034,3.034,0,0,1,78.106,253.459Zm0,11.9a3.065,3.065,0,1,1-2.5,3.005A2.806,2.806,0,0,1,78.106,265.36Zm0,11.9a2.559,2.559,0,0,1,2.283,2.762,2.323,2.323,0,1,1-4.573,0A2.569,2.569,0,0,1,78.106,277.26Zm0,11.984a2.233,2.233,0,0,1,2.018,2.405,2.056,2.056,0,1,1-4.042,0A2.234,2.234,0,0,1,78.106,289.244Zm0,11.991a2.1,2.1,0,1,1-1.72,2.072A1.911,1.911,0,0,1,78.106,301.235Zm0,12a1.74,1.74,0,1,1-1.423,1.715A1.595,1.595,0,0,1,78.106,313.235Zm0,12.037a1.347,1.347,0,0,1,0,2.649,1.346,1.346,0,0,1,0-2.649Zm0,12.1a.888.888,0,1,1-.727.866A.813.813,0,0,1,78.106,337.369Zm0,12.1a.379.379,0,0,1,.348.41.385.385,0,0,1-.348.425.389.389,0,0,1-.354-.425A.384.384,0,0,1,78.106,349.467Zm9.7-155.191c1.948,0,3.53,1.9,3.53,4.22,0,2.338-1.581,4.235-3.53,4.235s-3.53-1.9-3.53-4.235C84.281,196.174,85.862,194.276,87.811,194.276Zm0,11.688c1.935,0,3.5,1.868,3.5,4.19s-1.569,4.19-3.5,4.19-3.492-1.868-3.492-4.19S85.874,205.964,87.811,205.964Zm0,11.764c1.872,0,3.39,1.829,3.39,4.068s-1.518,4.076-3.39,4.076-3.391-1.83-3.391-4.076S85.938,217.728,87.811,217.728Zm0,11.764c1.815,0,3.289,1.776,3.289,3.947s-1.475,3.946-3.289,3.946-3.283-1.776-3.283-3.946S86,229.492,87.811,229.492Zm0,11.839c1.727,0,3.118,1.685,3.118,3.749,0,2.079-1.392,3.75-3.118,3.75s-3.125-1.67-3.125-3.75C84.685,243.016,86.09,241.331,87.811,241.331Zm0,11.878a3.577,3.577,0,1,1-2.929,3.514A3.269,3.269,0,0,1,87.811,253.209Zm0,11.863a3.353,3.353,0,1,1-2.746,3.293A3.054,3.054,0,0,1,87.811,265.071Zm0,11.946a3.048,3.048,0,1,1-2.5,3.005A2.778,2.778,0,0,1,87.811,277.017Zm0,11.961a2.723,2.723,0,1,1-2.233,2.671A2.484,2.484,0,0,1,87.811,288.978Zm0,12.007a2.361,2.361,0,1,1-1.936,2.322A2.151,2.151,0,0,1,87.811,300.985Zm0,11.961a2.037,2.037,0,1,1-1.671,2A1.858,1.858,0,0,1,87.811,312.946Zm0,12.067a1.6,1.6,0,1,1-1.316,1.578A1.474,1.474,0,0,1,87.811,325.013Zm0,12.1a1.145,1.145,0,1,1-.943,1.124A1.046,1.046,0,0,1,87.811,337.111Zm0,12.1a.687.687,0,1,1-.563.668A.63.63,0,0,1,87.811,349.209Zm.164,12.325a.165.165,0,1,1-.329,0,.167.167,0,1,1,.329,0Zm9.54-167.516c2.068,0,3.745,2,3.745,4.478s-1.676,4.5-3.745,4.5-3.738-2.011-3.738-4.5S95.452,194.018,97.514,194.018Zm0,11.711c2.037,0,3.694,1.981,3.694,4.424s-1.657,4.417-3.694,4.417-3.682-1.989-3.682-4.417S95.483,205.729,97.514,205.729Zm0,11.71c2.005,0,3.631,1.943,3.631,4.357s-1.625,4.356-3.631,4.356-3.631-1.951-3.631-4.356S95.509,217.44,97.514,217.44Zm0,11.809c1.936,0,3.5,1.867,3.5,4.19s-1.569,4.2-3.5,4.2-3.5-1.882-3.5-4.2S95.585,229.249,97.514,229.249Zm0,11.832c1.847,0,3.334,1.792,3.334,4s-1.487,4.008-3.334,4.008-3.34-1.792-3.34-4.008S95.673,241.081,97.514,241.081Zm0,11.863c1.746,0,3.15,1.7,3.15,3.779s-1.4,3.779-3.15,3.779-3.144-1.685-3.144-3.779S95.781,252.943,97.514,252.943Zm0,11.9a3.276,3.276,0,0,1,2.935,3.521c0,1.951-1.316,3.537-2.935,3.537s-2.935-1.587-2.935-3.537A3.276,3.276,0,0,1,97.514,264.844Zm0,11.946a3.279,3.279,0,1,1-2.689,3.233A2.99,2.99,0,0,1,97.514,276.789Zm0,11.931a2.99,2.99,0,1,1-2.448,2.929A2.726,2.726,0,0,1,97.514,288.72Zm0,12.037a2.593,2.593,0,1,1-2.125,2.55A2.363,2.363,0,0,1,97.514,300.757Zm0,11.991a2.23,2.23,0,1,1-1.828,2.2A2.044,2.044,0,0,1,97.514,312.749Zm0,12.037a1.837,1.837,0,1,1-1.506,1.806A1.681,1.681,0,0,1,97.514,324.785Zm0,12.1a1.383,1.383,0,1,1-1.126,1.352A1.258,1.258,0,0,1,97.514,336.883Zm0,12.129a.878.878,0,1,1-.727.865A.807.807,0,0,1,97.514,349.012Zm0,12.127a.364.364,0,0,1,.329.395.359.359,0,0,1-.329.38.349.349,0,0,1-.316-.38A.355.355,0,0,1,97.514,361.139Zm9.7-155.676c2.163,0,3.91,2.094,3.91,4.69,0,2.58-1.746,4.682-3.91,4.682s-3.9-2.1-3.9-4.682C103.322,207.558,105.061,205.463,107.218,205.463Zm0,11.749c2.113,0,3.828,2.049,3.828,4.584s-1.715,4.592-3.828,4.592-3.814-2.065-3.814-4.592S105.118,217.212,107.218,217.212Zm0,11.794c2.037,0,3.695,1.988,3.695,4.432s-1.658,4.417-3.695,4.417-3.681-1.966-3.681-4.417S105.188,229.006,107.218,229.006Zm0,11.839c1.949,0,3.536,1.9,3.536,4.235s-1.588,4.236-3.536,4.236-3.523-1.9-3.523-4.236S105.276,240.845,107.218,240.845Zm0,11.878c1.854,0,3.341,1.783,3.341,4s-1.487,4.007-3.341,4.007-3.327-1.791-3.327-4.007S105.378,252.723,107.218,252.723Zm0,11.908c1.728,0,3.125,1.669,3.125,3.733,0,2.08-1.4,3.765-3.125,3.765s-3.118-1.685-3.118-3.765C104.1,266.3,105.5,264.631,107.218,264.631Zm0,11.93a3.511,3.511,0,1,1-2.878,3.461A3.207,3.207,0,0,1,107.218,276.562Zm0,11.961a3.188,3.188,0,1,1-2.606,3.127A2.908,2.908,0,0,1,107.218,288.523Zm0,12.037a2.795,2.795,0,1,1-2.284,2.747A2.549,2.549,0,0,1,107.218,300.56Zm0,11.992a2.441,2.441,0,1,1-1.986,2.4A2.231,2.231,0,0,1,107.218,312.551Zm0,12.037a2.043,2.043,0,1,1-1.663,2A1.859,1.859,0,0,1,107.218,324.588Zm0,12.1a1.575,1.575,0,1,1-1.284,1.548A1.443,1.443,0,0,1,107.218,336.686Zm0,12.1a1.011,1.011,0,0,1,.918,1.093.931.931,0,1,1-1.828,0A1.015,1.015,0,0,1,107.218,348.784Zm0,12.128a.576.576,0,0,1,.519.623.522.522,0,1,1-1.031,0A.576.576,0,0,1,107.218,360.911Zm.063,12.258a.064.064,0,0,1-.063.069.067.067,0,0,1-.056-.069c0-.023.031-.068.056-.068S107.281,373.146,107.281,373.169Zm9.653-179.637c2.284,0,4.137,2.231,4.137,4.964,0,2.755-1.853,4.978-4.137,4.978s-4.15-2.223-4.15-4.978C112.785,195.764,114.639,193.532,116.935,193.532Zm0,11.741c2.24,0,4.061,2.186,4.061,4.88s-1.821,4.873-4.061,4.873-4.068-2.186-4.068-4.873S114.683,205.274,116.935,205.274Zm0,11.733c2.2,0,3.973,2.148,3.973,4.79s-1.777,4.781-3.973,4.781-3.985-2.14-3.985-4.781S114.727,217.007,116.935,217.007Zm0,11.818c2.119,0,3.84,2.056,3.84,4.614s-1.721,4.615-3.84,4.615-3.853-2.065-3.853-4.615S114.8,228.824,116.935,228.824Zm0,11.839c2.031,0,3.682,1.973,3.682,4.417s-1.651,4.425-3.682,4.425-3.694-1.981-3.694-4.425S114.891,240.664,116.935,240.664Zm0,11.869c1.93,0,3.492,1.883,3.492,4.19,0,2.322-1.562,4.2-3.492,4.2s-3.5-1.882-3.5-4.2C113.43,254.416,115,252.533,116.935,252.533Zm0,11.931c1.79,0,3.245,1.746,3.245,3.9s-1.455,3.909-3.245,3.909-3.264-1.746-3.264-3.909S115.132,264.464,116.935,264.464Zm0,11.931c1.658,0,3,1.632,3,3.628s-1.347,3.613-3,3.613a3.358,3.358,0,0,1-3.023-3.613C113.911,278.027,115.259,276.395,116.935,276.395Zm0,11.977a3.341,3.341,0,1,1-2.758,3.278A3.049,3.049,0,0,1,116.935,288.371Zm0,11.991a2.983,2.983,0,1,1-2.46,2.945A2.731,2.731,0,0,1,116.935,300.362Zm0,12.044a2.587,2.587,0,1,1-2.132,2.543A2.36,2.36,0,0,1,116.935,312.407Zm0,12.052a2.172,2.172,0,1,1-1.783,2.133A1.972,1.972,0,0,1,116.935,324.459Zm0,12.067a1.739,1.739,0,1,1-1.43,1.708A1.593,1.593,0,0,1,116.935,336.526Zm0,12.129a1.244,1.244,0,1,1-1.031,1.222A1.138,1.138,0,0,1,116.935,348.655Zm0,12.127a.681.681,0,0,1,.608.752.692.692,0,0,1-.608.744.7.7,0,0,1-.626-.744A.69.69,0,0,1,116.935,360.782Zm0,12.167a.209.209,0,0,1,.177.22.2.2,0,0,1-.177.22.209.209,0,0,1-.2-.22A.214.214,0,0,1,116.935,372.949Zm9.7-179.538c2.353,0,4.252,2.269,4.252,5.085,0,2.838-1.9,5.115-4.252,5.115s-4.25-2.277-4.25-5.115C122.382,195.68,124.285,193.411,126.632,193.411Zm0,11.688c2.322,0,4.2,2.269,4.2,5.055s-1.879,5.039-4.2,5.039-4.2-2.262-4.2-5.039S124.317,205.1,126.632,205.1Zm0,11.764c2.278,0,4.119,2.209,4.119,4.933s-1.841,4.948-4.119,4.948-4.118-2.217-4.118-4.948S124.361,216.863,126.632,216.863Zm0,11.795c2.2,0,3.986,2.14,3.986,4.781s-1.784,4.789-3.986,4.789-3.985-2.148-3.985-4.789S124.438,228.657,126.632,228.657Zm0,11.839c2.113,0,3.821,2.05,3.821,4.584s-1.708,4.592-3.821,4.592-3.821-2.057-3.821-4.592S124.526,240.5,126.632,240.5Zm0,11.87c2.005,0,3.637,1.958,3.637,4.357,0,2.413-1.632,4.356-3.637,4.356S123,259.136,123,256.723C123,254.325,124.627,252.366,126.632,252.366Zm0,11.977c1.86,0,3.366,1.806,3.366,4.022,0,2.239-1.506,4.053-3.366,4.053s-3.359-1.814-3.359-4.053C123.274,266.149,124.779,264.343,126.632,264.343Zm0,11.93c1.721,0,3.125,1.677,3.125,3.749s-1.4,3.735-3.125,3.735-3.118-1.677-3.118-3.735S124.912,276.273,126.632,276.273Zm0,11.954a3.484,3.484,0,1,1-2.853,3.423A3.192,3.192,0,0,1,126.632,288.227Zm0,12.014a3.121,3.121,0,1,1-2.555,3.066A2.847,2.847,0,0,1,126.632,300.241Zm0,12.022a2.734,2.734,0,1,1-2.226,2.687A2.5,2.5,0,0,1,126.632,312.263Zm0,12.067a2.3,2.3,0,1,1-1.885,2.262A2.1,2.1,0,0,1,126.632,324.33Zm0,12.067a1.866,1.866,0,1,1-1.537,1.837A1.706,1.706,0,0,1,126.632,336.4Zm0,12.128a1.383,1.383,0,1,1-1.125,1.351A1.257,1.257,0,0,1,126.632,348.525Zm0,12.158a.788.788,0,0,1,.7.85.712.712,0,1,1-.7-.85Zm0,12.166a.329.329,0,0,1,0,.645.329.329,0,0,1,0-.645Zm9.7-179.61c2.423,0,4.39,2.357,4.39,5.256,0,2.93-1.967,5.283-4.39,5.283s-4.384-2.353-4.384-5.283C131.952,195.6,133.92,193.24,136.337,193.24Zm0,11.737c2.385,0,4.308,2.322,4.308,5.176s-1.923,5.168-4.308,5.168-4.308-2.314-4.308-5.168S133.958,204.977,136.337,204.977Zm0,11.779c2.327,0,4.2,2.247,4.2,5.04,0,2.778-1.873,5.024-4.2,5.024s-4.194-2.246-4.194-5.024C132.143,219,134.021,216.756,136.337,216.756Zm0,11.8c2.245,0,4.067,2.185,4.067,4.88s-1.822,4.873-4.067,4.873-4.061-2.186-4.061-4.873S134.1,228.558,136.337,228.558Zm0,11.878c2.144,0,3.878,2.086,3.878,4.644s-1.733,4.66-3.878,4.66-3.872-2.095-3.872-4.66S134.192,240.436,136.337,240.436Zm0,11.863c2.036,0,3.688,1.98,3.688,4.424s-1.651,4.432-3.688,4.432-3.688-1.989-3.688-4.432S134.306,252.3,136.337,252.3Zm0,11.908c1.917,0,3.473,1.867,3.473,4.159,0,2.308-1.556,4.175-3.473,4.175s-3.467-1.868-3.467-4.175C132.87,266.073,134.426,264.206,136.337,264.206Zm0,11.961c1.771,0,3.207,1.73,3.207,3.855s-1.436,3.841-3.207,3.841-3.195-1.715-3.195-3.841S134.571,276.167,136.337,276.167Zm0,11.977a3.256,3.256,0,0,1,2.935,3.506c0,1.951-1.309,3.537-2.935,3.537s-2.929-1.586-2.929-3.537A3.256,3.256,0,0,1,136.337,288.144Zm0,11.991a3.219,3.219,0,1,1-2.632,3.172A2.939,2.939,0,0,1,136.337,300.135Zm0,12.067a2.794,2.794,0,1,1-2.284,2.747A2.55,2.55,0,0,1,136.337,312.2Zm0,12.067a2.361,2.361,0,1,1-1.936,2.323A2.151,2.151,0,0,1,136.337,324.269Zm0,12.067a1.928,1.928,0,1,1-1.588,1.9A1.763,1.763,0,0,1,136.337,336.336Zm0,12.129a1.313,1.313,0,0,1,1.189,1.411,1.208,1.208,0,1,1-2.373,0A1.317,1.317,0,0,1,136.337,348.465Zm0,12.1a.894.894,0,0,1,.81.972.821.821,0,1,1-1.613,0A.894.894,0,0,1,136.337,360.562Zm0,12.189a.429.429,0,0,1,0,.842.429.429,0,0,1,0-.842Zm9.7-179.606c2.473,0,4.472,2.391,4.472,5.351s-2,5.373-4.472,5.373-4.466-2.4-4.466-5.373S143.579,193.145,146.04,193.145Zm0,11.734c2.429,0,4.389,2.36,4.389,5.274s-1.961,5.267-4.389,5.267-4.384-2.367-4.384-5.267S143.624,204.879,146.04,204.879Zm0,11.817c2.353,0,4.257,2.284,4.257,5.1s-1.9,5.092-4.257,5.092-4.245-2.269-4.245-5.092S143.693,216.7,146.04,216.7Zm0,11.794c2.277,0,4.118,2.216,4.118,4.948s-1.841,4.933-4.118,4.933-4.112-2.209-4.112-4.933S143.769,228.49,146.04,228.49Zm0,11.839c2.189,0,3.966,2.125,3.966,4.751s-1.777,4.752-3.966,4.752-3.954-2.133-3.954-4.752S143.858,240.329,146.04,240.329Zm0,11.9c2.075,0,3.751,2.018,3.751,4.493,0,2.489-1.677,4.493-3.751,4.493s-3.739-2-3.739-4.493C142.3,254.248,143.978,252.23,146.04,252.23Zm0,11.916c1.948,0,3.529,1.882,3.529,4.219s-1.581,4.236-3.529,4.236-3.518-1.89-3.518-4.236S144.1,264.146,146.04,264.146Zm0,11.961c1.809,0,3.258,1.753,3.258,3.916s-1.449,3.9-3.258,3.9c-1.791,0-3.251-1.753-3.251-3.9S144.25,276.106,146.04,276.106Zm0,11.977a3.321,3.321,0,0,1,2.992,3.566c0,1.989-1.334,3.6-2.992,3.6s-2.98-1.609-2.98-3.6A3.321,3.321,0,0,1,146.04,288.083Zm0,12.021a3.255,3.255,0,1,1-2.657,3.2A2.964,2.964,0,0,1,146.04,300.1Zm0,12.03a2.86,2.86,0,1,1-2.334,2.815A2.613,2.613,0,0,1,146.04,312.134Zm0,12.075a2.427,2.427,0,1,1-1.986,2.383A2.211,2.211,0,0,1,146.04,324.209Zm0,12.09a1.973,1.973,0,1,1-1.607,1.935A1.8,1.8,0,0,1,146.04,336.3Zm0,12.105a1.5,1.5,0,1,1-1.234,1.472A1.364,1.364,0,0,1,146.04,348.4Zm0,12.128a.925.925,0,0,1,.841,1,.847.847,0,1,1-1.67,0A.924.924,0,0,1,146.04,360.532Zm0,12.189a.455.455,0,1,1-.374.448A.417.417,0,0,1,146.04,372.721Zm9.71-179.576c2.468,0,4.473,2.391,4.473,5.351s-2.005,5.373-4.473,5.373-4.466-2.4-4.466-5.373S153.284,193.145,155.75,193.145Zm0,11.734c2.429,0,4.391,2.36,4.391,5.274s-1.962,5.267-4.391,5.267-4.39-2.367-4.39-5.267S153.328,204.879,155.75,204.879Zm0,11.771c2.36,0,4.283,2.308,4.283,5.147s-1.923,5.13-4.283,5.13-4.276-2.292-4.276-5.13S153.391,216.65,155.75,216.65Zm0,11.825c2.291,0,4.15,2.216,4.15,4.964s-1.859,4.978-4.15,4.978-4.143-2.231-4.143-4.978S153.467,228.475,155.75,228.475Zm0,11.832c2.2,0,3.986,2.133,3.986,4.773s-1.784,4.782-3.986,4.782-3.985-2.133-3.985-4.782S153.556,240.307,155.75,240.307Zm0,11.923c2.069,0,3.745,2.018,3.745,4.493,0,2.489-1.676,4.493-3.745,4.493s-3.738-2-3.738-4.493C152.012,254.248,153.682,252.23,155.75,252.23Zm0,11.916c1.942,0,3.53,1.882,3.53,4.219s-1.588,4.236-3.53,4.236-3.523-1.89-3.523-4.236S153.808,264.146,155.75,264.146Zm0,11.93c1.816,0,3.283,1.761,3.283,3.946s-1.468,3.924-3.283,3.924-3.283-1.753-3.283-3.924S153.935,276.076,155.75,276.076Zm0,12.007a3.327,3.327,0,0,1,2.993,3.566c0,1.989-1.342,3.6-2.993,3.6s-2.986-1.609-2.986-3.6A3.322,3.322,0,0,1,155.75,288.083Zm0,11.991a3.278,3.278,0,1,1-2.695,3.233A3.009,3.009,0,0,1,155.75,300.074Zm0,12.037a2.886,2.886,0,1,1-2.366,2.839A2.631,2.631,0,0,1,155.75,312.111Zm0,12.052a2.466,2.466,0,1,1-2.018,2.429A2.257,2.257,0,0,1,155.75,324.163Zm0,12.068a2.043,2.043,0,1,1-1.663,2A1.863,1.863,0,0,1,155.75,336.231Zm0,12.174a1.5,1.5,0,1,1-1.24,1.472A1.368,1.368,0,0,1,155.75,348.4Zm0,12.128a.924.924,0,0,1,.835,1,.847.847,0,1,1-1.67,0A.924.924,0,0,1,155.75,360.532Zm0,12.189a.454.454,0,0,1,0,.9.455.455,0,0,1,0-.9Zm9.711-179.546c2.454,0,4.434,2.391,4.434,5.32,0,2.945-1.979,5.335-4.434,5.335s-4.447-2.391-4.447-5.335C161.014,195.567,163.007,193.176,165.461,193.176Zm0,11.741c2.4,0,4.358,2.338,4.358,5.236s-1.954,5.222-4.358,5.222-4.359-2.33-4.359-5.222S163.044,204.917,165.461,204.917Zm0,11.779c2.347,0,4.244,2.284,4.244,5.1s-1.9,5.092-4.244,5.092-4.258-2.269-4.258-5.092S163.107,216.7,165.461,216.7Zm0,11.794c2.27,0,4.118,2.216,4.118,4.948s-1.848,4.933-4.118,4.933-4.125-2.209-4.125-4.933S163.183,228.49,165.461,228.49Zm0,11.878c2.163,0,3.928,2.118,3.928,4.713,0,2.611-1.765,4.721-3.928,4.721s-3.935-2.11-3.935-4.721C161.526,242.485,163.284,240.368,165.461,240.368Zm0,11.907c2.043,0,3.707,1.989,3.707,4.448s-1.663,4.462-3.707,4.462-3.72-2-3.72-4.462S163.405,252.275,165.461,252.275Zm0,11.871c1.942,0,3.517,1.882,3.517,4.219s-1.575,4.236-3.517,4.236-3.531-1.89-3.531-4.236S163.512,264.146,165.461,264.146Zm0,11.961c1.79,0,3.251,1.753,3.251,3.916s-1.462,3.9-3.251,3.9-3.264-1.753-3.264-3.9S163.658,276.106,165.461,276.106Zm0,11.977a3.325,3.325,0,0,1,2.986,3.566c0,1.989-1.341,3.6-2.986,3.6s-2.993-1.609-2.993-3.6A3.322,3.322,0,0,1,165.461,288.083Zm0,12.021a3.252,3.252,0,1,1-2.67,3.2A2.973,2.973,0,0,1,165.461,300.1Zm0,12.03a2.859,2.859,0,1,1-2.341,2.815A2.613,2.613,0,0,1,165.461,312.134Zm0,12.075a2.424,2.424,0,1,1-2,2.383A2.211,2.211,0,0,1,165.461,324.209Zm0,12.09a1.971,1.971,0,1,1-1.619,1.935A1.8,1.8,0,0,1,165.461,336.3Zm0,12.105a1.5,1.5,0,1,1-1.24,1.472A1.364,1.364,0,0,1,165.461,348.4Zm0,12.128a.924.924,0,0,1,.829,1,.847.847,0,1,1-1.67,0A.925.925,0,0,1,165.461,360.532Zm0,12.189a.457.457,0,0,1,0,.9.454.454,0,0,1,0-.9Zm9.7-179.451c2.4,0,4.359,2.342,4.359,5.225s-1.955,5.252-4.359,5.252-4.365-2.36-4.365-5.252S172.754,193.27,175.165,193.27Zm0,11.707c2.379,0,4.308,2.322,4.308,5.176s-1.929,5.168-4.308,5.168-4.308-2.314-4.308-5.168S172.785,204.977,175.165,204.977Zm0,11.779c2.321,0,4.194,2.247,4.194,5.04,0,2.778-1.873,5.024-4.194,5.024s-4.207-2.246-4.207-5.024C170.958,219,172.843,216.756,175.165,216.756Zm0,11.8c2.239,0,4.067,2.185,4.067,4.88s-1.827,4.873-4.067,4.873-4.067-2.186-4.067-4.873S172.919,228.558,175.165,228.558Zm0,11.878c2.138,0,3.872,2.086,3.872,4.644s-1.734,4.66-3.872,4.66-3.877-2.095-3.877-4.66S173.021,240.436,175.165,240.436Zm0,11.863c2.037,0,3.682,1.98,3.682,4.424s-1.645,4.432-3.682,4.432-3.688-1.989-3.688-4.432S173.128,252.3,175.165,252.3Zm0,11.938c1.9,0,3.442,1.844,3.442,4.128s-1.544,4.144-3.442,4.144-3.447-1.851-3.447-4.144S173.26,264.236,175.165,264.236Zm0,11.931c1.771,0,3.195,1.73,3.195,3.855s-1.424,3.841-3.195,3.841-3.2-1.715-3.2-3.841S173.394,276.167,175.165,276.167Zm0,11.977a3.256,3.256,0,0,1,2.929,3.506c0,1.951-1.31,3.537-2.929,3.537s-2.935-1.586-2.935-3.537A3.256,3.256,0,0,1,175.165,288.144Zm0,11.991a3.218,3.218,0,1,1-2.638,3.172A2.93,2.93,0,0,1,175.165,300.135Zm0,12.067a2.793,2.793,0,1,1-2.29,2.747A2.545,2.545,0,0,1,175.165,312.2Zm0,12.067a2.361,2.361,0,1,1-1.936,2.323A2.151,2.151,0,0,1,175.165,324.269Zm0,12.067a1.926,1.926,0,1,1-1.594,1.9A1.761,1.761,0,0,1,175.165,336.336Zm0,12.129a1.312,1.312,0,0,1,1.183,1.411,1.2,1.2,0,1,1-2.366,0A1.308,1.308,0,0,1,175.165,348.465Zm0,12.158a.919.919,0,0,1,0,1.807.919.919,0,0,1,0-1.807Zm0,12.159a.361.361,0,0,1,.316.387.325.325,0,1,1-.639,0A.361.361,0,0,1,175.165,372.782Zm9.7-179.371c2.347,0,4.251,2.269,4.251,5.085,0,2.838-1.9,5.115-4.251,5.115s-4.258-2.277-4.258-5.115C180.611,195.68,182.516,193.411,184.869,193.411Zm0,11.688c2.322,0,4.194,2.269,4.194,5.055s-1.872,5.039-4.194,5.039-4.2-2.262-4.2-5.039S182.553,205.1,184.869,205.1Zm0,11.786c2.258,0,4.093,2.193,4.093,4.911s-1.835,4.9-4.093,4.9-4.093-2.193-4.093-4.9S182.61,216.885,184.869,216.885Zm0,11.772c2.2,0,3.985,2.14,3.985,4.781s-1.784,4.789-3.985,4.789-3.979-2.148-3.979-4.789S182.667,228.657,184.869,228.657Zm0,11.869c2.094,0,3.8,2.042,3.8,4.554s-1.7,4.554-3.8,4.554-3.8-2.034-3.8-4.554S182.775,240.527,184.869,240.527Zm0,11.871c1.986,0,3.606,1.935,3.606,4.325s-1.62,4.334-3.606,4.334-3.606-1.935-3.606-4.334S182.882,252.4,184.869,252.4Zm0,11.946c1.86,0,3.365,1.806,3.365,4.022,0,2.239-1.505,4.053-3.365,4.053s-3.366-1.814-3.366-4.053C181.5,266.149,183.009,264.343,184.869,264.343Zm0,11.93c1.727,0,3.125,1.677,3.125,3.749s-1.4,3.735-3.125,3.735-3.125-1.677-3.125-3.735S183.148,276.273,184.869,276.273Zm0,12a3.447,3.447,0,1,1-2.834,3.377A3.138,3.138,0,0,1,184.869,288.273Zm0,11.969a3.12,3.12,0,1,1-2.563,3.066A2.852,2.852,0,0,1,184.869,300.241Zm0,12.067a2.683,2.683,0,1,1-2.214,2.642A2.454,2.454,0,0,1,184.869,312.308Zm0,12.022a2.3,2.3,0,1,1-1.886,2.262A2.1,2.1,0,0,1,184.869,324.33Zm0,12.113a1.837,1.837,0,1,1-1.506,1.792A1.671,1.671,0,0,1,184.869,336.443Zm0,12.082a1.381,1.381,0,1,1-1.133,1.351A1.253,1.253,0,0,1,184.869,348.525Zm0,12.158a.784.784,0,0,1,.7.85.71.71,0,1,1-1.4,0A.788.788,0,0,1,184.869,360.684Zm0,12.166a.329.329,0,1,1-.266.319A.293.293,0,0,1,184.869,372.85Zm9.7-179.291c2.271,0,4.112,2.212,4.112,4.937s-1.841,4.956-4.112,4.956-4.118-2.216-4.118-4.956S192.295,193.559,194.572,193.559Zm0,11.714c2.246,0,4.068,2.186,4.068,4.88s-1.822,4.873-4.068,4.873-4.067-2.186-4.067-4.873S192.333,205.274,194.572,205.274Zm0,11.733c2.2,0,3.985,2.148,3.985,4.79s-1.784,4.781-3.985,4.781-3.979-2.14-3.979-4.781S192.372,217.007,194.572,217.007Zm0,11.848c2.113,0,3.821,2.049,3.821,4.584s-1.708,4.583-3.821,4.583-3.82-2.049-3.82-4.583S192.459,228.854,194.572,228.854Zm0,11.832c2.025,0,3.657,1.973,3.657,4.394s-1.632,4.387-3.657,4.387-3.656-1.958-3.656-4.387S192.548,240.686,194.572,240.686Zm0,11.877c1.916,0,3.473,1.86,3.473,4.159s-1.557,4.166-3.473,4.166-3.472-1.859-3.472-4.166S192.656,252.563,194.572,252.563Zm0,11.9c1.8,0,3.258,1.746,3.258,3.9s-1.461,3.909-3.258,3.909-3.258-1.746-3.258-3.909S192.776,264.464,194.572,264.464Zm0,11.961c1.651,0,2.992,1.609,2.992,3.6a3.036,3.036,0,1,1-5.978,0C191.587,278.034,192.922,276.425,194.572,276.425Zm0,11.946a3.344,3.344,0,1,1-2.745,3.278A3.049,3.049,0,0,1,194.572,288.371Zm0,11.991a2.986,2.986,0,1,1-2.448,2.945A2.727,2.727,0,0,1,194.572,300.362Zm0,12.044a2.587,2.587,0,1,1-2.132,2.543A2.361,2.361,0,0,1,194.572,312.407Zm0,12.052a2.174,2.174,0,1,1-1.771,2.133A1.977,1.977,0,0,1,194.572,324.459Zm0,12.105a1.546,1.546,0,0,1,1.4,1.67,1.427,1.427,0,1,1-2.8,0A1.555,1.555,0,0,1,194.572,336.564Zm0,12.091a1.245,1.245,0,1,1-1.025,1.222A1.138,1.138,0,0,1,194.572,348.655Zm0,12.166a.717.717,0,0,1,0,1.412.718.718,0,0,1,0-1.412Zm0,12.129a.209.209,0,0,1,.19.22.192.192,0,1,1-.379,0A.209.209,0,0,1,194.572,372.949Zm9.7-179.166c2.177,0,3.935,2.109,3.935,4.713,0,2.626-1.759,4.728-3.935,4.728s-3.928-2.1-3.928-4.728C200.348,195.892,202.107,193.783,204.276,193.783Zm0,11.718c2.145,0,3.885,2.08,3.885,4.652s-1.74,4.645-3.885,4.645-3.871-2.088-3.871-4.645S202.138,205.5,204.276,205.5Zm0,11.741c2.1,0,3.8,2.034,3.8,4.554s-1.7,4.554-3.8,4.554-3.789-2.034-3.789-4.554S202.183,217.242,204.276,217.242Zm0,11.809c2.024,0,3.663,1.959,3.663,4.387s-1.639,4.387-3.663,4.387-3.662-1.958-3.662-4.387S202.258,229.051,204.276,229.051Zm0,11.84c1.943,0,3.505,1.867,3.505,4.189s-1.562,4.205-3.505,4.205-3.5-1.89-3.5-4.205S202.347,240.891,204.276,240.891Zm0,11.855c1.835,0,3.315,1.791,3.315,3.977s-1.48,3.977-3.315,3.977-3.308-1.783-3.308-3.977S202.448,252.746,204.276,252.746Zm0,11.916c1.708,0,3.094,1.661,3.094,3.7s-1.386,3.72-3.094,3.72-3.093-1.67-3.093-3.72S202.568,264.662,204.276,264.662Zm0,11.938a3.481,3.481,0,1,1-2.846,3.423A3.174,3.174,0,0,1,204.276,276.6Zm0,11.954a3.157,3.157,0,1,1-2.581,3.1A2.878,2.878,0,0,1,204.276,288.553Zm0,12.006a2.795,2.795,0,1,1-2.283,2.747A2.549,2.549,0,0,1,204.276,300.56Zm0,12.037a2.392,2.392,0,1,1-1.961,2.353A2.178,2.178,0,0,1,204.276,312.6Zm0,12.068a1.959,1.959,0,1,1-1.613,1.928A1.8,1.8,0,0,1,204.276,324.664Zm0,12.067a1.4,1.4,0,0,1,1.271,1.5,1.29,1.29,0,1,1-2.536,0A1.4,1.4,0,0,1,204.276,336.731Zm0,12.083a1.089,1.089,0,1,1-.886,1.062A.99.99,0,0,1,204.276,348.814Zm0,12.136a.591.591,0,1,1-.481.585A.538.538,0,0,1,204.276,360.949Zm.056,12.219a.063.063,0,0,1-.056.069c-.025,0-.051-.03-.051-.069,0-.023.025-.068.051-.068S204.333,373.146,204.333,373.169Zm9.654-179.121c2.043,0,3.713,2,3.713,4.448,0,2.467-1.67,4.463-3.713,4.463s-3.719-2-3.719-4.463C210.268,196.053,211.937,194.048,213.987,194.048Zm0,11.681c2.03,0,3.688,1.981,3.688,4.424s-1.658,4.417-3.688,4.417-3.694-1.989-3.694-4.417S211.95,205.729,213.987,205.729Zm0,11.726c1.993,0,3.605,1.943,3.605,4.341s-1.613,4.326-3.605,4.326-3.606-1.928-3.606-4.326S211.988,217.455,213.987,217.455Zm0,11.824c1.917,0,3.466,1.86,3.466,4.159s-1.55,4.159-3.466,4.159-3.473-1.868-3.473-4.159S212.064,229.279,213.987,229.279Zm0,11.824c1.828,0,3.308,1.783,3.308,3.977s-1.48,3.978-3.308,3.978-3.309-1.792-3.309-3.978S212.152,241.1,213.987,241.1Zm0,11.878c1.721,0,3.125,1.678,3.125,3.742s-1.4,3.749-3.125,3.749-3.126-1.677-3.126-3.749S212.26,252.981,213.987,252.981Zm0,11.863a3.28,3.28,0,0,1,2.935,3.521c0,1.951-1.322,3.537-2.935,3.537s-2.936-1.587-2.936-3.537A3.276,3.276,0,0,1,213.987,264.844Zm0,11.976a3.253,3.253,0,1,1-2.664,3.2A2.978,2.978,0,0,1,213.987,276.82Zm0,11.931a2.955,2.955,0,1,1-2.423,2.9A2.7,2.7,0,0,1,213.987,288.751Zm0,12.007a2.593,2.593,0,1,1-2.126,2.55A2.357,2.357,0,0,1,213.987,300.757Zm0,12.022a2.2,2.2,0,1,1-1.809,2.171A2.014,2.014,0,0,1,213.987,312.779Zm0,12.037a1.808,1.808,0,1,1-1.488,1.776A1.647,1.647,0,0,1,213.987,324.816Zm0,12.1a1.341,1.341,0,1,1-1.107,1.32A1.226,1.226,0,0,1,213.987,336.914Zm0,12.1a.878.878,0,0,1,0,1.73.878.878,0,0,1,0-1.73Zm0,12.127a.359.359,0,0,1,.322.395.353.353,0,0,1-.322.38.358.358,0,0,1-.329-.38A.363.363,0,0,1,213.987,361.139Zm9.7-155.122c1.9,0,3.448,1.845,3.448,4.136s-1.543,4.129-3.448,4.129-3.448-1.844-3.448-4.129S221.78,206.017,223.69,206.017Zm0,11.741c1.86,0,3.365,1.806,3.365,4.038s-1.506,4.037-3.365,4.037-3.365-1.806-3.365-4.037S221.831,217.758,223.69,217.758Zm0,11.779c1.8,0,3.252,1.746,3.252,3.9s-1.455,3.916-3.252,3.916-3.258-1.761-3.258-3.916S221.888,229.537,223.69,229.537Zm0,11.824c1.708,0,3.1,1.67,3.1,3.719s-1.391,3.72-3.1,3.72-3.094-1.67-3.094-3.72S221.983,241.361,223.69,241.361Zm0,11.847a3.577,3.577,0,1,1-2.929,3.514A3.269,3.269,0,0,1,223.69,253.209Zm0,11.9a3.315,3.315,0,1,1-2.713,3.255A3.022,3.022,0,0,1,223.69,265.109Zm0,11.938a3.027,3.027,0,1,1-2.473,2.975A2.761,2.761,0,0,1,223.69,277.047Zm0,11.969a2.688,2.688,0,1,1-2.207,2.633A2.45,2.45,0,0,1,223.69,289.016Zm0,11.969a2.361,2.361,0,1,1-1.935,2.322A2.155,2.155,0,0,1,223.69,300.985Zm0,12.022a1.975,1.975,0,1,1-1.619,1.943A1.812,1.812,0,0,1,223.69,313.007Zm0,12.037a1.577,1.577,0,1,1-1.3,1.548A1.434,1.434,0,0,1,223.69,325.043Zm0,12.067a1.146,1.146,0,0,1,0,2.255,1.146,1.146,0,0,1,0-2.255Zm0,12.129a.656.656,0,1,1-.538.637A.6.6,0,0,1,223.69,349.239Zm.165,12.295a.183.183,0,0,1-.165.183.177.177,0,0,1-.158-.183c0-.122.069-.2.158-.2A.177.177,0,0,1,223.855,361.534Zm9.54-166.939c1.8,0,3.258,1.76,3.258,3.9,0,2.163-1.455,3.916-3.258,3.916s-3.252-1.753-3.252-3.916C230.143,196.356,231.6,194.6,233.395,194.6Zm0,11.718c1.771,0,3.2,1.715,3.2,3.84s-1.43,3.84-3.2,3.84-3.2-1.715-3.2-3.84S231.63,206.314,233.395,206.314Zm0,11.733c1.727,0,3.125,1.685,3.125,3.75s-1.4,3.749-3.125,3.749-3.119-1.685-3.119-3.749S231.674,218.046,233.395,218.046Zm0,11.825a3.632,3.632,0,1,1-2.986,3.567A3.312,3.312,0,0,1,233.395,229.871Zm0,11.794a3.48,3.48,0,1,1-2.854,3.415A3.17,3.17,0,0,1,233.395,241.665Zm0,11.855a3.253,3.253,0,1,1-2.664,3.2A2.973,2.973,0,0,1,233.395,253.52Zm0,11.885a3.017,3.017,0,1,1-2.474,2.959A2.747,2.747,0,0,1,233.395,265.405Zm0,11.9a2.755,2.755,0,1,1-2.259,2.717A2.519,2.519,0,0,1,233.395,277.305Zm0,11.961a2.432,2.432,0,1,1-1.987,2.383A2.221,2.221,0,0,1,233.395,289.267Zm0,12.007a2.068,2.068,0,1,1-1.7,2.034A1.892,1.892,0,0,1,233.395,301.273Zm0,12a1.7,1.7,0,1,1-1.4,1.677A1.557,1.557,0,0,1,233.395,313.273Zm0,12.029a1.31,1.31,0,0,1,0,2.58,1.313,1.313,0,0,1,0-2.58Zm0,12.1a.847.847,0,1,1-.7.835A.777.777,0,0,1,233.395,337.4Zm0,12.1a.354.354,0,0,1,.323.379.364.364,0,0,1-.323.395.36.36,0,0,1-.317-.395A.349.349,0,0,1,233.395,349.5Zm9.71-142.873c1.62,0,2.928,1.578,2.928,3.529a2.982,2.982,0,1,1-2.928-3.529Zm0,11.779a3.449,3.449,0,1,1-2.828,3.393A3.139,3.139,0,0,1,243.105,218.4Zm0,11.748a3.344,3.344,0,1,1-2.745,3.287A3.046,3.046,0,0,1,243.105,230.151Zm0,11.818a3.157,3.157,0,1,1-2.581,3.111A2.882,2.882,0,0,1,243.105,241.969Zm0,11.847a2.955,2.955,0,1,1-2.423,2.907A2.694,2.694,0,0,1,243.105,253.816Zm0,11.9a2.7,2.7,0,1,1-2.214,2.649A2.461,2.461,0,0,1,243.105,265.716Zm0,11.916a2.425,2.425,0,1,1-2,2.391A2.218,2.218,0,0,1,243.105,277.632Zm0,11.969a2.1,2.1,0,1,1-1.721,2.049A1.913,1.913,0,0,1,243.105,289.6Zm0,11.961a1.774,1.774,0,1,1-1.455,1.746A1.625,1.625,0,0,1,243.105,301.561Zm0,12.007a1.4,1.4,0,0,1,0,2.763,1.4,1.4,0,0,1,0-2.763Zm0,12.022a1.019,1.019,0,1,1-.835,1A.929.929,0,0,1,243.105,325.59Zm0,12.068a.535.535,0,0,1,.481.577.55.55,0,0,1-.481.591.555.555,0,0,1-.495-.591A.541.541,0,0,1,243.105,337.658Zm.082,12.219a.085.085,0,1,1-.165,0,.083.083,0,1,1,.165,0ZM252.8,195.309a3.248,3.248,0,1,1-2.663,3.187A2.968,2.968,0,0,1,252.8,195.309Zm0,11.688a3.208,3.208,0,1,1-2.638,3.157A2.928,2.928,0,0,1,252.8,207Zm0,11.733a3.119,3.119,0,1,1-2.55,3.067A2.853,2.853,0,0,1,252.8,218.73Zm0,11.779a2.986,2.986,0,1,1-2.449,2.93A2.717,2.717,0,0,1,252.8,230.508Zm0,11.84a2.785,2.785,0,1,1-2.285,2.732A2.544,2.544,0,0,1,252.8,242.349Zm0,11.839a2.585,2.585,0,1,1-2.119,2.535A2.349,2.349,0,0,1,252.8,254.188Zm0,11.855a2.366,2.366,0,1,1-1.936,2.322A2.147,2.147,0,0,1,252.8,266.043Zm0,11.938a2.072,2.072,0,1,1-1.7,2.041A1.9,1.9,0,0,1,252.8,277.981Zm0,11.923a1.774,1.774,0,1,1-1.455,1.745A1.621,1.621,0,0,1,252.8,289.9Zm0,11.976a1.449,1.449,0,1,1-1.177,1.427A1.314,1.314,0,0,1,252.8,301.88Zm0,12.007a1.086,1.086,0,1,1-.88,1.062A.98.98,0,0,1,252.8,313.887Zm0,12.021a.7.7,0,1,1-.563.683A.631.631,0,0,1,252.8,325.909Zm0,12.068a.242.242,0,0,1,.221.258.25.25,0,0,1-.221.266.246.246,0,0,1-.209-.266A.237.237,0,0,1,252.8,337.977Zm9.71-142.288a2.864,2.864,0,1,1-2.34,2.808A2.619,2.619,0,0,1,262.513,195.688Zm0,11.718a2.784,2.784,0,1,1-2.29,2.747A2.55,2.55,0,0,1,262.513,207.406Zm0,11.741A2.688,2.688,0,1,1,260.3,221.8,2.461,2.461,0,0,1,262.513,219.147Zm0,11.734a2.6,2.6,0,1,1-2.125,2.558A2.38,2.38,0,0,1,262.513,230.881Zm0,11.839a2.4,2.4,0,1,1-1.967,2.36A2.2,2.2,0,0,1,262.513,242.72Zm0,11.848a2.2,2.2,0,1,1-1.8,2.155A2.008,2.008,0,0,1,262.513,254.568Zm0,11.869a1.967,1.967,0,1,1-1.613,1.927A1.787,1.787,0,0,1,262.513,266.437Zm0,11.9a1.71,1.71,0,1,1-1.4,1.685A1.56,1.56,0,0,1,262.513,278.337Zm0,11.931a1.412,1.412,0,1,1-1.157,1.381A1.287,1.287,0,0,1,262.513,290.269Zm0,11.984a.973.973,0,0,1,.885,1.055.9.9,0,1,1-1.777,0A.977.977,0,0,1,262.513,302.252Zm0,11.984a.727.727,0,0,1,0,1.427.725.725,0,0,1,0-1.427Zm0,12.029a.311.311,0,0,1,.272.326.3.3,0,0,1-.272.326.3.3,0,0,1-.265-.326A.3.3,0,0,1,262.513,326.265Zm9.71-130.16a2.44,2.44,0,1,1-1.993,2.391A2.227,2.227,0,0,1,272.223,196.105Zm0,11.726a2.359,2.359,0,1,1-1.942,2.322A2.154,2.154,0,0,1,272.223,207.831Zm0,11.71a2.3,2.3,0,1,1-1.885,2.254A2.093,2.093,0,0,1,272.223,219.542Zm0,11.772a1.968,1.968,0,0,1,1.771,2.125,1.808,1.808,0,1,1-3.555,0A1.969,1.969,0,0,1,272.223,231.314Zm0,11.831a1.966,1.966,0,1,1-1.62,1.935A1.8,1.8,0,0,1,272.223,243.145Zm0,11.81a1.8,1.8,0,1,1-1.486,1.768A1.648,1.648,0,0,1,272.223,254.955Zm0,11.862a1.582,1.582,0,1,1-1.3,1.548A1.443,1.443,0,0,1,272.223,266.817Zm0,11.9a1.319,1.319,0,1,1-1.081,1.3A1.2,1.2,0,0,1,272.223,278.718Zm0,11.946a1.01,1.01,0,0,1,0,1.988,1.008,1.008,0,0,1,0-1.988Zm0,11.961a.631.631,0,0,1,.562.683.573.573,0,1,1-1.125,0A.627.627,0,0,1,272.223,302.624Zm0,12a.3.3,0,0,1,.266.326.273.273,0,1,1-.538,0A.3.3,0,0,1,272.223,314.623Zm9.7-118.054a1.966,1.966,0,1,1-1.62,1.927A1.8,1.8,0,0,1,281.927,196.569Zm0,11.672a1.935,1.935,0,1,1-1.594,1.913A1.777,1.777,0,0,1,281.927,208.241Zm0,11.748a1.836,1.836,0,1,1-1.506,1.807A1.681,1.681,0,0,1,281.927,219.989Zm0,11.764a1.708,1.708,0,1,1-1.4,1.685A1.565,1.565,0,0,1,281.927,231.753Zm0,11.817a1.539,1.539,0,1,1-1.266,1.51A1.4,1.4,0,0,1,281.927,243.57Zm0,11.832a1.341,1.341,0,1,1-1.107,1.32A1.226,1.226,0,0,1,281.927,255.4Zm0,11.839a1.036,1.036,0,0,1,.936,1.123.955.955,0,1,1-.936-1.123Zm0,11.931a.857.857,0,1,1-.7.849A.787.787,0,0,1,281.927,279.173Zm0,11.908a.532.532,0,0,1,.48.569.494.494,0,1,1-.967,0A.533.533,0,0,1,281.927,291.081Zm0,11.953c.12,0,.215.137.215.273a.243.243,0,0,1-.215.258.238.238,0,0,1-.216-.258C281.712,303.171,281.8,303.034,281.927,303.034Zm9.7-94.3a1.315,1.315,0,0,1,1.183,1.419,1.206,1.206,0,1,1-2.371,0A1.315,1.315,0,0,1,291.63,208.734Zm0,11.7A1.39,1.39,0,1,1,290.5,221.8,1.263,1.263,0,0,1,291.63,220.43Zm0,11.779a1.141,1.141,0,0,1,1.019,1.23,1.038,1.038,0,1,1-2.043,0A1.146,1.146,0,0,1,291.63,232.209Zm0,11.809a1.081,1.081,0,1,1-.885,1.062A.985.985,0,0,1,291.63,244.018Zm0,11.84a.878.878,0,1,1-.727.865A.8.8,0,0,1,291.63,255.858Zm0,11.869a.657.657,0,0,1,0,1.29.656.656,0,0,1,0-1.29Zm0,11.9a.363.363,0,0,1,.323.394.354.354,0,0,1-.323.38.349.349,0,0,1-.322-.38A.358.358,0,0,1,291.63,279.628Zm.083,12.021a.1.1,0,0,1-.083.107c-.05,0-.075-.046-.075-.107a.069.069,0,0,1,.075-.075A.078.078,0,0,1,291.713,291.649Zm9.621-82.407a.928.928,0,1,1-.753.911A.849.849,0,0,1,301.335,209.243Zm0,11.7a.858.858,0,1,1-.7.85A.783.783,0,0,1,301.335,220.946Zm0,11.779a.721.721,0,0,1,0,1.419.722.722,0,0,1,0-1.419Zm0,11.779a.531.531,0,0,1,.481.577.493.493,0,1,1-.968,0A.535.535,0,0,1,301.335,244.5Zm0,11.84a.363.363,0,0,1,.329.379.332.332,0,1,1-.652,0A.362.362,0,0,1,301.335,256.344Zm.164,12.021a.163.163,0,1,1-.322,0,.162.162,0,1,1,.322,0Zm9.547-70.309a.414.414,0,0,1,.373.44.42.42,0,0,1-.373.456.415.415,0,0,1-.379-.456A.409.409,0,0,1,311.045,198.056Zm0,11.7a.364.364,0,0,1,.322.395.332.332,0,1,1-.651,0A.364.364,0,0,1,311.045,209.759Zm0,11.7a.318.318,0,0,1,.271.334.3.3,0,0,1-.271.319.289.289,0,0,1-.272-.319A.308.308,0,0,1,311.045,221.462Zm.183,11.976a.217.217,0,0,1-.183.228.213.213,0,0,1-.19-.228.208.208,0,0,1,.19-.228A.212.212,0,0,1,311.228,233.438ZM311.1,245.08a.054.054,0,0,1-.051.061c-.038,0-.057-.015-.057-.061a.057.057,0,0,1,.057-.061A.067.067,0,0,1,311.1,245.08Z" transform="translate(-44.472 -126.142)" fill="#fff" fill-rule="evenodd" opacity="0.19"/>
      <g id="Grupo_124665" data-name="Grupo 124665" transform="translate(595.749 219.797)" opacity="0.09">
        <path id="Trazado_174290" data-name="Trazado 174290" d="M59.688,315.342-111.288,486.318a14.937,14.937,0,0,1-21.126,0h0a14.939,14.939,0,0,1,0-21.126L38.562,294.215a14.939,14.939,0,0,1,21.126,0h0A14.939,14.939,0,0,1,59.688,315.342Z" transform="translate(136.79 -289.84)" fill="none" stroke="#8f9294" stroke-miterlimit="10" stroke-width="2"/>
        <path id="Trazado_174291" data-name="Trazado 174291" d="M57.955,407.627l-130.5,130.5a11.4,11.4,0,0,1-16.125,0h0a11.4,11.4,0,0,1,0-16.126l130.5-130.5a11.4,11.4,0,0,1,16.126,0h0A11.4,11.4,0,0,1,57.955,407.627Z" transform="translate(128.113 -308.893)" fill="none" stroke="#8f9294" stroke-miterlimit="10" stroke-width="2"/>
      </g>
    </g>
  </g>
</svg>
