<svg xmlns="http://www.w3.org/2000/svg" xmlns:xlink="http://www.w3.org/1999/xlink" width="1329" height="296.045" viewBox="0 0 1329 296.045">
  <defs>
    <linearGradient id="linear-gradient" x1="0.187" y1="1" x2="1.538" y2="1" gradientUnits="objectBoundingBox">
      <stop offset="0" stop-color="#f5f5f5" stop-opacity="0.2"/>
      <stop offset="0.421" stop-color="#f5f5f5"/>
      <stop offset="1" stop-color="#afafaf"/>
    </linearGradient>
    <clipPath id="clip-path">
      <rect id="Rect치ngulo_45490" data-name="Rect치ngulo 45490" width="1329" height="289.748" transform="translate(0 23)" fill="#fff"/>
    </clipPath>
  </defs>
  <g id="Grupo_154301" data-name="Grupo 154301" transform="translate(-135.518 -5725.86)">
    <rect id="Rect치ngulo_42598" data-name="Rect치ngulo 42598" width="1113" height="296" transform="translate(351 5725.86)" fill="url(#linear-gradient)"/>
    <g id="Enmascarar_grupo_80040" data-name="Enmascarar grupo 80040" transform="translate(135.518 5709.158)" clip-path="url(#clip-path)">
      <path id="Dots-01" d="M445.884,236.727a.577.577,0,1,1,.535-.575A.561.561,0,0,1,445.884,236.727Zm0-14.732a.569.569,0,0,1,0-1.136.569.569,0,0,1,0,1.136Zm0-14.742a.527.527,0,0,1-.508-.536.5.5,0,1,1,1.007,0A.527.527,0,0,1,445.884,207.253Zm0-14.852a.39.39,0,0,1-.39-.4.4.4,0,0,1,.39-.407.407.407,0,0,1,.389.407A.4.4,0,0,1,445.884,192.4Zm0-14.837a.275.275,0,0,1-.273-.283.278.278,0,0,1,.273-.283.282.282,0,0,1,.262.283A.279.279,0,0,1,445.884,177.564Zm-.082-14.992a.073.073,0,0,1,.082-.081.081.081,0,0,1,.072.081.079.079,0,0,1-.072.077A.071.071,0,0,1,445.8,162.572Zm-13.839,89.564a1.243,1.243,0,0,1-1.189-1.286,1.194,1.194,0,1,1,2.386,0A1.244,1.244,0,0,1,431.963,252.136Zm0-14.724a1.268,1.268,0,1,1,1.2-1.261A1.229,1.229,0,0,1,431.963,237.413Zm0-14.718a1.265,1.265,0,1,1,1.2-1.27A1.232,1.232,0,0,1,431.963,222.7Zm0-14.755a1.225,1.225,0,1,1,1.16-1.223A1.2,1.2,0,0,1,431.963,207.94Zm0-14.877A1.064,1.064,0,1,1,432.97,192,1.03,1.03,0,0,1,431.963,193.063Zm0-14.847a.932.932,0,0,1,0-1.861.932.932,0,0,1,0,1.861Zm0-14.872a.755.755,0,0,1-.735-.772.736.736,0,1,1,1.469,0A.749.749,0,0,1,431.963,163.344Zm0-15.005a.489.489,0,1,1,.472-.489A.484.484,0,0,1,431.963,148.339Zm-.227-15.2a.232.232,0,1,1,.462,0,.231.231,0,1,1-.462,0ZM418.052,252.75a1.851,1.851,0,0,1-1.777-1.9,1.779,1.779,0,1,1,3.555,0A1.851,1.851,0,0,1,418.052,252.75Zm0-14.732a1.881,1.881,0,1,1,1.778-1.866A1.824,1.824,0,0,1,418.052,238.018Zm0-14.7a1.839,1.839,0,0,1-1.777-1.889,1.779,1.779,0,1,1,3.555,0A1.839,1.839,0,0,1,418.052,223.314Zm0-14.8a1.8,1.8,0,1,1,1.7-1.8A1.746,1.746,0,0,1,418.052,208.515Zm0-14.805A1.712,1.712,0,1,1,419.676,192,1.665,1.665,0,0,1,418.052,193.71Zm0-14.875a1.554,1.554,0,1,1,1.461-1.554A1.513,1.513,0,0,1,418.052,178.835Zm0-14.877a1.39,1.39,0,1,1,1.315-1.386A1.354,1.354,0,0,1,418.052,163.958Zm0-15.005a1.105,1.105,0,1,1,1.034-1.1A1.074,1.074,0,0,1,418.052,148.953Zm0-14.958a.859.859,0,1,1,.817-.854A.842.842,0,0,1,418.052,134Zm0-15.039a.534.534,0,0,1,0-1.065.533.533,0,0,1,0,1.065Zm-.19-15.25a.2.2,0,0,1,.19-.206.2.2,0,0,1,.191.206.2.2,0,0,1-.191.2A.2.2,0,0,1,417.862,103.706Zm-13.72,134.969a2.534,2.534,0,1,1,2.385-2.523A2.459,2.459,0,0,1,404.143,238.675Zm0-14.8a2.452,2.452,0,1,1,2.312-2.455A2.393,2.393,0,0,1,404.143,223.88Zm0-14.755a2.412,2.412,0,1,1,2.276-2.407A2.344,2.344,0,0,1,404.143,209.124Zm0-14.8A2.335,2.335,0,1,1,406.337,192,2.272,2.272,0,0,1,404.143,194.329Zm0-14.88a2.166,2.166,0,1,1,2.049-2.168A2.11,2.11,0,0,1,404.143,179.449Zm0-14.92a1.962,1.962,0,1,1,1.85-1.956A1.907,1.907,0,0,1,404.143,164.528Zm0-14.962a1.714,1.714,0,1,1,1.623-1.717A1.672,1.672,0,0,1,404.143,149.567Zm0-15a1.432,1.432,0,1,1,1.342-1.425A1.386,1.386,0,0,1,404.143,134.566Zm0-15.045a1.1,1.1,0,1,1,1.043-1.1A1.072,1.072,0,0,1,404.143,119.521Zm0-15.038a.779.779,0,1,1,.725-.777A.751.751,0,0,1,404.143,104.483Zm0-15.131a.365.365,0,0,1-.353-.369.349.349,0,1,1,.7,0A.364.364,0,0,1,404.143,89.352ZM390.231,239.211a3.07,3.07,0,1,1,2.884-3.059A2.983,2.983,0,0,1,390.231,239.211Zm0-14.761a3.026,3.026,0,1,1,2.847-3.026A2.943,2.943,0,0,1,390.231,224.45Zm0-14.789a2.945,2.945,0,1,1,2.775-2.944A2.874,2.874,0,0,1,390.231,209.661Zm0-14.805A2.863,2.863,0,1,1,392.925,192,2.781,2.781,0,0,1,390.231,194.856Zm0-14.885a2.692,2.692,0,1,1,2.539-2.69A2.615,2.615,0,0,1,390.231,179.971Zm0-14.875a2.532,2.532,0,1,1,2.385-2.524A2.464,2.464,0,0,1,390.231,165.1Zm0-14.953a2.294,2.294,0,1,1,2.158-2.292A2.238,2.238,0,0,1,390.231,150.142Zm0-15.005a2,2,0,1,1,1.886-2A1.943,1.943,0,0,1,390.231,135.137Zm0-15.045a1.677,1.677,0,1,1,1.57-1.673A1.628,1.628,0,0,1,390.231,120.092Zm0-15.082a1.309,1.309,0,1,1,1.224-1.3A1.268,1.268,0,0,1,390.231,105.01Zm0-15.126a.9.9,0,1,1,.843-.9A.87.87,0,0,1,390.231,89.884Zm0-15.163a.434.434,0,0,1-.426-.446.423.423,0,1,1,.843,0A.433.433,0,0,1,390.231,74.721ZM376.312,239.743a3.6,3.6,0,1,1,3.39-3.591A3.495,3.495,0,0,1,376.312,239.743Zm0-14.76a3.557,3.557,0,1,1,3.355-3.558A3.466,3.466,0,0,1,376.312,224.983Zm0-14.8a3.475,3.475,0,1,1,3.283-3.467A3.373,3.373,0,0,1,376.312,210.184Zm0-14.8a3.391,3.391,0,1,1,3.2-3.39A3.3,3.3,0,0,1,376.312,195.388Zm0-14.885a3.225,3.225,0,1,1,3.047-3.222A3.133,3.133,0,0,1,376.312,180.5Zm0-14.91a3.023,3.023,0,1,1,2.855-3.021A2.951,2.951,0,0,1,376.312,165.593Zm0-14.967a2.778,2.778,0,1,1,2.63-2.776A2.7,2.7,0,0,1,376.312,150.626Zm0-14.957a2.537,2.537,0,1,1,2.394-2.528A2.472,2.472,0,0,1,376.312,135.669Zm0-15.088a2.169,2.169,0,1,1,2.05-2.163A2.1,2.1,0,0,1,376.312,120.582Zm0-15.077a1.8,1.8,0,1,1,1.695-1.8A1.745,1.745,0,0,1,376.312,105.5Zm0-15.121a1.356,1.356,0,0,1-1.3-1.4,1.311,1.311,0,1,1,2.62,0A1.364,1.364,0,0,1,376.312,90.383Zm0-15.173a.939.939,0,1,1,.889-.935A.913.913,0,0,1,376.312,75.21Zm0-15.2a.449.449,0,1,1,.427-.451A.439.439,0,0,1,376.312,60.008ZM362.393,240.224a4.088,4.088,0,1,1,3.863-4.072A3.967,3.967,0,0,1,362.393,240.224Zm0-14.762a4.046,4.046,0,1,1,3.827-4.037A3.929,3.929,0,0,1,362.393,225.462Zm0-14.755a4,4,0,1,1,3.781-3.99A3.89,3.89,0,0,1,362.393,210.706Zm0-14.829a3.885,3.885,0,1,1,3.673-3.88A3.772,3.772,0,0,1,362.393,195.878Zm0-14.885a3.712,3.712,0,1,1,3.518-3.712A3.618,3.618,0,0,1,362.393,180.992Zm0-14.957a3.475,3.475,0,1,1,3.292-3.463A3.366,3.366,0,0,1,362.393,166.035Zm0-14.958a3.232,3.232,0,1,1,3.056-3.227A3.133,3.133,0,0,1,362.393,151.077Zm0-15a2.942,2.942,0,1,1,2.774-2.936A2.864,2.864,0,0,1,362.393,136.077Zm0-15.045a2.614,2.614,0,1,1,2.483-2.613A2.539,2.539,0,0,1,362.393,121.032Zm0-15.087a2.245,2.245,0,1,1,2.131-2.239A2.185,2.185,0,0,1,362.393,105.945Zm0-15.121a1.839,1.839,0,1,1,1.741-1.841A1.788,1.788,0,0,1,362.393,90.824Zm0-15.158a1.391,1.391,0,1,1,1.315-1.391A1.348,1.348,0,0,1,362.393,75.666Zm0-15.207a.9.9,0,0,1,0-1.794.9.9,0,0,1,0,1.794Zm0-15.25a.365.365,0,1,1,.353-.364A.355.355,0,0,1,362.393,45.209Zm-13.9,210.179a4.529,4.529,0,1,1,4.28-4.537A4.409,4.409,0,0,1,348.491,255.387Zm0-14.708a4.54,4.54,0,1,1,4.28-4.528A4.412,4.412,0,0,1,348.491,240.679Zm0-14.719a4.536,4.536,0,1,1,4.28-4.536A4.417,4.417,0,0,1,348.491,225.961Zm0-14.8a4.453,4.453,0,1,1,4.2-4.44A4.32,4.32,0,0,1,348.491,211.157Zm0-14.828a4.338,4.338,0,1,1,4.08-4.33A4.222,4.222,0,0,1,348.491,196.329Zm0-14.885a4.164,4.164,0,1,1,3.934-4.163A4.05,4.05,0,0,1,348.491,181.443Zm0-14.91a3.971,3.971,0,1,1,3.735-3.961A3.86,3.86,0,0,1,348.491,166.533Zm0-14.958a3.721,3.721,0,1,1,3.5-3.726A3.615,3.615,0,0,1,348.491,151.576Zm0-15.048a3.394,3.394,0,1,1,3.2-3.387A3.305,3.305,0,0,1,348.491,136.528Zm0-15.045a3.067,3.067,0,1,1,2.892-3.064A2.976,2.976,0,0,1,348.491,121.483Zm0-15.125a2.656,2.656,0,1,1,2.5-2.652A2.586,2.586,0,0,1,348.491,106.358Zm0-15.083a2.288,2.288,0,1,1,2.167-2.292A2.229,2.229,0,0,1,348.491,91.275Zm0-15.206a1.8,1.8,0,1,1,1.7-1.794A1.758,1.758,0,0,1,348.491,76.069Zm0-15.207a1.309,1.309,0,1,1,1.233-1.3A1.271,1.271,0,0,1,348.491,60.862Zm0-15.245a.773.773,0,0,1,0-1.544.774.774,0,0,1,0,1.544Zm-.236-15.49a.246.246,0,0,1,.236-.249.239.239,0,0,1,.226.249.234.234,0,0,1-.226.25A.24.24,0,0,1,348.255,30.126Zm-13.684,211a4.985,4.985,0,1,1,4.715-4.979A4.86,4.86,0,0,1,334.572,241.13Zm0-14.767a4.942,4.942,0,1,1,4.67-4.939A4.805,4.805,0,0,1,334.572,226.364Zm0-14.789a4.864,4.864,0,1,1,4.588-4.858A4.731,4.731,0,0,1,334.572,211.575Zm0-14.842A4.741,4.741,0,1,1,339.051,192,4.6,4.6,0,0,1,334.572,196.732Zm0-14.872a4.582,4.582,0,1,1,4.325-4.58A4.455,4.455,0,0,1,334.572,181.861Zm0-14.928a4.376,4.376,0,1,1,4.135-4.36A4.247,4.247,0,0,1,334.572,166.932Zm0-15a4.084,4.084,0,1,1,3.863-4.086A3.972,3.972,0,0,1,334.572,151.936Zm0-15.01a3.8,3.8,0,1,1,3.591-3.784A3.685,3.685,0,0,1,334.572,136.925Zm0-15.039a3.475,3.475,0,1,1,3.283-3.467A3.366,3.366,0,0,1,334.572,121.886Zm0-15.12a3.067,3.067,0,1,1,2.893-3.059A2.983,2.983,0,0,1,334.572,106.765Zm0-15.163a2.613,2.613,0,1,1,2.466-2.619A2.547,2.547,0,0,1,334.572,91.6Zm0-15.16a2.168,2.168,0,1,1,2.049-2.167A2.108,2.108,0,0,1,334.572,76.442Zm0-15.207a1.678,1.678,0,1,1,1.587-1.678A1.633,1.633,0,0,1,334.572,61.235Zm0-15.254a1.143,1.143,0,0,1,0-2.283,1.143,1.143,0,0,1,0,2.283Zm0-15.284a.571.571,0,1,1,.544-.571A.557.557,0,0,1,334.572,30.7ZM320.66,256.2a5.351,5.351,0,1,1,5.052-5.352A5.2,5.2,0,0,1,320.66,256.2Zm0-14.7a5.356,5.356,0,1,1,5.052-5.348A5.2,5.2,0,0,1,320.66,241.5Zm0-14.723a5.353,5.353,0,1,1,5.052-5.352A5.2,5.2,0,0,1,320.66,226.776Zm0-14.8a5.266,5.266,0,1,1,4.979-5.255A5.118,5.118,0,0,1,320.66,211.972Zm0-14.871a5.108,5.108,0,1,1,4.824-5.1A4.971,4.971,0,0,1,320.66,197.1Zm0-14.872a4.953,4.953,0,1,1,4.661-4.949A4.818,4.818,0,0,1,320.66,182.23Zm0-14.928a4.746,4.746,0,1,1,4.479-4.729A4.609,4.609,0,0,1,320.66,167.3Zm0-15a4.457,4.457,0,1,1,4.208-4.455A4.328,4.328,0,0,1,320.66,152.3Zm0-15.01a4.167,4.167,0,1,1,3.936-4.153A4.038,4.038,0,0,1,320.66,137.294Zm0-15.078a3.8,3.8,0,1,1,3.59-3.8A3.7,3.7,0,0,1,320.66,122.217Zm0-15.087a3.43,3.43,0,1,1,3.238-3.424A3.344,3.344,0,0,1,320.66,107.13Zm0-15.159a2.988,2.988,0,1,1,2.812-2.988A2.9,2.9,0,0,1,320.66,91.971Zm0-15.168a2.531,2.531,0,1,1,2.394-2.527A2.459,2.459,0,0,1,320.66,76.8Zm0-15.241a2,2,0,1,1,1.886-2A1.951,1.951,0,0,1,320.66,61.562Zm0-15.255a1.47,1.47,0,1,1,1.388-1.462A1.432,1.432,0,0,1,320.66,46.307Zm0-15.279a.9.9,0,1,1,.843-.9A.876.876,0,0,1,320.66,31.028Zm-.272-15.619a.272.272,0,1,1,.272.283A.272.272,0,0,1,320.388,15.409ZM306.75,241.821a5.683,5.683,0,1,1,5.358-5.669A5.527,5.527,0,0,1,306.75,241.821Zm0-14.724a5.679,5.679,0,1,1,5.358-5.673A5.522,5.522,0,0,1,306.75,227.1Zm0-14.789a5.6,5.6,0,1,1,5.286-5.591A5.449,5.449,0,0,1,306.75,212.308Zm0-14.8a5.517,5.517,0,1,1,5.2-5.506A5.361,5.361,0,0,1,306.75,197.5Zm0-14.91a5.318,5.318,0,1,1,5.014-5.313A5.172,5.172,0,0,1,306.75,182.594Zm0-14.957a5.07,5.07,0,1,1,4.787-5.065A4.937,4.937,0,0,1,306.75,167.637Zm0-15.016a4.779,4.779,0,1,1,4.514-4.771A4.645,4.645,0,0,1,306.75,152.621Zm0-15.038a4.458,4.458,0,1,1,4.207-4.442A4.333,4.333,0,0,1,306.75,137.583Zm0-15.04a4.126,4.126,0,1,1,3.889-4.124A4.01,4.01,0,0,1,306.75,122.543Zm0-15.125a3.72,3.72,0,1,1,3.509-3.712A3.619,3.619,0,0,1,306.75,107.418Zm0-15.163a3.271,3.271,0,1,1,3.083-3.271A3.18,3.18,0,0,1,306.75,92.254Zm0-15.169a2.817,2.817,0,1,1,2.656-2.81A2.743,2.743,0,0,1,306.75,77.085Zm0-15.241a2.289,2.289,0,1,1,2.158-2.288A2.228,2.228,0,0,1,306.75,61.845Zm0-15.245a1.759,1.759,0,1,1,1.65-1.755A1.7,1.7,0,0,1,306.75,46.6Zm0-15.332a1.141,1.141,0,1,1,1.079-1.141A1.108,1.108,0,0,1,306.75,31.268Zm0-15.327a.531.531,0,1,1,.5-.532A.518.518,0,0,1,306.75,15.941ZM292.83,242.185a6.05,6.05,0,1,1,5.713-6.033A5.88,5.88,0,0,1,292.83,242.185Zm0-14.756a6.006,6.006,0,1,1,5.678-6A5.836,5.836,0,0,1,292.83,227.428Zm0-14.833a5.888,5.888,0,1,1,5.568-5.879A5.722,5.722,0,0,1,292.83,212.6Zm0-14.8A5.8,5.8,0,1,1,298.308,192,5.639,5.639,0,0,1,292.83,197.792Zm0-14.915a5.6,5.6,0,1,1,5.287-5.6A5.453,5.453,0,0,1,292.83,182.877Zm0-14.957a5.359,5.359,0,1,1,5.051-5.348A5.209,5.209,0,0,1,292.83,167.92Zm0-15.006a5.072,5.072,0,1,1,4.788-5.064A4.93,4.93,0,0,1,292.83,152.914Zm0-15.049a4.74,4.74,0,1,1,4.48-4.724A4.608,4.608,0,0,1,292.83,137.865Zm0-15.078a4.373,4.373,0,1,1,4.126-4.368A4.254,4.254,0,0,1,292.83,122.787Zm0-15.125a3.968,3.968,0,1,1,3.737-3.956A3.854,3.854,0,0,1,292.83,107.662Zm0-15.159a3.518,3.518,0,1,1,3.32-3.52A3.423,3.423,0,0,1,292.83,92.5Zm0-15.168a3.064,3.064,0,1,1,2.9-3.059A2.979,2.979,0,0,1,292.83,77.335Zm0-15.2a2.574,2.574,0,1,1,2.431-2.575A2.514,2.514,0,0,1,292.83,62.132Zm0-15.284a2.008,2.008,0,1,1,1.9-2A1.947,1.947,0,0,1,292.83,46.849Zm0-15.288a1.431,1.431,0,1,1,1.352-1.434A1.394,1.394,0,0,1,292.83,31.56Zm0-15.327a.8.8,0,0,1-.771-.825.776.776,0,1,1,1.551,0A.809.809,0,0,1,292.83,16.233ZM292.721.7a.121.121,0,0,1,.109-.129.135.135,0,0,1,.126.129.131.131,0,0,1-.126.124A.116.116,0,0,1,292.721.7ZM278.92,242.42a6.292,6.292,0,1,1,5.939-6.268A6.108,6.108,0,0,1,278.92,242.42Zm0-14.751a6.252,6.252,0,1,1,5.895-6.244A6.072,6.072,0,0,1,278.92,227.669Zm0-14.8a6.167,6.167,0,1,1,5.831-6.157A6,6,0,0,1,278.92,212.874Zm0-14.837A6.047,6.047,0,1,1,284.632,192,5.876,5.876,0,0,1,278.92,198.036Zm0-14.92a5.843,5.843,0,1,1,5.514-5.836A5.681,5.681,0,0,1,278.92,183.117Zm0-14.957a5.6,5.6,0,1,1,5.3-5.588A5.447,5.447,0,0,1,278.92,168.16Zm0-15a5.314,5.314,0,1,1,5.023-5.309A5.16,5.16,0,0,1,278.92,153.159Zm0-15.044a4.986,4.986,0,1,1,4.705-4.973A4.848,4.848,0,0,1,278.92,138.114Zm0-15.087a4.616,4.616,0,1,1,4.362-4.609A4.487,4.487,0,0,1,278.92,123.028Zm0-15.116a4.21,4.21,0,1,1,3.981-4.206A4.088,4.088,0,0,1,278.92,107.912Zm0-15.206a3.72,3.72,0,1,1,3.509-3.722A3.617,3.617,0,0,1,278.92,92.705Zm0-15.2a3.233,3.233,0,1,1,3.047-3.227A3.146,3.146,0,0,1,278.92,77.5Zm0-15.207a2.74,2.74,0,1,1,2.585-2.739A2.665,2.665,0,0,1,278.92,62.3Zm0-15.245a2.209,2.209,0,1,1,2.086-2.206A2.155,2.155,0,0,1,278.92,47.05Zm0-15.332a1.595,1.595,0,1,1,1.505-1.592A1.547,1.547,0,0,1,278.92,31.719Zm0-15.284a1.025,1.025,0,0,1,0-2.048,1.026,1.026,0,0,1,0,2.048Zm0-15.413A.321.321,0,0,1,278.612.7a.328.328,0,0,1,.308-.331.317.317,0,0,1,.309.331A.31.31,0,0,1,278.92,1.022ZM265.01,242.636a6.5,6.5,0,1,1,6.139-6.484A6.32,6.32,0,0,1,265.01,242.636Zm0-14.752a6.46,6.46,0,1,1,6.093-6.459A6.29,6.29,0,0,1,265.01,227.884Zm0-14.809a6.374,6.374,0,1,1,6.012-6.359A6.2,6.2,0,0,1,265.01,213.075Zm0-14.837a6.251,6.251,0,1,1,5.9-6.24A6.074,6.074,0,0,1,265.01,198.238Zm0-14.905a6.057,6.057,0,1,1,5.713-6.052A5.882,5.882,0,0,1,265.01,183.333Zm0-14.962a5.8,5.8,0,1,1,5.477-5.8A5.648,5.648,0,0,1,265.01,168.371Zm0-15.016a5.514,5.514,0,1,1,5.2-5.5A5.365,5.365,0,0,1,265.01,153.355Zm0-15.072a5.155,5.155,0,1,1,4.86-5.142A5.019,5.019,0,0,1,265.01,138.283Zm0-15.088a4.784,4.784,0,1,1,4.507-4.776A4.64,4.64,0,0,1,265.01,123.195Zm0-15.125a4.374,4.374,0,1,1,4.126-4.364A4.253,4.253,0,0,1,265.01,108.07Zm0-15.163a3.925,3.925,0,1,1,3.7-3.924A3.817,3.817,0,0,1,265.01,92.906Zm0-15.207a3.432,3.432,0,1,1,3.237-3.424A3.337,3.337,0,0,1,265.01,77.7Zm0-15.241a2.9,2.9,0,1,1,2.739-2.9A2.83,2.83,0,0,1,265.01,62.458Zm0-15.25a2.37,2.37,0,1,1,2.24-2.364A2.3,2.3,0,0,1,265.01,47.208Zm0-15.327a1.758,1.758,0,1,1,1.659-1.755A1.708,1.708,0,0,1,265.01,31.881Zm0-15.37a1.1,1.1,0,1,1,1.043-1.1A1.075,1.075,0,0,1,265.01,16.512Zm0-15.327A.476.476,0,0,1,264.546.7a.464.464,0,1,1,.926,0A.476.476,0,0,1,265.01,1.184ZM251.1,242.789a6.66,6.66,0,1,1,6.284-6.637A6.462,6.462,0,0,1,251.1,242.789Zm0-14.708a6.657,6.657,0,1,1,6.284-6.656A6.476,6.476,0,0,1,251.1,228.081Zm0-14.833a6.537,6.537,0,1,1,6.175-6.531A6.364,6.364,0,0,1,251.1,213.248Zm0-14.876A6.384,6.384,0,1,1,257.111,192,6.213,6.213,0,0,1,251.1,198.372Zm0-14.924a6.172,6.172,0,1,1,5.83-6.167A6,6,0,0,1,251.1,183.448Zm0-14.957a5.93,5.93,0,1,1,5.595-5.919A5.766,5.766,0,0,1,251.1,168.491Zm0-15.04a5.6,5.6,0,1,1,5.278-5.6A5.451,5.451,0,0,1,251.1,153.451Zm0-15.005a5.318,5.318,0,1,1,5.006-5.3A5.172,5.172,0,0,1,251.1,138.446Zm0-15.126a4.906,4.906,0,1,1,4.625-4.9A4.774,4.774,0,0,1,251.1,123.32Zm0-15.13a4.494,4.494,0,1,1,4.234-4.484A4.36,4.36,0,0,1,251.1,108.19Zm0-15.158a4.05,4.05,0,1,1,3.818-4.048A3.933,3.933,0,0,1,251.1,93.031Zm0-15.246a3.517,3.517,0,1,1,3.31-3.51A3.414,3.414,0,0,1,251.1,77.785Zm0-15.207a3.024,3.024,0,1,1,2.847-3.022A2.936,2.936,0,0,1,251.1,62.579Zm0-15.289a2.45,2.45,0,1,1,2.312-2.446A2.381,2.381,0,0,1,251.1,47.29ZM251.1,32a1.879,1.879,0,1,1,1.767-1.876A1.83,1.83,0,0,1,251.1,32Zm0-15.327a1.266,1.266,0,1,1,1.187-1.266A1.233,1.233,0,0,1,251.1,16.674Zm0-15.408A.553.553,0,0,1,250.554.7a.54.54,0,1,1,1.079,0A.556.556,0,0,1,251.1,1.266Zm-13.91,241.657a6.788,6.788,0,1,1,6.391-6.772A6.6,6.6,0,0,1,237.188,242.924Zm0-14.719a6.787,6.787,0,1,1,6.391-6.78A6.6,6.6,0,0,1,237.188,228.2Zm0-14.842a6.662,6.662,0,1,1,6.293-6.646A6.468,6.468,0,0,1,237.188,213.363Zm0-14.919A6.461,6.461,0,1,1,243.272,192,6.277,6.277,0,0,1,237.188,198.444Zm0-14.876a6.292,6.292,0,1,1,5.939-6.287A6.124,6.124,0,0,1,237.188,183.568Zm0-14.962a6.048,6.048,0,1,1,5.7-6.034A5.886,5.886,0,0,1,237.188,168.605Zm0-15.083a5.679,5.679,0,1,1,5.359-5.673A5.522,5.522,0,0,1,237.188,153.522Zm0-15.038a5.357,5.357,0,1,1,5.041-5.343A5.209,5.209,0,0,1,237.188,138.484Zm0-15.087a4.986,4.986,0,1,1,4.7-4.978A4.849,4.849,0,0,1,237.188,123.4Zm0-15.159a4.537,4.537,0,1,1,4.28-4.532A4.411,4.411,0,0,1,237.188,108.238Zm0-15.125a4.129,4.129,0,1,1,3.889-4.13A4.013,4.013,0,0,1,237.188,93.113Zm0-15.207a3.636,3.636,0,1,1,3.437-3.63A3.532,3.532,0,0,1,237.188,77.905Zm0-15.241a3.109,3.109,0,1,1,2.92-3.108A3.025,3.025,0,0,1,237.188,62.665Zm0-15.255a2.573,2.573,0,1,1,2.421-2.566A2.5,2.5,0,0,1,237.188,47.41Zm0-15.322a1.962,1.962,0,1,1,1.848-1.962A1.914,1.914,0,0,1,237.188,32.088Zm0-15.327a1.35,1.35,0,1,1,1.268-1.352A1.31,1.31,0,0,1,237.188,16.761Zm0-15.375A.677.677,0,0,1,236.526.7a.681.681,0,0,1,.662-.7.674.674,0,0,1,.653.7A.67.67,0,0,1,237.188,1.386Zm-13.92,241.619a6.869,6.869,0,1,1,6.484-6.854A6.673,6.673,0,0,1,223.268,243.005Zm0-14.757a6.828,6.828,0,1,1,6.439-6.824A6.639,6.639,0,0,1,223.268,228.249Zm0-14.837a6.708,6.708,0,1,1,6.33-6.694A6.517,6.517,0,0,1,223.268,213.411Zm0-14.885A6.542,6.542,0,1,1,229.444,192,6.348,6.348,0,0,1,223.268,198.526Zm0-14.915a6.338,6.338,0,1,1,5.986-6.33A6.163,6.163,0,0,1,223.268,183.611Zm0-15.005a6.047,6.047,0,1,1,5.713-6.034A5.885,5.885,0,0,1,223.268,168.605Zm0-15a5.766,5.766,0,1,1,5.442-5.759A5.613,5.613,0,0,1,223.268,153.609Zm0-15.082a5.4,5.4,0,1,1,5.1-5.386A5.246,5.246,0,0,1,223.268,138.527Zm0-15.087a5.027,5.027,0,1,1,4.743-5.022A4.885,4.885,0,0,1,223.268,123.44Zm0-15.159a4.58,4.58,0,1,1,4.326-4.575A4.454,4.454,0,0,1,223.268,108.281Zm0-15.168a4.128,4.128,0,1,1,3.9-4.13A4.012,4.012,0,0,1,223.268,93.113Zm0-15.207a3.636,3.636,0,1,1,3.438-3.63A3.529,3.529,0,0,1,223.268,77.905Zm0-15.241a3.108,3.108,0,1,1,2.93-3.108A3.032,3.032,0,0,1,223.268,62.665Zm0-15.255a2.572,2.572,0,1,1,2.431-2.566A2.5,2.5,0,0,1,223.268,47.41Zm0-15.322a1.962,1.962,0,1,1,1.851-1.962A1.906,1.906,0,0,1,223.268,32.088Zm0-15.327a1.35,1.35,0,1,1,1.27-1.352A1.308,1.308,0,0,1,223.268,16.761Zm0-15.375A.67.67,0,0,1,222.615.7a.654.654,0,1,1,1.305,0A.669.669,0,0,1,223.268,1.386ZM209.349,242.962a6.825,6.825,0,1,1,6.447-6.81A6.631,6.631,0,0,1,209.349,242.962Zm0-14.757a6.786,6.786,0,1,1,6.41-6.78A6.6,6.6,0,0,1,209.349,228.2Zm0-14.842a6.662,6.662,0,1,1,6.292-6.646A6.472,6.472,0,0,1,209.349,213.363Zm0-14.919a6.46,6.46,0,1,1,6.1-6.446A6.269,6.269,0,0,1,209.349,198.444Zm0-14.876a6.292,6.292,0,1,1,5.948-6.287A6.115,6.115,0,0,1,209.349,183.568Zm0-14.962a6.047,6.047,0,1,1,5.712-6.034A5.877,5.877,0,0,1,209.349,168.605Zm0-15.083a5.678,5.678,0,1,1,5.377-5.673A5.526,5.526,0,0,1,209.349,153.522Zm0-15a5.4,5.4,0,1,1,5.1-5.386A5.252,5.252,0,0,1,209.349,138.527Zm0-15.087a5.026,5.026,0,1,1,4.76-5.022A4.885,4.885,0,0,1,209.349,123.44Zm0-15.159a4.58,4.58,0,1,1,4.335-4.575A4.454,4.454,0,0,1,209.349,108.281Zm0-15.168a4.128,4.128,0,1,1,3.908-4.13A4.011,4.011,0,0,1,209.349,93.113Zm0-15.207a3.636,3.636,0,1,1,3.437-3.63A3.535,3.535,0,0,1,209.349,77.905Zm0-15.241a3.107,3.107,0,1,1,2.947-3.108A3.017,3.017,0,0,1,209.349,62.665Zm0-15.255a2.572,2.572,0,1,1,2.439-2.566A2.5,2.5,0,0,1,209.349,47.41Zm0-15.322a1.961,1.961,0,1,1,1.868-1.962A1.911,1.911,0,0,1,209.349,32.088Zm0-15.327a1.349,1.349,0,1,1,1.278-1.352A1.307,1.307,0,0,1,209.349,16.761Zm0-15.375A.67.67,0,0,1,208.7.7a.674.674,0,0,1,.653-.7.681.681,0,0,1,.662.7A.677.677,0,0,1,209.349,1.386ZM195.439,242.842a6.7,6.7,0,1,1,6.329-6.69A6.518,6.518,0,0,1,195.439,242.842Zm0-14.762a6.657,6.657,0,1,1,6.293-6.656A6.481,6.481,0,0,1,195.439,228.081Zm0-14.8a6.578,6.578,0,1,1,6.211-6.564A6.389,6.389,0,0,1,195.439,213.281Zm0-14.88A6.411,6.411,0,1,1,201.5,192,6.238,6.238,0,0,1,195.439,198.4Zm0-14.915a6.21,6.21,0,1,1,5.876-6.2A6.036,6.036,0,0,1,195.439,183.486Zm0-14.995a5.93,5.93,0,1,1,5.595-5.919A5.773,5.773,0,0,1,195.439,168.491Zm0-15.007a5.639,5.639,0,1,1,5.323-5.634A5.486,5.486,0,0,1,195.439,153.484Zm0-15.038a5.317,5.317,0,1,1,5.024-5.3A5.163,5.163,0,0,1,195.439,138.446Zm0-15.126a4.906,4.906,0,1,1,4.634-4.9A4.771,4.771,0,0,1,195.439,123.32Zm0-15.13a4.493,4.493,0,1,1,4.243-4.484A4.361,4.361,0,0,1,195.439,108.19Zm0-15.158a4.05,4.05,0,1,1,3.817-4.048A3.939,3.939,0,0,1,195.439,93.031Zm0-15.207a3.554,3.554,0,1,1,3.364-3.549A3.457,3.457,0,0,1,195.439,77.824Zm0-15.245a3.024,3.024,0,1,1,2.856-3.022A2.94,2.94,0,0,1,195.439,62.579Zm0-15.289a2.449,2.449,0,1,1,2.321-2.446A2.386,2.386,0,0,1,195.439,47.29Zm0-15.288a1.878,1.878,0,1,1,1.777-1.876A1.83,1.83,0,0,1,195.439,32Zm0-15.327a1.265,1.265,0,1,1,1.2-1.266A1.23,1.23,0,0,1,195.439,16.674Zm0-15.408A.563.563,0,0,1,194.895.7a.563.563,0,0,1,.544-.571.552.552,0,0,1,.544.571A.552.552,0,0,1,195.439,1.266ZM181.527,242.684a6.547,6.547,0,1,1,6.176-6.532A6.369,6.369,0,0,1,181.527,242.684Zm0-14.8a6.46,6.46,0,1,1,6.095-6.459A6.288,6.288,0,0,1,181.527,227.884Zm0-14.761a6.417,6.417,0,1,1,6.058-6.407A6.25,6.25,0,0,1,181.527,213.124Zm0-14.885a6.251,6.251,0,1,1,5.9-6.24A6.08,6.08,0,0,1,181.527,198.238Zm0-14.905a6.057,6.057,0,1,1,5.714-6.052A5.9,5.9,0,0,1,181.527,183.333Zm0-14.962a5.8,5.8,0,1,1,5.477-5.8A5.653,5.653,0,0,1,181.527,168.371Zm0-15.016a5.513,5.513,0,1,1,5.214-5.5A5.357,5.357,0,0,1,181.527,153.355Zm0-15.072a5.155,5.155,0,1,1,4.861-5.142A5,5,0,0,1,181.527,138.283Zm0-15.088a4.784,4.784,0,1,1,4.516-4.776A4.641,4.641,0,0,1,181.527,123.195Zm0-15.125a4.373,4.373,0,1,1,4.135-4.364A4.254,4.254,0,0,1,181.527,108.07Zm0-15.163a3.924,3.924,0,1,1,3.709-3.924A3.815,3.815,0,0,1,181.527,92.906Zm0-15.207a3.432,3.432,0,1,1,3.247-3.424A3.344,3.344,0,0,1,181.527,77.7Zm0-15.2a2.941,2.941,0,1,1,2.784-2.94A2.862,2.862,0,0,1,181.527,62.5Zm0-15.288a2.37,2.37,0,1,1,2.24-2.364A2.3,2.3,0,0,1,181.527,47.208Zm0-15.289a1.8,1.8,0,1,1,1.7-1.794A1.751,1.751,0,0,1,181.527,31.92Zm0-15.365a1.146,1.146,0,1,1,1.079-1.146A1.107,1.107,0,0,1,181.527,16.555Zm0-15.37A.475.475,0,0,1,181.065.7.483.483,0,0,1,181.527.2.477.477,0,0,1,181.99.7.47.47,0,0,1,181.527,1.184Zm-13.9,241.3a6.338,6.338,0,1,1,5.976-6.331A6.164,6.164,0,0,1,167.626,242.483Zm0-14.767a6.293,6.293,0,1,1,5.93-6.291A6.113,6.113,0,0,1,167.626,227.716Zm0-14.794a6.216,6.216,0,1,1,5.859-6.205A6.039,6.039,0,0,1,167.626,212.922Zm0-14.885A6.048,6.048,0,1,1,173.321,192,5.877,5.877,0,0,1,167.626,198.036Zm0-14.92a5.844,5.844,0,1,1,5.5-5.836A5.682,5.682,0,0,1,167.626,183.117Zm0-14.957a5.6,5.6,0,1,1,5.278-5.588A5.449,5.449,0,0,1,167.626,168.16Zm0-14.958a5.356,5.356,0,1,1,5.042-5.352A5.211,5.211,0,0,1,167.626,153.2Zm0-15.044a5.027,5.027,0,1,1,4.734-5.017A4.886,4.886,0,0,1,167.626,138.158Zm0-15.083a4.659,4.659,0,1,1,4.389-4.656A4.532,4.532,0,0,1,167.626,123.075Zm0-15.163a4.211,4.211,0,1,1,3.963-4.206A4.1,4.1,0,0,1,167.626,107.912Zm0-15.168a3.762,3.762,0,1,1,3.537-3.761A3.663,3.663,0,0,1,167.626,92.744Zm0-15.2a3.271,3.271,0,1,1,3.084-3.266A3.179,3.179,0,0,1,167.626,77.541Zm0-15.207a2.782,2.782,0,1,1,2.612-2.777A2.714,2.714,0,0,1,167.626,62.334Zm0-15.284a2.209,2.209,0,1,1,2.086-2.206A2.143,2.143,0,0,1,167.626,47.05Zm0-15.289a1.632,1.632,0,0,1,0-3.261,1.633,1.633,0,0,1,0,3.261Zm0-15.327a1.027,1.027,0,1,1,.953-1.026A.995.995,0,0,1,167.626,16.435Zm0-15.375A.359.359,0,0,1,167.263.7a.358.358,0,0,1,.363-.364.353.353,0,0,1,.336.364A.354.354,0,0,1,167.626,1.06ZM153.7,256.912a6.057,6.057,0,1,1,5.713-6.062A5.9,5.9,0,0,1,153.7,256.912Zm0-14.727a6.05,6.05,0,1,1,5.713-6.033A5.88,5.88,0,0,1,153.7,242.185Zm0-14.718a6.042,6.042,0,1,1,5.713-6.042A5.885,5.885,0,0,1,153.7,227.467Zm0-14.837a5.924,5.924,0,1,1,5.6-5.913A5.751,5.751,0,0,1,153.7,212.63Zm0-14.837A5.8,5.8,0,1,1,159.184,192,5.645,5.645,0,0,1,153.7,197.792Zm0-14.915a5.6,5.6,0,1,1,5.3-5.6A5.445,5.445,0,0,1,153.7,182.877Zm0-14.919a5.4,5.4,0,1,1,5.106-5.387A5.255,5.255,0,0,1,153.7,167.958Zm0-15a5.11,5.11,0,1,1,4.825-5.107A4.98,4.98,0,0,1,153.7,152.957Zm0-15.038a4.786,4.786,0,1,1,4.526-4.777A4.655,4.655,0,0,1,153.7,137.918Zm0-15.092a4.411,4.411,0,1,1,4.172-4.408A4.3,4.3,0,0,1,153.7,122.827Zm0-15.116a4.009,4.009,0,1,1,3.782-4A3.9,3.9,0,0,1,153.7,107.71Zm0-15.168a3.559,3.559,0,1,1,3.365-3.559A3.458,3.458,0,0,1,153.7,92.542Zm0-15.207a3.064,3.064,0,1,1,2.9-3.059A2.978,2.978,0,0,1,153.7,77.335Zm0-15.2a2.574,2.574,0,1,1,2.431-2.575A2.514,2.514,0,0,1,153.7,62.132Zm0-15.284a2.008,2.008,0,1,1,1.9-2A1.947,1.947,0,0,1,153.7,46.849Zm0-15.288a1.431,1.431,0,1,1,1.352-1.434A1.391,1.391,0,0,1,153.7,31.56Zm0-15.327a.8.8,0,0,1-.761-.825.772.772,0,1,1,1.541,0A.8.8,0,0,1,153.7,16.233ZM153.516.7a.193.193,0,0,1,.181-.2.2.2,0,0,1,.2.2.194.194,0,0,1-.2.2A.19.19,0,0,1,153.516.7ZM139.787,241.9a5.764,5.764,0,1,1,5.441-5.75A5.6,5.6,0,0,1,139.787,241.9Zm0-14.805a5.679,5.679,0,1,1,5.368-5.673A5.519,5.519,0,0,1,139.787,227.1Zm0-14.756a5.636,5.636,0,1,1,5.332-5.625A5.471,5.471,0,0,1,139.787,212.341Zm0-14.837a5.517,5.517,0,1,1,5.2-5.506A5.358,5.358,0,0,1,139.787,197.5Zm0-14.877a5.35,5.35,0,1,1,5.06-5.347A5.2,5.2,0,0,1,139.787,182.627Zm0-14.967a5.111,5.111,0,1,1,4.824-5.089A4.969,4.969,0,0,1,139.787,167.661Zm0-14.991a4.82,4.82,0,1,1,4.552-4.819A4.693,4.693,0,0,1,139.787,152.669Zm0-15.039a4.5,4.5,0,1,1,4.253-4.489A4.37,4.37,0,0,1,139.787,137.63Zm0-15.044a4.171,4.171,0,1,1,3.945-4.167A4.057,4.057,0,0,1,139.787,122.586Zm0-15.168a3.72,3.72,0,1,1,3.509-3.712A3.611,3.611,0,0,1,139.787,107.418Zm0-15.116a3.314,3.314,0,1,1,3.128-3.319A3.22,3.22,0,0,1,139.787,92.3Zm0-15.168a2.863,2.863,0,1,1,2.7-2.858A2.79,2.79,0,0,1,139.787,77.133Zm0-15.246a2.332,2.332,0,1,1,2.2-2.331A2.264,2.264,0,0,1,139.787,61.888Zm0-15.25a1.8,1.8,0,1,1,1.7-1.794A1.75,1.75,0,0,1,139.787,46.638Zm0-15.279a1.229,1.229,0,1,1,1.17-1.233A1.2,1.2,0,0,1,139.787,31.359Zm0-15.375a.574.574,0,0,1,0-1.146.574.574,0,0,1,0,1.146Zm-13.91,225.549a5.394,5.394,0,1,1,5.1-5.381A5.242,5.242,0,0,1,125.877,241.533Zm0-14.708a5.4,5.4,0,1,1,5.1-5.4A5.254,5.254,0,0,1,125.877,226.824Zm0-14.8a5.312,5.312,0,1,1,5.024-5.308A5.158,5.158,0,0,1,125.877,212.025Zm0-14.885a5.149,5.149,0,1,1,4.86-5.141A5,5,0,0,1,125.877,197.14Zm0-14.833a5.026,5.026,0,1,1,4.752-5.026A4.9,4.9,0,0,1,125.877,182.306Zm0-14.962a4.779,4.779,0,1,1,4.516-4.772A4.648,4.648,0,0,1,125.877,167.344Zm0-15a4.5,4.5,0,1,1,4.244-4.5A4.377,4.377,0,0,1,125.877,152.348Zm0-15.006a4.207,4.207,0,1,1,3.981-4.2A4.086,4.086,0,0,1,125.877,137.343Zm0-15.088a3.84,3.84,0,1,1,3.627-3.836A3.738,3.738,0,0,1,125.877,122.255Zm0-15.087a3.472,3.472,0,1,1,3.283-3.462A3.364,3.364,0,0,1,125.877,107.168Zm0-15.2a2.988,2.988,0,1,1,2.811-2.988A2.91,2.91,0,0,1,125.877,91.971Zm0-15.125a2.572,2.572,0,1,1,2.43-2.57A2.5,2.5,0,0,1,125.877,76.845Zm0-15.25a2.044,2.044,0,1,1,1.931-2.038A1.987,1.987,0,0,1,125.877,61.6Zm0-15.241a1.515,1.515,0,1,1,1.433-1.511A1.474,1.474,0,0,1,125.877,46.355Zm0-15.288a.938.938,0,1,1,.9-.94A.914.914,0,0,1,125.877,31.066Zm0-15.327a.319.319,0,0,1-.309-.331.309.309,0,1,1,.617,0A.319.319,0,0,1,125.877,15.739ZM111.966,241.164a5.024,5.024,0,1,1,4.743-5.012A4.888,4.888,0,0,1,111.966,241.164Zm0-14.719a5.019,5.019,0,1,1,4.743-5.02A4.881,4.881,0,0,1,111.966,226.445Zm0-14.837a4.9,4.9,0,1,1,4.634-4.891A4.764,4.764,0,0,1,111.966,211.608Zm0-14.837A4.779,4.779,0,1,1,116.481,192,4.642,4.642,0,0,1,111.966,196.771Zm0-14.838a4.659,4.659,0,1,1,4.4-4.651A4.525,4.525,0,0,1,111.966,181.932Zm0-14.957a4.414,4.414,0,1,1,4.163-4.4A4.3,4.3,0,0,1,111.966,166.975Zm0-14.958a4.172,4.172,0,1,1,3.927-4.167A4.064,4.064,0,0,1,111.966,152.017Zm0-15.044a3.843,3.843,0,1,1,3.619-3.832A3.745,3.745,0,0,1,111.966,136.973Zm0-15.088a3.475,3.475,0,1,1,3.273-3.467A3.379,3.379,0,0,1,111.966,121.886Zm0-15.077a3.108,3.108,0,1,1,2.929-3.1A3.021,3.021,0,0,1,111.966,106.808Zm0-15.168a2.654,2.654,0,1,1,2.5-2.658A2.587,2.587,0,0,1,111.966,91.64Zm0-15.159a2.21,2.21,0,1,1,2.085-2.206A2.15,2.15,0,0,1,111.966,76.481Zm0-15.207a1.717,1.717,0,1,1,1.623-1.717A1.673,1.673,0,0,1,111.966,61.274Zm0-15.293a1.143,1.143,0,0,1,0-2.283,1.143,1.143,0,0,1,0,2.283Zm0-15.284a.571.571,0,0,1,0-1.141.572.572,0,0,1,0,1.141ZM98.055,240.718a4.578,4.578,0,1,1,4.316-4.566A4.446,4.446,0,0,1,98.055,240.718Zm0-14.713a4.58,4.58,0,1,1,4.316-4.58A4.457,4.457,0,0,1,98.055,226Zm0-14.8a4.5,4.5,0,1,1,4.244-4.488A4.375,4.375,0,0,1,98.055,211.2Zm0-14.838A4.376,4.376,0,1,1,102.181,192,4.26,4.26,0,0,1,98.055,196.367Zm0-14.871a4.218,4.218,0,1,1,3.971-4.215A4.1,4.1,0,0,1,98.055,181.5Zm0-14.939a4,4,0,1,1,3.781-3.986A3.881,3.881,0,0,1,98.055,166.557Zm0-14.982a3.72,3.72,0,1,1,3.509-3.726A3.628,3.628,0,0,1,98.055,151.576Zm0-14.967a3.478,3.478,0,1,1,3.273-3.468A3.379,3.379,0,0,1,98.055,136.609Zm0-15.088a3.108,3.108,0,1,1,2.929-3.1A3.025,3.025,0,0,1,98.055,121.521Zm0-15.082a2.738,2.738,0,1,1,2.584-2.733A2.662,2.662,0,0,1,98.055,106.439Zm0-15.121a2.33,2.33,0,1,1,2.194-2.336A2.264,2.264,0,0,1,98.055,91.319Zm0-15.207a1.84,1.84,0,1,1,1.732-1.837A1.782,1.782,0,0,1,98.055,76.112Zm0-15.207a1.347,1.347,0,1,1,1.27-1.348A1.311,1.311,0,0,1,98.055,60.9Zm0-15.241a.819.819,0,1,1,.771-.82A.8.8,0,0,1,98.055,45.664Zm0-15.255a.283.283,0,0,1,0-.566.284.284,0,0,1,0,.566ZM84.135,254.994a4.136,4.136,0,1,1,3.9-4.144A4.022,4.022,0,0,1,84.135,254.994Zm0-14.727a4.123,4.123,0,1,1,3.9-4.115A4.017,4.017,0,0,1,84.135,240.267Zm0-14.709a4.133,4.133,0,1,1,3.9-4.133A4.016,4.016,0,0,1,84.135,225.558Zm0-14.8a4.047,4.047,0,1,1,3.827-4.038A3.936,3.936,0,0,1,84.135,210.755Zm0-14.838A3.921,3.921,0,1,1,87.845,192,3.81,3.81,0,0,1,84.135,195.916Zm0-14.881a3.76,3.76,0,1,1,3.556-3.755A3.661,3.661,0,0,1,84.135,181.035Zm0-14.919a3.555,3.555,0,1,1,3.356-3.545A3.453,3.453,0,0,1,84.135,166.117Zm0-14.958a3.308,3.308,0,1,1,3.138-3.309A3.218,3.218,0,0,1,84.135,151.159Zm0-15.049a2.983,2.983,0,1,1,2.82-2.969A2.9,2.9,0,0,1,84.135,136.11Zm0-15.039a2.656,2.656,0,1,1,2.512-2.652A2.585,2.585,0,0,1,84.135,121.07Zm0-15.038a2.329,2.329,0,1,1,2.2-2.326A2.274,2.274,0,0,1,84.135,106.032Zm0-15.16a1.884,1.884,0,1,1,1.787-1.889A1.842,1.842,0,0,1,84.135,90.872Zm0-15.163a1.434,1.434,0,1,1,1.351-1.434A1.4,1.4,0,0,1,84.135,75.709Zm0-15.207a.944.944,0,1,1,.889-.945A.919.919,0,0,1,84.135,60.5Zm0-15.255a.4.4,0,0,1-.39-.4.405.405,0,0,1,.39-.413.4.4,0,0,1,.39.413A.393.393,0,0,1,84.135,45.247ZM70.224,254.5a3.637,3.637,0,1,1,3.428-3.645A3.547,3.547,0,0,1,70.224,254.5Zm0-14.723a3.634,3.634,0,1,1,3.428-3.621A3.535,3.535,0,0,1,70.224,239.773Zm0-14.7a3.641,3.641,0,1,1,3.428-3.645A3.544,3.544,0,0,1,70.224,225.069Zm0-14.8a3.554,3.554,0,1,1,3.356-3.548A3.457,3.457,0,0,1,70.224,210.265Zm0-14.833A3.44,3.44,0,1,1,73.462,192,3.343,3.343,0,0,1,70.224,195.432Zm0-14.881a3.271,3.271,0,1,1,3.084-3.27A3.187,3.187,0,0,1,70.224,180.551Zm0-14.92a3.067,3.067,0,1,1,2.893-3.06A2.973,2.973,0,0,1,70.224,165.631Zm0-14.924a2.863,2.863,0,1,1,2.7-2.858A2.788,2.788,0,0,1,70.224,150.708Zm0-15a2.572,2.572,0,1,1,2.431-2.567A2.506,2.506,0,0,1,70.224,135.708Zm0-15.083a2.209,2.209,0,1,1,2.086-2.206A2.146,2.146,0,0,1,70.224,120.625Zm0-15.082a1.837,1.837,0,1,1,1.741-1.837A1.789,1.789,0,0,1,70.224,105.543Zm0-15.126a1.426,1.426,0,1,1,1.352-1.434A1.394,1.394,0,0,1,70.224,90.417Zm0-15.12a1.023,1.023,0,1,1,.97-1.021A1,1,0,0,1,70.224,75.3Zm0-15.245a.492.492,0,1,1,.463-.494A.48.48,0,0,1,70.224,60.051ZM56.314,253.968a3.107,3.107,0,1,1,2.938-3.117A3.021,3.021,0,0,1,56.314,253.968Zm0-14.722a3.108,3.108,0,1,1,2.938-3.094A3.012,3.012,0,0,1,56.314,239.246Zm0-14.709a3.11,3.11,0,1,1,2.938-3.112A3.02,3.02,0,0,1,56.314,224.537Zm0-14.8a3.024,3.024,0,1,1,2.847-3.016A2.941,2.941,0,0,1,56.314,209.733Zm0-14.795A2.945,2.945,0,1,1,59.088,192,2.86,2.86,0,0,1,56.314,194.938Zm0-14.885a2.774,2.774,0,1,1,2.62-2.772A2.7,2.7,0,0,1,56.314,180.053Zm0-14.91a2.577,2.577,0,1,1,2.43-2.571A2.5,2.5,0,0,1,56.314,165.143Zm0-14.962a2.329,2.329,0,1,1,2.2-2.331A2.269,2.269,0,0,1,56.314,150.18Zm0-15a2.044,2.044,0,1,1,1.932-2.039A1.988,1.988,0,0,1,56.314,135.18Zm0-15.04a1.717,1.717,0,1,1,1.623-1.721A1.671,1.671,0,0,1,56.314,120.14Zm0-15.087a1.35,1.35,0,1,1,1.27-1.348A1.312,1.312,0,0,1,56.314,105.054Zm0-15.121a.941.941,0,1,1,.889-.95A.913.913,0,0,1,56.314,89.932Zm0-15.168a.49.49,0,0,1,0-.979.491.491,0,0,1,0,.979Zm-.036-15.207a.034.034,0,0,1,.036-.038.04.04,0,0,1,.036.038.042.042,0,0,1-.036.043C56.287,59.6,56.277,59.581,56.277,59.557ZM42.4,253.421a2.575,2.575,0,1,1,2.421-2.57A2.5,2.5,0,0,1,42.4,253.421Zm0-14.7a2.573,2.573,0,1,1,2.421-2.566A2.494,2.494,0,0,1,42.4,238.718ZM42.4,224a2.577,2.577,0,1,1,2.421-2.575A2.5,2.5,0,0,1,42.4,224Zm0-14.837a2.454,2.454,0,1,1,2.312-2.445A2.387,2.387,0,0,1,42.4,209.162Zm0-14.8A2.365,2.365,0,1,1,44.634,192,2.306,2.306,0,0,1,42.4,194.362Zm0-14.865a2.209,2.209,0,1,1,2.086-2.216A2.146,2.146,0,0,1,42.4,179.5Zm0-14.929a2,2,0,1,1,1.886-2A1.943,1.943,0,0,1,42.4,164.568Zm0-14.915a1.8,1.8,0,1,1,1.7-1.8A1.753,1.753,0,0,1,42.4,149.653Zm0-15.005a1.513,1.513,0,1,1,1.423-1.506A1.47,1.47,0,0,1,42.4,134.647Zm0-15.088a1.14,1.14,0,1,1,1.079-1.141A1.118,1.118,0,0,1,42.4,119.56Zm0-15.038a.82.82,0,1,1,.762-.815A.794.794,0,0,1,42.4,104.521Zm0-15.121a.41.41,0,0,1,0-.82.411.411,0,0,1,0,.82ZM28.483,252.827a1.913,1.913,0,0,1-1.849-1.976,1.852,1.852,0,1,1,3.7,0A1.912,1.912,0,0,1,28.483,252.827Zm0-14.709a1.97,1.97,0,1,1,1.85-1.966A1.91,1.91,0,0,1,28.483,238.118Zm0-14.732a1.959,1.959,0,1,1,1.85-1.961A1.9,1.9,0,0,1,28.483,223.386Zm0-14.794a1.878,1.878,0,1,1,1.787-1.875A1.823,1.823,0,0,1,28.483,208.592Zm0-14.8a1.8,1.8,0,1,1,1.7-1.794A1.75,1.75,0,0,1,28.483,193.792Zm0-14.871a1.637,1.637,0,1,1,1.551-1.64A1.589,1.589,0,0,1,28.483,178.921Zm0-14.928a1.424,1.424,0,1,1,1.361-1.42A1.4,1.4,0,0,1,28.483,163.992Zm0-14.91a1.23,1.23,0,1,1,1.161-1.233A1.209,1.209,0,0,1,28.483,149.082Zm0-15a.923.923,0,0,1-.888-.94.89.89,0,1,1,.888.94Zm0-15.092a.569.569,0,0,1,0-1.136.569.569,0,0,1,0,1.136Zm0-15a.272.272,0,0,1-.262-.283.277.277,0,0,1,.262-.288.284.284,0,0,1,.273.288A.28.28,0,0,1,28.483,103.989ZM14.573,252.213A1.317,1.317,0,0,1,13.3,250.85a1.272,1.272,0,1,1,1.269,1.362Zm0-14.722a1.345,1.345,0,1,1,1.269-1.339A1.3,1.3,0,0,1,14.573,237.49Zm0-14.713a1.347,1.347,0,1,1,1.269-1.352A1.308,1.308,0,0,1,14.573,222.777Zm0-14.8a1.266,1.266,0,1,1,1.2-1.261A1.23,1.23,0,0,1,14.573,207.978Zm0-14.838A1.143,1.143,0,1,1,15.652,192,1.1,1.1,0,0,1,14.573,193.139Zm0-14.842a1.015,1.015,0,1,1,.971-1.017A.991.991,0,0,1,14.573,178.3Zm0-14.91a.819.819,0,1,1,.771-.815A.8.8,0,0,1,14.573,163.387Zm0-14.967a.569.569,0,1,1,.544-.571A.558.558,0,0,1,14.573,148.421Zm0-14.958a.327.327,0,1,1,.309-.322A.317.317,0,0,1,14.573,133.463ZM.662,251.56A.7.7,0,0,1,0,250.85a.668.668,0,0,1,.662-.68.66.66,0,0,1,.653.68A.687.687,0,0,1,.662,251.56Zm0-14.723a.691.691,0,0,1,0-1.381.692.692,0,0,1,0,1.381Zm0-14.708a.687.687,0,0,1-.662-.7.672.672,0,0,1,.662-.681.664.664,0,0,1,.653.681A.679.679,0,0,1,.662,222.13Zm0-14.838a.571.571,0,0,1,0-1.141.572.572,0,0,1,0,1.141Zm0-14.794A.486.486,0,0,1,.19,192a.481.481,0,0,1,.472-.489.479.479,0,0,1,.463.489A.484.484,0,0,1,.662,192.5Zm0-14.848a.367.367,0,0,1-.354-.369.373.373,0,0,1,.354-.369.366.366,0,0,1,.344.369A.359.359,0,0,1,.662,177.65Zm-.19-15.078a.2.2,0,0,1,.19-.206.2.2,0,0,1,0,.408A.194.194,0,0,1,.472,162.572Zm.19,102.436a.549.549,0,0,1,.536.575.561.561,0,0,1-.536.575.568.568,0,0,1-.544-.575A.556.556,0,0,1,.662,265.007Zm0,14.8a.478.478,0,0,1,.463.49.47.47,0,0,1-.463.479A.472.472,0,0,1,.19,280.3.481.481,0,0,1,.662,279.806Zm0,14.877a.314.314,0,0,1,.3.326.3.3,0,0,1-.3.326.316.316,0,0,1-.317-.326A.328.328,0,0,1,.662,294.683ZM.78,309.722a.126.126,0,0,1-.118.135.127.127,0,0,1-.118-.135.123.123,0,0,1,.118-.115A.122.122,0,0,1,.78,309.722Zm13.793-45.4a1.258,1.258,0,1,1-1.2,1.266A1.225,1.225,0,0,1,14.573,264.317Zm0,14.876a1.11,1.11,0,0,1,0,2.215,1.109,1.109,0,0,1,0-2.215Zm0,14.79a1.007,1.007,0,0,1,.971,1.026.971.971,0,1,1-1.941,0A1.013,1.013,0,0,1,14.573,293.983Zm0,14.934a.79.79,0,0,1,.771.805.776.776,0,1,1-.771-.805Zm0,14.991a.533.533,0,1,1-.5.527A.518.518,0,0,1,14.573,323.908Zm.263,15.24a.265.265,0,1,1-.526,0,.263.263,0,1,1,.526,0Zm13.647-75.464a1.893,1.893,0,0,1,0,3.779,1.894,1.894,0,0,1,0-3.779Zm0,14.857a1.763,1.763,0,1,1-1.659,1.756A1.71,1.71,0,0,1,28.483,278.541Zm0,14.886a1.538,1.538,0,0,1,1.505,1.583,1.507,1.507,0,1,1-1.505-1.583Zm0,14.857a1.411,1.411,0,0,1,1.361,1.438,1.394,1.394,0,0,1-1.361,1.42,1.38,1.38,0,0,1-1.341-1.42A1.4,1.4,0,0,1,28.483,308.284Zm0,15.02a1.144,1.144,0,1,1-1.069,1.131A1.1,1.1,0,0,1,28.483,323.3Zm0,14.962a.893.893,0,0,1,0,1.784.893.893,0,0,1,0-1.784Zm0,15.039a.567.567,0,1,1-.535.575A.549.549,0,0,1,28.483,353.3Zm.237,15.269a.248.248,0,0,1-.237.269.253.253,0,0,1-.236-.269.244.244,0,0,1,.236-.23A.237.237,0,0,1,28.719,368.574ZM42.4,263.127a2.449,2.449,0,1,1-2.321,2.455A2.383,2.383,0,0,1,42.4,263.127Zm0,14.79a2.313,2.313,0,0,1,2.231,2.379,2.243,2.243,0,1,1-4.48,0A2.322,2.322,0,0,1,42.4,277.918Zm0,14.885a2.209,2.209,0,1,1-2.086,2.206A2.149,2.149,0,0,1,42.4,292.8Zm0,14.924a2,2,0,1,1-1.9,1.995A1.947,1.947,0,0,1,42.4,307.727Zm0,14.963a1.747,1.747,0,0,1,0,3.49,1.747,1.747,0,0,1,0-3.49Zm0,15a1.469,1.469,0,1,1-1.4,1.457A1.426,1.426,0,0,1,42.4,337.69Zm0,15.039a1.143,1.143,0,1,1-1.089,1.15A1.111,1.111,0,0,1,42.4,352.73Zm0,15.1a.733.733,0,0,1,.725.747.732.732,0,1,1-1.46,0A.734.734,0,0,1,42.4,367.826Zm0,15.106a.35.35,0,0,1,.335.374.341.341,0,1,1-.681,0A.353.353,0,0,1,42.4,382.932Zm13.91-120.38a3.026,3.026,0,1,1-2.856,3.031A2.943,2.943,0,0,1,56.314,262.552Zm0,14.847a2.9,2.9,0,1,1-2.747,2.9A2.813,2.813,0,0,1,56.314,277.4Zm0,14.886a2.727,2.727,0,1,1-2.584,2.724A2.652,2.652,0,0,1,56.314,292.285Zm0,14.866a2.575,2.575,0,1,1-2.43,2.57A2.5,2.5,0,0,1,56.314,307.151Zm0,15a2.3,2.3,0,1,1-2.158,2.282A2.222,2.222,0,0,1,56.314,322.153Zm0,15.01a2,2,0,1,1-1.886,1.985A1.946,1.946,0,0,1,56.314,337.163Zm0,15.038a1.671,1.671,0,0,1,0,3.338,1.671,1.671,0,0,1,0-3.338Zm0,15.068a1.316,1.316,0,1,1-1.242,1.3A1.279,1.279,0,0,1,56.314,367.269Zm0,15.145a.893.893,0,0,1,0,1.784.894.894,0,0,1,0-1.784Zm0,15.154a.452.452,0,0,1,0,.9.452.452,0,0,1,0-.9Zm13.91-135.506a3.521,3.521,0,1,1-3.319,3.52A3.435,3.435,0,0,1,70.224,262.063Zm0,14.8a3.435,3.435,0,1,1-3.237,3.434A3.34,3.34,0,0,1,70.224,276.862Zm0,14.915a3.232,3.232,0,1,1-3.056,3.233A3.161,3.161,0,0,1,70.224,291.777Zm0,14.885a3.069,3.069,0,1,1-2.893,3.06A2.982,2.982,0,0,1,70.224,306.662Zm0,14.972a2.815,2.815,0,1,1-2.657,2.8A2.741,2.741,0,0,1,70.224,321.634Zm0,15a2.531,2.531,0,1,1-2.394,2.512A2.465,2.465,0,0,1,70.224,336.635Zm0,15.077a2.161,2.161,0,1,1-2.05,2.167A2.1,2.1,0,0,1,70.224,351.712Zm0,15.088a1.739,1.739,0,0,1,1.7,1.774,1.7,1.7,0,1,1-1.7-1.774Zm0,15.107a1.4,1.4,0,1,1-1.315,1.4A1.363,1.363,0,0,1,70.224,381.907Zm0,15.183a.907.907,0,0,1,.889.93.889.889,0,1,1-.889-.93Zm0,15.2a.436.436,0,0,1,.426.441.427.427,0,1,1-.852,0A.436.436,0,0,1,70.224,412.291ZM84.135,261.535a4.044,4.044,0,1,1-3.818,4.047A3.936,3.936,0,0,1,84.135,261.535Zm0,14.829a3.929,3.929,0,1,1-3.7,3.932A3.828,3.828,0,0,1,84.135,276.364Zm0,14.942a3.718,3.718,0,1,1-3.509,3.7A3.611,3.611,0,0,1,84.135,291.306Zm0,14.9a3.527,3.527,0,1,1-3.311,3.51A3.415,3.415,0,0,1,84.135,306.211Zm0,14.963a3.271,3.271,0,1,1-3.083,3.261A3.193,3.193,0,0,1,84.135,321.174Zm0,14.982a3,3,0,1,1-2.82,2.991A2.915,2.915,0,0,1,84.135,336.156Zm0,15.106a2.613,2.613,0,1,1-2.466,2.618A2.541,2.541,0,0,1,84.135,351.262Zm0,15.039a2.286,2.286,0,1,1-2.158,2.273A2.227,2.227,0,0,1,84.135,366.3Zm0,15.173a1.835,1.835,0,1,1-1.732,1.832A1.772,1.772,0,0,1,84.135,381.474Zm0,15.164a1.383,1.383,0,1,1-1.305,1.381A1.34,1.34,0,0,1,84.135,396.638Zm0,15.192a.9.9,0,1,1-.843.9A.871.871,0,0,1,84.135,411.831Zm0,15.26a.347.347,0,0,1,.344.356.363.363,0,0,1-.344.374.378.378,0,0,1-.354-.374A.361.361,0,0,1,84.135,427.09Zm13.92-180.748a4.529,4.529,0,1,1-4.29,4.508A4.394,4.394,0,0,1,98.055,246.342Zm0,14.752a4.49,4.49,0,1,1-4.253,4.489A4.371,4.371,0,0,1,98.055,261.094Zm0,14.828a4.376,4.376,0,1,1-4.136,4.375A4.256,4.256,0,0,1,98.055,275.922Zm0,14.886a4.207,4.207,0,1,1-3.981,4.2A4.1,4.1,0,0,1,98.055,290.808Zm0,14.952a3.972,3.972,0,1,1-3.754,3.961A3.852,3.852,0,0,1,98.055,305.761Zm0,14.972a3.712,3.712,0,1,1-3.518,3.7A3.61,3.61,0,0,1,98.055,320.733Zm0,14.991a3.439,3.439,0,1,1-3.247,3.423A3.331,3.331,0,0,1,98.055,335.724Zm0,15.087a3.064,3.064,0,1,1-2.9,3.069A2.985,2.985,0,0,1,98.055,350.811Zm0,15.126a2.655,2.655,0,1,1-2.521,2.637A2.575,2.575,0,0,1,98.055,365.937Zm0,15.125a2.242,2.242,0,1,1-2.131,2.244A2.175,2.175,0,0,1,98.055,381.062Zm0,15.164a1.8,1.8,0,1,1-1.7,1.793A1.744,1.744,0,0,1,98.055,396.226Zm0,15.2a1.311,1.311,0,1,1-1.242,1.3A1.265,1.265,0,0,1,98.055,411.428Zm0,15.251a.768.768,0,0,1,0,1.534.768.768,0,0,1,0-1.534Zm.181,15.48a.2.2,0,0,1-.181.211.208.208,0,0,1-.2-.211.2.2,0,0,1,.2-.2A.19.19,0,0,1,98.237,442.158Zm13.729-196.272a4.983,4.983,0,1,1-4.706,4.964A4.842,4.842,0,0,1,111.966,245.887Zm0,14.785a4.909,4.909,0,1,1-4.634,4.911A4.784,4.784,0,0,1,111.966,260.672Zm0,14.847a4.784,4.784,0,1,1-4.516,4.777A4.652,4.652,0,0,1,111.966,275.519Zm0,14.877a4.616,4.616,0,1,1-4.361,4.614A4.5,4.5,0,0,1,111.966,290.4Zm0,14.952a4.381,4.381,0,1,1-4.126,4.373A4.262,4.262,0,0,1,111.966,305.348Zm0,14.963a4.142,4.142,0,1,1-3.89,4.124A4.021,4.021,0,0,1,111.966,320.311Zm0,15.039a3.814,3.814,0,1,1-3.591,3.8A3.72,3.72,0,0,1,111.966,335.35Zm0,15.039a3.389,3.389,0,0,1,3.273,3.491,3.282,3.282,0,1,1-6.556,0A3.4,3.4,0,0,1,111.966,350.389Zm0,15.145a3.064,3.064,0,0,1,0,6.118,3.064,3.064,0,0,1,0-6.118Zm0,15.154a2.618,2.618,0,1,1-2.466,2.618A2.534,2.534,0,0,1,111.966,380.688Zm0,15.164a2.166,2.166,0,1,1-2.041,2.167A2.113,2.113,0,0,1,111.966,395.852Zm0,15.211a1.677,1.677,0,0,1,0,3.347,1.676,1.676,0,0,1,0-3.347Zm0,15.288a1.105,1.105,0,1,1-1.043,1.094A1.078,1.078,0,0,1,111.966,426.351Zm0,15.289a.5.5,0,0,1,.5.518.509.509,0,0,1-.5.537.528.528,0,0,1,0-1.055Zm13.911-196.123a5.35,5.35,0,1,1-5.06,5.333A5.209,5.209,0,0,1,125.877,245.518Zm0,14.77a5.3,5.3,0,1,1-5.006,5.295A5.158,5.158,0,0,1,125.877,260.288Zm0,14.867a5.154,5.154,0,1,1-4.861,5.141A5.013,5.013,0,0,1,125.877,275.155Zm0,14.866a5,5,0,1,1-4.707,4.988A4.866,4.866,0,0,1,125.877,290.021Zm0,14.962a4.746,4.746,0,1,1-4.48,4.738A4.611,4.611,0,0,1,125.877,304.984Zm0,15.01a4.453,4.453,0,1,1-4.2,4.441A4.335,4.335,0,0,1,125.877,319.994Zm0,14.991a4.174,4.174,0,1,1-3.936,4.162A4.048,4.048,0,0,1,125.877,334.985Zm0,15.1a3.794,3.794,0,1,1-3.582,3.8A3.682,3.682,0,0,1,125.877,350.082Zm0,15.116a3.391,3.391,0,1,1-3.2,3.376A3.294,3.294,0,0,1,125.877,365.2Zm0,15.174a2.94,2.94,0,1,1-2.776,2.935A2.852,2.852,0,0,1,125.877,380.372Zm0,15.116a2.536,2.536,0,1,1-2.4,2.532A2.464,2.464,0,0,1,125.877,395.488Zm0,15.25a2,2,0,1,1-1.887,1.995A1.955,1.955,0,0,1,125.877,410.738Zm0,15.288a1.427,1.427,0,1,1-1.352,1.421A1.388,1.388,0,0,1,125.877,426.025Zm0,15.289a.855.855,0,1,1-.808.844A.838.838,0,0,1,125.877,441.315Zm.235,15.576a.236.236,0,0,1-.471,0,.236.236,0,1,1,.471,0Zm13.675-211.7a5.682,5.682,0,1,1-5.359,5.659A5.518,5.518,0,0,1,139.787,245.192Zm0,14.8a5.6,5.6,0,1,1-5.278,5.591A5.452,5.452,0,0,1,139.787,259.992Zm0,14.8a5.514,5.514,0,1,1-5.2,5.506A5.355,5.355,0,0,1,139.787,274.791Zm0,14.924a5.312,5.312,0,1,1-5.014,5.295A5.158,5.158,0,0,1,139.787,289.714Zm0,14.953A5.067,5.067,0,1,1,135,309.722,4.918,4.918,0,0,1,139.787,304.667Zm0,14.991a4.784,4.784,0,1,1-4.506,4.776A4.653,4.653,0,0,1,139.787,319.659Zm0,15.039a4.468,4.468,0,1,1-4.207,4.45A4.343,4.343,0,0,1,139.787,334.7Zm0,15.1a4.083,4.083,0,1,1-3.854,4.086A3.963,3.963,0,0,1,139.787,349.794Zm0,15.078a3.723,3.723,0,1,1-3.509,3.7A3.615,3.615,0,0,1,139.787,364.872Zm0,15.212a3.228,3.228,0,1,1-3.047,3.222A3.135,3.135,0,0,1,139.787,380.084Zm0,15.154a2.776,2.776,0,1,1-2.62,2.782A2.71,2.71,0,0,1,139.787,395.238Zm0,15.211a2.287,2.287,0,1,1-2.158,2.283A2.23,2.23,0,0,1,139.787,410.449Zm0,15.288a1.721,1.721,0,1,1-1.614,1.708A1.67,1.67,0,0,1,139.787,425.738Zm0,15.328a1.095,1.095,0,1,1-1.043,1.093A1.072,1.072,0,0,1,139.787,441.065Zm0,15.326a.483.483,0,0,1,.472.5.478.478,0,0,1-.472.48.463.463,0,0,1-.453-.48A.468.468,0,0,1,139.787,456.392ZM153.7,259.655a5.933,5.933,0,1,1-5.585,5.928A5.765,5.765,0,0,1,153.7,259.655Zm0,14.848a5.808,5.808,0,1,1-5.468,5.793A5.645,5.645,0,0,1,153.7,274.5Zm0,14.9a5.6,5.6,0,1,1-5.277,5.6A5.461,5.461,0,0,1,153.7,289.408Zm0,14.962a5.361,5.361,0,1,1-5.051,5.352A5.227,5.227,0,0,1,153.7,304.37Zm0,15.01a5.068,5.068,0,1,1-4.769,5.055A4.913,4.913,0,0,1,153.7,319.38Zm0,15.049a4.746,4.746,0,1,1-4.47,4.718A4.6,4.6,0,0,1,153.7,334.429Zm0,15.077a4.371,4.371,0,1,1-4.126,4.374A4.252,4.252,0,0,1,153.7,349.506Zm0,15.116a3.968,3.968,0,1,1-3.736,3.951A3.857,3.857,0,0,1,153.7,364.623Zm0,15.211a3.478,3.478,0,1,1-3.273,3.472A3.38,3.38,0,0,1,153.7,379.834Zm0,15.155a3.037,3.037,0,1,1-2.847,3.031A2.958,2.958,0,0,1,153.7,394.989Zm0,15.211a2.542,2.542,0,1,1-2.385,2.532A2.464,2.464,0,0,1,153.7,410.2Zm0,15.289a1.96,1.96,0,1,1-1.84,1.956A1.914,1.914,0,0,1,153.7,425.49Zm0,15.288a1.341,1.341,0,0,1,1.315,1.381,1.312,1.312,0,1,1-1.315-1.381Zm0,15.327a.763.763,0,0,1,.744.787.74.74,0,1,1-1.479,0A.763.763,0,0,1,153.7,456.1Zm.091,15.49a.086.086,0,0,1-.091.087.089.089,0,0,1-.081-.087c0-.029.044-.086.081-.086A.1.1,0,0,1,153.788,471.594Zm13.838-227.017a6.292,6.292,0,1,1-5.948,6.273A6.117,6.117,0,0,1,167.626,244.577Zm0,14.838a6.172,6.172,0,1,1-5.831,6.167A6.006,6.006,0,0,1,167.626,259.416Zm0,14.828a6.057,6.057,0,1,1-5.713,6.053A5.884,5.884,0,0,1,167.626,274.243Zm0,14.935a5.84,5.84,0,1,1-5.523,5.831A5.669,5.669,0,0,1,167.626,289.178Zm0,14.962a5.595,5.595,0,1,1-5.3,5.582A5.435,5.435,0,0,1,167.626,304.14Zm0,15a5.312,5.312,0,1,1-5.024,5.295A5.161,5.161,0,0,1,167.626,319.14Zm0,15.078a4.942,4.942,0,1,1-4.679,4.929A4.8,4.8,0,0,1,167.626,334.218Zm0,15.077a4.582,4.582,0,1,1-4.334,4.584A4.46,4.46,0,0,1,167.626,349.3Zm0,15.136a4.163,4.163,0,1,1-3.953,4.143A4.044,4.044,0,0,1,167.626,364.431Zm0,15.154a3.717,3.717,0,1,1-3.527,3.721A3.62,3.62,0,0,1,167.626,379.585Zm0,15.221a3.222,3.222,0,1,1-3.056,3.214A3.13,3.13,0,0,1,167.626,394.806Zm0,15.231a2.7,2.7,0,1,1-2.556,2.7A2.613,2.613,0,0,1,167.626,410.037Zm0,15.25a2.166,2.166,0,1,1-2.05,2.159A2.112,2.112,0,0,1,167.626,425.287Zm0,15.328a1.55,1.55,0,1,1-1.477,1.544A1.509,1.509,0,0,1,167.626,440.614Zm0,15.326a.9.9,0,0,1,.871.95.914.914,0,0,1-.871.94.93.93,0,0,1-.9-.94A.915.915,0,0,1,167.626,455.941Zm0,15.376a.276.276,0,0,1,.254.278.27.27,0,0,1-.254.278.28.28,0,0,1-.281-.278A.286.286,0,0,1,167.626,471.316Zm13.9-226.892a6.455,6.455,0,1,1-6.093,6.426A6.256,6.256,0,0,1,181.527,244.424Zm0,14.771a6.389,6.389,0,1,1-6.021,6.388A6.216,6.216,0,0,1,181.527,259.2Zm0,14.866a6.254,6.254,0,1,1-5.9,6.235A6.073,6.073,0,0,1,181.527,274.062Zm0,14.905a6.057,6.057,0,1,1-5.712,6.042A5.884,5.884,0,0,1,181.527,288.967Zm0,14.962a5.808,5.808,0,1,1-5.477,5.793A5.637,5.637,0,0,1,181.527,303.929Zm0,15a5.514,5.514,0,1,1-5.2,5.506A5.375,5.375,0,0,1,181.527,318.929Zm0,15.136a5.111,5.111,0,1,1-4.815,5.082A4.962,4.962,0,0,1,181.527,334.065Zm0,15.077a4.736,4.736,0,1,1-4.47,4.738A4.618,4.618,0,0,1,181.527,349.142Zm0,15.107a4.337,4.337,0,1,1-4.09,4.325A4.233,4.233,0,0,1,181.527,364.248Zm0,15.183a3.886,3.886,0,1,1-3.663,3.874A3.775,3.775,0,0,1,181.527,379.432Zm0,15.193a3.4,3.4,0,1,1-3.191,3.4A3.313,3.313,0,0,1,181.527,394.624Zm0,15.25a2.863,2.863,0,1,1-2.7,2.858A2.784,2.784,0,0,1,181.527,409.874Zm0,15.25a2.325,2.325,0,1,1-2.2,2.322A2.263,2.263,0,0,1,181.527,425.124Zm0,15.327a1.72,1.72,0,1,1-1.613,1.707A1.667,1.667,0,0,1,181.527,440.451Zm0,15.365a1.043,1.043,0,0,1,1.007,1.074,1,1,0,1,1-1.007-1.074Zm0,15.375a.409.409,0,1,1-.38.4A.388.388,0,0,1,181.527,471.191Zm13.911-226.983a6.67,6.67,0,1,1-6.285,6.642A6.48,6.48,0,0,1,195.439,244.208Zm0,14.833a6.547,6.547,0,1,1-6.176,6.541A6.365,6.365,0,0,1,195.439,259.042Zm0,14.885a6.369,6.369,0,1,1-6.012,6.369A6.188,6.188,0,0,1,195.439,273.927Zm0,14.915a6.172,6.172,0,1,1-5.822,6.167A6.007,6.007,0,0,1,195.439,288.842Zm0,15.01a5.889,5.889,0,1,1-5.55,5.869A5.723,5.723,0,0,1,195.439,303.852Zm0,14.991a5.605,5.605,0,1,1-5.287,5.591A5.445,5.445,0,0,1,195.439,318.844Zm0,15.048a5.275,5.275,0,1,1-4.97,5.255A5.128,5.128,0,0,1,195.439,333.892Zm0,15.116a4.872,4.872,0,1,1-4.58,4.872A4.744,4.744,0,0,1,195.439,349.008Zm0,15.136a4.458,4.458,0,1,1-4.2,4.43A4.32,4.32,0,0,1,195.439,364.143Zm0,15.154a4.007,4.007,0,1,1-3.773,4.009A3.9,3.9,0,0,1,195.439,379.3Zm0,15.25a3.478,3.478,0,1,1-3.274,3.472A3.381,3.381,0,0,1,195.439,394.547Zm0,15.25a2.94,2.94,0,1,1-2.775,2.935A2.854,2.854,0,0,1,195.439,409.8Zm0,15.25a2.4,2.4,0,1,1-2.277,2.4A2.34,2.34,0,0,1,195.439,425.047Zm0,15.328a1.743,1.743,0,0,1,1.7,1.783,1.7,1.7,0,1,1-1.7-1.783Zm0,15.288a1.23,1.23,0,1,1-1.152,1.228A1.186,1.186,0,0,1,195.439,455.663Zm0,15.4a.534.534,0,0,1,0,1.065.533.533,0,0,1,0-1.065Zm13.911-226.978a6.787,6.787,0,1,1-6.4,6.762A6.586,6.586,0,0,1,209.349,244.089Zm0,14.829a6.672,6.672,0,1,1-6.284,6.666A6.482,6.482,0,0,1,209.349,258.917Zm0,14.934a6.451,6.451,0,1,1-6.086,6.446A6.28,6.28,0,0,1,209.349,273.851Zm0,14.9a6.254,6.254,0,1,1-5.895,6.254A6.084,6.084,0,0,1,209.349,288.756Zm0,14.962a6.014,6.014,0,1,1-5.667,6A5.851,5.851,0,0,1,209.349,303.718Zm0,15.039a5.687,5.687,0,1,1-5.359,5.678A5.537,5.537,0,0,1,209.349,318.757Zm0,15.058a5.351,5.351,0,1,1-5.043,5.332A5.2,5.2,0,0,1,209.349,333.816Zm0,15.115a4.948,4.948,0,1,1-4.661,4.949A4.806,4.806,0,0,1,209.349,348.931Zm0,15.136a4.534,4.534,0,1,1-4.271,4.507A4.407,4.407,0,0,1,209.349,364.067Zm0,15.192a4.05,4.05,0,1,1-3.809,4.047A3.929,3.929,0,0,1,209.349,379.259Zm0,15.2A3.56,3.56,0,1,1,206,398.02,3.464,3.464,0,0,1,209.349,394.461Zm0,15.26a3.021,3.021,0,1,1-2.847,3.011A2.935,2.935,0,0,1,209.349,409.721Zm0,15.279a2.455,2.455,0,1,1-2.3,2.446A2.387,2.387,0,0,1,209.349,425Zm0,15.3a1.873,1.873,0,1,1-1.769,1.86A1.811,1.811,0,0,1,209.349,440.3Zm0,15.327a1.258,1.258,0,0,1,0,2.513,1.259,1.259,0,0,1,0-2.513Zm0,15.4a.566.566,0,1,1-.535.566A.555.555,0,0,1,209.349,471.029Zm13.919-226.94a6.787,6.787,0,1,1-6.4,6.762A6.592,6.592,0,0,1,223.268,244.089Zm0,14.829a6.672,6.672,0,1,1-6.293,6.666A6.483,6.483,0,0,1,223.268,258.917Zm0,14.875a6.5,6.5,0,1,1-6.13,6.5A6.338,6.338,0,0,1,223.268,273.792Zm0,14.944a6.292,6.292,0,1,1-5.939,6.273A6.114,6.114,0,0,1,223.268,288.736Zm0,14.953a6.047,6.047,0,1,1-5.713,6.032A5.875,5.875,0,0,1,223.268,303.689Zm0,15.068a5.687,5.687,0,1,1-5.358,5.678A5.535,5.535,0,0,1,223.268,318.757Zm0,15.058a5.351,5.351,0,1,1-5.05,5.332A5.2,5.2,0,0,1,223.268,333.816Zm0,15.077a4.981,4.981,0,1,1-4.706,4.987A4.846,4.846,0,0,1,223.268,348.893Zm0,15.174a4.534,4.534,0,1,1-4.28,4.507A4.414,4.414,0,0,1,223.268,364.067Zm0,15.154a4.082,4.082,0,1,1-3.863,4.086A3.989,3.989,0,0,1,223.268,379.22Zm0,15.211a3.593,3.593,0,1,1-3.391,3.588A3.49,3.49,0,0,1,223.268,394.432Zm0,15.231a3.07,3.07,0,1,1-2.892,3.07A2.991,2.991,0,0,1,223.268,409.663Zm0,15.251a2.542,2.542,0,1,1-2.385,2.532A2.469,2.469,0,0,1,223.268,424.914Zm0,15.384a1.872,1.872,0,1,1-1.777,1.86A1.816,1.816,0,0,1,223.268,440.3Zm0,15.327a1.258,1.258,0,1,1-1.2,1.266A1.226,1.226,0,0,1,223.268,455.625Zm0,15.4a.566.566,0,0,1,0,1.131.567.567,0,0,1,0-1.131Zm13.92-226.9a6.743,6.743,0,1,1-6.375,6.724A6.55,6.55,0,0,1,237.188,244.127Zm0,14.838a6.619,6.619,0,1,1-6.249,6.618A6.438,6.438,0,0,1,237.188,258.965Zm0,14.885a6.45,6.45,0,1,1-6.1,6.446A6.27,6.27,0,0,1,237.188,273.851Zm0,14.9a6.253,6.253,0,1,1-5.913,6.254A6.09,6.09,0,0,1,237.188,288.756Zm0,15.01a5.97,5.97,0,1,1-5.641,5.956A5.812,5.812,0,0,1,237.188,303.766Zm0,15.048a5.638,5.638,0,1,1-5.333,5.621A5.475,5.475,0,0,1,237.188,318.814Zm0,15a5.35,5.35,0,1,1-5.061,5.332A5.188,5.188,0,0,1,237.188,333.816Zm0,15.115a4.947,4.947,0,1,1-4.679,4.949A4.817,4.817,0,0,1,237.188,348.931Zm0,15.136a4.533,4.533,0,1,1-4.29,4.507A4.411,4.411,0,0,1,237.188,364.067Zm0,15.192a4.049,4.049,0,1,1-3.827,4.047A3.941,3.941,0,0,1,237.188,379.259Zm0,15.2a3.559,3.559,0,1,1-3.356,3.558A3.462,3.462,0,0,1,237.188,394.461Zm0,15.26a3.02,3.02,0,1,1-2.865,3.011A2.932,2.932,0,0,1,237.188,409.721Zm0,15.279a2.454,2.454,0,1,1-2.321,2.446A2.393,2.393,0,0,1,237.188,425Zm0,15.3a1.872,1.872,0,1,1-1.777,1.86A1.81,1.81,0,0,1,237.188,440.3Zm0,15.327a1.258,1.258,0,1,1-1.206,1.266A1.224,1.224,0,0,1,237.188,455.625Zm0,15.4a.567.567,0,0,1,0,1.131.566.566,0,0,1,0-1.131ZM251.1,244.247a6.631,6.631,0,1,1-6.258,6.6A6.438,6.438,0,0,1,251.1,244.247Zm0,14.795a6.547,6.547,0,1,1-6.175,6.541A6.37,6.37,0,0,1,251.1,259.042Zm0,14.885a6.368,6.368,0,1,1-6.03,6.369A6.186,6.186,0,0,1,251.1,273.927Zm0,14.915a6.172,6.172,0,1,1-5.831,6.167A6.012,6.012,0,0,1,251.1,288.842Zm0,15.01a5.889,5.889,0,1,1-5.558,5.869A5.722,5.722,0,0,1,251.1,303.852Zm0,14.991a5.605,5.605,0,1,1-5.286,5.591A5.438,5.438,0,0,1,251.1,318.844Zm0,15.087a5.235,5.235,0,1,1-4.942,5.217A5.081,5.081,0,0,1,251.1,333.93Zm0,15.077a4.871,4.871,0,1,1-4.588,4.872A4.73,4.73,0,0,1,251.1,349.008Zm0,15.136a4.457,4.457,0,1,1-4.207,4.43A4.319,4.319,0,0,1,251.1,364.143Zm0,15.154a4.006,4.006,0,1,1-3.781,4.009A3.882,3.882,0,0,1,251.1,379.3Zm0,15.25a3.478,3.478,0,1,1-3.283,3.472A3.374,3.374,0,0,1,251.1,394.547Zm0,15.25a2.94,2.94,0,1,1-2.775,2.935A2.852,2.852,0,0,1,251.1,409.8Zm0,15.25a2.4,2.4,0,1,1-2.286,2.4A2.336,2.336,0,0,1,251.1,425.047Zm0,15.328a1.741,1.741,0,0,1,1.7,1.783,1.7,1.7,0,1,1-3.391,0A1.735,1.735,0,0,1,251.1,440.375Zm0,15.365a1.144,1.144,0,1,1-1.079,1.151A1.123,1.123,0,0,1,251.1,455.74Zm0,15.366a.476.476,0,0,1,.453.489.459.459,0,1,1-.916,0A.479.479,0,0,1,251.1,471.105ZM265.01,244.424a6.455,6.455,0,1,1-6.1,6.426A6.261,6.261,0,0,1,265.01,244.424Zm0,14.771a6.388,6.388,0,1,1-6.023,6.388A6.208,6.208,0,0,1,265.01,259.2Zm0,14.9a6.21,6.21,0,1,1-5.868,6.206A6.041,6.041,0,0,1,265.01,274.09Zm0,14.877a6.057,6.057,0,1,1-5.7,6.042A5.884,5.884,0,0,1,265.01,288.967Zm0,15a5.764,5.764,0,1,1-5.442,5.755A5.609,5.609,0,0,1,265.01,303.967Zm0,15a5.48,5.48,0,1,1-5.169,5.466A5.327,5.327,0,0,1,265.01,318.969Zm0,15.1a5.11,5.11,0,1,1-4.825,5.082A4.962,4.962,0,0,1,265.01,334.065Zm0,15.077a4.736,4.736,0,1,1-4.48,4.738A4.612,4.612,0,0,1,265.01,349.142Zm0,15.164a4.293,4.293,0,1,1-4.063,4.268A4.163,4.163,0,0,1,265.01,364.306Zm0,15.125a3.885,3.885,0,1,1-3.673,3.874A3.781,3.781,0,0,1,265.01,379.432Zm0,15.249a3.342,3.342,0,1,1-3.173,3.339A3.255,3.255,0,0,1,265.01,394.681Zm0,15.193a2.863,2.863,0,1,1-2.7,2.858A2.778,2.778,0,0,1,265.01,409.874Zm0,15.308a2.287,2.287,0,1,1-2.159,2.264A2.218,2.218,0,0,1,265.01,425.182Zm0,15.269a1.72,1.72,0,1,1-1.624,1.707A1.661,1.661,0,0,1,265.01,440.451Zm0,15.365a1.037,1.037,0,0,1,1,1.074,1,1,0,1,1-2,0A1.043,1.043,0,0,1,265.01,455.816Zm0,15.375a.409.409,0,1,1-.381.4A.389.389,0,0,1,265.01,471.191Zm13.91-226.58a6.261,6.261,0,1,1-5.9,6.239A6.075,6.075,0,0,1,278.92,244.612Zm0,14.8a6.172,6.172,0,1,1-5.83,6.167A6.007,6.007,0,0,1,278.92,259.416Zm0,14.828a6.058,6.058,0,1,1-5.7,6.053A5.893,5.893,0,0,1,278.92,274.243Zm0,14.973a5.8,5.8,0,1,1-5.476,5.793A5.636,5.636,0,0,1,278.92,289.216Zm0,14.952a5.557,5.557,0,1,1-5.242,5.553A5.4,5.4,0,0,1,278.92,304.169Zm0,15.01a5.269,5.269,0,1,1-4.978,5.257A5.123,5.123,0,0,1,278.92,319.178Zm0,15.04a4.943,4.943,0,1,1-4.67,4.929A4.807,4.807,0,0,1,278.92,334.218Zm0,15.116a4.534,4.534,0,1,1-4.28,4.546A4.423,4.423,0,0,1,278.92,349.334Zm0,15.1a4.164,4.164,0,1,1-3.935,4.143A4.044,4.044,0,0,1,278.92,364.431Zm0,15.154a3.718,3.718,0,1,1-3.509,3.721A3.614,3.614,0,0,1,278.92,379.585Zm0,15.221a3.222,3.222,0,1,1-3.056,3.214A3.131,3.131,0,0,1,278.92,394.806Zm0,15.231a2.705,2.705,0,1,1-2.538,2.7A2.621,2.621,0,0,1,278.92,410.037Zm0,15.3a2.052,2.052,0,0,1,2,2.111,2.011,2.011,0,1,1-2-2.111Zm0,15.28a1.551,1.551,0,1,1-1.469,1.544A1.51,1.51,0,0,1,278.92,440.614Zm0,15.374a.893.893,0,0,1,0,1.785.894.894,0,0,1,0-1.785Zm0,15.328a.278.278,0,0,1,.272.278.272.272,0,1,1-.544,0A.278.278,0,0,1,278.92,471.316ZM292.83,244.895a5.976,5.976,0,1,1-5.631,5.956A5.8,5.8,0,0,1,292.83,244.895Zm0,14.809a5.884,5.884,0,1,1-5.549,5.879A5.728,5.728,0,0,1,292.83,259.7Zm0,14.838A5.764,5.764,0,1,1,287.4,280.3,5.6,5.6,0,0,1,292.83,274.541Zm0,14.923a5.553,5.553,0,1,1-5.25,5.545A5.4,5.4,0,0,1,292.83,289.465Zm0,14.963a5.312,5.312,0,1,1-5.014,5.294A5.151,5.151,0,0,1,292.83,304.428Zm0,14.982a5.034,5.034,0,1,1-4.743,5.026A4.9,4.9,0,0,1,292.83,319.409Zm0,15.058a4.7,4.7,0,1,1-4.434,4.68A4.566,4.566,0,0,1,292.83,334.468Zm0,15.087a4.333,4.333,0,1,1-4.08,4.325A4.21,4.21,0,0,1,292.83,349.554Zm0,15.107a3.93,3.93,0,1,1-3.7,3.913A3.816,3.816,0,0,1,292.83,364.661Zm0,15.173a3.478,3.478,0,1,1-3.273,3.472A3.38,3.38,0,0,1,292.83,379.834Zm0,15.211a2.978,2.978,0,1,1-2.811,2.974A2.889,2.889,0,0,1,292.83,395.046Zm0,15.251a2.44,2.44,0,1,1-2.312,2.436A2.385,2.385,0,0,1,292.83,410.3Zm0,15.25a1.858,1.858,0,0,1,1.822,1.9,1.821,1.821,0,1,1-3.635,0A1.857,1.857,0,0,1,292.83,425.546Zm0,15.269a1.355,1.355,0,1,1-1.27,1.343A1.313,1.313,0,0,1,292.83,440.816Zm0,15.336a.735.735,0,1,1-.689.739A.714.714,0,0,1,292.83,456.152Zm.081,15.442a.077.077,0,1,1-.154,0c0-.029.036-.086.073-.086S292.911,471.566,292.911,471.594ZM306.75,245.23a5.639,5.639,0,1,1-5.332,5.621A5.5,5.5,0,0,1,306.75,245.23Zm0,14.762a5.595,5.595,0,1,1-5.3,5.591A5.451,5.451,0,0,1,306.75,259.992Zm0,14.818a5.486,5.486,0,1,1-5.169,5.486A5.332,5.332,0,0,1,306.75,274.81Zm0,14.943a5.264,5.264,0,1,1-4.979,5.257A5.115,5.115,0,0,1,306.75,289.753Zm0,14.943a5.035,5.035,0,1,1-4.743,5.026A4.891,4.891,0,0,1,306.75,304.7Zm0,15.01a4.74,4.74,0,1,1-4.481,4.729A4.616,4.616,0,0,1,306.75,319.706Zm0,14.991a4.468,4.468,0,1,1-4.208,4.45A4.349,4.349,0,0,1,306.75,334.7Zm0,15.135a4.05,4.05,0,1,1-3.819,4.047A3.949,3.949,0,0,1,306.75,349.832Zm0,15.078a3.679,3.679,0,1,1-3.474,3.664A3.582,3.582,0,0,1,306.75,364.91Zm0,15.174a3.228,3.228,0,1,1-3.047,3.222A3.125,3.125,0,0,1,306.75,380.084Zm0,15.193a2.742,2.742,0,1,1-2.593,2.743A2.669,2.669,0,0,1,306.75,395.276Zm0,15.211a2.252,2.252,0,1,1-2.133,2.245A2.183,2.183,0,0,1,306.75,410.488Zm0,15.289a1.671,1.671,0,1,1-1.587,1.669A1.626,1.626,0,0,1,306.75,425.777Zm0,15.288a1.095,1.095,0,0,1,0,2.187,1.095,1.095,0,0,1,0-2.187Zm0,15.326a.475.475,0,0,1,.462.5.47.47,0,0,1-.462.48.477.477,0,0,1-.472-.48A.482.482,0,0,1,306.75,456.392Zm13.91-196.036a5.231,5.231,0,1,1-4.942,5.227A5.085,5.085,0,0,1,320.66,260.356Zm0,14.837a5.111,5.111,0,1,1-4.824,5.1A4.967,4.967,0,0,1,320.66,275.193Zm0,14.886a4.947,4.947,0,1,1-4.67,4.93A4.8,4.8,0,0,1,320.66,290.079Zm0,14.943a4.708,4.708,0,1,1-4.435,4.7A4.584,4.584,0,0,1,320.66,305.022Zm0,14.972a4.453,4.453,0,1,1-4.2,4.441A4.335,4.335,0,0,1,320.66,319.994Zm0,15.039a4.126,4.126,0,1,1-3.89,4.114A4.008,4.008,0,0,1,320.66,335.033Zm0,15.087a3.767,3.767,0,1,1-3.545,3.76A3.661,3.661,0,0,1,320.66,350.12Zm0,15.126a3.347,3.347,0,1,1-3.164,3.328A3.251,3.251,0,0,1,320.66,365.246Zm0,15.125a2.94,2.94,0,1,1-2.774,2.935A2.859,2.859,0,0,1,320.66,380.372Zm0,15.193a2.459,2.459,0,1,1-2.321,2.455A2.4,2.4,0,0,1,320.66,395.564Zm0,15.211a1.964,1.964,0,1,1-1.859,1.957A1.9,1.9,0,0,1,320.66,410.776Zm0,15.25a1.427,1.427,0,1,1-1.351,1.421A1.381,1.381,0,0,1,320.66,426.025Zm0,15.328a.816.816,0,1,1-.771.805A.791.791,0,0,1,320.66,441.353Zm.236,15.538a.244.244,0,0,1-.236.231.236.236,0,0,1-.226-.231.228.228,0,0,1,.226-.25A.235.235,0,0,1,320.9,456.891Zm13.675-210.97a4.948,4.948,0,1,1-4.662,4.929A4.813,4.813,0,0,1,334.572,245.921Zm0,14.809a4.86,4.86,0,1,1-4.589,4.853A4.719,4.719,0,0,1,334.572,260.73Zm0,14.827A4.746,4.746,0,1,1,330.1,280.3,4.618,4.618,0,0,1,334.572,275.557Zm0,14.944a4.524,4.524,0,1,1-4.281,4.508A4.394,4.394,0,0,1,334.572,290.5Zm0,14.9a4.333,4.333,0,1,1-4.091,4.316A4.207,4.207,0,0,1,334.572,305.406Zm0,14.982a4.049,4.049,0,1,1-3.819,4.047A3.941,3.941,0,0,1,334.572,320.388Zm0,15.02a3.756,3.756,0,1,1-3.546,3.74A3.645,3.645,0,0,1,334.572,335.408Zm0,15.038a3.43,3.43,0,1,1-3.238,3.434A3.339,3.339,0,0,1,334.572,350.446Zm0,15.116a3.026,3.026,0,1,1-2.848,3.011A2.946,2.946,0,0,1,334.572,365.562Zm0,15.174a2.575,2.575,0,1,1-2.431,2.57A2.511,2.511,0,0,1,334.572,380.736Zm0,15.164a2.118,2.118,0,1,1-2,2.119A2.065,2.065,0,0,1,334.572,395.9Zm0,15.2a1.632,1.632,0,0,1,0,3.261,1.633,1.633,0,0,1,0-3.261Zm0,15.289a1.056,1.056,0,1,1-1.007,1.055A1.032,1.032,0,0,1,334.572,426.391Zm0,15.288a.47.47,0,0,1,.463.479.482.482,0,0,1-.463.5.475.475,0,0,1-.455-.5A.463.463,0,0,1,334.572,441.679Zm13.92-180.556a4.462,4.462,0,1,1-4.208,4.46A4.331,4.331,0,0,1,348.491,261.123Zm0,14.885a4.294,4.294,0,1,1-4.053,4.288A4.161,4.161,0,0,1,348.491,276.008Zm0,14.847a4.164,4.164,0,1,1-3.936,4.154A4.041,4.041,0,0,1,348.491,290.855Zm0,14.935a3.93,3.93,0,1,1-3.7,3.932A3.818,3.818,0,0,1,348.491,305.79Zm0,14.972a3.679,3.679,0,1,1-3.473,3.673A3.571,3.571,0,0,1,348.491,320.762Zm0,15.038a3.357,3.357,0,1,1-3.174,3.347A3.261,3.261,0,0,1,348.491,335.8Zm0,15.058a3.021,3.021,0,1,1-2.866,3.021A2.942,2.942,0,0,1,348.491,350.859Zm0,15.126a2.613,2.613,0,1,1-2.466,2.589A2.538,2.538,0,0,1,348.491,365.985Zm0,15.115a2.209,2.209,0,1,1-2.086,2.206A2.154,2.154,0,0,1,348.491,381.1Zm0,15.174a1.749,1.749,0,0,1,0,3.492,1.748,1.748,0,0,1,0-3.492Zm0,15.193a1.268,1.268,0,1,1-1.2,1.266A1.232,1.232,0,0,1,348.491,411.466Zm0,15.251a.71.71,0,0,1,.689.729.727.727,0,0,1-.689.747.737.737,0,0,1-.709-.747A.72.72,0,0,1,348.491,426.717Zm.118,15.441a.119.119,0,1,1-.236,0,.118.118,0,0,1,.236,0Zm13.784-195.335a4.044,4.044,0,1,1-3.818,4.027A3.938,3.938,0,0,1,362.393,246.823Zm0,14.77a4,4,0,1,1-3.782,3.99A3.884,3.884,0,0,1,362.393,261.593Zm0,14.828a3.882,3.882,0,1,1-3.655,3.875A3.783,3.783,0,0,1,362.393,276.421Zm0,14.885a3.718,3.718,0,1,1-3.51,3.7A3.606,3.606,0,0,1,362.393,291.306Zm0,14.963a3.468,3.468,0,1,1-3.275,3.452A3.377,3.377,0,0,1,362.393,306.269Zm0,14.962a3.218,3.218,0,1,1-3.038,3.2A3.119,3.119,0,0,1,362.393,321.231Zm0,14.982a2.945,2.945,0,1,1-2.775,2.935A2.846,2.846,0,0,1,362.393,336.213Zm0,15.087a2.58,2.58,0,1,1-2.431,2.58A2.52,2.52,0,0,1,362.393,351.3Zm0,15.068a2.209,2.209,0,1,1-2.086,2.206A2.149,2.149,0,0,1,362.393,366.368Zm0,15.135a1.8,1.8,0,1,1-1.687,1.8A1.742,1.742,0,0,1,362.393,381.5Zm0,15.174a1.35,1.35,0,1,1-1.262,1.343A1.3,1.3,0,0,1,362.393,396.677Zm0,15.192a.865.865,0,1,1-.808.863A.838.838,0,0,1,362.393,411.869Zm0,15.251a.322.322,0,0,1,.317.326.331.331,0,0,1-.317.336.323.323,0,0,1-.3-.336A.314.314,0,0,1,362.393,427.12ZM376.312,247.3a3.564,3.564,0,1,1-3.355,3.548A3.472,3.472,0,0,1,376.312,247.3Zm0,14.809a3.468,3.468,0,1,1-3.282,3.472A3.381,3.381,0,0,1,376.312,262.111Zm0,14.837a3.348,3.348,0,1,1-3.165,3.348A3.263,3.263,0,0,1,376.312,276.948Zm0,14.829a3.233,3.233,0,1,1-3.046,3.233A3.154,3.154,0,0,1,376.312,291.777Zm0,14.962a2.983,2.983,0,1,1-2.82,2.983A2.914,2.914,0,0,1,376.312,306.739Zm0,14.973a2.737,2.737,0,1,1-2.585,2.723A2.664,2.664,0,0,1,376.312,321.712Zm0,15A2.449,2.449,0,1,1,374,339.147,2.371,2.371,0,0,1,376.312,336.712Zm0,15.038a2.129,2.129,0,1,1-2,2.129A2.068,2.068,0,0,1,376.312,351.75Zm0,15.078a1.758,1.758,0,1,1-1.659,1.745A1.706,1.706,0,0,1,376.312,366.829Zm0,15.144a1.291,1.291,0,0,1,1.269,1.333,1.276,1.276,0,1,1-2.548,0A1.3,1.3,0,0,1,376.312,381.973Zm0,15.145a.9.9,0,0,1,0,1.8.9.9,0,0,1,0-1.8Zm0,15.2a.412.412,0,0,1,.39.413.4.4,0,0,1-.39.412.39.39,0,0,1-.38-.412A.4.4,0,0,1,376.312,412.32Zm13.919-164.491a3.036,3.036,0,1,1-2.856,3.021A2.952,2.952,0,0,1,390.231,247.829Zm0,14.819a2.939,2.939,0,1,1-2.784,2.935A2.857,2.857,0,0,1,390.231,262.648Zm0,14.8a2.858,2.858,0,1,1-2.7,2.849A2.775,2.775,0,0,1,390.231,277.447Zm0,14.877a2.611,2.611,0,0,1,2.539,2.685,2.553,2.553,0,1,1-5.1,0A2.614,2.614,0,0,1,390.231,292.324Zm0,14.952a2.449,2.449,0,1,1-2.322,2.446A2.386,2.386,0,0,1,390.231,307.276Zm0,14.925a2.242,2.242,0,1,1-2.131,2.234A2.186,2.186,0,0,1,390.231,322.2Zm0,14.99a1.969,1.969,0,1,1-1.859,1.956A1.913,1.913,0,0,1,390.231,337.191Zm0,15.04a1.643,1.643,0,1,1-1.55,1.649A1.59,1.59,0,0,1,390.231,352.231Zm0,15.1a1.258,1.258,0,0,1,0,2.512,1.257,1.257,0,0,1,0-2.512Zm0,15.115a.835.835,0,0,1,.806.864.808.808,0,1,1-1.612,0A.83.83,0,0,1,390.231,382.443Zm0,15.164a.4.4,0,0,1,.381.413.386.386,0,1,1-.771,0A.4.4,0,0,1,390.231,397.607Zm13.911-149.192a2.449,2.449,0,1,1-2.322,2.436A2.389,2.389,0,0,1,404.143,248.415Zm0,14.751a2.411,2.411,0,1,1-2.285,2.417A2.355,2.355,0,0,1,404.143,263.166Zm0,14.847a2.287,2.287,0,1,1-2.159,2.283A2.229,2.229,0,0,1,404.143,278.013Zm0,14.867a2.127,2.127,0,1,1-2.013,2.129A2.074,2.074,0,0,1,404.143,292.88Zm0,14.934a1.916,1.916,0,1,1-1.814,1.908A1.851,1.851,0,0,1,404.143,307.813Zm0,14.953a1.671,1.671,0,1,1-1.587,1.669A1.626,1.626,0,0,1,404.143,322.766Zm0,14.962a1.374,1.374,0,0,1,1.342,1.419,1.349,1.349,0,1,1-1.342-1.419Zm0,15.078a1.066,1.066,0,1,1-1.006,1.073A1.042,1.042,0,0,1,404.143,352.806Zm0,15.049a.707.707,0,0,1,.689.719.694.694,0,1,1-.689-.719Zm0,15.106a.339.339,0,0,1,.309.345.321.321,0,0,1-.309.326.315.315,0,0,1-.309-.326A.333.333,0,0,1,404.143,382.961Zm13.91-119.172a1.743,1.743,0,0,1,1.7,1.794,1.7,1.7,0,1,1-3.4,0A1.744,1.744,0,0,1,418.052,263.789Zm0,14.78a1.729,1.729,0,1,1-1.622,1.727A1.673,1.673,0,0,1,418.052,278.57Zm0,14.885a1.512,1.512,0,0,1,1.461,1.554,1.467,1.467,0,1,1-2.929,0A1.519,1.519,0,0,1,418.052,293.455Zm0,14.924a1.345,1.345,0,1,1-1.269,1.343A1.306,1.306,0,0,1,418.052,308.379Zm0,14.963a1.094,1.094,0,1,1-1.042,1.093A1.058,1.058,0,0,1,418.052,323.342Zm0,15a.817.817,0,0,1,0,1.63.816.816,0,0,1,0-1.63Zm0,15.039a.481.481,0,0,1,.463.5.47.47,0,0,1-.463.48.464.464,0,0,1-.462-.48A.474.474,0,0,1,418.052,353.382Zm.119,15.192a.127.127,0,0,1-.119.135c-.072,0-.108-.058-.108-.135,0-.057.036-.1.108-.1A.107.107,0,0,1,418.171,368.574Zm13.792-104.142a1.154,1.154,0,1,1-1.079,1.151A1.125,1.125,0,0,1,431.963,264.432Zm0,14.79a1.067,1.067,0,1,1-1,1.074A1.036,1.036,0,0,1,431.963,279.222Zm0,14.885a.9.9,0,0,1,0,1.794.9.9,0,0,1,0-1.794Zm0,14.885a.7.7,0,0,1,.69.729.7.7,0,1,1-1.388,0A.711.711,0,0,1,431.963,308.993Zm0,14.963a.483.483,0,0,1,.472.479.468.468,0,1,1-.934,0A.482.482,0,0,1,431.963,323.956Zm.235,15.192a.231.231,0,1,1-.462,0,.231.231,0,0,1,.462,0Zm13.685-88.853a.566.566,0,1,1-.544.556A.545.545,0,0,1,445.884,250.295Zm0,14.789a.482.482,0,0,1,.462.5.468.468,0,1,1-.934,0A.482.482,0,0,1,445.884,265.084Zm0,14.79a.421.421,0,0,1,.389.422.4.4,0,0,1-.389.4.385.385,0,0,1-.39-.4A.407.407,0,0,1,445.884,279.874Zm.262,15.135a.287.287,0,0,1-.262.288.282.282,0,0,1-.273-.288.276.276,0,0,1,.273-.288A.28.28,0,0,1,446.145,295.009Zm-.189,14.712a.073.073,0,0,1-.072.077c-.055,0-.082-.019-.082-.077a.076.076,0,0,1,.082-.077A.089.089,0,0,1,445.956,309.722Z" transform="translate(1010.528 -159.413)" fill="#fff" fill-rule="evenodd" opacity="0.19"/>
      <g id="Grupo_154296" data-name="Grupo 154296" transform="translate(599.101 247.137)" opacity="0.09">
        <path id="Trazado_174290" data-name="Trazado 174290" d="M59.688,319.683-111.288,519.766c-5.834,6.828-15.292,6.828-21.126,0h0a19.649,19.649,0,0,1,0-24.723L38.562,294.96c5.834-6.827,15.292-6.827,21.126,0h0A19.649,19.649,0,0,1,59.688,319.683Z" transform="translate(136.79 -289.84)" fill="none" stroke="#8f9294" stroke-miterlimit="10" stroke-width="2"/>
        <path id="Trazado_174291" data-name="Trazado 174291" d="M57.955,410.941l-130.5,152.72a10.271,10.271,0,0,1-16.125,0h0a15,15,0,0,1,0-18.871l130.5-152.72a10.272,10.272,0,0,1,16.126,0h0A15,15,0,0,1,57.955,410.941Z" transform="translate(128.113 -295.398)" fill="none" stroke="#8f9294" stroke-miterlimit="10" stroke-width="2"/>
      </g>
    </g>
  </g>
</svg>
