<svg xmlns="http://www.w3.org/2000/svg" xmlns:xlink="http://www.w3.org/1999/xlink" width="1329" height="245.27" viewBox="0 0 1329 245.27">
  <defs>
    <linearGradient id="linear-gradient" x1="0.187" y1="1" x2="1.538" y2="1" gradientUnits="objectBoundingBox">
      <stop offset="0" stop-color="#f5f5f5" stop-opacity="0.2"/>
      <stop offset="0.421" stop-color="#f5f5f5"/>
      <stop offset="1" stop-color="#afafaf"/>
    </linearGradient>
    <clipPath id="clip-path">
      <rect id="Rect치ngulo_45488" data-name="Rect치ngulo 45488" width="1329" height="245" transform="translate(0 0)" fill="#fff"/>
    </clipPath>
  </defs>
  <g id="Grupo_154291" data-name="Grupo 154291" transform="translate(-135.676 -10060)">
    <rect id="Rect치ngulo_45489" data-name="Rect치ngulo 45489" width="1113" height="245" transform="translate(351.583 10060.27)" fill="url(#linear-gradient)"/>
    <g id="Enmascarar_grupo_80039" data-name="Enmascarar grupo 80039" transform="translate(135.676 10060)" clip-path="url(#clip-path)">
      <path id="Dots-01" d="M311.045,145.467a.354.354,0,1,1,.373-.354A.364.364,0,0,1,311.045,145.467Zm0-9.053a.35.35,0,1,1,0-.7.35.35,0,1,1,0,.7Zm0-9.059a.345.345,0,0,1-.354-.329.352.352,0,0,1,.7,0A.344.344,0,0,1,311.045,127.355Zm0-9.126a.25.25,0,1,1,0-.5.267.267,0,0,1,.271.25A.264.264,0,0,1,311.045,118.229Zm0-9.117a.18.18,0,0,1-.19-.174.182.182,0,0,1,.19-.174.185.185,0,0,1,.183.174A.182.182,0,0,1,311.045,109.112Zm-.057-9.212c0-.032.019-.05.057-.05a.053.053,0,0,1,.051.05.052.052,0,0,1-.051.047C311.007,99.947,310.988,99.929,310.988,99.9Zm-9.654,55.037a.78.78,0,1,1,.835-.79A.812.812,0,0,1,301.335,154.936Zm0-9.048a.78.78,0,1,1,.835-.775A.805.805,0,0,1,301.335,145.888Zm0-9.044a.778.778,0,1,1,.835-.781A.806.806,0,0,1,301.335,136.845Zm0-9.067a.754.754,0,1,1,.81-.751A.785.785,0,0,1,301.335,127.778Zm0-9.142a.654.654,0,1,1,.7-.654A.674.674,0,0,1,301.335,118.636Zm0-9.123a.574.574,0,1,1,.62-.575A.6.6,0,0,1,301.335,109.513Zm0-9.139a.5.5,0,0,1-.513-.474.513.513,0,0,1,1.025,0A.491.491,0,0,1,301.335,100.374Zm0-9.221a.3.3,0,1,1,.329-.3A.317.317,0,0,1,301.335,91.153Zm-.158-9.339a.162.162,0,1,1,.158.148A.162.162,0,0,1,301.176,81.814Zm-9.546,73.5a1.158,1.158,0,1,1,1.24-1.167A1.211,1.211,0,0,1,291.63,155.313Zm0-9.053a1.157,1.157,0,1,1,1.24-1.147A1.2,1.2,0,0,1,291.63,146.26Zm0-9.035a1.2,1.2,0,0,1-1.239-1.161,1.244,1.244,0,0,1,2.48,0A1.2,1.2,0,0,1,291.63,137.225Zm0-9.094a1.109,1.109,0,1,1,1.183-1.1A1.144,1.144,0,0,1,291.63,128.131Zm0-9.1a1.053,1.053,0,1,1,1.133-1.052A1.091,1.091,0,0,1,291.63,119.034Zm0-9.141a.955.955,0,1,1,1.019-.955A.991.991,0,0,1,291.63,109.893Zm0-9.142a.855.855,0,1,1,.918-.852A.887.887,0,0,1,291.63,100.751Zm0-9.221a.679.679,0,1,1,.721-.678A.7.7,0,0,1,291.63,91.531Zm0-9.191a.529.529,0,1,1,.57-.525A.552.552,0,0,1,291.63,82.339Zm0-9.242a.328.328,0,1,1,0-.654.328.328,0,1,1,0,.654Zm-.133-9.371a.129.129,0,0,1,.133-.127.134.134,0,0,1,.134.127.132.132,0,0,1-.134.124A.128.128,0,0,1,291.5,63.727Zm-9.571,82.938a1.558,1.558,0,1,1,1.663-1.55A1.612,1.612,0,0,1,281.927,146.664Zm0-9.092a1.508,1.508,0,1,1,1.613-1.509A1.568,1.568,0,0,1,281.927,137.573Zm0-9.067a1.483,1.483,0,1,1,1.588-1.479A1.537,1.537,0,0,1,281.927,128.505Zm0-9.092a1.435,1.435,0,1,1,1.531-1.432A1.489,1.489,0,0,1,281.927,119.414Zm0-9.144a1.332,1.332,0,1,1,1.43-1.332A1.382,1.382,0,0,1,281.927,110.27Zm0-9.168a1.207,1.207,0,1,1,1.29-1.2A1.25,1.25,0,0,1,281.927,101.1Zm0-9.194a1.055,1.055,0,1,1,1.133-1.055A1.1,1.1,0,0,1,281.927,91.908Zm0-9.218a.88.88,0,1,1,.936-.876A.909.909,0,0,1,281.927,82.69Zm0-9.245a.678.678,0,1,1,.727-.678A.7.7,0,0,1,281.927,73.445Zm0-9.241a.478.478,0,1,1,.506-.477A.492.492,0,0,1,281.927,64.2Zm0-9.3a.24.24,0,0,1-.247-.227.244.244,0,0,1,.486,0A.238.238,0,0,1,281.927,54.906Zm-9.7,92.087a1.887,1.887,0,1,1,2.012-1.88A1.956,1.956,0,0,1,272.223,146.993Zm0-9.07a1.861,1.861,0,1,1,1.986-1.859A1.928,1.928,0,0,1,272.223,137.923Zm0-9.088a1.811,1.811,0,1,1,1.936-1.809A1.884,1.884,0,0,1,272.223,128.835Zm0-9.1a1.76,1.76,0,1,1,1.879-1.756A1.822,1.822,0,0,1,272.223,119.738Zm0-9.147a1.656,1.656,0,1,1,1.771-1.653A1.715,1.715,0,0,1,272.223,110.591Zm0-9.141a1.557,1.557,0,1,1,1.663-1.551A1.616,1.616,0,0,1,272.223,101.45Zm0-9.189a1.41,1.41,0,1,1,1.506-1.409A1.466,1.466,0,0,1,272.223,92.261Zm0-9.221a1.232,1.232,0,1,1,1.316-1.226A1.274,1.274,0,0,1,272.223,83.041Zm0-9.245a1.03,1.03,0,1,1,1.1-1.028A1.067,1.067,0,0,1,272.223,73.8Zm0-9.268a.8.8,0,1,1,.854-.8A.832.832,0,0,1,272.223,64.528Zm0-9.295a.552.552,0,1,1,.588-.554A.57.57,0,0,1,272.223,55.233Zm0-9.318a.276.276,0,1,1,.291-.274A.285.285,0,0,1,272.223,45.915Zm-9.71,101.405a2.214,2.214,0,1,1,2.365-2.207A2.29,2.29,0,0,1,262.513,147.321Zm0-9.07a2.187,2.187,0,1,1,2.34-2.186A2.271,2.271,0,0,1,262.513,138.25Zm0-9.094a2.138,2.138,0,1,1,2.29-2.13A2.211,2.211,0,0,1,262.513,129.157Zm0-9.092a2.085,2.085,0,1,1,2.233-2.083A2.163,2.163,0,0,1,262.513,120.065Zm0-9.147a1.984,1.984,0,1,1,2.125-1.98A2.053,2.053,0,0,1,262.513,110.918Zm0-9.162A1.86,1.86,0,1,1,264.5,99.9,1.934,1.934,0,0,1,262.513,101.756Zm0-9.2a1.709,1.709,0,1,1,1.835-1.706A1.768,1.768,0,0,1,262.513,92.559Zm0-9.191a1.56,1.56,0,1,1,1.67-1.554A1.62,1.62,0,0,1,262.513,83.368Zm0-9.271a1.334,1.334,0,1,1,1.43-1.329A1.375,1.375,0,0,1,262.513,74.1Zm0-9.265a1.108,1.108,0,1,1,1.182-1.1A1.143,1.143,0,0,1,262.513,64.832Zm0-9.292a.855.855,0,1,1,.917-.861A.887.887,0,0,1,262.513,55.54Zm0-9.324a.578.578,0,1,1,.62-.575A.6.6,0,0,1,262.513,46.216Zm0-9.342a.276.276,0,1,1,.3-.277A.287.287,0,0,1,262.513,36.874ZM252.8,147.616a2.514,2.514,0,1,1,2.695-2.5A2.6,2.6,0,0,1,252.8,147.616Zm0-9.071a2.489,2.489,0,1,1,2.669-2.481A2.575,2.575,0,0,1,252.8,138.545Zm0-9.067a2.461,2.461,0,1,1,2.638-2.452A2.55,2.55,0,0,1,252.8,129.478Zm0-9.112a2.39,2.39,0,1,1,2.562-2.384A2.47,2.47,0,0,1,252.8,120.366Zm0-9.147a2.284,2.284,0,1,1,2.454-2.281A2.371,2.371,0,0,1,252.8,111.219Zm0-9.191a2.138,2.138,0,1,1,2.3-2.128A2.206,2.206,0,0,1,252.8,102.028Zm0-9.192a1.988,1.988,0,1,1,2.132-1.983A2.052,2.052,0,0,1,252.8,92.836Zm0-9.218a1.81,1.81,0,1,1,1.935-1.8A1.877,1.877,0,0,1,252.8,83.618Zm0-9.245a1.609,1.609,0,1,1,1.732-1.606A1.664,1.664,0,0,1,252.8,74.373Zm0-9.271a1.382,1.382,0,1,1,1.487-1.376A1.433,1.433,0,0,1,252.8,65.1Zm0-9.292a1.132,1.132,0,1,1,1.215-1.131A1.171,1.171,0,0,1,252.8,55.811Zm0-9.315a.855.855,0,1,1,.917-.855A.883.883,0,0,1,252.8,46.5Zm0-9.345a.553.553,0,1,1,.595-.554A.574.574,0,0,1,252.8,37.152Zm0-9.371a.225.225,0,1,1,.246-.224A.233.233,0,0,1,252.8,27.78Zm-9.7,129.153a2.786,2.786,0,1,1,2.985-2.788A2.889,2.889,0,0,1,243.105,156.934Zm0-9.038a2.792,2.792,0,1,1,2.985-2.782A2.892,2.892,0,0,1,243.105,147.9Zm0-9.044a2.79,2.79,0,1,1,2.985-2.788A2.895,2.895,0,0,1,243.105,138.851Zm0-9.1a2.738,2.738,0,1,1,2.928-2.728A2.832,2.832,0,0,1,243.105,129.754Zm0-9.112a2.667,2.667,0,1,1,2.846-2.661A2.767,2.767,0,0,1,243.105,120.643Zm0-9.147a2.562,2.562,0,1,1,2.744-2.558A2.654,2.654,0,0,1,243.105,111.5Zm0-9.162a2.441,2.441,0,1,1,2.606-2.434A2.531,2.531,0,0,1,243.105,102.334Zm0-9.191a2.288,2.288,0,1,1,2.441-2.29A2.368,2.368,0,0,1,243.105,93.142Zm0-9.247a2.087,2.087,0,1,1,2.233-2.081A2.167,2.167,0,0,1,243.105,83.9Zm0-9.245a1.886,1.886,0,1,1,2.017-1.883A1.95,1.95,0,0,1,243.105,74.65Zm0-9.294a1.633,1.633,0,1,1,1.745-1.63A1.7,1.7,0,0,1,243.105,65.356Zm0-9.268a1.408,1.408,0,1,1,1.512-1.409A1.461,1.461,0,0,1,243.105,56.088Zm0-9.344a1.1,1.1,0,1,1,1.183-1.1A1.153,1.153,0,0,1,243.105,46.744Zm0-9.345a.805.805,0,1,1,.86-.8A.833.833,0,0,1,243.105,37.4Zm0-9.368a.476.476,0,1,1,0-.949.475.475,0,1,1,0,.949Zm-.165-9.519a.161.161,0,0,1,.165-.153.156.156,0,0,1,.158.153.152.152,0,0,1-.158.153A.158.158,0,0,1,242.941,18.512Zm-9.546,129.661a3.067,3.067,0,1,1,3.289-3.059A3.185,3.185,0,0,1,233.395,148.173Zm0-9.074a3.04,3.04,0,1,1,3.258-3.035A3.148,3.148,0,0,1,233.395,139.1Zm0-9.088a2.991,2.991,0,1,1,3.2-2.985A3.1,3.1,0,0,1,233.395,130.011Zm0-9.121a2.916,2.916,0,1,1,3.125-2.909A3.017,3.017,0,0,1,233.395,120.891Zm0-9.138a2.818,2.818,0,1,1,3.017-2.814A2.918,2.918,0,0,1,233.395,111.752Zm0-9.173a2.692,2.692,0,1,1,2.885-2.679A2.784,2.784,0,0,1,233.395,102.579Zm0-9.215a2.513,2.513,0,1,1,2.695-2.511A2.6,2.6,0,0,1,233.395,93.363Zm0-9.224a2.336,2.336,0,1,1,2.5-2.325A2.415,2.415,0,0,1,233.395,84.14Zm0-9.242a2.137,2.137,0,1,1,2.29-2.13A2.206,2.206,0,0,1,233.395,74.9Zm0-9.291a1.886,1.886,0,1,1,2.018-1.88A1.955,1.955,0,0,1,233.395,65.607Zm0-9.318a1.607,1.607,0,1,1,1.721-1.61A1.668,1.668,0,0,1,233.395,56.289Zm0-9.316a1.334,1.334,0,1,1,1.429-1.332A1.38,1.38,0,0,1,233.395,46.973Zm0-9.345A1.032,1.032,0,1,1,234.5,36.6,1.07,1.07,0,0,1,233.395,37.629Zm0-9.374a.7.7,0,1,1,0-1.4.7.7,0,1,1,0,1.4Zm0-9.392a.352.352,0,1,1,.379-.351A.365.365,0,0,1,233.395,18.863Zm-9.7,138.571a3.291,3.291,0,1,1,3.524-3.289A3.41,3.41,0,0,1,223.69,157.434Zm0-9.035a3.294,3.294,0,1,1,3.524-3.286A3.408,3.408,0,0,1,223.69,148.4Zm0-9.047a3.292,3.292,0,1,1,3.524-3.289A3.408,3.408,0,0,1,223.69,139.353Zm0-9.1a3.24,3.24,0,1,1,3.473-3.229A3.355,3.355,0,0,1,223.69,130.256Zm0-9.138a3.142,3.142,0,1,1,3.365-3.136A3.257,3.257,0,0,1,223.69,121.118Zm0-9.139a3.045,3.045,0,1,1,3.252-3.041A3.156,3.156,0,0,1,223.69,111.979Zm0-9.173a2.919,2.919,0,1,1,3.125-2.906A3.021,3.021,0,0,1,223.69,102.805Zm0-9.215a2.741,2.741,0,1,1,2.935-2.737A2.835,2.835,0,0,1,223.69,93.59Zm0-9.224a2.563,2.563,0,1,1,2.745-2.552A2.647,2.647,0,0,1,223.69,84.366Zm0-9.265a2.338,2.338,0,1,1,2.5-2.334A2.424,2.424,0,0,1,223.69,75.1Zm0-9.271a2.109,2.109,0,1,1,2.259-2.1A2.192,2.192,0,0,1,223.69,65.831Zm0-9.315a1.837,1.837,0,1,1,1.962-1.836A1.9,1.9,0,0,1,223.69,56.515Zm0-9.321a1.557,1.557,0,1,1,1.67-1.553A1.612,1.612,0,0,1,223.69,47.194Zm0-9.365a1.232,1.232,0,1,1,1.316-1.232A1.279,1.279,0,0,1,223.69,37.829Zm0-9.374a.9.9,0,1,1,.968-.9A.94.94,0,0,1,223.69,28.455Zm0-9.389a.552.552,0,1,1,.588-.554A.573.573,0,0,1,223.69,19.067Zm-.19-9.6a.191.191,0,1,1,.19.174A.179.179,0,0,1,223.5,9.468ZM213.987,148.6a3.495,3.495,0,1,1,3.738-3.484A3.623,3.623,0,0,1,213.987,148.6Zm0-9.048a3.493,3.493,0,1,1,3.738-3.486A3.619,3.619,0,0,1,213.987,139.55Zm0-9.088a3.443,3.443,0,1,1,3.688-3.436A3.572,3.572,0,0,1,213.987,130.462Zm0-9.1a3.393,3.393,0,1,1,3.631-3.383A3.514,3.514,0,0,1,213.987,121.365Zm0-9.162a3.27,3.27,0,1,1,3.5-3.265A3.389,3.389,0,0,1,213.987,112.2Zm0-9.191a3.118,3.118,0,1,1,3.34-3.112A3.236,3.236,0,0,1,213.987,103.012Zm0-9.227a2.939,2.939,0,1,1,3.149-2.932A3.044,3.044,0,0,1,213.987,93.785Zm0-9.241a2.742,2.742,0,1,1,2.935-2.729A2.84,2.84,0,0,1,213.987,84.544Zm0-9.242a2.537,2.537,0,1,1,2.713-2.534A2.628,2.628,0,0,1,213.987,75.3Zm0-9.294a2.288,2.288,0,1,1,2.448-2.281A2.372,2.372,0,0,1,213.987,66.007Zm0-9.318a2.012,2.012,0,1,1,2.151-2.01A2.083,2.083,0,0,1,213.987,56.69Zm0-9.321a1.733,1.733,0,1,1,1.853-1.727A1.8,1.8,0,0,1,213.987,47.368Zm0-9.365a1.408,1.408,0,1,1,1.505-1.406A1.46,1.46,0,0,1,213.987,38Zm0-9.368a1.081,1.081,0,1,1,1.151-1.079A1.116,1.116,0,0,1,213.987,28.635Zm0-9.421a.7.7,0,1,1,.752-.7A.726.726,0,0,1,213.987,19.214Zm0-9.418a.326.326,0,1,1,.348-.327A.34.34,0,0,1,213.987,9.8Zm-9.711,139.025a3.721,3.721,0,1,1,3.986-3.707A3.853,3.853,0,0,1,204.276,148.821Zm0-9.068a3.695,3.695,0,1,1,3.961-3.689A3.824,3.824,0,0,1,204.276,139.753Zm0-9.115a3.622,3.622,0,1,1,3.885-3.613A3.749,3.749,0,0,1,204.276,130.639Zm0-9.1a3.569,3.569,0,1,1,3.821-3.56A3.695,3.695,0,0,1,204.276,121.542Zm0-9.165a3.446,3.446,0,1,1,3.688-3.439A3.573,3.573,0,0,1,204.276,112.377Zm0-9.191A3.3,3.3,0,1,1,207.8,99.9,3.413,3.413,0,0,1,204.276,103.186Zm0-9.221a3.12,3.12,0,1,1,3.34-3.112A3.23,3.23,0,0,1,204.276,93.965Zm0-9.247a2.916,2.916,0,1,1,3.125-2.9A3.021,3.021,0,0,1,204.276,84.717Zm0-9.265a2.69,2.69,0,1,1,2.878-2.684A2.788,2.788,0,0,1,204.276,75.452Zm0-9.294a2.44,2.44,0,1,1,2.607-2.431A2.525,2.525,0,0,1,204.276,66.158Zm0-9.315a2.164,2.164,0,1,1,2.316-2.163A2.242,2.242,0,0,1,204.276,56.842Zm0-9.321a1.885,1.885,0,1,1,2.024-1.88A1.953,1.953,0,0,1,204.276,47.522Zm0-9.342a1.583,1.583,0,1,1,1.7-1.582A1.647,1.647,0,0,1,204.276,38.18Zm0-9.392a1.235,1.235,0,1,1,1.322-1.232A1.275,1.275,0,0,1,204.276,28.788Zm0-9.395a.88.88,0,1,1,.943-.881A.912.912,0,0,1,204.276,19.394Zm0-9.418a.5.5,0,1,1,.544-.507A.53.53,0,0,1,204.276,9.975ZM204.2.427a.078.078,0,0,1,.076-.08.089.089,0,0,1,.088.08.086.086,0,0,1-.088.076A.075.075,0,0,1,204.2.427Zm-9.628,148.538a3.87,3.87,0,1,1,4.143-3.852A4,4,0,0,1,194.572,148.965Zm0-9.064a3.845,3.845,0,1,1,4.112-3.837A3.979,3.979,0,0,1,194.572,139.9Zm0-9.092a3.794,3.794,0,1,1,4.068-3.783A3.936,3.936,0,0,1,194.572,130.809Zm0-9.117a3.72,3.72,0,1,1,3.985-3.71A3.85,3.85,0,0,1,194.572,121.692Zm0-9.168a3.594,3.594,0,1,1,3.847-3.586A3.724,3.724,0,0,1,194.572,112.524Zm0-9.191a3.444,3.444,0,1,1,3.694-3.434A3.57,3.57,0,0,1,194.572,103.333Zm0-9.218a3.269,3.269,0,1,1,3.5-3.262A3.381,3.381,0,0,1,194.572,94.115Zm0-9.244a3.067,3.067,0,1,1,3.283-3.056A3.178,3.178,0,0,1,194.572,84.87Zm0-9.271a2.839,2.839,0,1,1,3.043-2.832A2.941,2.941,0,0,1,194.572,75.6Zm0-9.289a2.59,2.59,0,1,1,2.777-2.584A2.678,2.678,0,0,1,194.572,66.311Zm0-9.344a2.288,2.288,0,1,1,2.448-2.287A2.369,2.369,0,0,1,194.572,56.967Zm0-9.342a1.988,1.988,0,1,1,2.125-1.983A2.062,2.062,0,0,1,194.572,47.625Zm0-9.345a1.685,1.685,0,1,1,1.8-1.683A1.746,1.746,0,0,1,194.572,38.28Zm0-9.368a1.359,1.359,0,1,1,1.455-1.356A1.412,1.412,0,0,1,194.572,28.912Zm0-9.421a.981.981,0,1,1,1.05-.979A1.014,1.014,0,0,1,194.572,19.491Zm0-9.392a.631.631,0,1,1,0-1.258.63.63,0,1,1,0,1.258Zm0-9.471a.21.21,0,0,1-.215-.2.215.215,0,0,1,.215-.2.207.207,0,0,1,.215.2A.2.2,0,0,1,194.572.628Zm-9.7,148.47a4,4,0,1,1,4.282-3.984A4.142,4.142,0,0,1,184.869,149.1Zm0-9.065a3.973,3.973,0,1,1,4.251-3.969A4.122,4.122,0,0,1,184.869,140.033Zm0-9.1a3.92,3.92,0,1,1,4.194-3.907A4.062,4.062,0,0,1,184.869,130.933Zm0-9.117a3.845,3.845,0,1,1,4.118-3.834A3.981,3.981,0,0,1,184.869,121.816Zm0-9.159a3.725,3.725,0,1,1,3.985-3.719A3.853,3.853,0,0,1,184.869,112.657Zm0-9.194a3.57,3.57,0,1,1,3.821-3.563A3.7,3.7,0,0,1,184.869,103.463Zm0-9.227a3.391,3.391,0,1,1,3.631-3.383A3.517,3.517,0,0,1,184.869,94.235Zm0-9.261a3.17,3.17,0,1,1,3.39-3.16A3.29,3.29,0,0,1,184.869,84.974Zm0-9.272a2.942,2.942,0,1,1,3.144-2.935A3.04,3.04,0,0,1,184.869,75.7Zm0-9.294a2.69,2.69,0,1,1,2.878-2.682A2.787,2.787,0,0,1,184.869,66.408Zm0-9.318a2.413,2.413,0,1,1,2.58-2.411A2.5,2.5,0,0,1,184.869,57.09Zm0-9.345a2.111,2.111,0,1,1,2.258-2.1A2.187,2.187,0,0,1,184.869,47.746Zm0-9.365a1.786,1.786,0,1,1,1.911-1.783A1.855,1.855,0,0,1,184.869,38.38Zm0-9.371a1.458,1.458,0,1,1,1.562-1.453A1.511,1.511,0,0,1,184.869,29.009Zm0-9.418a1.081,1.081,0,1,1,1.158-1.079A1.119,1.119,0,0,1,184.869,19.591Zm0-9.445a.678.678,0,1,1,.728-.678A.7.7,0,0,1,184.869,10.146Zm0-9.418a.312.312,0,0,1-.323-.3.324.324,0,0,1,.646,0A.312.312,0,0,1,184.869.728Zm-9.7,148.464a4.1,4.1,0,1,1,4.384-4.078A4.236,4.236,0,0,1,175.165,149.192Zm0-9.038a4.095,4.095,0,1,1,4.384-4.09A4.243,4.243,0,0,1,175.165,140.154Zm0-9.115a4.021,4.021,0,1,1,4.308-4.013A4.17,4.17,0,0,1,175.165,131.039Zm0-9.141a3.926,3.926,0,1,1,4.194-3.916A4.072,4.072,0,0,1,175.165,121.9Zm0-9.171a3.8,3.8,0,1,1,4.067-3.79A3.931,3.931,0,0,1,175.165,112.727Zm0-9.191a3.647,3.647,0,1,1,3.9-3.637A3.778,3.778,0,0,1,175.165,103.536Zm0-9.242a3.445,3.445,0,1,1,3.682-3.442A3.571,3.571,0,0,1,175.165,94.294Zm0-9.221a3.27,3.27,0,1,1,3.492-3.26A3.39,3.39,0,0,1,175.165,85.074Zm0-9.295a3.017,3.017,0,1,1,3.227-3.011A3.13,3.13,0,0,1,175.165,75.779Zm0-9.3a2.763,2.763,0,1,1,2.954-2.755A2.858,2.858,0,0,1,175.165,66.482Zm0-9.315a2.49,2.49,0,1,1,2.663-2.488A2.576,2.576,0,0,1,175.165,57.167Zm0-9.368a2.162,2.162,0,1,1,2.309-2.157A2.237,2.237,0,0,1,175.165,47.8Zm0-9.345a1.859,1.859,0,1,1,1.986-1.857A1.924,1.924,0,0,1,175.165,38.454Zm0-9.395a1.507,1.507,0,1,1,1.613-1.5A1.561,1.561,0,0,1,175.165,29.059Zm0-9.395a1.155,1.155,0,1,1,1.233-1.152A1.2,1.2,0,0,1,175.165,19.665Zm0-9.418a.778.778,0,1,1,.828-.778A.809.809,0,0,1,175.165,10.246Zm0-9.468a.362.362,0,0,1-.38-.351.377.377,0,0,1,.753,0A.364.364,0,0,1,175.165.778Zm-9.7,148.5a4.174,4.174,0,1,1,4.458-4.161A4.327,4.327,0,0,1,165.461,149.275Zm0-9.044a4.173,4.173,0,1,1,4.458-4.166A4.325,4.325,0,0,1,165.461,140.23Zm0-9.12a4.1,4.1,0,1,1,4.39-4.084A4.24,4.24,0,0,1,165.461,131.11Zm0-9.168a3.973,3.973,0,1,1,4.244-3.961A4.114,4.114,0,0,1,165.461,121.942Zm0-9.141a3.87,3.87,0,1,1,4.143-3.863A4.014,4.014,0,0,1,165.461,112.8Zm0-9.194A3.719,3.719,0,1,1,169.44,99.9,3.859,3.859,0,0,1,165.461,103.607Zm0-9.268a3.493,3.493,0,1,1,3.738-3.486A3.619,3.619,0,0,1,165.461,94.339Zm0-9.241a3.293,3.293,0,1,1,3.517-3.283A3.415,3.415,0,0,1,165.461,85.1Zm0-9.271a3.066,3.066,0,1,1,3.276-3.059A3.178,3.178,0,0,1,165.461,75.827Zm0-9.315a2.79,2.79,0,1,1,2.986-2.785A2.891,2.891,0,0,1,165.461,66.511Zm0-9.294a2.539,2.539,0,1,1,2.713-2.538A2.63,2.63,0,0,1,165.461,57.217Zm0-9.345a2.237,2.237,0,1,1,2.4-2.231A2.315,2.315,0,0,1,165.461,47.872Zm0-9.365A1.911,1.911,0,1,1,167.5,36.6,1.983,1.983,0,0,1,165.461,38.507Zm0-9.374a1.582,1.582,0,1,1,1.689-1.577A1.637,1.637,0,0,1,165.461,29.133Zm0-9.415a1.207,1.207,0,1,1,1.289-1.205A1.256,1.256,0,0,1,165.461,19.718Zm0-9.418a.83.83,0,1,1,.885-.831A.858.858,0,0,1,165.461,10.3Zm0-9.448A.445.445,0,0,1,165,.427.447.447,0,0,1,165.461,0a.441.441,0,0,1,.456.427A.439.439,0,0,1,165.461.852ZM155.75,149.325a4.225,4.225,0,1,1,4.523-4.211A4.373,4.373,0,0,1,155.75,149.325Zm0-9.068a4.2,4.2,0,1,1,4.492-4.193A4.35,4.35,0,0,1,155.75,140.257Zm0-9.117a4.126,4.126,0,1,1,4.416-4.114A4.271,4.271,0,0,1,155.75,131.14Zm0-9.147a4.024,4.024,0,1,1,4.309-4.011A4.159,4.159,0,0,1,155.75,121.993Zm0-9.165a3.9,3.9,0,1,1,4.175-3.89A4.038,4.038,0,0,1,155.75,112.828Zm0-9.221a3.72,3.72,0,1,1,3.986-3.708A3.857,3.857,0,0,1,155.75,103.607Zm0-9.215a3.546,3.546,0,1,1,3.8-3.539A3.678,3.678,0,0,1,155.75,94.392Zm0-9.268a3.321,3.321,0,1,1,3.556-3.31A3.437,3.437,0,0,1,155.75,85.124Zm0-9.271a3.092,3.092,0,1,1,3.309-3.086A3.2,3.2,0,0,1,155.75,75.853Zm0-9.315a2.817,2.817,0,1,1,3.018-2.811A2.918,2.918,0,0,1,155.75,66.538Zm0-9.321a2.539,2.539,0,1,1,2.721-2.538A2.629,2.629,0,0,1,155.75,57.217Zm0-9.345a2.237,2.237,0,1,1,2.4-2.231A2.312,2.312,0,0,1,155.75,47.872Zm0-9.365a1.911,1.911,0,1,1,2.044-1.91A1.987,1.987,0,0,1,155.75,38.507Zm0-9.374a1.582,1.582,0,1,1,1.7-1.577A1.636,1.636,0,0,1,155.75,29.133Zm0-9.415a1.207,1.207,0,1,1,1.291-1.205A1.249,1.249,0,0,1,155.75,19.718Zm0-9.418a.83.83,0,1,1,.886-.831A.856.856,0,0,1,155.75,10.3Zm0-9.448a.439.439,0,0,1-.455-.424.456.456,0,0,1,.911,0A.439.439,0,0,1,155.75.852ZM146.04,149.3a4.2,4.2,0,1,1,4.5-4.185A4.345,4.345,0,0,1,146.04,149.3Zm0-9.068a4.174,4.174,0,1,1,4.472-4.166A4.327,4.327,0,0,1,146.04,140.23Zm0-9.12a4.1,4.1,0,1,1,4.389-4.084A4.242,4.242,0,0,1,146.04,131.11Zm0-9.168a3.974,3.974,0,1,1,4.257-3.961A4.107,4.107,0,0,1,146.04,121.942Zm0-9.141a3.87,3.87,0,1,1,4.149-3.863A4.007,4.007,0,0,1,146.04,112.8Zm0-9.194a3.72,3.72,0,1,1,3.985-3.708A3.851,3.851,0,0,1,146.04,103.607Zm0-9.268a3.494,3.494,0,1,1,3.751-3.486A3.621,3.621,0,0,1,146.04,94.339Zm0-9.215a3.321,3.321,0,1,1,3.554-3.31A3.441,3.441,0,0,1,146.04,85.124Zm0-9.271a3.092,3.092,0,1,1,3.321-3.086A3.2,3.2,0,0,1,146.04,75.853Zm0-9.315a2.818,2.818,0,1,1,3.024-2.811A2.918,2.918,0,0,1,146.04,66.538Zm0-9.321a2.54,2.54,0,1,1,2.726-2.538A2.627,2.627,0,0,1,146.04,57.217Zm0-9.345a2.237,2.237,0,1,1,2.4-2.231A2.317,2.317,0,0,1,146.04,47.872Zm0-9.365A1.912,1.912,0,1,1,148.1,36.6,1.976,1.976,0,0,1,146.04,38.507Zm0-9.374a1.583,1.583,0,1,1,1.7-1.577A1.636,1.636,0,0,1,146.04,29.133Zm0-9.415a1.208,1.208,0,1,1,1.3-1.205A1.252,1.252,0,0,1,146.04,19.718Zm0-9.418a.83.83,0,1,1,.892-.831A.855.855,0,0,1,146.04,10.3Zm0-9.448a.439.439,0,0,1-.456-.424A.441.441,0,0,1,146.04,0a.447.447,0,0,1,.462.427A.445.445,0,0,1,146.04.852Zm-9.7,148.373a4.123,4.123,0,1,1,4.415-4.111A4.271,4.271,0,0,1,136.337,149.225Zm0-9.071a4.1,4.1,0,1,1,4.39-4.09A4.247,4.247,0,0,1,136.337,140.154Zm0-9.094a4.046,4.046,0,1,1,4.333-4.034A4.187,4.187,0,0,1,136.337,131.06Zm0-9.144a3.944,3.944,0,1,1,4.232-3.934A4.089,4.089,0,0,1,136.337,121.916Zm0-9.165a3.82,3.82,0,1,1,4.1-3.813A3.955,3.955,0,0,1,136.337,112.751Zm0-9.214a3.647,3.647,0,1,1,3.9-3.637A3.783,3.783,0,0,1,136.337,103.536Zm0-9.222a3.468,3.468,0,1,1,3.713-3.462A3.6,3.6,0,0,1,136.337,94.315Zm0-9.241a3.271,3.271,0,1,1,3.5-3.26A3.383,3.383,0,0,1,136.337,85.074Zm0-9.295a3.018,3.018,0,1,1,3.232-3.011A3.126,3.126,0,0,1,136.337,75.779Zm0-9.3a2.764,2.764,0,1,1,2.96-2.755A2.858,2.858,0,0,1,136.337,66.482Zm0-9.315A2.49,2.49,0,1,1,139,54.679,2.581,2.581,0,0,1,136.337,57.167Zm0-9.345a2.187,2.187,0,1,1,2.347-2.181A2.266,2.266,0,0,1,136.337,47.822Zm0-9.368a1.86,1.86,0,1,1,1.993-1.857A1.926,1.926,0,0,1,136.337,38.454Zm0-9.395a1.507,1.507,0,1,1,1.619-1.5A1.564,1.564,0,0,1,136.337,29.059Zm0-9.395a1.155,1.155,0,1,1,1.24-1.152A1.2,1.2,0,0,1,136.337,19.665Zm0-9.418a.778.778,0,1,1,.835-.778A.806.806,0,0,1,136.337,10.246Zm0-9.468a.37.37,0,0,1-.379-.351.37.37,0,0,1,.379-.351.362.362,0,0,1,.38.351A.362.362,0,0,1,136.337.778Zm-9.7,148.35a4.027,4.027,0,1,1,4.308-4.014A4.174,4.174,0,0,1,126.632,149.128Zm0-9.094a3.973,3.973,0,1,1,4.252-3.969A4.119,4.119,0,0,1,126.632,140.033Zm0-9.07a3.947,3.947,0,1,1,4.226-3.937A4.1,4.1,0,0,1,126.632,130.963Zm0-9.147a3.845,3.845,0,1,1,4.119-3.834A3.985,3.985,0,0,1,126.632,121.816Zm0-9.159a3.725,3.725,0,1,1,3.986-3.719A3.863,3.863,0,0,1,126.632,112.657Zm0-9.194a3.57,3.57,0,1,1,3.821-3.563A3.7,3.7,0,0,1,126.632,103.463Zm0-9.227a3.392,3.392,0,1,1,3.637-3.383A3.511,3.511,0,0,1,126.632,94.235Zm0-9.261a3.17,3.17,0,1,1,3.391-3.16A3.278,3.278,0,0,1,126.632,84.974Zm0-9.272a2.942,2.942,0,1,1,3.15-2.935A3.04,3.04,0,0,1,126.632,75.7Zm0-9.294a2.69,2.69,0,1,1,2.885-2.682A2.788,2.788,0,0,1,126.632,66.408Zm0-9.318a2.414,2.414,0,1,1,2.587-2.411A2.5,2.5,0,0,1,126.632,57.09Zm0-9.345a2.111,2.111,0,1,1,2.265-2.1A2.192,2.192,0,0,1,126.632,47.746Zm0-9.342a1.81,1.81,0,1,1,1.942-1.806A1.875,1.875,0,0,1,126.632,38.4Zm0-9.395a1.458,1.458,0,1,1,1.562-1.453A1.511,1.511,0,0,1,126.632,29.009Zm0-9.395a1.1,1.1,0,1,1,1.183-1.1A1.148,1.148,0,0,1,126.632,19.614Zm0-9.442a.7.7,0,1,1,.753-.7A.725.725,0,0,1,126.632,10.173Zm0-9.445a.311.311,0,0,1-.322-.3.316.316,0,0,1,.322-.3.312.312,0,0,1,.323.3A.308.308,0,0,1,126.632.728ZM116.935,149a3.9,3.9,0,1,1,4.169-3.89A4.04,4.04,0,0,1,116.935,149Zm0-9.074a3.87,3.87,0,1,1,4.137-3.866A4.006,4.006,0,0,1,116.935,139.93Zm0-9.091a3.823,3.823,0,1,1,4.087-3.813A3.957,3.957,0,0,1,116.935,130.839Zm0-9.147a3.719,3.719,0,1,1,3.973-3.71A3.851,3.851,0,0,1,116.935,121.692Zm0-9.168a3.593,3.593,0,1,1,3.84-3.586A3.724,3.724,0,0,1,116.935,112.524Zm0-9.191a3.443,3.443,0,1,1,3.682-3.434A3.572,3.572,0,0,1,116.935,103.333Zm0-9.192a3.293,3.293,0,1,1,3.517-3.289A3.415,3.415,0,0,1,116.935,94.141Zm0-9.244a3.091,3.091,0,1,1,3.3-3.083A3.2,3.2,0,0,1,116.935,84.9Zm0-9.268A2.865,2.865,0,1,1,120,72.768,2.97,2.97,0,0,1,116.935,75.629Zm0-9.318a2.589,2.589,0,1,1,2.765-2.584A2.69,2.69,0,0,1,116.935,66.311Zm0-9.321a2.313,2.313,0,1,1,2.467-2.311A2.4,2.4,0,0,1,116.935,56.99Zm0-9.342a2.012,2.012,0,1,1,2.151-2.007A2.084,2.084,0,0,1,116.935,47.648Zm0-9.345a1.71,1.71,0,1,1,1.822-1.706A1.78,1.78,0,0,1,116.935,38.3Zm0-9.392a1.359,1.359,0,1,1,1.455-1.356A1.4,1.4,0,0,1,116.935,28.912Zm0-9.395a1,1,0,1,1,0-2,1,1,0,1,1,0,2Zm0-9.418a.63.63,0,1,1,.664-.631A.652.652,0,0,1,116.935,10.1Zm0-9.448a.236.236,0,0,1-.253-.224A.236.236,0,0,1,116.935.2a.231.231,0,0,1,.234.224A.231.231,0,0,1,116.935.651Zm-9.717,157.219a3.725,3.725,0,1,1,3.986-3.725A3.864,3.864,0,0,1,107.218,157.871Zm0-9.05a3.721,3.721,0,1,1,3.986-3.707A3.853,3.853,0,0,1,107.218,148.821Zm0-9.044a3.717,3.717,0,1,1,3.986-3.713A3.856,3.856,0,0,1,107.218,139.777Zm0-9.117a3.645,3.645,0,1,1,3.91-3.633A3.768,3.768,0,0,1,107.218,130.659Zm0-9.117a3.569,3.569,0,1,1,3.828-3.56A3.7,3.7,0,0,1,107.218,121.542Zm0-9.165a3.447,3.447,0,1,1,3.695-3.439A3.567,3.567,0,0,1,107.218,112.377Zm0-9.167a3.32,3.32,0,1,1,3.562-3.31A3.443,3.443,0,0,1,107.218,103.209Zm0-9.218a3.143,3.143,0,1,1,3.366-3.138A3.264,3.264,0,0,1,107.218,93.991Zm0-9.241a2.944,2.944,0,1,1,3.157-2.936A3.049,3.049,0,0,1,107.218,84.75Zm0-9.274a2.714,2.714,0,1,1,2.91-2.709A2.815,2.815,0,0,1,107.218,75.476Zm0-9.289a2.465,2.465,0,1,1,2.638-2.461A2.555,2.555,0,0,1,107.218,66.187Zm0-9.321a2.189,2.189,0,1,1,2.347-2.187A2.265,2.265,0,0,1,107.218,56.866Zm0-9.345a1.885,1.885,0,1,1,2.024-1.88A1.951,1.951,0,0,1,107.218,47.522Zm0-9.342a1.583,1.583,0,1,1,1.7-1.582A1.647,1.647,0,0,1,107.218,38.18Zm0-9.392a1.235,1.235,0,1,1,1.323-1.232A1.275,1.275,0,0,1,107.218,28.788Zm0-9.395a.88.88,0,1,1,.943-.881A.909.909,0,0,1,107.218,19.394Zm0-9.418a.5.5,0,1,1,.544-.507A.523.523,0,0,1,107.218,9.975ZM107.092.427A.125.125,0,0,1,107.218.3a.129.129,0,0,1,.139.124.128.128,0,0,1-.139.124A.124.124,0,0,1,107.092.427Zm-9.577,148.22a3.545,3.545,0,1,1,3.8-3.534A3.673,3.673,0,0,1,97.514,148.647Zm0-9.1a3.493,3.493,0,1,1,3.745-3.486A3.617,3.617,0,0,1,97.514,139.55Zm0-9.067a3.467,3.467,0,1,1,3.719-3.456A3.585,3.585,0,0,1,97.514,130.482Zm0-9.117a3.393,3.393,0,1,1,3.631-3.383A3.512,3.512,0,0,1,97.514,121.365Zm0-9.142a3.291,3.291,0,1,1,3.53-3.285A3.407,3.407,0,0,1,97.514,112.223Zm0-9.2A3.143,3.143,0,1,1,100.88,99.9,3.258,3.258,0,0,1,97.514,103.026Zm0-9.212a2.965,2.965,0,1,1,3.175-2.961A3.075,3.075,0,0,1,97.514,93.814Zm0-9.241a2.767,2.767,0,1,1,2.967-2.759A2.863,2.863,0,0,1,97.514,84.573Zm0-9.244a2.566,2.566,0,1,1,2.752-2.561A2.658,2.658,0,0,1,97.514,75.328Zm0-9.321a2.288,2.288,0,1,1,2.448-2.281A2.367,2.367,0,0,1,97.514,66.007Zm0-9.289A2.038,2.038,0,1,1,99.7,54.679,2.109,2.109,0,0,1,97.514,56.719Zm0-9.321A1.761,1.761,0,1,1,99.4,45.642,1.828,1.828,0,0,1,97.514,47.4Zm0-9.368A1.434,1.434,0,1,1,99.052,36.6,1.483,1.483,0,0,1,97.514,38.03Zm0-9.371a1.1,1.1,0,1,1,1.183-1.1A1.147,1.147,0,0,1,97.514,28.659Zm0-9.389a.757.757,0,1,1,.816-.757A.793.793,0,0,1,97.514,19.27Zm0-9.448a.353.353,0,1,1,0-.7.353.353,0,1,1,0,.7Zm-9.7,138.6a3.318,3.318,0,1,1,3.555-3.307A3.436,3.436,0,0,1,87.811,148.42Zm0-9.038a3.32,3.32,0,1,1,3.555-3.318A3.442,3.442,0,0,1,87.811,139.382Zm0-9.094a3.268,3.268,0,1,1,3.5-3.262A3.379,3.379,0,0,1,87.811,130.288Zm0-9.147a3.167,3.167,0,1,1,3.39-3.159A3.279,3.279,0,0,1,87.811,121.141Zm0-9.115a3.092,3.092,0,1,1,3.315-3.088A3.211,3.211,0,0,1,87.811,112.026Zm0-9.194a2.94,2.94,0,1,1,3.15-2.933A3.047,3.047,0,0,1,87.811,102.832Zm0-9.215a2.766,2.766,0,1,1,2.96-2.764A2.867,2.867,0,0,1,87.811,93.617Zm0-9.221a2.588,2.588,0,1,1,2.777-2.582A2.677,2.677,0,0,1,87.811,84.4Zm0-9.271a2.362,2.362,0,1,1,2.53-2.357A2.45,2.45,0,0,1,87.811,75.125Zm0-9.271a2.136,2.136,0,1,1,2.29-2.128A2.2,2.2,0,0,1,87.811,65.854Zm0-9.339a1.837,1.837,0,1,1,1.961-1.836A1.907,1.907,0,0,1,87.811,56.515Zm0-9.295a1.582,1.582,0,1,1,1.7-1.579A1.641,1.641,0,0,1,87.811,47.221Zm0-9.371A1.257,1.257,0,1,1,89.158,36.6,1.3,1.3,0,0,1,87.811,37.85Zm0-9.365a.932.932,0,1,1,1-.928A.966.966,0,0,1,87.811,28.485Zm0-9.395a.578.578,0,1,1,.626-.578A.6.6,0,0,1,87.811,19.09Zm0-9.418a.209.209,0,0,1-.215-.2.216.216,0,0,1,.43,0A.209.209,0,0,1,87.811,9.672Zm-9.7,138.522a3.09,3.09,0,1,1,3.309-3.08A3.2,3.2,0,0,1,78.106,148.193Zm0-9.044a3.087,3.087,0,1,1,3.309-3.085A3.2,3.2,0,0,1,78.106,139.149Zm0-9.117a3.015,3.015,0,1,1,3.232-3.005A3.123,3.123,0,0,1,78.106,130.032Zm0-9.117a2.94,2.94,0,1,1,3.15-2.933A3.043,3.043,0,0,1,78.106,120.914Zm0-9.118a2.865,2.865,0,1,1,3.068-2.858A2.966,2.966,0,0,1,78.106,111.8Zm0-9.191a2.715,2.715,0,1,1,2.9-2.706A2.819,2.819,0,0,1,78.106,102.605Zm0-9.192a2.565,2.565,0,1,1,2.739-2.561A2.664,2.664,0,0,1,78.106,93.413Zm0-9.244a2.363,2.363,0,1,1,2.524-2.355A2.455,2.455,0,0,1,78.106,84.169Zm0-9.271a2.137,2.137,0,1,1,2.283-2.13A2.215,2.215,0,0,1,78.106,74.9Zm0-9.265a1.911,1.911,0,1,1,2.043-1.906A1.98,1.98,0,0,1,78.106,65.633Zm0-9.321a1.632,1.632,0,1,1,1.746-1.633A1.7,1.7,0,0,1,78.106,56.312Zm0-9.315a1.359,1.359,0,1,1,1.455-1.356A1.409,1.409,0,0,1,78.106,47Zm0-9.345A1.056,1.056,0,1,1,79.239,36.6,1.1,1.1,0,0,1,78.106,37.652Zm0-9.4a.7.7,0,1,1,0-1.4.7.7,0,1,1,0,1.4Zm0-9.392a.352.352,0,1,1,0-.7.351.351,0,1,1,0,.7ZM68.4,147.919a2.815,2.815,0,1,1,3.011-2.806A2.915,2.915,0,0,1,68.4,147.919Zm0-9.041a2.817,2.817,0,1,1,3.011-2.814A2.92,2.92,0,0,1,68.4,138.878Zm0-9.094a2.767,2.767,0,1,1,2.96-2.758A2.868,2.868,0,0,1,68.4,129.784Zm0-9.118a2.691,2.691,0,1,1,2.878-2.684A2.792,2.792,0,0,1,68.4,120.666Zm0-9.138a2.593,2.593,0,1,1,2.77-2.59A2.687,2.687,0,0,1,68.4,111.528Zm0-9.18A2.461,2.461,0,1,1,71.041,99.9,2.544,2.544,0,0,1,68.4,102.348Zm0-9.206a2.288,2.288,0,1,1,2.448-2.29A2.377,2.377,0,0,1,68.4,93.142Zm0-9.2a2.139,2.139,0,1,1,2.283-2.131A2.215,2.215,0,0,1,68.4,83.945Zm0-9.271a1.911,1.911,0,1,1,2.043-1.906A1.982,1.982,0,0,1,68.4,74.674Zm0-9.268a1.684,1.684,0,1,1,1.8-1.68A1.744,1.744,0,0,1,68.4,65.406Zm0-9.292a1.433,1.433,0,1,1,1.531-1.435A1.483,1.483,0,0,1,68.4,56.115Zm0-9.345a1.131,1.131,0,1,1,1.208-1.129A1.167,1.167,0,0,1,68.4,46.77Zm0-9.345a.829.829,0,1,1,.886-.828A.86.86,0,0,1,68.4,37.426Zm0-9.365a.5.5,0,1,1,.538-.5A.524.524,0,0,1,68.4,28.06Zm0-9.374a.174.174,0,1,1,0-.348.174.174,0,1,1,0,.348ZM58.692,156.692a2.543,2.543,0,1,1,2.721-2.546A2.634,2.634,0,0,1,58.692,156.692Zm0-9.05a2.537,2.537,0,1,1,2.721-2.529A2.633,2.633,0,0,1,58.692,147.642Zm0-9.038a2.542,2.542,0,1,1,2.721-2.54A2.631,2.631,0,0,1,58.692,138.6Zm0-9.1a2.49,2.49,0,1,1,2.669-2.481A2.579,2.579,0,0,1,58.692,129.507Zm0-9.118a2.412,2.412,0,1,1,2.588-2.408A2.5,2.5,0,0,1,58.692,120.389Zm0-9.144a2.313,2.313,0,1,1,2.48-2.307A2.4,2.4,0,0,1,58.692,111.245Zm0-9.167A2.186,2.186,0,1,1,61.033,99.9,2.264,2.264,0,0,1,58.692,102.078Zm0-9.192a2.036,2.036,0,1,1,2.189-2.033A2.108,2.108,0,0,1,58.692,92.886Zm0-9.247a1.835,1.835,0,1,1,1.967-1.824A1.9,1.9,0,0,1,58.692,83.639Zm0-9.242a1.634,1.634,0,1,1,1.752-1.629A1.694,1.694,0,0,1,58.692,74.4Zm0-9.241a1.433,1.433,0,1,1,1.537-1.429A1.491,1.491,0,0,1,58.692,65.156Zm0-9.316a1.16,1.16,0,1,1,1.246-1.161A1.206,1.206,0,0,1,58.692,55.84Zm0-9.318a.882.882,0,1,1,.943-.881A.915.915,0,0,1,58.692,46.523Zm0-9.345a.58.58,0,1,1,.62-.581A.6.6,0,0,1,58.692,37.178Zm0-9.374a.263.263,0,0,1-.272-.248.266.266,0,0,1,.272-.254.261.261,0,0,1,.272.254A.258.258,0,0,1,58.692,27.8Zm-9.7,128.582a2.236,2.236,0,1,1,2.391-2.24A2.324,2.324,0,0,1,48.988,156.386Zm0-9.047a2.235,2.235,0,1,1,2.391-2.225A2.318,2.318,0,0,1,48.988,147.339Zm0-9.035a2.239,2.239,0,1,1,2.391-2.24A2.322,2.322,0,0,1,48.988,138.3Zm0-9.1a2.186,2.186,0,1,1,2.341-2.18A2.266,2.266,0,0,1,48.988,129.207Zm0-9.115a2.115,2.115,0,1,1,2.259-2.11A2.19,2.19,0,0,1,48.988,120.092Zm0-9.144a2.012,2.012,0,1,1,2.151-2.01A2.088,2.088,0,0,1,48.988,110.947Zm0-9.168a1.886,1.886,0,1,1,2.018-1.88A1.948,1.948,0,0,1,48.988,101.779Zm0-9.171a1.761,1.761,0,1,1,1.886-1.756A1.827,1.827,0,0,1,48.988,92.609Zm0-9.217a1.582,1.582,0,1,1,1.7-1.577A1.644,1.644,0,0,1,48.988,83.391Zm0-9.268a1.359,1.359,0,1,1,1.455-1.355A1.406,1.406,0,0,1,48.988,74.123Zm0-9.268A1.13,1.13,0,1,1,50.2,63.727,1.173,1.173,0,0,1,48.988,64.855Zm0-9.295a.878.878,0,1,1,.943-.881A.913.913,0,0,1,48.988,55.56Zm0-9.291a.629.629,0,1,1,.677-.628A.657.657,0,0,1,48.988,46.269Zm0-9.368a.3.3,0,1,1,.323-.3A.314.314,0,0,1,48.988,36.9Zm-9.7,119.161a1.911,1.911,0,1,1,2.05-1.916A1.978,1.978,0,0,1,39.284,156.062Zm0-9.047a1.912,1.912,0,1,1,2.05-1.9A1.974,1.974,0,0,1,39.284,147.015Zm0-9.038a1.913,1.913,0,1,1,2.05-1.912A1.978,1.978,0,0,1,39.284,137.976Zm0-9.1a1.86,1.86,0,1,1,1.986-1.853A1.928,1.928,0,0,1,39.284,128.879Zm0-9.091a1.811,1.811,0,1,1,1.935-1.806A1.874,1.874,0,0,1,39.284,119.788Zm0-9.147a1.706,1.706,0,1,1,1.828-1.7A1.77,1.77,0,0,1,39.284,110.641Zm0-9.162a1.585,1.585,0,1,1,1.7-1.58A1.636,1.636,0,0,1,39.284,101.479Zm0-9.194a1.433,1.433,0,1,1,1.537-1.432A1.487,1.487,0,0,1,39.284,92.285Zm0-9.218a1.257,1.257,0,1,1,1.348-1.253A1.3,1.3,0,0,1,39.284,83.067Zm0-9.242a1.056,1.056,0,1,1,1.132-1.058A1.095,1.095,0,0,1,39.284,73.825Zm0-9.271a.83.83,0,1,1,.886-.828A.86.86,0,0,1,39.284,64.555Zm0-9.292a.579.579,0,1,1,.62-.583A.6.6,0,0,1,39.284,55.263Zm0-9.321a.3.3,0,1,1,0-.6.3.3,0,1,1,0,.6ZM39.259,36.6a.022.022,0,0,1,.025-.024.027.027,0,0,1,.025.024.027.027,0,0,1-.025.027A.023.023,0,0,1,39.259,36.6ZM29.58,155.725a1.583,1.583,0,1,1,1.689-1.579A1.637,1.637,0,0,1,29.58,155.725Zm0-9.035a1.582,1.582,0,1,1,1.689-1.577A1.634,1.634,0,0,1,29.58,146.691Zm0-9.044a1.584,1.584,0,1,1,1.689-1.582A1.639,1.639,0,0,1,29.58,137.646Zm0-9.117a1.509,1.509,0,1,1,1.613-1.5A1.565,1.565,0,0,1,29.58,128.529Zm0-9.094a1.455,1.455,0,1,1,1.556-1.453A1.512,1.512,0,0,1,29.58,119.434Zm0-9.135a1.359,1.359,0,1,1,1.455-1.362A1.406,1.406,0,0,1,29.58,110.3Zm0-9.174A1.232,1.232,0,1,1,30.9,99.9,1.274,1.274,0,0,1,29.58,101.126Zm0-9.165a1.106,1.106,0,1,1,1.183-1.108A1.148,1.148,0,0,1,29.58,91.961Zm0-9.221a.93.93,0,1,1,.993-.926A.964.964,0,0,1,29.58,82.74Zm0-9.271a.7.7,0,1,1,0-1.4.7.7,0,1,1,0,1.4Zm0-9.241a.5.5,0,1,1,.531-.5A.521.521,0,0,1,29.58,64.228Zm0-9.292a.253.253,0,1,1,0-.5.252.252,0,1,1,0,.5ZM19.869,155.36a1.206,1.206,0,1,1,1.29-1.214A1.252,1.252,0,0,1,19.869,155.36Zm0-9.038a1.211,1.211,0,1,1,1.29-1.208A1.251,1.251,0,0,1,19.869,146.322Zm0-9.053a1.205,1.205,0,1,1,1.29-1.205A1.246,1.246,0,0,1,19.869,137.269Zm0-9.091a1.155,1.155,0,1,1,0-2.3,1.156,1.156,0,1,1,0,2.3Zm0-9.094a1.108,1.108,0,1,1,1.183-1.1A1.147,1.147,0,0,1,19.869,119.084Zm0-9.138a1.008,1.008,0,1,1,1.082-1.008A1.04,1.04,0,0,1,19.869,109.946Zm0-9.173a.876.876,0,1,1,0-1.748.877.877,0,1,1,0,1.748Zm0-9.162a.756.756,0,1,1,.81-.757A.792.792,0,0,1,19.869,91.61Zm0-9.218a.6.6,0,0,1-.62-.578.622.622,0,1,1,.62.578Zm0-9.274a.35.35,0,1,1,0-.7.35.35,0,1,1,0,.7Zm0-9.217a.178.178,0,0,1-.183-.174.18.18,0,0,1,.183-.177.186.186,0,0,1,.19.177A.184.184,0,0,1,19.869,63.9Zm-9.7,91.082a.83.83,0,1,1,.885-.837A.861.861,0,0,1,10.166,154.983Zm0-9.047a.827.827,0,1,1,.885-.823A.855.855,0,0,1,10.166,145.936Zm0-9.041a.829.829,0,1,1,.885-.831A.856.856,0,0,1,10.166,136.895Zm0-9.094a.779.779,0,1,1,.835-.775A.806.806,0,0,1,10.166,127.8Zm0-9.118a.7.7,0,1,1,.753-.7A.722.722,0,0,1,10.166,118.683Zm0-9.12a.625.625,0,1,1,.677-.625A.651.651,0,0,1,10.166,109.563Zm0-9.162a.5.5,0,1,1,0-1,.5.5,0,1,1,0,1Zm0-9.2a.35.35,0,1,1,.38-.351A.366.366,0,0,1,10.166,91.2Zm0-9.191a.2.2,0,1,1,.215-.2A.208.208,0,0,1,10.166,82.012Zm-9.7,72.57A.455.455,0,0,1,0,154.146a.44.44,0,0,1,.462-.418.434.434,0,0,1,.455.418A.448.448,0,0,1,.462,154.582Zm0-9.047a.426.426,0,1,1,0-.849.425.425,0,1,1,0,.849Zm0-9.038A.45.45,0,0,1,0,136.064a.442.442,0,0,1,.462-.418.436.436,0,0,1,.455.418A.444.444,0,0,1,.462,136.5Zm0-9.118a.352.352,0,1,1,0-.7.351.351,0,1,1,0,.7Zm0-9.091a.3.3,0,1,1,0-.607.3.3,0,1,1,0,.607Zm0-9.124a.241.241,0,0,1-.247-.227.245.245,0,0,1,.247-.227.239.239,0,0,1,.24.227A.235.235,0,0,1,.462,109.165ZM.329,99.9a.128.128,0,0,1,.133-.127.126.126,0,1,1,0,.251A.127.127,0,0,1,.329,99.9Zm.133,62.946a.359.359,0,0,1,.374.354.367.367,0,0,1-.374.354.372.372,0,0,1-.38-.354A.365.365,0,0,1,.462,162.845Zm0,9.094a.313.313,0,0,1,.323.3.309.309,0,0,1-.323.294.311.311,0,0,1-.329-.294A.316.316,0,0,1,.462,171.939Zm0,9.142a.2.2,0,0,1,.209.2.2.2,0,0,1-.209.2.208.208,0,0,1-.221-.2A.216.216,0,0,1,.462,181.081Zm.082,9.241a.083.083,0,1,1-.082-.071A.081.081,0,0,1,.544,190.322Zm9.622-27.9a.775.775,0,1,1-.835.778A.8.8,0,0,1,10.166,162.421Zm0,9.141a.682.682,0,1,1,0,1.361.683.683,0,1,1,0-1.361Zm0,9.089a.66.66,0,0,1,.677.631.679.679,0,0,1-1.354,0A.664.664,0,0,1,10.166,180.65Zm0,9.177a.519.519,0,0,1,.538.495.525.525,0,0,1-.538.507.53.53,0,0,1-.544-.507A.524.524,0,0,1,10.166,189.827Zm0,9.212a.328.328,0,1,1-.348.324A.339.339,0,0,1,10.166,199.039Zm.184,9.365a.183.183,0,0,1-.367,0,.184.184,0,0,1,.367,0Zm9.52-46.372a1.164,1.164,0,1,1,0,2.322,1.163,1.163,0,1,1,0-2.322Zm0,9.13a1.084,1.084,0,1,1-1.157,1.079A1.12,1.12,0,0,1,19.869,171.161Zm0,9.147a.981.981,0,1,1,0,1.957.981.981,0,1,1,0-1.957Zm0,9.13a.925.925,0,0,1,.949.884.916.916,0,0,1-.949.873.9.9,0,0,1-.936-.873A.913.913,0,0,1,19.869,189.438Zm0,9.23a.7.7,0,1,1-.746.7A.725.725,0,0,1,19.869,198.668Zm0,9.194a.55.55,0,1,1-.594.542A.573.573,0,0,1,19.869,207.862Zm0,9.241a.349.349,0,1,1-.373.354A.359.359,0,0,1,19.869,217.1Zm.165,9.383a.161.161,0,0,1-.165.165.165.165,0,0,1-.164-.165.162.162,0,0,1,.164-.141A.157.157,0,0,1,20.035,226.486Zm9.546-64.8a1.507,1.507,0,1,1-1.619,1.509A1.561,1.561,0,0,1,29.58,161.69Zm0,9.088a1.514,1.514,0,0,1,1.556,1.462,1.567,1.567,0,0,1-3.125,0A1.521,1.521,0,0,1,29.58,170.778Zm0,9.147a1.359,1.359,0,1,1-1.455,1.356A1.408,1.408,0,0,1,29.58,179.925Zm0,9.171a1.232,1.232,0,1,1-1.322,1.226A1.276,1.276,0,0,1,29.58,189.1Zm0,9.195a1.076,1.076,0,1,1,0,2.145,1.076,1.076,0,1,1,0-2.145Zm0,9.217a.9.9,0,1,1-.974.9A.936.936,0,0,1,29.58,207.508Zm0,9.242a.7.7,0,1,1-.759.707A.727.727,0,0,1,29.58,216.75Zm0,9.277a.482.482,0,0,1,.506.459.51.51,0,0,1-1.018,0A.483.483,0,0,1,29.58,226.027Zm0,9.282a.228.228,0,0,1,.234.23.223.223,0,0,1-.234.224.226.226,0,0,1-.241-.224A.23.23,0,0,1,29.58,235.309Zm9.7-73.973a1.861,1.861,0,1,1-1.993,1.862A1.927,1.927,0,0,1,39.284,161.336Zm0,9.123a1.785,1.785,0,1,1-1.917,1.78A1.843,1.843,0,0,1,39.284,170.46Zm0,9.148a1.678,1.678,0,1,1-1.8,1.674A1.739,1.739,0,0,1,39.284,179.607Zm0,9.135a1.584,1.584,0,1,1-1.7,1.579A1.641,1.641,0,0,1,39.284,188.742Zm0,9.218a1.412,1.412,0,1,1-1.505,1.4A1.456,1.456,0,0,1,39.284,197.961Zm0,9.224a1.229,1.229,0,1,1-1.316,1.22A1.277,1.277,0,0,1,39.284,207.184Zm0,9.241a1.029,1.029,0,1,1-1.107,1.031A1.073,1.073,0,0,1,39.284,216.425Zm0,9.259a.81.81,0,1,1-.867.8A.838.838,0,0,1,39.284,225.685Zm0,9.306a.55.55,0,1,1,0,1.1.55.55,0,1,1,0-1.1Zm0,9.312a.277.277,0,1,1,0,.554.278.278,0,1,1,0-.554Zm9.7-83.267a2.165,2.165,0,1,1-2.315,2.163A2.25,2.25,0,0,1,48.988,161.036Zm0,9.094a2.112,2.112,0,1,1-2.258,2.11A2.188,2.188,0,0,1,48.988,170.13Zm0,9.165a1.988,1.988,0,1,1-2.132,1.986A2.07,2.07,0,0,1,48.988,179.295Zm0,9.147a1.888,1.888,0,1,1-2.018,1.88A1.955,1.955,0,0,1,48.988,188.442Zm0,9.2a1.731,1.731,0,1,1-1.854,1.721A1.8,1.8,0,0,1,48.988,197.642Zm0,9.218a1.557,1.557,0,1,1-1.67,1.544A1.617,1.617,0,0,1,48.988,206.86Zm0,9.265a1.33,1.33,0,1,1-1.43,1.332A1.377,1.377,0,0,1,48.988,216.125Zm0,9.271a1.141,1.141,0,0,1,1.183,1.09,1.19,1.19,0,1,1-1.183-1.09Zm0,9.283a.862.862,0,1,1-.917.86A.892.892,0,0,1,48.988,234.679Zm0,9.33a.576.576,0,1,1-.62.572A.6.6,0,0,1,48.988,244.009Zm0,9.341a.278.278,0,1,1-.3.271A.286.286,0,0,1,48.988,253.35Zm9.7-92.638a2.488,2.488,0,1,1-2.663,2.487A2.58,2.58,0,0,1,58.692,160.712Zm0,9.112a2.416,2.416,0,1,1-2.581,2.416A2.508,2.508,0,0,1,58.692,169.824Zm0,9.182a2.287,2.287,0,1,1-2.448,2.275A2.368,2.368,0,0,1,58.692,179.006Zm0,9.159a2.168,2.168,0,1,1-2.309,2.157A2.238,2.238,0,0,1,58.692,188.165Zm0,9.195a2.011,2.011,0,1,1-2.151,2A2.093,2.093,0,0,1,58.692,197.359Zm0,9.206a1.843,1.843,0,1,1-1.967,1.838A1.91,1.91,0,0,1,58.692,206.566Zm0,9.282a1.607,1.607,0,1,1-1.721,1.609A1.665,1.665,0,0,1,58.692,215.848Zm0,9.242a1.406,1.406,0,1,1-1.506,1.4A1.461,1.461,0,0,1,58.692,225.089Zm0,9.324a1.129,1.129,0,1,1-1.208,1.126A1.161,1.161,0,0,1,58.692,234.413Zm0,9.318a.851.851,0,1,1-.911.849A.878.878,0,0,1,58.692,243.732Zm0,9.335a.555.555,0,1,1-.588.554A.571.571,0,0,1,58.692,253.067Zm0,9.377a.228.228,0,0,1,.24.219.237.237,0,0,1-.24.23.248.248,0,0,1-.247-.23A.238.238,0,0,1,58.692,262.444ZM68.4,151.376a2.787,2.787,0,1,1-2.992,2.77A2.881,2.881,0,0,1,68.4,151.376Zm0,9.065a2.763,2.763,0,1,1-2.967,2.758A2.865,2.865,0,0,1,68.4,160.441Zm0,9.111a2.692,2.692,0,1,1-2.885,2.688A2.788,2.788,0,0,1,68.4,169.552Zm0,9.148a2.588,2.588,0,1,1-2.777,2.581A2.684,2.684,0,0,1,68.4,178.7Zm0,9.188a2.443,2.443,0,1,1-2.619,2.434A2.523,2.523,0,0,1,68.4,187.888Zm0,9.2a2.284,2.284,0,1,1-2.454,2.275A2.366,2.366,0,0,1,68.4,197.088Zm0,9.212a2.115,2.115,0,1,1-2.265,2.1A2.183,2.183,0,0,1,68.4,206.3Zm0,9.271a1.885,1.885,0,1,1-2.024,1.886A1.956,1.956,0,0,1,68.4,215.571Zm0,9.295a1.634,1.634,0,1,1-1.759,1.621A1.688,1.688,0,0,1,68.4,224.866Zm0,9.295a1.38,1.38,0,1,1-1.487,1.379A1.425,1.425,0,0,1,68.4,234.16Zm0,9.318a1.105,1.105,0,1,1-1.189,1.1A1.143,1.143,0,0,1,68.4,243.478Zm0,9.341a.807.807,0,1,1-.867.8A.828.828,0,0,1,68.4,252.82Zm0,9.372a.473.473,0,1,1,0,.943.473.473,0,1,1,0-.943Zm.126,9.512a.129.129,0,0,1-.126.13.136.136,0,0,1-.139-.13.131.131,0,0,1,.139-.124A.124.124,0,0,1,68.529,271.7ZM78.106,151.1a3.065,3.065,0,1,1-3.283,3.05A3.175,3.175,0,0,1,78.106,151.1Zm0,9.085a3.019,3.019,0,1,1-3.232,3.018A3.135,3.135,0,0,1,78.106,160.181Zm0,9.123a2.943,2.943,0,1,1-3.15,2.936A3.049,3.049,0,0,1,78.106,169.3Zm0,9.142a2.839,2.839,0,1,1-3.043,2.835A2.948,2.948,0,0,1,78.106,178.446Zm0,9.188a2.694,2.694,0,1,1-2.878,2.687A2.792,2.792,0,0,1,78.106,187.634Zm0,9.194a2.546,2.546,0,1,1-2.714,2.534A2.634,2.634,0,0,1,78.106,196.829Zm0,9.241a2.345,2.345,0,1,1-2.5,2.334A2.437,2.437,0,0,1,78.106,206.07Zm0,9.242a2.139,2.139,0,1,1-2.29,2.145A2.219,2.219,0,0,1,78.106,215.312Zm0,9.306a1.885,1.885,0,1,1-2.024,1.868A1.944,1.944,0,0,1,78.106,224.618Zm0,9.312a1.61,1.61,0,1,1-1.72,1.609A1.66,1.66,0,0,1,78.106,233.93Zm0,9.318a1.332,1.332,0,1,1-1.423,1.332A1.384,1.384,0,0,1,78.106,243.249Zm0,9.347a1.031,1.031,0,1,1,0,2.057,1.031,1.031,0,1,1,0-2.057Zm0,9.394a.68.68,0,1,1-.727.673A.707.707,0,0,1,78.106,261.99Zm0,9.4a.325.325,0,1,1,0,.648.325.325,0,1,1,0-.648Zm9.7-120.516a3.291,3.291,0,1,1-3.53,3.277A3.415,3.415,0,0,1,87.811,150.869Zm0,9.076a3.262,3.262,0,1,1-3.492,3.254A3.382,3.382,0,0,1,87.811,159.945Zm0,9.136a3.17,3.17,0,1,1-3.391,3.159A3.285,3.285,0,0,1,87.811,169.081Zm0,9.135a3.072,3.072,0,1,1-3.283,3.065A3.189,3.189,0,0,1,87.811,178.216Zm0,9.194a2.919,2.919,0,1,1-3.125,2.911A3.021,3.021,0,0,1,87.811,187.41Zm0,9.224a2.738,2.738,0,1,1-2.929,2.729A2.842,2.842,0,0,1,87.811,196.634Zm0,9.212a2.567,2.567,0,1,1-2.746,2.558A2.652,2.652,0,0,1,87.811,205.846Zm0,9.277a2.334,2.334,0,1,1-2.5,2.334A2.413,2.413,0,0,1,87.811,215.123Zm0,9.289a2.086,2.086,0,1,1-2.233,2.074A2.16,2.16,0,0,1,87.811,224.412Zm0,9.324a1.808,1.808,0,1,1-1.936,1.8A1.869,1.869,0,0,1,87.811,233.736Zm0,9.289a1.56,1.56,0,1,1-1.671,1.556A1.615,1.615,0,0,1,87.811,243.025Zm0,9.371a1.229,1.229,0,1,1-1.316,1.226A1.282,1.282,0,0,1,87.811,252.4Zm0,9.394a.878.878,0,1,1-.943.873A.91.91,0,0,1,87.811,261.79Zm0,9.4a.526.526,0,1,1-.563.518A.55.55,0,0,1,87.811,271.185Zm.164,9.571a.166.166,0,0,1-.329,0,.165.165,0,0,1,.329,0Zm9.54-130.088a3.495,3.495,0,1,1-3.738,3.477A3.618,3.618,0,0,1,97.514,150.669Zm0,9.094a3.442,3.442,0,1,1-3.682,3.436A3.574,3.574,0,0,1,97.514,159.763Zm0,9.094a3.392,3.392,0,1,1-3.631,3.383A3.51,3.51,0,0,1,97.514,168.857Zm0,9.171a3.267,3.267,0,1,1-3.5,3.254A3.382,3.382,0,0,1,97.514,178.027Zm0,9.188a3.117,3.117,0,1,1-3.34,3.106A3.223,3.223,0,0,1,97.514,187.216Zm0,9.212a2.942,2.942,0,1,1-3.144,2.935A3.049,3.049,0,0,1,97.514,196.428Zm0,9.241a2.747,2.747,0,1,1-2.935,2.734A2.846,2.846,0,0,1,97.514,205.669Zm0,9.277a2.511,2.511,0,1,1-2.689,2.511A2.6,2.6,0,0,1,97.514,214.946Zm0,9.265a2.289,2.289,0,1,1-2.448,2.275A2.37,2.37,0,0,1,97.514,224.211Zm0,9.348a1.985,1.985,0,1,1-2.125,1.98A2.055,2.055,0,0,1,97.514,233.559Zm0,9.312a1.707,1.707,0,1,1-1.828,1.709A1.776,1.776,0,0,1,97.514,242.871Zm0,9.347a1.406,1.406,0,1,1-1.506,1.4A1.462,1.462,0,0,1,97.514,252.218Zm0,9.395a1.058,1.058,0,1,1-1.126,1.05A1.1,1.1,0,0,1,97.514,261.613Zm0,9.419a.674.674,0,1,1-.727.672A.7.7,0,0,1,97.514,271.032Zm0,9.418a.3.3,0,1,1,0,.6.3.3,0,1,1,0-.6Zm9.7-120.893a3.648,3.648,0,1,1-3.9,3.642A3.778,3.778,0,0,1,107.218,159.556Zm0,9.124a3.571,3.571,0,1,1-3.814,3.56A3.7,3.7,0,0,1,107.218,168.68Zm0,9.159a3.444,3.444,0,1,1-3.681,3.442A3.579,3.579,0,0,1,107.218,177.839Zm0,9.194a3.3,3.3,0,1,1-3.523,3.289A3.426,3.426,0,0,1,107.218,187.033Zm0,9.224a3.116,3.116,0,1,1-3.327,3.106A3.22,3.22,0,0,1,107.218,196.257Zm0,9.248a2.918,2.918,0,1,1-3.118,2.9A3.016,3.016,0,0,1,107.218,205.5Zm0,9.265a2.689,2.689,0,1,1-2.878,2.687A2.786,2.786,0,0,1,107.218,214.769Zm0,9.289a2.44,2.44,0,1,1-2.606,2.428A2.528,2.528,0,0,1,107.218,224.058Zm0,9.347a2.139,2.139,0,1,1-2.284,2.134A2.215,2.215,0,0,1,107.218,233.405Zm0,9.312a1.866,1.866,0,1,1-1.986,1.862A1.938,1.938,0,0,1,107.218,242.718Zm0,9.347a1.562,1.562,0,1,1-1.663,1.556A1.615,1.615,0,0,1,107.218,252.065Zm0,9.4a1.2,1.2,0,1,1-1.284,1.2A1.255,1.255,0,0,1,107.218,261.46Zm0,9.394a.88.88,0,0,1,.918.849.917.917,0,1,1-.918-.849Zm0,9.418a.5.5,0,0,1,.519.483.518.518,0,0,1-1.031,0A.5.5,0,0,1,107.218,280.273Zm.063,9.519a.057.057,0,0,1-.063.053.058.058,0,0,1-.056-.053.071.071,0,0,1,.056-.053A.066.066,0,0,1,107.281,289.792Zm9.653-139.5a3.87,3.87,0,1,1-4.15,3.855A4.008,4.008,0,0,1,116.935,150.291Zm0,9.118a3.8,3.8,0,1,1-4.068,3.79A3.935,3.935,0,0,1,116.935,159.409Zm0,9.111a3.725,3.725,0,1,1-3.985,3.72A3.854,3.854,0,0,1,116.935,168.521Zm0,9.177a3.593,3.593,0,1,1-3.853,3.583A3.714,3.714,0,0,1,116.935,177.7Zm0,9.194a3.442,3.442,0,1,1-3.694,3.43A3.562,3.562,0,0,1,116.935,186.892Zm0,9.217a3.268,3.268,0,1,1-3.5,3.254A3.382,3.382,0,0,1,116.935,196.109Zm0,9.265a3.041,3.041,0,1,1-3.264,3.029A3.144,3.144,0,0,1,116.935,205.375Zm0,9.265a2.819,2.819,0,1,1-3.023,2.817A2.921,2.921,0,0,1,116.935,214.64Zm0,9.3a2.562,2.562,0,1,1-2.758,2.546A2.651,2.651,0,0,1,116.935,223.94Zm0,9.312a2.287,2.287,0,1,1-2.46,2.287A2.372,2.372,0,0,1,116.935,233.252Zm0,9.353a1.983,1.983,0,1,1-2.132,1.975A2.051,2.051,0,0,1,116.935,242.606Zm0,9.359a1.664,1.664,0,1,1-1.783,1.656A1.711,1.711,0,0,1,116.935,251.965Zm0,9.371a1.333,1.333,0,1,1-1.43,1.327A1.384,1.384,0,0,1,116.935,261.336Zm0,9.419a.955.955,0,1,1-1.031.949A.989.989,0,0,1,116.935,270.755Zm0,9.418a.587.587,0,0,1,.608.584.6.6,0,0,1-.608.578.61.61,0,0,1-.626-.578A.6.6,0,0,1,116.935,280.172Zm0,9.448a.18.18,0,0,1,.177.171.176.176,0,0,1-.177.171.185.185,0,0,1-.2-.171A.189.189,0,0,1,116.935,289.621Zm9.7-139.424a3.97,3.97,0,1,1-4.25,3.949A4.1,4.1,0,0,1,126.632,150.2Zm0,9.077a3.929,3.929,0,1,1-4.2,3.925A4.072,4.072,0,0,1,126.632,159.274Zm0,9.135a3.847,3.847,0,1,1-4.118,3.831A3.981,3.981,0,0,1,126.632,168.409Zm0,9.159a3.725,3.725,0,1,1-3.985,3.713A3.856,3.856,0,0,1,126.632,177.568Zm0,9.194a3.572,3.572,0,1,1-3.821,3.56A3.694,3.694,0,0,1,126.632,186.762Zm0,9.218A3.392,3.392,0,1,1,123,199.363,3.523,3.523,0,0,1,126.632,195.98Zm0,9.3a3.143,3.143,0,1,1-3.359,3.123A3.254,3.254,0,0,1,126.632,205.281Zm0,9.265a2.913,2.913,0,1,1-3.118,2.911A3.027,3.027,0,0,1,126.632,214.545Zm0,9.283a2.667,2.667,0,1,1-2.853,2.658A2.774,2.774,0,0,1,126.632,223.828Zm0,9.33a2.39,2.39,0,1,1-2.555,2.381A2.474,2.474,0,0,1,126.632,233.158Zm0,9.336a2.091,2.091,0,1,1-2.226,2.086A2.171,2.171,0,0,1,126.632,242.494Zm0,9.371a1.761,1.761,0,1,1-1.885,1.756A1.824,1.824,0,0,1,126.632,251.865Zm0,9.371a1.43,1.43,0,1,1-1.537,1.427A1.484,1.484,0,0,1,126.632,261.236Zm0,9.418a1.057,1.057,0,1,1-1.125,1.049A1.093,1.093,0,0,1,126.632,270.654Zm0,9.442a.656.656,0,1,1,0,1.309.655.655,0,1,1,0-1.309Zm0,9.448a.251.251,0,1,1-.265.248A.255.255,0,0,1,126.632,289.544Zm9.7-139.48a4.1,4.1,0,1,1-4.384,4.082A4.247,4.247,0,0,1,136.337,150.064Zm0,9.115a4.026,4.026,0,1,1-4.308,4.02A4.17,4.17,0,0,1,136.337,159.179Zm0,9.147a3.917,3.917,0,1,1-4.194,3.914A4.055,4.055,0,0,1,136.337,168.326Zm0,9.165a3.8,3.8,0,1,1-4.061,3.79A3.937,3.937,0,0,1,136.337,177.492Zm0,9.224a3.622,3.622,0,1,1-3.872,3.607A3.751,3.751,0,0,1,136.337,186.715Zm0,9.212a3.447,3.447,0,1,1-3.688,3.436A3.568,3.568,0,0,1,136.337,195.927Zm0,9.247a3.244,3.244,0,1,1-3.467,3.229A3.361,3.361,0,0,1,136.337,205.174Zm0,9.289a3,3,0,1,1-3.195,2.994A3.108,3.108,0,0,1,136.337,214.463Zm0,9.3a2.741,2.741,0,1,1-2.929,2.722A2.832,2.832,0,0,1,136.337,223.764Zm0,9.312a2.464,2.464,0,1,1-2.632,2.464A2.554,2.554,0,0,1,136.337,233.076Zm0,9.371a2.139,2.139,0,1,1-2.284,2.134A2.215,2.215,0,0,1,136.337,242.447Zm0,9.371a1.808,1.808,0,1,1-1.936,1.8A1.871,1.871,0,0,1,136.337,251.818Zm0,9.371a1.478,1.478,0,1,1-1.588,1.474A1.535,1.535,0,0,1,136.337,261.189Zm0,9.419a1.108,1.108,0,1,1,0,2.21,1.108,1.108,0,1,1,0-2.21Zm0,9.394a.756.756,0,1,1-.8.755A.777.777,0,0,1,136.337,280Zm0,9.466a.328.328,0,1,1,0,.654.328.328,0,1,1,0-.654Zm9.7-139.476a4.174,4.174,0,1,1-4.466,4.155A4.318,4.318,0,0,1,146.04,149.991Zm0,9.112a4.1,4.1,0,1,1-4.384,4.1A4.247,4.247,0,0,1,146.04,159.1Zm0,9.177a3.967,3.967,0,1,1-4.245,3.961A4.116,4.116,0,0,1,146.04,168.279Zm0,9.159a3.846,3.846,0,1,1-4.112,3.843A3.986,3.986,0,0,1,146.04,177.438Zm0,9.194a3.7,3.7,0,1,1-3.954,3.689A3.835,3.835,0,0,1,146.04,186.633Zm0,9.242a3.5,3.5,0,1,1-3.739,3.489A3.629,3.629,0,0,1,146.04,195.874Zm0,9.253a3.291,3.291,0,1,1-3.518,3.276A3.407,3.407,0,0,1,146.04,205.127Zm0,9.288a3.043,3.043,0,1,1-3.251,3.041A3.149,3.149,0,0,1,146.04,214.416Zm0,9.3a2.788,2.788,0,1,1-2.98,2.77A2.89,2.89,0,0,1,146.04,223.717Zm0,9.335a2.49,2.49,0,1,1-2.657,2.487A2.574,2.574,0,0,1,146.04,233.052Zm0,9.342a2.188,2.188,0,1,1-2.334,2.186A2.27,2.27,0,0,1,146.04,242.394Zm0,9.377a1.858,1.858,0,1,1-1.986,1.85A1.925,1.925,0,0,1,146.04,251.771Zm0,9.389a1.509,1.509,0,1,1-1.607,1.5A1.565,1.565,0,0,1,146.04,261.16Zm0,9.4a1.152,1.152,0,1,1-1.234,1.143A1.188,1.188,0,0,1,146.04,270.56Zm0,9.418a.775.775,0,1,1,0,1.544.774.774,0,1,1,0-1.544Zm0,9.466a.348.348,0,1,1-.374.348A.365.365,0,0,1,146.04,289.444Zm9.71-139.453a4.174,4.174,0,1,1-4.466,4.155A4.322,4.322,0,0,1,155.75,149.991Zm0,9.112a4.1,4.1,0,1,1-4.39,4.1A4.248,4.248,0,0,1,155.75,159.1Zm0,9.141a4,4,0,1,1-4.276,4A4.153,4.153,0,0,1,155.75,168.244Zm0,9.183a3.87,3.87,0,1,1-4.143,3.855A4.008,4.008,0,0,1,155.75,177.426Zm0,9.189a3.72,3.72,0,1,1-3.985,3.707A3.851,3.851,0,0,1,155.75,186.615Zm0,9.259a3.5,3.5,0,1,1-3.738,3.489A3.627,3.627,0,0,1,155.75,195.874Zm0,9.253a3.291,3.291,0,1,1-3.523,3.276A3.412,3.412,0,0,1,155.75,205.127Zm0,9.265a3.064,3.064,0,1,1-3.283,3.065A3.175,3.175,0,0,1,155.75,214.392Zm0,9.324a2.789,2.789,0,1,1-2.986,2.77A2.9,2.9,0,0,1,155.75,223.717Zm0,9.312a2.512,2.512,0,1,1-2.695,2.511A2.614,2.614,0,0,1,155.75,233.028Zm0,9.347a2.21,2.21,0,1,1-2.366,2.2A2.288,2.288,0,0,1,155.75,242.376Zm0,9.359a1.888,1.888,0,1,1-2.018,1.886A1.959,1.959,0,0,1,155.75,251.735Zm0,9.372a1.562,1.562,0,1,1-1.663,1.556A1.618,1.618,0,0,1,155.75,261.107Zm0,9.454a1.152,1.152,0,1,1-1.24,1.143A1.192,1.192,0,0,1,155.75,270.56Zm0,9.418a.775.775,0,1,1-.835.778A.8.8,0,0,1,155.75,279.978Zm0,9.466a.349.349,0,1,1,0,.7.348.348,0,1,1,0-.7Zm9.711-139.43a4.148,4.148,0,1,1-4.447,4.132A4.292,4.292,0,0,1,165.461,150.014Zm0,9.118A4.071,4.071,0,1,1,161.1,163.2,4.218,4.218,0,0,1,165.461,159.132Zm0,9.147a3.968,3.968,0,1,1-4.258,3.961A4.108,4.108,0,0,1,165.461,168.279Zm0,9.159a3.847,3.847,0,1,1-4.125,3.843A3.99,3.99,0,0,1,165.461,177.438Zm0,9.224a3.672,3.672,0,1,1-3.935,3.66A3.809,3.809,0,0,1,165.461,186.662Zm0,9.247a3.469,3.469,0,1,1-3.72,3.454A3.588,3.588,0,0,1,165.461,195.909Zm0,9.218a3.292,3.292,0,1,1-3.531,3.276A3.4,3.4,0,0,1,165.461,205.127Zm0,9.288a3.043,3.043,0,1,1-3.264,3.041A3.155,3.155,0,0,1,165.461,214.416Zm0,9.3a2.789,2.789,0,1,1-2.993,2.77A2.892,2.892,0,0,1,165.461,223.717Zm0,9.335a2.491,2.491,0,1,1-2.67,2.487A2.582,2.582,0,0,1,165.461,233.052Zm0,9.342a2.189,2.189,0,1,1-2.341,2.186A2.267,2.267,0,0,1,165.461,242.394Zm0,9.377a1.859,1.859,0,1,1-2,1.85A1.921,1.921,0,0,1,165.461,251.771Zm0,9.389a1.51,1.51,0,1,1-1.619,1.5A1.568,1.568,0,0,1,165.461,261.16Zm0,9.4a1.152,1.152,0,1,1-1.24,1.143A1.187,1.187,0,0,1,165.461,270.56Zm0,9.418a.775.775,0,1,1-.841.778A.8.8,0,0,1,165.461,279.978Zm0,9.466a.348.348,0,1,1,0,.7.349.349,0,1,1,0-.7Zm9.7-139.356a4.078,4.078,0,1,1-4.365,4.058A4.22,4.22,0,0,1,175.165,150.088Zm0,9.091a4.026,4.026,0,1,1-4.308,4.02A4.174,4.174,0,0,1,175.165,159.179Zm0,9.147a3.918,3.918,0,1,1-4.207,3.914A4.053,4.053,0,0,1,175.165,168.326Zm0,9.165a3.8,3.8,0,1,1-4.067,3.79A3.94,3.94,0,0,1,175.165,177.492Zm0,9.224a3.622,3.622,0,1,1-3.877,3.607A3.75,3.75,0,0,1,175.165,186.715Zm0,9.212a3.447,3.447,0,1,1-3.688,3.436A3.563,3.563,0,0,1,175.165,195.927Zm0,9.271a3.22,3.22,0,1,1-3.447,3.206A3.33,3.33,0,0,1,175.165,205.2Zm0,9.265a3,3,0,1,1-3.2,2.994A3.1,3.1,0,0,1,175.165,214.463Zm0,9.3a2.741,2.741,0,1,1-2.935,2.722A2.831,2.831,0,0,1,175.165,223.764Zm0,9.312a2.464,2.464,0,1,1-2.638,2.464A2.543,2.543,0,0,1,175.165,233.076Zm0,9.371a2.139,2.139,0,1,1-2.29,2.134A2.21,2.21,0,0,1,175.165,242.447Zm0,9.371a1.808,1.808,0,1,1-1.936,1.8A1.869,1.869,0,0,1,175.165,251.818Zm0,9.371a1.478,1.478,0,1,1-1.594,1.474A1.531,1.531,0,0,1,175.165,261.189Zm0,9.419a1.108,1.108,0,1,1-1.183,1.1A1.142,1.142,0,0,1,175.165,270.607Zm0,9.441a.7.7,0,1,1-.753.707A.735.735,0,0,1,175.165,280.049Zm0,9.442a.311.311,0,0,1,.316.3.32.32,0,0,1-.639,0A.314.314,0,0,1,175.165,289.491Zm9.7-139.294a3.971,3.971,0,1,1-4.258,3.949A4.1,4.1,0,0,1,184.869,150.2Zm0,9.077a3.929,3.929,0,1,1-4.2,3.925A4.066,4.066,0,0,1,184.869,159.274Zm0,9.153a3.82,3.82,0,1,1-4.093,3.814A3.959,3.959,0,0,1,184.869,168.427Zm0,9.142a3.725,3.725,0,1,1-3.979,3.713A3.856,3.856,0,0,1,184.869,177.568Zm0,9.217a3.545,3.545,0,1,1-3.8,3.536A3.676,3.676,0,0,1,184.869,186.786Zm0,9.218a3.37,3.37,0,1,1-3.606,3.359A3.491,3.491,0,0,1,184.869,196Zm0,9.277A3.143,3.143,0,1,1,181.5,208.4,3.253,3.253,0,0,1,184.869,205.281Zm0,9.265a2.913,2.913,0,1,1-3.125,2.911A3.022,3.022,0,0,1,184.869,214.545Zm0,9.318a2.642,2.642,0,1,1-2.834,2.622A2.73,2.73,0,0,1,184.869,223.864Zm0,9.294a2.39,2.39,0,1,1-2.563,2.381A2.478,2.478,0,0,1,184.869,233.158Zm0,9.371a2.057,2.057,0,1,1-2.214,2.051A2.134,2.134,0,0,1,184.869,242.529Zm0,9.336a1.761,1.761,0,1,1-1.886,1.756A1.821,1.821,0,0,1,184.869,251.865Zm0,9.406a1.406,1.406,0,1,1-1.506,1.391A1.455,1.455,0,0,1,184.869,261.271Zm0,9.383a1.058,1.058,0,1,1-1.133,1.049A1.088,1.088,0,0,1,184.869,270.654Zm0,9.442a.656.656,0,1,1-.7.66A.678.678,0,0,1,184.869,280.1Zm0,9.448a.251.251,0,1,1-.266.248A.255.255,0,0,1,184.869,289.544Zm9.7-139.232a3.851,3.851,0,1,1-4.118,3.834A3.981,3.981,0,0,1,194.572,150.312Zm0,9.1a3.8,3.8,0,1,1-4.067,3.79A3.937,3.937,0,0,1,194.572,159.409Zm0,9.111a3.725,3.725,0,1,1-3.979,3.72A3.861,3.861,0,0,1,194.572,168.521Zm0,9.2a3.568,3.568,0,1,1-3.82,3.56A3.694,3.694,0,0,1,194.572,177.721Zm0,9.188a3.418,3.418,0,1,1-3.656,3.412A3.541,3.541,0,0,1,194.572,186.91Zm0,9.223a3.241,3.241,0,1,1-3.472,3.23A3.358,3.358,0,0,1,194.572,196.133Zm0,9.242a3.04,3.04,0,1,1-3.258,3.029A3.151,3.151,0,0,1,194.572,205.375Zm0,9.289a2.789,2.789,0,1,1-2.985,2.793A2.9,2.9,0,0,1,194.572,214.664Zm0,9.277a2.561,2.561,0,1,1-2.745,2.546A2.652,2.652,0,0,1,194.572,223.94Zm0,9.312a2.287,2.287,0,1,1-2.448,2.287A2.368,2.368,0,0,1,194.572,233.252Zm0,9.353a1.983,1.983,0,1,1-2.132,1.975A2.053,2.053,0,0,1,194.572,242.606Zm0,9.359a1.663,1.663,0,1,1-1.771,1.656A1.718,1.718,0,0,1,194.572,251.965Zm0,9.4a1.345,1.345,0,0,1,1.4,1.3,1.405,1.405,0,1,1-1.4-1.3Zm0,9.389a.954.954,0,1,1-1.025.949A.99.99,0,0,1,194.572,270.755Zm0,9.447a.55.55,0,1,1,0,1.1.55.55,0,1,1,0-1.1Zm0,9.419a.183.183,0,0,1,.19.171.191.191,0,0,1-.379,0A.182.182,0,0,1,194.572,289.621Zm9.7-139.135a3.675,3.675,0,1,1-3.928,3.66A3.8,3.8,0,0,1,204.276,150.486Zm0,9.1A3.619,3.619,0,1,1,200.4,163.2,3.755,3.755,0,0,1,204.276,159.586Zm0,9.118a3.545,3.545,0,1,1-3.789,3.536A3.668,3.668,0,0,1,204.276,168.7Zm0,9.17a3.416,3.416,0,1,1-3.662,3.407A3.539,3.539,0,0,1,204.276,177.874Zm0,9.195a3.267,3.267,0,1,1-3.5,3.253A3.377,3.377,0,0,1,204.276,187.069Zm0,9.206a3.1,3.1,0,1,1-3.308,3.088A3.21,3.21,0,0,1,204.276,196.275Zm0,9.253a2.889,2.889,0,1,1-3.093,2.876A2.993,2.993,0,0,1,204.276,205.528Zm0,9.271a2.664,2.664,0,1,1-2.846,2.658A2.76,2.76,0,0,1,204.276,214.8Zm0,9.283a2.416,2.416,0,1,1-2.581,2.4A2.5,2.5,0,0,1,204.276,224.082Zm0,9.324a2.139,2.139,0,1,1-2.283,2.134A2.215,2.215,0,0,1,204.276,233.405Zm0,9.347a1.832,1.832,0,1,1-1.961,1.828A1.894,1.894,0,0,1,204.276,242.753Zm0,9.372a1.5,1.5,0,1,1-1.613,1.5A1.564,1.564,0,0,1,204.276,252.124Zm0,9.371a1.22,1.22,0,0,1,1.271,1.167,1.271,1.271,0,0,1-2.536,0A1.219,1.219,0,0,1,204.276,261.5Zm0,9.383a.833.833,0,1,1-.886.825A.86.86,0,0,1,204.276,270.878Zm0,9.424a.452.452,0,1,1-.481.454A.463.463,0,0,1,204.276,280.3Zm.056,9.489a.054.054,0,0,1-.056.053.054.054,0,0,1-.051-.053c0-.018.025-.053.051-.053A.064.064,0,0,1,204.333,289.792Zm9.654-139.1a3.469,3.469,0,1,1-3.719,3.454A3.6,3.6,0,0,1,213.987,150.692Zm0,9.071a3.442,3.442,0,1,1-3.694,3.436A3.573,3.573,0,0,1,213.987,159.763Zm0,9.106a3.373,3.373,0,1,1-3.606,3.371A3.493,3.493,0,0,1,213.987,168.869Zm0,9.182a3.239,3.239,0,1,1-3.473,3.23A3.352,3.352,0,0,1,213.987,178.051Zm0,9.183a3.1,3.1,0,1,1-3.309,3.088A3.2,3.2,0,0,1,213.987,187.234Zm0,9.224a2.916,2.916,0,1,1-3.126,2.906A3.026,3.026,0,0,1,213.987,196.457Zm0,9.212a2.747,2.747,0,1,1-2.936,2.734A2.85,2.85,0,0,1,213.987,205.669Zm0,9.3a2.49,2.49,0,1,1-2.664,2.487A2.588,2.588,0,0,1,213.987,214.97Zm0,9.265a2.263,2.263,0,1,1-2.423,2.251A2.348,2.348,0,0,1,213.987,224.235Zm0,9.324a1.985,1.985,0,1,1-2.126,1.98A2.047,2.047,0,0,1,213.987,233.559Zm0,9.336a1.687,1.687,0,1,1-1.809,1.686A1.749,1.749,0,0,1,213.987,242.895Zm0,9.347a1.386,1.386,0,1,1-1.488,1.379A1.431,1.431,0,0,1,213.987,252.242Zm0,9.4a1.028,1.028,0,1,1-1.107,1.025A1.066,1.066,0,0,1,213.987,261.637Zm0,9.395a.674.674,0,1,1,0,1.344.674.674,0,1,1,0-1.344Zm0,9.418a.3.3,0,1,1,0,.6.3.3,0,1,1,0-.6Zm9.7-120.463a3.218,3.218,0,1,1-3.448,3.212A3.332,3.332,0,0,1,223.69,159.987Zm0,9.117a3.144,3.144,0,1,1-3.365,3.136A3.255,3.255,0,0,1,223.69,169.1Zm0,9.147a3.043,3.043,0,1,1-3.258,3.03A3.146,3.146,0,0,1,223.69,178.251Zm0,9.183a2.895,2.895,0,1,1-3.094,2.888A3,3,0,0,1,223.69,187.434Zm0,9.2a2.738,2.738,0,1,1-2.929,2.729A2.842,2.842,0,0,1,223.69,196.634Zm0,9.242a2.538,2.538,0,1,1-2.713,2.528A2.627,2.627,0,0,1,223.69,205.876Zm0,9.271a2.316,2.316,0,1,1-2.473,2.31A2.4,2.4,0,0,1,223.69,215.146Zm0,9.295a2.059,2.059,0,1,1-2.207,2.045A2.132,2.132,0,0,1,223.69,224.441Zm0,9.294a1.808,1.808,0,1,1-1.935,1.8A1.875,1.875,0,0,1,223.69,233.736Zm0,9.336a1.513,1.513,0,1,1-1.619,1.509A1.574,1.574,0,0,1,223.69,243.071Zm0,9.347a1.209,1.209,0,1,1-1.3,1.2A1.248,1.248,0,0,1,223.69,252.419Zm0,9.371a.878.878,0,1,1-.942.873A.906.906,0,0,1,223.69,261.79Zm0,9.419a.5.5,0,1,1-.538.495A.519.519,0,0,1,223.69,271.208Zm.165,9.548a.162.162,0,0,1-.165.142.155.155,0,0,1-.158-.142.149.149,0,0,1,.158-.154A.155.155,0,0,1,223.855,280.756Zm9.54-129.639a3.042,3.042,0,1,1-3.252,3.029A3.154,3.154,0,0,1,233.395,151.117Zm0,9.1a2.989,2.989,0,1,1-3.2,2.982A3.093,3.093,0,0,1,233.395,160.217Zm0,9.111a2.919,2.919,0,1,1-3.119,2.912A3.026,3.026,0,0,1,233.395,169.328Zm0,9.183a2.783,2.783,0,1,1-2.986,2.77A2.881,2.881,0,0,1,233.395,178.511Zm0,9.159a2.665,2.665,0,1,1-2.854,2.652A2.759,2.759,0,0,1,233.395,187.67Zm0,9.206a2.49,2.49,0,1,1-2.664,2.487A2.582,2.582,0,0,1,233.395,196.876Zm0,9.23a2.31,2.31,0,1,1-2.474,2.3A2.39,2.39,0,0,1,233.395,206.106Zm0,9.241a2.11,2.11,0,1,1-2.259,2.11A2.188,2.188,0,0,1,233.395,215.347Zm0,9.289a1.861,1.861,0,1,1-1.987,1.85A1.931,1.931,0,0,1,233.395,224.636Zm0,9.324a1.584,1.584,0,1,1-1.7,1.579A1.646,1.646,0,0,1,233.395,233.96Zm0,9.318a1.3,1.3,0,1,1-1.4,1.3A1.354,1.354,0,0,1,233.395,243.278Zm0,9.341a1,1,0,1,1,0,2,1,1,0,1,1,0-2Zm0,9.4a.65.65,0,1,1-.7.648A.677.677,0,0,1,233.395,262.014Zm0,9.395a.309.309,0,0,1,.323.294.315.315,0,0,1-.323.307.31.31,0,0,1-.317-.307A.3.3,0,0,1,233.395,271.409Zm9.71-110.951a2.744,2.744,0,1,1-2.935,2.741A2.836,2.836,0,0,1,243.105,160.458Zm0,9.147a2.641,2.641,0,1,1-2.828,2.635A2.726,2.726,0,0,1,243.105,169.605Zm0,9.123a2.562,2.562,0,1,1-2.745,2.553A2.649,2.649,0,0,1,243.105,178.729Zm0,9.177a2.416,2.416,0,1,1-2.581,2.416A2.5,2.5,0,0,1,243.105,187.906Zm0,9.2a2.263,2.263,0,1,1-2.423,2.257A2.339,2.339,0,0,1,243.105,197.106Zm0,9.241a2.065,2.065,0,1,1-2.214,2.057A2.136,2.136,0,0,1,243.105,206.347Zm0,9.253a1.859,1.859,0,1,1-2,1.856A1.928,1.928,0,0,1,243.105,215.6Zm0,9.295a1.607,1.607,0,1,1-1.721,1.591A1.665,1.665,0,0,1,243.105,224.9Zm0,9.288a1.359,1.359,0,1,1-1.455,1.356A1.41,1.41,0,0,1,243.105,234.183Zm0,9.324a1.075,1.075,0,1,1,0,2.146,1.076,1.076,0,1,1,0-2.146Zm0,9.336a.78.78,0,1,1-.835.778A.808.808,0,0,1,243.105,252.843Zm0,9.372a.465.465,0,0,1,.481.448.474.474,0,0,1-.481.459.483.483,0,0,1-.495-.459A.473.473,0,0,1,243.105,262.215Zm.082,9.489a.082.082,0,1,1-.165,0,.083.083,0,0,1,.165,0ZM252.8,151.671a2.487,2.487,0,1,1-2.663,2.475A2.582,2.582,0,0,1,252.8,151.671Zm0,9.076a2.458,2.458,0,1,1-2.638,2.452A2.546,2.546,0,0,1,252.8,160.747Zm0,9.111a2.387,2.387,0,1,1-2.55,2.381A2.48,2.48,0,0,1,252.8,169.859Zm0,9.147a2.287,2.287,0,1,1-2.449,2.275A2.364,2.364,0,0,1,252.8,179.006Zm0,9.195a2.133,2.133,0,1,1-2.285,2.121A2.215,2.215,0,0,1,252.8,188.2Zm0,9.194a1.979,1.979,0,1,1-2.119,1.969A2.046,2.046,0,0,1,252.8,197.394Zm0,9.206a1.811,1.811,0,1,1-1.936,1.8A1.865,1.865,0,0,1,252.8,206.6Zm0,9.271a1.586,1.586,0,1,1-1.7,1.585A1.652,1.652,0,0,1,252.8,215.871Zm0,9.259a1.359,1.359,0,1,1-1.455,1.355A1.408,1.408,0,0,1,252.8,225.131Zm0,9.3a1.108,1.108,0,1,1-1.177,1.108A1.14,1.14,0,0,1,252.8,234.431Zm0,9.324a.83.83,0,1,1-.88.825A.854.854,0,0,1,252.8,243.755Zm0,9.335a.531.531,0,1,1-.563.531A.55.55,0,0,1,252.8,253.091Zm0,9.372a.212.212,0,0,1,.221.2.217.217,0,0,1-.221.206.21.21,0,0,1-.209-.206A.2.2,0,0,1,252.8,262.462Zm9.71-110.5a2.192,2.192,0,1,1-2.34,2.18A2.275,2.275,0,0,1,262.513,151.965Zm0,9.1a2.133,2.133,0,1,1-2.29,2.134A2.216,2.216,0,0,1,262.513,161.065Zm0,9.117a2.06,2.06,0,1,1-2.208,2.057A2.138,2.138,0,0,1,262.513,170.183Zm0,9.112a1.988,1.988,0,1,1-2.125,1.986A2.066,2.066,0,0,1,262.513,179.295Zm0,9.194a1.835,1.835,0,1,1-1.967,1.833A1.909,1.909,0,0,1,262.513,188.489Zm0,9.2a1.684,1.684,0,1,1-1.8,1.673A1.747,1.747,0,0,1,262.513,197.69Zm0,9.217a1.507,1.507,0,1,1-1.613,1.5A1.555,1.555,0,0,1,262.513,206.907Zm0,9.241a1.309,1.309,0,1,1-1.4,1.309A1.355,1.355,0,0,1,262.513,216.148Zm0,9.266a1.081,1.081,0,1,1-1.157,1.072A1.117,1.117,0,0,1,262.513,225.414Zm0,9.306a.847.847,0,0,1,.885.819.892.892,0,1,1-.885-.819Zm0,9.306a.555.555,0,1,1,0,1.108.555.555,0,1,1,0-1.108Zm0,9.341a.27.27,0,0,1,.272.254.265.265,0,0,1-.272.253.255.255,0,0,1-.265-.253A.259.259,0,0,1,262.513,253.368Zm9.71-101.078a1.867,1.867,0,1,1-1.993,1.856A1.933,1.933,0,0,1,272.223,152.289Zm0,9.106a1.808,1.808,0,1,1-1.942,1.8A1.873,1.873,0,0,1,272.223,161.4Zm0,9.094a1.758,1.758,0,1,1-1.885,1.751A1.818,1.818,0,0,1,272.223,170.489Zm0,9.142a1.711,1.711,0,0,1,1.771,1.65,1.783,1.783,0,1,1-1.771-1.65Zm0,9.188a1.507,1.507,0,1,1-1.62,1.5A1.564,1.564,0,0,1,272.223,188.819Zm0,9.171a1.38,1.38,0,1,1-1.486,1.373A1.433,1.433,0,0,1,272.223,197.99Zm0,9.211a1.211,1.211,0,1,1-1.3,1.2A1.254,1.254,0,0,1,272.223,207.2Zm0,9.242a1.01,1.01,0,1,1-1.081,1.013A1.04,1.04,0,0,1,272.223,216.444Zm0,9.277a.774.774,0,1,1,0,1.544.775.775,0,1,1,0-1.544Zm0,9.288a.546.546,0,0,1,.562.531.563.563,0,0,1-1.125,0A.543.543,0,0,1,272.223,235.008Zm0,9.318a.259.259,0,0,1,.266.254.27.27,0,0,1-.538,0A.261.261,0,0,1,272.223,244.327Zm9.7-91.677a1.507,1.507,0,1,1-1.62,1.5A1.566,1.566,0,0,1,281.927,152.649Zm0,9.064a1.483,1.483,0,1,1-1.594,1.485A1.542,1.542,0,0,1,281.927,161.714Zm0,9.123a1.406,1.406,0,1,1-1.506,1.4A1.46,1.46,0,0,1,281.927,170.837Zm0,9.136a1.309,1.309,0,1,1-1.4,1.309A1.358,1.358,0,0,1,281.927,179.973Zm0,9.177a1.179,1.179,0,1,1-1.266,1.173A1.213,1.213,0,0,1,281.927,189.149Zm0,9.189a1.028,1.028,0,1,1-1.107,1.025A1.066,1.066,0,0,1,281.927,198.338Zm0,9.194a.9.9,0,0,1,.936.872.942.942,0,1,1-.936-.872Zm0,9.265a.656.656,0,1,1-.7.66A.681.681,0,0,1,281.927,216.8Zm0,9.247a.452.452,0,1,1,0,.9.452.452,0,1,1,0-.9Zm0,9.283a.221.221,0,0,1,.215.212.211.211,0,0,1-.215.2.206.206,0,0,1-.216-.2A.216.216,0,0,1,281.927,235.327Zm9.7-73.23a1.143,1.143,0,0,1,1.183,1.1,1.189,1.189,0,1,1-1.183-1.1Zm0,9.083a1.063,1.063,0,1,1-1.132,1.061A1.1,1.1,0,0,1,291.63,171.179Zm0,9.147a.99.99,0,0,1,1.019.955,1.024,1.024,0,0,1-2.043,0A1,1,0,0,1,291.63,180.326Zm0,9.171a.827.827,0,1,1-.885.825A.856.856,0,0,1,291.63,189.5Zm0,9.195a.674.674,0,1,1-.727.672A.694.694,0,0,1,291.63,198.692Zm0,9.217a.5.5,0,1,1,0,1,.5.5,0,1,1,0-1Zm0,9.242a.314.314,0,0,1,.323.306.309.309,0,0,1-.323.3.3.3,0,0,1-.322-.3A.31.31,0,0,1,291.63,217.151Zm.083,9.335a.082.082,0,0,1-.083.083.074.074,0,0,1-.075-.083c0-.035.025-.059.075-.059S291.713,226.451,291.713,226.486Zm9.621-63.995a.709.709,0,1,1-.753.707A.737.737,0,0,1,301.335,162.491Zm0,9.088a.656.656,0,1,1-.7.66A.678.678,0,0,1,301.335,171.58Zm0,9.147a.553.553,0,1,1,0,1.1.552.552,0,1,1,0-1.1Zm0,9.147a.462.462,0,0,1,.481.448.47.47,0,0,1-.481.454.475.475,0,0,1-.487-.454A.467.467,0,0,1,301.335,189.874Zm0,9.195a.318.318,0,0,1,.329.294.326.326,0,0,1-.652,0A.316.316,0,0,1,301.335,199.069Zm.164,9.335a.162.162,0,0,1-.322,0,.163.163,0,0,1,.322,0Zm9.547-54.6a.349.349,0,1,1-.379.342A.362.362,0,0,1,311.045,153.8Zm0,9.088a.315.315,0,0,1,.322.307.326.326,0,1,1-.322-.307Zm0,9.088a.275.275,0,0,1,.271.259.261.261,0,0,1-.271.248.253.253,0,0,1-.272-.248A.266.266,0,0,1,311.045,171.981Zm.183,9.3a.187.187,0,0,1-.183.177.185.185,0,0,1-.19-.177.181.181,0,0,1,.19-.177A.183.183,0,0,1,311.228,181.281Zm-.132,9.041a.048.048,0,0,1-.051.048c-.038,0-.057-.012-.057-.048a.05.05,0,0,1,.057-.047A.058.058,0,0,1,311.1,190.322Z" transform="translate(1116.528 -97.958)" fill="#fff" fill-rule="evenodd" opacity="0.19"/>
      <g id="Grupo_154302" data-name="Grupo 154302" transform="translate(468.745 141.348)" opacity="0.09">
        <path id="Trazado_174290" data-name="Trazado 174290" d="M59.688,315.342-111.288,486.318a14.937,14.937,0,0,1-21.126,0h0a14.939,14.939,0,0,1,0-21.126L38.562,294.215a14.939,14.939,0,0,1,21.126,0h0A14.939,14.939,0,0,1,59.688,315.342Z" transform="translate(136.79 -289.84)" fill="none" stroke="#8f9294" stroke-miterlimit="10" stroke-width="2"/>
        <path id="Trazado_174291" data-name="Trazado 174291" d="M57.955,407.627l-130.5,130.5a11.4,11.4,0,0,1-16.125,0h0a11.4,11.4,0,0,1,0-16.126l130.5-130.5a11.4,11.4,0,0,1,16.126,0h0A11.4,11.4,0,0,1,57.955,407.627Z" transform="translate(128.113 -308.893)" fill="none" stroke="#8f9294" stroke-miterlimit="10" stroke-width="2"/>
      </g>
    </g>
  </g>
</svg>
