<svg xmlns="http://www.w3.org/2000/svg" width="40.189" height="37.92" viewBox="0 0 40.189 37.92">
  <g id="Design-elements" transform="translate(0)">
    <path id="dots-03" d="M34.465,35.062a2.862,2.862,0,1,1,2.862,2.857A2.859,2.859,0,0,1,34.465,35.062Zm-17.233,0a2.857,2.857,0,1,1,2.858,2.857A2.857,2.857,0,0,1,17.232,35.062ZM0,35.062A2.855,2.855,0,1,1,2.855,37.92,2.855,2.855,0,0,1,0,35.062Zm34.465-16.1a2.862,2.862,0,1,1,2.862,2.858A2.859,2.859,0,0,1,34.465,18.966Zm-17.233,0a2.857,2.857,0,1,1,2.858,2.858A2.857,2.857,0,0,1,17.232,18.966ZM0,18.966a2.855,2.855,0,1,1,2.855,2.858A2.855,2.855,0,0,1,0,18.966Zm34.465-16.1a2.862,2.862,0,1,1,2.862,2.861A2.862,2.862,0,0,1,34.465,2.862Zm-17.233,0a2.857,2.857,0,1,1,2.858,2.861A2.86,2.86,0,0,1,17.232,2.862ZM0,2.862A2.855,2.855,0,1,1,2.855,5.723,2.858,2.858,0,0,1,0,2.862Z" transform="translate(0 0)" fill="#12263f"/>
  </g>
</svg>
