<svg id="Grupo_155647" data-name="Grupo 155647" xmlns="http://www.w3.org/2000/svg" xmlns:xlink="http://www.w3.org/1999/xlink" width="87.339" height="87.338" viewBox="0 0 87.339 87.338">
  <defs>
    <radialGradient id="radial-gradient" cx="0.076" cy="0.019" r="1.465" gradientTransform="translate(0.001)" gradientUnits="objectBoundingBox">
      <stop offset="0" stop-color="#f6f6f7"/>
      <stop offset="0.477" stop-color="#f9f9fa"/>
      <stop offset="0.715" stop-color="#fff"/>
    </radialGradient>
  </defs>
  <g id="Grupo_18423" data-name="Grupo 18423" transform="translate(0 0)">
    <g id="Grupo_18421" data-name="Grupo 18421">
      <g id="Grupo_18420" data-name="Grupo 18420">
        <g id="Grupo_18419" data-name="Grupo 18419">
          <path id="Trazado_40936" data-name="Trazado 40936" d="M281.962,2189.389a43.669,43.669,0,1,1-43.669-43.668A43.669,43.669,0,0,1,281.962,2189.389Z" transform="translate(-194.623 -2145.721)" fill="#fff"/>
        </g>
      </g>
    </g>
    <path id="Trazado_40937" data-name="Trazado 40937" d="M281.7,2189.1a43.669,43.669,0,1,0-43.669,43.67A43.5,43.5,0,0,0,281.7,2189.1Z" transform="translate(-194.361 -2145.436)" fill="url(#radial-gradient)"/>
    <path id="Trazado_40938" data-name="Trazado 40938" d="M269.1,2186.859a33.332,33.332,0,1,0-33.333,33.333A33.209,33.209,0,0,0,269.1,2186.859Z" transform="translate(-191.968 -2143.046)" fill="none" stroke="#1565c0" stroke-miterlimit="10" stroke-width="4"/>
    <g id="Grupo_18422" data-name="Grupo 18422" transform="translate(7.736 24.517)">
      <path id="Trazado_40939" data-name="Trazado 40939" d="M275.732,2164.488a43.675,43.675,0,0,1-75.187,43.488,43.536,43.536,0,0,0,75.187-43.488Z" transform="translate(-200.545 -2164.488)" fill="#eceef0"/>
    </g>
    <g id="Grupo_155653" data-name="Grupo 155653">
      <g id="Tt8Ur4.tif" transform="translate(-2884.503 -3517.171)">
        <g id="Grupo_155652" data-name="Grupo 155652" transform="translate(2907.598 3539.089)">
          <path id="Trazado_198005" data-name="Trazado 198005" d="M3061.457,3655.764a10.4,10.4,0,1,1,10.412-10.509A10.38,10.38,0,0,1,3061.457,3655.764Zm-.011-19.2a8.8,8.8,0,1,0,8.824,8.686A8.834,8.834,0,0,0,3061.446,3636.568Z" transform="translate(-3036.698 -3625.363)" fill="#12263f"/>
          <path id="Trazado_198006" data-name="Trazado 198006" d="M3269.039,3855.995l3.14-3.143c1.349.854,2.777,1.675,4.108,2.629a3.041,3.041,0,0,1,1.2,3.4,3.308,3.308,0,0,1-5.966,1.054C3270.652,3858.641,3269.854,3857.3,3269.039,3855.995Z" transform="translate(-3232.821 -3821.411)" fill="#12263f"/>
          <path id="Trazado_198007" data-name="Trazado 198007" d="M3208.7,3798.184a12.311,12.311,0,0,0,5.285-5.267c.4.4.786.738,1.106,1.13a1.031,1.031,0,0,1-.1,1.41q-1.832,1.871-3.7,3.7a1.092,1.092,0,0,1-1.574,0C3209.382,3798.866,3209.074,3798.546,3208.7,3798.184Z" transform="translate(-3178.529 -3767.482)" fill="#12263f"/>
          <path id="Trazado_198008" data-name="Trazado 198008" d="M3212.607,3872.231h-1.537v-1.994l1.537.5Z" transform="translate(-3180.66 -3837.054)" fill="#12263f"/>
          <path id="Trazado_198009" data-name="Trazado 198009" d="M3260.375,3843.075l.729.741-1.24,1.154-.724-.733Z" transform="translate(-3223.914 -3812.614)" fill="#12263f"/>
          <path id="Trazado_198010" data-name="Trazado 198010" d="M2992.147,3543.092a2.4,2.4,0,0,1-1,3.845,3.062,3.062,0,0,1-.827.154c-.748.021-1.5.017-2.245.006a.823.823,0,0,1-.922-.882q-.017-3.118,0-6.237a.812.812,0,0,1,.876-.876c.648-.016,1.3.009,1.946-.008a2.48,2.48,0,0,1,2.466,1.274A2.375,2.375,0,0,1,2992.147,3543.092Zm-3.374-.8c.572,0,1.1.016,1.63-.005a.792.792,0,0,0,.021-1.58c-.542-.024-1.086-.006-1.651-.006Zm0,3.2c.585,0,1.116.018,1.645-.006a.753.753,0,0,0,.728-.792.718.718,0,0,0-.681-.78c-.555-.045-1.116-.011-1.692-.011Z" transform="translate(-2979.174 -3539.092)" fill="#12263f"/>
          <path id="Trazado_198011" data-name="Trazado 198011" d="M2928.84,3547.076h-1.58v-2.351h-2.372v2.337h-1.616a18.591,18.591,0,0,1,.3-4.845c.2-.77.322-1.56.482-2.34a.84.84,0,0,1,.929-.781q1.073-.016,2.146,0a.843.843,0,0,1,.932.779c.261,1.285.6,2.561.749,3.858A29.747,29.747,0,0,1,2928.84,3547.076Zm-2.224-6.378c-.315,0-.582-.017-.844.008-.1.01-.271.094-.288.172-.161.72-.3,1.447-.442,2.191h2.045Z" transform="translate(-2921.686 -3539.089)" fill="#12263f"/>
          <path id="Trazado_198012" data-name="Trazado 198012" d="M3056.521,3542.392h-1.6c0-.261.007-.5,0-.747a.778.778,0,0,0-.847-.833c-1.187-.034-1.621-.059-1.553,1.483.035.8,0,1.6.008,2.4,0,.628.286.9.918.913.15,0,.3,0,.45,0,.766,0,1.022-.254,1.026-1.007,0-.18,0-.36,0-.565h1.525a2.468,2.468,0,0,1-2.15,3.158,5.29,5.29,0,0,1-1.392-.048,2.333,2.333,0,0,1-1.975-2.3c-.027-1.1-.029-2.2,0-3.3a2.3,2.3,0,0,1,1.949-2.264,5.216,5.216,0,0,1,1.683,0,2.321,2.321,0,0,1,1.953,2.212C3056.537,3541.774,3056.521,3542.058,3056.521,3542.392Z" transform="translate(-3036.55 -3539.201)" fill="#12263f"/>
          <path id="Trazado_198013" data-name="Trazado 198013" d="M2923.624,3844.321H2907.68v-1.556h15.944Z" transform="translate(-2907.672 -3812.335)" fill="#12263f"/>
          <path id="Trazado_198014" data-name="Trazado 198014" d="M2918.883,3651.242v1.543h-11.139v-1.543Z" transform="translate(-2907.729 -3640.003)" fill="#12263f"/>
          <path id="Trazado_198015" data-name="Trazado 198015" d="M2918.886,3683.176v1.542h-11.139v-1.542Z" transform="translate(-2907.732 -3668.737)" fill="#12263f"/>
          <path id="Trazado_198016" data-name="Trazado 198016" d="M2918.856,3716.654h-11.121V3715.1h11.121Z" transform="translate(-2907.721 -3697.458)" fill="#12263f"/>
          <path id="Trazado_198017" data-name="Trazado 198017" d="M2918.741,3748.608H2907.6v-1.542h11.143Z" transform="translate(-2907.598 -3726.225)" fill="#12263f"/>
          <path id="Trazado_198018" data-name="Trazado 198018" d="M2907.713,3778.833h11.138v1.542h-11.138Z" transform="translate(-2907.701 -3754.809)" fill="#12263f"/>
          <path id="Trazado_198019" data-name="Trazado 198019" d="M2918.87,3810.884v1.546h-11.139v-1.546Z" transform="translate(-2907.718 -3783.648)" fill="#12263f"/>
          <path id="Trazado_198020" data-name="Trazado 198020" d="M3083.006,3674.065a7.2,7.2,0,1,1,7.178,7.229A7.184,7.184,0,0,1,3083.006,3674.065Zm4.778-.744h-1.553v1.544h1.553Zm3.188,1.568v-1.556h-1.53v1.556Zm3.208-1.565h-1.547v1.539h1.547Z" transform="translate(-3065.429 -3654.093)" fill="#12263f"/>
        </g>
      </g>
    </g>
  </g>
</svg>
