<svg id="Grupo_155641" data-name="Grupo 155641" xmlns="http://www.w3.org/2000/svg" xmlns:xlink="http://www.w3.org/1999/xlink" width="87.339" height="87.338" viewBox="0 0 87.339 87.338">
  <defs>
    <radialGradient id="radial-gradient" cx="0.076" cy="0.019" r="1.465" gradientTransform="translate(0.001)" gradientUnits="objectBoundingBox">
      <stop offset="0" stop-color="#f6f6f7"/>
      <stop offset="0.477" stop-color="#f9f9fa"/>
      <stop offset="0.715" stop-color="#fff"/>
    </radialGradient>
  </defs>
  <g id="Grupo_18423" data-name="Grupo 18423" transform="translate(0 0)">
    <g id="Grupo_18421" data-name="Grupo 18421">
      <g id="Grupo_18420" data-name="Grupo 18420">
        <g id="Grupo_18419" data-name="Grupo 18419">
          <path id="Trazado_40936" data-name="Trazado 40936" d="M281.962,2189.389a43.669,43.669,0,1,1-43.669-43.668A43.669,43.669,0,0,1,281.962,2189.389Z" transform="translate(-194.623 -2145.721)" fill="#fff"/>
        </g>
      </g>
    </g>
    <path id="Trazado_40937" data-name="Trazado 40937" d="M281.7,2189.1a43.669,43.669,0,1,0-43.669,43.67A43.5,43.5,0,0,0,281.7,2189.1Z" transform="translate(-194.361 -2145.436)" fill="url(#radial-gradient)"/>
    <path id="Trazado_40938" data-name="Trazado 40938" d="M269.1,2186.859a33.332,33.332,0,1,0-33.333,33.333A33.209,33.209,0,0,0,269.1,2186.859Z" transform="translate(-191.968 -2143.046)" fill="none" stroke="#1565c0" stroke-miterlimit="10" stroke-width="4"/>
    <g id="Grupo_18422" data-name="Grupo 18422" transform="translate(7.736 24.517)">
      <path id="Trazado_40939" data-name="Trazado 40939" d="M275.732,2164.488a43.675,43.675,0,0,1-75.187,43.488,43.536,43.536,0,0,0,75.187-43.488Z" transform="translate(-200.545 -2164.488)" fill="#eceef0"/>
    </g>
    <g id="NnO7sD.tif" transform="translate(-2853.125 -4981.02)">
      <g id="Grupo_155650" data-name="Grupo 155650" transform="translate(2875.399 5003.667)">
        <path id="Trazado_197985" data-name="Trazado 197985" d="M2901.916,5046.939h-21.022c.068-.6.1-1.216.21-1.814a13.865,13.865,0,0,1,6.03-9.4,1.594,1.594,0,0,0,.84-1.675c-.064-.638-.013-1.287-.013-1.971l-3.5.782a3.837,3.837,0,0,1-4.819-3.126,12.655,12.655,0,0,1-.049-2c-.006-1.027,0-2.054,0-3.125-.312,0-.585,0-.857,0a1.861,1.861,0,0,1-1.8-2.582c.858-2.277,1.743-4.543,2.616-6.815.061-.158.112-.319.171-.491-.15-.053-.257-.094-.366-.129a5.535,5.535,0,0,1-3.749-3.8c-.078-.244-.137-.494-.205-.742v-1.569a1.043,1.043,0,0,0,.083-.194,5.489,5.489,0,0,1,3.625-4.278,4.35,4.35,0,0,1,5.7,2.165l.132.285h15.551a1.437,1.437,0,0,1,1.605-1.377h15a1.393,1.393,0,0,1,1.566,1.548q0,4.708,0,9.416a1.408,1.408,0,0,1-1.612,1.59h-11.182a9.2,9.2,0,0,1-1.182,6.98h12.406a1.4,1.4,0,0,1,1.571,1.587q0,4.686,0,9.372a1.408,1.408,0,0,1-1.607,1.6h-16.607a5.555,5.555,0,0,1,1.479,4.408C2901.873,5043.363,2901.915,5045.152,2901.916,5046.939Zm-5.53-11.148c-.333-2.79.225-5.278,2.58-7.118-3.9.561-7.105-.557-9.353-3.766-2.261-3.228-2.172-6.637-.266-10.062-2.661,0-5.277,0-7.893-.007-.258,0-.311.146-.38.325q-1.38,3.593-2.761,7.185c-.235.611-.055.87.6.872.678,0,1.355,0,2.081,0v2.79c1.618,0,3.187,0,4.756,0a2.073,2.073,0,0,1,2.2,2.21c0,.794,0,1.588,0,2.406.318-.066.585-.133.855-.173a1.007,1.007,0,0,0,.925-.839,10.312,10.312,0,0,1,.357-1.037l1.305.43c-.356,1.2-.57,2.451-2.032,2.766v2.663l.705-.285c.581-.235.676-.376.677-1.012,0-.5,0-1.008,0-1.515h1.388c0,.684.044,1.34-.011,1.988a2.054,2.054,0,0,1-1.464,1.824,12.787,12.787,0,0,0-8.191,10.083h9.674v-.5c0-1.468-.009-2.936.007-4.4a4.479,4.479,0,0,1,.138-1.118A4.941,4.941,0,0,1,2896.386,5035.791Zm4.133-.043h16.715v-9.739h-.515c-4.419,0-8.839-.006-13.258.01a.768.768,0,0,1-.857-.514c-.274-.654-.624-1.277-.946-1.911a.561.561,0,0,0-.675-.345.6.6,0,0,0-.462.612c0,.116,0,.233,0,.349v11.538Zm4.03-16.892c-.094.177-.183.358-.282.532a2.023,2.023,0,0,1-2.247,1.021,1.994,1.994,0,0,1-1.524-2.02c0-1.685.008-3.37.035-5.055a.559.559,0,0,0-.406-.608,7.658,7.658,0,0,0-6.783,13.719,7.492,7.492,0,0,0,5.784.651c0-.168,0-.311,0-.454-.009-.973-.028-1.946-.025-2.919a1.975,1.975,0,0,1,1.49-1.867,1.9,1.9,0,0,1,2.158.817c.241.393.44.811.683,1.263A7.062,7.062,0,0,0,2904.548,5018.855Zm-23.587-11.015c-.134.037-.247.064-.357.1a1.4,1.4,0,0,0-1.006,1.492,1.428,1.428,0,0,0,1.463,1.227,2.8,2.8,0,0,0,2.573-3.621,2.907,2.907,0,0,0-3.351-1.9,4.217,4.217,0,0,0-3.436,4.66,4.173,4.173,0,0,0,4.249,3.649q4.534.017,9.068-.007a.919.919,0,0,0,.561-.237,8.947,8.947,0,0,1,8.071-2.366c.574.106,1.133.3,1.7.446V5007.9h-15.306a4.233,4.233,0,0,1-3.135,4.021,2.865,2.865,0,0,1-3.854-2.886,2.72,2.72,0,0,1,2.765-2.516Zm20.974-1.349c-.009.092-.02.148-.02.2q0,5.8,0,11.6a.632.632,0,0,0,.5.716c.332.068.54-.133.682-.42.328-.663.679-1.315.985-1.988a.549.549,0,0,1,.594-.365q6.04.015,12.08.007h.492v-9.751Zm-1.413,39.036c0-.194,0-.352,0-.509,0-1.539.071-3.084-.033-4.616a3.429,3.429,0,0,0-4.119-3.152,3.482,3.482,0,0,0-2.825,3.44c-.017,1.5,0,2.991,0,4.487,0,.112.013.223.021.351Zm-13.956-14.575c0-.892,0-1.76,0-2.628,0-.669-.252-.92-.921-.92q-2.155,0-4.31,0c-.11,0-.221.02-.347.031,0,.636-.034,1.245.007,1.85a2.422,2.422,0,0,0,2.656,2.282C2884.618,5031.413,2885.571,5031.166,2886.566,5030.953Zm12.553-.416c-1.535,1.554-1.445,3.417-1.367,5.252l1.367.417Z" transform="translate(-2875.399 -5003.667)" fill="#12263f"/>
        <path id="Trazado_197986" data-name="Trazado 197986" d="M2940.844,5179.553c.234.905.719,1.365,1.423,1.363s1.182-.458,1.427-1.393H2945a2.714,2.714,0,0,1-2.5,2.784,2.766,2.766,0,0,1-3.01-2.754Z" transform="translate(-2933.891 -5164.156)" fill="#12263f"/>
        <path id="Trazado_197987" data-name="Trazado 197987" d="M3084.7,5307.533v1.338h-1.346v-1.338Z" transform="translate(-3065.181 -5280.98)" fill="#12263f"/>
        <path id="Trazado_197988" data-name="Trazado 197988" d="M3083.417,5339.409h1.335v1.353h-1.335Z" transform="translate(-3065.24 -5310.071)" fill="#12263f"/>
        <path id="Trazado_197989" data-name="Trazado 197989" d="M3231.224,5278.386v-2.742h1.358v6.916h-5.519v-6.909h1.363v2.735Zm-2.773,2.781h2.74v-1.344h-2.74Z" transform="translate(-3196.334 -5251.878)" fill="#12263f"/>
        <path id="Trazado_197990" data-name="Trazado 197990" d="M3195.191,5275.562h1.34v4.126h-1.34Z" transform="translate(-3167.247 -5251.803)" fill="#12263f"/>
        <path id="Trazado_197991" data-name="Trazado 197991" d="M3308.313,5275.631v4.123h-1.344v-4.123Z" transform="translate(-3269.257 -5251.866)" fill="#12263f"/>
        <path id="Trazado_197992" data-name="Trazado 197992" d="M3196.573,5339.552v1.34h-1.338v-1.34Z" transform="translate(-3167.287 -5310.201)" fill="#12263f"/>
        <path id="Trazado_197993" data-name="Trazado 197993" d="M3306.882,5339.4h1.343v1.35h-1.343Z" transform="translate(-3269.178 -5310.063)" fill="#12263f"/>
        <path id="Trazado_197994" data-name="Trazado 197994" d="M3058.351,5128.49h-1.419c-.01-.147-.028-.3-.028-.45,0-1.147-.007-2.3,0-3.443a.559.559,0,0,0-.284-.517,4.021,4.021,0,0,1-.846-.846.559.559,0,0,0-.517-.284c-1.133.011-2.267,0-3.4,0h-.489v-1.425c.164-.008.318-.022.472-.022,1.148,0,2.3.009,3.443-.014a.865.865,0,0,0,.464-.267c.306-.278.566-.614.895-.86a.526.526,0,0,0,.261-.485c-.01-1.133,0-2.267,0-3.4v-.5h1.422c.009.145.025.3.026.45,0,1.133.007,2.266,0,3.4a.527.527,0,0,0,.3.55,2.086,2.086,0,0,1,.016,3.69.531.531,0,0,0-.314.541C3058.358,5125.89,3058.351,5127.167,3058.351,5128.49Zm-1.386-6.25a.732.732,0,0,0,.65.652.72.72,0,0,0,.674-.673.731.731,0,0,0-.65-.652A.719.719,0,0,0,3056.964,5122.241Z" transform="translate(-3035.994 -5106.167)" fill="#12263f"/>
        <path id="Trazado_197995" data-name="Trazado 197995" d="M3278.749,5055.188a2.086,2.086,0,0,1,.287,2.316,1.945,1.945,0,0,1-1.72,1.155c-.724.035-1.451.007-2.212.007v-6.936a15.131,15.131,0,0,1,2.49.024,2.06,2.06,0,0,1,1.31,3.194Zm-2.272-.709c.5-.01,1.022.146,1.274-.39a.822.822,0,0,0-.045-.681c-.293-.459-.777-.316-1.229-.3Zm.017,1.416v1.352c.9.088,1.331-.118,1.359-.639S3277.456,5055.844,3276.494,5055.895Z" transform="translate(-3240.176 -5047.491)" fill="#12263f"/>
        <path id="Trazado_197996" data-name="Trazado 197996" d="M3214.986,5058.743h-1.372v-1.355h-1.4v1.332h-1.383c-.008-.106-.024-.217-.024-.329,0-1.5,0-2.994,0-4.491a2.091,2.091,0,1,1,4.181.014C3214.989,5055.51,3214.986,5057.106,3214.986,5058.743Zm-1.422-2.787c0-.749.031-1.5-.014-2.24a.6.6,0,0,0-.651-.532.617.617,0,0,0-.671.563c-.045.731-.014,1.466-.014,2.208Z" transform="translate(-3181.493 -5047.576)" fill="#12263f"/>
      </g>
    </g>
  </g>
</svg>
