<svg id="Grupo_155241" data-name="Grupo 155241" xmlns="http://www.w3.org/2000/svg" xmlns:xlink="http://www.w3.org/1999/xlink" width="87.339" height="87.338" viewBox="0 0 87.339 87.338">
  <defs>
    <radialGradient id="radial-gradient" cx="0.076" cy="0.019" r="1.465" gradientTransform="translate(0.001)" gradientUnits="objectBoundingBox">
      <stop offset="0" stop-color="#f6f6f7"/>
      <stop offset="0.477" stop-color="#f9f9fa"/>
      <stop offset="0.715" stop-color="#fff"/>
    </radialGradient>
  </defs>
  <g id="Grupo_18423" data-name="Grupo 18423" transform="translate(0 0)">
    <g id="Grupo_18421" data-name="Grupo 18421">
      <g id="Grupo_18420" data-name="Grupo 18420">
        <g id="Grupo_18419" data-name="Grupo 18419">
          <path id="Trazado_40936" data-name="Trazado 40936" d="M281.962,2189.389a43.669,43.669,0,1,1-43.669-43.668A43.669,43.669,0,0,1,281.962,2189.389Z" transform="translate(-194.623 -2145.721)" fill="#fff"/>
        </g>
      </g>
    </g>
    <path id="Trazado_40937" data-name="Trazado 40937" d="M281.7,2189.1a43.669,43.669,0,1,0-43.669,43.67A43.5,43.5,0,0,0,281.7,2189.1Z" transform="translate(-194.361 -2145.436)" fill="url(#radial-gradient)"/>
    <path id="Trazado_40938" data-name="Trazado 40938" d="M269.1,2186.859a33.332,33.332,0,1,0-33.333,33.333A33.209,33.209,0,0,0,269.1,2186.859Z" transform="translate(-191.968 -2143.046)" fill="none" stroke="#1565c0" stroke-miterlimit="10" stroke-width="4"/>
    <g id="Grupo_18422" data-name="Grupo 18422" transform="translate(7.736 24.517)">
      <path id="Trazado_40939" data-name="Trazado 40939" d="M275.732,2164.488a43.675,43.675,0,0,1-75.187,43.488,43.536,43.536,0,0,0,75.187-43.488Z" transform="translate(-200.545 -2164.488)" fill="#eceef0"/>
    </g>
    <g id="A97cir.tif" transform="translate(-2114.285 -3632.783)">
      <g id="Grupo_155648" data-name="Grupo 155648" transform="translate(2140.792 3655.552)">
        <path id="Trazado_197961" data-name="Trazado 197961" d="M2285.071,3777.7c-.624-.138-1.255-.247-1.869-.421a9.691,9.691,0,0,1-2.806-1.363,1.523,1.523,0,0,0-.8-.257c-4.71-.015-9.42-.01-14.13-.013a3.08,3.08,0,0,1-.559-.042.588.588,0,0,1-.071-1.124,1.945,1.945,0,0,1,.553-.067q6.4-.005,12.8,0h.531a9.969,9.969,0,0,1-2.409-6.939h-.465q-2.214,0-4.428,0c-.506,0-.771-.219-.762-.615.009-.379.271-.589.753-.59q2.295,0,4.589,0h.457l.428-1.609h-.46q-2.5,0-4.992,0c-.514,0-.778-.21-.776-.6s.27-.6.781-.6q2.838,0,5.676,0a.47.47,0,0,0,.491-.236,9.632,9.632,0,0,1,8.136-4.909c.053,0,.106-.011.217-.023v-.465q0-6.623,0-13.246c0-.147-.007-.3.006-.443a.56.56,0,0,1,.572-.561.57.57,0,0,1,.617.515,2.113,2.113,0,0,1,.012.4q0,6.683,0,13.366v.459a21.629,21.629,0,0,1,2.25.64,9.547,9.547,0,0,1,6.2,7.773c.019.117.056.231.085.346V3769c-.063.324-.112.652-.192.972a9.611,9.611,0,0,1-7.149,7.425c-.446.125-.9.2-1.357.3Zm.952-18.163a8.47,8.47,0,1,0,8.454,8.363A8.481,8.481,0,0,0,2286.023,3759.534Z" transform="translate(-2254.472 -3736.462)" fill="#12263f"/>
        <path id="Trazado_197962" data-name="Trazado 197962" d="M2144.1,3661.679v4.792a2.489,2.489,0,0,1,1.458,1.153,4.533,4.533,0,0,1,.379,1.287.544.544,0,0,1-.538.655.585.585,0,0,1-.649-.569,1.393,1.393,0,0,0-.643-1.142c-.011.139-.026.237-.026.335,0,1.369,0,2.738-.006,4.107a.424.424,0,0,0,.309.473,2.5,2.5,0,0,1,1.565,2.323.61.61,0,0,1-.572.652.617.617,0,0,1-.624-.565,1.462,1.462,0,0,0-.624-1.16,1.645,1.645,0,0,0-.048.266c0,1.409,0,2.818-.007,4.228a.375.375,0,0,0,.281.4,2.475,2.475,0,0,1,1.587,2.227c.029.465-.168.719-.536.745s-.607-.184-.666-.639a1.355,1.355,0,0,0-.637-1.075c-.01.165-.023.288-.024.411,0,1.329.006,2.658-.006,3.986a.487.487,0,0,0,.337.538,2.433,2.433,0,0,1,1.532,2.219c.024.439-.2.719-.558.741a.639.639,0,0,1-.641-.638,1.418,1.418,0,0,0-.638-1.106v7.173h.428c1.369,0,2.737,0,4.106,0,.172,0,.393-.02.5.074.175.147.389.39.377.579s-.26.389-.446.53c-.1.075-.285.048-.431.049q-2.435,0-4.871,0c-.742,0-.932-.189-.934-.925,0-1.154-.006-2.309,0-3.462a.4.4,0,0,0-.321-.456,2.57,2.57,0,0,1,.019-4.862c.229-.08.327-.188.3-.428a2.382,2.382,0,0,1,0-.483c.021-.211-.073-.3-.266-.374a2.573,2.573,0,0,1-.013-4.892.336.336,0,0,0,.277-.4.876.876,0,0,1,0-.2c.058-.392-.069-.6-.48-.752a2.5,2.5,0,0,1-1.564-2.484,2.551,2.551,0,0,1,1.722-2.3c.242-.083.358-.187.325-.449a3.715,3.715,0,0,0-.014-.48.541.541,0,0,0-.236-.339,2.593,2.593,0,0,1,.019-4.943.534.534,0,0,0,.218-.313,2.26,2.26,0,0,0,.011-.359c.054-.348-.082-.5-.424-.626a2.567,2.567,0,0,1,.078-4.8.439.439,0,0,0,.348-.515c-.011-1.154-.008-2.308,0-3.462,0-.671.2-.866.859-.866h28.945c.651,0,.84.188.84.834,0,1.449,0,2.9,0,4.349a.616.616,0,0,1-.452.675.529.529,0,0,1-.655-.262,1.136,1.136,0,0,1-.1-.5c-.008-1.274,0-2.548,0-3.855h-28.2v.411c0,.9.011,1.8-.006,2.7a.509.509,0,0,0,.353.569,2.434,2.434,0,0,1,1.52,2.269.6.6,0,0,1-.537.682.628.628,0,0,1-.663-.611A1.418,1.418,0,0,0,2144.1,3661.679Zm-1.28,6.139a1.171,1.171,0,0,0-.812,1.115,1.241,1.241,0,0,0,.812,1.216Zm-.016,8.526v-2.422a1.271,1.271,0,0,0-.785,1.241A1.237,1.237,0,0,0,2142.8,3676.344Zm.012,3.789a1.23,1.23,0,0,0-.81,1.168,1.258,1.258,0,0,0,.81,1.177Zm0,6.142a1.29,1.29,0,0,0-.8,1.234,1.189,1.189,0,0,0,.8,1.116Zm-.01-22.287V3661.6a1.313,1.313,0,0,0-.789,1.245A1.2,1.2,0,0,0,2142.8,3663.987Z" transform="translate(-2140.792 -3655.552)" fill="#12263f"/>
        <path id="Trazado_197963" data-name="Trazado 197963" d="M2234.256,3738.477c0-.871,0-1.743,0-2.615,0-.6.2-.8.794-.8q2.634-.008,5.268,0c.581,0,.792.223.793.813q.006,2.614,0,5.229c0,.574-.236.812-.8.814q-2.634.007-5.268,0c-.557,0-.776-.223-.782-.784C2234.25,3740.247,2234.256,3739.362,2234.256,3738.477Zm1.243,2.166h4.36v-4.335h-4.36Z" transform="translate(-2226.714 -3728.642)" fill="#12263f"/>
        <path id="Trazado_197964" data-name="Trazado 197964" d="M2237.683,3860.963c-.885,0-1.77,0-2.655,0-.544,0-.771-.209-.773-.744q-.012-2.675,0-5.35c0-.546.215-.749.759-.75q2.654-.005,5.309,0c.559,0,.784.218.786.775q.008,2.635,0,5.27c0,.574-.234.8-.811.8C2239.426,3860.966,2238.555,3860.963,2237.683,3860.963Zm-2.182-5.62v4.372h4.352v-4.372Z" transform="translate(-2226.709 -3838.096)" fill="#12263f"/>
        <path id="Trazado_197965" data-name="Trazado 197965" d="M2237.661,3979.864c-.871,0-1.743,0-2.615,0-.579,0-.79-.192-.792-.757q-.011-2.655,0-5.31c0-.57.217-.774.781-.775q2.635,0,5.269,0c.575,0,.8.224.8.8q.007,2.615,0,5.229c0,.6-.221.808-.833.81Q2238.968,3979.865,2237.661,3979.864Zm2.18-1.218v-4.387h-4.33v4.387Z" transform="translate(-2226.709 -3947.407)" fill="#12263f"/>
        <path id="Trazado_197966" data-name="Trazado 197966" d="M2346.623,3871.061h4.264c.134,0,.269,0,.4.009a.557.557,0,0,1,.549.539.57.57,0,0,1-.481.643,1.422,1.422,0,0,1-.36.02h-8.769a1.4,1.4,0,0,1-.4-.027.561.561,0,0,1-.449-.626.554.554,0,0,1,.537-.547,3.438,3.438,0,0,1,.4-.01Z" transform="translate(-2325.194 -3853.674)" fill="#12263f"/>
        <path id="Trazado_197967" data-name="Trazado 197967" d="M2346.58,3753.219c-1.475,0-2.95,0-4.425,0-.482,0-.755-.214-.767-.584a.546.546,0,0,1,.464-.608,2.323,2.323,0,0,1,.479-.033q4.284,0,8.567,0c.107,0,.215,0,.322.006a.6.6,0,0,1,.632.592.611.611,0,0,1-.648.624c-.442.019-.885.006-1.327.006Z" transform="translate(-2325.204 -3744.21)" fill="#12263f"/>
        <path id="Trazado_197968" data-name="Trazado 197968" d="M2344.96,3788.04c-.791,0-1.581,0-2.372,0-.158,0-.368.018-.463-.071-.168-.155-.374-.391-.363-.582s.247-.4.431-.529c.11-.08.311-.046.47-.046q2.312,0,4.623,0c.094,0,.188,0,.281.005.407.034.669.271.67.605a.642.642,0,0,1-.706.617C2346.675,3788.047,2345.817,3788.039,2344.96,3788.04Z" transform="translate(-2325.548 -3776.214)" fill="#12263f"/>
        <path id="Trazado_197969" data-name="Trazado 197969" d="M2344.56,3907.18c-.871,0-1.742,0-2.613,0a.6.6,0,0,1-.634-.452.549.549,0,0,1,.294-.677.87.87,0,0,1,.384-.079q2.552-.007,5.1,0a.626.626,0,0,1,.707.6.635.635,0,0,1-.712.605C2346.248,3907.186,2345.4,3907.181,2344.56,3907.18Z" transform="translate(-2325.112 -3885.763)" fill="#12263f"/>
        <path id="Trazado_197970" data-name="Trazado 197970" d="M2448.882,3970.1a6.429,6.429,0,0,1,.994-3.242c.238-.4.573-.531.9-.357s.409.532.167.942a5.864,5.864,0,0,0-.841,3.217,5.471,5.471,0,1,0,2.649-4.962c-.555.327-.909.3-1.112-.075s-.055-.661.525-.993a6.689,6.689,0,1,1-2.217,9.382A6.748,6.748,0,0,1,2448.882,3970.1Z" transform="translate(-2424.02 -3938.843)" fill="#12263f"/>
        <path id="Trazado_197971" data-name="Trazado 197971" d="M2502.782,3990.5c0,.121.01.242,0,.362a1.061,1.061,0,0,0,.533,1.178,1.739,1.739,0,0,1,.557,2.219,1.84,1.84,0,0,1-2.091,1.035.461.461,0,0,0-.548.176,6.513,6.513,0,0,1-.586.661.629.629,0,0,1-.869.074.613.613,0,0,1-.051-.866,1.829,1.829,0,0,1,.183-.213,1.229,1.229,0,0,0,.468-1.366,1.622,1.622,0,0,1,.945-1.928.382.382,0,0,0,.239-.4q-.018-.924,0-1.849a.606.606,0,0,1,.489-.649.56.56,0,0,1,.663.33.989.989,0,0,1,.065.391C2502.788,3989.938,2502.781,3990.219,2502.782,3990.5Zm.038,2.969a.638.638,0,0,0-.658-.616.631.631,0,1,0,.027,1.263A.65.65,0,0,0,2502.82,3993.469Z" transform="translate(-2470.627 -3962.024)" fill="#12263f"/>
        <path id="Trazado_197972" data-name="Trazado 197972" d="M2255.467,3760.742c.426-.437.785-.817,1.158-1.183a.613.613,0,1,1,.873.843c-.5.52-1.014,1.033-1.536,1.534a.625.625,0,0,1-.96,0c-.245-.228-.481-.467-.71-.711a.615.615,0,0,1-.048-.925.6.6,0,0,1,.894.053A4.215,4.215,0,0,1,2255.467,3760.742Z" transform="translate(-2244.918 -3750.936)" fill="#12263f"/>
        <path id="Trazado_197973" data-name="Trazado 197973" d="M2255.5,3879.638c.38-.389.729-.759,1.091-1.117.344-.34.675-.37.953-.106a.63.63,0,0,1-.074.954q-.729.749-1.479,1.478a.63.63,0,0,1-1.016,0q-.35-.332-.682-.683a.615.615,0,0,1-.055-.925c.267-.26.589-.234.925.074C2255.261,3879.406,2255.356,3879.5,2255.5,3879.638Z" transform="translate(-2244.917 -3860.272)" fill="#12263f"/>
        <path id="Trazado_197974" data-name="Trazado 197974" d="M2255.534,3998.626c.389-.414.755-.821,1.14-1.208a.582.582,0,0,1,.766-.121.554.554,0,0,1,.271.654.869.869,0,0,1-.222.369q-.728.75-1.476,1.479a.634.634,0,0,1-1.043,0c-.242-.231-.483-.465-.708-.713a.6.6,0,0,1-.007-.894.621.621,0,0,1,.868.044C2255.243,3998.346,2255.355,3998.458,2255.534,3998.626Z" transform="translate(-2244.923 -3969.64)" fill="#12263f"/>
      </g>
    </g>
  </g>
</svg>
