<svg id="Grupo_155645" data-name="Grupo 155645" xmlns="http://www.w3.org/2000/svg" xmlns:xlink="http://www.w3.org/1999/xlink" width="87.339" height="87.338" viewBox="0 0 87.339 87.338">
  <defs>
    <radialGradient id="radial-gradient" cx="0.076" cy="0.019" r="1.465" gradientTransform="translate(0.001)" gradientUnits="objectBoundingBox">
      <stop offset="0" stop-color="#f6f6f7"/>
      <stop offset="0.477" stop-color="#f9f9fa"/>
      <stop offset="0.715" stop-color="#fff"/>
    </radialGradient>
  </defs>
  <g id="Grupo_18423" data-name="Grupo 18423" transform="translate(0 0)">
    <g id="Grupo_18421" data-name="Grupo 18421">
      <g id="Grupo_18420" data-name="Grupo 18420">
        <g id="Grupo_18419" data-name="Grupo 18419">
          <path id="Trazado_40936" data-name="Trazado 40936" d="M281.962,2189.389a43.669,43.669,0,1,1-43.669-43.668A43.669,43.669,0,0,1,281.962,2189.389Z" transform="translate(-194.623 -2145.721)" fill="#fff"/>
        </g>
      </g>
    </g>
    <path id="Trazado_40937" data-name="Trazado 40937" d="M281.7,2189.1a43.669,43.669,0,1,0-43.669,43.67A43.5,43.5,0,0,0,281.7,2189.1Z" transform="translate(-194.361 -2145.436)" fill="url(#radial-gradient)"/>
    <path id="Trazado_40938" data-name="Trazado 40938" d="M269.1,2186.859a33.332,33.332,0,1,0-33.333,33.333A33.209,33.209,0,0,0,269.1,2186.859Z" transform="translate(-191.968 -2143.046)" fill="none" stroke="#1565c0" stroke-miterlimit="10" stroke-width="4"/>
    <g id="Grupo_18422" data-name="Grupo 18422" transform="translate(7.736 24.517)">
      <path id="Trazado_40939" data-name="Trazado 40939" d="M275.732,2164.488a43.675,43.675,0,0,1-75.187,43.488,43.536,43.536,0,0,0,75.187-43.488Z" transform="translate(-200.545 -2164.488)" fill="#eceef0"/>
    </g>
    <g id="ezfTta.tif" transform="translate(-2859.864 -2900.882)">
      <g id="Grupo_155654" data-name="Grupo 155654" transform="translate(2883.399 2925.399)">
        <path id="Trazado_198021" data-name="Trazado 198021" d="M2883.4,2957.867v-22.652c.514-1.254,1.629-1.121,2.686-1.084,0-2.651.007-5.229-.007-7.808a.972.972,0,0,1,.425-.924h6.292v1.353h-5.344v2.646h32.159v-2.676h-25.472V2925.4h26.428a.977.977,0,0,1,.425.927c-.014,2.446-.007,4.893-.007,7.339v.461c.4,0,.731,0,1.065,0a1.5,1.5,0,0,1,1.619,1.616q0,10.8,0,21.6a1.5,1.5,0,0,1-1.62,1.615q-3.355,0-6.71,0c-.121,0-.242-.014-.359-.022v-1.317h.491c2.111,0,4.222-.012,6.333.01.434,0,.544-.133.536-.55-.025-1.244-.009-2.488-.01-3.732,0-.135-.012-.269-.018-.4h-1.326v.994c0,.817-.168.988-.97.988h-33.091c-.614,0-.834-.22-.837-.826,0-.386,0-.772,0-1.156h-1.345V2957c0,.617,0,.617.617.617h28.214v1.349h-5.3a2.629,2.629,0,0,0,1.658,2.745c.259.1.53.174.79.275a2.205,2.205,0,0,1,1.461,1.65,5.722,5.722,0,0,1,.073,1.123c.009.717-.192.909-.92.909h-15.182c-.21,0-.419,0-.629,0a.652.652,0,0,1-.711-.7c-.008-.251,0-.5,0-.755a2.308,2.308,0,0,1,1.575-2.24c.249-.092.5-.164.75-.262a2.637,2.637,0,0,0,1.658-2.755h-.487c-4.306,0-8.612-.02-12.917.016A1.893,1.893,0,0,1,2883.4,2957.867Zm36.226-27.071h-32.167v22.771h32.167Zm-23.457,33.508H2910.9a1,1,0,0,0-.721-1.073c-.156-.059-.317-.108-.474-.163a3.946,3.946,0,0,1-2.75-3.142c-.061-.309-.066-.628-.1-.941h-6.678a4.071,4.071,0,0,1-1.041,2.947,4.753,4.753,0,0,1-2.211,1.295A.966.966,0,0,0,2896.169,2964.3Zm-10.113-12.748v-16.092h-.737c-.579,0-.579,0-.579.57v15.522Zm36.273,0v-.36q0-7.632,0-15.264a.58.58,0,0,0-.012-.248c-.045-.085-.134-.2-.21-.206-.369-.021-.74-.01-1.1-.01v16.087Z" transform="translate(-2883.399 -2925.399)" fill="#12263f"/>
        <path id="Trazado_198022" data-name="Trazado 198022" d="M2948.831,2951.045h-1.288v-1.287h1.288Z" transform="translate(-2942.15 -2947.71)" fill="#12263f"/>
        <path id="Trazado_198023" data-name="Trazado 198023" d="M2980.823,2949.635v1.287h-1.294v-1.287Z" transform="translate(-2971.447 -2947.597)" fill="#12263f"/>
        <path id="Trazado_198024" data-name="Trazado 198024" d="M3011.46,2949.459h1.28v1.3h-1.28Z" transform="translate(-3000.694 -2947.436)" fill="#12263f"/>
        <path id="Trazado_198025" data-name="Trazado 198025" d="M3282.866,2949.6h1.285v1.292h-1.285Z" transform="translate(-3249.282 -2947.568)" fill="#12263f"/>
        <path id="Trazado_198026" data-name="Trazado 198026" d="M3018.134,3013.29l-.279-1.345h-12.19a2.338,2.338,0,0,1-2.518-2.5c0-.629,0-1.259,0-1.888a2.318,2.318,0,0,1,2.322-2.317q7.739-.007,15.478,0a2.322,2.322,0,0,1,2.331,2.309c0,.14.01.28,0,.419a2.275,2.275,0,0,0,.621,1.949,2.911,2.911,0,0,1,.6,2.905.408.408,0,0,0,.234.559c.747.432,1.483.884,2.251,1.345l-.693,1.158-2.6-1.552a.694.694,0,0,0-.423.725c.014,3.146.009,6.292.008,9.438,0,.667-.208.875-.873.875h-18.372c-.69,0-.887-.2-.887-.9q0-5.138,0-10.276c0-.7.2-.9.89-.9h14.1ZM3004.5,3024h17.409v-8.744a3.647,3.647,0,0,1-2.373-.421,1.508,1.508,0,0,0-.7-.2q-6.939-.017-13.877-.009h-.464Zm17.436-15.37c0-.362.008-.668,0-.974a1.022,1.022,0,0,0-1.085-1.079q-7.632-.009-15.264,0a1.025,1.025,0,0,0-1.1,1.105c-.01.531,0,1.062,0,1.594,0,.976.357,1.328,1.345,1.328,3.914,0,7.828-.007,11.741.011.425,0,.709-.071.879-.49a1.709,1.709,0,0,1,.383-.493A3.432,3.432,0,0,1,3021.94,3008.632Zm-.682,5.324a2.011,2.011,0,1,0-2-2.01A2.041,2.041,0,0,0,3021.258,3013.956Z" transform="translate(-2993.078 -2998.522)" fill="#12263f"/>
        <path id="Trazado_198027" data-name="Trazado 198027" d="M3035.321,3198.407v-1.287h8.012v1.287Z" transform="translate(-3022.549 -3174.276)" fill="#12263f"/>
        <path id="Trazado_198028" data-name="Trazado 198028" d="M3081.408,3165.258v1.29h-5.984v-1.29Z" transform="translate(-3059.28 -3145.093)" fill="#12263f"/>
        <path id="Trazado_198029" data-name="Trazado 198029" d="M3091.227,3134.521v-1.291h4.641v1.291Z" transform="translate(-3073.754 -3115.758)" fill="#12263f"/>
        <path id="Trazado_198030" data-name="Trazado 198030" d="M3035.344,3134.521v-1.291h3.3v1.291Z" transform="translate(-3022.57 -3115.757)" fill="#12263f"/>
        <path id="Trazado_198031" data-name="Trazado 198031" d="M3037.4,3166.5h-1.962v-1.3h1.962Z" transform="translate(-3022.651 -3145.038)" fill="#12263f"/>
        <path id="Trazado_198032" data-name="Trazado 198032" d="M3036.762,3029.542v2.632h-1.288v-2.632Z" transform="translate(-3022.689 -3020.786)" fill="#12263f"/>
      </g>
    </g>
  </g>
</svg>
