<svg id="Grupo_155639" data-name="Grupo 155639" xmlns="http://www.w3.org/2000/svg" xmlns:xlink="http://www.w3.org/1999/xlink" width="87.339" height="87.338" viewBox="0 0 87.339 87.338">
  <defs>
    <radialGradient id="radial-gradient" cx="0.076" cy="0.019" r="1.465" gradientTransform="translate(0.001)" gradientUnits="objectBoundingBox">
      <stop offset="0" stop-color="#f6f6f7"/>
      <stop offset="0.477" stop-color="#f9f9fa"/>
      <stop offset="0.715" stop-color="#fff"/>
    </radialGradient>
  </defs>
  <g id="Grupo_18423" data-name="Grupo 18423" transform="translate(0 0)">
    <g id="Grupo_18421" data-name="Grupo 18421">
      <g id="Grupo_18420" data-name="Grupo 18420">
        <g id="Grupo_18419" data-name="Grupo 18419">
          <path id="Trazado_40936" data-name="Trazado 40936" d="M281.962,2189.389a43.669,43.669,0,1,1-43.669-43.668A43.669,43.669,0,0,1,281.962,2189.389Z" transform="translate(-194.623 -2145.721)" fill="#fff"/>
        </g>
      </g>
    </g>
    <path id="Trazado_40937" data-name="Trazado 40937" d="M281.7,2189.1a43.669,43.669,0,1,0-43.669,43.67A43.5,43.5,0,0,0,281.7,2189.1Z" transform="translate(-194.361 -2145.436)" fill="url(#radial-gradient)"/>
    <path id="Trazado_40938" data-name="Trazado 40938" d="M269.1,2186.859a33.332,33.332,0,1,0-33.333,33.333A33.209,33.209,0,0,0,269.1,2186.859Z" transform="translate(-191.968 -2143.046)" fill="none" stroke="#1565c0" stroke-miterlimit="10" stroke-width="4"/>
    <g id="Grupo_18422" data-name="Grupo 18422" transform="translate(7.736 24.517)">
      <path id="Trazado_40939" data-name="Trazado 40939" d="M275.732,2164.488a43.675,43.675,0,0,1-75.187,43.488,43.536,43.536,0,0,0,75.187-43.488Z" transform="translate(-200.545 -2164.488)" fill="#eceef0"/>
    </g>
    <g id="stBQmL" transform="translate(-2596.952 -5147.159)">
      <g id="Grupo_155649" data-name="Grupo 155649" transform="translate(2623.208 5171.677)">
        <path id="Trazado_197975" data-name="Trazado 197975" d="M2623.208,5212.354a3.109,3.109,0,0,0,.162-.356,3.569,3.569,0,0,1,3.467-2.641c2.029-.039,4.059-.011,6.089-.016.535,0,1.041.07,1.027.755-.013.655-.5.772-1.04.772-1.948,0-3.9,0-5.843,0a2.174,2.174,0,0,0-2.348,2.284q-.024,11.521,0,23.041a2.333,2.333,0,0,0,2.429,2.46c7.05.02,14.1.007,21.149,0a2.957,2.957,0,0,0,.409-.07c0-1.759-.017-3.506.008-5.251a8.052,8.052,0,0,1,.2-2.109,3.662,3.662,0,0,1,3.521-2.589,16.873,16.873,0,0,1,2.3.031,1.149,1.149,0,0,1,.829.658c.1.48-.284.792-.806.8-.768.011-1.537-.013-2.3.01a2.264,2.264,0,0,0-2.232,2.106c-.049,1.7-.013,3.394-.013,5.239.267-.231.449-.37.61-.53,2.465-2.461,4.941-4.912,7.374-7.405a2.014,2.014,0,0,0,.52-1.271c.036-4.91.014-9.82.042-14.729a1.283,1.283,0,0,1,.437-1c.247-.118.692.183,1.05.3v16.79l-10.534,10.535H2626.5a4.21,4.21,0,0,1-3.292-3.292Z" transform="translate(-2623.208 -5203.137)" fill="#12263f"/>
        <path id="Trazado_197976" data-name="Trazado 197976" d="M2709.334,5171.677a1.927,1.927,0,0,1,1.162,2.041c-.054,1.313,0,2.628-.017,3.941a1.588,1.588,0,0,1-1.731,1.743q-4.434.027-8.868,0a1.588,1.588,0,0,1-1.73-1.744c-.015-1.314.037-2.629-.017-3.941a1.928,1.928,0,0,1,1.162-2.04Zm-9.66,6.123h9.247v-4.554h-9.247Z" transform="translate(-2685.797 -5171.677)" fill="#12263f"/>
        <path id="Trazado_197977" data-name="Trazado 197977" d="M2704.331,5235.619c-1.452,0-2.9.006-4.355,0a1.562,1.562,0,0,1-1.771-1.763q-.016-2.1,0-4.191a1.561,1.561,0,0,1,1.727-1.734q4.438-.023,8.875,0a1.563,1.563,0,0,1,1.728,1.733c.013,1.424.016,2.849,0,4.273a1.529,1.529,0,0,1-1.685,1.68C2707.344,5235.629,2705.837,5235.618,2704.331,5235.619Zm4.667-1.545v-4.564h-9.251v4.564Z" transform="translate(-2685.853 -5218.66)" fill="#12263f"/>
        <path id="Trazado_197978" data-name="Trazado 197978" d="M2704.374,5284.443c1.505,0,3.011-.011,4.517,0a1.484,1.484,0,0,1,1.638,1.621q.027,2.175,0,4.352a1.51,1.51,0,0,1-1.7,1.65q-4.476.013-8.952,0a1.5,1.5,0,0,1-1.678-1.669q-.024-2.135,0-4.271a1.5,1.5,0,0,1,1.658-1.685C2701.363,5284.432,2702.869,5284.443,2704.374,5284.443Zm-4.64,6.08h9.25v-4.531h-9.25Z" transform="translate(-2685.847 -5265.878)" fill="#12263f"/>
        <path id="Trazado_197979" data-name="Trazado 197979" d="M2647.139,5255.931a4.974,4.974,0,0,1-.925-1.014,1.111,1.111,0,0,1,.013-.988,1,1,0,0,1,.984-.061,21.628,21.628,0,0,1,2.374,2.384,1.141,1.141,0,0,1-.121,1.073,29.779,29.779,0,0,1-2.131,2.167.748.748,0,0,1-1.162.036c-.386-.4-.238-.811.132-1.145.263-.237.559-.438.84-.655l-.131-.28c-.773,0-1.546,0-2.319,0-1.765-.012-2.566-.8-2.57-2.55,0-1.946-.009-3.892,0-5.838a2.215,2.215,0,0,1,2.356-2.371c1.425-.016,2.851,0,4.276-.006.561,0,1.01.154,1,.8-.013.621-.468.706-.988.7-1.343-.014-2.686-.011-4.029,0-.886.006-1.119.239-1.122,1.118-.006,1.864.013,3.728-.009,5.591-.009.724.267,1.07,1.013,1.045C2645.4,5255.911,2646.183,5255.931,2647.139,5255.931Z" transform="translate(-2639.006 -5234.335)" fill="#12263f"/>
        <path id="Trazado_197980" data-name="Trazado 197980" d="M2785.46,5201.31a5.576,5.576,0,0,1,.982,1.08c.134.28.163.824-.009.982a1.009,1.009,0,0,1-.993.039,20.7,20.7,0,0,1-2.322-2.318,1.111,1.111,0,0,1,.056-1.066,20.653,20.653,0,0,1,2.265-2.264.983.983,0,0,1,.968,0,1.086,1.086,0,0,1,.075.986,4.963,4.963,0,0,1-.958,1.047c1.081,0,2.019.048,2.945-.036.214-.02.546-.489.553-.758.047-2.027.03-4.057.023-6.085,0-.631-.381-.851-.967-.847-1.343.009-2.687-.006-4.03.007-.557.006-1.121-.021-1.14-.731s.524-.774,1.095-.769c1.425.016,2.851-.008,4.276.01a2.142,2.142,0,0,1,2.256,2.278q.023,3.085,0,6.169a2.145,2.145,0,0,1-2.332,2.274C2787.365,5201.314,2786.525,5201.31,2785.46,5201.31Z" transform="translate(-2756.622 -5187.466)" fill="#12263f"/>
        <path id="Trazado_197981" data-name="Trazado 197981" d="M2652.816,5349.83c-1.454,0-2.907.014-4.36,0-1.194-.016-1.7-.523-1.74-1.7-.1-2.6.173-2.878,2.784-2.878,2.523,0,5.046-.006,7.569,0,1.464,0,1.915.464,1.919,1.905.008,2.487-.177,2.674-2.635,2.674Zm-4.536-1.594h9.159v-1.407h-9.159Z" transform="translate(-2642.834 -5316.677)" fill="#12263f"/>
        <path id="Trazado_197982" data-name="Trazado 197982" d="M2734.181,5345.23a11.113,11.113,0,0,1,1.88.032c.273.048.677.454.673.69a.992.992,0,0,1-.644.737,34.859,34.859,0,0,1-3.932,0,1,1,0,0,1-.642-.747c0-.238.421-.633.7-.678A12.632,12.632,0,0,1,2734.181,5345.23Z" transform="translate(-2713.689 -5316.642)" fill="#12263f"/>
        <path id="Trazado_197983" data-name="Trazado 197983" d="M2732.383,5365.274c-.543,0-1.123-.034-1.1-.764.019-.689.567-.769,1.125-.776.578-.007,1.107.14,1.11.8C2733.518,5365.243,2732.935,5365.287,2732.383,5365.274Z" transform="translate(-2713.491 -5332.121)" fill="#12263f"/>
        <path id="Trazado_197984" data-name="Trazado 197984" d="M2751.184,5365.3c-.493-.012-1.06-.013-1.051-.763.009-.724.555-.771,1.1-.774s1.09.075,1.1.783C2752.335,5365.285,2751.762,5365.289,2751.184,5365.3Z" transform="translate(-2729.241 -5332.142)" fill="#12263f"/>
      </g>
    </g>
  </g>
</svg>
