<svg id="Grupo_155642" data-name="Grupo 155642" xmlns="http://www.w3.org/2000/svg" xmlns:xlink="http://www.w3.org/1999/xlink" width="87.339" height="87.338" viewBox="0 0 87.339 87.338">
  <defs>
    <radialGradient id="radial-gradient" cx="0.076" cy="0.019" r="1.465" gradientTransform="translate(0.001)" gradientUnits="objectBoundingBox">
      <stop offset="0" stop-color="#f6f6f7"/>
      <stop offset="0.477" stop-color="#f9f9fa"/>
      <stop offset="0.715" stop-color="#fff"/>
    </radialGradient>
  </defs>
  <g id="Grupo_18423" data-name="Grupo 18423" transform="translate(0 0)">
    <g id="Grupo_18421" data-name="Grupo 18421">
      <g id="Grupo_18420" data-name="Grupo 18420">
        <g id="Grupo_18419" data-name="Grupo 18419">
          <path id="Trazado_40936" data-name="Trazado 40936" d="M281.962,2189.389a43.669,43.669,0,1,1-43.669-43.668A43.669,43.669,0,0,1,281.962,2189.389Z" transform="translate(-194.623 -2145.721)" fill="#fff"/>
        </g>
      </g>
    </g>
    <path id="Trazado_40937" data-name="Trazado 40937" d="M281.7,2189.1a43.669,43.669,0,1,0-43.669,43.67A43.5,43.5,0,0,0,281.7,2189.1Z" transform="translate(-194.361 -2145.436)" fill="url(#radial-gradient)"/>
    <path id="Trazado_40938" data-name="Trazado 40938" d="M269.1,2186.859a33.332,33.332,0,1,0-33.333,33.333A33.209,33.209,0,0,0,269.1,2186.859Z" transform="translate(-191.968 -2143.046)" fill="none" stroke="#1565c0" stroke-miterlimit="10" stroke-width="4"/>
    <g id="Grupo_18422" data-name="Grupo 18422" transform="translate(7.736 24.517)">
      <path id="Trazado_40939" data-name="Trazado 40939" d="M275.732,2164.488a43.675,43.675,0,0,1-75.187,43.488,43.536,43.536,0,0,0,75.187-43.488Z" transform="translate(-200.545 -2164.488)" fill="#eceef0"/>
    </g>
    <g id="n1DoRf.tif" transform="translate(-2843.641 -4359.518)">
      <g id="Grupo_155651" data-name="Grupo 155651" transform="translate(2867.399 4380.647)">
        <path id="Trazado_197997" data-name="Trazado 197997" d="M2867.4,4616.653a4.6,4.6,0,0,1,.934-2.028,3.879,3.879,0,0,1,2.908-1.369c.429-.015.86,0,1.344,0,0-.476.011-.93-.01-1.382,0-.09-.115-.2-.2-.258a6.433,6.433,0,0,1-3.027-5.656c0-.675,0-1.349,0-2.057-.588-.11-.667-.52-.65-1.044a6.837,6.837,0,0,1,5.806-6.373,6.722,6.722,0,0,1,7.409,4.495,7.9,7.9,0,0,1,.379,2.133c.063,1.021.035,2.05.012,3.075a6.32,6.32,0,0,1-2.952,5.364.548.548,0,0,0-.29.551c.021.362.005.727.005,1.153h1.089a3.9,3.9,0,0,1,4.1,4.086c0,.472-.029.947.007,1.416a1.476,1.476,0,0,1-.977,1.625h-14.907a1.688,1.688,0,0,1-.972-.973Zm3.307-12.64a27.6,27.6,0,0,0,.015,2.791,5.1,5.1,0,0,0,4.17,4.413,5.23,5.23,0,0,0,5.549-2.744,8.141,8.141,0,0,0,.569-3.953.348.348,0,0,0-.047-.151,2.7,2.7,0,0,0-3-1.364c-1.109.273-2.206.6-3.322.837A12.349,12.349,0,0,1,2870.706,4604.013Zm12.2,15.053c0-.777.036-1.53-.01-2.278a2.146,2.146,0,0,0-1.046-1.741,4.176,4.176,0,0,0-3.645-.285c-.649.222-1.216.664-1.892.113a.739.739,0,0,0-.987,0c-.075.055-.171.081-.249.133a.965.965,0,0,1-1.1.008,3.771,3.771,0,0,0-1.144-.454,7.9,7.9,0,0,0-1.454-.016,2.546,2.546,0,0,0-2.589,2.013,22.8,22.8,0,0,0-.134,2.505Zm-12.851-16.467a1.058,1.058,0,0,0,.144.043,13.75,13.75,0,0,0,5.8-.465,7.1,7.1,0,0,0,2.056-.639,7.715,7.715,0,0,0,1.278-1.75c.2-.261.14-.4-.075-.6a5.5,5.5,0,0,0-8.308.94A5,5,0,0,0,2870.054,4602.6Zm3.845,9.8a.7.7,0,0,0-.018.111c0,.229,0,.458,0,.686,0,.354.524.727.806.529a1.789,1.789,0,0,1,2.286.007c.185.132.775-.138.79-.346.025-.339.007-.682.007-.99a18.581,18.581,0,0,1-1.928.192A18.888,18.888,0,0,1,2873.9,4612.4Zm5.739-10.744,1.373.77-.629-1.859Z" transform="translate(-2867.399 -4578.906)" fill="#12263f"/>
        <path id="Trazado_197998" data-name="Trazado 197998" d="M3171.736,4620.214a1.487,1.487,0,0,1-.975-1.666,17.787,17.787,0,0,1,.214-2.725,3.756,3.756,0,0,1,3.644-2.736c.429-.006.858,0,1.331,0,0-.474.011-.916-.009-1.356a.421.421,0,0,0-.183-.271,6.47,6.47,0,0,1-3.052-5.806c.016-1.215,0-2.429,0-3.644a5.826,5.826,0,0,1,5.775-5.771c1.282-.006,2.565,0,3.847,0,.518,0,.741.221.744.73,0,.633,0,1.267,0,1.913a3.4,3.4,0,0,1,1.869,1.156,3.221,3.221,0,0,1,.723,2.055c0,1.31.022,2.618,0,3.928a6.308,6.308,0,0,1-2.95,5.363.547.547,0,0,0-.291.551c.022.336.007.674.008,1.011a1.325,1.325,0,0,0,.024.142h1.061a3.9,3.9,0,0,1,4.1,4.086c0,.472-.029.946.006,1.416a1.475,1.475,0,0,1-.977,1.625Zm2.241-14.819c.031.417.046.835.1,1.249a5.138,5.138,0,0,0,4.074,4.383,5.21,5.21,0,0,0,5.4-2.278,6.467,6.467,0,0,0,.844-3.6,1.238,1.238,0,0,0-.628-1.2,1.658,1.658,0,0,0-1.538-.276,12.083,12.083,0,0,1-6.2-.087,1.424,1.424,0,0,0-1.184.212C3174.211,4604.172,3173.767,4604.585,3173.977,4605.4Zm-1.887,13.5h14.224c0-.674.021-1.321-.006-1.966a3.036,3.036,0,0,0-.543-1.538c-.745-1.15-3.088-1.271-4.178-.8-1.3.558-.944.605-2.1.023a.526.526,0,0,0-.593.006c-.133.089-.3.134-.43.223a.993.993,0,0,1-1.132.009,3.464,3.464,0,0,0-1.105-.445,8.25,8.25,0,0,0-1.495-.017,2.544,2.544,0,0,0-2.624,2.35A19.062,19.062,0,0,0,3172.09,4618.891Zm1.966-16.127a6.745,6.745,0,0,1,.813-.531,1.22,1.22,0,0,1,.68-.123c.635.108,1.257.294,1.891.409a10.134,10.134,0,0,0,5.339-.371,1.139,1.139,0,0,1,.746.1,5.5,5.5,0,0,1,.816.526c.167-1.522-.486-2.466-1.78-2.632-.651-.084-.777-.225-.777-.873,0-.575,0-1.147,0-1.73-1.158,0-2.25,0-3.343,0a5.2,5.2,0,0,0-.643.069A4.581,4.581,0,0,0,3174.056,4602.764Zm3.209,9.47a.46.46,0,0,0-.019.1c0,.242-.007.484,0,.727.006.325.531.688.8.5a1.792,1.792,0,0,1,2.287,0c.208.151.786-.134.8-.369.021-.329.005-.661.005-.963a18.722,18.722,0,0,1-1.918.2A19.555,19.555,0,0,1,3177.265,4612.234Z" transform="translate(-3146.134 -4578.741)" fill="#12263f"/>
        <path id="Trazado_197999" data-name="Trazado 197999" d="M2957.213,4395.549c-.456,0-.847.007-1.238,0a.637.637,0,0,1-.7-.7q-.007-5.446,0-10.892c0-.5.26-.711.82-.711q5.164,0,10.328,0h.517c0-.627,0-1.218,0-1.807,0-.557.229-.784.789-.784q6.987,0,13.973,0c.56,0,.789.227.789.784q0,5.365,0,10.73c0,.562-.226.788-.779.793-.375,0-.75,0-1.165,0,0,.208,0,.38,0,.551-.019.606-.414.884-.981.665-.929-.359-1.85-.74-2.777-1.1a1.333,1.333,0,0,0-.466-.107c-1.755-.007-3.51,0-5.265,0-.064,0-.129.009-.233.017,0,.61,0,1.2,0,1.79,0,.557-.229.784-.789.784-2.808,0-5.616,0-8.424.007a2.046,2.046,0,0,0-.7.14c-.856.325-1.7.672-2.554,1.009-.774.307-1.133.067-1.14-.759C2957.212,4395.829,2957.213,4395.71,2957.213,4395.549Zm12.286-1.292v-9.691h-12.914v9.691c.424,0,.826-.008,1.228,0a.644.644,0,0,1,.693.676c.006.086.014.172.024.286.646-.255,1.251-.521,1.874-.733a3.838,3.838,0,0,1,1.131-.222c1.363-.026,2.727-.01,4.091-.01Zm11.667-2.593v-9.691h-12.937v1.267h.681c2.049-.011,1.92-.146,1.913,1.89s0,4.049,0,6.073v.461h.486c1.687,0,3.375-.007,5.062.007a2.52,2.52,0,0,1,.82.158c.681.247,1.35.527,2.031.8.093-.86.209-.962,1.072-.962Z" transform="translate(-2948.138 -4380.647)" fill="#12263f"/>
        <path id="Trazado_198000" data-name="Trazado 198000" d="M3088.336,4592.752c-.263,0-.559.006-.854,0a.632.632,0,0,1-.59-.953c.633-1.1,1.292-2.179,1.957-3.257a.626.626,0,0,1,.879-.234.636.636,0,0,1,.222.912c-.344.611-.716,1.2-1.074,1.806-.073.123-.137.251-.237.435.487,0,.913.012,1.339,0a.639.639,0,0,1,.681.4.666.666,0,0,1-.188.77q-2.867,2.859-5.727,5.725a.649.649,0,0,1-.873.136.673.673,0,0,1-.246-.854c.342-1.173.675-2.349,1.028-3.582-.373,0-.7,0-1.035,0a.645.645,0,0,1-.595-1q1.254-2.217,2.531-4.42a.656.656,0,1,1,1.125.656c-.56,1-1.134,1.99-1.7,2.985-.08.139-.154.281-.27.493.27,0,.489,0,.709,0,.61,0,.868.363.695.961s-.347,1.211-.506,1.765Z" transform="translate(-3065.427 -4571.37)" fill="#12263f"/>
        <path id="Trazado_198001" data-name="Trazado 198001" d="M3043.115,4447.142c0-.606,0-1.212,0-1.818,0-.474.255-.756.654-.751s.636.285.637.769q.005,1.818,0,3.635c0,.485-.237.764-.633.771s-.655-.281-.658-.789C3043.113,4448.354,3043.115,4447.748,3043.115,4447.142Z" transform="translate(-3028.854 -4439.385)" fill="#12263f"/>
        <path id="Trazado_198002" data-name="Trazado 198002" d="M3044.549,4517.091a.629.629,0,0,1-.644.629.667.667,0,0,1-.648-.64.658.658,0,0,1,.677-.647A.63.63,0,0,1,3044.549,4517.091Z" transform="translate(-3028.985 -4505.413)" fill="#12263f"/>
        <path id="Trazado_198003" data-name="Trazado 198003" d="M3186.879,4415.194c0-.606,0-1.212,0-1.817,0-.473.258-.755.657-.748a.645.645,0,0,1,.633.731q.007,1.858,0,3.716a.644.644,0,0,1-.636.728c-.4,0-.649-.277-.653-.752C3186.876,4416.433,3186.879,4415.813,3186.879,4415.194Z" transform="translate(-3160.952 -4410.034)" fill="#12263f"/>
        <path id="Trazado_198004" data-name="Trazado 198004" d="M3187.673,4485.778a.668.668,0,0,1-.652-.636.659.659,0,0,1,.673-.653.645.645,0,0,1-.021,1.289Z" transform="translate(-3161.083 -4476.062)" fill="#12263f"/>
      </g>
    </g>
  </g>
</svg>
