<svg xmlns="http://www.w3.org/2000/svg" width="200.201" height="96.355" viewBox="0 0 200.201 96.355">
  <g id="Grupo_161555" data-name="Grupo 161555" transform="translate(-873 -1008.601)">
    <path id="Trazado_199658" data-name="Trazado 199658" d="M11.549,19H8.912L3.779,10.58V19H1.143V6.2H3.779l5.142,8.438V6.2h2.628Zm1.74-4.843a5.64,5.64,0,0,1,.545-2.522A3.989,3.989,0,0,1,15.4,9.921a4.577,4.577,0,0,1,2.377-.606,4.33,4.33,0,0,1,3.142,1.178,4.727,4.727,0,0,1,1.358,3.2l.018.65a4.97,4.97,0,0,1-1.222,3.511A4.247,4.247,0,0,1,17.8,19.176a4.268,4.268,0,0,1-3.283-1.318,5.058,5.058,0,0,1-1.226-3.586Zm2.54.18a3.555,3.555,0,0,0,.51,2.073,1.831,1.831,0,0,0,2.9.009,3.89,3.89,0,0,0,.519-2.267,3.519,3.519,0,0,0-.519-2.06,1.686,1.686,0,0,0-1.459-.731,1.658,1.658,0,0,0-1.441.726A3.955,3.955,0,0,0,15.829,14.338ZM31.9,15.9,33.671,9.49h2.654L33.117,19H30.691L27.483,9.49h2.654Zm9.914,3.278a4.668,4.668,0,0,1-3.406-1.283A4.561,4.561,0,0,1,37.1,14.474v-.246a5.745,5.745,0,0,1,.554-2.562,4.064,4.064,0,0,1,1.569-1.74,4.4,4.4,0,0,1,2.316-.611,3.947,3.947,0,0,1,3.072,1.23,5,5,0,0,1,1.121,3.489v1.037H39.674a2.36,2.36,0,0,0,.743,1.494,2.245,2.245,0,0,0,1.569.563,2.742,2.742,0,0,0,2.294-1.063l1.248,1.4a3.813,3.813,0,0,1-1.547,1.261A5.075,5.075,0,0,1,41.818,19.176Zm-.29-7.813a1.587,1.587,0,0,0-1.226.512,2.651,2.651,0,0,0-.6,1.466h3.533v-.2a1.891,1.891,0,0,0-.457-1.311A1.638,1.638,0,0,0,41.528,11.362Zm10.986.51a6.9,6.9,0,0,0-.914-.07,1.86,1.86,0,0,0-1.89.976V19h-2.54V9.49h2.4l.07,1.134a2.354,2.354,0,0,1,2.118-1.31,2.662,2.662,0,0,1,.791.114Zm9.791,2.461A5.758,5.758,0,0,1,61.33,17.9a3.231,3.231,0,0,1-2.725,1.279,2.969,2.969,0,0,1-2.47-1.187L56.021,19H53.736V5.5h2.54v4.843a2.893,2.893,0,0,1,2.312-1.028,3.258,3.258,0,0,1,2.729,1.279,5.767,5.767,0,0,1,.989,3.6Zm-2.54-.185a3.783,3.783,0,0,0-.457-2.1,1.545,1.545,0,0,0-1.362-.664,1.676,1.676,0,0,0-1.67.993v3.753a1.7,1.7,0,0,0,1.688,1,1.568,1.568,0,0,0,1.617-1.213A6.257,6.257,0,0,0,59.766,14.148ZM69.381,19a2.821,2.821,0,0,1-.255-.853,3.073,3.073,0,0,1-2.4,1.028,3.376,3.376,0,0,1-2.316-.809,2.6,2.6,0,0,1-.918-2.039,2.687,2.687,0,0,1,1.121-2.32,5.529,5.529,0,0,1,3.239-.817h1.169v-.545a1.567,1.567,0,0,0-.338-1.055,1.331,1.331,0,0,0-1.068-.4,1.513,1.513,0,0,0-1.006.308,1.045,1.045,0,0,0-.365.844H63.7a2.551,2.551,0,0,1,.51-1.529,3.37,3.37,0,0,1,1.441-1.1,5.253,5.253,0,0,1,2.092-.4,4.15,4.15,0,0,1,2.791.883,3.09,3.09,0,0,1,1.033,2.483V16.8a4.546,4.546,0,0,0,.378,2.048V19Zm-2.1-1.767a2.188,2.188,0,0,0,1.037-.25,1.645,1.645,0,0,0,.7-.672V14.676h-.949q-1.907,0-2.03,1.318l-.009.149a1.017,1.017,0,0,0,.334.782A1.3,1.3,0,0,0,67.28,17.233ZM76.2,19H73.652V5.5H76.2Z" transform="translate(997 1075.504)" fill="#fff"/>
    <path id="Trazado_199657" data-name="Trazado 199657" d="M12.5,0,25,19H0Z" transform="translate(892 1052.315) rotate(90)" fill="#f59d36"/>
    <g id="vpOk0o" transform="translate(-1352.741 5290.404)">
      <g id="Grupo_155631" data-name="Grupo 155631" transform="translate(2249.241 -4281.803)">
        <path id="Trazado_197948" data-name="Trazado 197948" d="M2255.464-4251.521c0-.731,0-1.433,0-2.135q0-2.777,0-5.553a6.3,6.3,0,0,1,5.362-6.177,7.464,7.464,0,0,1,1.064-.072c2.654,0,5.308.01,7.961.011,1.883,0,3.766-.009,5.649-.014.042,0,.083-.005.2-.013l-1.223-1.284c-.23-.242-.464-.481-.69-.729a1.693,1.693,0,0,1,.1-2.447,1.691,1.691,0,0,1,2.4.114q2.33,2.423,4.652,4.851a1.7,1.7,0,0,1,.019,2.409q-2.358,2.487-4.743,4.947a1.725,1.725,0,0,1-2.385-.013,1.728,1.728,0,0,1-.042-2.412c.53-.573,1.078-1.128,1.618-1.691.082-.085.161-.173.289-.311h-.382c-4.449,0-8.9.025-13.348-.014a3.023,3.023,0,0,0-3.1,3.116c.038,2.33.008,4.661.008,6.992,0,.108.01.217.017.356h16.268q6.305,0,12.611,0a2.227,2.227,0,0,1,1.7.692c1.454,1.494,2.93,2.967,4.4,4.44q6.518,6.513,13.044,13.018a1.953,1.953,0,0,1,.594,1.466q-.01,11.038-.009,22.078,0,9.4.006,18.8c0,2.821.029,5.642-.008,8.462a7.019,7.019,0,0,1-3.726,6.324,6.95,6.95,0,0,1-3.551.9q-8.63,0-17.26,0-4.85,0-9.7,0-5.351,0-10.7-.011c-2,0-3.992.007-5.988.01a7.084,7.084,0,0,1-4.612-1.567,6.908,6.908,0,0,1-2.709-5.565q-.023-17.4-.014-34.791,0-13.6.006-27.2a7.177,7.177,0,0,1,5.594-6.864C2255.038-4251.439,2255.233-4251.475,2255.464-4251.521Zm30.91,3.4c-.12-.006-.187-.013-.253-.013h-17.243q-6.187,0-12.375,0a3.565,3.565,0,0,0-.894.082,3.535,3.535,0,0,0-2.836,2.89,13.843,13.843,0,0,0-.107,2.429q-.011,9.047,0,18.094,0,11.054,0,22.108c0,6.611-.007,13.222.013,19.833a3.929,3.929,0,0,0,.3,1.52,3.673,3.673,0,0,0,3.671,2.322c3.924-.01,7.848,0,11.772,0h18.228q6.672,0,13.344,0a4.976,4.976,0,0,0,.9-.038,3.787,3.787,0,0,0,3.2-3.888q0-7.275,0-14.55,0-16.357,0-32.714c0-.118-.01-.235-.016-.38h-.326q-5.051,0-10.1,0a6.946,6.946,0,0,1-3.779-1.021,6.927,6.927,0,0,1-3.49-6.083c-.037-3.389-.009-6.779-.009-10.168Zm3.4,2.457c0,.231,0,.454,0,.675.005,2.431.02,4.861.013,7.292a3.773,3.773,0,0,0,3.785,3.836q3.646.007,7.292.007h.781Z" transform="translate(-2249.241 4271.144)" fill="#fff"/>
        <path id="Trazado_197949" data-name="Trazado 197949" d="M2814.946-4260.654h-10.487a7.191,7.191,0,0,1-7.152-6.016,5.7,5.7,0,0,1-.08-.964q-.009-5.169,0-10.337v-.393c-.127-.006-.234-.016-.341-.016h-29.5a3.758,3.758,0,0,0-3.771,3.012,4.078,4.078,0,0,0-.091.861c-.007,2.3,0,4.594-.008,6.891a1.654,1.654,0,0,1-1.536,1.644,1.691,1.691,0,0,1-1.767-1.134,2.021,2.021,0,0,1-.106-.618c-.007-2.364-.046-4.729,0-7.092a7.129,7.129,0,0,1,5.809-6.843,7.851,7.851,0,0,1,1.459-.129q15.656-.01,31.313-.014a2.19,2.19,0,0,1,1.662.693q3.491,3.531,7,7.042,5.2,5.2,10.42,10.389a1.922,1.922,0,0,1,.6,1.431q-.005,18.533,0,37.067c0,4.092.011,8.185,0,12.277a7.024,7.024,0,0,1-3.1,5.975,6.713,6.713,0,0,1-3.974,1.272q-10.036.009-20.072,0a1.726,1.726,0,0,1-1.745-1.593,1.734,1.734,0,0,1,1.349-1.789,1.982,1.982,0,0,1,.431-.03q9.9,0,19.8,0a3.756,3.756,0,0,0,3.792-2.986,3.62,3.62,0,0,0,.1-.826q.007-23.685,0-47.37Zm-14.3-15.208c0,.041-.01.083-.01.124,0,2.663-.008,5.327.015,7.99a3.647,3.647,0,0,0,.25,1.23,3.756,3.756,0,0,0,3.727,2.45l6.285,0h1.533Z" transform="translate(-2725.897 4281.803)" fill="#fff"/>
        <path id="Trazado_197950" data-name="Trazado 197950" d="M2952.294-3950.221v-3.967c0-1.784,0-3.568,0-5.352a1.744,1.744,0,0,1,1.4-1.72,1.707,1.707,0,0,1,1.954,1.189,2.237,2.237,0,0,1,.074.626q.009,4.046.006,8.092a1.079,1.079,0,0,0,.288.889.842.842,0,0,0,.924.184.821.821,0,0,0,.578-.745c.006-.1.007-.2.007-.3.006-3.121.017-6.242.012-9.364a6.457,6.457,0,0,0-.371-2.723,4.9,4.9,0,0,0-3.938-3.071.808.808,0,0,0-.48.134,25.307,25.307,0,0,1-2.681,1.617,7.778,7.778,0,0,1-7.749-.677c-.449-.29-.907-.57-1.329-.9a.871.871,0,0,0-.867-.144,12.265,12.265,0,0,0-1.313.472,1.741,1.741,0,0,1-2.305-.712,1.677,1.677,0,0,1,.681-2.3,7.711,7.711,0,0,1,4.171-.958,1.641,1.641,0,0,1,.737.273c.7.44,1.375.906,2.054,1.373a4.613,4.613,0,0,0,5.293.034c.564-.378,1.157-.72,1.685-1.143a2.79,2.79,0,0,1,2.168-.54,8.372,8.372,0,0,1,5.007,2.277,8.152,8.152,0,0,1,2.616,5.4c.035.421.056.845.056,1.268q.007,4.883,0,9.767a4.345,4.345,0,0,1-1.123,3.026,4.064,4.064,0,0,1-3.023,1.419c-1.806.027-3.612.017-5.418.006a1.659,1.659,0,0,1-1.674-1.385,1.682,1.682,0,0,1,1.114-1.93,2.6,2.6,0,0,1,.654-.1C2951.788-3950.234,2952.077-3950.221,2952.294-3950.221Z" transform="translate(-2890.32 3990.846)" fill="#fff"/>
        <path id="Trazado_197951" data-name="Trazado 197951" d="M3165-3091.149v.526q0,2.49,0,4.979a5.776,5.776,0,0,1-4.7,5.724,4.744,4.744,0,0,1-.894.09q-6.823.008-13.646,0a1.686,1.686,0,0,1-1.7-1.437,1.7,1.7,0,0,1,1.329-1.948,2.531,2.531,0,0,1,.531-.028h13.111a2.4,2.4,0,0,0,2.555-2.578q0-2.475,0-4.95v-.406c-.506.486-.951.914-1.4,1.34-.226.215-.447.437-.683.64a1.716,1.716,0,0,1-2.38-.117,1.715,1.715,0,0,1,.072-2.409c1.352-1.31,2.72-2.6,4.082-3.905.266-.254.524-.516.795-.765a1.689,1.689,0,0,1,2.428.009q2.456,2.337,4.9,4.691a1.717,1.717,0,0,1,.193,2.2,1.675,1.675,0,0,1-2.138.536,6.634,6.634,0,0,1-1.118-.94C3165.9-3090.283,3165.483-3090.692,3165-3091.149Z" transform="translate(-3084.176 3176.181)" fill="#fff"/>
        <path id="Trazado_197952" data-name="Trazado 197952" d="M2983.153-4189.676a7.426,7.426,0,0,1,7.415-7.4,7.5,7.5,0,0,1,7.391,7.542,7.454,7.454,0,0,1-7.511,7.277A7.41,7.41,0,0,1,2983.153-4189.676Zm7.408-3.963a3.983,3.983,0,0,0-3.99,3.916,4.006,4.006,0,0,0,3.936,4.05,4.018,4.018,0,0,0,4.025-3.961A3.984,3.984,0,0,0,2990.56-4193.639Z" transform="translate(-2934.047 4202.743)" fill="#fff"/>
        <path id="Trazado_197953" data-name="Trazado 197953" d="M3193.262-3363.466q4.381,0,8.76,0a1.745,1.745,0,0,1,1.8,1.46,1.792,1.792,0,0,1-1.652,1.963c-4.334-.022-8.669.012-13,.02-1.448,0-2.9-.015-4.345-.026a5,5,0,0,1-.726-.033,1.663,1.663,0,0,1-1.393-1.823,1.71,1.71,0,0,1,1.771-1.56c1.861-.006,3.722,0,5.583,0Z" transform="translate(-3120.232 3424.913)" fill="#fff"/>
        <path id="Trazado_197954" data-name="Trazado 197954" d="M3193.286-3468.92q4.4,0,8.794,0a1.66,1.66,0,0,1,1.683,1.252,1.663,1.663,0,0,1-.836,1.953,1.868,1.868,0,0,1-.827.208q-8.543.016-17.086.007a2.731,2.731,0,0,1-1.493-.237,1.734,1.734,0,0,1-.791-1.9,1.684,1.684,0,0,1,1.695-1.286Q3188.855-3468.924,3193.286-3468.92Z" transform="translate(-3120.222 3523.31)" fill="#fff"/>
        <path id="Trazado_197955" data-name="Trazado 197955" d="M3193.261-3574.7h8.993a1.693,1.693,0,0,1,1.545,1.34,1.7,1.7,0,0,1-1.006,1.934,2.066,2.066,0,0,1-.713.13q-6.637.012-13.274.007c-1.415,0-2.831,0-4.246,0a1.7,1.7,0,0,1-1.792-1.2,1.7,1.7,0,0,1,1.5-2.2c.467-.023.935-.018,1.4-.019q3.8,0,7.59,0Z" transform="translate(-3120.232 3622.02)" fill="#fff"/>
        <path id="Trazado_197956" data-name="Trazado 197956" d="M2356.288-3652.407q-4.934,0-9.868,0a4.313,4.313,0,0,1-4.274-4.313c0-3.457.025-6.913-.009-10.369a8.457,8.457,0,0,1,6.9-8.368,8.963,8.963,0,0,1,1.856-.094,1.551,1.551,0,0,1,.727.294c.647.414,1.272.859,1.911,1.285a4.625,4.625,0,0,0,5.52-.021c.6-.406,1.2-.806,1.8-1.221a2.1,2.1,0,0,1,1.413-.4,8.384,8.384,0,0,1,7.606,5.494,8,8,0,0,1,.543,3.1q0,5.068,0,10.135a4.3,4.3,0,0,1-3.4,4.363,4.19,4.19,0,0,1-.958.106Q2361.169-3652.4,2356.288-3652.407Zm5.529-3.431c-.024-.261-.065-.5-.065-.743,0-2.877-.01-5.754.009-8.631a1.89,1.89,0,0,1,.259-.877,1.671,1.671,0,0,1,1.935-.751,1.7,1.7,0,0,1,1.208,1.623q.005,4.132,0,8.263c0,.673.375,1.134.916,1.13s.888-.428.888-1.1v-10.17a5.014,5.014,0,0,0-4.28-5.027.69.69,0,0,0-.427.111c-.745.466-1.456.99-2.223,1.416a7.663,7.663,0,0,1-3.674.938,7.077,7.077,0,0,1-3.421-.726c-.914-.475-1.76-1.081-2.644-1.616a.747.747,0,0,0-.459-.114,5.029,5.029,0,0,0-4.282,5c-.007,1.215,0,2.431,0,3.646q0,3.328,0,6.657a.95.95,0,0,0,.915.99.936.936,0,0,0,.892-1.006q0-1,0-2.007c0-2.119-.006-4.238,0-6.356a1.694,1.694,0,0,1,2.019-1.674,1.66,1.66,0,0,1,1.4,1.762q.007,4.627,0,9.267Z" transform="translate(-2335.921 3716.177)" fill="#fff"/>
        <path id="Trazado_197957" data-name="Trazado 197957" d="M2403.6-3260.246h-18.259a1.7,1.7,0,0,1-1.867-1.361,1.706,1.706,0,0,1,1.723-2.069h30.262c2.184,0,4.368-.007,6.552,0a1.643,1.643,0,0,1,1.563.954,1.634,1.634,0,0,1-.206,1.844,1.526,1.526,0,0,1-1.176.609q-.384.017-.769.017H2403.6Z" transform="translate(-2374.462 3331.801)" fill="#fff"/>
        <path id="Trazado_197958" data-name="Trazado 197958" d="M2403.4-3051.992h16.791c.557,0,1.113-.007,1.67,0a1.7,1.7,0,0,1,1.7,1.658,1.716,1.716,0,0,1-1.683,1.76c-1.393.017-2.786-.008-4.18-.011-.389,0-.779.016-1.169.016q-8.412,0-16.824,0c-1.593,0-3.185-.022-4.777-.021-3.3,0-6.6.016-9.9.021a1.736,1.736,0,0,1-1.8-1.605,1.693,1.693,0,0,1,1.743-1.816q5.937,0,11.873,0Z" transform="translate(-2374.261 3134.28)" fill="#fff"/>
        <path id="Trazado_197959" data-name="Trazado 197959" d="M2403.451-3157.74q9.2,0,18.4,0a1.727,1.727,0,0,1,1.756,1.58,1.728,1.728,0,0,1-1.37,1.8,1.615,1.615,0,0,1-.364.032q-18.433,0-36.867,0a1.709,1.709,0,0,1-1.738-1.7,1.7,1.7,0,0,1,1.749-1.717Q2394.235-3157.742,2403.451-3157.74Z" transform="translate(-2374.301 3232.95)" fill="#fff"/>
        <path id="Trazado_197960" data-name="Trazado 197960" d="M2457.443-3895.2a7.437,7.437,0,0,1-7.423,7.439,7.432,7.432,0,0,1-7.4-7.458,7.44,7.44,0,0,1,7.421-7.373A7.446,7.446,0,0,1,2457.443-3895.2Zm-7.4,4a4.01,4.01,0,0,0,3.971-3.948,4.015,4.015,0,0,0-4.007-4.018,3.987,3.987,0,0,0-3.954,3.886A3.973,3.973,0,0,0,2450.046-3891.2Z" transform="translate(-2429.678 3927.969)" fill="#fff"/>
      </g>
    </g>
  </g>
</svg>
