<svg xmlns="http://www.w3.org/2000/svg" width="163.504" height="87.397" viewBox="0 0 163.504 87.397">
  <g id="Grupo_161554" data-name="Grupo 161554" transform="translate(-251 -1007.282)">
    <path id="Trazado_199655" data-name="Trazado 199655" d="M5.871,15.827,8.771,6.2h2.936L7.251,19H4.5L.062,6.2H2.988Zm11.25,3.349a4.668,4.668,0,0,1-3.406-1.283A4.561,4.561,0,0,1,12.4,14.474v-.246a5.745,5.745,0,0,1,.554-2.562,4.064,4.064,0,0,1,1.569-1.74,4.4,4.4,0,0,1,2.316-.611,3.947,3.947,0,0,1,3.072,1.23,5,5,0,0,1,1.121,3.489v1.037H14.977a2.36,2.36,0,0,0,.743,1.494,2.245,2.245,0,0,0,1.569.563,2.742,2.742,0,0,0,2.294-1.063l1.248,1.4a3.813,3.813,0,0,1-1.547,1.261A5.075,5.075,0,0,1,17.121,19.176Zm-.29-7.813a1.587,1.587,0,0,0-1.226.512A2.651,2.651,0,0,0,15,13.34h3.533v-.2a1.891,1.891,0,0,0-.457-1.311A1.638,1.638,0,0,0,16.831,11.362Zm10.986.51a6.9,6.9,0,0,0-.914-.07,1.86,1.86,0,0,0-1.89.976V19h-2.54V9.49h2.4l.07,1.134a2.354,2.354,0,0,1,2.118-1.31,2.662,2.662,0,0,1,.791.114Zm9.791,2.461a5.758,5.758,0,0,1-.976,3.564,3.231,3.231,0,0,1-2.725,1.279,2.969,2.969,0,0,1-2.47-1.187L31.324,19H29.039V5.5h2.54v4.843a2.893,2.893,0,0,1,2.312-1.028,3.258,3.258,0,0,1,2.729,1.279,5.767,5.767,0,0,1,.989,3.6Zm-2.54-.185a3.783,3.783,0,0,0-.457-2.1,1.545,1.545,0,0,0-1.362-.664,1.676,1.676,0,0,0-1.67.993v3.753a1.7,1.7,0,0,0,1.688,1,1.568,1.568,0,0,0,1.617-1.213A6.257,6.257,0,0,0,35.068,14.148ZM44.684,19a2.821,2.821,0,0,1-.255-.853,3.073,3.073,0,0,1-2.4,1.028,3.376,3.376,0,0,1-2.316-.809,2.6,2.6,0,0,1-.918-2.039,2.687,2.687,0,0,1,1.121-2.32,5.529,5.529,0,0,1,3.239-.817h1.169v-.545a1.567,1.567,0,0,0-.338-1.055,1.331,1.331,0,0,0-1.068-.4,1.513,1.513,0,0,0-1.006.308,1.045,1.045,0,0,0-.365.844h-2.54a2.551,2.551,0,0,1,.51-1.529,3.37,3.37,0,0,1,1.441-1.1,5.253,5.253,0,0,1,2.092-.4,4.15,4.15,0,0,1,2.791.883,3.09,3.09,0,0,1,1.033,2.483V16.8a4.546,4.546,0,0,0,.378,2.048V19Zm-2.1-1.767a2.188,2.188,0,0,0,1.037-.25,1.645,1.645,0,0,0,.7-.672V14.676h-.949q-1.907,0-2.03,1.318l-.009.149a1.017,1.017,0,0,0,.334.782A1.3,1.3,0,0,0,42.583,17.233ZM51.5,19H48.955V5.5H51.5Z" transform="translate(363 1075.503)" fill="#fff"/>
    <path id="Trazado_199656" data-name="Trazado 199656" d="M12.5,0,25,19H0Z" transform="translate(270 1027.315) rotate(90)" fill="#f59d36"/>
    <g id="BYcVr3" transform="translate(-1297.522 1264.956)">
      <g id="Grupo_155630" data-name="Grupo 155630" transform="translate(1570.022 -257.674)">
        <path id="Trazado_197939" data-name="Trazado 197939" d="M1612.341-210.547H1634.3v-43.785h-54.373v.4c0,2.575.005,5.15,0,7.724a1.668,1.668,0,0,1-1.747,1.745,1.641,1.641,0,0,1-1.551-1.509c-.011-.16-.011-.32-.011-.48,0-3.112.025-6.225-.014-9.337a1.78,1.78,0,0,1,1.889-1.887q28.7.03,57.4.016a1.632,1.632,0,0,1,1.739,1.835q0,5.87,0,11.741,0,8.531,0,17.062v.688h.44q3.021,0,6.042,0a1.633,1.633,0,0,1,1.761,1.783q-.006,6.866,0,13.732c0,.079.009.157.017.288h8.094a1.66,1.66,0,0,1,1.7,2.207q-1.8,6.98-3.6,13.961-2.43,9.4-4.865,18.8c-.2.785-.4,1.571-.61,2.354a1.611,1.611,0,0,1-1.673,1.286c-1.053.007-2.106,0-3.158,0l-47.2,0h-22.76a1.634,1.634,0,0,1-1.787-1.787q0-10.66,0-21.319,0-14.59,0-29.18a4.051,4.051,0,0,1,.054-.921,1.6,1.6,0,0,1,1.568-1.2c1.5-.006,3,0,4.5,0h.472c0-.613,0-1.2,0-1.794q0-5.6,0-11.191a1.794,1.794,0,0,1,.371-1.251,1.593,1.593,0,0,1,1.7-.545,1.574,1.574,0,0,1,1.214,1.341,2.932,2.932,0,0,1,.03.513q0,13.663,0,27.327v.271l.063.012c.142-.533.285-1.066.425-1.6.241-.917.467-1.837.722-2.75a4.936,4.936,0,0,1,4.966-3.741h18.16c1.339,0,2.678.007,4.016,0a5.155,5.155,0,0,1,2.65.7,1.012,1.012,0,0,0,.482.119c3.227.007,6.454,0,9.681.007a1.643,1.643,0,0,1,1.53,2.373,1.6,1.6,0,0,1-1.523.927h-7.845C1613.544-213.8,1612.659-212.236,1612.341-210.547Zm39.637,3.317h-19.416c-7.438,0-14.876-.012-22.313.013a1.7,1.7,0,0,1-1.7-2.213c.481-1.6.92-3.2,1.362-4.81a1.645,1.645,0,0,0-1.635-2.2q-11.14-.007-22.279,0a1.669,1.669,0,0,0-1.679,1.339q-1.567,5.962-3.144,11.921-1.694,6.425-3.385,12.85-1.629,6.175-3.261,12.35c-.238.9-.469,1.808-.709,2.735h69.891Zm-78.628-15.788v36.4a.136.136,0,0,0,.064-.09q1.441-5.46,2.879-10.922a6.031,6.031,0,0,0,.306-1.466q.029-11.771.012-23.542c0-.122-.012-.245-.019-.378Zm69.19,12.475v-12.476h-4.882v12.476Z" transform="translate(-1570.022 257.674)" fill="#fff"/>
        <path id="Trazado_197940" data-name="Trazado 197940" d="M2007.915-179.638a13.8,13.8,0,0,1-.821,5.557,14.25,14.25,0,0,1-7.625,8.09,1.5,1.5,0,0,1-1.327-.01,13.9,13.9,0,0,1-8.239-10.62,28.469,28.469,0,0,1-.186-3.692c-.018-.48-.006-.961,0-1.441a1.7,1.7,0,0,1,1.6-1.75,24.085,24.085,0,0,0,5.464-1.386,6.969,6.969,0,0,0,1.076-.664,1.526,1.526,0,0,1,1.836-.031,8.549,8.549,0,0,0,3.29,1.382c1.164.279,2.344.495,3.522.715a1.693,1.693,0,0,1,1.413,1.757c0,.355,0,.709,0,1.064S2007.915-179.981,2007.915-179.638Zm-3.251-.791-.1,0c-.008-.007-.015-.019-.024-.021a22.8,22.8,0,0,1-5.624-1.692.282.282,0,0,0-.219.009,20.562,20.562,0,0,1-4.684,1.5c-.32.074-.772.058-.92.26-.166.228-.06.657-.068,1a11.231,11.231,0,0,0,.426,3.627,10.787,10.787,0,0,0,5.09,6.256.474.474,0,0,0,.555,0,10.436,10.436,0,0,0,5.359-7.529A32.934,32.934,0,0,0,2004.663-180.429Z" transform="translate(-1960.891 190.808)" fill="#fff"/>
        <path id="Trazado_197941" data-name="Trazado 197941" d="M1875.452,138.779h15.583a1.648,1.648,0,0,1,.456,3.246,1.948,1.948,0,0,1-.508.053q-15.583,0-31.166,0a1.659,1.659,0,0,1-1.69-1.322,1.638,1.638,0,0,1,1.069-1.886,2.045,2.045,0,0,1,.673-.089Q1867.66,138.775,1875.452,138.779Z" transform="translate(-1838.317 -111.557)" fill="#fff"/>
        <path id="Trazado_197942" data-name="Trazado 197942" d="M1949.636,222.77c1.922,0,3.844,0,5.765,0a1.648,1.648,0,0,1,.526,3.218,1.872,1.872,0,0,1-.573.079q-5.7.006-11.393,0a1.653,1.653,0,1,1,.012-3.3Q1946.805,222.768,1949.636,222.77Z" transform="translate(-1916.673 -189.781)" fill="#fff"/>
        <path id="Trazado_197943" data-name="Trazado 197943" d="M2319.315,222.766c1.075,0,2.149,0,3.224,0a1.651,1.651,0,1,1-.01,3.3q-3.242.006-6.483,0a1.652,1.652,0,1,1,.01-3.3Q2317.686,222.764,2319.315,222.766Z" transform="translate(-2263.233 -189.777)" fill="#fff"/>
        <path id="Trazado_197944" data-name="Trazado 197944" d="M1766.7,222.755c.949,0,1.9,0,2.847,0a1.651,1.651,0,1,1,0,3.3q-2.847.006-5.693,0a1.651,1.651,0,1,1,0-3.3C1764.8,222.751,1765.749,222.754,1766.7,222.755Z" transform="translate(-1748.978 -189.766)" fill="#fff"/>
        <path id="Trazado_197945" data-name="Trazado 197945" d="M2208.827,226.014c-.308,0-.617.012-.925,0a1.65,1.65,0,0,1,.054-3.3c.571-.01,1.142-.009,1.713,0a1.648,1.648,0,0,1-.02,3.3c-.274,0-.548,0-.822,0Z" transform="translate(-2162.655 -189.724)" fill="#fff"/>
        <path id="Trazado_197946" data-name="Trazado 197946" d="M2388.775,310.042a8.073,8.073,0,0,1-1.409-.192,1.586,1.586,0,0,1-1.022-1.776,1.641,1.641,0,0,1,1.559-1.385c.6-.016,1.211-.017,1.816,0a1.65,1.65,0,0,1-.012,3.3c-.308.009-.617,0-.925,0Z" transform="translate(-2330.272 -267.927)" fill="#fff"/>
        <path id="Trazado_197947" data-name="Trazado 197947" d="M1808.6,432.333c-2.654,0-5.308,0-7.963,0a1.643,1.643,0,0,1-1.613-2.2,1.677,1.677,0,0,1,1.654-1.1q4.925,0,9.85,0,3.072,0,6.144,0a1.657,1.657,0,0,1,1.152,2.876,1.725,1.725,0,0,1-1.228.43C1813.933,432.329,1811.268,432.332,1808.6,432.333Z" transform="translate(-1783.209 -381.877)" fill="#fff"/>
      </g>
    </g>
  </g>
</svg>
