<svg xmlns="http://www.w3.org/2000/svg" xmlns:xlink="http://www.w3.org/1999/xlink" width="1025.715" height="430" viewBox="0 0 1025.715 430">
  <defs>
    <linearGradient id="linear-gradient" x1="0.453" y1="-0.589" x2="0.5" y2="1" gradientUnits="objectBoundingBox">
      <stop offset="0" stop-color="#f5f5f5"/>
      <stop offset="0.25" stop-color="#f5f5f5"/>
      <stop offset="1" stop-color="#a7b3cf"/>
    </linearGradient>
    <linearGradient id="linear-gradient-2" x1="0.453" y1="-0.589" x2="0.5" y2="1" gradientUnits="objectBoundingBox">
      <stop offset="0" stop-color="#039be5"/>
      <stop offset="1" stop-color="#027fbc"/>
    </linearGradient>
  </defs>
  <g id="Grupo_161556" data-name="Grupo 161556" transform="translate(-255.211 -2251.941)">
    <path id="Trazado_196239" data-name="Trazado 196239" d="M-7964.41-6533.363h28.957v13.8l28.148-34.172-28.148-32.582v13.262h-28.957Z" transform="translate(8515.211 8883.941)" fill="#f59d36"/>
    <path id="Trazado_196240" data-name="Trazado 196240" d="M-7964.41-6533.363h28.957v13.8l28.148-34.172-28.148-32.582v13.262h-28.957Z" transform="translate(8892.926 8883.941)" fill="#f59d36"/>
    <path id="Trazado_196243" data-name="Trazado 196243" d="M-7964.41-6533.363h28.957v13.8l28.148-34.172-28.148-32.582v13.262h-28.957Z" transform="translate(-5407.01 10402.799) rotate(90)" fill="#f59d36"/>
    <path id="Trazado_199659" data-name="Trazado 199659" d="M20,0H250a20,20,0,0,1,20,20V138a20,20,0,0,1-20,20H20A20,20,0,0,1,0,138V20A20,20,0,0,1,20,0Z" transform="translate(633.211 2251.941)" fill="url(#linear-gradient)"/>
    <path id="Trazado_199660" data-name="Trazado 199660" d="M20,0H250a20,20,0,0,1,20,20V138a20,20,0,0,1-20,20H20A20,20,0,0,1,0,138V20A20,20,0,0,1,20,0Z" transform="translate(633.211 2523.941)" fill="url(#linear-gradient-2)"/>
    <path id="Trazado_199661" data-name="Trazado 199661" d="M20,0H250a20,20,0,0,1,20,20V138a20,20,0,0,1-20,20H20A20,20,0,0,1,0,138V20A20,20,0,0,1,20,0Z" transform="translate(1010.926 2251.941)" fill="url(#linear-gradient-2)"/>
    <path id="Trazado_199662" data-name="Trazado 199662" d="M20,0H250a20,20,0,0,1,20,20V138a20,20,0,0,1-20,20H20A20,20,0,0,1,0,138V20A20,20,0,0,1,20,0Z" transform="translate(1010.926 2523.941)" fill="url(#linear-gradient)"/>
    <path id="Trazado_199663" data-name="Trazado 199663" d="M20,0H250a20,20,0,0,1,20,20V138a20,20,0,0,1-20,20H20A20,20,0,0,1,0,138V20A20,20,0,0,1,20,0Z" transform="translate(255.211 2251.941)" fill="url(#linear-gradient-2)"/>
    <path id="Trazado_199664" data-name="Trazado 199664" d="M20,0H250a20,20,0,0,1,20,20V138a20,20,0,0,1-20,20H20A20,20,0,0,1,0,138V20A20,20,0,0,1,20,0Z" transform="translate(255.211 2523.941)" fill="url(#linear-gradient)"/>
    <path id="Trazado_196241" data-name="Trazado 196241" d="M-7964.41-6533.363h28.957v13.8l28.148-34.172-28.148-32.582v13.262h-28.957Z" transform="translate(-6978.789 -3949.994) rotate(180)" fill="#f59d36"/>
    <path id="Trazado_196242" data-name="Trazado 196242" d="M-7964.41-6533.363h28.957v13.8l28.148-34.172-28.148-32.582v13.262h-28.957Z" transform="translate(-7356.504 -3949.994) rotate(180)" fill="#f59d36"/>
    <path id="Trazado_199665" data-name="Trazado 199665" d="M-30.588-6.639h-5.93V-2.9h7V0H-40.289V-15.641h10.8v2.911h-7.025v3.3h5.93Zm8.529,3.373a.836.836,0,0,0-.483-.741,7.353,7.353,0,0,0-1.837-.58,8.376,8.376,0,0,1-2.234-.79,3.743,3.743,0,0,1-1.343-1.187,2.834,2.834,0,0,1-.462-1.6A3.212,3.212,0,0,1-27.1-10.8a5.443,5.443,0,0,1,3.459-1.037,6.03,6.03,0,0,1,3.7,1.042,3.258,3.258,0,0,1,1.4,2.739h-3.631q0-1.4-1.472-1.4a1.459,1.459,0,0,0-.956.317.981.981,0,0,0-.387.79.9.9,0,0,0,.473.784,4.466,4.466,0,0,0,1.509.494,13.043,13.043,0,0,1,1.821.462q2.621.9,2.621,3.233A3.044,3.044,0,0,1-19.98-.784a6.2,6.2,0,0,1-3.658,1A6.322,6.322,0,0,1-26.3-.322a4.455,4.455,0,0,1-1.826-1.461,3.308,3.308,0,0,1-.655-1.944H-25.4a1.4,1.4,0,0,0,.537,1.176,2.209,2.209,0,0,0,1.321.371,1.738,1.738,0,0,0,1.112-.3A.962.962,0,0,0-22.059-3.266Zm10.1.688a1.61,1.61,0,0,0,1.182-.414,1.517,1.517,0,0,0,.408-1.155h3.395A4.018,4.018,0,0,1-8.347-1.01,5.1,5.1,0,0,1-11.875.215a5.158,5.158,0,0,1-4-1.59,6.264,6.264,0,0,1-1.461-4.4v-.15a7.08,7.08,0,0,1,.65-3.11,4.732,4.732,0,0,1,1.875-2.073,5.589,5.589,0,0,1,2.9-.725,5.03,5.03,0,0,1,3.6,1.257A4.458,4.458,0,0,1-6.977-7.176h-3.395a1.987,1.987,0,0,0-.44-1.386,1.52,1.52,0,0,0-1.182-.483q-1.407,0-1.644,1.794a12.659,12.659,0,0,0-.075,1.568,4.972,4.972,0,0,0,.419,2.428A1.45,1.45,0,0,0-11.961-2.578ZM1.477-1.257A3.732,3.732,0,0,1-1.627.215,3.661,3.661,0,0,1-4.522-.9a4.676,4.676,0,0,1-.983-3.2v-7.53h3.62v7.552A1.3,1.3,0,0,0-.435-2.578,1.892,1.892,0,0,0,1.337-3.47v-8.153H4.979V0H1.584Zm10.4-1.321a1.61,1.61,0,0,0,1.182-.414,1.517,1.517,0,0,0,.408-1.155H16.86A4.018,4.018,0,0,1,15.49-1.01,5.1,5.1,0,0,1,11.961.215a5.158,5.158,0,0,1-4-1.59A6.264,6.264,0,0,1,6.5-5.779v-.15a7.08,7.08,0,0,1,.65-3.11,4.732,4.732,0,0,1,1.875-2.073,5.589,5.589,0,0,1,2.9-.725,5.03,5.03,0,0,1,3.6,1.257A4.458,4.458,0,0,1,16.86-7.176H13.465a1.987,1.987,0,0,0-.44-1.386,1.52,1.52,0,0,0-1.182-.483q-1.407,0-1.644,1.794a12.659,12.659,0,0,0-.075,1.568,4.972,4.972,0,0,0,.419,2.428A1.45,1.45,0,0,0,11.875-2.578Zm10.055-7.8A3.623,3.623,0,0,1,24.9-11.838,3.613,3.613,0,0,1,27.8-10.7a5.116,5.116,0,0,1,1,3.362V0H25.164V-7.251a2.046,2.046,0,0,0-.376-1.359,1.616,1.616,0,0,0-1.278-.435,1.74,1.74,0,0,0-1.579.709V0H18.31V-16.5h3.62ZM37.356,0a4.088,4.088,0,0,1-.344-1.042A3.366,3.366,0,0,1,34.219.215a4.124,4.124,0,0,1-2.793-.994,3.163,3.163,0,0,1-1.149-2.5,3.251,3.251,0,0,1,1.4-2.857A7.114,7.114,0,0,1,35.734-7.1h1.117v-.615q0-1.608-1.386-1.608A1.133,1.133,0,0,0,34.176-8.05h-3.62a3.245,3.245,0,0,1,1.434-2.736,6.027,6.027,0,0,1,3.658-1.051,5.284,5.284,0,0,1,3.513,1.085,3.772,3.772,0,0,1,1.321,2.976v5.146a5.269,5.269,0,0,0,.494,2.449V0ZM35.089-2.363a2.019,2.019,0,0,0,1.123-.29,1.818,1.818,0,0,0,.639-.655V-5.167H35.8q-1.891,0-1.891,1.7a1.036,1.036,0,0,0,.333.8A1.205,1.205,0,0,0,35.089-2.363ZM-22.231,23a4.087,4.087,0,0,1-.344-1.042,3.366,3.366,0,0,1-2.793,1.257,4.124,4.124,0,0,1-2.793-.994,3.163,3.163,0,0,1-1.149-2.5,3.251,3.251,0,0,1,1.4-2.857,7.114,7.114,0,0,1,4.061-.967h1.117v-.615q0-1.608-1.386-1.608a1.133,1.133,0,0,0-1.289,1.274h-3.62A3.245,3.245,0,0,1-27.6,12.214a6.027,6.027,0,0,1,3.658-1.051,5.284,5.284,0,0,1,3.513,1.085A3.772,3.772,0,0,1-19.1,15.223v5.146a5.269,5.269,0,0,0,.494,2.449V23ZM-24.5,20.637a2.019,2.019,0,0,0,1.123-.29,1.818,1.818,0,0,0,.639-.655V17.833h-1.053q-1.891,0-1.891,1.7a1.036,1.036,0,0,0,.333.8A1.205,1.205,0,0,0-24.5,20.637Zm12.311-.215a1.61,1.61,0,0,0,1.182-.414,1.517,1.517,0,0,0,.408-1.155H-7.2a4.018,4.018,0,0,1-1.37,3.137A5.1,5.1,0,0,1-12.1,23.215a5.158,5.158,0,0,1-4-1.59,6.264,6.264,0,0,1-1.461-4.4v-.15a7.08,7.08,0,0,1,.65-3.11,4.732,4.732,0,0,1,1.875-2.073,5.589,5.589,0,0,1,2.9-.725,5.03,5.03,0,0,1,3.6,1.257A4.458,4.458,0,0,1-7.2,15.824H-10.6a1.987,1.987,0,0,0-.44-1.386,1.52,1.52,0,0,0-1.182-.483q-1.407,0-1.644,1.794a12.659,12.659,0,0,0-.075,1.568,4.972,4.972,0,0,0,.419,2.428A1.45,1.45,0,0,0-12.187,20.422ZM-1.456,8.487v2.89H.457v2.514H-1.456v5.317a1.358,1.358,0,0,0,.236.913,1.268,1.268,0,0,0,.935.258,5.311,5.311,0,0,0,.9-.064V22.9a6.681,6.681,0,0,1-2.041.312,3.792,3.792,0,0,1-2.761-.881,3.61,3.61,0,0,1-.892-2.675V13.891H-6.558V11.377h1.482V8.487ZM5.7,23H2.068V11.377H5.7ZM1.853,8.38a1.616,1.616,0,0,1,.559-1.268,2.108,2.108,0,0,1,1.45-.494,2.108,2.108,0,0,1,1.45.494A1.616,1.616,0,0,1,5.871,8.38a1.616,1.616,0,0,1-.559,1.268,2.108,2.108,0,0,1-1.45.494,2.108,2.108,0,0,1-1.45-.494A1.616,1.616,0,0,1,1.853,8.38Zm10.71,10.313L14.4,11.377h3.813L14.421,23h-3.7L6.934,11.377h3.824ZM25.679,23a4.087,4.087,0,0,1-.344-1.042,3.366,3.366,0,0,1-2.793,1.257,4.124,4.124,0,0,1-2.793-.994,3.163,3.163,0,0,1-1.149-2.5A3.251,3.251,0,0,1,20,16.866a7.114,7.114,0,0,1,4.061-.967h1.117v-.615q0-1.608-1.386-1.608A1.133,1.133,0,0,0,22.5,14.95h-3.62a3.245,3.245,0,0,1,1.434-2.736,6.027,6.027,0,0,1,3.658-1.051,5.284,5.284,0,0,1,3.513,1.085,3.772,3.772,0,0,1,1.321,2.976v5.146a5.269,5.269,0,0,0,.494,2.449V23Zm-2.267-2.363a2.019,2.019,0,0,0,1.123-.29,1.818,1.818,0,0,0,.639-.655V17.833H24.122q-1.891,0-1.891,1.7a1.036,1.036,0,0,0,.333.8A1.205,1.205,0,0,0,23.413,20.637Z" transform="translate(390.211 2326.941)" fill="#fff"/>
    <path id="Trazado_199666" data-name="Trazado 199666" d="M-57.2-15.641l3.491,10.882,3.48-10.882h4.963V0h-3.781V-3.652l.365-7.477L-52.465,0h-2.492l-3.792-11.14.365,7.487V0h-3.771V-15.641ZM-36.491,0a4.088,4.088,0,0,1-.344-1.042A3.366,3.366,0,0,1-39.628.215a4.124,4.124,0,0,1-2.793-.994,3.163,3.163,0,0,1-1.149-2.5,3.251,3.251,0,0,1,1.4-2.857A7.114,7.114,0,0,1-38.113-7.1H-37v-.615q0-1.608-1.386-1.608A1.133,1.133,0,0,0-39.671-8.05h-3.62a3.245,3.245,0,0,1,1.434-2.736A6.027,6.027,0,0,1-38.2-11.838a5.284,5.284,0,0,1,3.513,1.085,3.772,3.772,0,0,1,1.321,2.976v5.146a5.269,5.269,0,0,0,.494,2.449V0Zm-2.267-2.363a2.019,2.019,0,0,0,1.123-.29A1.818,1.818,0,0,0-37-3.309V-5.167h-1.053q-1.891,0-1.891,1.7a1.036,1.036,0,0,0,.333.8A1.205,1.205,0,0,0-38.758-2.363Zm10.721-9.26.118,1.364A3.942,3.942,0,0,1-24.6-11.838a3.316,3.316,0,0,1,2.712,1.085,5.165,5.165,0,0,1,.929,3.266V0h-3.631V-7.337a1.961,1.961,0,0,0-.354-1.294,1.64,1.64,0,0,0-1.289-.414,1.726,1.726,0,0,0-1.579.838V0h-3.62V-11.623ZM-13.331.215a5.975,5.975,0,0,1-4.329-1.6,5.509,5.509,0,0,1-1.654-4.152v-.3a7.138,7.138,0,0,1,.661-3.147,4.834,4.834,0,0,1,1.928-2.111,5.821,5.821,0,0,1,3.008-.747,5.031,5.031,0,0,1,3.867,1.52A5.973,5.973,0,0,1-8.433-6.08v1.407h-7.2a2.609,2.609,0,0,0,.849,1.536,2.525,2.525,0,0,0,1.7.559,3.254,3.254,0,0,0,2.686-1.2l1.654,1.955A4.624,4.624,0,0,1-10.662-.338,6.48,6.48,0,0,1-13.331.215Zm-.408-9.26q-1.59,0-1.891,2.105h3.652v-.279a1.793,1.793,0,0,0-.44-1.348A1.753,1.753,0,0,0-13.739-9.045Zm10.656-2.578V.4a4.219,4.219,0,0,1-1.182,3.18A4.539,4.539,0,0,1-7.53,4.694a7.71,7.71,0,0,1-1.708-.183V1.772a6.926,6.926,0,0,0,1.021.1A1.325,1.325,0,0,0-6.714.376v-12Zm-3.9-3a1.616,1.616,0,0,1,.559-1.268,2.108,2.108,0,0,1,1.45-.494,2.108,2.108,0,0,1,1.45.494,1.616,1.616,0,0,1,.559,1.268,1.616,1.616,0,0,1-.559,1.268,2.108,2.108,0,0,1-1.45.494,2.108,2.108,0,0,1-1.45-.494A1.616,1.616,0,0,1-6.982-14.62Zm5.489,8.7a6.86,6.86,0,0,1,.677-3.1,4.84,4.84,0,0,1,1.944-2.089,5.856,5.856,0,0,1,2.976-.73,5.344,5.344,0,0,1,4.114,1.617,6.2,6.2,0,0,1,1.5,4.4v.129A6.019,6.019,0,0,1,8.212-1.38,5.359,5.359,0,0,1,4.125.215,5.42,5.42,0,0,1,.14-1.273,5.819,5.819,0,0,1-1.482-5.307Zm3.62.226a4.325,4.325,0,0,0,.5,2.363,1.682,1.682,0,0,0,1.493.752q1.934,0,1.977-2.976v-.365q0-3.126-2-3.126-1.815,0-1.966,2.7Zm14.212-.2a7.1,7.1,0,0,1,1.192-4.351,3.925,3.925,0,0,1,3.33-1.59,3.338,3.338,0,0,1,2.621,1.225V-16.5h3.631V0H23.858l-.183-1.246A3.428,3.428,0,0,1,20.84.215a3.918,3.918,0,0,1-3.287-1.59A7.325,7.325,0,0,1,16.339-5.9Zm3.62.226q0,3.094,1.8,3.094a1.782,1.782,0,0,0,1.719-1.01V-8.014a1.734,1.734,0,0,0-1.7-1.031q-1.676,0-1.815,2.707ZM34.794.215a5.975,5.975,0,0,1-4.329-1.6,5.509,5.509,0,0,1-1.654-4.152v-.3a7.138,7.138,0,0,1,.661-3.147A4.834,4.834,0,0,1,31.4-11.091a5.821,5.821,0,0,1,3.008-.747,5.031,5.031,0,0,1,3.867,1.52A5.973,5.973,0,0,1,39.692-6.08v1.407H32.5a2.609,2.609,0,0,0,.849,1.536,2.525,2.525,0,0,0,1.7.559,3.254,3.254,0,0,0,2.686-1.2l1.654,1.955A4.624,4.624,0,0,1,37.463-.338,6.48,6.48,0,0,1,34.794.215Zm-.408-9.26q-1.59,0-1.891,2.105h3.652v-.279a1.793,1.793,0,0,0-.44-1.348A1.753,1.753,0,0,0,34.386-9.045ZM50.445,0H46.814V-16.5h3.631Zm8.776,0a4.088,4.088,0,0,1-.344-1.042A3.366,3.366,0,0,1,56.085.215a4.124,4.124,0,0,1-2.793-.994,3.163,3.163,0,0,1-1.149-2.5,3.251,3.251,0,0,1,1.4-2.857A7.114,7.114,0,0,1,57.6-7.1h1.117v-.615q0-1.608-1.386-1.608A1.133,1.133,0,0,0,56.042-8.05h-3.62a3.245,3.245,0,0,1,1.434-2.736,6.027,6.027,0,0,1,3.658-1.051,5.284,5.284,0,0,1,3.513,1.085,3.772,3.772,0,0,1,1.321,2.976v5.146a5.269,5.269,0,0,0,.494,2.449V0ZM56.955-2.363a2.019,2.019,0,0,0,1.123-.29,1.818,1.818,0,0,0,.639-.655V-5.167H57.664q-1.891,0-1.891,1.7a1.036,1.036,0,0,0,.333.8A1.205,1.205,0,0,0,56.955-2.363ZM-86.437,23.215a5.975,5.975,0,0,1-4.329-1.6,5.509,5.509,0,0,1-1.654-4.152v-.3a7.138,7.138,0,0,1,.661-3.147,4.834,4.834,0,0,1,1.928-2.111,5.821,5.821,0,0,1,3.008-.747,5.031,5.031,0,0,1,3.867,1.52,5.973,5.973,0,0,1,1.418,4.238v1.407h-7.2a2.609,2.609,0,0,0,.849,1.536,2.525,2.525,0,0,0,1.7.559,3.254,3.254,0,0,0,2.686-1.2l1.654,1.955a4.624,4.624,0,0,1-1.917,1.488A6.48,6.48,0,0,1-86.437,23.215Zm-.408-9.26q-1.59,0-1.891,2.105h3.652v-.279a1.793,1.793,0,0,0-.44-1.348A1.753,1.753,0,0,0-86.845,13.955Zm11.473.623,1.687-3.2h3.76l-3.062,5.661L-69.776,23h-3.781l-1.826-3.437L-77.177,23h-3.8l3.223-5.962-3.051-5.661h3.8Zm17.4,2.7A7.009,7.009,0,0,1-59.189,21.6a3.909,3.909,0,0,1-3.292,1.617,3.351,3.351,0,0,1-2.632-1.171v5.425h-3.62V11.377h3.384l.107,1.074A3.351,3.351,0,0,1-62.5,11.162a3.941,3.941,0,0,1,3.341,1.584A7.1,7.1,0,0,1-57.97,17.1Zm-3.62-.226q0-3.094-1.8-3.094a1.7,1.7,0,0,0-1.719.924v4.576a1.759,1.759,0,0,0,1.74.967q1.729,0,1.783-2.986Zm12.246-2.4-1.192-.086a2.142,2.142,0,0,0-2.191,1.074V23h-3.62V11.377h3.395l.118,1.493a2.8,2.8,0,0,1,2.546-1.708,3.53,3.53,0,0,1,1.01.129Zm6.929,8.562a5.975,5.975,0,0,1-4.329-1.6A5.509,5.509,0,0,1-48.4,17.468v-.3a7.138,7.138,0,0,1,.661-3.147,4.834,4.834,0,0,1,1.928-2.111,5.821,5.821,0,0,1,3.008-.747,5.031,5.031,0,0,1,3.867,1.52,5.973,5.973,0,0,1,1.418,4.238v1.407h-7.2a2.609,2.609,0,0,0,.849,1.536,2.525,2.525,0,0,0,1.7.559,3.254,3.254,0,0,0,2.686-1.2l1.654,1.955a4.624,4.624,0,0,1-1.917,1.488A6.48,6.48,0,0,1-42.416,23.215Zm-.408-9.26q-1.59,0-1.891,2.105h3.652v-.279a1.793,1.793,0,0,0-.44-1.348A1.753,1.753,0,0,0-42.824,13.955Zm12.848,5.779a.836.836,0,0,0-.483-.741,7.353,7.353,0,0,0-1.837-.58,8.376,8.376,0,0,1-2.234-.79,3.743,3.743,0,0,1-1.343-1.187,2.835,2.835,0,0,1-.462-1.6A3.212,3.212,0,0,1-35.014,12.2a5.443,5.443,0,0,1,3.459-1.037,6.03,6.03,0,0,1,3.7,1.042,3.258,3.258,0,0,1,1.4,2.739h-3.631q0-1.4-1.472-1.4a1.459,1.459,0,0,0-.956.317.981.981,0,0,0-.387.79.9.9,0,0,0,.473.784,4.466,4.466,0,0,0,1.509.494,13.042,13.042,0,0,1,1.821.462q2.621.9,2.621,3.233A3.044,3.044,0,0,1-27.9,22.216a6.2,6.2,0,0,1-3.658,1,6.322,6.322,0,0,1-2.664-.537,4.455,4.455,0,0,1-1.826-1.461,3.308,3.308,0,0,1-.655-1.944h3.384a1.4,1.4,0,0,0,.537,1.176,2.209,2.209,0,0,0,1.321.371,1.738,1.738,0,0,0,1.112-.3A.962.962,0,0,0-29.976,19.734Zm9,3.266H-24.6V11.377h3.631ZM-24.82,8.38a1.616,1.616,0,0,1,.559-1.268,2.108,2.108,0,0,1,1.45-.494,2.108,2.108,0,0,1,1.45.494A1.616,1.616,0,0,1-20.8,8.38a1.616,1.616,0,0,1-.559,1.268,2.108,2.108,0,0,1-1.45.494,2.108,2.108,0,0,1-1.45-.494A1.616,1.616,0,0,1-24.82,8.38Zm5.618,8.7a6.86,6.86,0,0,1,.677-3.1,4.84,4.84,0,0,1,1.944-2.089,5.856,5.856,0,0,1,2.976-.73,5.344,5.344,0,0,1,4.114,1.617,6.2,6.2,0,0,1,1.5,4.4v.129A6.019,6.019,0,0,1-9.5,21.62a5.359,5.359,0,0,1-4.087,1.6,5.42,5.42,0,0,1-3.985-1.488,5.819,5.819,0,0,1-1.622-4.034Zm3.62.226a4.325,4.325,0,0,0,.5,2.363,1.682,1.682,0,0,0,1.493.752q1.934,0,1.977-2.976v-.365q0-3.126-2-3.126-1.815,0-1.966,2.7ZM-13.111,6.5h3.824l-2.986,3.373-2.954-.005Zm10.044,4.877.118,1.364A3.942,3.942,0,0,1,.371,11.162a3.316,3.316,0,0,1,2.712,1.085,5.165,5.165,0,0,1,.929,3.266V23H.381V15.663a1.961,1.961,0,0,0-.354-1.294,1.64,1.64,0,0,0-1.289-.414,1.726,1.726,0,0,0-1.579.838V23h-3.62V11.377Zm19.476,9.045a1.61,1.61,0,0,0,1.182-.414A1.517,1.517,0,0,0,18,18.854h3.395a4.018,4.018,0,0,1-1.37,3.137,5.1,5.1,0,0,1-3.529,1.225,5.158,5.158,0,0,1-4-1.59,6.264,6.264,0,0,1-1.461-4.4v-.15a7.08,7.08,0,0,1,.65-3.11,4.732,4.732,0,0,1,1.875-2.073,5.589,5.589,0,0,1,2.9-.725,5.03,5.03,0,0,1,3.6,1.257,4.458,4.458,0,0,1,1.332,3.405H18a1.987,1.987,0,0,0-.44-1.386,1.52,1.52,0,0,0-1.182-.483q-1.407,0-1.644,1.794a12.659,12.659,0,0,0-.075,1.568,4.972,4.972,0,0,0,.419,2.428A1.45,1.45,0,0,0,16.409,20.422Zm6.059-3.341a6.86,6.86,0,0,1,.677-3.1,4.84,4.84,0,0,1,1.944-2.089,5.856,5.856,0,0,1,2.976-.73,5.344,5.344,0,0,1,4.114,1.617,6.2,6.2,0,0,1,1.5,4.4v.129a6.019,6.019,0,0,1-1.509,4.313,5.359,5.359,0,0,1-4.087,1.6A5.42,5.42,0,0,1,24.1,21.727a5.819,5.819,0,0,1-1.622-4.034Zm3.62.226a4.325,4.325,0,0,0,.5,2.363,1.682,1.682,0,0,0,1.493.752q1.934,0,1.977-2.976v-.365q0-3.126-2-3.126-1.815,0-1.966,2.7Zm16.221-2.653-1.192-.086a2.142,2.142,0,0,0-2.191,1.074V23H35.3V11.377H38.7l.118,1.493a2.8,2.8,0,0,1,2.546-1.708,3.53,3.53,0,0,1,1.01.129Zm12.1,2.621A7.009,7.009,0,0,1,53.185,21.6a3.909,3.909,0,0,1-3.292,1.617,3.351,3.351,0,0,1-2.632-1.171v5.425H43.64V11.377h3.384l.107,1.074a3.351,3.351,0,0,1,2.739-1.289,3.941,3.941,0,0,1,3.341,1.584A7.1,7.1,0,0,1,54.4,17.1Zm-3.62-.226q0-3.094-1.8-3.094a1.7,1.7,0,0,0-1.719.924v4.576a1.759,1.759,0,0,0,1.74.967q1.729,0,1.783-2.986Zm4.759.032a6.86,6.86,0,0,1,.677-3.1,4.84,4.84,0,0,1,1.944-2.089,5.856,5.856,0,0,1,2.976-.73,5.344,5.344,0,0,1,4.114,1.617,6.2,6.2,0,0,1,1.5,4.4v.129a6.019,6.019,0,0,1-1.509,4.313,5.359,5.359,0,0,1-4.087,1.6,5.42,5.42,0,0,1-3.985-1.488,5.819,5.819,0,0,1-1.622-4.034Zm3.62.226a4.325,4.325,0,0,0,.5,2.363,1.682,1.682,0,0,0,1.493.752q1.934,0,1.977-2.976v-.365q0-3.126-2-3.126-1.815,0-1.966,2.7Zm16.221-2.653-1.192-.086A2.142,2.142,0,0,0,72,15.642V23h-3.62V11.377h3.395l.118,1.493a2.8,2.8,0,0,1,2.546-1.708,3.53,3.53,0,0,1,1.01.129ZM82.914,23a4.087,4.087,0,0,1-.344-1.042,3.366,3.366,0,0,1-2.793,1.257,4.124,4.124,0,0,1-2.793-.994,3.163,3.163,0,0,1-1.149-2.5,3.251,3.251,0,0,1,1.4-2.857,7.114,7.114,0,0,1,4.061-.967h1.117v-.615q0-1.608-1.386-1.608a1.133,1.133,0,0,0-1.289,1.274h-3.62a3.245,3.245,0,0,1,1.434-2.736,6.027,6.027,0,0,1,3.658-1.051,5.284,5.284,0,0,1,3.513,1.085,3.772,3.772,0,0,1,1.321,2.976v5.146a5.269,5.269,0,0,0,.494,2.449V23Zm-2.267-2.363a2.019,2.019,0,0,0,1.123-.29,1.818,1.818,0,0,0,.639-.655V17.833H81.356q-1.891,0-1.891,1.7a1.036,1.036,0,0,0,.333.8A1.205,1.205,0,0,0,80.647,20.637ZM91.862,23H88.231V6.5h3.631Z" transform="translate(390.211 2603.941)" fill="#12263f"/>
    <path id="Trazado_199667" data-name="Trazado 199667" d="M-60.425-5.532h-2.041V0h-3.771V-15.641h6.155a6.87,6.87,0,0,1,4.351,1.234,4.181,4.181,0,0,1,1.568,3.488,5.078,5.078,0,0,1-.661,2.7,4.689,4.689,0,0,1-2.068,1.738l3.266,6.315V0h-4.039Zm-2.041-2.9h2.385A2.141,2.141,0,0,0-58.464-9a2.186,2.186,0,0,0,.542-1.578,2.211,2.211,0,0,0-.548-1.588,2.121,2.121,0,0,0-1.611-.576h-2.385ZM-46.428.215a5.975,5.975,0,0,1-4.329-1.6,5.509,5.509,0,0,1-1.654-4.152v-.3A7.138,7.138,0,0,1-51.75-8.98a4.834,4.834,0,0,1,1.928-2.111,5.821,5.821,0,0,1,3.008-.747,5.031,5.031,0,0,1,3.867,1.52A5.973,5.973,0,0,1-41.529-6.08v1.407h-7.2a2.609,2.609,0,0,0,.849,1.536,2.525,2.525,0,0,0,1.7.559,3.254,3.254,0,0,0,2.686-1.2l1.654,1.955A4.624,4.624,0,0,1-43.758-.338,6.48,6.48,0,0,1-46.428.215Zm-.408-9.26q-1.59,0-1.891,2.105h3.652v-.279a1.793,1.793,0,0,0-.44-1.348A1.753,1.753,0,0,0-46.836-9.045Zm12.848,5.779a.836.836,0,0,0-.483-.741,7.353,7.353,0,0,0-1.837-.58,8.376,8.376,0,0,1-2.234-.79,3.743,3.743,0,0,1-1.343-1.187,2.835,2.835,0,0,1-.462-1.6A3.212,3.212,0,0,1-39.026-10.8a5.443,5.443,0,0,1,3.459-1.037,6.03,6.03,0,0,1,3.7,1.042,3.258,3.258,0,0,1,1.4,2.739h-3.631q0-1.4-1.472-1.4a1.459,1.459,0,0,0-.956.317.981.981,0,0,0-.387.79.9.9,0,0,0,.473.784,4.466,4.466,0,0,0,1.509.494,13.042,13.042,0,0,1,1.821.462q2.621.9,2.621,3.233A3.044,3.044,0,0,1-31.91-.784a6.2,6.2,0,0,1-3.658,1,6.322,6.322,0,0,1-2.664-.537,4.455,4.455,0,0,1-1.826-1.461,3.308,3.308,0,0,1-.655-1.944h3.384a1.4,1.4,0,0,0,.537,1.176,2.209,2.209,0,0,0,1.321.371,1.738,1.738,0,0,0,1.112-.3A.962.962,0,0,0-33.988-3.266Zm15.974-2.46A7.009,7.009,0,0,1-19.234-1.4,3.909,3.909,0,0,1-22.526.215,3.351,3.351,0,0,1-25.158-.956V4.469h-3.62V-11.623h3.384l.107,1.074a3.351,3.351,0,0,1,2.739-1.289,3.941,3.941,0,0,1,3.341,1.584A7.1,7.1,0,0,1-18.015-5.9Zm-3.62-.226q0-3.094-1.8-3.094a1.7,1.7,0,0,0-1.719.924v4.576a1.759,1.759,0,0,0,1.74.967q1.729,0,1.783-2.986ZM-12.6,0h-3.631V-11.623H-12.6Zm-3.846-14.62a1.616,1.616,0,0,1,.559-1.268,2.108,2.108,0,0,1,1.45-.494,2.108,2.108,0,0,1,1.45.494,1.616,1.616,0,0,1,.559,1.268,1.616,1.616,0,0,1-.559,1.268,2.108,2.108,0,0,1-1.45.494,2.108,2.108,0,0,1-1.45-.494A1.616,1.616,0,0,1-16.446-14.62ZM-3.341-8.347l-1.192-.086A2.142,2.142,0,0,0-6.725-7.358V0h-3.62V-11.623H-6.95l.118,1.493a2.8,2.8,0,0,1,2.546-1.708,3.53,3.53,0,0,1,1.01.129ZM4.189,0a4.087,4.087,0,0,1-.344-1.042A3.366,3.366,0,0,1,1.053.215,4.124,4.124,0,0,1-1.74-.779a3.163,3.163,0,0,1-1.149-2.5,3.251,3.251,0,0,1,1.4-2.857A7.114,7.114,0,0,1,2.567-7.1H3.685v-.615q0-1.608-1.386-1.608A1.133,1.133,0,0,0,1.01-8.05H-2.61a3.245,3.245,0,0,1,1.434-2.736,6.027,6.027,0,0,1,3.658-1.051,5.284,5.284,0,0,1,3.513,1.085A3.772,3.772,0,0,1,7.315-7.777v5.146A5.269,5.269,0,0,0,7.81-.183V0ZM1.923-2.363a2.019,2.019,0,0,0,1.123-.29,1.818,1.818,0,0,0,.639-.655V-5.167H2.632q-1.891,0-1.891,1.7a1.036,1.036,0,0,0,.333.8A1.205,1.205,0,0,0,1.923-2.363Zm12.311-.215a1.61,1.61,0,0,0,1.182-.414,1.517,1.517,0,0,0,.408-1.155h3.395a4.018,4.018,0,0,1-1.37,3.137A5.1,5.1,0,0,1,14.319.215a5.158,5.158,0,0,1-4-1.59,6.264,6.264,0,0,1-1.461-4.4v-.15a7.08,7.08,0,0,1,.65-3.11,4.732,4.732,0,0,1,1.875-2.073,5.589,5.589,0,0,1,2.9-.725,5.03,5.03,0,0,1,3.6,1.257,4.458,4.458,0,0,1,1.332,3.405H15.823a1.987,1.987,0,0,0-.44-1.386A1.52,1.52,0,0,0,14.2-9.045q-1.407,0-1.644,1.794a12.659,12.659,0,0,0-.075,1.568A4.972,4.972,0,0,0,12.9-3.255,1.45,1.45,0,0,0,14.233-2.578ZM24.567,0H20.937V-11.623h3.631ZM20.722-14.62a1.616,1.616,0,0,1,.559-1.268,2.108,2.108,0,0,1,1.45-.494,2.108,2.108,0,0,1,1.45.494,1.616,1.616,0,0,1,.559,1.268,1.616,1.616,0,0,1-.559,1.268,2.108,2.108,0,0,1-1.45.494,2.108,2.108,0,0,1-1.45-.494A1.616,1.616,0,0,1,20.722-14.62Zm5.618,8.7a6.86,6.86,0,0,1,.677-3.1,4.84,4.84,0,0,1,1.944-2.089,5.856,5.856,0,0,1,2.976-.73,5.344,5.344,0,0,1,4.114,1.617,6.2,6.2,0,0,1,1.5,4.4v.129A6.019,6.019,0,0,1,36.045-1.38a5.359,5.359,0,0,1-4.087,1.6,5.42,5.42,0,0,1-3.985-1.488,5.819,5.819,0,0,1-1.622-4.034Zm3.62.226a4.325,4.325,0,0,0,.5,2.363,1.682,1.682,0,0,0,1.493.752q1.934,0,1.977-2.976v-.365q0-3.126-2-3.126-1.815,0-1.966,2.7ZM32.431-16.5h3.824l-2.986,3.373-2.954-.005Zm10.044,4.877.118,1.364a3.942,3.942,0,0,1,3.319-1.579,3.316,3.316,0,0,1,2.712,1.085,5.165,5.165,0,0,1,.929,3.266V0H45.923V-7.337a1.961,1.961,0,0,0-.354-1.294,1.64,1.64,0,0,0-1.289-.414,1.726,1.726,0,0,0-1.579.838V0H39.08V-11.623ZM61.682-5.07l1.934-6.553h3.878L62.756,1.944l-.2.494a3.6,3.6,0,0,1-3.566,2.256,5.674,5.674,0,0,1-1.493-.214V1.9h.473a2.476,2.476,0,0,0,1.166-.22,1.337,1.337,0,0,0,.6-.79l.29-.774-4.039-11.74h3.867ZM-80.2,14.653l-1.192-.086a2.142,2.142,0,0,0-2.191,1.074V23H-87.2V11.377h3.395l.118,1.493a2.8,2.8,0,0,1,2.546-1.708,3.53,3.53,0,0,1,1.01.129ZM-75.072,23H-78.7V11.377h3.631ZM-78.917,8.38a1.616,1.616,0,0,1,.559-1.268,2.108,2.108,0,0,1,1.45-.494,2.108,2.108,0,0,1,1.45.494A1.616,1.616,0,0,1-74.9,8.38a1.616,1.616,0,0,1-.559,1.268,2.108,2.108,0,0,1-1.45.494,2.108,2.108,0,0,1-1.45-.494A1.616,1.616,0,0,1-78.917,8.38Zm10.291.107v2.89h1.912v2.514h-1.912v5.317a1.358,1.358,0,0,0,.236.913,1.268,1.268,0,0,0,.935.258,5.311,5.311,0,0,0,.9-.064V22.9a6.681,6.681,0,0,1-2.041.312,3.792,3.792,0,0,1-2.761-.881,3.61,3.61,0,0,1-.892-2.675V13.891h-1.482V11.377h1.482V8.487Zm6.757,2.89.118,1.364a4,4,0,0,1,3.319-1.579,2.942,2.942,0,0,1,2.976,1.751,3.868,3.868,0,0,1,3.416-1.751q3.534,0,3.631,4.275V23h-3.631V15.663a2.216,2.216,0,0,0-.3-1.3,1.28,1.28,0,0,0-1.1-.408,1.715,1.715,0,0,0-1.6.956l.011.15V23h-3.631V15.685a2.329,2.329,0,0,0-.29-1.321,1.277,1.277,0,0,0-1.106-.408,1.736,1.736,0,0,0-1.59.956V23h-3.62V11.377Zm15.071,5.7a6.86,6.86,0,0,1,.677-3.1,4.84,4.84,0,0,1,1.944-2.089,5.856,5.856,0,0,1,2.976-.73,5.344,5.344,0,0,1,4.114,1.617,6.2,6.2,0,0,1,1.5,4.4v.129a6.019,6.019,0,0,1-1.509,4.313,5.359,5.359,0,0,1-4.087,1.6,5.42,5.42,0,0,1-3.985-1.488,5.819,5.819,0,0,1-1.622-4.034Zm3.62.226a4.325,4.325,0,0,0,.5,2.363,1.682,1.682,0,0,0,1.493.752q1.934,0,1.977-2.976v-.365q0-3.126-2-3.126-1.815,0-1.966,2.7ZM-23.6,20.422a1.61,1.61,0,0,0,1.182-.414,1.517,1.517,0,0,0,.408-1.155h3.395a4.018,4.018,0,0,1-1.37,3.137,5.1,5.1,0,0,1-3.529,1.225,5.158,5.158,0,0,1-4-1.59,6.264,6.264,0,0,1-1.461-4.4v-.15a7.08,7.08,0,0,1,.65-3.11,4.732,4.732,0,0,1,1.875-2.073,5.589,5.589,0,0,1,2.9-.725,5.03,5.03,0,0,1,3.6,1.257,4.458,4.458,0,0,1,1.332,3.405h-3.395a1.987,1.987,0,0,0-.44-1.386,1.52,1.52,0,0,0-1.182-.483q-1.407,0-1.644,1.794a12.658,12.658,0,0,0-.075,1.568,4.972,4.972,0,0,0,.419,2.428A1.45,1.45,0,0,0-23.6,20.422Zm6.059-3.341a6.86,6.86,0,0,1,.677-3.1,4.84,4.84,0,0,1,1.944-2.089,5.856,5.856,0,0,1,2.976-.73,5.344,5.344,0,0,1,4.114,1.617,6.2,6.2,0,0,1,1.5,4.4v.129A6.019,6.019,0,0,1-7.831,21.62a5.359,5.359,0,0,1-4.087,1.6A5.42,5.42,0,0,1-15.9,21.727a5.819,5.819,0,0,1-1.622-4.034Zm3.62.226a4.325,4.325,0,0,0,.5,2.363,1.682,1.682,0,0,0,1.493.752q1.934,0,1.977-2.976v-.365q0-3.126-2-3.126-1.815,0-1.966,2.7ZM-1.4,11.377l.118,1.364a3.942,3.942,0,0,1,3.319-1.579,3.316,3.316,0,0,1,2.712,1.085,5.165,5.165,0,0,1,.929,3.266V23H2.046V15.663a1.961,1.961,0,0,0-.354-1.294A1.64,1.64,0,0,0,.4,13.955a1.726,1.726,0,0,0-1.579.838V23H-4.8V11.377Zm13.3-2.89v2.89h1.912v2.514H11.9v5.317a1.358,1.358,0,0,0,.236.913,1.268,1.268,0,0,0,.935.258,5.311,5.311,0,0,0,.9-.064V22.9a6.681,6.681,0,0,1-2.041.312,3.792,3.792,0,0,1-2.761-.881,3.61,3.61,0,0,1-.892-2.675V13.891H6.794V11.377H8.277V8.487Zm10.366,6.166-1.192-.086a2.142,2.142,0,0,0-2.191,1.074V23h-3.62V11.377h3.395l.118,1.493a2.8,2.8,0,0,1,2.546-1.708,3.53,3.53,0,0,1,1.01.129Zm.462,2.428a6.86,6.86,0,0,1,.677-3.1,4.84,4.84,0,0,1,1.944-2.089,5.856,5.856,0,0,1,2.976-.73,5.344,5.344,0,0,1,4.114,1.617,6.2,6.2,0,0,1,1.5,4.4v.129a6.019,6.019,0,0,1-1.509,4.313,5.359,5.359,0,0,1-4.087,1.6,5.42,5.42,0,0,1-3.985-1.488,5.819,5.819,0,0,1-1.622-4.034Zm3.62.226a4.325,4.325,0,0,0,.5,2.363,1.682,1.682,0,0,0,1.493.752q1.934,0,1.977-2.976v-.365q0-3.126-2-3.126-1.815,0-1.966,2.7ZM39.354,23H35.723V6.5h3.631Zm8.776,0a4.088,4.088,0,0,1-.344-1.042,3.366,3.366,0,0,1-2.793,1.257,4.124,4.124,0,0,1-2.793-.994,3.163,3.163,0,0,1-1.149-2.5,3.251,3.251,0,0,1,1.4-2.857,7.114,7.114,0,0,1,4.061-.967h1.117v-.615q0-1.608-1.386-1.608a1.133,1.133,0,0,0-1.289,1.274h-3.62a3.245,3.245,0,0,1,1.434-2.736,6.027,6.027,0,0,1,3.658-1.051,5.284,5.284,0,0,1,3.513,1.085,3.772,3.772,0,0,1,1.321,2.976v5.146a5.269,5.269,0,0,0,.494,2.449V23Zm-2.267-2.363a2.019,2.019,0,0,0,1.123-.29,1.818,1.818,0,0,0,.639-.655V17.833H46.573q-1.891,0-1.891,1.7a1.036,1.036,0,0,0,.333.8A1.205,1.205,0,0,0,45.864,20.637ZM52.8,17.1A7.1,7.1,0,0,1,54,12.752a3.925,3.925,0,0,1,3.33-1.59,3.338,3.338,0,0,1,2.621,1.225V6.5h3.631V23H60.323l-.183-1.246A3.428,3.428,0,0,1,57.3,23.215a3.918,3.918,0,0,1-3.287-1.59A7.325,7.325,0,0,1,52.8,17.1Zm3.62.226q0,3.094,1.8,3.094a1.782,1.782,0,0,0,1.719-1.01V14.986a1.734,1.734,0,0,0-1.7-1.031q-1.676,0-1.815,2.707Zm8.755-.247a6.86,6.86,0,0,1,.677-3.1A4.84,4.84,0,0,1,67.8,11.893a5.856,5.856,0,0,1,2.976-.73,5.344,5.344,0,0,1,4.114,1.617,6.2,6.2,0,0,1,1.5,4.4v.129a6.019,6.019,0,0,1-1.509,4.313,5.359,5.359,0,0,1-4.087,1.6,5.42,5.42,0,0,1-3.985-1.488,5.819,5.819,0,0,1-1.622-4.034Zm3.62.226a4.325,4.325,0,0,0,.5,2.363,1.682,1.682,0,0,0,1.493.752q1.934,0,1.977-2.976v-.365q0-3.126-2-3.126-1.815,0-1.966,2.7Zm15.275,2.428a.836.836,0,0,0-.483-.741,7.353,7.353,0,0,0-1.837-.58,8.376,8.376,0,0,1-2.234-.79,3.743,3.743,0,0,1-1.343-1.187,2.834,2.834,0,0,1-.462-1.6A3.212,3.212,0,0,1,79.036,12.2a5.443,5.443,0,0,1,3.459-1.037,6.03,6.03,0,0,1,3.7,1.042,3.258,3.258,0,0,1,1.4,2.739H83.956q0-1.4-1.472-1.4a1.459,1.459,0,0,0-.956.317.981.981,0,0,0-.387.79.9.9,0,0,0,.473.784,4.466,4.466,0,0,0,1.509.494,13.043,13.043,0,0,1,1.821.462q2.621.9,2.621,3.233a3.044,3.044,0,0,1-1.413,2.589,6.2,6.2,0,0,1-3.658,1,6.322,6.322,0,0,1-2.664-.537A4.455,4.455,0,0,1,78,21.217a3.308,3.308,0,0,1-.655-1.944h3.384a1.4,1.4,0,0,0,.537,1.176,2.209,2.209,0,0,0,1.321.371,1.738,1.738,0,0,0,1.112-.3A.962.962,0,0,0,84.074,19.734Z" transform="translate(1146.211 2326.941)" fill="#fff"/>
    <path id="Trazado_199668" data-name="Trazado 199668" d="M-69.647-4.254l3.115-11.387h4.211L-67.584,0h-4.125L-76.93-15.641h4.179ZM-62.3-5.919a6.86,6.86,0,0,1,.677-3.1,4.84,4.84,0,0,1,1.944-2.089,5.856,5.856,0,0,1,2.976-.73,5.344,5.344,0,0,1,4.114,1.617,6.2,6.2,0,0,1,1.5,4.4v.129A6.019,6.019,0,0,1-52.594-1.38a5.359,5.359,0,0,1-4.087,1.6,5.42,5.42,0,0,1-3.985-1.488,5.819,5.819,0,0,1-1.622-4.034Zm3.62.226a4.325,4.325,0,0,0,.5,2.363,1.682,1.682,0,0,0,1.493.752q1.934,0,1.977-2.976v-.365q0-3.126-2-3.126-1.815,0-1.966,2.7Zm13.288,2.9h5.3V0h-9.872V-2.02l5.156-6.811h-4.931v-2.793h9.528v1.955ZM-22.07-5.726A7.009,7.009,0,0,1-23.289-1.4,3.909,3.909,0,0,1-26.582.215,3.351,3.351,0,0,1-29.213-.956V4.469h-3.62V-11.623h3.384l.107,1.074A3.351,3.351,0,0,1-26.6-11.838a3.941,3.941,0,0,1,3.341,1.584A7.1,7.1,0,0,1-22.07-5.9Zm-3.62-.226q0-3.094-1.8-3.094a1.7,1.7,0,0,0-1.719.924v4.576a1.759,1.759,0,0,0,1.74.967q1.729,0,1.783-2.986Zm12.246-2.4-1.192-.086a2.142,2.142,0,0,0-2.191,1.074V0h-3.62V-11.623h3.395l.118,1.493a2.8,2.8,0,0,1,2.546-1.708,3.53,3.53,0,0,1,1.01.129Zm.462,2.428a6.86,6.86,0,0,1,.677-3.1,4.84,4.84,0,0,1,1.944-2.089,5.856,5.856,0,0,1,2.976-.73,5.344,5.344,0,0,1,4.114,1.617,6.2,6.2,0,0,1,1.5,4.4v.129A6.019,6.019,0,0,1-3.276-1.38,5.359,5.359,0,0,1-7.364.215a5.42,5.42,0,0,1-3.985-1.488,5.819,5.819,0,0,1-1.622-4.034Zm3.62.226a4.325,4.325,0,0,0,.5,2.363,1.682,1.682,0,0,0,1.493.752q1.934,0,1.977-2.976v-.365q0-3.126-2-3.126-1.815,0-1.966,2.7ZM4.474-5.07l1.934-6.553h3.878L5.548,1.944l-.2.494A3.6,3.6,0,0,1,1.778,4.694,5.674,5.674,0,0,1,.285,4.48V1.9H.757a2.476,2.476,0,0,0,1.166-.22,1.337,1.337,0,0,0,.6-.79l.29-.774L-1.23-11.623H2.637ZM16.849.215a5.975,5.975,0,0,1-4.329-1.6,5.509,5.509,0,0,1-1.654-4.152v-.3a7.138,7.138,0,0,1,.661-3.147,4.834,4.834,0,0,1,1.928-2.111,5.821,5.821,0,0,1,3.008-.747,5.031,5.031,0,0,1,3.867,1.52A5.973,5.973,0,0,1,21.748-6.08v1.407h-7.2A2.609,2.609,0,0,0,15.4-3.137a2.525,2.525,0,0,0,1.7.559,3.254,3.254,0,0,0,2.686-1.2l1.654,1.955A4.624,4.624,0,0,1,19.519-.338,6.48,6.48,0,0,1,16.849.215Zm-.408-9.26q-1.59,0-1.891,2.105H18.2v-.279a1.793,1.793,0,0,0-.44-1.348A1.753,1.753,0,0,0,16.441-9.045ZM28.118-2.578A1.61,1.61,0,0,0,29.3-2.992a1.517,1.517,0,0,0,.408-1.155H33.1a4.018,4.018,0,0,1-1.37,3.137A5.1,5.1,0,0,1,28.2.215a5.158,5.158,0,0,1-4-1.59,6.264,6.264,0,0,1-1.461-4.4v-.15a7.08,7.08,0,0,1,.65-3.11,4.732,4.732,0,0,1,1.875-2.073,5.589,5.589,0,0,1,2.9-.725,5.03,5.03,0,0,1,3.6,1.257A4.458,4.458,0,0,1,33.1-7.176H29.708a1.987,1.987,0,0,0-.44-1.386,1.52,1.52,0,0,0-1.182-.483q-1.407,0-1.644,1.794a12.658,12.658,0,0,0-.075,1.568,4.972,4.972,0,0,0,.419,2.428A1.45,1.45,0,0,0,28.118-2.578ZM38.849-14.513v2.89h1.912v2.514H38.849v5.317a1.358,1.358,0,0,0,.236.913,1.268,1.268,0,0,0,.935.258,5.311,5.311,0,0,0,.9-.064V-.1a6.681,6.681,0,0,1-2.041.312,3.792,3.792,0,0,1-2.761-.881,3.61,3.61,0,0,1-.892-2.675V-9.109H33.747v-2.514h1.482v-2.89ZM48.732,0a4.088,4.088,0,0,1-.344-1.042A3.366,3.366,0,0,1,45.6.215,4.124,4.124,0,0,1,42.8-.779a3.163,3.163,0,0,1-1.149-2.5,3.251,3.251,0,0,1,1.4-2.857A7.114,7.114,0,0,1,47.11-7.1h1.117v-.615q0-1.608-1.386-1.608A1.133,1.133,0,0,0,45.552-8.05h-3.62a3.245,3.245,0,0,1,1.434-2.736,6.027,6.027,0,0,1,3.658-1.051,5.284,5.284,0,0,1,3.513,1.085,3.772,3.772,0,0,1,1.321,2.976v5.146a5.269,5.269,0,0,0,.494,2.449V0ZM46.465-2.363a2.019,2.019,0,0,0,1.123-.29,1.818,1.818,0,0,0,.639-.655V-5.167H47.174q-1.891,0-1.891,1.7a1.036,1.036,0,0,0,.333.8A1.205,1.205,0,0,0,46.465-2.363ZM53.4-5.9A7.1,7.1,0,0,1,54.6-10.248a3.925,3.925,0,0,1,3.33-1.59,3.338,3.338,0,0,1,2.621,1.225V-16.5h3.631V0H60.924l-.183-1.246A3.428,3.428,0,0,1,57.906.215a3.918,3.918,0,0,1-3.287-1.59A7.325,7.325,0,0,1,53.4-5.9Zm3.62.226q0,3.094,1.8,3.094a1.782,1.782,0,0,0,1.719-1.01V-8.014a1.734,1.734,0,0,0-1.7-1.031q-1.676,0-1.815,2.707ZM72.784,0a4.087,4.087,0,0,1-.344-1.042A3.366,3.366,0,0,1,69.647.215a4.124,4.124,0,0,1-2.793-.994,3.163,3.163,0,0,1-1.149-2.5,3.251,3.251,0,0,1,1.4-2.857A7.114,7.114,0,0,1,71.162-7.1h1.117v-.615q0-1.608-1.386-1.608A1.133,1.133,0,0,0,69.6-8.05h-3.62a3.245,3.245,0,0,1,1.434-2.736,6.027,6.027,0,0,1,3.658-1.051,5.284,5.284,0,0,1,3.513,1.085A3.772,3.772,0,0,1,75.91-7.777v5.146A5.269,5.269,0,0,0,76.4-.183V0ZM70.517-2.363a2.019,2.019,0,0,0,1.123-.29,1.818,1.818,0,0,0,.639-.655V-5.167H71.226q-1.891,0-1.891,1.7a1.036,1.036,0,0,0,.333.8A1.205,1.205,0,0,0,70.517-2.363ZM-64.464,20.422a1.61,1.61,0,0,0,1.182-.414,1.517,1.517,0,0,0,.408-1.155h3.395a4.018,4.018,0,0,1-1.37,3.137,5.1,5.1,0,0,1-3.529,1.225,5.158,5.158,0,0,1-4-1.59,6.264,6.264,0,0,1-1.461-4.4v-.15a7.08,7.08,0,0,1,.65-3.11,4.732,4.732,0,0,1,1.875-2.073,5.589,5.589,0,0,1,2.9-.725,5.03,5.03,0,0,1,3.6,1.257,4.458,4.458,0,0,1,1.332,3.405h-3.395a1.987,1.987,0,0,0-.44-1.386,1.52,1.52,0,0,0-1.182-.483q-1.407,0-1.644,1.794a12.658,12.658,0,0,0-.075,1.568,4.972,4.972,0,0,0,.419,2.428A1.45,1.45,0,0,0-64.464,20.422Zm6.059-3.341a6.86,6.86,0,0,1,.677-3.1,4.84,4.84,0,0,1,1.944-2.089,5.856,5.856,0,0,1,2.976-.73,5.344,5.344,0,0,1,4.114,1.617,6.2,6.2,0,0,1,1.5,4.4v.129A6.019,6.019,0,0,1-48.7,21.62a5.359,5.359,0,0,1-4.087,1.6,5.42,5.42,0,0,1-3.985-1.488,5.819,5.819,0,0,1-1.622-4.034Zm3.62.226a4.325,4.325,0,0,0,.5,2.363,1.682,1.682,0,0,0,1.493.752q1.934,0,1.977-2.976v-.365q0-3.126-2-3.126-1.815,0-1.966,2.7Zm12.515-5.93.118,1.364a3.942,3.942,0,0,1,3.319-1.579,3.316,3.316,0,0,1,2.712,1.085,5.165,5.165,0,0,1,.929,3.266V23h-3.631V15.663a1.961,1.961,0,0,0-.354-1.294,1.64,1.64,0,0,0-1.289-.414,1.726,1.726,0,0,0-1.579.838V23h-3.62V11.377Zm20.646,8.357a.836.836,0,0,0-.483-.741,7.353,7.353,0,0,0-1.837-.58,8.376,8.376,0,0,1-2.234-.79,3.743,3.743,0,0,1-1.343-1.187,2.834,2.834,0,0,1-.462-1.6A3.212,3.212,0,0,1-26.662,12.2,5.443,5.443,0,0,1-23.2,11.162a6.03,6.03,0,0,1,3.7,1.042,3.258,3.258,0,0,1,1.4,2.739h-3.631q0-1.4-1.472-1.4a1.459,1.459,0,0,0-.956.317.981.981,0,0,0-.387.79.9.9,0,0,0,.473.784,4.466,4.466,0,0,0,1.509.494,13.042,13.042,0,0,1,1.821.462q2.621.9,2.621,3.233a3.044,3.044,0,0,1-1.413,2.589,6.2,6.2,0,0,1-3.658,1,6.322,6.322,0,0,1-2.664-.537,4.455,4.455,0,0,1-1.826-1.461,3.308,3.308,0,0,1-.655-1.944h3.384a1.4,1.4,0,0,0,.537,1.176,2.209,2.209,0,0,0,1.321.371,1.738,1.738,0,0,0,1.112-.3A.962.962,0,0,0-21.624,19.734Zm10.807,3.48a5.975,5.975,0,0,1-4.329-1.6A5.509,5.509,0,0,1-16.8,17.468v-.3a7.138,7.138,0,0,1,.661-3.147,4.834,4.834,0,0,1,1.928-2.111,5.821,5.821,0,0,1,3.008-.747,5.031,5.031,0,0,1,3.867,1.52A5.973,5.973,0,0,1-5.919,16.92v1.407h-7.2a2.609,2.609,0,0,0,.849,1.536,2.525,2.525,0,0,0,1.7.559,3.254,3.254,0,0,0,2.686-1.2l1.654,1.955a4.624,4.624,0,0,1-1.917,1.488A6.48,6.48,0,0,1-10.817,23.215Zm-.408-9.26q-1.59,0-1.891,2.105h3.652v-.279a1.793,1.793,0,0,0-.44-1.348A1.753,1.753,0,0,0-11.226,13.955ZM-4.888,17.1a7.848,7.848,0,0,1,.58-3.115A4.67,4.67,0,0,1-2.643,11.9a4.389,4.389,0,0,1,2.524-.736,3.49,3.49,0,0,1,2.836,1.225l.129-1.01H6.134V22.56a4.9,4.9,0,0,1-.714,2.669,4.584,4.584,0,0,1-2.068,1.74,7.6,7.6,0,0,1-3.137.607,6.557,6.557,0,0,1-2.476-.483,4.47,4.47,0,0,1-1.832-1.257l1.515-2.127A3.319,3.319,0,0,0,.086,24.9a2.156,2.156,0,0,0,2.406-2.471v-.365A3.4,3.4,0,0,1-.14,23.215a4.2,4.2,0,0,1-3.437-1.627,6.743,6.743,0,0,1-1.311-4.356Zm3.631.226A4.135,4.135,0,0,0-.72,19.589a1.7,1.7,0,0,0,1.5.833,1.923,1.923,0,0,0,1.708-.784V14.75a1.875,1.875,0,0,0-1.687-.795,1.706,1.706,0,0,0-1.515.865A4.715,4.715,0,0,0-1.257,17.328Zm16.371,4.415a3.732,3.732,0,0,1-3.1,1.472,3.661,3.661,0,0,1-2.9-1.112,4.676,4.676,0,0,1-.983-3.2v-7.53h3.62v7.552a1.3,1.3,0,0,0,1.45,1.493,1.892,1.892,0,0,0,1.772-.892V11.377h3.642V23H15.222Zm12.515-7.09-1.192-.086a2.142,2.142,0,0,0-2.191,1.074V23h-3.62V11.377H24.02l.118,1.493a2.8,2.8,0,0,1,2.546-1.708,3.53,3.53,0,0,1,1.01.129ZM32.753,23H29.122V11.377h3.631ZM28.907,8.38a1.616,1.616,0,0,1,.559-1.268,2.375,2.375,0,0,1,2.9,0,1.616,1.616,0,0,1,.559,1.268,1.616,1.616,0,0,1-.559,1.268,2.375,2.375,0,0,1-2.9,0A1.616,1.616,0,0,1,28.907,8.38ZM34.525,17.1a7.1,7.1,0,0,1,1.192-4.351,3.925,3.925,0,0,1,3.33-1.59,3.338,3.338,0,0,1,2.621,1.225V6.5H45.3V23H42.045l-.183-1.246a3.428,3.428,0,0,1-2.836,1.461,3.918,3.918,0,0,1-3.287-1.59A7.325,7.325,0,0,1,34.525,17.1Zm3.62.226q0,3.094,1.8,3.094a1.782,1.782,0,0,0,1.719-1.01V14.986a1.734,1.734,0,0,0-1.7-1.031q-1.676,0-1.815,2.707ZM53.9,23a4.088,4.088,0,0,1-.344-1.042,3.366,3.366,0,0,1-2.793,1.257,4.124,4.124,0,0,1-2.793-.994,3.163,3.163,0,0,1-1.149-2.5,3.251,3.251,0,0,1,1.4-2.857,7.114,7.114,0,0,1,4.061-.967H53.4v-.615q0-1.608-1.386-1.608a1.133,1.133,0,0,0-1.289,1.274H47.1a3.245,3.245,0,0,1,1.434-2.736A6.027,6.027,0,0,1,52.2,11.162a5.284,5.284,0,0,1,3.513,1.085,3.772,3.772,0,0,1,1.321,2.976v5.146a5.269,5.269,0,0,0,.494,2.449V23Zm-2.267-2.363a2.019,2.019,0,0,0,1.123-.29,1.818,1.818,0,0,0,.639-.655V17.833H52.347q-1.891,0-1.891,1.7a1.036,1.036,0,0,0,.333.8A1.205,1.205,0,0,0,51.638,20.637ZM58.577,17.1a7.1,7.1,0,0,1,1.192-4.351,3.925,3.925,0,0,1,3.33-1.59,3.338,3.338,0,0,1,2.621,1.225V6.5h3.631V23H66.1l-.183-1.246a3.428,3.428,0,0,1-2.836,1.461,3.918,3.918,0,0,1-3.287-1.59A7.325,7.325,0,0,1,58.577,17.1Zm3.62.226q0,3.094,1.8,3.094a1.782,1.782,0,0,0,1.719-1.01V14.986a1.734,1.734,0,0,0-1.7-1.031q-1.676,0-1.815,2.707Z" transform="translate(1146.211 2598.941)" fill="#12263f"/>
    <path id="Trazado_199669" data-name="Trazado 199669" d="M-57.175-6.639H-63.1V-2.9h7V0H-66.875V-15.641h10.8v2.911H-63.1v3.3h5.93Zm8.529,3.373a.836.836,0,0,0-.483-.741,7.353,7.353,0,0,0-1.837-.58,8.376,8.376,0,0,1-2.234-.79,3.743,3.743,0,0,1-1.343-1.187,2.835,2.835,0,0,1-.462-1.6A3.212,3.212,0,0,1-53.684-10.8a5.443,5.443,0,0,1,3.459-1.037,6.03,6.03,0,0,1,3.7,1.042,3.258,3.258,0,0,1,1.4,2.739h-3.631q0-1.4-1.472-1.4a1.459,1.459,0,0,0-.956.317.981.981,0,0,0-.387.79.9.9,0,0,0,.473.784,4.466,4.466,0,0,0,1.509.494,13.042,13.042,0,0,1,1.821.462q2.621.9,2.621,3.233A3.044,3.044,0,0,1-46.567-.784a6.2,6.2,0,0,1-3.658,1,6.322,6.322,0,0,1-2.664-.537,4.455,4.455,0,0,1-1.826-1.461,3.308,3.308,0,0,1-.655-1.944h3.384a1.4,1.4,0,0,0,.537,1.176,2.209,2.209,0,0,0,1.321.371,1.738,1.738,0,0,0,1.112-.3A.962.962,0,0,0-48.646-3.266Zm9.4-11.247v2.89h1.912v2.514h-1.912v5.317a1.358,1.358,0,0,0,.236.913,1.268,1.268,0,0,0,.935.258,5.311,5.311,0,0,0,.9-.064V-.1a6.681,6.681,0,0,1-2.041.312,3.792,3.792,0,0,1-2.761-.881,3.61,3.61,0,0,1-.892-2.675V-9.109h-1.482v-2.514h1.482v-2.89ZM-28.988-1.257a3.732,3.732,0,0,1-3.1,1.472A3.661,3.661,0,0,1-34.987-.9a4.676,4.676,0,0,1-.983-3.2v-7.53h3.62v7.552A1.3,1.3,0,0,0-30.9-2.578a1.892,1.892,0,0,0,1.772-.892v-8.153h3.642V0H-28.88ZM-23.96-5.9a7.1,7.1,0,0,1,1.192-4.351,3.925,3.925,0,0,1,3.33-1.59,3.338,3.338,0,0,1,2.621,1.225V-16.5h3.631V0h-3.255l-.183-1.246A3.428,3.428,0,0,1-19.459.215a3.918,3.918,0,0,1-3.287-1.59A7.325,7.325,0,0,1-23.96-5.9Zm3.62.226q0,3.094,1.8,3.094a1.782,1.782,0,0,0,1.719-1.01V-8.014a1.734,1.734,0,0,0-1.7-1.031q-1.676,0-1.815,2.707ZM-7.31,0h-3.631V-11.623H-7.31Zm-3.846-14.62a1.616,1.616,0,0,1,.559-1.268,2.108,2.108,0,0,1,1.45-.494,2.108,2.108,0,0,1,1.45.494,1.616,1.616,0,0,1,.559,1.268A1.616,1.616,0,0,1-7.7-13.353a2.108,2.108,0,0,1-1.45.494,2.108,2.108,0,0,1-1.45-.494A1.616,1.616,0,0,1-11.156-14.62Zm5.618,8.7a6.86,6.86,0,0,1,.677-3.1,4.84,4.84,0,0,1,1.944-2.089,5.856,5.856,0,0,1,2.976-.73,5.344,5.344,0,0,1,4.114,1.617,6.2,6.2,0,0,1,1.5,4.4v.129A6.019,6.019,0,0,1,4.168-1.38,5.359,5.359,0,0,1,.081.215,5.42,5.42,0,0,1-3.9-1.273,5.819,5.819,0,0,1-5.527-5.307Zm3.62.226a4.325,4.325,0,0,0,.5,2.363,1.682,1.682,0,0,0,1.493.752q1.934,0,1.977-2.976v-.365q0-3.126-2-3.126-1.815,0-1.966,2.7ZM18.836-3.266a.836.836,0,0,0-.483-.741,7.353,7.353,0,0,0-1.837-.58,8.376,8.376,0,0,1-2.234-.79,3.743,3.743,0,0,1-1.343-1.187,2.834,2.834,0,0,1-.462-1.6A3.212,3.212,0,0,1,13.8-10.8a5.443,5.443,0,0,1,3.459-1.037,6.03,6.03,0,0,1,3.7,1.042,3.258,3.258,0,0,1,1.4,2.739H18.718q0-1.4-1.472-1.4a1.459,1.459,0,0,0-.956.317.981.981,0,0,0-.387.79.9.9,0,0,0,.473.784,4.466,4.466,0,0,0,1.509.494,13.043,13.043,0,0,1,1.821.462q2.621.9,2.621,3.233A3.044,3.044,0,0,1,20.915-.784a6.2,6.2,0,0,1-3.658,1,6.322,6.322,0,0,1-2.664-.537,4.455,4.455,0,0,1-1.826-1.461,3.308,3.308,0,0,1-.655-1.944H15.5a1.4,1.4,0,0,0,.537,1.176,2.209,2.209,0,0,0,1.321.371,1.738,1.738,0,0,0,1.112-.3A.962.962,0,0,0,18.836-3.266Zm4.727-2.653a6.86,6.86,0,0,1,.677-3.1,4.84,4.84,0,0,1,1.944-2.089,5.856,5.856,0,0,1,2.976-.73,5.344,5.344,0,0,1,4.114,1.617,6.2,6.2,0,0,1,1.5,4.4v.129A6.019,6.019,0,0,1,33.269-1.38a5.359,5.359,0,0,1-4.087,1.6A5.42,5.42,0,0,1,25.2-1.273a5.819,5.819,0,0,1-1.622-4.034Zm3.62.226a4.325,4.325,0,0,0,.5,2.363,1.682,1.682,0,0,0,1.493.752q1.934,0,1.977-2.976v-.365q0-3.126-2-3.126-1.815,0-1.966,2.7Zm19.98-.021a7.084,7.084,0,0,1-1.182,4.394A3.958,3.958,0,0,1,42.652.215a3.435,3.435,0,0,1-2.857-1.407L39.644,0H36.4V-16.5h3.62v5.812a3.314,3.314,0,0,1,2.61-1.149,3.959,3.959,0,0,1,3.352,1.558A7.121,7.121,0,0,1,47.164-5.9Zm-3.631-.231a4.725,4.725,0,0,0-.446-2.386,1.5,1.5,0,0,0-1.37-.713,1.733,1.733,0,0,0-1.7.933V-3.5a1.743,1.743,0,0,0,1.719.922,1.537,1.537,0,0,0,1.622-1.244A8.933,8.933,0,0,0,43.533-5.946Zm12.257-2.4L54.6-8.433a2.142,2.142,0,0,0-2.191,1.074V0h-3.62V-11.623H52.18L52.3-10.13a2.8,2.8,0,0,1,2.546-1.708,3.53,3.53,0,0,1,1.01.129ZM62.718.215a5.975,5.975,0,0,1-4.329-1.6,5.509,5.509,0,0,1-1.654-4.152v-.3A7.138,7.138,0,0,1,57.4-8.98a4.834,4.834,0,0,1,1.928-2.111,5.821,5.821,0,0,1,3.008-.747,5.031,5.031,0,0,1,3.867,1.52A5.973,5.973,0,0,1,67.617-6.08v1.407h-7.2a2.609,2.609,0,0,0,.849,1.536,2.525,2.525,0,0,0,1.7.559,3.254,3.254,0,0,0,2.686-1.2l1.654,1.955A4.624,4.624,0,0,1,65.388-.338,6.48,6.48,0,0,1,62.718.215Zm-.408-9.26q-1.59,0-1.891,2.105h3.652v-.279a1.793,1.793,0,0,0-.44-1.348A1.753,1.753,0,0,0,62.31-9.045Zm-92.5,32.26a5.975,5.975,0,0,1-4.329-1.6,5.509,5.509,0,0,1-1.654-4.152v-.3a7.138,7.138,0,0,1,.661-3.147,4.834,4.834,0,0,1,1.928-2.111,5.821,5.821,0,0,1,3.008-.747,5.031,5.031,0,0,1,3.867,1.52,5.973,5.973,0,0,1,1.418,4.238v1.407h-7.2a2.609,2.609,0,0,0,.849,1.536,2.525,2.525,0,0,0,1.7.559,3.254,3.254,0,0,0,2.686-1.2l1.654,1.955a4.624,4.624,0,0,1-1.917,1.488A6.48,6.48,0,0,1-30.191,23.215Zm-.408-9.26q-1.59,0-1.891,2.105h3.652v-.279a1.793,1.793,0,0,0-.44-1.348A1.753,1.753,0,0,0-30.6,13.955ZM-20.018,23h-3.631V6.5h3.631ZM-8.094,8.487v2.89h1.912v2.514H-8.094v5.317a1.358,1.358,0,0,0,.236.913,1.268,1.268,0,0,0,.935.258,5.311,5.311,0,0,0,.9-.064V22.9a6.681,6.681,0,0,1-2.041.312,3.792,3.792,0,0,1-2.761-.881,3.61,3.61,0,0,1-.892-2.675V13.891H-13.2V11.377h1.482V8.487ZM.865,23.215a5.975,5.975,0,0,1-4.329-1.6,5.509,5.509,0,0,1-1.654-4.152v-.3a7.138,7.138,0,0,1,.661-3.147A4.834,4.834,0,0,1-2.53,11.909a5.821,5.821,0,0,1,3.008-.747,5.031,5.031,0,0,1,3.867,1.52A5.973,5.973,0,0,1,5.763,16.92v1.407h-7.2a2.609,2.609,0,0,0,.849,1.536,2.525,2.525,0,0,0,1.7.559,3.254,3.254,0,0,0,2.686-1.2l1.654,1.955a4.624,4.624,0,0,1-1.917,1.488A6.48,6.48,0,0,1,.865,23.215Zm-.408-9.26q-1.59,0-1.891,2.105H2.218v-.279a1.793,1.793,0,0,0-.44-1.348A1.753,1.753,0,0,0,.457,13.955ZM10.64,11.377l.118,1.364a4,4,0,0,1,3.319-1.579,2.942,2.942,0,0,1,2.976,1.751,3.868,3.868,0,0,1,3.416-1.751q3.534,0,3.631,4.275V23H20.469V15.663a2.216,2.216,0,0,0-.3-1.3,1.28,1.28,0,0,0-1.1-.408,1.715,1.715,0,0,0-1.6.956l.011.15V23H13.852V15.685a2.329,2.329,0,0,0-.29-1.321,1.277,1.277,0,0,0-1.106-.408,1.736,1.736,0,0,0-1.59.956V23H7.246V11.377ZM32.715,23a4.088,4.088,0,0,1-.344-1.042,3.366,3.366,0,0,1-2.793,1.257,4.124,4.124,0,0,1-2.793-.994,3.163,3.163,0,0,1-1.149-2.5,3.251,3.251,0,0,1,1.4-2.857,7.114,7.114,0,0,1,4.061-.967H32.21v-.615q0-1.608-1.386-1.608a1.133,1.133,0,0,0-1.289,1.274h-3.62a3.245,3.245,0,0,1,1.434-2.736,6.027,6.027,0,0,1,3.658-1.051,5.284,5.284,0,0,1,3.513,1.085,3.772,3.772,0,0,1,1.321,2.976v5.146a5.269,5.269,0,0,0,.494,2.449V23Zm-2.267-2.363a2.019,2.019,0,0,0,1.123-.29,1.818,1.818,0,0,0,.639-.655V17.833H31.158q-1.891,0-1.891,1.7a1.036,1.036,0,0,0,.333.8A1.205,1.205,0,0,0,30.449,20.637Z" transform="translate(768.211 2326.941)" fill="#12263f"/>
    <path id="Trazado_199670" data-name="Trazado 199670" d="M-36.282-5.307V0h-3.771V-15.641h6.241a7.269,7.269,0,0,1,3.174.661A4.979,4.979,0,0,1-28.5-13.1a5.134,5.134,0,0,1,.757,2.766A4.526,4.526,0,0,1-29.38-6.676a6.8,6.8,0,0,1-4.5,1.37Zm0-2.911h2.471a2.33,2.33,0,0,0,1.67-.548,2.035,2.035,0,0,0,.575-1.547,2.516,2.516,0,0,0-.591-1.751,2.092,2.092,0,0,0-1.611-.666h-2.514Zm17.413-.129-1.192-.086a2.142,2.142,0,0,0-2.191,1.074V0h-3.62V-11.623h3.395l.118,1.493a2.8,2.8,0,0,1,2.546-1.708,3.53,3.53,0,0,1,1.01.129ZM-11.016,0a4.088,4.088,0,0,1-.344-1.042A3.366,3.366,0,0,1-14.153.215a4.124,4.124,0,0,1-2.793-.994,3.163,3.163,0,0,1-1.149-2.5,3.251,3.251,0,0,1,1.4-2.857A7.114,7.114,0,0,1-12.638-7.1h1.117v-.615q0-1.608-1.386-1.608A1.133,1.133,0,0,0-14.2-8.05h-3.62a3.245,3.245,0,0,1,1.434-2.736,6.027,6.027,0,0,1,3.658-1.051,5.284,5.284,0,0,1,3.513,1.085A3.772,3.772,0,0,1-7.89-7.777v5.146A5.269,5.269,0,0,0-7.4-.183V0Zm-2.267-2.363a2.019,2.019,0,0,0,1.123-.29,1.818,1.818,0,0,0,.639-.655V-5.167h-1.053q-1.891,0-1.891,1.7a1.036,1.036,0,0,0,.333.8A1.205,1.205,0,0,0-13.283-2.363Zm.9-14.137h3.824l-2.986,3.373-2.954-.005ZM-.972-2.578A1.61,1.61,0,0,0,.209-2.992,1.517,1.517,0,0,0,.618-4.146H4.012A4.018,4.018,0,0,1,2.643-1.01,5.1,5.1,0,0,1-.886.215a5.158,5.158,0,0,1-4-1.59,6.264,6.264,0,0,1-1.461-4.4v-.15a7.08,7.08,0,0,1,.65-3.11,4.732,4.732,0,0,1,1.875-2.073,5.589,5.589,0,0,1,2.9-.725,5.03,5.03,0,0,1,3.6,1.257A4.458,4.458,0,0,1,4.012-7.176H.618a1.987,1.987,0,0,0-.44-1.386A1.52,1.52,0,0,0-1-9.045q-1.407,0-1.644,1.794a12.658,12.658,0,0,0-.075,1.568A4.972,4.972,0,0,0-2.3-3.255,1.45,1.45,0,0,0-.972-2.578ZM9.759-14.513v2.89h1.912v2.514H9.759v5.317A1.358,1.358,0,0,0,10-2.879a1.268,1.268,0,0,0,.935.258,5.311,5.311,0,0,0,.9-.064V-.1A6.681,6.681,0,0,1,9.792.215,3.792,3.792,0,0,1,7.031-.666a3.61,3.61,0,0,1-.892-2.675V-9.109H4.657v-2.514H6.139v-2.89ZM16.914,0H13.283V-11.623h3.631ZM13.068-14.62a1.616,1.616,0,0,1,.559-1.268,2.108,2.108,0,0,1,1.45-.494,2.108,2.108,0,0,1,1.45.494,1.616,1.616,0,0,1,.559,1.268,1.616,1.616,0,0,1-.559,1.268,2.108,2.108,0,0,1-1.45.494,2.108,2.108,0,0,1-1.45-.494A1.616,1.616,0,0,1,13.068-14.62ZM24.057-2.578a1.61,1.61,0,0,0,1.182-.414,1.517,1.517,0,0,0,.408-1.155h3.395a4.018,4.018,0,0,1-1.37,3.137A5.1,5.1,0,0,1,24.143.215a5.158,5.158,0,0,1-4-1.59,6.264,6.264,0,0,1-1.461-4.4v-.15a7.08,7.08,0,0,1,.65-3.11,4.732,4.732,0,0,1,1.875-2.073,5.589,5.589,0,0,1,2.9-.725,5.03,5.03,0,0,1,3.6,1.257,4.458,4.458,0,0,1,1.332,3.405H25.647a1.987,1.987,0,0,0-.44-1.386,1.52,1.52,0,0,0-1.182-.483q-1.407,0-1.644,1.794a12.658,12.658,0,0,0-.075,1.568,4.972,4.972,0,0,0,.419,2.428A1.45,1.45,0,0,0,24.057-2.578ZM37.12,0a4.088,4.088,0,0,1-.344-1.042A3.366,3.366,0,0,1,33.983.215,4.124,4.124,0,0,1,31.19-.779a3.163,3.163,0,0,1-1.149-2.5,3.251,3.251,0,0,1,1.4-2.857A7.114,7.114,0,0,1,35.5-7.1h1.117v-.615q0-1.608-1.386-1.608A1.133,1.133,0,0,0,33.94-8.05H30.32a3.245,3.245,0,0,1,1.434-2.736,6.027,6.027,0,0,1,3.658-1.051,5.284,5.284,0,0,1,3.513,1.085,3.772,3.772,0,0,1,1.321,2.976v5.146A5.269,5.269,0,0,0,40.74-.183V0ZM34.853-2.363a2.019,2.019,0,0,0,1.123-.29,1.818,1.818,0,0,0,.639-.655V-5.167H35.562q-1.891,0-1.891,1.7a1.036,1.036,0,0,0,.333.8A1.205,1.205,0,0,0,34.853-2.363ZM-60.124,17.1a7.1,7.1,0,0,1,1.192-4.351,3.925,3.925,0,0,1,3.33-1.59,3.338,3.338,0,0,1,2.621,1.225V6.5h3.631V23H-52.6l-.183-1.246a3.428,3.428,0,0,1-2.836,1.461,3.918,3.918,0,0,1-3.287-1.59A7.325,7.325,0,0,1-60.124,17.1Zm3.62.226q0,3.094,1.8,3.094a1.782,1.782,0,0,0,1.719-1.01V14.986a1.734,1.734,0,0,0-1.7-1.031q-1.676,0-1.815,2.707Zm14.835,5.887A5.975,5.975,0,0,1-46,21.62a5.509,5.509,0,0,1-1.654-4.152v-.3a7.138,7.138,0,0,1,.661-3.147,4.834,4.834,0,0,1,1.928-2.111,5.821,5.821,0,0,1,3.008-.747,5.031,5.031,0,0,1,3.867,1.52,5.973,5.973,0,0,1,1.418,4.238v1.407h-7.2a2.609,2.609,0,0,0,.849,1.536,2.525,2.525,0,0,0,1.7.559,3.254,3.254,0,0,0,2.686-1.2l1.654,1.955A4.624,4.624,0,0,1-39,22.662,6.48,6.48,0,0,1-41.669,23.215Zm-.408-9.26q-1.59,0-1.891,2.105h3.652v-.279a1.793,1.793,0,0,0-.44-1.348A1.753,1.753,0,0,0-42.077,13.955ZM-31.5,23h-3.631V6.5H-31.5Zm7.251-5.9a7.1,7.1,0,0,1,1.192-4.351,3.925,3.925,0,0,1,3.33-1.59A3.338,3.338,0,0,1-17.1,12.387V6.5h3.631V23h-3.255l-.183-1.246a3.428,3.428,0,0,1-2.836,1.461,3.918,3.918,0,0,1-3.287-1.59A7.325,7.325,0,0,1-24.245,17.1Zm3.62.226q0,3.094,1.8,3.094a1.782,1.782,0,0,0,1.719-1.01V14.986a1.734,1.734,0,0,0-1.7-1.031q-1.676,0-1.815,2.707ZM-7.595,23h-3.631V11.377h3.631ZM-11.44,8.38a1.616,1.616,0,0,1,.559-1.268,2.108,2.108,0,0,1,1.45-.494,2.108,2.108,0,0,1,1.45.494A1.616,1.616,0,0,1-7.423,8.38a1.616,1.616,0,0,1-.559,1.268,2.108,2.108,0,0,1-1.45.494,2.108,2.108,0,0,1-1.45-.494A1.616,1.616,0,0,1-11.44,8.38ZM.72,19.734a.836.836,0,0,0-.483-.741,7.353,7.353,0,0,0-1.837-.58,8.376,8.376,0,0,1-2.234-.79,3.743,3.743,0,0,1-1.343-1.187,2.834,2.834,0,0,1-.462-1.6A3.212,3.212,0,0,1-4.318,12.2,5.443,5.443,0,0,1-.859,11.162a6.03,6.03,0,0,1,3.7,1.042,3.258,3.258,0,0,1,1.4,2.739H.6q0-1.4-1.472-1.4a1.459,1.459,0,0,0-.956.317.981.981,0,0,0-.387.79.9.9,0,0,0,.473.784,4.466,4.466,0,0,0,1.509.494,13.042,13.042,0,0,1,1.821.462q2.621.9,2.621,3.233A3.044,3.044,0,0,1,2.8,22.216a6.2,6.2,0,0,1-3.658,1,6.322,6.322,0,0,1-2.664-.537A4.455,4.455,0,0,1-5.35,21.217,3.308,3.308,0,0,1-6,19.272h3.384a1.4,1.4,0,0,0,.537,1.176,2.209,2.209,0,0,0,1.321.371,1.738,1.738,0,0,0,1.112-.3A.962.962,0,0,0,.72,19.734Zm10.1.688A1.61,1.61,0,0,0,12,20.008a1.517,1.517,0,0,0,.408-1.155H15.8a4.018,4.018,0,0,1-1.37,3.137A5.1,5.1,0,0,1,10.9,23.215a5.158,5.158,0,0,1-4-1.59,6.264,6.264,0,0,1-1.461-4.4v-.15a7.08,7.08,0,0,1,.65-3.11,4.732,4.732,0,0,1,1.875-2.073,5.589,5.589,0,0,1,2.9-.725,5.03,5.03,0,0,1,3.6,1.257A4.458,4.458,0,0,1,15.8,15.824H12.407a1.987,1.987,0,0,0-.44-1.386,1.52,1.52,0,0,0-1.182-.483q-1.407,0-1.644,1.794a12.659,12.659,0,0,0-.075,1.568,4.972,4.972,0,0,0,.419,2.428A1.45,1.45,0,0,0,10.817,20.422Zm13.438,1.321a3.732,3.732,0,0,1-3.1,1.472,3.661,3.661,0,0,1-2.9-1.112,4.676,4.676,0,0,1-.983-3.2v-7.53h3.62v7.552a1.3,1.3,0,0,0,1.45,1.493,1.892,1.892,0,0,0,1.772-.892V11.377h3.642V23H24.363Zm12.515-7.09-1.192-.086a2.142,2.142,0,0,0-2.191,1.074V23h-3.62V11.377h3.395l.118,1.493a2.8,2.8,0,0,1,2.546-1.708,3.53,3.53,0,0,1,1.01.129Zm7.391,5.081a.836.836,0,0,0-.483-.741,7.353,7.353,0,0,0-1.837-.58,8.376,8.376,0,0,1-2.234-.79,3.743,3.743,0,0,1-1.343-1.187,2.835,2.835,0,0,1-.462-1.6A3.212,3.212,0,0,1,39.123,12.2a5.443,5.443,0,0,1,3.459-1.037,6.03,6.03,0,0,1,3.7,1.042,3.258,3.258,0,0,1,1.4,2.739H44.043q0-1.4-1.472-1.4a1.459,1.459,0,0,0-.956.317.981.981,0,0,0-.387.79.9.9,0,0,0,.473.784,4.466,4.466,0,0,0,1.509.494,13.042,13.042,0,0,1,1.821.462q2.621.9,2.621,3.233a3.044,3.044,0,0,1-1.413,2.589,6.2,6.2,0,0,1-3.658,1,6.322,6.322,0,0,1-2.664-.537,4.455,4.455,0,0,1-1.826-1.461,3.308,3.308,0,0,1-.655-1.944H40.82a1.4,1.4,0,0,0,.537,1.176,2.209,2.209,0,0,0,1.321.371,1.738,1.738,0,0,0,1.112-.3A.962.962,0,0,0,44.161,19.734Zm4.727-2.653a6.86,6.86,0,0,1,.677-3.1,4.84,4.84,0,0,1,1.944-2.089,5.856,5.856,0,0,1,2.976-.73A5.344,5.344,0,0,1,58.6,12.779a6.2,6.2,0,0,1,1.5,4.4v.129a6.019,6.019,0,0,1-1.509,4.313,5.359,5.359,0,0,1-4.087,1.6,5.42,5.42,0,0,1-3.985-1.488A5.819,5.819,0,0,1,48.9,17.693Zm3.62.226a4.325,4.325,0,0,0,.5,2.363,1.682,1.682,0,0,0,1.493.752q1.934,0,1.977-2.976v-.365q0-3.126-2-3.126-1.815,0-1.966,2.7Z" transform="translate(768.211 2603.941)" fill="#fff"/>
  </g>
</svg>
