<svg id="Grupo_155316" data-name="Grupo 155316" xmlns="http://www.w3.org/2000/svg" xmlns:xlink="http://www.w3.org/1999/xlink" width="67.321" height="67.321" viewBox="0 0 67.321 67.321">
  <defs>
    <radialGradient id="radial-gradient" cx="0.076" cy="0.019" r="1.465" gradientTransform="translate(0.001)" gradientUnits="objectBoundingBox">
      <stop offset="0" stop-color="#f6f6f7"/>
      <stop offset="0.477" stop-color="#f9f9fa"/>
      <stop offset="0.715" stop-color="#fff"/>
    </radialGradient>
  </defs>
  <g id="Grupo_18423" data-name="Grupo 18423" transform="translate(0 0)">
    <g id="Grupo_18421" data-name="Grupo 18421">
      <g id="Grupo_18420" data-name="Grupo 18420">
        <g id="Grupo_18419" data-name="Grupo 18419">
          <path id="Trazado_40936" data-name="Trazado 40936" d="M261.944,2179.381a33.661,33.661,0,1,1-33.66-33.659A33.66,33.66,0,0,1,261.944,2179.381Z" transform="translate(-194.623 -2145.721)" fill="#fff"/>
        </g>
      </g>
    </g>
    <path id="Trazado_40937" data-name="Trazado 40937" d="M261.938,2179.375a33.66,33.66,0,1,0-33.66,33.661A33.528,33.528,0,0,0,261.938,2179.375Z" transform="translate(-194.617 -2145.715)" fill="url(#radial-gradient)"/>
    <path id="Trazado_40938" data-name="Trazado 40938" d="M254.018,2179.432a25.693,25.693,0,1,0-25.693,25.693A25.6,25.6,0,0,0,254.018,2179.432Z" transform="translate(-194.563 -2145.66)" fill="none" stroke="#1565c0" stroke-miterlimit="10" stroke-width="4"/>
    <g id="Grupo_18422" data-name="Grupo 18422" transform="translate(5.963 18.898)">
      <path id="Trazado_40939" data-name="Trazado 40939" d="M258.5,2164.488a33.665,33.665,0,0,1-57.954,33.521,33.558,33.558,0,0,0,57.954-33.521Z" transform="translate(-200.545 -2164.488)" fill="#eceef0"/>
    </g>
  </g>
  <g id="YhmUKV.tif" transform="translate(19.618 17.18)">
    <g id="Grupo_143142" data-name="Grupo 143142" transform="translate(0)">
      <path id="Trazado_184367" data-name="Trazado 184367" d="M3271.074-2537.5H3270c0-.587-.021-1.165.007-1.74.019-.37-.09-.488-.472-.484-1.759.02-3.52.017-5.279,0-.333,0-.46.08-.444.432.027.591.007,1.183.007,1.792h-1.08v-2.231h-.519q-4.135,0-8.269,0a2.188,2.188,0,0,1-2.358-2.311q-.012-7.98,0-15.961a2.187,2.187,0,0,1,1.657-2.251,4.328,4.328,0,0,1,.539-.066c0,.329.016.612-.01.89-.007.076-.127.173-.216.2a1.168,1.168,0,0,0-.893,1.25c0,4.491,0,8.983-.01,13.475,0,.365.185.351.434.351q4.717,0,9.434,0h17.509c.543,0,.543,0,.543-.545q0-6.6,0-13.2c0-.94-.4-1.338-1.348-1.339a3.438,3.438,0,0,0-.465,0c-.332.044-.412-.1-.412-.413,0-.818-.036-.667.684-.675a4.313,4.313,0,0,1,.927.051,2.136,2.136,0,0,1,1.7,2.091q.006,8.174-.012,16.349a2.14,2.14,0,0,1-2.2,2.1c-2.614.007-5.229,0-7.842,0-.537,0-.537,0-.538.554Zm-4.456-3.3c4.088,0,8.177-.022,12.265.014,1.23.01,1.795-.351,1.7-1.712-.043-.64.062-.57-.6-.57q-13.236,0-26.471,0c-.852,0-.852,0-.849.855,0,1,.415,1.415,1.415,1.415Z" transform="translate(-3251.588 2570.368)" fill="#12263f"/>
      <path id="Trazado_184368" data-name="Trazado 184368" d="M3295.662-2633h-1.074v-14.261q0-2.485,0-4.97c0-.97.4-1.361,1.372-1.361h16.734c1,0,1.377.383,1.377,1.387q0,6.02,0,12.04v.475H3313v-.484c0-3.948-.005-7.9.008-11.846,0-.383-.082-.505-.489-.5q-8.193.021-16.385,0c-.374,0-.49.1-.477.478.027.8.008,1.6.008,2.407,0,.512,0,.513.5.513h13.448c0,.317.015.6-.01.876-.006.073-.13.164-.218.191a1.181,1.181,0,0,1-.347.009c-4.3,0-8.594.006-12.89-.009-.4,0-.495.11-.493.5q.02,7.011.009,14.021Z" transform="translate(-3291.241 2656.372)" fill="#12263f"/>
      <path id="Trazado_184369" data-name="Trazado 184369" d="M3324.649-2559.332c.543.225,1.036.418,1.519.635.209.094.323.036.5-.1a.827.827,0,0,0,.242-1.242,9.215,9.215,0,0,1-.458-1.1l3.19-1.323c.206.5.419.961.591,1.442.1.292.251.431.569.36a.774.774,0,0,1,.309.006c.255.049.371-.071.458-.3.189-.493.4-.977.624-1.509l3.191,1.323c-.209.511-.391.994-.605,1.462a.488.488,0,0,0,.111.6.79.79,0,0,0,1.18.213,9.784,9.784,0,0,1,1.118-.47l1.325,3.193c-.509.211-.978.421-1.458.6-.249.094-.4.212-.346.5a3.57,3.57,0,0,0,.012.424.622.622,0,0,0,.241.362c.489.233.995.428,1.548.66l-1.318,3.191c-.508-.208-.989-.392-1.458-.6a.444.444,0,0,0-.6.113c-.469.512-.483.5-.223,1.135.152.37.305.739.479,1.16l-3.189,1.325c-.214-.508-.43-.989-.615-1.482-.091-.242-.213-.365-.482-.322a1.271,1.271,0,0,1-.387,0c-.255-.041-.368.082-.454.305-.188.493-.4.978-.616,1.5l-3.192-1.324c.218-.529.406-1.023.625-1.5.1-.228.027-.348-.108-.538-.364-.51-.757-.486-1.248-.215a10.563,10.563,0,0,1-1.072.451l-1.324-3.191c.52-.218,1-.431,1.495-.62a.406.406,0,0,0,.312-.452c-.021-.735-.01-.735-.683-1.013-.358-.147-.714-.3-1.122-.467Zm.114,2.6c.472.2.885.379,1.307.537.225.084.254.2.241.438a16.5,16.5,0,0,0,0,1.813c.012.224-.031.326-.235.405-.431.167-.854.355-1.313.548l.465,1.11a.532.532,0,0,0,.126,0c.288-.116.576-.233.862-.352.6-.249.591-.244.985.247a5.9,5.9,0,0,0,.61.65c.226.206.478.383.716.571l-.635,1.585,1.157.475c.184-.444.364-.843.513-1.253.089-.247.2-.313.481-.292a11.861,11.861,0,0,0,1.735,0c.267-.018.4.021.488.281.149.42.34.824.524,1.261l1.155-.485c-.187-.455-.349-.875-.532-1.286a.357.357,0,0,1,.12-.49,15.094,15.094,0,0,0,1.28-1.284.351.351,0,0,1,.487-.118c.412.182.832.347,1.289.536l.482-1.159c-.446-.187-.856-.375-1.277-.531-.241-.09-.28-.222-.266-.468a14.964,14.964,0,0,0,0-1.735c-.016-.267.033-.4.29-.491.42-.151.826-.338,1.257-.517l-.483-1.156c-.456.185-.88.339-1.286.53-.239.112-.348.039-.511-.146a13.389,13.389,0,0,0-1.228-1.227c-.207-.179-.254-.308-.141-.551.185-.4.338-.805.522-1.25l-1.159-.484c-.2.47-.36.905-.567,1.319a.5.5,0,0,1-.368.211c-.617.022-1.235-.006-1.851.017-.215.008-.335-.025-.412-.236-.13-.352-.273-.7-.434-1.038-.043-.09-.2-.217-.257-.2-.337.112-.66.264-1.009.411.192.468.354.89.539,1.3a.328.328,0,0,1-.108.454c-.458.413-.894.852-1.31,1.308-.15.165-.251.208-.454.117-.42-.189-.853-.352-1.314-.539Z" transform="translate(-3317.744 2572.332)" fill="#12263f"/>
      <path id="Trazado_184370" data-name="Trazado 184370" d="M3350.066-2677.153h-1.074v-11.1h-17.307v1.062h-1.07a11.754,11.754,0,0,1,.01-1.31,1.032,1.032,0,0,1,.935-.855,3.156,3.156,0,0,1,.388-.01h16.77c.967,0,1.347.375,1.347,1.328q0,5.2,0,10.407Z" transform="translate(-3324.452 2689.368)" fill="#12263f"/>
      <path id="Trazado_184371" data-name="Trazado 184371" d="M3375.153-2257.9l-.806.742c-.224-.223-.453-.482-.716-.7a.878.878,0,0,0-.5-.213q-4.77-.019-9.541,0a.9.9,0,0,0-.533.23,8.358,8.358,0,0,0-.672.735l-.794-.848c.357-.347.729-.723,1.121-1.076a.618.618,0,0,1,.384-.123q5.255-.01,10.51,0a.614.614,0,0,1,.385.121C3374.38-2258.678,3374.75-2258.3,3375.153-2257.9Z" transform="translate(-3353.031 2292.634)" fill="#12263f"/>
      <path id="Trazado_184372" data-name="Trazado 184372" d="M3353.423-2624.514v1.029h-1.045v-1.029Z" transform="translate(-3344.536 2629.56)" fill="#12263f"/>
      <path id="Trazado_184373" data-name="Trazado 184373" d="M3568.339-2487.242h-1.026v-1.038h1.026Z" transform="translate(-3542.747 2503.926)" fill="#12263f"/>
      <path id="Trazado_184374" data-name="Trazado 184374" d="M3324.661-2623.448h-1.03v-1.028h1.03Z" transform="translate(-3318.026 2629.525)" fill="#12263f"/>
      <path id="Trazado_184375" data-name="Trazado 184375" d="M3380.775-2624.522h1.042v1.023h-1.042Z" transform="translate(-3370.723 2629.568)" fill="#12263f"/>
      <path id="Trazado_184376" data-name="Trazado 184376" d="M3567.272-2516.3v-1.056a1.74,1.74,0,0,1,.244-.034c.959.013.784-.146.809.82,0,.2-.07.281-.271.272C3567.81-2516.308,3567.565-2516.3,3567.272-2516.3Z" transform="translate(-3542.71 2530.773)" fill="#12263f"/>
      <path id="Trazado_184377" data-name="Trazado 184377" d="M3531.562-2459.833h1.009v1.04h-1.009Z" transform="translate(-3509.778 2477.693)" fill="#12263f"/>
      <path id="Trazado_184378" data-name="Trazado 184378" d="M3387.013-2495.952a2.849,2.849,0,0,1-2.85-2.873,2.857,2.857,0,0,1,2.871-2.857,2.872,2.872,0,0,1,2.855,2.878A2.858,2.858,0,0,1,3387.013-2495.952Zm1.774-2.853a1.765,1.765,0,0,0-1.735-1.776,1.775,1.775,0,0,0-1.8,1.757,1.791,1.791,0,0,0,1.779,1.781A1.774,1.774,0,0,0,3388.787-2498.8Z" transform="translate(-3373.848 2516.285)" fill="#12263f"/>
    </g>
  </g>
</svg>
