<svg xmlns="http://www.w3.org/2000/svg" xmlns:xlink="http://www.w3.org/1999/xlink" width="1276" height="721" viewBox="0 0 1276 721">
  <defs>
    <filter id="Rectángulo_263713" x="0" y="0" width="1276" height="721" filterUnits="userSpaceOnUse">
      <feOffset dy="2" input="SourceAlpha"/>
      <feGaussianBlur stdDeviation="6" result="blur"/>
      <feFlood flood-opacity="0.161"/>
      <feComposite operator="in" in2="blur"/>
      <feComposite in="SourceGraphic"/>
    </filter>
    <clipPath id="clip-path">
      <rect id="Rectángulo_263387" data-name="Rectángulo 263387" width="291.935" height="229.616" fill="none"/>
    </clipPath>
    <clipPath id="clip-path-2">
      <rect id="Rectángulo_263714" data-name="Rectángulo 263714" width="236" height="442" transform="translate(488 5408)" fill="#418081"/>
    </clipPath>
    <clipPath id="clip-path-3">
      <path id="Trazado_375712" data-name="Trazado 375712" d="M-4472.772-5897.893s58.249-88.981,60.494-190.752-52.406-195.063-52.406-195.063l-236.381,192.721Z" transform="translate(5189 11700)" fill="#776bff" opacity="0.63"/>
    </clipPath>
  </defs>
  <g id="Grupo_720288" data-name="Grupo 720288" transform="translate(-162 -5339)">
    <g id="Grupo_706568" data-name="Grupo 706568" transform="translate(0 -13)">
      <g transform="matrix(1, 0, 0, 1, 162, 5352)" filter="url(#Rectángulo_263713)">
        <rect id="Rectángulo_263713-2" data-name="Rectángulo 263713" width="1240" height="685" transform="translate(18 16)" fill="#fff"/>
      </g>
      <g id="Grupo_706567" data-name="Grupo 706567" transform="translate(10.001 -5)">
        <g id="Grupo_705280" data-name="Grupo 705280" transform="translate(484.935 5752.79) rotate(180)">
          <g id="Grupo_705279" data-name="Grupo 705279" clip-path="url(#clip-path)">
            <path id="Trazado_375449" data-name="Trazado 375449" d="M209.038,161.631v.417l.043,51.63c10.434-.01,20-12.1,20-12.1l-1.3-39.756,1.238-39.759S219.427,109.993,208.995,110Z" transform="translate(-42.088 -22.152)"/>
            <path id="Trazado_375450" data-name="Trazado 375450" d="M198.374,161.636v.421l.044,51.627,8.516-.007-.044-51.627v-.422L206.848,110l-8.518.007Z" transform="translate(-39.94 -22.152)" fill="#333"/>
            <path id="Trazado_375451" data-name="Trazado 375451" d="M164.783,161.66v.422l.042,51.627,26.828-.023-.044-51.627v-.421l-.045-51.627-26.826.022Z" transform="translate(-33.176 -22.154)"/>
            <path id="Trazado_375452" data-name="Trazado 375452" d="M135.457,161.417v.422l.045,52.692,23.419-.02-.044-52.692V161.4l-.045-52.691-23.419.02Z" transform="translate(-27.27 -21.891)" fill="#333"/>
            <path id="Trazado_375453" data-name="Trazado 375453" d="M121.326,159.5v.422l.05,60.356,11.278-7.674-.045-52.692v-.422l-.044-52.691-11.291-7.655Z" transform="translate(-24.423 -19.966)"/>
            <path id="Trazado_375454" data-name="Trazado 375454" d="M85.869,159.525v.422L85.92,220.3l28.317-.024-.051-60.356V159.5l-.05-60.356-28.317.024Z" transform="translate(-17.282 -19.966)" fill="#333"/>
            <path id="Trazado_375455" data-name="Trazado 375455" d="M76.269,157.392v.422l.058,68.873,7.658-8.523-.052-60.356v-.422l-.051-60.356-7.672-8.51Z" transform="translate(-15.348 -17.826)"/>
            <path id="Trazado_375456" data-name="Trazado 375456" d="M20.841,94.089c2.985,5.32,4.688,5.531-1.057,9.794S-.006,116.986,0,123.217l.029,34.226v.421l.03,34.226c.006,6.232,14.065,15.048,19.817,19.3s4.049,4.467,1.073,9.793-1.7,5.537-1.7,5.537l41.731-.035-.058-68.873v-.422l-.059-68.873-41.73.035s-1.277.215,1.708,5.534" transform="translate(0 -17.826)" fill="#333"/>
            <rect id="Rectángulo_263275" data-name="Rectángulo 263275" width="28.317" height="1.311" transform="matrix(1, -0.001, 0.001, 1, 68.635, 197.843)" fill="#5c5c5c"/>
            <rect id="Rectángulo_263276" data-name="Rectángulo 263276" width="28.316" height="1.311" transform="translate(68.633 194.749) rotate(-0.07)" fill="#5c5c5c"/>
            <rect id="Rectángulo_263277" data-name="Rectángulo 263277" width="28.317" height="1.311" transform="matrix(1, -0.001, 0.001, 1, 68.63, 191.654)" fill="#5c5c5c"/>
            <rect id="Rectángulo_263278" data-name="Rectángulo 263278" width="28.317" height="1.311" transform="matrix(1, -0.001, 0.001, 1, 68.628, 188.56)" fill="#5c5c5c"/>
            <rect id="Rectángulo_263279" data-name="Rectángulo 263279" width="28.317" height="1.311" transform="translate(68.626 185.449)" fill="#5c5c5c"/>
            <rect id="Rectángulo_263280" data-name="Rectángulo 263280" width="28.317" height="1.312" transform="matrix(1, -0.001, 0.001, 1, 68.622, 182.371)" fill="#5c5c5c"/>
            <rect id="Rectángulo_263281" data-name="Rectángulo 263281" width="28.317" height="1.311" transform="translate(68.62 179.26)" fill="#5c5c5c"/>
            <rect id="Rectángulo_263282" data-name="Rectángulo 263282" width="28.316" height="1.311" transform="translate(68.618 176.166)" fill="#5c5c5c"/>
            <rect id="Rectángulo_263283" data-name="Rectángulo 263283" width="28.317" height="1.312" transform="translate(68.615 173.071)" fill="#5c5c5c"/>
            <rect id="Rectángulo_263284" data-name="Rectángulo 263284" width="28.317" height="1.311" transform="translate(68.613 169.977)" fill="#5c5c5c"/>
            <rect id="Rectángulo_263285" data-name="Rectángulo 263285" width="28.317" height="1.312" transform="matrix(1, -0.001, 0.001, 1, 68.609, 166.9)" fill="#5c5c5c"/>
            <rect id="Rectángulo_263286" data-name="Rectángulo 263286" width="28.317" height="1.311" transform="translate(68.608 163.789)" fill="#5c5c5c"/>
            <rect id="Rectángulo_263287" data-name="Rectángulo 263287" width="28.317" height="1.311" transform="matrix(1, -0.001, 0.001, 1, 68.604, 160.712)" fill="#5c5c5c"/>
            <rect id="Rectángulo_263288" data-name="Rectángulo 263288" width="28.317" height="1.311" transform="translate(68.603 157.6)" fill="#5c5c5c"/>
            <rect id="Rectángulo_263289" data-name="Rectángulo 263289" width="28.317" height="1.311" transform="matrix(1, -0.001, 0.001, 1, 68.599, 154.523)" fill="#5c5c5c"/>
            <rect id="Rectángulo_263290" data-name="Rectángulo 263290" width="28.317" height="1.311" transform="translate(68.597 151.411)" fill="#5c5c5c"/>
            <rect id="Rectángulo_263291" data-name="Rectángulo 263291" width="28.316" height="1.311" transform="translate(68.595 148.317)" fill="#5c5c5c"/>
            <rect id="Rectángulo_263292" data-name="Rectángulo 263292" width="28.316" height="1.312" transform="matrix(1, -0.001, 0.001, 1, 68.592, 145.24)" fill="#5c5c5c"/>
            <rect id="Rectángulo_263293" data-name="Rectángulo 263293" width="28.316" height="1.311" transform="translate(68.59 142.129)" fill="#5c5c5c"/>
            <rect id="Rectángulo_263294" data-name="Rectángulo 263294" width="28.317" height="1.311" transform="matrix(1, -0.001, 0.001, 1, 68.586, 139.052)" fill="#5c5c5c"/>
            <rect id="Rectángulo_263295" data-name="Rectángulo 263295" width="28.316" height="1.311" transform="translate(68.584 135.94)" fill="#5c5c5c"/>
            <rect id="Rectángulo_263296" data-name="Rectángulo 263296" width="28.317" height="1.311" transform="matrix(1, -0.001, 0.001, 1, 68.581, 132.864)" fill="#5c5c5c"/>
            <rect id="Rectángulo_263297" data-name="Rectángulo 263297" width="28.317" height="1.312" transform="translate(68.579 129.752)" fill="#5c5c5c"/>
            <rect id="Rectángulo_263298" data-name="Rectángulo 263298" width="28.316" height="1.312" transform="translate(68.576 126.658)" fill="#5c5c5c"/>
            <rect id="Rectángulo_263299" data-name="Rectángulo 263299" width="28.316" height="1.311" transform="translate(68.573 123.581) rotate(-0.07)" fill="#5c5c5c"/>
            <rect id="Rectángulo_263300" data-name="Rectángulo 263300" width="28.316" height="1.312" transform="translate(68.571 120.469)" fill="#5c5c5c"/>
            <rect id="Rectángulo_263301" data-name="Rectángulo 263301" width="28.316" height="1.311" transform="translate(68.568 117.375)" fill="#5c5c5c"/>
            <rect id="Rectángulo_263302" data-name="Rectángulo 263302" width="28.317" height="1.311" transform="translate(68.566 114.281)" fill="#5c5c5c"/>
            <rect id="Rectángulo_263303" data-name="Rectángulo 263303" width="28.317" height="1.31" transform="translate(68.563 111.204) rotate(-0.07)" fill="#5c5c5c"/>
            <rect id="Rectángulo_263304" data-name="Rectángulo 263304" width="28.316" height="1.31" transform="translate(68.561 108.092)" fill="#5c5c5c"/>
            <rect id="Rectángulo_263305" data-name="Rectángulo 263305" width="28.317" height="1.311" transform="translate(68.557 104.997)" fill="#5c5c5c"/>
            <rect id="Rectángulo_263306" data-name="Rectángulo 263306" width="28.317" height="1.311" transform="translate(68.555 101.902)" fill="#5c5c5c"/>
            <rect id="Rectángulo_263307" data-name="Rectángulo 263307" width="28.317" height="1.31" transform="translate(68.552 98.825) rotate(-0.07)" fill="#5c5c5c"/>
            <rect id="Rectángulo_263308" data-name="Rectángulo 263308" width="28.316" height="1.311" transform="translate(68.55 95.713)" fill="#5c5c5c"/>
            <rect id="Rectángulo_263309" data-name="Rectángulo 263309" width="28.317" height="1.31" transform="translate(68.547 92.636) rotate(-0.07)" fill="#5c5c5c"/>
            <rect id="Rectángulo_263310" data-name="Rectángulo 263310" width="28.317" height="1.31" transform="translate(68.545 89.524)" fill="#5c5c5c"/>
            <rect id="Rectángulo_263311" data-name="Rectángulo 263311" width="28.317" height="1.311" transform="translate(68.541 86.447) rotate(-0.07)" fill="#5c5c5c"/>
            <rect id="Rectángulo_263312" data-name="Rectángulo 263312" width="28.316" height="1.31" transform="translate(68.54 83.335)" fill="#5c5c5c"/>
            <rect id="Rectángulo_263313" data-name="Rectángulo 263313" width="28.317" height="1.31" transform="translate(68.536 80.258) rotate(-0.07)" fill="#5c5c5c"/>
            <rect id="Rectángulo_263314" data-name="Rectángulo 263314" width="7.388" height="2.11" transform="translate(133.263 187.092)" fill="#333"/>
            <rect id="Rectángulo_263315" data-name="Rectángulo 263315" width="7.386" height="2.109" transform="translate(141.369 187.086)" fill="#333"/>
            <rect id="Rectángulo_263316" data-name="Rectángulo 263316" width="7.386" height="2.11" transform="translate(149.473 187.079)" fill="#333"/>
            <rect id="Rectángulo_263317" data-name="Rectángulo 263317" width="7.387" height="2.109" transform="translate(133.26 182.5)" fill="#333"/>
            <rect id="Rectángulo_263318" data-name="Rectángulo 263318" width="7.386" height="2.11" transform="translate(141.365 182.493)" fill="#333"/>
            <rect id="Rectángulo_263319" data-name="Rectángulo 263319" width="7.386" height="2.11" transform="translate(149.47 182.486)" fill="#333"/>
            <rect id="Rectángulo_263320" data-name="Rectángulo 263320" width="7.387" height="2.109" transform="translate(133.256 177.907)" fill="#333"/>
            <rect id="Rectángulo_263321" data-name="Rectángulo 263321" width="7.385" height="2.109" transform="translate(141.361 177.901)" fill="#333"/>
            <rect id="Rectángulo_263322" data-name="Rectángulo 263322" width="7.386" height="2.11" transform="translate(149.466 177.893)" fill="#333"/>
            <rect id="Rectángulo_263323" data-name="Rectángulo 263323" width="7.387" height="2.109" transform="translate(133.251 173.319) rotate(-0.065)" fill="#333"/>
            <rect id="Rectángulo_263324" data-name="Rectángulo 263324" width="7.385" height="2.109" transform="translate(141.358 173.308)" fill="#333"/>
            <rect id="Rectángulo_263325" data-name="Rectángulo 263325" width="7.386" height="2.11" transform="translate(149.462 173.3)" fill="#333"/>
            <rect id="Rectángulo_263326" data-name="Rectángulo 263326" width="7.386" height="2.109" transform="translate(133.248 168.722)" fill="#333"/>
            <rect id="Rectángulo_263327" data-name="Rectángulo 263327" width="7.385" height="2.109" transform="translate(141.353 168.715)" fill="#333"/>
            <rect id="Rectángulo_263328" data-name="Rectángulo 263328" width="7.385" height="2.11" transform="translate(149.459 168.708)" fill="#333"/>
            <rect id="Rectángulo_263329" data-name="Rectángulo 263329" width="7.388" height="2.109" transform="translate(133.243 164.129)" fill="#333"/>
            <rect id="Rectángulo_263330" data-name="Rectángulo 263330" width="7.386" height="2.11" transform="translate(141.35 164.122)" fill="#333"/>
            <rect id="Rectángulo_263331" data-name="Rectángulo 263331" width="7.386" height="2.109" transform="translate(149.453 164.119) rotate(-0.065)" fill="#333"/>
            <rect id="Rectángulo_263332" data-name="Rectángulo 263332" width="7.388" height="2.109" transform="translate(133.24 159.536)" fill="#333"/>
            <rect id="Rectángulo_263333" data-name="Rectángulo 263333" width="7.386" height="2.11" transform="translate(141.346 159.529)" fill="#333"/>
            <rect id="Rectángulo_263334" data-name="Rectángulo 263334" width="7.385" height="2.11" transform="translate(149.45 159.522)" fill="#333"/>
            <rect id="Rectángulo_263335" data-name="Rectángulo 263335" width="7.388" height="2.11" transform="translate(133.236 154.943)" fill="#333"/>
            <rect id="Rectángulo_263336" data-name="Rectángulo 263336" width="7.386" height="2.109" transform="translate(141.342 154.936)" fill="#333"/>
            <rect id="Rectángulo_263337" data-name="Rectángulo 263337" width="7.386" height="2.109" transform="translate(149.446 154.93)" fill="#333"/>
            <rect id="Rectángulo_263338" data-name="Rectángulo 263338" width="7.388" height="2.11" transform="translate(133.232 150.35)" fill="#333"/>
            <rect id="Rectángulo_263339" data-name="Rectángulo 263339" width="7.386" height="2.11" transform="translate(141.338 150.343)" fill="#333"/>
            <rect id="Rectángulo_263340" data-name="Rectángulo 263340" width="7.386" height="2.11" transform="translate(149.441 150.341) rotate(-0.065)" fill="#333"/>
            <rect id="Rectángulo_263341" data-name="Rectángulo 263341" width="7.387" height="2.11" transform="translate(133.228 145.758)" fill="#333"/>
            <rect id="Rectángulo_263342" data-name="Rectángulo 263342" width="7.386" height="2.11" transform="translate(141.334 145.751)" fill="#333"/>
            <rect id="Rectángulo_263343" data-name="Rectángulo 263343" width="7.386" height="2.11" transform="translate(149.439 145.744)" fill="#333"/>
            <rect id="Rectángulo_263344" data-name="Rectángulo 263344" width="7.387" height="2.109" transform="translate(133.225 141.165)" fill="#333"/>
            <rect id="Rectángulo_263345" data-name="Rectángulo 263345" width="7.386" height="2.11" transform="translate(141.33 141.158)" fill="#333"/>
            <rect id="Rectángulo_263346" data-name="Rectángulo 263346" width="7.386" height="2.11" transform="translate(149.435 141.151)" fill="#333"/>
            <rect id="Rectángulo_263347" data-name="Rectángulo 263347" width="7.387" height="2.11" transform="translate(133.221 136.572)" fill="#333"/>
            <rect id="Rectángulo_263348" data-name="Rectángulo 263348" width="7.385" height="2.11" transform="translate(141.326 136.565)" fill="#333"/>
            <rect id="Rectángulo_263349" data-name="Rectángulo 263349" width="7.386" height="2.11" transform="translate(149.431 136.558)" fill="#333"/>
            <rect id="Rectángulo_263350" data-name="Rectángulo 263350" width="7.386" height="2.11" transform="translate(133.217 131.979)" fill="#333"/>
            <rect id="Rectángulo_263351" data-name="Rectángulo 263351" width="7.385" height="2.109" transform="translate(141.322 131.973)" fill="#333"/>
            <rect id="Rectángulo_263352" data-name="Rectángulo 263352" width="7.385" height="2.11" transform="translate(149.428 131.965)" fill="#333"/>
            <rect id="Rectángulo_263353" data-name="Rectángulo 263353" width="7.387" height="2.11" transform="translate(133.212 127.39) rotate(-0.065)" fill="#333"/>
            <rect id="Rectángulo_263354" data-name="Rectángulo 263354" width="7.385" height="2.11" transform="translate(141.318 127.379)" fill="#333"/>
            <rect id="Rectángulo_263355" data-name="Rectángulo 263355" width="7.385" height="2.11" transform="translate(149.423 127.372)" fill="#333"/>
            <rect id="Rectángulo_263356" data-name="Rectángulo 263356" width="7.388" height="2.11" transform="translate(133.207 122.798) rotate(-0.065)" fill="#333"/>
            <rect id="Rectángulo_263357" data-name="Rectángulo 263357" width="7.386" height="2.11" transform="translate(141.313 122.791) rotate(-0.065)" fill="#333"/>
            <rect id="Rectángulo_263358" data-name="Rectángulo 263358" width="7.385" height="2.11" transform="translate(149.418 122.784) rotate(-0.065)" fill="#333"/>
            <rect id="Rectángulo_263359" data-name="Rectángulo 263359" width="7.388" height="2.109" transform="translate(133.205 118.201)" fill="#333"/>
            <rect id="Rectángulo_263360" data-name="Rectángulo 263360" width="7.386" height="2.109" transform="translate(141.31 118.199) rotate(-0.065)" fill="#333"/>
            <rect id="Rectángulo_263361" data-name="Rectángulo 263361" width="7.386" height="2.109" transform="translate(149.415 118.188)" fill="#333"/>
            <rect id="Rectángulo_263362" data-name="Rectángulo 263362" width="7.388" height="2.111" transform="translate(133.201 113.608)" fill="#333"/>
            <rect id="Rectángulo_263363" data-name="Rectángulo 263363" width="7.386" height="2.11" transform="translate(141.306 113.601)" fill="#333"/>
            <rect id="Rectángulo_263364" data-name="Rectángulo 263364" width="7.386" height="2.11" transform="translate(149.41 113.599) rotate(-0.065)" fill="#333"/>
            <rect id="Rectángulo_263365" data-name="Rectángulo 263365" width="7.387" height="2.109" transform="translate(133.196 109.02) rotate(-0.065)" fill="#333"/>
            <rect id="Rectángulo_263366" data-name="Rectángulo 263366" width="7.386" height="2.109" transform="translate(141.303 109.009)" fill="#333"/>
            <rect id="Rectángulo_263367" data-name="Rectángulo 263367" width="7.386" height="2.109" transform="translate(149.408 109.002)" fill="#333"/>
            <rect id="Rectángulo_263368" data-name="Rectángulo 263368" width="7.387" height="2.111" transform="translate(133.194 104.422)" fill="#333"/>
            <rect id="Rectángulo_263369" data-name="Rectángulo 263369" width="7.386" height="2.11" transform="translate(141.299 104.415)" fill="#333"/>
            <rect id="Rectángulo_263370" data-name="Rectángulo 263370" width="7.386" height="2.11" transform="translate(149.403 104.412) rotate(-0.065)" fill="#333"/>
            <rect id="Rectángulo_263371" data-name="Rectángulo 263371" width="7.387" height="2.109" transform="translate(133.188 99.834) rotate(-0.065)" fill="#333"/>
            <rect id="Rectángulo_263372" data-name="Rectángulo 263372" width="7.386" height="2.109" transform="translate(141.295 99.824)" fill="#333"/>
            <rect id="Rectángulo_263373" data-name="Rectángulo 263373" width="7.385" height="2.109" transform="translate(149.399 99.82) rotate(-0.065)" fill="#333"/>
            <rect id="Rectángulo_263374" data-name="Rectángulo 263374" width="7.387" height="2.111" transform="translate(133.186 95.236)" fill="#333"/>
            <rect id="Rectángulo_263375" data-name="Rectángulo 263375" width="7.385" height="2.11" transform="matrix(1, -0.001, 0.001, 1, 141.29, 95.234)" fill="#333"/>
            <rect id="Rectángulo_263376" data-name="Rectángulo 263376" width="7.386" height="2.11" transform="translate(149.396 95.223)" fill="#333"/>
            <rect id="Rectángulo_263377" data-name="Rectángulo 263377" width="7.387" height="2.109" transform="translate(133.182 90.644)" fill="#333"/>
            <rect id="Rectángulo_263378" data-name="Rectángulo 263378" width="7.385" height="2.109" transform="translate(141.288 90.637)" fill="#333"/>
            <rect id="Rectángulo_263379" data-name="Rectángulo 263379" width="7.386" height="2.109" transform="translate(149.391 90.635) rotate(-0.065)" fill="#333"/>
            <rect id="Rectángulo_263380" data-name="Rectángulo 263380" width="0.728" height="105.804" transform="translate(128.408 86.817)" fill="#fdd081"/>
            <rect id="Rectángulo_263381" data-name="Rectángulo 263381" width="0.728" height="105.805" transform="translate(110.583 86.832)" fill="#fdd081"/>
            <rect id="Rectángulo_263382" data-name="Rectángulo 263382" width="0.728" height="138.167" transform="translate(52.991 70.699)" fill="#fdd081"/>
            <path id="Trazado_375457" data-name="Trazado 375457" d="M150.725,207.109a2.264,2.264,0,0,1,2.266,2.262l.016,19.238a2.264,2.264,0,0,1-2.262,2.266l-3.041,0a2.264,2.264,0,0,1-2.266-2.263l-.017-19.237a2.264,2.264,0,0,1,2.262-2.265Z" transform="translate(-29.285 -41.708)" fill="#fdd081"/>
            <path id="Trazado_375458" data-name="Trazado 375458" d="M150.623,208.224a1.856,1.856,0,0,1,1.858,1.853l0,6.024a1.854,1.854,0,0,1-1.853,1.856l-2.491,0a1.855,1.855,0,0,1-1.856-1.854l-.006-6.023a1.854,1.854,0,0,1,1.853-1.856Z" transform="translate(-29.458 -41.933)"/>
            <path id="Trazado_375459" data-name="Trazado 375459" d="M275.882,229.6s-31.146.026-31.154-8.359-.022-28.351-.022-28.351l-.1-113.4s1.193-5.591-5.6-8.78-28.767-20.341-28.778-32.719S232.962.029,266.9,0s47.922,5.15,47.935,20.324a30.572,30.572,0,0,1-2.389,8.788c-1.993,4.393-1.584,14.775-.78,21.563s.837,44.722.837,44.722,9.259,90.635,4.887,114.2c0,0,3.206,13.574-19.152,16.787,0,0-14.047,3.534-22.359,3.214" transform="translate(-42.337 0)" fill="#333"/>
            <path id="Trazado_375460" data-name="Trazado 375460" d="M296.219,230.831a19.753,19.753,0,1,0,19.77,19.736,19.752,19.752,0,0,0-19.77-19.736" transform="translate(-55.679 -46.485)"/>
            <path id="Trazado_375461" data-name="Trazado 375461" d="M232.289,124.382s-11.383,2.672-11.94,13.542c.577-.1,25-4.2,58.718-4.226,34.123-.029,49.875,3.3,50.59,3.3l.023,26.726.022,26.726c-.715,0-16.463,3.355-50.584,3.383s-58.754-4.132-58.754-4.132c.01,11.581,11.991,14.366,11.991,14.366,28.357,6.365,88.241,1.922,88.241,1.922A28.159,28.159,0,0,0,333.371,191.6c3.816-6.636,2.853-26.042,2.775-27.464.074-1.421,1-20.83-2.822-27.46a28.148,28.148,0,0,0-12.8-14.364s-59.892-4.342-88.237,2.071" transform="translate(-44.374 -24.342)"/>
            <path id="Trazado_375462" data-name="Trazado 375462" d="M329.7,193.68l-.022-26.726-.023-26.726c-.716,0-16.467-3.327-50.59-3.3-33.716.029-58.141,4.129-58.718,4.227.875,3.931,1.373,25.888,1.373,25.888.02,22.587-1.358,25.886-1.358,25.886s24.63,4.161,58.754,4.132,49.869-3.383,50.584-3.383" transform="translate(-44.374 -27.575)" fill="#333"/>
            <path id="Trazado_375463" data-name="Trazado 375463" d="M219.844,142.223c-.014.276-.027.555-.027.843,0,0-1.961,15-1.974,25.377h0c0,.029,0,.06,0,.09s0,.061,0,.091h0C217.874,179,219.859,194,219.859,194s1.378-3.3,1.358-25.886c0,0-.5-21.957-1.374-25.888" transform="translate(-43.869 -28.641)" fill="#5c5c5c"/>
            <rect id="Rectángulo_263383" data-name="Rectángulo 263383" width="25.294" height="31.02" transform="translate(255.716 124.36)" fill="#bcbec0"/>
            <rect id="Rectángulo_263384" data-name="Rectángulo 263384" width="25.294" height="17.658" transform="translate(255.716 130.564)" fill="#f1f2f2"/>
            <path id="Trazado_375464" data-name="Trazado 375464" d="M255.266,146.36c-14.647,4.166-28.633,16.8-28.628,22.625s14.012,18.434,28.666,22.576,46.072-.038,46.072-.038l-.006-7.033-.014-15.567-.013-15.569-.006-7.032s-31.422-4.129-46.071.039" transform="translate(-45.641 -29.099)" fill="#5c5c5c"/>
            <path id="Trazado_375465" data-name="Trazado 375465" d="M296.946,234.431a16.878,16.878,0,1,0,16.893,16.864,16.878,16.878,0,0,0-16.893-16.864" transform="translate(-56.404 -47.21)" fill="#5c5c5c"/>
            <path id="Trazado_375466" data-name="Trazado 375466" d="M289.776,243.729c2.151,0,3.9,4.17,3.9,9.317s-1.735,9.321-3.887,9.323-3.9-4.169-3.9-9.317,1.736-9.322,3.887-9.323" transform="translate(-57.573 -49.083)" fill="#333"/>
            <path id="Trazado_375467" data-name="Trazado 375467" d="M312.47,249.585c-1.04,1.882-5.535,1.39-10.041-1.1s-7.315-6.034-6.274-7.917,5.536-1.39,10.041,1.1,7.315,6.034,6.274,7.917" transform="translate(-59.597 -48.216)" fill="#333"/>
            <path id="Trazado_375468" data-name="Trazado 375468" d="M296.67,267.963c-1.144-1.822,1.465-5.516,5.825-8.252s8.822-3.476,9.966-1.654-1.466,5.518-5.827,8.253-8.822,3.475-9.964,1.653" transform="translate(-59.69 -51.767)" fill="#333"/>
            <path id="Trazado_375469" data-name="Trazado 375469" d="M272.417,268.688a4.283,4.283,0,1,0,4.288,4.28,4.285,4.285,0,0,0-4.288-4.28" transform="translate(-53.998 -54.109)" fill="#5c5c5c"/>
            <path id="Trazado_375470" data-name="Trazado 375470" d="M244.768,239.408l.006,6.675s0,1.669.006,6.676,6.892,3.056,6.892,3.056l-.009-9.738-.008-9.738s-6.891-1.937-6.887,3.068" transform="translate(-49.292 -47.52)"/>
            <rect id="Rectángulo_263385" data-name="Rectángulo 263385" width="5.881" height="9.369" transform="translate(189.602 193.881)"/>
            <path id="Trazado_375471" data-name="Trazado 375471" d="M307.648,31.788a2.263,2.263,0,0,1,2.265,2.262l.052,61.048a2.264,2.264,0,0,1-2.261,2.266l-27.419.023a2.263,2.263,0,0,1-2.265-2.262l-.051-61.048a2.261,2.261,0,0,1,2.261-2.264Z" transform="translate(-55.978 -6.402)" fill="none" stroke="#000" stroke-miterlimit="10" stroke-width="1"/>
            <path id="Trazado_375472" data-name="Trazado 375472" d="M307.648,31.788a2.263,2.263,0,0,1,2.265,2.262l.052,61.048a2.264,2.264,0,0,1-2.261,2.266l-27.419.023a2.263,2.263,0,0,1-2.265-2.262l-.051-61.048a2.261,2.261,0,0,1,2.261-2.264Z" transform="translate(-55.978 -6.402)"/>
            <rect id="Rectángulo_263386" data-name="Rectángulo 263386" width="27.419" height="61.048" transform="translate(224.279 27.661)" fill="#5c5c5c"/>
            <path id="Trazado_375473" data-name="Trazado 375473" d="M230.5,29.722a13.839,13.839,0,1,0,13.85,13.828A13.84,13.84,0,0,0,230.5,29.722" transform="translate(-43.634 -5.985)"/>
            <path id="Trazado_375474" data-name="Trazado 375474" d="M231.793,36.121a8.729,8.729,0,1,0,8.737,8.721,8.73,8.73,0,0,0-8.737-8.721" transform="translate(-44.922 -7.274)" fill="#5c5c5c"/>
            <path id="Trazado_375475" data-name="Trazado 375475" d="M257.913,56.893c2.579,0,4.671,2.856,4.674,6.384s-2.085,6.389-4.662,6.391-4.673-2.856-4.676-6.383,2.084-6.39,4.665-6.392" transform="translate(-51 -11.457)" fill="#5c5c5c"/>
            <path id="Trazado_375476" data-name="Trazado 375476" d="M257.882,20.1c2.578,0,4.67,2.855,4.673,6.383s-2.084,6.391-4.663,6.393-4.672-2.857-4.675-6.385,2.085-6.389,4.666-6.391" transform="translate(-50.993 -4.048)" fill="#5c5c5c"/>
          </g>
        </g>
        <g id="Enmascarar_grupo_180712" data-name="Enmascarar grupo 180712" transform="translate(0 -18)" clip-path="url(#clip-path-2)">
          <ellipse id="Elipse_6494" data-name="Elipse 6494" cx="222" cy="221" rx="222" ry="221" transform="translate(273 5408)" fill="#8ec1c2"/>
        </g>
        <g id="Enmascarar_grupo_180713" data-name="Enmascarar grupo 180713" transform="translate(0 1.709)" clip-path="url(#clip-path-3)">
          <path id="Trazado_472430" data-name="Trazado 472430" d="M375,0C582.107,0,750,167.669,750,374.5S582.107,749,375,749,0,581.331,0,374.5,167.893,0,375,0Z" transform="translate(24 5228)" fill="#9087ff"/>
        </g>
        <rect id="Rectángulo_263715" data-name="Rectángulo 263715" width="288" height="55" transform="translate(195 5925)" fill="#e7e0fa" opacity="0.7"/>
        <rect id="Rectángulo_263717" data-name="Rectángulo 263717" width="119" height="55" transform="translate(487 5925)" fill="#e7e0fa" opacity="0.7"/>
        <rect id="Rectángulo_263731" data-name="Rectángulo 263731" width="119" height="50" transform="translate(487 5869)" fill="#8ec1c2"/>
        <rect id="Rectángulo_263722" data-name="Rectángulo 263722" width="119" height="55" transform="translate(487 5986)" fill="#f5f0fd"/>
        <rect id="Rectángulo_263718" data-name="Rectángulo 263718" width="119" height="55" transform="translate(610 5925)" fill="#e7e0fa" opacity="0.7"/>
        <rect id="Rectángulo_263730" data-name="Rectángulo 263730" width="119" height="50" transform="translate(610 5869)" fill="#9087ff"/>
        <rect id="Rectángulo_263723" data-name="Rectángulo 263723" width="119" height="55" transform="translate(610 5986)" fill="#f5f0fd"/>
        <rect id="Rectángulo_263719" data-name="Rectángulo 263719" width="180" height="55" transform="translate(733 5925)" fill="#e7e0fa" opacity="0.7"/>
        <rect id="Rectángulo_263729" data-name="Rectángulo 263729" width="180" height="50" transform="translate(733 5869)" fill="#ea63d5"/>
        <rect id="Rectángulo_263724" data-name="Rectángulo 263724" width="180" height="55" transform="translate(733 5986)" fill="#f5f0fd"/>
        <rect id="Rectángulo_263720" data-name="Rectángulo 263720" width="298" height="55" transform="translate(917 5925)" fill="#e7e0fa" opacity="0.7"/>
        <rect id="Rectángulo_263728" data-name="Rectángulo 263728" width="298" height="50" transform="translate(917 5869)" fill="#ffac65"/>
        <rect id="Rectángulo_263725" data-name="Rectángulo 263725" width="298" height="55" transform="translate(917 5986)" fill="#f5f0fd"/>
        <rect id="Rectángulo_263721" data-name="Rectángulo 263721" width="170" height="55" transform="translate(1217 5925)" fill="#e7e0fa" opacity="0.7"/>
        <rect id="Rectángulo_263727" data-name="Rectángulo 263727" width="170" height="50" transform="translate(1217 5869)" fill="#ffff7b"/>
        <rect id="Rectángulo_263726" data-name="Rectángulo 263726" width="170" height="55" transform="translate(1217 5986)" fill="#f5f0fd"/>
        <rect id="Rectángulo_263716" data-name="Rectángulo 263716" width="288" height="55" transform="translate(195 5985)" fill="#f5f0fd"/>
        <path id="Trazado_375715" data-name="Trazado 375715" d="M-4295.534-6237.333l-405.488,148.067,405.488,147.686s56.694-74.535,56.694-146.6S-4295.534-6237.333-4295.534-6237.333Z" transform="translate(5189 11700)" fill="#ea63d5"/>
        <path id="Trazado_375713" data-name="Trazado 375713" d="M-4701.009-6091.418l744.513,140.191s35.305-68.518,35.305-139.239-39.846-146.253-39.846-146.253Z" transform="translate(5189 11702.131)" fill="#ffac65"/>
        <path id="Trazado_375714" data-name="Trazado 375714" d="M-4700.922-6089.281l891.747,78.562s7.107-40.046,7.107-80.971-7.107-82.727-7.107-82.727Z" transform="translate(5188.935 11700)" fill="#ffff7b"/>
        <text id="Retratos" transform="translate(848.912 5515.046) rotate(-12)" fill="#12263f" font-size="16" font-family="Roboto-Regular, Roboto"><tspan x="0" y="17">Retratos</tspan></text>
        <text id="Paisajes_y_fotos_grupales" data-name="Paisajes y fotos grupales" transform="translate(578.767 5553.404) rotate(-21)" fill="#12263f" font-size="16" font-family="Roboto-Regular, Roboto"><tspan x="0" y="17">Paisajes y fotos grupales</tspan></text>
        <text id="Paisaje_" data-name="Paisaje " transform="translate(594.922 5486.921) rotate(-39)" fill="#12263f" font-size="16" font-family="Roboto-Regular, Roboto"><tspan x="0" y="17">Paisaje </tspan></text>
        <text id="Fauna_Deportes_Retratos" data-name="Fauna – Deportes – Retratos" transform="translate(1033.237 5533.948) rotate(-6)" fill="#12263f" font-size="16" font-family="Roboto-Regular, Roboto"><tspan x="0" y="17">Fauna – Deportes – Retratos</tspan></text>
        <text id="Fauna_deportes_sol_estrellas_y_luna" data-name="Fauna – deportes – sol, estrellas y luna" transform="translate(1083.921 5595.431)" fill="#12263f" font-size="16" font-family="Roboto-Regular, Roboto"><tspan x="0" y="17">Fauna – deportes – sol, estrellas y luna</tspan></text>
        <text id="Ojo_de_pez" data-name="Ojo de pez" transform="translate(505.259 5882)" fill="#12263f" font-size="16" font-family="Roboto-Regular, Roboto"><tspan x="0" y="17">Ojo de pez</tspan></text>
        <text id="Angulares" transform="translate(632 5882)" fill="#12263f" font-size="16" font-family="Roboto-Regular, Roboto"><tspan x="0" y="17">Angulares</tspan></text>
        <text id="Normal_Estándar" data-name="Normal/Estándar" transform="translate(761 5882)" fill="#12263f" font-size="16" font-family="Roboto-Regular, Roboto"><tspan x="0" y="17">Normal/Estándar</tspan></text>
        <text id="Distancia_focal" data-name="Distancia focal" transform="translate(285 5943)" fill="#12263f" font-size="16" font-family="Roboto-Regular, Roboto"><tspan x="0" y="17">Distancia focal</tspan></text>
        <text id="Ángulo_de_visión" data-name="Ángulo de visión" transform="translate(279 6002)" fill="#12263f" font-size="16" font-family="Roboto-Regular, Roboto"><tspan x="0" y="17">Ángulo de visión</tspan></text>
        <text id="_8_mm" data-name="8 mm" transform="translate(526 5943)" fill="#12263f" font-size="16" font-family="Roboto-Regular, Roboto"><tspan x="0" y="17">8 mm</tspan></text>
        <text id="_8_a_25_mm" data-name="8 a 25 mm" transform="translate(631 5943)" fill="#12263f" font-size="16" font-family="Roboto-Regular, Roboto"><tspan x="0" y="17">8 a 25 mm</tspan></text>
        <text id="_25_a_65_mm" data-name="25 a 65 mm" transform="translate(779 5943)" fill="#12263f" font-size="16" font-family="Roboto-Regular, Roboto"><tspan x="0" y="17">25 a 65 mm</tspan></text>
        <text id="_65_a_160_mm" data-name="65 a 160 mm" transform="translate(1017 5943)" fill="#12263f" font-size="16" font-family="Roboto-Regular, Roboto"><tspan x="0" y="17">65 a 160 mm</tspan></text>
        <text id="_160_a_600_mm" data-name="160 a 600 mm" transform="translate(1250 5943)" fill="#12263f" font-size="16" font-family="Roboto-Regular, Roboto"><tspan x="0" y="17">160 a 600 mm</tspan></text>
        <text id="_180_" data-name="180º" transform="translate(529 6004)" fill="#12263f" font-size="16" font-family="Roboto-Regular, Roboto"><tspan x="0" y="17">180º</tspan></text>
        <text id="_110_a_60_" data-name="110 a 60º" transform="translate(633 6004)" fill="#12263f" font-size="16" font-family="Roboto-Regular, Roboto"><tspan x="0" y="17">110 a 60º</tspan></text>
        <text id="_60_a_25_" data-name="60 a 25º" transform="translate(792 6004)" fill="#12263f" font-size="16" font-family="Roboto-Regular, Roboto"><tspan x="0" y="17">60 a 25º</tspan></text>
        <text id="_25_a_10_" data-name="25 a 10º" transform="translate(1035 6004)" fill="#12263f" font-size="16" font-family="Roboto-Regular, Roboto"><tspan x="0" y="17">25 a 10º</tspan></text>
        <text id="_10_a_2_" data-name="10 a 2º" transform="translate(1271 6004)" fill="#12263f" font-size="16" font-family="Roboto-Regular, Roboto"><tspan x="0" y="17">10 a 2º</tspan></text>
        <text id="Teleobjetivos" transform="translate(1017 5882)" fill="#12263f" font-size="16" font-family="Roboto-Regular, Roboto"><tspan x="0" y="17">Teleobjetivos</tspan></text>
        <text id="Súper_teleobjetivos" data-name="Súper teleobjetivos" transform="translate(1234 5882)" fill="#12263f" font-size="16" font-family="Roboto-Regular, Roboto"><tspan x="0" y="17">Súper teleobjetivos</tspan></text>
      </g>
    </g>
  </g>
</svg>
