<svg xmlns="http://www.w3.org/2000/svg" xmlns:xlink="http://www.w3.org/1999/xlink" width="1240" height="713" viewBox="0 0 1240 713">
  <defs>
    <clipPath id="clip-path">
      <rect id="Rectángulo_278196" data-name="Rectángulo 278196" width="1240" height="713" rx="16" transform="translate(180 11744)" fill="#ff9c8a" opacity="0.61"/>
    </clipPath>
    <clipPath id="clip-path-2">
      <rect id="Rectángulo_278195" data-name="Rectángulo 278195" width="1188" height="576" transform="translate(206 11881)" fill="#ca5cff" opacity="0.3"/>
    </clipPath>
    <clipPath id="clip-path-3">
      <rect id="Rectángulo_278194" data-name="Rectángulo 278194" width="1197.631" height="442.69" fill="none"/>
    </clipPath>
    <clipPath id="clip-path-4">
      <rect id="Rectángulo_277370" data-name="Rectángulo 277370" width="67.301" height="51.425" fill="none"/>
    </clipPath>
    <clipPath id="clip-path-5">
      <rect id="Rectángulo_277371" data-name="Rectángulo 277371" width="8.15" height="165.194" fill="none"/>
    </clipPath>
    <clipPath id="clip-path-6">
      <rect id="Rectángulo_277372" data-name="Rectángulo 277372" width="8.612" height="138.82" fill="none"/>
    </clipPath>
    <clipPath id="clip-path-7">
      <rect id="Rectángulo_277373" data-name="Rectángulo 277373" width="179.312" height="136.113" fill="none"/>
    </clipPath>
  </defs>
  <g id="Grupo_721990" data-name="Grupo 721990" transform="translate(3502 -61)">
    <g id="Grupo_722351" data-name="Grupo 722351">
      <g id="Enmascarar_grupo_699920" data-name="Enmascarar grupo 699920" transform="translate(-3682 -11683)" clip-path="url(#clip-path)">
        <path id="Trazado_560631" data-name="Trazado 560631" d="M16,0H1224a16,16,0,0,1,16,16V697a16,16,0,0,1-16,16H16A16,16,0,0,1,0,697V16A16,16,0,0,1,16,0Z" transform="translate(180 11744)" fill="#e7eff8"/>
        <g id="Enmascarar_grupo_699919" data-name="Enmascarar grupo 699919" opacity="0.76" clip-path="url(#clip-path-2)">
          <g id="Grupo_721315" data-name="Grupo 721315" transform="translate(196.369 11859.247)">
            <rect id="Rectángulo_278161" data-name="Rectángulo 278161" width="58.037" height="115.041" transform="translate(0 106.304)" fill="#f5f5f5"/>
            <rect id="Rectángulo_278162" data-name="Rectángulo 278162" width="62.708" height="115.041" transform="translate(60.268 106.304)" fill="#f5f5f5"/>
            <rect id="Rectángulo_278163" data-name="Rectángulo 278163" width="62.708" height="111.154" transform="translate(60.268 229.383)" fill="#f5f5f5"/>
            <path id="Trazado_560632" data-name="Trazado 560632" d="M75.156,0V104.315h66.038V2.263h2.233V104.315h53.741V0Z" transform="translate(55.857 0)" fill="#f5f5f5"/>
            <rect id="Rectángulo_278164" data-name="Rectángulo 278164" width="53.743" height="115.041" transform="translate(199.283 106.304)" fill="#f5f5f5"/>
            <rect id="Rectángulo_278165" data-name="Rectángulo 278165" width="53.743" height="111.154" transform="translate(199.283 229.383)" fill="#f5f5f5"/>
            <rect id="Rectángulo_278166" data-name="Rectángulo 278166" width="58.037" height="111.154" transform="translate(0 229.383)" fill="#f5f5f5"/>
            <rect id="Rectángulo_278167" data-name="Rectángulo 278167" width="66.038" height="111.154" transform="translate(131.012 229.383)" fill="#f5f5f5"/>
            <rect id="Rectángulo_278168" data-name="Rectángulo 278168" width="58.037" height="100.165" transform="translate(0 342.526)" fill="#f5f5f5"/>
            <rect id="Rectángulo_278169" data-name="Rectángulo 278169" width="53.741" height="100.165" transform="translate(199.283 342.526)" fill="#f5f5f5"/>
            <path id="Trazado_560633" data-name="Trazado 560633" d="M0,0V104.315H58.037V2.263H60.27V104.315h62.707V0Z" transform="translate(0 0)" fill="#f5f5f5"/>
            <rect id="Rectángulo_278170" data-name="Rectángulo 278170" width="66.038" height="100.165" transform="translate(131.012 342.526)" fill="#f5f5f5"/>
            <rect id="Rectángulo_278171" data-name="Rectángulo 278171" width="62.707" height="100.165" transform="translate(60.27 342.526)" fill="#f5f5f5"/>
            <rect id="Rectángulo_278172" data-name="Rectángulo 278172" width="66.038" height="115.041" transform="translate(131.012 106.304)" fill="#f5f5f5"/>
            <rect id="Rectángulo_278173" data-name="Rectángulo 278173" width="136.868" height="142.673" transform="translate(318.213 62.904)" fill="#e0e0e0"/>
            <rect id="Rectángulo_278174" data-name="Rectángulo 278174" width="136.866" height="142.673" transform="translate(308.945 62.904)" fill="#fafafa"/>
            <path id="Trazado_560634" data-name="Trazado 560634" d="M314.155,178.817H177.2V36.061H314.155Zm-136.868-.085H314.07V36.145H177.288Z" transform="translate(131.699 26.801)" fill="#e0e0e0"/>
            <rect id="Rectángulo_278175" data-name="Rectángulo 278175" width="100.069" height="104.313" transform="translate(327.344 82.082)" fill="#fff"/>
            <g id="Grupo_721314" data-name="Grupo 721314" transform="translate(0 0)">
              <g id="Grupo_721313" data-name="Grupo 721313" clip-path="url(#clip-path-3)">
                <path id="Trazado_560635" data-name="Trazado 560635" d="M195.569,107.328a16.39,16.39,0,0,1-2.47,2.871c-1.6,1.686-3.844,3.969-6.361,6.448s-4.83,4.689-6.537,6.258a16.031,16.031,0,0,1-2.892,2.409,15.829,15.829,0,0,1,2.456-2.859c1.6-1.687,3.849-3.975,6.375-6.462s4.843-4.7,6.549-6.269a15.6,15.6,0,0,1,2.88-2.4" transform="translate(131.773 79.762)" fill="#e0e0e0"/>
                <path id="Trazado_560636" data-name="Trazado 560636" d="M245.191,107.18a16.342,16.342,0,0,1,2.871,2.468c1.687,1.6,3.969,3.846,6.45,6.363s4.689,4.83,6.256,6.537a15.867,15.867,0,0,1,2.409,2.892,15.994,15.994,0,0,1-2.859-2.456c-1.686-1.6-3.974-3.851-6.462-6.375s-4.7-4.844-6.269-6.549a15.782,15.782,0,0,1-2.4-2.88" transform="translate(182.222 79.653)" fill="#e0e0e0"/>
                <path id="Trazado_560637" data-name="Trazado 560637" d="M245.033,54.918a16.314,16.314,0,0,1,2.47-2.871c1.6-1.687,3.844-3.969,6.361-6.448s4.83-4.689,6.537-6.258a15.938,15.938,0,0,1,2.892-2.409,15.829,15.829,0,0,1-2.456,2.859c-1.6,1.687-3.849,3.975-6.375,6.462s-4.843,4.7-6.549,6.269a15.6,15.6,0,0,1-2.88,2.4" transform="translate(182.106 27.443)" fill="#e0e0e0"/>
                <path id="Trazado_560638" data-name="Trazado 560638" d="M195.3,55.181a16.313,16.313,0,0,1-2.871-2.47c-1.686-1.6-3.969-3.844-6.448-6.361s-4.691-4.83-6.258-6.537a15.937,15.937,0,0,1-2.409-2.892,15.832,15.832,0,0,1,2.859,2.456c1.687,1.6,3.974,3.851,6.462,6.375s4.7,4.844,6.269,6.551a15.493,15.493,0,0,1,2.4,2.878" transform="translate(131.773 27.436)" fill="#e0e0e0"/>
                <path id="Trazado_560639" data-name="Trazado 560639" d="M287.768,151.589a5,5,0,0,1-.021-.507c-.007-.356-.014-.835-.023-1.456-.01-1.307-.026-3.188-.045-5.631-.023-4.942-.057-12.131-.1-21.26-.047-18.271-.115-44.3-.2-75.46l.385.385-99.786.058h-.009l.443-.443c-.023,38.288-.045,74.105-.063,104.313l-.38-.38c29.9.08,54.8.148,72.258.193l20.3.1,5.371.045,1.388.021a4.531,4.531,0,0,1,.483.021,3.27,3.27,0,0,1-.441.021c-.329.007-.774.012-1.346.023q-1.849.013-5.3.044l-20.211.1-72.5.193-.38,0,0-.382c-.017-30.208-.04-66.026-.063-104.313v-.443h.453c36.443.019,70.656.04,99.786.056h.387v.387c-.082,31.266-.15,57.378-.2,75.707-.044,9.091-.078,16.252-.1,21.171-.019,2.411-.035,4.267-.045,5.557-.009.6-.016,1.069-.021,1.414a3.743,3.743,0,0,1-.023.464" transform="translate(139.372 34.807)" fill="#e0e0e0"/>
                <rect id="Rectángulo_278176" data-name="Rectángulo 278176" width="33.391" height="33.391" transform="translate(360.683 117.544)" fill="#ebebeb"/>
                <rect id="Rectángulo_278177" data-name="Rectángulo 278177" width="136.868" height="142.673" transform="translate(769.073 62.872)" fill="#e0e0e0"/>
                <rect id="Rectángulo_278178" data-name="Rectángulo 278178" width="136.868" height="142.673" transform="translate(759.804 62.872)" fill="#fafafa"/>
                <path id="Trazado_560640" data-name="Trazado 560640" d="M572.793,178.8H435.842V36.042H572.793Zm-136.866-.084H572.71V36.129H435.927Z" transform="translate(323.92 26.787)" fill="#e0e0e0"/>
                <rect id="Rectángulo_278179" data-name="Rectángulo 278179" width="100.07" height="104.313" transform="translate(778.202 82.053)" fill="#fff"/>
                <path id="Trazado_560641" data-name="Trazado 560641" d="M454.208,107.311a16.385,16.385,0,0,1-2.47,2.871c-1.6,1.686-3.842,3.969-6.359,6.448s-4.832,4.689-6.539,6.258a16.033,16.033,0,0,1-2.892,2.409,15.825,15.825,0,0,1,2.456-2.859c1.6-1.687,3.851-3.975,6.375-6.462s4.844-4.7,6.549-6.269a15.6,15.6,0,0,1,2.88-2.4" transform="translate(323.995 79.749)" fill="#e0e0e0"/>
                <path id="Trazado_560642" data-name="Trazado 560642" d="M503.829,107.163a16.34,16.34,0,0,1,2.871,2.468c1.687,1.6,3.969,3.846,6.448,6.363s4.691,4.83,6.258,6.537a15.868,15.868,0,0,1,2.409,2.892,16,16,0,0,1-2.859-2.456c-1.686-1.6-3.975-3.851-6.462-6.375s-4.7-4.844-6.269-6.549a15.6,15.6,0,0,1-2.4-2.88" transform="translate(374.443 79.641)" fill="#e0e0e0"/>
                <path id="Trazado_560643" data-name="Trazado 560643" d="M503.671,54.9a16.318,16.318,0,0,1,2.47-2.871c1.6-1.687,3.844-3.969,6.361-6.448s4.83-4.689,6.537-6.258a15.866,15.866,0,0,1,2.892-2.409,15.928,15.928,0,0,1-2.456,2.859c-1.6,1.687-3.849,3.975-6.375,6.462s-4.844,4.7-6.549,6.269a15.6,15.6,0,0,1-2.88,2.4" transform="translate(374.328 27.43)" fill="#e0e0e0"/>
                <path id="Trazado_560644" data-name="Trazado 560644" d="M453.935,55.163a16.313,16.313,0,0,1-2.871-2.47c-1.686-1.6-3.969-3.844-6.448-6.361s-4.689-4.83-6.258-6.537a15.935,15.935,0,0,1-2.409-2.892,15.835,15.835,0,0,1,2.859,2.456c1.687,1.6,3.974,3.851,6.462,6.375s4.7,4.844,6.269,6.551a15.5,15.5,0,0,1,2.4,2.878" transform="translate(323.995 27.423)" fill="#e0e0e0"/>
                <path id="Trazado_560645" data-name="Trazado 560645" d="M546.406,151.572a5.017,5.017,0,0,1-.021-.507c-.007-.356-.014-.835-.023-1.456-.01-1.307-.026-3.188-.045-5.631-.023-4.942-.057-12.131-.1-21.26-.047-18.271-.115-44.3-.2-75.46l.385.385-99.786.058h-.009l.443-.443c-.023,38.288-.045,74.105-.063,104.313l-.38-.38c29.9.08,54.8.148,72.258.193l20.3.1,5.371.045,1.388.021a4.529,4.529,0,0,1,.483.021,3.265,3.265,0,0,1-.441.021c-.329.007-.774.012-1.346.023q-1.849.013-5.3.044l-20.211.1-72.5.193-.38,0,0-.382c-.017-30.208-.04-66.026-.063-104.313v-.443h.453c36.443.019,70.656.04,99.786.056h.387v.387c-.082,31.266-.15,57.378-.2,75.707-.044,9.091-.078,16.252-.1,21.173-.019,2.409-.035,4.266-.045,5.556-.009.6-.017,1.069-.021,1.414a3.729,3.729,0,0,1-.023.464" transform="translate(331.593 34.794)" fill="#e0e0e0"/>
                <rect id="Rectángulo_278180" data-name="Rectángulo 278180" width="33.391" height="33.391" transform="translate(811.542 117.513)" fill="#ebebeb"/>
                <rect id="Rectángulo_278181" data-name="Rectángulo 278181" width="12.323" height="264.927" transform="translate(698.384 40.69)" fill="#e0e0e0"/>
                <path id="Trazado_560646" data-name="Trazado 560646" d="M298.1,24.7V287.587a.179.179,0,0,0,.178.178H474.787a.177.177,0,0,0,.178-.178V24.7a.177.177,0,0,0-.178-.178H298.275a.179.179,0,0,0-.178.178" transform="translate(221.547 18.222)" fill="#f5f5f5"/>
                <path id="Trazado_560647" data-name="Trazado 560647" d="M477.712,290.687H297.1a.179.179,0,0,1-.178-.178V23.52a.179.179,0,0,1,.178-.178H477.712a.179.179,0,0,1,.178.178V290.509a.179.179,0,0,1-.178.178m-176.513-4.1H473.612a.177.177,0,0,0,.178-.178V27.618a.177.177,0,0,0-.178-.178H301.2a.179.179,0,0,0-.178.178V286.411a.179.179,0,0,0,.178.178" transform="translate(220.674 17.348)" fill="#ebebeb"/>
                <path id="Trazado_560648" data-name="Trazado 560648" d="M308.313,34.012V264.249a.179.179,0,0,0,.178.178H449.7a.177.177,0,0,0,.178-.178V34.012a.177.177,0,0,0-.178-.178H308.491a.179.179,0,0,0-.178.178" transform="translate(229.14 25.146)" fill="#fff"/>
                <path id="Trazado_560649" data-name="Trazado 560649" d="M405.4,164.5H326.142a.113.113,0,0,1-.113-.112V71.447a.113.113,0,0,1,.113-.112H405.4a.112.112,0,0,1,.112.112v92.941a.112.112,0,0,1-.112.112" transform="translate(242.306 53.017)" fill="#ebebeb"/>
                <path id="Trazado_560650" data-name="Trazado 560650" d="M398.652,149.545c.1.3-3.821,2.019-11.286,1.144a27.594,27.594,0,0,1-12.685-5.071,25.734,25.734,0,0,1-9.856-15.5,22.285,22.285,0,0,1,7.538-21.194,19.8,19.8,0,0,1,5.716-3.349,15.219,15.219,0,0,1,7.151-.825,12.6,12.6,0,0,1,7.149,3.122A9.329,9.329,0,0,1,395.2,116.2a13.6,13.6,0,0,1-3.924,7.149,25.872,25.872,0,0,1-5.988,4.412A32.8,32.8,0,0,1,371,131.84a28.4,28.4,0,0,1-15.223-3.466,27.67,27.67,0,0,1-11.2-11.611,23.681,23.681,0,0,1-2.01-16.264,24.176,24.176,0,0,1,8.573-13.4,21.129,21.129,0,0,1,7.186-3.628,17.874,17.874,0,0,1,8.092-.253,13.191,13.191,0,0,1,7.342,4.142,12.179,12.179,0,0,1,2.878,7.848,14.935,14.935,0,0,1-1.914,7.475,20.011,20.011,0,0,1-4.532,5.449,30.509,30.509,0,0,1-11.261,5.983,28.89,28.89,0,0,1-11.847.915,24.26,24.26,0,0,1-10.309-3.95,22.328,22.328,0,0,1-9.847-15.6,18.841,18.841,0,0,1,3.649-13.372,15.978,15.978,0,0,1,6.748-5.392c1.858-.7,2.915-.678,2.962-.5.078.253-.84.662-2.346,1.667a17.584,17.584,0,0,0-5.247,5.641,16.665,16.665,0,0,0-2.149,11.421,18.706,18.706,0,0,0,8.756,12.262c4.815,3.059,11.571,3.847,18.06,1.721a25.415,25.415,0,0,0,9.039-5.113c2.6-2.332,4.368-5.331,4.22-8.47-.084-3.146-2.066-5.364-5.441-6.011a11.719,11.719,0,0,0-5.195.246,14.95,14.95,0,0,0-4.905,2.568A17.9,17.9,0,0,0,348.888,102a17.22,17.22,0,0,0,1.518,11.812,21.368,21.368,0,0,0,8.552,8.889,22.146,22.146,0,0,0,11.767,2.739,26.781,26.781,0,0,0,11.571-3.164,19.956,19.956,0,0,0,4.618-3.255,7.8,7.8,0,0,0,2.343-3.818,3.333,3.333,0,0,0-.947-3.073,6.918,6.918,0,0,0-3.828-1.686,9.652,9.652,0,0,0-4.506.383,14.432,14.432,0,0,0-4.2,2.3,17.472,17.472,0,0,0-6.4,16.207,22.328,22.328,0,0,0,7.574,13.417,26.7,26.7,0,0,0,10.886,5.434c6.724,1.564,10.759.79,10.811,1.356" transform="translate(242.877 56.568)" fill="#e0e0e0"/>
                <rect id="Rectángulo_278182" data-name="Rectángulo 278182" width="58.036" height="115.041" transform="translate(944.606 106.304)" fill="#f5f5f5"/>
                <rect id="Rectángulo_278183" data-name="Rectángulo 278183" width="62.708" height="115.041" transform="translate(1004.874 106.304)" fill="#f5f5f5"/>
                <rect id="Rectángulo_278184" data-name="Rectángulo 278184" width="62.708" height="111.154" transform="translate(1004.874 229.383)" fill="#f5f5f5"/>
                <path id="Trazado_560651" data-name="Trazado 560651" d="M617.035,104.315h66.038V2.264h2.233V104.315h53.741V0H617.035Z" transform="translate(458.584 0)" fill="#f5f5f5"/>
                <rect id="Rectángulo_278185" data-name="Rectángulo 278185" width="53.743" height="115.041" transform="translate(1143.888 106.304)" fill="#f5f5f5"/>
                <rect id="Rectángulo_278186" data-name="Rectángulo 278186" width="53.743" height="111.154" transform="translate(1143.888 229.383)" fill="#f5f5f5"/>
                <rect id="Rectángulo_278187" data-name="Rectángulo 278187" width="58.036" height="111.154" transform="translate(944.606 229.383)" fill="#f5f5f5"/>
                <rect id="Rectángulo_278188" data-name="Rectángulo 278188" width="66.038" height="111.154" transform="translate(1075.619 229.383)" fill="#f5f5f5"/>
                <rect id="Rectángulo_278189" data-name="Rectángulo 278189" width="58.036" height="100.163" transform="translate(944.606 342.528)" fill="#f5f5f5"/>
                <rect id="Rectángulo_278190" data-name="Rectángulo 278190" width="53.743" height="100.163" transform="translate(1143.888 342.528)" fill="#f5f5f5"/>
                <path id="Trazado_560652" data-name="Trazado 560652" d="M599.916,104.315V2.264h2.231V104.315h62.708V0H541.879V104.315Z" transform="translate(402.727 0)" fill="#f5f5f5"/>
                <rect id="Rectángulo_278191" data-name="Rectángulo 278191" width="66.038" height="100.163" transform="translate(1075.619 342.528)" fill="#f5f5f5"/>
                <rect id="Rectángulo_278192" data-name="Rectángulo 278192" width="62.708" height="100.163" transform="translate(1004.874 342.528)" fill="#f5f5f5"/>
                <rect id="Rectángulo_278193" data-name="Rectángulo 278193" width="66.038" height="115.041" transform="translate(1075.619 106.304)" fill="#f5f5f5"/>
              </g>
            </g>
          </g>
          <g id="Grupo_721316" data-name="Grupo 721316" transform="translate(0 9.931)">
            <path id="Trazado_560653" data-name="Trazado 560653" d="M-16192.351-10070.38s158.984-126.318,358.218-145.353,218.378,66.726,299.13,113.469,123.576,40.792,123.576,40.792v265.889h-1241.366l-.951-351.067s21.275,68.293,42.975,75.477c5.354,1.773,4.564,93,43.611,147.709,37.9,53.106,120.469,74.786,168.943,73.866,51.051-.97,129.6-34.172,168.1-88.639C-16190.947-9993.67-16192.351-10070.38-16192.351-10070.38Z" transform="translate(16831.426 22242.652)" fill="#13a0ff" opacity="0.12"/>
            <path id="Trazado_560654" data-name="Trazado 560654" d="M-16654.777-9856.1l.469,56.52h1239.531v-89.21s-81.977,32.751-187.087,21.568-176.465-42.747-312.08-48.139-394.042,77.45-471.778,83.7C-16570.816-9816.787-16654.777-9856.1-16654.777-9856.1Z" transform="translate(16834.777 22246.652)" fill="#147dc4" opacity="0.11"/>
          </g>
        </g>
      </g>
      <g id="Grupo_721239" data-name="Grupo 721239" transform="translate(0 32)">
        <text id="_" data-name="?!" transform="translate(-2660 325.815) rotate(-6.968)" fill="#12263f" font-size="95" font-family="SegoeUI, Segoe UI"><tspan x="0" y="0">?!</tspan></text>
        <g id="Grupo_721238" data-name="Grupo 721238" transform="translate(-1290.807 -290.999)">
          <path id="Trazado_558501" data-name="Trazado 558501" d="M304.188,11.779a14.544,14.544,0,0,1,14.905-7.6A19.982,19.982,0,0,1,343.5,4.142a18.149,18.149,0,0,1,17.375-.686,17.789,17.789,0,0,1,9.514,14.4,15.187,15.187,0,0,1,15.548,7.372,14.857,14.857,0,0,1-2.171,16.926,14.5,14.5,0,0,1,9.8,16.095c-1.329,6.738-8.289,11.9-15.2,11.27l-71.2-41.415a14.235,14.235,0,0,1-2.983-16.327" transform="translate(-1932.319 487.172)" fill="#263238"/>
          <path id="Trazado_558502" data-name="Trazado 558502" d="M418.35,64.537c-3.158-30.823-29.709-54.075-61.009-53.436l-3.111.063c-33.5,2.622-49.958,32.239-46.383,65.3l7.158,110.415,4.886,13.805L377.6,272.242l14.545-64.463.277-29.929s32.138-5.618,31.872-37.524c-.128-15.41-3-47.12-5.941-75.79" transform="translate(-1970.198 494.077)" fill="#ffc09d"/>
          <path id="Trazado_558503" data-name="Trazado 558503" d="M369.219,118.281s-20.254,1.548-42.186-11.47c0,0,10.353,22.815,42.152,19.384Z" transform="translate(-1947.038 553.693)" fill="#ff9b6c"/>
          <path id="Trazado_558504" data-name="Trazado 558504" d="M324.847,63.209A4.575,4.575,0,0,1,320.5,67.9a4.391,4.391,0,0,1-4.831-4.01,4.577,4.577,0,0,1,4.338-4.69,4.394,4.394,0,0,1,4.836,4.013" transform="translate(-1884.227 524.03)" fill="#263238"/>
          <path id="Trazado_558505" data-name="Trazado 558505" d="M333.012,56.492c-.558.605-4.1-1.878-9.052-1.764-4.95.044-8.533,2.64-9.081,2.051-.269-.261.289-1.345,1.848-2.517a12.711,12.711,0,0,1,7.255-2.377,12.228,12.228,0,0,1,7.22,2.145c1.548,1.126,2.085,2.191,1.809,2.462" transform="translate(-1891.069 519.484)" fill="#263238"/>
          <path id="Trazado_558506" data-name="Trazado 558506" d="M352.177,64.727a4.574,4.574,0,0,1-4.343,4.685A4.389,4.389,0,0,1,343,65.4a4.579,4.579,0,0,1,4.339-4.69,4.394,4.394,0,0,1,4.834,4.015" transform="translate(-1955.909 524.974)" fill="#263238"/>
          <path id="Trazado_558507" data-name="Trazado 558507" d="M362.227,56.664c-.56.609-4.1-1.874-9.054-1.762-4.948.045-8.533,2.642-9.083,2.05-.269-.258.284-1.342,1.85-2.517a12.738,12.738,0,0,1,7.254-2.374,12.206,12.206,0,0,1,7.221,2.145c1.543,1.123,2.084,2.188,1.811,2.459" transform="translate(-1967.688 519.593)" fill="#263238"/>
          <path id="Trazado_558508" data-name="Trazado 558508" d="M328.982,92.738c-.029-.279,3.039-.868,8.015-1.6,1.263-.154,2.454-.427,2.65-1.287.279-.91-.279-2.248-.922-3.693q-1.879-4.5-3.939-9.454c-5.479-13.464-9.471-24.546-8.921-24.759s5.436,10.525,10.912,23.991q1.982,4.98,3.784,9.514c.508,1.413,1.365,3.01.758,4.9a3.16,3.16,0,0,1-2.041,1.873,8.624,8.624,0,0,1-2.142.339c-5.016.37-8.129.456-8.155.179" transform="translate(-1917.371 519.519)" fill="#263238"/>
          <path id="Trazado_558509" data-name="Trazado 558509" d="M364.294,48.018c-.563,1.284-4.852.229-10.035.419-5.185.073-9.475,1.347-10.035.091-.245-.6.6-1.777,2.394-2.9a15.588,15.588,0,0,1,7.648-2.163,15.018,15.018,0,0,1,7.643,1.775c1.793,1.03,2.634,2.165,2.386,2.777" transform="translate(-1969.984 514.238)" fill="#263238"/>
          <path id="Trazado_558510" data-name="Trazado 558510" d="M332.547,48.081c-.751,1.2-4.266.393-8.354.755-4.1.221-7.463,1.514-8.379.437-.407-.527.021-1.693,1.422-2.9a12.252,12.252,0,0,1,13.484-.959c1.561.992,2.154,2.084,1.827,2.663" transform="translate(-1892.009 514.474)" fill="#263238"/>
          <path id="Trazado_558511" data-name="Trazado 558511" d="M428.452,51.49s-8.917-19.8-18.748-24.264c-11.9-5.4-16.708,7.5-28,4.623s-22.658-8.065-33.955.761c-12.366,9.659-6.344,16.136-6.824,30.3-1.952,57.449-12.2,73.891-15.778,46.925-.391-2.955-8.745-5.141-10.237-17.625-1.933-16.191-2.973-35.877.445-47.465,2.884-9.766,8.335-16.585,18.206-24.181C349.141,8.576,370.875,7.882,385.67,9.052s43.606,17.4,42.782,42.438" transform="translate(-1983.704 492.557)" fill="#263238"/>
          <path id="Trazado_558512" data-name="Trazado 558512" d="M396.271,73.592a8.72,8.72,0,0,0-9.62-8.151c-6,.688-12.619,4.2-11.965,16.489,1.157,21.793,23.028,16.147,23.034,15.519,0-.425-.881-14.742-1.449-23.857" transform="translate(-2052.797 527.892)" fill="#ffc09d"/>
          <path id="Trazado_558513" data-name="Trazado 558513" d="M388.131,86.78c-.1-.065-.37.286-1,.613a3.868,3.868,0,0,1-2.864.208c-2.372-.724-4.524-4.278-4.841-8.2a12.45,12.45,0,0,1,.785-5.49c.587-1.631,1.571-2.8,2.731-3.065a1.962,1.962,0,0,1,2.319.923c.328.594.211,1.035.329,1.068.065.052.453-.391.229-1.282a2.428,2.428,0,0,0-.94-1.319,2.928,2.928,0,0,0-2.152-.445c-1.691.2-3.137,1.831-3.827,3.588a12.778,12.778,0,0,0-1.008,6.142c.375,4.385,2.864,8.375,6.1,9.12a4.149,4.149,0,0,0,3.478-.758c.654-.574.743-1.068.665-1.1" transform="translate(-2048.437 530.611)" fill="#ff9b6c"/>
          <path id="Trazado_558514" data-name="Trazado 558514" d="M344.266,69.527c2.9,1.874,5.967,3.807,9.424,4.075s7.358-1.774,7.869-5.167c.23-1.522-.182-3.276.8-4.469,1.173-1.425,3.4-1.032,5.253-.876a14.055,14.055,0,0,0,14.393-10.277c1.684,2.389,5.5,2.205,7.937.578s3.977-4.242,5.868-6.475,4.565-4.25,7.486-3.9c1.634.2,3.179,1.125,4.815.948,2.89-.313,4.232-3.7,4.61-6.548s.651-6.175,3.07-7.77c2.241-1.478,5.2-.711,7.874-.376s6.1-.354,6.728-2.945a5.145,5.145,0,0,0-1.069-3.937,14.364,14.364,0,0,0-16.958-5A19.425,19.425,0,0,0,376.748,14.4,20.129,20.129,0,0,0,359.095,10.2,19.906,19.906,0,0,0,345.51,22.122a14.662,14.662,0,0,0-14.763,5.3,14.308,14.308,0,0,0-.855,15.516c-3.914,2.321-7.225,6.285-7.213,10.8s4.55,8.922,8.927,7.643a8.046,8.046,0,0,0,3.322,10.185,8.226,8.226,0,0,0,10.47-2.684" transform="translate(-2001.24 489.696)" fill="#263238"/>
          <path id="Trazado_558515" data-name="Trazado 558515" d="M364.7,39.37c-.078-.057-.368,1.84,1.461,4.164a7.1,7.1,0,0,0,4.471,2.515,7.682,7.682,0,0,0,6.245-1.934l-.935-.12a21.82,21.82,0,0,0,4.511,5.349,12.688,12.688,0,0,0,4.068,2.389,9.855,9.855,0,0,0,10.728-3.421,12.523,12.523,0,0,0,1.689-4.575,4.233,4.233,0,0,0,.133-1.766c-.1-.018-.269.584-.613,1.649a14.6,14.6,0,0,1-1.949,4.19c-2.024,3.169-8.8,4.906-13.237.576a21.938,21.938,0,0,1-4.3-5.011l-.4-.635-.534.516a6.748,6.748,0,0,1-5.279,1.783,6.521,6.521,0,0,1-4.033-2c-1.809-1.951-1.834-3.731-2.025-3.671" transform="translate(-2035.948 511.689)" fill="#455a64"/>
          <path id="Trazado_558516" data-name="Trazado 558516" d="M323.144,11.491c-.011.076.578.141,1.571.534a7.555,7.555,0,0,1,3.483,2.809l.273.411.3-.411a27.351,27.351,0,0,1,10.477-8.755,21.608,21.608,0,0,1,8.638-2.061,18.315,18.315,0,0,1,15.052,7.548,14.669,14.669,0,0,1,2.561,6.525l.084.688.664-.195a12.484,12.484,0,0,1,9.182.917,11.986,11.986,0,0,1,5.122,5.211c1.858,3.8,1.284,6.467,1.509,6.431a4.416,4.416,0,0,0,.229-1.788,12.027,12.027,0,0,0-1.1-4.945,12.45,12.45,0,0,0-5.294-5.763,13.364,13.364,0,0,0-9.983-1.173l.748.493a15.64,15.64,0,0,0-2.7-7.1,19.292,19.292,0,0,0-16.1-8.06,22.29,22.29,0,0,0-9.089,2.285A26.7,26.7,0,0,0,328.2,14.452l.568,0a7.5,7.5,0,0,0-3.931-2.767,3.364,3.364,0,0,0-1.691-.193" transform="translate(-1953.791 488.911)" fill="#455a64"/>
          <path id="Trazado_558517" data-name="Trazado 558517" d="M332.616,81.81s-6.358,13.138,7.257,16.293a6.638,6.638,0,0,0,7.845-4.743l1.879-7.152c-.639.172-16.981-4.4-16.981-4.4" transform="translate(-1934.069 538.122)" fill="#ff9b6c"/>
          <path id="Trazado_558518" data-name="Trazado 558518" d="M344.057,98.263c-.019-.073-.638.089-1.764.164a11.8,11.8,0,0,1-4.667-.7,10.211,10.211,0,0,1-6.485-12.444,9.893,9.893,0,0,1,1.392-3.077l-.456.166c5.261,1.334,9.907,2.475,13.242,3.254l3.934.881a5.361,5.361,0,0,0,1.451.217,5.485,5.485,0,0,0-1.381-.51l-3.872-1.125c-3.294-.922-7.906-2.16-13.148-3.523l-.289-.075-.167.24a10.517,10.517,0,0,0-1.522,3.336,11.233,11.233,0,0,0,1.3,8.8,11.13,11.13,0,0,0,10.7,4.878,4.637,4.637,0,0,0,1.732-.49" transform="translate(-1933.251 537.926)" fill="#263238"/>
          <path id="Trazado_558519" data-name="Trazado 558519" d="M235.422,142.437s23.063,12.351,27.758,44.692C267.212,214.91,291.5,363.852,291.5,363.852l21.661,91.678H257.034L226.511,292.824Z" transform="translate(-1727.849 575.881)" fill="#c2b5ff"/>
          <path id="Trazado_558520" data-name="Trazado 558520" d="M450.517,472.063,418.969,186.377l-27.52-62.984-9.208-6.378-6.653,28.04-8.9,31.711-24.344-30.588-38.439-29.8-.886,14.7-18.459,53.963,15.3,140.827V471.758Z" transform="translate(-1959.406 559.654)" fill="#fff"/>
          <path id="Trazado_558521" data-name="Trazado 558521" d="M342.383,448.072a3.941,3.941,0,0,1-.076-.758c-.028-.558-.063-1.3-.11-2.226-.075-2.025-.18-4.9-.316-8.563-.255-7.5-.622-18.247-1.071-31.494-.933-26.593-2.41-63.32-4.526-103.862s-4.487-77.24-6.334-103.786c-.933-13.221-1.689-23.943-2.217-31.434-.248-3.659-.443-6.527-.579-8.549-.052-.93-.092-1.667-.123-2.225a3.817,3.817,0,0,1,0-.761,3.882,3.882,0,0,1,.118.751c.058.557.135,1.29.234,2.217.187,2.019.45,4.88.789,8.533.667,7.413,1.551,18.145,2.572,31.413,2.05,26.534,4.537,63.221,6.663,103.785s3.468,77.292,4.2,103.895c.367,13.3.607,24.066.716,31.508.045,3.668.081,6.542.105,8.568v2.228a3.8,3.8,0,0,1-.039.761" transform="translate(-1920.208 583.339)" fill="#263238"/>
          <path id="Trazado_558522" data-name="Trazado 558522" d="M408.268,315.645l-44.2-136.815,78.2-42.032,16.337-17.685s3.474,73.4,4.02,92.836,9.107,93.129,12.927,137.948c2.04,23.944.729,63.94-.467,86.484C473.714,462.239,474,470.786,474,470.786l-76.509-.424L422.8,369.619Z" transform="translate(-2114.544 561.354)" fill="#c2b5ff"/>
          <path id="Trazado_558523" data-name="Trazado 558523" d="M283.742,136.776l53.312,20.5,8.271,198.241,20.588,115.157-58.8,1.1c-.545-14.039-15.506-131-15.506-131l-19.644-183.05L256.63,118.612Z" transform="translate(-1829.483 561.042)" fill="#c2b5ff"/>
          <path id="Trazado_558524" data-name="Trazado 558524" d="M298.447,129.134a8.848,8.848,0,0,1,.979,1.089q1,1.207,2.7,3.27c2.384,2.952,5.766,7.145,10.011,12.406l.214.265-.277.209c-2.533,1.9-5.394,4.054-8.482,6.373l-.118-.693,9.956,3.117.313.1,0,.329c-.19,17.56-.427,39.669-.686,63.635-.43,29.254-.821,55.73-1.105,75-.193,9.527-.352,17.268-.462,22.726-.078,2.614-.14,4.679-.183,6.178-.031.652-.055,1.18-.076,1.607a2,2,0,0,1-.063.547,2.041,2.041,0,0,1-.05-.549c-.01-.427-.021-.956-.036-1.607-.007-1.5-.016-3.567-.028-6.181.026-5.459.062-13.2.107-22.731.2-19.272.474-45.75.777-75,.344-23.965.66-46.073.912-63.633l.31.427-9.927-3.2-.738-.239.622-.458,8.559-6.274-.063.472-9.764-12.6c-1.078-1.423-1.926-2.546-2.558-3.379a8.742,8.742,0,0,1-.832-1.2" transform="translate(-1845.165 567.595)" fill="#263238"/>
          <path id="Trazado_558525" data-name="Trazado 558525" d="M402.463,323.985a2.284,2.284,0,0,1-.209-.527c-.136-.415-.307-.933-.519-1.574-.48-1.465-1.144-3.487-1.985-6.051-1.741-5.248-4.328-12.823-7.645-22.142-1.685-4.659-3.526-9.751-5.5-15.215a181.827,181.827,0,0,1-5.594-17.747,397.424,397.424,0,0,1-7.819-41.836c-2.7-19.466-4.447-37.818-5.511-53.608l-.015-.224.162-.154,8.578-8.185.042.67-8.134-6.124-.318-.239.235-.315,14.686-19.7c1.714-2.257,3.064-4.038,4.041-5.323.438-.558.79-1.008,1.074-1.368a2.264,2.264,0,0,1,.4-.443,2.407,2.407,0,0,1-.3.511l-.982,1.433c-.935,1.316-2.227,3.139-3.867,5.449l-14.394,19.913-.084-.552c2.567,1.9,5.284,3.906,8.187,6.053l.417.31-.375.362-8.523,8.244.146-.377c1.155,15.749,2.953,34.087,5.649,53.517a413.229,413.229,0,0,0,7.71,41.738q2.451,9.484,5.467,17.687l5.375,15.269c3.224,9.357,5.7,16.975,7.314,22.268.808,2.647,1.4,4.713,1.785,6.118.167.654.3,1.181.412,1.607a1.987,1.987,0,0,1,.1.558" transform="translate(-2046.226 564.321)" fill="#263238"/>
          <g id="Grupo_720927" data-name="Grupo 720927" transform="translate(-1706.276 962.782)" opacity="0.3">
            <g id="Grupo_720926" data-name="Grupo 720926">
              <g id="Grupo_720925" data-name="Grupo 720925" clip-path="url(#clip-path-4)">
                <path id="Trazado_558526" data-name="Trazado 558526" d="M364.719,320.093l42.349,16.436,2.824-9.338,20.976,17.315,1.152-25.828-18.437-25.6L367.82,307.752Z" transform="translate(-364.72 -293.081)"/>
              </g>
            </g>
          </g>
          <path id="Trazado_558527" data-name="Trazado 558527" d="M374.736,360.758a15.932,15.932,0,0,1-7.58-12.984,143.644,143.644,0,0,1,1.292-22.124c3.023-24.938,36.471-169.738,36.471-169.738L454.2,268.757,439.96,317.885l72.588,34.394-20.209,56.439s-96.449-34.926-117.6-47.96" transform="translate(-2155.392 584.273)" fill="#c2b5ff"/>
          <path id="Trazado_558528" data-name="Trazado 558528" d="M402.309,176.478a6.138,6.138,0,0,1,.461,1.266c.287.954.656,2.176,1.112,3.684.958,3.349,2.278,7.961,3.895,13.6,3.239,11.5,7.682,27.395,12.2,45.059s8.086,33.8,10.334,45.531c1.128,5.866,1.977,10.626,2.488,13.927.237,1.558.427,2.817.576,3.8a6.113,6.113,0,0,1,.127,1.339,6.011,6.011,0,0,1-.349-1.3c-.2-.975-.463-2.223-.782-3.765-.7-3.408-1.66-8.1-2.835-13.849-2.446-11.683-6.139-27.756-10.646-45.414s-8.831-33.574-11.876-45.125c-1.472-5.678-2.678-10.323-3.551-13.693-.372-1.532-.672-2.77-.907-3.739a6.055,6.055,0,0,1-.243-1.324" transform="translate(-2133.472 597.081)" fill="#263238"/>
          <path id="Trazado_558529" data-name="Trazado 558529" d="M366.679,311.008a1.971,1.971,0,0,1,.472.133l1.357.479,5.229,1.939,19.506,7.415,67.2,25.9-.7.318c4.223-11.814,8.8-24.613,13.534-37.87,2.266-6.322,4.494-12.541,6.657-18.576l.282.678-71.746-34.277.05.02a41.992,41.992,0,0,0-29.485,1.235,53.342,53.342,0,0,0-7.278,3.788l-1.793,1.167a3.562,3.562,0,0,1-.633.37,3.635,3.635,0,0,1,.566-.461l1.735-1.263a48.151,48.151,0,0,1,7.23-4,42.148,42.148,0,0,1,12.653-3.374,43.236,43.236,0,0,1,17.246,1.788l.026.008.026.013,71.884,33.994.449.213-.167.466c-2.158,6.037-4.383,12.255-6.645,18.579-4.755,13.252-9.342,26.044-13.58,37.853l-.187.519-.514-.2L393,321.6l-19.393-7.7-5.162-2.1-1.324-.563a1.945,1.945,0,0,1-.438-.221" transform="translate(-2123.298 645.616)" fill="#263238"/>
          <path id="Trazado_558530" data-name="Trazado 558530" d="M399.084,167.143a15.052,15.052,0,0,1-2.043-1.831l-5.412-5.324-18.276-18.476.794-.026a22.2,22.2,0,0,0-4.714,9.923,21.916,21.916,0,0,0-.451,5.8l.073,1.25-.972-.781c-9.245-7.415-16.733-14.688-22.336-19.654-2.78-2.506-5.032-4.5-6.6-5.85a21.12,21.12,0,0,1-2.374-2.165,17.633,17.633,0,0,1,2.632,1.857c1.65,1.261,3.984,3.171,6.834,5.608,5.74,4.823,13.341,12.015,22.531,19.341l-.9.469a22.652,22.652,0,0,1,.463-6.1,23,23,0,0,1,4.993-10.409l.389-.448.4.42c7.147,7.447,13.39,13.95,18,18.751l5.185,5.548a15.123,15.123,0,0,1,1.779,2.093" transform="translate(-1992.709 568.141)" fill="#263238"/>
          <path id="Trazado_558531" data-name="Trazado 558531" d="M344.522,127.992a6.188,6.188,0,0,1,.089,1.7c-.01,1.105-.067,2.717-.224,4.743a98.568,98.568,0,0,1-2.708,16.308l-.339,1.339-.639-1.232a39.839,39.839,0,0,0-7.082-9.672c-.81-.813-1.646-1.582-2.459-2.277l.905-.3a149.869,149.869,0,0,1-6.61,21.6c-1.047,2.66-1.967,4.768-2.642,6.2a10.659,10.659,0,0,1-1.154,2.175,11.527,11.527,0,0,1,.774-2.332c.618-1.684,1.391-3.792,2.314-6.3a186.056,186.056,0,0,0,6.228-21.582l.2-.9.708.6c.839.711,1.7,1.5,2.533,2.338a39.445,39.445,0,0,1,7.221,9.979l-.977.105a120.169,120.169,0,0,0,3.083-16.113c.488-4.013.643-6.389.777-6.382" transform="translate(-1913.694 566.884)" fill="#263238"/>
          <g id="Grupo_720930" data-name="Grupo 720930" transform="translate(-1533.953 723.188)" opacity="0.3">
            <g id="Grupo_720929" data-name="Grupo 720929">
              <g id="Grupo_720928" data-name="Grupo 720928" clip-path="url(#clip-path-5)">
                <path id="Trazado_558532" data-name="Trazado 558532" d="M297.054,145.438l6.076,8.289s-1.7,125.694-8.15,156.9Z" transform="translate(-294.98 -145.438)"/>
              </g>
            </g>
          </g>
          <path id="Trazado_558533" data-name="Trazado 558533" d="M279.812,437.308a3.608,3.608,0,0,0-.075-.6c-.075-.433-.174-1.013-.3-1.754-.289-1.581-.7-3.843-1.229-6.743-1.113-5.9-2.712-14.4-4.7-24.936l-16.051-83.621.008.084c.05-4.434.1-9.133.156-13.893.359-36.9.682-70.293.917-94.517.078-12.061.14-21.835.182-28.641,0-3.348,0-5.964.007-7.788-.008-.858-.015-1.529-.019-2.025a4.017,4.017,0,0,0-.036-.69,4.292,4.292,0,0,0-.05.691c-.016.495-.037,1.167-.065,2.025-.039,1.824-.094,4.438-.164,7.786-.107,6.806-.261,16.58-.451,28.641-.3,24.22-.711,57.614-1.165,94.509-.052,4.758-.1,9.458-.151,13.89v.044l.008.042c6.452,33.045,12.187,62.415,16.319,83.569,2.093,10.521,3.778,19,4.95,24.887.592,2.889,1.055,5.141,1.378,6.715.159.735.284,1.31.376,1.738a3.535,3.535,0,0,0,.154.586" transform="translate(-1743.379 594.408)" fill="#263238"/>
          <path id="Trazado_558534" data-name="Trazado 558534" d="M249.381,260.45c.026.252,4.222-.11,9.372.258,5.154.339,9.26,1.271,9.32,1.026.067-.2-4.015-1.522-9.261-1.869-5.243-.372-9.467.375-9.43.586" transform="translate(-1719.877 648.951)" fill="#263238"/>
          <path id="Trazado_558535" data-name="Trazado 558535" d="M321.464,279.239s40.925,8.541,47.008,9.871,30.106,19.367,32.487,20.7,9.321,5.738,9.321,5.738-4.472,7.333-12.408,4.67a42.656,42.656,0,0,1-13.166-7.208l16.926,15.439,19.266,11.77a5.688,5.688,0,0,1,2.412,6.972,3.344,3.344,0,0,1-4.038,2.136c-5.475-.974-23.242-7.9-23.242-7.9s-.834,10.722-10.62,12.054c0,0-2.1,9.211-10.618,7.247,0,0-8.374,6.855-15.788,2.939s-26.663-11.788-30.63-19.774a118.459,118.459,0,0,0-8.992-14.909l-14.824-2.572Z" transform="translate(-1965.069 661.081)" fill="#ffc09d"/>
          <path id="Trazado_558536" data-name="Trazado 558536" d="M342.867,322.29c-.138.287-5.256-1.774-11.23-5.079-6-3.291-10.235-6.967-10.008-7.234s4.691,2.88,10.618,6.129c5.91,3.27,10.785,5.845,10.62,6.185" transform="translate(-1911.906 680.214)" fill="#ff9b6c"/>
          <path id="Trazado_558537" data-name="Trazado 558537" d="M327.623,316.594c.187-.328,5.255,2.517,11.069,6.6s10.581,7.269,10.42,7.561c-.177.32-5.3-2.426-11.129-6.517s-10.517-7.367-10.36-7.648" transform="translate(-1927.887 684.33)" fill="#ff9b6c"/>
          <path id="Trazado_558538" data-name="Trazado 558538" d="M334.721,321.658c.234-.229,3.942,2.89,8.924,6.258,4.961,3.4,8.924,6.311,8.711,6.619-.182.266-4.424-2.154-9.425-5.579-5.036-3.4-8.481-7.041-8.21-7.3" transform="translate(-1942.634 687.492)" fill="#ff9b6c"/>
          <path id="Trazado_558539" data-name="Trazado 558539" d="M328.16,289.6c.029-.143,1.715.036,4.291.931a32.783,32.783,0,0,1,9.253,5.2,43.5,43.5,0,0,1,7.432,7.577c1.646,2.163,2.467,3.635,2.337,3.728-.336.273-4.19-5.256-10.543-10.308-6.334-5.151-12.89-6.767-12.77-7.132" transform="translate(-1931.132 667.506)" fill="#ff9b6c"/>
          <path id="Trazado_558540" data-name="Trazado 558540" d="M457.414,206.312c-.226,1.861,16.788,48.069,16.788,48.069L497.944,168.2l32.836,6.869s-8.9,119.094-14.662,135.2c-6.149,17.19-42.1,30.04-62.191,6.74-5.751-6.668-24.105-49.224-24.105-49.224Z" transform="translate(-2275.404 591.923)" fill="#a26760"/>
          <path id="Trazado_558541" data-name="Trazado 558541" d="M397.821,191.122s-3.989-10.681-.828-19.925,13.886-16.4,13.219-21.953,5.029-18.85,10.165-17.8,8.932,6.06,4.589,14.605a109.885,109.885,0,0,0-6.856,17.375s53.476-27.565,57.845-28.162,8.736-1.2,9.868,2.249-9.542,7.859-9.542,7.859l-14.354,18.508s-3.8,11.64-9.979,19.9-18.323,13.787-18.323,13.787l-15.593,18.57s-23.644-7.994-20.212-25.009" transform="translate(-2175.281 568.996)" fill="#a26760"/>
          <path id="Trazado_558542" data-name="Trazado 558542" d="M428.172,141.31c-.088.078-.474-.313-1.314-.711a6.449,6.449,0,0,0-3.8-.459c-3.242.584-7.376,3.353-10.766,7.236a56.052,56.052,0,0,0-7.225,11.257c-1.582,3.08-2.587,4.995-2.781,4.909-.175-.078.485-2.126,1.842-5.344a44.112,44.112,0,0,1,7.054-11.775c3.583-4.073,7.981-6.89,11.743-7.3a6.355,6.355,0,0,1,4.223.992c.849.609,1.09,1.151,1.024,1.2" transform="translate(-2128.077 573.793)" fill="#7b4b45"/>
          <path id="Trazado_558543" data-name="Trazado 558543" d="M430.474,144.74c.2.351-3.246,2.679-7.7,5.2s-8.228,4.291-8.43,3.942,3.246-2.676,7.7-5.2,8.228-4.291,8.429-3.942" transform="translate(-2149.978 577.288)" fill="#7b4b45"/>
          <path id="Trazado_558544" data-name="Trazado 558544" d="M421.867,152.393c-.172-.341,4.039-1.759,8.99-.083,4.971,1.621,7.463,5.268,7.118,5.436-.318.3-3.062-2.6-7.585-4.059-4.494-1.542-8.453-.867-8.523-1.295" transform="translate(-2169.713 581.53)" fill="#7b4b45"/>
          <path id="Trazado_558545" data-name="Trazado 558545" d="M602.737,144.139l-18.529-8.007-63.75,1.658-23.925,10.06L491.7,209.062s90.658,32.26,91.018,32.26,53.96-52.595,53.96-52.595Z" transform="translate(-2481.718 571.954)" fill="#a26760"/>
          <path id="Trazado_558546" data-name="Trazado 558546" d="M646.44,166.85c-.667.477-6.97,2-15.116,3.818a143.779,143.779,0,0,1-78.511-4.474l-24.566-8.533s-40.491,81.135-41.3,83.939,35.285,205.32,35.285,205.32h144.33l-3.525-116.389s2.429-106.957,2.025-108.16S646.44,166.85,646.44,166.85" transform="translate(-2503.866 585.363)" fill="#d3ebff"/>
          <path id="Trazado_558547" data-name="Trazado 558547" d="M434,131.481l18.734,13.227c14.409,4.573,40.02,13.32,47.791,21.01,11.739,11.618,27.128,89.694,27.128,89.694s2.694-6.7,8.815-6.7l41.941,65.819s-4.253,34.387-14.373,37.991-37.956,1.624-38.361,1.624H508.266l6.434,108.94-33.827.143-1.348-121.1-6.311-75.486-17.476-70.3Z" transform="translate(-2329.807 569.057)" fill="#455a64"/>
          <path id="Trazado_558548" data-name="Trazado 558548" d="M477.847,181.073a8.536,8.536,0,0,0-.131,1.472q-.071,1.58-.19,4.226c-.149,3.669-.294,8.982-.409,15.55-.232,13.133-.238,31.284.359,51.319s1.7,38.163,2.725,51.259c.508,6.548.97,11.843,1.342,15.5q.277,2.634.443,4.206a8.4,8.4,0,0,0,.219,1.461,8.573,8.573,0,0,0-.028-1.477c-.065-1.053-.152-2.457-.263-4.221-.252-3.76-.6-9.036-1.039-15.514-.847-13.1-1.835-31.215-2.442-51.24s-.7-38.157-.638-51.285c.044-6.493.08-11.78.1-15.548,0-1.767.008-3.174.01-4.229a8.588,8.588,0,0,0-.062-1.477" transform="translate(-2303.36 599.943)" fill="#263238"/>
          <path id="Trazado_558549" data-name="Trazado 558549" d="M476.742,184.547c.258.06,1.441-3.963,2.645-8.985s1.97-9.146,1.712-9.206-1.441,3.963-2.645,8.987-1.97,9.144-1.712,9.2" transform="translate(-2301.835 590.777)" fill="#263238"/>
          <g id="Grupo_720933" data-name="Grupo 720933" transform="translate(-1826.602 784.382)" opacity="0.3">
            <g id="Grupo_720932" data-name="Grupo 720932">
              <g id="Grupo_720931" data-name="Grupo 720931" clip-path="url(#clip-path-6)">
                <path id="Trazado_558550" data-name="Trazado 558550" d="M475.972,183.147q.265,1.285.524,2.572c8.515,42.513,9.041,93.241,3.6,136.247-1.624.216-7.486-132.26-3.945-137.962" transform="translate(-475.032 -183.147)"/>
              </g>
            </g>
          </g>
          <path id="Trazado_558551" data-name="Trazado 558551" d="M610.995,180.534c4.119-16.712,13.77-24.667,13.77-24.667l42.126,54.747-15.85,237.281H590.163l6.968-120.465s9.745-130.184,13.864-146.9" transform="translate(-2671.717 584.245)" fill="#455a64"/>
          <path id="Trazado_558552" data-name="Trazado 558552" d="M558.046,189.669l-8.257-10.362s16.723-17.374,41.071-26.578c11.881-4.492,30.061-12.694,30.061-12.694l13.064-16.1,3.163,46.5s2.308,102.739,3.934,121.356c1.556,17.827,20.358,99.379,20.113,176.136l-91.112-.148,20.261-119.362s-8.284-76.075-8.8-78.557-23.5-80.192-23.5-80.192" transform="translate(-2600.505 564.356)" fill="#455a64"/>
          <path id="Trazado_558553" data-name="Trazado 558553" d="M597.5,164.047c-.2.17,6.4,8.112,14.74,17.737s15.269,17.291,15.47,17.121-6.4-8.111-14.743-17.739-15.266-17.289-15.467-17.119" transform="translate(-2644.452 589.338)" fill="#263238"/>
          <path id="Trazado_558554" data-name="Trazado 558554" d="M503,204.565a3.137,3.137,0,0,0,.146-.8c.07-.617.159-1.386.268-2.33.209-2.15.5-5.1.858-8.766l-.5.166a134.552,134.552,0,0,1,15.77,22.2l1.011,1.788-.169-2.043a139.983,139.983,0,0,0-3.051-19.964c-3.679-16.106-10.512-29.593-15.916-38.881-2.7-4.672-5.058-8.344-6.7-10.871-.8-1.185-1.441-2.139-1.939-2.88a5.69,5.69,0,0,0-.732-.969,5.794,5.794,0,0,0,.568,1.071l1.787,2.975c1.547,2.583,3.815,6.3,6.43,11,5.24,9.351,11.923,22.784,15.572,38.762a144.923,144.923,0,0,1,3.087,19.826l.842-.255A126.181,126.181,0,0,0,504.2,192.459l-.458-.5-.045.667c-.247,3.674-.446,6.631-.592,8.787-.047.949-.086,1.722-.118,2.342a3.106,3.106,0,0,0,.013.811" transform="translate(-2366.13 575.123)" fill="#263238"/>
          <path id="Trazado_558555" data-name="Trazado 558555" d="M473.012,298.97a4.253,4.253,0,0,0-.354-.9c-.3-.657-.688-1.49-1.159-2.514-.523-1.082-1.147-2.411-1.8-3.987s-1.485-3.33-2.23-5.344c-.789-2-1.647-4.184-2.439-6.579-.868-2.369-1.62-4.958-2.45-7.668a153.429,153.429,0,0,1-5.954-36.321c-.076-2.835-.193-5.529-.125-8.051-.013-2.523.1-4.87.213-7.014.065-2.145.281-4.075.411-5.776s.287-3.161.438-4.354c.122-1.12.221-2.03.3-2.751a4.2,4.2,0,0,0,.047-.969,4.118,4.118,0,0,0-.216.943c-.12.716-.271,1.621-.456,2.734-.2,1.188-.417,2.645-.581,4.347s-.435,3.635-.537,5.789c-.151,2.149-.3,4.5-.318,7.04-.1,2.533-.008,5.242.047,8.091a145.533,145.533,0,0,0,5.987,36.508c.854,2.72,1.634,5.313,2.536,7.682.824,2.4,1.719,4.583,2.546,6.572.782,2.007,1.646,3.757,2.353,5.313s1.368,2.876,1.938,3.937c.531,1,.961,1.806,1.3,2.447a4.126,4.126,0,0,0,.5.826" transform="translate(-2259.72 615.929)" fill="#263238"/>
          <path id="Trazado_558556" data-name="Trazado 558556" d="M563.38,133.857a7.905,7.905,0,0,0-.1,1.34q-.039,1.434-.106,3.843c-.054,3.424-.128,8.232-.219,14.138-.133,11.939-.269,28.431-.19,46.649.044,4.085.088,8.08.13,11.957.039,1.939.081,3.844.175,5.725.026.472.053.938.1,1.417l.052.372a1.779,1.779,0,0,0,.058.234.87.87,0,0,0,.06.123l.02.031a.469.469,0,0,0,.114.1.464.464,0,0,0,.243.073,1.216,1.216,0,0,0,.208-.052,2.927,2.927,0,0,0,.687-.49c.7-.636,1.327-1.295,1.951-1.951,4.907-5.289,9.14-10.3,12.812-14.621l-.561-.161c1.12,7.041,2.035,12.791,2.684,16.872.328,1.933.587,3.47.779,4.6.091.479.166.871.227,1.194a1.435,1.435,0,0,0,.109.4,1.355,1.355,0,0,0-.014-.417c-.037-.328-.081-.725-.135-1.209q-.226-1.709-.61-4.628c-.581-4.089-1.4-9.855-2.4-16.913l-.1-.695-.464.534c-3.715,4.266-7.994,9.26-12.9,14.493-.617.644-1.25,1.3-1.908,1.894a4.647,4.647,0,0,1-.419.329c0-.068.068.125.049.3-.041.174.174-.1.331-.083l-.023-.105-.042-.315c-.045-.443-.072-.907-.094-1.371-.088-1.858-.125-3.765-.159-5.7-.037-3.872-.076-7.864-.115-11.944-.023-18.177-.044-34.631-.058-46.643-.021-5.905-.037-10.715-.05-14.139q-.032-2.412-.052-3.844a8.081,8.081,0,0,0-.075-1.34" transform="translate(-2542.963 570.537)" fill="#263238"/>
          <path id="Trazado_558557" data-name="Trazado 558557" d="M607.638,193.05a2.707,2.707,0,0,0-.006.553c.015.407.036.944.062,1.624.075,1.477.18,3.57.315,6.249.313,5.482.761,13.344,1.316,23.081,1.194,19.584,2.848,46.695,4.7,77.026l0-.1c-.446,2.572-.923,5.321-1.4,8.095-5.47,31.812-10.42,60.605-14.013,81.5-1.746,10.4-3.163,18.831-4.151,24.715-.466,2.884-.829,5.141-1.086,6.727-.11.737-.2,1.316-.261,1.754a3.125,3.125,0,0,0-.062.6,3.243,3.243,0,0,0,.146-.587c.086-.433.2-1.009.344-1.74.294-1.579.711-3.828,1.243-6.7,1.052-5.873,2.558-14.289,4.416-24.67,3.655-20.885,8.692-49.664,14.256-81.46.481-2.773.956-5.522,1.4-8.095l.01-.05,0-.049c-1.955-30.327-3.7-57.431-4.964-77.012-.665-9.729-1.2-17.585-1.577-23.063-.2-2.674-.357-4.766-.467-6.24-.058-.678-.105-1.214-.141-1.62a2.8,2.8,0,0,0-.076-.548" transform="translate(-2624.372 607.403)" fill="#263238"/>
          <path id="Trazado_558558" data-name="Trazado 558558" d="M550.869,37.577c14.493.31,26.937,21.624,24.783,33.629-1.047,5.832-3.71,12.523,1.058,16.841,4.719,4.273,14.649,3.908,19.149,8.314,0,0,5.764,5.673,5.138,13.036s.584,17.158,6.506,19.767l-29.42,10.443c-3.041-3.04-4.255-7.832-7.294-10.871,3.478,3.186,6.853,14.552-8.893,15.839l-9.8-8.541c-26.773,6.825-54.9,15.308-76.3,3.8" transform="translate(-2426.742 510.574)" fill="#263238"/>
          <path id="Trazado_558559" data-name="Trazado 558559" d="M502.361,115.95c1.931-5.513,5.1-10.6,6.436-16.286,2.871-12.22-2.916-26.137,3.3-37.073,4.422-7.785,13.614-11.472,22.284-13.945s16.955-3.939,23.5-10.087c4.8-4.511,7.6-10.788,12.382-15.314,6.817-6.449,16.747-8.5,26.169-8.9,9.677-.417,19.654.68,28.271,5.057s15.694,12.432,17.07,21.918c.672,4.627.013,9.45,1.4,13.917,1.527,4.912,5.334,8.779,7.64,13.383,4.873,9.73,1.9,22.662-6.744,29.35l-67.9,83.642c-14.036,4.963-29.319-12.679-39.91-23.058s-38.777-28.662-33.9-42.6" transform="translate(-2514.577 496.052)" fill="#263238"/>
          <path id="Trazado_558560" data-name="Trazado 558560" d="M610.738,74.878c-2.385-19.306-16.773-42.328-36.164-39.15L514.551,54.513c-5.891.966-9.044,5.629-8.577,11.52l12.377,143.386c-.141.041,1.5,2.3,1.357,2.342,0,0,16.226,40.234,55.782,25.45,7.843-2.932,11.4-.214,12.471-9.193,1.714-.672,9.876-3.5,9.833-4.51L587,191.3c-.558-11.746-.9-15.313-.889-15.2,0,0,24.774-4.661,28.037-37.264,1.624-16.213-.758-42.5-3.408-63.955" transform="translate(-2482.807 509.238)" fill="#a26760"/>
          <path id="Trazado_558561" data-name="Trazado 558561" d="M545.882,78.21a4.162,4.162,0,0,1-3.788,4.414,4,4,0,0,1-4.537-3.483,4.164,4.164,0,0,1,3.783-4.417,4,4,0,0,1,4.542,3.486" transform="translate(-2465.327 533.692)" fill="#263238"/>
          <path id="Trazado_558562" data-name="Trazado 558562" d="M520.163,77.55a4.163,4.163,0,0,1-3.789,4.414,4,4,0,0,1-4.536-3.484,4.164,4.164,0,0,1,3.783-4.416,4.005,4.005,0,0,1,4.542,3.486" transform="translate(-2397.872 533.281)" fill="#263238"/>
          <path id="Trazado_558563" data-name="Trazado 558563" d="M528.684,70c-.467.75-4.315-1.753-9.2-1.138-4.886.534-8.067,3.864-8.692,3.242-.3-.273.1-1.572,1.477-3.07A11.191,11.191,0,0,1,526.55,67.35c1.688,1.139,2.368,2.309,2.134,2.647" transform="translate(-2404.603 527.977)" fill="#263238"/>
          <path id="Trazado_558564" data-name="Trazado 558564" d="M557.473,72.8c-.587.686-4.365-2.129-9.605-2-5.24.047-9.008,2.989-9.6,2.322-.287-.3.285-1.524,1.933-2.854a12.784,12.784,0,0,1,7.658-2.694,12.453,12.453,0,0,1,7.668,2.434c1.646,1.277,2.23,2.485,1.942,2.793" transform="translate(-2478.045 529.255)" fill="#263238"/>
          <path id="Trazado_558565" data-name="Trazado 558565" d="M524.731,103.926c-.036-.252,2.736-.894,7.239-1.732,1.142-.185,2.218-.474,2.366-1.263.222-.839-.331-2.037-.967-3.33q-1.87-4.036-3.917-8.469c-5.458-12.066-9.48-22.015-8.987-22.227s5.316,9.394,10.774,21.46c1.318,2.978,2.577,5.815,3.776,8.531.513,1.267,1.349,2.691.863,4.432a2.885,2.885,0,0,1-1.793,1.775,7.92,7.92,0,0,1-1.938.381c-4.552.51-7.384.695-7.416.441" transform="translate(-2427.678 528.837)" fill="#263238"/>
          <path id="Trazado_558566" data-name="Trazado 558566" d="M567.642,125.564a83.938,83.938,0,0,1-44.4-9s12.385,23.013,44.875,18.089Z" transform="translate(-2464.341 559.77)" fill="#7b4b45"/>
          <path id="Trazado_558567" data-name="Trazado 558567" d="M558.771,62.542c-.372,1.238-4.9.925-10.151,1.865-5.268.833-9.438,2.611-10.2,1.564-.344-.5.331-1.684,1.985-2.958A18.105,18.105,0,0,1,555.909,60.4c1.986.66,3.02,1.556,2.863,2.142" transform="translate(-2479.498 524.336)" fill="#263238"/>
          <path id="Trazado_558568" data-name="Trazado 558568" d="M529.1,59.951c-.846,1.065-4.455.221-8.723.42-4.271.068-7.835,1.138-8.729.128-.4-.493.114-1.54,1.634-2.592a13.476,13.476,0,0,1,6.989-2.071,13.322,13.322,0,0,1,7.072,1.629c1.569.953,2.126,1.967,1.756,2.485" transform="translate(-2406.418 521.942)" fill="#263238"/>
          <path id="Trazado_558569" data-name="Trazado 558569" d="M543.05,97.456c3.088-5.639-2.863-11.929,1.868-17.132,4.317-4.747,15.691-4.914,19.745-9.75,3.166-3.776,3.3-4.773,3.4-8.314.131-4.435,2.155-23.075,29.644-26.861l3.815,16.936c1.715-.8,3.5-1.485,5.253-2.121A303.2,303.2,0,0,1,676.2,34.027c2.855,4.852.016,11.335-4.489,14.75s-10.232,4.693-15.58,6.564S645.279,60.146,643,65.285c-2.428,5.467-.581,12.023-2.728,17.6-3.694,9.6-17.377,12.474-21.015,22.1-2.752,7.277,1.392,15.147,2.325,22.862a28.183,28.183,0,0,1-8.932,23.852c-5.174,4.692-13.969,13.2-14.576,11.494l-73.587-45.544c-4.224-10.219,14.339-12.474,18.566-20.193" transform="translate(-2574.58 508.363)" fill="#263238"/>
          <path id="Trazado_558570" data-name="Trazado 558570" d="M488.476,122.427a4.027,4.027,0,0,0,.753.38,15.579,15.579,0,0,0,2.269.854,21.506,21.506,0,0,0,8.877.633,22.24,22.24,0,0,0,11.911-5.493,19.76,19.76,0,0,0,4.578-6.316,22.387,22.387,0,0,0,1.9-8.129,20.578,20.578,0,0,0-16.648-21.387,20.37,20.37,0,0,0-8.893.166,16.242,16.242,0,0,0-2.306.753,4.037,4.037,0,0,0-.769.346,4.1,4.1,0,0,0,.815-.222,20.914,20.914,0,0,1,22.1,5.8,20.479,20.479,0,0,1,5.039,14.516,21.938,21.938,0,0,1-1.826,7.893,19.3,19.3,0,0,1-4.4,6.139,22.207,22.207,0,0,1-20.3,5.053,20.324,20.324,0,0,1-2.288-.729,4.047,4.047,0,0,0-.8-.26" transform="translate(-2358.587 538.59)" fill="#e0e0e0"/>
          <path id="Trazado_558571" data-name="Trazado 558571" d="M520.857,142.894a3.261,3.261,0,0,0-.18-.5,9.453,9.453,0,0,1-.506-1.462,12.952,12.952,0,0,1-.244-5.875,14.484,14.484,0,0,1,4.434-8.077,12.442,12.442,0,0,1,5.086-2.79c2.012-.565,4.261-.75,6.525-1.522a8.847,8.847,0,0,0,3.171-1.832,8.6,8.6,0,0,0,2.118-3.168,18.8,18.8,0,0,0,.949-7.893,42.876,42.876,0,0,1-.107-8.387,10.728,10.728,0,0,1,1.383-4.054,10.063,10.063,0,0,1,3.1-3.111c2.554-1.641,5.686-2.369,8.82-3.137s6.473-1.519,9.368-3.435a11.165,11.165,0,0,0,3.559-3.758,15.69,15.69,0,0,0,1.723-4.928c.665-3.432.665-6.96,1.319-10.4a20.169,20.169,0,0,1,12.681-14.9c3.106-1.212,6.441-1.287,9.68-1.6a22.774,22.774,0,0,0,4.792-.889,10.032,10.032,0,0,0,4.138-2.416c2.295-2.3,3.087-5.376,4.086-8.057a20.253,20.253,0,0,1,4.228-7.157,21.5,21.5,0,0,1,13.211-6.7,19.57,19.57,0,0,1,12.025,2.572,22.175,22.175,0,0,1,6.91,6.329,20.067,20.067,0,0,1,2.655,5.313c.245.638.32,1.157.43,1.491a3.067,3.067,0,0,0,.156.508,14.29,14.29,0,0,0-.459-2.038,19.273,19.273,0,0,0-2.569-5.417,22.2,22.2,0,0,0-6.936-6.5,19.9,19.9,0,0,0-12.262-2.718,21.964,21.964,0,0,0-13.563,6.791,20.752,20.752,0,0,0-4.369,7.327c-1.013,2.708-1.822,5.7-3.971,7.828-2.14,2.16-5.393,2.822-8.565,3.109-3.192.31-6.618.375-9.845,1.628a20.791,20.791,0,0,0-13.1,15.379c-.667,3.523-.667,7.053-1.316,10.4a15.112,15.112,0,0,1-1.645,4.732,10.511,10.511,0,0,1-3.358,3.549c-5.608,3.609-12.742,3.16-18.158,6.6a10.642,10.642,0,0,0-3.28,3.311,11.282,11.282,0,0,0-1.448,4.276,43.032,43.032,0,0,0,.136,8.5,18.358,18.358,0,0,1-.876,7.681,8.133,8.133,0,0,1-1.98,3,8.352,8.352,0,0,1-2.992,1.749c-2.178.763-4.43.967-6.483,1.558a12.821,12.821,0,0,0-5.222,2.923,14.646,14.646,0,0,0-4.435,8.3,12.73,12.73,0,0,0,.367,5.954,8.136,8.136,0,0,0,.574,1.452,2.982,2.982,0,0,0,.24.472" transform="translate(-2536.506 503.527)" fill="#455a64"/>
          <path id="Trazado_558573" data-name="Trazado 558573" d="M565.339,112.182c.081-.973-13.128,2.67-31.8-5.126-8.9-3.894,17.244,7.243,23,6.93,5.8-.447,8.85-1.581,8.8-1.8" transform="translate(-2452.879 542.081)" fill="#263238"/>
          <path id="Trazado_558574" data-name="Trazado 558574" d="M199.111,256.778l-22.453-6.472L148.8,239.783,126.692,227.8s-1.931-1.91.779-4.294,14.735,4.273,14.735,4.273l9.519,3.549s8.026.662,7.578-.092-12.9-6.772-12.9-6.772L125.16,212.9s-5.995-3.1-4.135-7.074c.886-1.891,3.095-3.012,7.173-1.446s10.5,5.6,12.8,6.54,15.425,6.839,15.425,6.839l-27.187-18.63s-8.862-5.282-6.022-9.02,8.237.383,11.34,1.582,20.17,12.1,26.818,15.128c5.7,2.595,4.33.438,4.33.438l-16.144-9.972c-7.118-4.4-12.522-8.761-7.885-11.653,3.023-1.886,16.673,5.4,16.673,5.4L178.5,202.286l9.605,4.248-8.005-7.17a27.224,27.224,0,0,1-8.755-10.9c-2.807-6.934,2.876-7.165,2.876-7.165l32.884,22.492c5.117,4.471,11.147,25.989,11.147,25.989l63.434,25.369-26.325,38.517Z" transform="translate(-1524.618 600.083)" fill="#ffc09d"/>
          <path id="Trazado_558575" data-name="Trazado 558575" d="M180.192,196.362a4.694,4.694,0,0,0-.987,1.147,21.087,21.087,0,0,0-2.058,3.575,24.158,24.158,0,0,0,3.526,25.728,21.3,21.3,0,0,0,2.937,2.9,4.711,4.711,0,0,0,1.256.844c.1-.12-1.629-1.412-3.728-4.114a24.995,24.995,0,0,1-3.444-25.116c1.3-3.164,2.627-4.87,2.5-4.959" transform="translate(-1515.877 609.464)" fill="#ff9b6c"/>
          <path id="Trazado_558576" data-name="Trazado 558576" d="M70.218,213.895c-.5-2.309-2.854-3.669-4.805-5.065a23.405,23.405,0,0,1-9.4-22.305,23.93,23.93,0,0,1,16.017-18.412c2.032-.659,4.224-1.086,5.892-2.4,4.151-3.26,2.816-9.639,4.395-14.6,3.34-10.512,18.719-12.583,24.23-22.192,3.359-5.86,2.236-13.047,1.939-19.751s.992-14.524,6.96-17.875c3.212-1.8,7.218-1.918,10.353-3.844,6.468-3.973,6.194-13.01,8.585-20.089,3.765-11.15,16.6-18.617,28.438-16.549,0,0-4.713-10.1,7.767-15.271,15.066-6.236,16.028,4.318,22.967-2.257,7.374-6.989,20-7.867,28.3-1.968,2.585,1.839,4.771,4.236,7.6,5.688,3.457,1.774,7.5,1.962,11.319,2.785,14.545,3.137,25.871,16.942,25.819,31.474L171.427,233.242c-3.3,15.407,6.342,22.31-7.15,30.958-2.832,1.814-23.1,7.17-26.437,7.736-4.164.7-14.174,1.061-18.036-.607-8.387-3.622-21.03-9.115-24.383-17.44-9.018,3.939-20.558,1.347-26.885-6.037a22.494,22.494,0,0,1-1.319-26.878c1.524-2.175,3.556-4.5,3-7.079" transform="translate(-1404.162 504.241)" fill="#263238"/>
          <path id="Trazado_558577" data-name="Trazado 558577" d="M177.5,81.15l1.319-11.1-67.21-19C90.713,46.93,65.858,65.459,62.491,86c-3.741,22.817-7.384,50.816-6.28,68.2,2.22,34.954,28.853,41.829,28.853,41.829l-6.157,59.443,1.055,15.287L146.474,212.6Z" transform="translate(-1316.819 518.604)" fill="#ffc09d"/>
          <path id="Trazado_558578" data-name="Trazado 558578" d="M117.952,91.368a4.453,4.453,0,0,0,3.929,4.857,4.343,4.343,0,0,0,5.058-3.551,4.453,4.453,0,0,0-3.922-4.86,4.348,4.348,0,0,0-5.065,3.554" transform="translate(-1365.438 541.829)" fill="#263238"/>
          <path id="Trazado_558579" data-name="Trazado 558579" d="M112.985,83.29c.506.626,4.182-1.534,9.052-1.073,4.873.394,8.21,3.168,8.8,2.634.286-.232-.185-1.324-1.633-2.575a12.636,12.636,0,0,0-6.972-2.82,12.241,12.241,0,0,0-7.273,1.573c-1.611.983-2.22,1.978-1.97,2.262" transform="translate(-1361.286 536.626)" fill="#263238"/>
          <path id="Trazado_558580" data-name="Trazado 558580" d="M90.5,93.991a4.455,4.455,0,0,0,3.93,4.857A4.343,4.343,0,0,0,99.484,95.3a4.454,4.454,0,0,0-3.922-4.86A4.351,4.351,0,0,0,90.5,93.991" transform="translate(-1293.428 543.463)" fill="#263238"/>
          <path id="Trazado_558581" data-name="Trazado 558581" d="M83.521,86.555c.506.626,4.184-1.532,9.052-1.071,4.873.393,8.21,3.166,8.8,2.634.284-.234-.18-1.326-1.634-2.575a12.607,12.607,0,0,0-6.97-2.82,12.239,12.239,0,0,0-7.275,1.571c-1.6.983-2.218,1.98-1.968,2.262" transform="translate(-1284.008 538.66)" fill="#263238"/>
          <path id="Trazado_558582" data-name="Trazado 558582" d="M115.849,120.9c.05-.268-2.931-1.056-7.778-2.121-1.232-.24-2.387-.591-2.515-1.438-.206-.9.443-2.165,1.186-3.521q2.186-4.243,4.588-8.9c6.405-12.687,11.168-23.164,10.642-23.411s-6.144,9.836-12.547,22.524q-2.325,4.7-4.44,8.971c-.607,1.336-1.571,2.825-1.115,4.7a3.088,3.088,0,0,0,1.873,1.964,8.687,8.687,0,0,0,2.085.48c4.914.714,7.976,1.017,8.022.75" transform="translate(-1337.487 537.931)" fill="#263238"/>
          <path id="Trazado_558583" data-name="Trazado 558583" d="M84.171,143.253s24.824,3.724,49.713-7.9c0,0-14.5,24.194-50.739,17.676Z" transform="translate(-1315.92 571.466)" fill="#ff9b6c"/>
          <path id="Trazado_558584" data-name="Trazado 558584" d="M80.593,74.586c.354,1.336,5.279,1.172,10.931,2.369,5.675,1.089,10.125,3.145,11,2.056.393-.523-.29-1.811-2.032-3.236a18.827,18.827,0,0,0-7.952-3.567,19.108,19.108,0,0,0-8.755.195c-2.179.631-3.336,1.55-3.19,2.183" transform="translate(-1280.505 531.888)" fill="#263238"/>
          <path id="Trazado_558585" data-name="Trazado 558585" d="M111.847,75.036c.751,1.157,4.219.347,8.26.665,4.054.182,7.384,1.412,8.283.355.4-.516-.034-1.647-1.428-2.806a12.251,12.251,0,0,0-13.328-.824c-1.535.979-2.113,2.048-1.787,2.609" transform="translate(-1357.003 531.29)" fill="#263238"/>
          <path id="Trazado_558586" data-name="Trazado 558586" d="M28.7,63.652A60.933,60.933,0,0,1,62.049,45.275l56.9,9,15.18,9.342c1.254-3.289,2.059-5.337,2.059-5.337,5.586-3.591,20.785-10.832,33.1,2.251,4.443,4.719,7.712,16.926,7.483,23.2-.086,2.373-.485,5.25,1.59,6.641a7.743,7.743,0,0,0,2.5.886c14.406,3.544,23.944,18.912,20.006,32.235a6.712,6.712,0,0,0-.458,2.679c.18,1.423,1.357,2.527,2.364,3.611a21.937,21.937,0,0,1,2.616,26.16c-1.559,2.5-3.668,4.818-4.313,7.64-1.157,5.053,2.621,9.756,5.508,14.159,8.654,13.2,9.661,31.909-1.933,43.128-2.819,2.728-6.389,5.118-7.583,8.719a20.161,20.161,0,0,0-.61,5.472c-.428,9.315-6.3,19.516-16.256,21.075-5.526.865-12.088-.833-16.178,2.721-1.782,1.548-2.619,3.78-3.807,5.754-4.533,7.535-15.3,11.295-24.05,8.4s-14.427-12.1-12.681-20.558c-10.568-4.055-17.583-14.847-16.512-25.4,0,0,6.248-32.536,3.538-41.529s4.695-27.6,8.83-36.606.94-30.517.42-39.033a28.609,28.609,0,0,1,1.149-7.223l0,.006.01-.024c.51-2.045,1.157-4.344,1.905-6.808a60.546,60.546,0,0,0,.571-6.824c.292-8.02-8.119-14.122-16.478-11.9a22.956,22.956,0,0,1-6.222.772,22.419,22.419,0,0,1-17.267-8.471c-8.174,7.33-20.89,9.987-31.627,6.6-4.727,5.522-9.531,11.115-15.654,15.306s-13.826,6.89-21.328,5.8A52.858,52.858,0,0,1,28.7,63.652" transform="translate(-1284.355 515.368)" fill="#263238"/>
          <path id="Trazado_558587" data-name="Trazado 558587" d="M70.557,75.391c.1,0,0-1.259.3-3.507a21.989,21.989,0,0,1,3.375-8.972,20.968,20.968,0,0,1,11.41-8.68A22.6,22.6,0,0,1,103.4,56.111l.406.234L104.12,56a32.68,32.68,0,0,1,8.127-6.3,33.928,33.928,0,0,1,21.512-3.75,32.8,32.8,0,0,1,16.15,7.7,34.012,34.012,0,0,1,7.543,9.445c1.327,2.541,1.809,4.067,1.923,4.028a4.3,4.3,0,0,0-.289-1.123,24.384,24.384,0,0,0-1.227-3.1,32.3,32.3,0,0,0-7.393-9.844,33.1,33.1,0,0,0-16.522-8.135,34.677,34.677,0,0,0-22.265,3.791,33.456,33.456,0,0,0-8.414,6.553l.721-.109A23.5,23.5,0,0,0,85.332,53.3a21.5,21.5,0,0,0-11.738,9.23,21.187,21.187,0,0,0-3.142,9.312,15.014,15.014,0,0,0-.028,2.644,3.036,3.036,0,0,0,.131.907" transform="translate(-1320.704 514.841)" fill="#455a64"/>
          <path id="Trazado_558588" data-name="Trazado 558588" d="M96.023,116.2c.031-.274-5.414.016-13.658-2.332a54.3,54.3,0,0,1-27.195-17.9L53.96,94.424l-.169-.214-.263-.021a30.818,30.818,0,0,1-16.064-6.173,32.467,32.467,0,0,1-9.157-10.547c-3.815-7.1-3.4-12.324-3.728-12.239a2.7,2.7,0,0,0-.045.9,18.185,18.185,0,0,0,.167,2.584,27.449,27.449,0,0,0,2.887,9.119,32.348,32.348,0,0,0,9.226,11,31.411,31.411,0,0,0,16.632,6.49l-.432-.235c.391.5.811,1.039,1.237,1.581a51.637,51.637,0,0,0,13.917,12.085,53.349,53.349,0,0,0,13.972,5.891,49.638,49.638,0,0,0,10.125,1.608c1.207.086,2.152.028,2.788.029a3.121,3.121,0,0,0,.97-.08" transform="translate(-1182.943 527.795)" fill="#455a64"/>
          <path id="Trazado_558589" data-name="Trazado 558589" d="M92.523,212.71a17.45,17.45,0,0,1-2.1,1.5,11.92,11.92,0,0,1-2.887,1.133,12.894,12.894,0,0,1-4.2.258,11.541,11.541,0,0,1-4.938-1.654,10.147,10.147,0,0,1-2.267-1.907,10.031,10.031,0,0,1-1.654-2.713,11.728,11.728,0,0,1-.527-6.9,10.9,10.9,0,0,1,4.162-6.446l.623-.443-.768,0a23.7,23.7,0,0,1-11.861-3.414A31.624,31.624,0,0,1,56.3,182.5c-.706-.977-1.258-2.063-1.879-3.117-.521-1.107-1.121-2.191-1.547-3.362a33.987,33.987,0,0,1-2.089-7.277,55,55,0,0,1-.331-15.777c.9-8.164,3.027-15.9,4.956-23.1l.055-.2-.177-.123A58.024,58.024,0,0,1,36.9,108.721,61.443,61.443,0,0,1,32.356,97.7c-.454-1.8-1.03-3.5-1.3-5.191q-.243-1.261-.479-2.467c-.156-.8-.208-1.6-.313-2.373a57.485,57.485,0,0,1,.044-14.584c.179-1.7.527-2.979.656-3.866q.11-.623.175-1a1.845,1.845,0,0,0,.042-.344s-.511,1.8-1.081,5.182a55.725,55.725,0,0,0-.222,14.656c.1.777.146,1.582.3,2.392s.307,1.639.464,2.486c.256,1.707.824,3.423,1.271,5.237a61.223,61.223,0,0,0,4.521,11.129,58.278,58.278,0,0,0,18.513,21.075l-.123-.328c-1.942,7.208-4.083,14.964-4.993,23.195a55.4,55.4,0,0,0,.346,15.951,34.6,34.6,0,0,0,2.134,7.393c.435,1.19,1.047,2.293,1.579,3.416.633,1.071,1.2,2.173,1.917,3.166a32.144,32.144,0,0,0,10.019,9.75,24.173,24.173,0,0,0,12.148,3.439l-.144-.446a11.354,11.354,0,0,0-4.315,6.753,12.1,12.1,0,0,0,.6,7.15,9.867,9.867,0,0,0,4.109,4.756,11.754,11.754,0,0,0,5.091,1.642,12.9,12.9,0,0,0,4.281-.328,11.567,11.567,0,0,0,2.908-1.214,8.674,8.674,0,0,0,1.553-1.157c.32-.3.469-.464.469-.464" transform="translate(-1187.52 529.447)" fill="#455a64"/>
          <path id="Trazado_558590" data-name="Trazado 558590" d="M147.036,233.8a2.243,2.243,0,0,0-.342-.239c-.255-.162-.6-.38-1.032-.656a18.021,18.021,0,0,1-1.649-1.115,26.42,26.42,0,0,1-2.158-1.66,38.767,38.767,0,0,1-13.779-25.394,34.988,34.988,0,0,1,1.3-13.9,38.519,38.519,0,0,1,7.45-13.731,37.586,37.586,0,0,1,13.565-10.266l.409-.183-.315-.313a34.632,34.632,0,0,1-9.454-17.7,32.982,32.982,0,0,1-.691-6.626,31,31,0,0,1,.6-6.516,30.408,30.408,0,0,1,1.848-6.141,33.049,33.049,0,0,1,2.921-5.56A35.274,35.274,0,0,1,163.817,109.6l.3-.1-.135-.277a31.2,31.2,0,0,1-2.043-21.346,30.5,30.5,0,0,1,8.615-14.383,32.148,32.148,0,0,1,9.136-6.076c1.17-.511,2.089-.858,2.72-1.061l.709-.245a1.151,1.151,0,0,0,.235-.1,23.082,23.082,0,0,0-3.732,1.248,31.452,31.452,0,0,0-9.291,6,30.639,30.639,0,0,0-8.831,14.5,31.56,31.56,0,0,0,1.983,21.7l.161-.378a35.763,35.763,0,0,0-18.45,14.4,33.6,33.6,0,0,0-2.981,5.654,31.159,31.159,0,0,0-1.891,6.256,31.706,31.706,0,0,0-.613,6.636,33.687,33.687,0,0,0,.7,6.746,35.188,35.188,0,0,0,9.638,18.016l.092-.5a38.09,38.09,0,0,0-13.769,10.454,38.924,38.924,0,0,0-7.515,13.953,35.355,35.355,0,0,0-1.254,14.1A38.711,38.711,0,0,0,141.716,230.3a25.312,25.312,0,0,0,2.2,1.628A16.484,16.484,0,0,0,145.6,233l1.063.61a2.4,2.4,0,0,0,.37.19" transform="translate(-1437.164 528.283)" fill="#455a64"/>
          <path id="Trazado_558591" data-name="Trazado 558591" d="M112.061,110.862a57.349,57.349,0,0,0-13.24,3.6l-.042.114c.4,3.064,1.175,6.441,3.765,8.166a6.633,6.633,0,0,0,6.626.222,7.309,7.309,0,0,0,3.866-5.1c.462-2.251-.323-4.851-.974-7" transform="translate(-1320.58 556.216)" fill="#ff9b6c"/>
          <path id="Trazado_558592" data-name="Trazado 558592" d="M105.018,123.593c-.031.079.36.362,1.209.5a5.66,5.66,0,0,0,3.518-.7,7.232,7.232,0,0,0,3.421-4.081,11.124,11.124,0,0,0,.057-6.421,8.664,8.664,0,0,0-.6-1.714,1.406,1.406,0,0,0-1.438-.651c-.4.081-.553.144-.829.214l-2.861.8-4.82,1.446c-2.733.867-4.395,1.5-4.341,1.7s1.816-.07,4.62-.673l4.9-1.134c.951-.235,1.907-.475,2.884-.719l.682-.169c.044.114.041-.289.06-.243.05-.011-.247.237-.159.2a11.861,11.861,0,0,1,.5,6.937,6.456,6.456,0,0,1-2.639,3.593c-2.267,1.509-4.151.858-4.172,1.11" transform="translate(-1320.35 555.983)" fill="#263238"/>
          <path id="Trazado_558593" data-name="Trazado 558593" d="M237.234,455.934H43.726l4.567-77.044,6.85-92.384a94.873,94.873,0,0,1,17.586-48.337l14.711-20.48L105.633,193.3l11.205-21.95,69.47-28.391,8.58,17.711s10.108,7.265,16.593,12.8c12.591,10.751,19.956,24.912,24.154,40.838l.122.467c4.06,15.634.9,38.217.9,38.217l-23.1,111.077a207.852,207.852,0,0,1,17.515,51.162c.987,4.928,4.1,24.6,6.167,40.7" transform="translate(-1355.896 576.208)" fill="#455a64"/>
          <path id="Trazado_558594" data-name="Trazado 558594" d="M80.317,172.722a13.119,13.119,0,0,0,1.59-2.749q1.577-3.181,3.877-7.819l-.975-.018c2.1,5.157,4.7,11.567,7.614,18.738l.281.688.7-.286,10.986-4.453c11.3-4.615,21.5-8.872,28.853-12.025l8.674-3.807a15.01,15.01,0,0,0,3.1-1.592,15.073,15.073,0,0,0-3.332,1.035l-8.864,3.353c-7.46,2.893-17.724,6.991-29.027,11.6L92.832,179.9l.982.4c-3.07-7.106-5.814-13.46-8.022-18.57L85.3,160.59l-.484,1.126q-2.04,4.759-3.437,8.017a12.9,12.9,0,0,0-1.061,2.989" transform="translate(-1322.447 586.436)" fill="#263238"/>
          <path id="Trazado_558595" data-name="Trazado 558595" d="M69.364,319.668a14.373,14.373,0,0,0,3.338-.6c2.127-.476,5.173-1.287,8.908-2.4a221.262,221.262,0,0,0,28.457-10.751,220.55,220.55,0,0,0,26.687-14.54c3.27-2.1,5.865-3.88,7.606-5.178a14.051,14.051,0,0,0,2.622-2.129,14.241,14.241,0,0,0-2.963,1.631q-3.211,1.94-7.849,4.748a291.938,291.938,0,0,1-26.76,14.065,292.292,292.292,0,0,1-28.138,11.113l-8.734,2.858a14.314,14.314,0,0,0-3.174,1.185" transform="translate(-1306.657 664.083)" fill="#263238"/>
          <g id="Grupo_720936" data-name="Grupo 720936" transform="translate(-1306.266 830.682)" opacity="0.3">
            <g id="Grupo_720935" data-name="Grupo 720935">
              <g id="Grupo_720934" data-name="Grupo 720934" clip-path="url(#clip-path-7)">
                <path id="Trazado_558596" data-name="Trazado 558596" d="M228.514,211.678s-35.659,97.858-47.386,115.584-17.536,22.755-35.439,19.686S49.2,318.054,49.2,318.054l1.149-16.028L123.1,317.407l41.982-8.625,38.332-59.023Z" transform="translate(-49.201 -211.678)"/>
              </g>
            </g>
          </g>
          <path id="Trazado_558597" data-name="Trazado 558597" d="M77.163,280.845l3.96-6.459,19.216,4.568,29.056,6.491s16.871-98.313,41.239-114.08,42.177-12.986,57.173,14.839,6.92,44.038,6.92,44.038S195.939,338.6,170.633,360.716,61.912,341.1,61.912,341.1L45,327.061Z" transform="translate(-1357.035 587.917)" fill="#455a64"/>
          <path id="Trazado_558598" data-name="Trazado 558598" d="M77.286,281.123a5.522,5.522,0,0,0-.594.747c-.4.557-.949,1.306-1.655,2.275l-6.355,8.932L44.762,327.09l-.229.326.308.258c5.1,4.26,10.783,9.007,16.864,14.086l.047.039.052.026a349.333,349.333,0,0,0,44.7,18.169,192.473,192.473,0,0,0,26.877,6.756,99.042,99.042,0,0,0,14.638,1.37,45.262,45.262,0,0,0,15.11-2.1,23.9,23.9,0,0,0,3.62-1.547l1.751-.941c.553-.367,1.076-.785,1.616-1.176a17.472,17.472,0,0,0,2.9-2.692l2.747-2.866c1.7-2.015,3.207-4.2,4.834-6.313,1.6-2.136,2.918-4.461,4.4-6.705a307.933,307.933,0,0,0,15.658-28.975c9.79-20.173,18.735-41.717,27.4-64.01,2.614-6.757,5.157-13.474,7.52-20.022l-.036.083c2.485-6.085,2.522-12.461,1.887-18.6a68.5,68.5,0,0,0-4.812-17.633,88.633,88.633,0,0,0-8.458-15.8,46.218,46.218,0,0,0-12.132-12.771,26.933,26.933,0,0,0-16.6-4.7,43.921,43.921,0,0,0-16.179,4.627c-2.444,1.279-4.873,2.543-7.148,4.01a27.182,27.182,0,0,0-6.365,5.084,63.651,63.651,0,0,0-8.654,13.064,191.36,191.36,0,0,0-10.991,27.273c-2.913,8.934-5.349,17.581-7.455,25.843-4.213,16.528-7.281,31.466-9.558,44.387l.534-.354-29.673-6.506c-8.036-1.848-14.282-3.283-18.656-4.287l-.122-.028-.06.1-2.9,4.893c-.633,1.089-.912,1.652-.912,1.652s.373-.5,1.056-1.561c.706-1.116,1.712-2.707,3.046-4.813l-.182.076c4.359,1.069,10.582,2.6,18.592,4.567l29.619,6.761.451.1.084-.458c2.363-12.867,5.516-27.781,9.8-44.251,2.14-8.234,4.606-16.851,7.541-25.739a191.227,191.227,0,0,1,11-27.046,62.393,62.393,0,0,1,8.482-12.747,25.652,25.652,0,0,1,6.081-4.826c2.248-1.443,4.631-2.674,7.03-3.924a42.542,42.542,0,0,1,15.626-4.453,25.443,25.443,0,0,1,15.688,4.474A44.777,44.777,0,0,1,222.9,179.668a87.242,87.242,0,0,1,8.3,15.535,67.033,67.033,0,0,1,4.695,17.236c.639,5.9.5,12.255-1.746,17.739l-.036.084c-2.356,6.522-4.9,13.239-7.509,19.983-8.658,22.263-17.581,43.785-27.321,63.911a308.09,308.09,0,0,1-15.54,28.857c-1.467,2.222-2.777,4.541-4.346,6.645-1.6,2.079-3.078,4.244-4.739,6.215L172,358.654a16.449,16.449,0,0,1-2.765,2.582c-.5.367-.988.759-1.5,1.105l-1.647.886a22.482,22.482,0,0,1-3.427,1.473,43.921,43.921,0,0,1-14.634,2.055,98.182,98.182,0,0,1-14.428-1.311,192.284,192.284,0,0,1-26.71-6.623,353.143,353.143,0,0,1-44.621-17.9l.1.065L45.41,327l.08.583,23.586-34.254c2.673-3.926,4.734-6.955,6.165-9.058l1.555-2.338a5.627,5.627,0,0,0,.492-.813" transform="translate(-1357.159 587.64)" fill="#263238"/>
          <path id="Trazado_558599" data-name="Trazado 558599" d="M115.584,287.476c.185.008.55-2.893.443-7.614a80.9,80.9,0,0,0-9.367-35.41c-2.243-4.167-4-6.519-4.154-6.421-.211.125,1.2,2.666,3.163,6.9a101.9,101.9,0,0,1,9.255,34.988c.388,4.644.414,7.548.66,7.554" transform="translate(-1329.469 635.415)" fill="#263238"/>
          <path id="Trazado_558600" data-name="Trazado 558600" d="M130.1,295.959a10.338,10.338,0,0,0,2.136-1.934c1.3-1.31,3.122-3.265,5.307-5.741a170.875,170.875,0,0,0,15.589-20.546,107.265,107.265,0,0,0,11.332-23.143,62.055,62.055,0,0,0,2.1-7.522,10.21,10.21,0,0,0,.417-2.835c-.268-.063-1.222,3.888-3.554,9.988a127.5,127.5,0,0,1-11.611,22.687,231.22,231.22,0,0,1-15.118,20.67c-4.137,5.107-6.767,8.223-6.592,8.377" transform="translate(-1425.223 633.054)" fill="#263238"/>
          <path id="Trazado_558601" data-name="Trazado 558601" d="M221.877,265.117l-22.453-6.472-27.857-10.524-22.109-11.988s-1.931-1.91.779-4.294,14.735,4.274,14.735,4.274l9.519,3.547s8.026.662,7.578-.093-12.9-6.772-12.9-6.772l-21.247-11.562s-5.995-3.1-4.135-7.072c.886-1.892,3.095-3.014,7.173-1.448s10.5,5.6,12.8,6.54,15.425,6.838,15.425,6.838L152,207.464s-8.862-5.282-6.022-9.02,8.237.383,11.34,1.582,20.17,12.1,26.818,15.128c5.7,2.595,4.33.44,4.33.44s-9.026-5.578-16.144-9.974-12.522-8.761-7.885-11.652c3.023-1.886,16.673,5.4,16.673,5.4l20.155,11.261,9.607,4.248-8.005-7.17a27.225,27.225,0,0,1-8.755-10.9c-2.807-6.934,2.876-7.165,2.876-7.165l32.884,22.492c5.117,4.471,11.147,25.989,11.147,25.989l63.434,24.436-26.982,39.02Z" transform="translate(-1584.329 605.276)" fill="#ffc09d"/>
          <path id="Trazado_558602" data-name="Trazado 558602" d="M221.921,265.279s.312.232.936.656l2.791,1.871,10.865,7.2c9.515,6.272,23.381,15.413,40.867,26.937l.2.136.141-.2,27.034-38.983.229-.329-.375-.146L241.2,237.928l.227.248c-1.24-4.312-2.673-8.74-4.351-13.219-.857-2.231-1.758-4.481-2.817-6.692A22.378,22.378,0,0,0,230.178,212l-.011-.011-.024-.018L197.266,189.46l-.12-.083-.127.011a4.8,4.8,0,0,0-2.806,1.144,3.955,3.955,0,0,0-1.224,2.829,12.274,12.274,0,0,0,1.719,5.727,27.927,27.927,0,0,0,7.97,9.12l-.041-.032,8,7.17.448-.693-9.605-4.248.036.016L184.479,200.9a91.277,91.277,0,0,0-8.972-4.571c-1.551-.68-3.122-1.329-4.745-1.878a15.783,15.783,0,0,0-5.12-1.045,2.969,2.969,0,0,0-1.318.334,6.787,6.787,0,0,0-1.009.782,2.87,2.87,0,0,0-.938,2.437,4.7,4.7,0,0,0,1.026,2.309,12.494,12.494,0,0,0,1.633,1.772,52.273,52.273,0,0,0,7.632,5.42l15.626,9.652-.133-.131c.6.364-.867.154-1.709-.193a26.748,26.748,0,0,1-2.785-1.188c-1.824-.888-3.612-1.868-5.38-2.866-3.539-2-7.012-4.07-10.47-6.118l-5.182-3.052a55.248,55.248,0,0,0-5.308-2.84c-1.77-.751-3.484-1.819-5.394-2.491a8.15,8.15,0,0,0-3.036-.55A4.067,4.067,0,0,0,146.028,198a3.219,3.219,0,0,0-.855,3.053,6.637,6.637,0,0,0,1.511,2.678,21.635,21.635,0,0,0,4.487,3.815c3.212,2.136,6.331,4.317,9.458,6.444q9.362,6.407,18.386,12.586l.38-.675-12-5.315c-1.981-.907-3.955-1.663-5.8-2.7q-2.807-1.531-5.578-3.044a38.9,38.9,0,0,0-5.763-2.614,8.678,8.678,0,0,0-3.19-.433,4.094,4.094,0,0,0-3.908,4.542,5.3,5.3,0,0,0,1.423,2.864,11.835,11.835,0,0,0,2.366,2c.876.566,1.769.99,2.634,1.477,6.986,3.775,13.708,7.491,20.282,10.967,3.332,1.628,6.6,3.236,9.747,4.917a19.7,19.7,0,0,1,2.181,1.3c.036.008.052.086.023-.079a.2.2,0,0,1,.06-.146c0-.008.013-.011.013-.011a1.2,1.2,0,0,1-.23.06,5.216,5.216,0,0,1-.62.065c-.427.024-.862.028-1.295.024-1.738-.021-3.473-.13-5.177-.26l.083.019L165.122,236l.039.018a53.922,53.922,0,0,0-9.86-4.258,14.608,14.608,0,0,0-2.562-.518,3.642,3.642,0,0,0-2.626.545,4.445,4.445,0,0,0-1.467,2.168,2.774,2.774,0,0,0,.667,2.536l.023.026.039.019,22.13,11.95.015.006.013.007,27.883,10.456.006,0,0,0,16.773,4.756,4.273,1.191c.957.263,1.449.376,1.449.376s-.469-.162-1.417-.45l-4.245-1.264-16.749-4.9.011,0-27.829-10.592.028.011q-10.012-5.45-22.088-12.027l.06.045a2.238,2.238,0,0,1-.514-2.02,3.922,3.922,0,0,1,1.3-1.879,3.152,3.152,0,0,1,2.21-.4,14.075,14.075,0,0,1,2.459.5,53.315,53.315,0,0,1,9.727,4.234l.021.011.019.006,9.514,3.56.041.015.042,0c1.72.133,3.453.247,5.222.273.443,0,.886,0,1.339-.023a5.958,5.958,0,0,0,.7-.071,1.755,1.755,0,0,0,.4-.118.857.857,0,0,0,.151-.107.46.46,0,0,0,.128-.29.409.409,0,0,0-.164-.338,15.288,15.288,0,0,0-2.371-1.469c-3.16-1.7-6.428-3.312-9.761-4.95-6.54-3.476-13.271-7.213-20.243-10.993-.863-.488-1.772-.927-2.575-1.449a11.133,11.133,0,0,1-2.217-1.876,4.6,4.6,0,0,1-1.245-2.476,3.368,3.368,0,0,1,3.249-3.724,8.007,8.007,0,0,1,2.913.409,38.119,38.119,0,0,1,5.631,2.569l5.568,3.049c1.874,1.058,3.921,1.847,5.862,2.741l11.98,5.32.38-.675-18.39-12.614c-3.124-2.129-6.259-4.325-9.45-6.451a20.839,20.839,0,0,1-4.312-3.664,5.88,5.88,0,0,1-1.339-2.342,2.382,2.382,0,0,1,.657-2.306c1.2-1.4,3.281-1.219,5.032-.552,1.814.635,3.481,1.678,5.359,2.48,3.509,1.639,6.913,3.841,10.378,5.844,3.457,2.05,6.931,4.125,10.483,6.133,1.775,1,3.569,1.988,5.428,2.893a27.186,27.186,0,0,0,2.871,1.224,7.722,7.722,0,0,0,1.581.412,1.393,1.393,0,0,0,1.065-.216.771.771,0,0,0,.245-.724,1.378,1.378,0,0,0-.2-.523l-.045-.078-.089-.055-15.624-9.654a51.9,51.9,0,0,1-7.5-5.323,11.688,11.688,0,0,1-1.524-1.654,3.869,3.869,0,0,1-.867-1.894,2.013,2.013,0,0,1,.695-1.753,6,6,0,0,1,.836-.649,2.184,2.184,0,0,1,.938-.222,15.149,15.149,0,0,1,4.805,1c1.585.537,3.14,1.178,4.675,1.852a90.53,90.53,0,0,1,8.908,4.537l17.036,9.514.018.01.018.008,9.607,4.245,2.413,1.068-1.965-1.761-8.009-7.168-.01-.01-.031-.023a27.128,27.128,0,0,1-7.713-8.822,11.539,11.539,0,0,1-1.626-5.3,3.11,3.11,0,0,1,.954-2.257,4.017,4.017,0,0,1,2.286-.935l-.247-.07L229.7,212.614l-.036-.029a21.9,21.9,0,0,1,3.9,6.016c1.048,2.179,1.946,4.412,2.8,6.629,1.673,4.446,3.111,8.869,4.348,13.15l.052.182.174.067c23.1,8.877,44.479,17.091,63.453,24.383l-.146-.474L277.311,301.59l.346-.067-41.021-26.758-10.926-7.085-2.822-1.809c-.634-.4-.966-.592-.966-.592" transform="translate(-1584.373 605.115)" fill="#ff9b6c"/>
        </g>
      </g>
      <g id="Grupo_721271" data-name="Grupo 721271" transform="translate(-3095.313 195.008)">
        <path id="Trazado_559055" data-name="Trazado 559055" d="M300.471,0H10.185C4.56,0,0,2.73,0,6.1V65.856c0,3.368,4.56,6.1,10.185,6.1H300.471c5.625,0,10.185-2.73,10.185-6.1V6.1C310.656,2.73,306.1,0,300.471,0Z" transform="translate(86.033 270.009)" fill="#ffd947"/>
        <text id="No_yo_en_cambio_tengo_dos_cámaras_y_creo_que_es_mejor_una_cámara_digital." data-name="No, yo en cambio tengo dos cámaras y creo que es mejor una cámara digital." transform="translate(104.689 284.125)" fill="#12263f" font-size="15" font-family="Roboto-Regular, Roboto"><tspan x="0" y="16">No, yo en cambio tengo dos cámaras y </tspan><tspan x="0" y="38">creo que es mejor una cámara digital.</tspan></text>
      </g>
      <g id="Grupo_721272" data-name="Grupo 721272" transform="translate(-3360.57 292.377)">
        <path id="Trazado_559055-2" data-name="Trazado 559055" d="M300.471,0H10.185C4.56,0,0,2.73,0,6.1V65.856c0,3.368,4.56,6.1,10.185,6.1H300.471c5.625,0,10.185-2.73,10.185-6.1V6.1C310.656,2.73,306.1,0,300.471,0Z" transform="translate(86.033 270.009)" fill="#e8e8e8"/>
        <text id="Yo_considero_que_te_puede_servir_un_teléfono_de_alta_gama." data-name="Yo considero que te puede servir un teléfono de alta gama." transform="translate(104.689 284.125)" fill="#12263f" font-size="15" font-family="Roboto-Regular, Roboto"><tspan x="0" y="16">Yo considero que te puede servir un </tspan><tspan x="0" y="38">teléfono de alta gama.</tspan></text>
      </g>
    </g>
  </g>
</svg>
