<svg xmlns="http://www.w3.org/2000/svg" xmlns:xlink="http://www.w3.org/1999/xlink" width="1240" height="713" viewBox="0 0 1240 713">
  <defs>
    <clipPath id="clip-path">
      <rect id="Rectángulo_278160" data-name="Rectángulo 278160" width="1240" height="713" rx="16" transform="translate(180 11744)" fill="#ff9c8a" opacity="0.61"/>
    </clipPath>
    <clipPath id="clip-path-2">
      <rect id="Rectángulo_278159" data-name="Rectángulo 278159" width="1188" height="576" transform="translate(206 11881)" fill="#ca5cff" opacity="0.3"/>
    </clipPath>
    <clipPath id="clip-path-3">
      <rect id="Rectángulo_278158" data-name="Rectángulo 278158" width="1197.631" height="442.69" fill="none"/>
    </clipPath>
    <clipPath id="clip-path-4">
      <rect id="Rectángulo_277446" data-name="Rectángulo 277446" width="363.976" height="531.591" fill="none"/>
    </clipPath>
    <clipPath id="clip-path-6">
      <rect id="Rectángulo_277443" data-name="Rectángulo 277443" width="65.567" height="50.101" fill="none"/>
    </clipPath>
    <clipPath id="clip-path-7">
      <rect id="Rectángulo_277444" data-name="Rectángulo 277444" width="7.94" height="160.939" fill="none"/>
    </clipPath>
    <clipPath id="clip-path-8">
      <rect id="Rectángulo_277449" data-name="Rectángulo 277449" width="379.425" height="513.108" fill="none"/>
    </clipPath>
    <clipPath id="clip-path-10">
      <rect id="Rectángulo_277447" data-name="Rectángulo 277447" width="183.833" height="139.546" fill="none"/>
    </clipPath>
    <clipPath id="clip-path-11">
      <rect id="Rectángulo_277452" data-name="Rectángulo 277452" width="399.407" height="531.592" fill="none"/>
    </clipPath>
    <clipPath id="clip-path-13">
      <rect id="Rectángulo_277450" data-name="Rectángulo 277450" width="8.771" height="141.377" fill="none"/>
    </clipPath>
  </defs>
  <g id="Grupo_722350" data-name="Grupo 722350" transform="translate(-180 -11750)">
    <g id="Grupo_721991" data-name="Grupo 721991">
      <g id="Enmascarar_grupo_699915" data-name="Enmascarar grupo 699915" transform="translate(0 6)" clip-path="url(#clip-path)">
        <path id="Trazado_560582" data-name="Trazado 560582" d="M16,0H1224a16,16,0,0,1,16,16V697a16,16,0,0,1-16,16H16A16,16,0,0,1,0,697V16A16,16,0,0,1,16,0Z" transform="translate(180 11744)" fill="#e7eff8"/>
        <g id="Enmascarar_grupo_699914" data-name="Enmascarar grupo 699914" opacity="0.76" clip-path="url(#clip-path-2)">
          <g id="Grupo_721310" data-name="Grupo 721310" transform="translate(196.369 11859.247)">
            <rect id="Rectángulo_278125" data-name="Rectángulo 278125" width="58.037" height="115.041" transform="translate(0 106.304)" fill="#f5f5f5"/>
            <rect id="Rectángulo_278126" data-name="Rectángulo 278126" width="62.708" height="115.041" transform="translate(60.268 106.304)" fill="#f5f5f5"/>
            <rect id="Rectángulo_278127" data-name="Rectángulo 278127" width="62.708" height="111.154" transform="translate(60.268 229.383)" fill="#f5f5f5"/>
            <path id="Trazado_560583" data-name="Trazado 560583" d="M75.156,0V104.315h66.038V2.263h2.233V104.315h53.741V0Z" transform="translate(55.857 0)" fill="#f5f5f5"/>
            <rect id="Rectángulo_278128" data-name="Rectángulo 278128" width="53.743" height="115.041" transform="translate(199.283 106.304)" fill="#f5f5f5"/>
            <rect id="Rectángulo_278129" data-name="Rectángulo 278129" width="53.743" height="111.154" transform="translate(199.283 229.383)" fill="#f5f5f5"/>
            <rect id="Rectángulo_278130" data-name="Rectángulo 278130" width="58.037" height="111.154" transform="translate(0 229.383)" fill="#f5f5f5"/>
            <rect id="Rectángulo_278131" data-name="Rectángulo 278131" width="66.038" height="111.154" transform="translate(131.012 229.383)" fill="#f5f5f5"/>
            <rect id="Rectángulo_278132" data-name="Rectángulo 278132" width="58.037" height="100.165" transform="translate(0 342.526)" fill="#f5f5f5"/>
            <rect id="Rectángulo_278133" data-name="Rectángulo 278133" width="53.741" height="100.165" transform="translate(199.283 342.526)" fill="#f5f5f5"/>
            <path id="Trazado_560584" data-name="Trazado 560584" d="M0,0V104.315H58.037V2.263H60.27V104.315h62.707V0Z" transform="translate(0 0)" fill="#f5f5f5"/>
            <rect id="Rectángulo_278134" data-name="Rectángulo 278134" width="66.038" height="100.165" transform="translate(131.012 342.526)" fill="#f5f5f5"/>
            <rect id="Rectángulo_278135" data-name="Rectángulo 278135" width="62.707" height="100.165" transform="translate(60.27 342.526)" fill="#f5f5f5"/>
            <rect id="Rectángulo_278136" data-name="Rectángulo 278136" width="66.038" height="115.041" transform="translate(131.012 106.304)" fill="#f5f5f5"/>
            <rect id="Rectángulo_278137" data-name="Rectángulo 278137" width="136.868" height="142.673" transform="translate(318.213 62.904)" fill="#e0e0e0"/>
            <rect id="Rectángulo_278138" data-name="Rectángulo 278138" width="136.866" height="142.673" transform="translate(308.945 62.904)" fill="#fafafa"/>
            <path id="Trazado_560585" data-name="Trazado 560585" d="M314.155,178.817H177.2V36.061H314.155Zm-136.868-.085H314.07V36.145H177.288Z" transform="translate(131.699 26.801)" fill="#e0e0e0"/>
            <rect id="Rectángulo_278139" data-name="Rectángulo 278139" width="100.069" height="104.313" transform="translate(327.344 82.082)" fill="#fff"/>
            <g id="Grupo_721309" data-name="Grupo 721309" transform="translate(0 0)">
              <g id="Grupo_721308" data-name="Grupo 721308" clip-path="url(#clip-path-3)">
                <path id="Trazado_560586" data-name="Trazado 560586" d="M195.569,107.328a16.39,16.39,0,0,1-2.47,2.871c-1.6,1.686-3.844,3.969-6.361,6.448s-4.83,4.689-6.537,6.258a16.031,16.031,0,0,1-2.892,2.409,15.829,15.829,0,0,1,2.456-2.859c1.6-1.687,3.849-3.975,6.375-6.462s4.843-4.7,6.549-6.269a15.6,15.6,0,0,1,2.88-2.4" transform="translate(131.773 79.762)" fill="#e0e0e0"/>
                <path id="Trazado_560587" data-name="Trazado 560587" d="M245.191,107.18a16.342,16.342,0,0,1,2.871,2.468c1.687,1.6,3.969,3.846,6.45,6.363s4.689,4.83,6.256,6.537a15.867,15.867,0,0,1,2.409,2.892,15.994,15.994,0,0,1-2.859-2.456c-1.686-1.6-3.974-3.851-6.462-6.375s-4.7-4.844-6.269-6.549a15.782,15.782,0,0,1-2.4-2.88" transform="translate(182.222 79.653)" fill="#e0e0e0"/>
                <path id="Trazado_560588" data-name="Trazado 560588" d="M245.033,54.918a16.314,16.314,0,0,1,2.47-2.871c1.6-1.687,3.844-3.969,6.361-6.448s4.83-4.689,6.537-6.258a15.938,15.938,0,0,1,2.892-2.409,15.829,15.829,0,0,1-2.456,2.859c-1.6,1.687-3.849,3.975-6.375,6.462s-4.843,4.7-6.549,6.269a15.6,15.6,0,0,1-2.88,2.4" transform="translate(182.106 27.443)" fill="#e0e0e0"/>
                <path id="Trazado_560589" data-name="Trazado 560589" d="M195.3,55.181a16.313,16.313,0,0,1-2.871-2.47c-1.686-1.6-3.969-3.844-6.448-6.361s-4.691-4.83-6.258-6.537a15.937,15.937,0,0,1-2.409-2.892,15.832,15.832,0,0,1,2.859,2.456c1.687,1.6,3.974,3.851,6.462,6.375s4.7,4.844,6.269,6.551a15.493,15.493,0,0,1,2.4,2.878" transform="translate(131.773 27.436)" fill="#e0e0e0"/>
                <path id="Trazado_560590" data-name="Trazado 560590" d="M287.768,151.589a5,5,0,0,1-.021-.507c-.007-.356-.014-.835-.023-1.456-.01-1.307-.026-3.188-.045-5.631-.023-4.942-.057-12.131-.1-21.26-.047-18.271-.115-44.3-.2-75.46l.385.385-99.786.058h-.009l.443-.443c-.023,38.288-.045,74.105-.063,104.313l-.38-.38c29.9.08,54.8.148,72.258.193l20.3.1,5.371.045,1.388.021a4.531,4.531,0,0,1,.483.021,3.27,3.27,0,0,1-.441.021c-.329.007-.774.012-1.346.023q-1.849.013-5.3.044l-20.211.1-72.5.193-.38,0,0-.382c-.017-30.208-.04-66.026-.063-104.313v-.443h.453c36.443.019,70.656.04,99.786.056h.387v.387c-.082,31.266-.15,57.378-.2,75.707-.044,9.091-.078,16.252-.1,21.171-.019,2.411-.035,4.267-.045,5.557-.009.6-.016,1.069-.021,1.414a3.743,3.743,0,0,1-.023.464" transform="translate(139.372 34.807)" fill="#e0e0e0"/>
                <rect id="Rectángulo_278140" data-name="Rectángulo 278140" width="33.391" height="33.391" transform="translate(360.683 117.544)" fill="#ebebeb"/>
                <rect id="Rectángulo_278141" data-name="Rectángulo 278141" width="136.868" height="142.673" transform="translate(769.073 62.872)" fill="#e0e0e0"/>
                <rect id="Rectángulo_278142" data-name="Rectángulo 278142" width="136.868" height="142.673" transform="translate(759.804 62.872)" fill="#fafafa"/>
                <path id="Trazado_560591" data-name="Trazado 560591" d="M572.793,178.8H435.842V36.042H572.793Zm-136.866-.084H572.71V36.129H435.927Z" transform="translate(323.92 26.787)" fill="#e0e0e0"/>
                <rect id="Rectángulo_278143" data-name="Rectángulo 278143" width="100.07" height="104.313" transform="translate(778.202 82.053)" fill="#fff"/>
                <path id="Trazado_560592" data-name="Trazado 560592" d="M454.208,107.311a16.385,16.385,0,0,1-2.47,2.871c-1.6,1.686-3.842,3.969-6.359,6.448s-4.832,4.689-6.539,6.258a16.033,16.033,0,0,1-2.892,2.409,15.825,15.825,0,0,1,2.456-2.859c1.6-1.687,3.851-3.975,6.375-6.462s4.844-4.7,6.549-6.269a15.6,15.6,0,0,1,2.88-2.4" transform="translate(323.995 79.749)" fill="#e0e0e0"/>
                <path id="Trazado_560593" data-name="Trazado 560593" d="M503.829,107.163a16.34,16.34,0,0,1,2.871,2.468c1.687,1.6,3.969,3.846,6.448,6.363s4.691,4.83,6.258,6.537a15.868,15.868,0,0,1,2.409,2.892,16,16,0,0,1-2.859-2.456c-1.686-1.6-3.975-3.851-6.462-6.375s-4.7-4.844-6.269-6.549a15.6,15.6,0,0,1-2.4-2.88" transform="translate(374.443 79.641)" fill="#e0e0e0"/>
                <path id="Trazado_560594" data-name="Trazado 560594" d="M503.671,54.9a16.318,16.318,0,0,1,2.47-2.871c1.6-1.687,3.844-3.969,6.361-6.448s4.83-4.689,6.537-6.258a15.866,15.866,0,0,1,2.892-2.409,15.928,15.928,0,0,1-2.456,2.859c-1.6,1.687-3.849,3.975-6.375,6.462s-4.844,4.7-6.549,6.269a15.6,15.6,0,0,1-2.88,2.4" transform="translate(374.328 27.43)" fill="#e0e0e0"/>
                <path id="Trazado_560595" data-name="Trazado 560595" d="M453.935,55.163a16.313,16.313,0,0,1-2.871-2.47c-1.686-1.6-3.969-3.844-6.448-6.361s-4.689-4.83-6.258-6.537a15.935,15.935,0,0,1-2.409-2.892,15.835,15.835,0,0,1,2.859,2.456c1.687,1.6,3.974,3.851,6.462,6.375s4.7,4.844,6.269,6.551a15.5,15.5,0,0,1,2.4,2.878" transform="translate(323.995 27.423)" fill="#e0e0e0"/>
                <path id="Trazado_560596" data-name="Trazado 560596" d="M546.406,151.572a5.017,5.017,0,0,1-.021-.507c-.007-.356-.014-.835-.023-1.456-.01-1.307-.026-3.188-.045-5.631-.023-4.942-.057-12.131-.1-21.26-.047-18.271-.115-44.3-.2-75.46l.385.385-99.786.058h-.009l.443-.443c-.023,38.288-.045,74.105-.063,104.313l-.38-.38c29.9.08,54.8.148,72.258.193l20.3.1,5.371.045,1.388.021a4.529,4.529,0,0,1,.483.021,3.265,3.265,0,0,1-.441.021c-.329.007-.774.012-1.346.023q-1.849.013-5.3.044l-20.211.1-72.5.193-.38,0,0-.382c-.017-30.208-.04-66.026-.063-104.313v-.443h.453c36.443.019,70.656.04,99.786.056h.387v.387c-.082,31.266-.15,57.378-.2,75.707-.044,9.091-.078,16.252-.1,21.173-.019,2.409-.035,4.266-.045,5.556-.009.6-.017,1.069-.021,1.414a3.729,3.729,0,0,1-.023.464" transform="translate(331.593 34.794)" fill="#e0e0e0"/>
                <rect id="Rectángulo_278144" data-name="Rectángulo 278144" width="33.391" height="33.391" transform="translate(811.542 117.513)" fill="#ebebeb"/>
                <rect id="Rectángulo_278145" data-name="Rectángulo 278145" width="12.323" height="264.927" transform="translate(698.384 40.69)" fill="#e0e0e0"/>
                <path id="Trazado_560597" data-name="Trazado 560597" d="M298.1,24.7V287.587a.179.179,0,0,0,.178.178H474.787a.177.177,0,0,0,.178-.178V24.7a.177.177,0,0,0-.178-.178H298.275a.179.179,0,0,0-.178.178" transform="translate(221.547 18.222)" fill="#f5f5f5"/>
                <path id="Trazado_560598" data-name="Trazado 560598" d="M477.712,290.687H297.1a.179.179,0,0,1-.178-.178V23.52a.179.179,0,0,1,.178-.178H477.712a.179.179,0,0,1,.178.178V290.509a.179.179,0,0,1-.178.178m-176.513-4.1H473.612a.177.177,0,0,0,.178-.178V27.618a.177.177,0,0,0-.178-.178H301.2a.179.179,0,0,0-.178.178V286.411a.179.179,0,0,0,.178.178" transform="translate(220.674 17.348)" fill="#ebebeb"/>
                <path id="Trazado_560599" data-name="Trazado 560599" d="M308.313,34.012V264.249a.179.179,0,0,0,.178.178H449.7a.177.177,0,0,0,.178-.178V34.012a.177.177,0,0,0-.178-.178H308.491a.179.179,0,0,0-.178.178" transform="translate(229.14 25.146)" fill="#fff"/>
                <path id="Trazado_560600" data-name="Trazado 560600" d="M405.4,164.5H326.142a.113.113,0,0,1-.113-.112V71.447a.113.113,0,0,1,.113-.112H405.4a.112.112,0,0,1,.112.112v92.941a.112.112,0,0,1-.112.112" transform="translate(242.306 53.017)" fill="#ebebeb"/>
                <path id="Trazado_560601" data-name="Trazado 560601" d="M398.652,149.545c.1.3-3.821,2.019-11.286,1.144a27.594,27.594,0,0,1-12.685-5.071,25.734,25.734,0,0,1-9.856-15.5,22.285,22.285,0,0,1,7.538-21.194,19.8,19.8,0,0,1,5.716-3.349,15.219,15.219,0,0,1,7.151-.825,12.6,12.6,0,0,1,7.149,3.122A9.329,9.329,0,0,1,395.2,116.2a13.6,13.6,0,0,1-3.924,7.149,25.872,25.872,0,0,1-5.988,4.412A32.8,32.8,0,0,1,371,131.84a28.4,28.4,0,0,1-15.223-3.466,27.67,27.67,0,0,1-11.2-11.611,23.681,23.681,0,0,1-2.01-16.264,24.176,24.176,0,0,1,8.573-13.4,21.129,21.129,0,0,1,7.186-3.628,17.874,17.874,0,0,1,8.092-.253,13.191,13.191,0,0,1,7.342,4.142,12.179,12.179,0,0,1,2.878,7.848,14.935,14.935,0,0,1-1.914,7.475,20.011,20.011,0,0,1-4.532,5.449,30.509,30.509,0,0,1-11.261,5.983,28.89,28.89,0,0,1-11.847.915,24.26,24.26,0,0,1-10.309-3.95,22.328,22.328,0,0,1-9.847-15.6,18.841,18.841,0,0,1,3.649-13.372,15.978,15.978,0,0,1,6.748-5.392c1.858-.7,2.915-.678,2.962-.5.078.253-.84.662-2.346,1.667a17.584,17.584,0,0,0-5.247,5.641,16.665,16.665,0,0,0-2.149,11.421,18.706,18.706,0,0,0,8.756,12.262c4.815,3.059,11.571,3.847,18.06,1.721a25.415,25.415,0,0,0,9.039-5.113c2.6-2.332,4.368-5.331,4.22-8.47-.084-3.146-2.066-5.364-5.441-6.011a11.719,11.719,0,0,0-5.195.246,14.95,14.95,0,0,0-4.905,2.568A17.9,17.9,0,0,0,348.888,102a17.22,17.22,0,0,0,1.518,11.812,21.368,21.368,0,0,0,8.552,8.889,22.146,22.146,0,0,0,11.767,2.739,26.781,26.781,0,0,0,11.571-3.164,19.956,19.956,0,0,0,4.618-3.255,7.8,7.8,0,0,0,2.343-3.818,3.333,3.333,0,0,0-.947-3.073,6.918,6.918,0,0,0-3.828-1.686,9.652,9.652,0,0,0-4.506.383,14.432,14.432,0,0,0-4.2,2.3,17.472,17.472,0,0,0-6.4,16.207,22.328,22.328,0,0,0,7.574,13.417,26.7,26.7,0,0,0,10.886,5.434c6.724,1.564,10.759.79,10.811,1.356" transform="translate(242.877 56.568)" fill="#e0e0e0"/>
                <rect id="Rectángulo_278146" data-name="Rectángulo 278146" width="58.036" height="115.041" transform="translate(944.606 106.304)" fill="#f5f5f5"/>
                <rect id="Rectángulo_278147" data-name="Rectángulo 278147" width="62.708" height="115.041" transform="translate(1004.874 106.304)" fill="#f5f5f5"/>
                <rect id="Rectángulo_278148" data-name="Rectángulo 278148" width="62.708" height="111.154" transform="translate(1004.874 229.383)" fill="#f5f5f5"/>
                <path id="Trazado_560602" data-name="Trazado 560602" d="M617.035,104.315h66.038V2.264h2.233V104.315h53.741V0H617.035Z" transform="translate(458.584 0)" fill="#f5f5f5"/>
                <rect id="Rectángulo_278149" data-name="Rectángulo 278149" width="53.743" height="115.041" transform="translate(1143.888 106.304)" fill="#f5f5f5"/>
                <rect id="Rectángulo_278150" data-name="Rectángulo 278150" width="53.743" height="111.154" transform="translate(1143.888 229.383)" fill="#f5f5f5"/>
                <rect id="Rectángulo_278151" data-name="Rectángulo 278151" width="58.036" height="111.154" transform="translate(944.606 229.383)" fill="#f5f5f5"/>
                <rect id="Rectángulo_278152" data-name="Rectángulo 278152" width="66.038" height="111.154" transform="translate(1075.619 229.383)" fill="#f5f5f5"/>
                <rect id="Rectángulo_278153" data-name="Rectángulo 278153" width="58.036" height="100.163" transform="translate(944.606 342.528)" fill="#f5f5f5"/>
                <rect id="Rectángulo_278154" data-name="Rectángulo 278154" width="53.743" height="100.163" transform="translate(1143.888 342.528)" fill="#f5f5f5"/>
                <path id="Trazado_560603" data-name="Trazado 560603" d="M599.916,104.315V2.264h2.231V104.315h62.708V0H541.879V104.315Z" transform="translate(402.727 0)" fill="#f5f5f5"/>
                <rect id="Rectángulo_278155" data-name="Rectángulo 278155" width="66.038" height="100.163" transform="translate(1075.619 342.528)" fill="#f5f5f5"/>
                <rect id="Rectángulo_278156" data-name="Rectángulo 278156" width="62.708" height="100.163" transform="translate(1004.874 342.528)" fill="#f5f5f5"/>
                <rect id="Rectángulo_278157" data-name="Rectángulo 278157" width="66.038" height="115.041" transform="translate(1075.619 106.304)" fill="#f5f5f5"/>
              </g>
            </g>
          </g>
          <g id="Grupo_721311" data-name="Grupo 721311" transform="translate(0 9.931)">
            <path id="Trazado_560604" data-name="Trazado 560604" d="M-16192.351-10070.38s158.984-126.318,358.218-145.353,218.378,66.726,299.13,113.469,123.576,40.792,123.576,40.792v265.889h-1241.366l-.951-351.067s21.275,68.293,42.975,75.477c5.354,1.773,4.564,93,43.611,147.709,37.9,53.106,120.469,74.786,168.943,73.866,51.051-.97,129.6-34.172,168.1-88.639C-16190.947-9993.67-16192.351-10070.38-16192.351-10070.38Z" transform="translate(16831.426 22242.652)" fill="#13a0ff" opacity="0.12"/>
            <path id="Trazado_560605" data-name="Trazado 560605" d="M-16654.777-9856.1l.469,56.52h1239.531v-89.21s-81.977,32.751-187.087,21.568-176.465-42.747-312.08-48.139-394.042,77.45-471.778,83.7C-16570.816-9816.787-16654.777-9856.1-16654.777-9856.1Z" transform="translate(16834.777 22246.652)" fill="#147dc4" opacity="0.11"/>
          </g>
        </g>
      </g>
      <g id="Grupo_721312" data-name="Grupo 721312" transform="translate(0 6)">
        <g id="Grupo_721289" data-name="Grupo 721289">
          <g id="Grupo_721210" data-name="Grupo 721210" transform="translate(7887 11822.185)">
            <g id="Grupo_720997" data-name="Grupo 720997" transform="translate(-7232.455 103.224)">
              <g id="Grupo_720996" data-name="Grupo 720996" clip-path="url(#clip-path-4)">
                <g id="Grupo_720995" data-name="Grupo 720995">
                  <g id="Grupo_720994" data-name="Grupo 720994" clip-path="url(#clip-path-4)">
                    <path id="Trazado_559058" data-name="Trazado 559058" d="M163.61,11.476a14.169,14.169,0,0,0-14.522-7.4,19.467,19.467,0,0,0-23.78-.036,17.682,17.682,0,0,0-16.928-.669A17.331,17.331,0,0,0,99.111,17.4a14.8,14.8,0,0,0-15.148,7.183,14.474,14.474,0,0,0,2.115,16.49,14.125,14.125,0,0,0-9.549,15.68,14.268,14.268,0,0,0,14.806,10.98L160.7,27.382a13.869,13.869,0,0,0,2.906-15.906" transform="translate(44.332 0.001)" fill="#263238"/>
                    <path id="Trazado_559059" data-name="Trazado 559059" d="M86.646,63.16c3.077-30.03,28.943-52.682,59.438-52.059l3.031.062c32.633,2.555,48.673,31.408,45.188,63.62l-6.974,107.572-4.76,13.45-56.219,69.713-14.171-62.8-.27-29.158S80.6,168.082,80.858,137c.126-15.013,2.925-45.906,5.788-73.838" transform="translate(46.978 6.442)" fill="#ffc09d"/>
                    <path id="Trazado_559060" data-name="Trazado 559060" d="M100.522,117.986s19.733,1.508,41.1-11.175c0,0-10.087,22.227-41.067,18.885Z" transform="translate(58.404 62.058)" fill="#ff9b6c"/>
                    <path id="Trazado_559061" data-name="Trazado 559061" d="M89.162,63.106a4.457,4.457,0,0,0,4.231,4.566A4.278,4.278,0,0,0,98.1,63.765,4.46,4.46,0,0,0,93.874,59.2a4.281,4.281,0,0,0-4.711,3.91" transform="translate(51.8 34.386)" fill="#263238"/>
                    <path id="Trazado_559062" data-name="Trazado 559062" d="M88.37,56.373c.544.59,3.992-1.829,8.819-1.719,4.822.043,8.313,2.572,8.847,2,.262-.255-.281-1.311-1.8-2.452a12.384,12.384,0,0,0-7.069-2.316,11.913,11.913,0,0,0-7.034,2.09c-1.508,1.1-2.032,2.134-1.763,2.4" transform="translate(51.304 30.144)" fill="#263238"/>
                    <path id="Trazado_559063" data-name="Trazado 559063" d="M116.492,64.623a4.456,4.456,0,0,0,4.231,4.564,4.276,4.276,0,0,0,4.707-3.907,4.461,4.461,0,0,0-4.228-4.569,4.281,4.281,0,0,0-4.71,3.911" transform="translate(67.679 35.266)" fill="#263238"/>
                    <path id="Trazado_559064" data-name="Trazado 559064" d="M117.58,56.546c.545.593,4-1.826,8.82-1.717,4.82.044,8.313,2.574,8.849,2,.262-.251-.277-1.307-1.8-2.452a12.41,12.41,0,0,0-7.067-2.313,11.892,11.892,0,0,0-7.035,2.09c-1.5,1.094-2.03,2.131-1.764,2.4" transform="translate(68.276 30.247)" fill="#263238"/>
                    <path id="Trazado_559065" data-name="Trazado 559065" d="M111.528,91.687c.028-.272-2.961-.846-7.809-1.56-1.23-.15-2.39-.416-2.582-1.254-.272-.887.272-2.19.9-3.6q1.831-4.387,3.837-9.211c5.337-13.118,9.227-23.914,8.691-24.121s-5.3,10.254-10.631,23.374q-1.93,4.852-3.687,9.269c-.495,1.377-1.33,2.933-.738,4.773a3.079,3.079,0,0,0,1.989,1.824,8.4,8.4,0,0,0,2.087.33c4.887.36,7.921.444,7.945.174" transform="translate(57.696 30.177)" fill="#263238"/>
                    <path id="Trazado_559066" data-name="Trazado 559066" d="M117.712,47.9c.549,1.251,4.727.223,9.775.408,5.053.071,9.233,1.312,9.779.089.239-.585-.582-1.731-2.332-2.824a15.188,15.188,0,0,0-7.453-2.107,14.629,14.629,0,0,0-7.445,1.73c-1.747,1-2.566,2.109-2.324,2.705" transform="translate(68.367 25.251)" fill="#263238"/>
                    <path id="Trazado_559067" data-name="Trazado 559067" d="M89.241,47.972c.732,1.165,4.156.383,8.139.735,4,.215,7.271,1.475,8.163.425.4-.514-.021-1.649-1.385-2.821a11.936,11.936,0,0,0-13.137-.934c-1.521.966-2.1,2.03-1.78,2.594" transform="translate(51.8 25.47)" fill="#263238"/>
                    <path id="Trazado_559068" data-name="Trazado 559068" d="M86.622,50.386s8.688-19.291,18.265-23.639c11.6-5.265,16.278,7.306,27.282,4.5s22.074-7.858,33.081.741c12.047,9.41,6.18,15.72,6.648,29.522,1.9,55.969,11.889,71.988,15.372,45.716.381-2.879,8.52-5.009,9.973-17.171,1.885-15.774,2.9-34.953-.433-46.243C194,34.3,188.69,27.659,179.073,20.259,163.891,8.578,142.716,7.9,128.3,9.041s-42.483,16.95-41.68,41.345" transform="translate(50.318 5.025)" fill="#263238"/>
                    <path id="Trazado_559069" data-name="Trazado 559069" d="M149.541,73.381a8.5,8.5,0,0,1,9.372-7.941c5.847.67,12.3,4.095,11.658,16.065-1.127,21.231-22.436,15.731-22.441,15.119,0-.414.858-14.362,1.41-23.242" transform="translate(86.065 37.989)" fill="#ffc09d"/>
                    <path id="Trazado_559070" data-name="Trazado 559070" d="M151.36,86.342c.1-.063.36.278.977.6a3.768,3.768,0,0,0,2.79.2c2.311-.705,4.408-4.168,4.716-7.989a12.129,12.129,0,0,0-.765-5.349,4.3,4.3,0,0,0-2.661-2.987,1.911,1.911,0,0,0-2.259.9c-.319.579-.206,1.009-.321,1.04-.063.051-.441-.381-.223-1.249a2.366,2.366,0,0,1,.915-1.285,2.851,2.851,0,0,1,2.095-.433c1.649.2,3.058,1.783,3.73,3.5a12.45,12.45,0,0,1,.982,5.984c-.365,4.272-2.79,8.16-5.94,8.885a4.042,4.042,0,0,1-3.388-.738c-.637-.56-.724-1.04-.648-1.075" transform="translate(87.928 40.525)" fill="#ff9b6c"/>
                    <path id="Trazado_559071" data-name="Trazado 559071" d="M180.168,67.841c-2.827,1.826-5.813,3.709-9.181,3.97s-7.168-1.728-7.666-5.034c-.224-1.483.177-3.192-.783-4.354-1.143-1.388-3.315-1.006-5.118-.854A13.693,13.693,0,0,1,143.4,51.556c-1.641,2.327-5.355,2.149-7.733.563s-3.875-4.133-5.717-6.308-4.447-4.141-7.293-3.8c-1.592.191-3.1,1.1-4.691.923-2.816-.305-4.123-3.6-4.492-6.379s-.634-6.016-2.991-7.57c-2.183-1.44-5.067-.692-7.671-.367s-5.943-.345-6.555-2.87A5.013,5.013,0,0,1,97.3,21.914,13.994,13.994,0,0,1,113.82,17.04a18.925,18.925,0,0,1,34.7-2.907,19.61,19.61,0,0,1,17.2-4.087,19.393,19.393,0,0,1,13.235,11.611,14.284,14.284,0,0,1,14.382,5.159,13.939,13.939,0,0,1,.833,15.116c3.813,2.261,7.039,6.123,7.028,10.523s-4.433,8.692-8.7,7.447a7.839,7.839,0,0,1-3.236,9.922,8.014,8.014,0,0,1-10.2-2.615" transform="translate(55.874 2.356)" fill="#263238"/>
                    <path id="Trazado_559072" data-name="Trazado 559072" d="M169.7,39.37c.076-.055.359,1.793-1.423,4.057a6.917,6.917,0,0,1-4.356,2.451,7.484,7.484,0,0,1-6.084-1.885l.911-.117a21.26,21.26,0,0,1-4.4,5.211,12.378,12.378,0,0,1-3.964,2.327,9.6,9.6,0,0,1-10.452-3.333,12.2,12.2,0,0,1-1.646-4.457,4.124,4.124,0,0,1-.13-1.72c.093-.017.262.569.6,1.606a14.224,14.224,0,0,0,1.9,4.082c1.972,3.088,8.569,4.779,12.9.561a21.375,21.375,0,0,0,4.19-4.882l.391-.618.52.5a6.572,6.572,0,0,0,5.143,1.738,6.353,6.353,0,0,0,3.929-1.948c1.763-1.9,1.787-3.635,1.973-3.576" transform="translate(80.249 22.873)" fill="#455a64"/>
                    <path id="Trazado_559073" data-name="Trazado 559073" d="M154.25,11.267c.011.074-.563.138-1.53.52a7.361,7.361,0,0,0-3.393,2.737l-.266.4-.289-.4a26.646,26.646,0,0,0-10.207-8.53,21.052,21.052,0,0,0-8.416-2.008,17.843,17.843,0,0,0-14.664,7.353A14.291,14.291,0,0,0,112.99,17.7l-.082.67-.647-.19a12.162,12.162,0,0,0-8.945.893,11.678,11.678,0,0,0-4.99,5.077c-1.81,3.7-1.251,6.3-1.469,6.266a4.246,4.246,0,0,1-.224-1.742A11.717,11.717,0,0,1,97.7,23.853a12.138,12.138,0,0,1,5.157-5.614,13.016,13.016,0,0,1,9.725-1.143l-.727.481a15.238,15.238,0,0,1,2.632-6.92A18.8,18.8,0,0,1,130.177,2.8a21.715,21.715,0,0,1,8.855,2.226,26.013,26.013,0,0,1,10.294,9.122l-.553,0a7.3,7.3,0,0,1,3.829-2.7,3.277,3.277,0,0,1,1.647-.188" transform="translate(56.144 1.623)" fill="#455a64"/>
                    <path id="Trazado_559074" data-name="Trazado 559074" d="M121.166,81.81s6.194,12.8-7.07,15.873a6.469,6.469,0,0,1-7.644-4.621l-1.829-6.967c.623.168,16.544-4.285,16.544-4.285" transform="translate(60.786 47.532)" fill="#ff9b6c"/>
                    <path id="Trazado_559075" data-name="Trazado 559075" d="M109.912,97.832c.019-.071.621.087,1.719.16a11.492,11.492,0,0,0,4.547-.68A9.947,9.947,0,0,0,122.5,85.188a9.637,9.637,0,0,0-1.356-3l.444.161c-5.126,1.3-9.652,2.411-12.9,3.17l-3.832.858a5.222,5.222,0,0,1-1.413.212,5.345,5.345,0,0,1,1.345-.5l3.772-1.1c3.209-.9,7.7-2.1,12.809-3.432l.283-.073.161.234a10.246,10.246,0,0,1,1.483,3.251,10.944,10.944,0,0,1-1.266,8.577A10.843,10.843,0,0,1,111.6,98.309a4.518,4.518,0,0,1-1.687-.477" transform="translate(60.097 47.349)" fill="#263238"/>
                    <path id="Trazado_559076" data-name="Trazado 559076" d="M75.733,142.437S53.264,154.47,48.69,185.978C44.761,213.043,21.1,358.149,21.1,358.149L0,447.467H54.677L84.415,288.95Z" transform="translate(0 82.757)" fill="#c2b5ff"/>
                    <path id="Trazado_559077" data-name="Trazado 559077" d="M58.046,462.9,88.782,184.574l26.811-61.362L124.563,117l6.482,27.318,8.673,30.894,23.717-29.8,37.449-29.029.863,14.326,17.984,52.573-14.909,137.2V462.6Z" transform="translate(33.725 67.619)" fill="#fff"/>
                    <path id="Trazado_559078" data-name="Trazado 559078" d="M100.54,440.509a3.678,3.678,0,0,0,.074-.738c.027-.544.062-1.262.108-2.169.073-1.973.175-4.772.308-8.343.248-7.311.606-17.777,1.045-30.683.907-25.908,2.346-61.689,4.406-101.188s4.373-75.251,6.172-101.113c.909-12.88,1.646-23.326,2.16-30.624.242-3.565.432-6.359.564-8.329.051-.906.09-1.624.12-2.168a3.716,3.716,0,0,0,0-.742,3.626,3.626,0,0,0-.115.732c-.057.542-.131,1.257-.228,2.16-.182,1.967-.438,4.754-.768,8.313-.65,7.222-1.511,17.677-2.506,30.6-2,25.851-4.42,61.593-6.492,101.112s-3.379,75.3-4.09,101.219c-.357,12.958-.591,23.446-.7,30.7-.044,3.573-.079,6.373-.1,8.348v2.171a3.7,3.7,0,0,0,.038.741" transform="translate(-335.278 192.588)" fill="#263238"/>
                    <path id="Trazado_559079" data-name="Trazado 559079" d="M204.152,310.583,247.21,177.291l-76.187-40.95-15.916-17.23s-3.385,71.506-3.916,90.445-8.873,90.731-12.594,134.395c-1.987,23.328-.71,62.293.455,84.257,1.339,25.193,1.064,33.52,1.064,33.52l74.538-.413L190,363.167Z" transform="translate(79.923 69.205)" fill="#c2b5ff"/>
                    <path id="Trazado_559080" data-name="Trazado 559080" d="M110.175,136.308,58.234,156.279,50.177,349.415,30.119,461.606l57.285,1.07C87.935,449,102.51,335.05,102.51,335.05l19.138-178.336,14.94-38.1Z" transform="translate(17.499 68.914)" fill="#c2b5ff"/>
                    <path id="Trazado_559081" data-name="Trazado 559081" d="M86.832,129.134a8.617,8.617,0,0,0-.953,1.061q-.972,1.176-2.626,3.186c-2.322,2.876-5.617,6.961-9.753,12.087l-.209.258.27.2c2.468,1.854,5.255,3.949,8.264,6.209l.115-.675-9.7,3.037-.305.095,0,.321c.185,17.108.416,38.648.669,62,.419,28.5.8,54.295,1.077,73.069.188,9.282.343,16.823.451,22.14.076,2.547.136,4.558.179,6.019.03.636.054,1.149.074,1.565a1.961,1.961,0,0,0,.062.533,1.987,1.987,0,0,0,.049-.534c.009-.416.021-.931.035-1.565.006-1.462.016-3.475.027-6.022-.025-5.319-.06-12.861-.1-22.145C74.262,271.2,73.994,245.4,73.7,216.9c-.335-23.348-.643-44.886-.889-61.994l-.3.416,9.671-3.121.719-.232-.6-.446c-3.036-2.224-5.85-4.286-8.34-6.112l.062.46L83.529,133.6c1.05-1.387,1.877-2.481,2.492-3.292a8.523,8.523,0,0,0,.811-1.17" transform="translate(41.795 75.027)" fill="#263238"/>
                    <path id="Trazado_559082" data-name="Trazado 559082" d="M141.16,318.832a2.225,2.225,0,0,0,.2-.514c.133-.4.3-.909.506-1.534l1.934-5.9c1.7-5.113,4.217-12.493,7.448-21.571,1.641-4.539,3.436-9.5,5.36-14.823a177.148,177.148,0,0,0,5.45-17.29,387.192,387.192,0,0,0,7.617-40.758c2.631-18.964,4.332-36.844,5.369-52.227l.014-.218-.158-.15-8.357-7.975-.041.653,7.924-5.967.31-.232-.229-.307-14.308-19.2c-1.67-2.2-2.985-3.934-3.937-5.186-.427-.544-.77-.982-1.047-1.333a2.2,2.2,0,0,0-.387-.432,2.344,2.344,0,0,0,.3.5l.956,1.4c.911,1.282,2.169,3.058,3.768,5.309l14.024,19.4.082-.538-7.976,5.9-.406.3.365.353,8.3,8.031-.144-.367c-1.124,15.344-2.876,33.209-5.5,52.138a402.563,402.563,0,0,1-7.511,40.663q-2.388,9.239-5.326,17.231l-5.236,14.876c-3.141,9.116-5.551,16.537-7.126,21.695-.787,2.579-1.366,4.591-1.739,5.96-.163.637-.3,1.151-.4,1.565a1.933,1.933,0,0,0-.1.544" transform="translate(82.011 71.972)" fill="#263238"/>
                    <g id="Grupo_720990" data-name="Grupo 720990" transform="translate(218.507 463.362)" opacity="0.3">
                      <g id="Grupo_720989" data-name="Grupo 720989">
                        <g id="Grupo_720988" data-name="Grupo 720988" clip-path="url(#clip-path-6)">
                          <path id="Trazado_559083" data-name="Trazado 559083" d="M203.776,319.4,162.518,335.41l-2.751-9.1-20.436,16.869-1.123-25.163L156.17,293.08l44.584,14.294Z" transform="translate(-138.208 -293.081)"/>
                        </g>
                      </g>
                    </g>
                    <path id="Trazado_559084" data-name="Trazado 559084" d="M274.854,355.482a15.522,15.522,0,0,0,7.385-12.65,140.3,140.3,0,0,0-1.257-21.554c-2.947-24.3-35.535-165.367-35.535-165.367L197.434,265.85l13.876,47.863-70.718,33.508,19.688,54.986s93.964-34.026,114.574-46.725" transform="translate(81.685 90.586)" fill="#c2b5ff"/>
                    <path id="Trazado_559085" data-name="Trazado 559085" d="M206.187,176.478a5.985,5.985,0,0,0-.449,1.233l-1.081,3.589c-.934,3.263-2.221,7.756-3.8,13.252-3.156,11.2-7.484,26.689-11.883,43.9s-7.878,32.928-10.068,44.358c-1.1,5.715-1.926,10.352-2.424,13.568-.231,1.518-.416,2.745-.561,3.706a5.752,5.752,0,0,0-.122,1.3,6.049,6.049,0,0,0,.338-1.268c.2-.95.451-2.166.762-3.668.68-3.32,1.617-7.9,2.762-13.492,2.383-11.382,5.981-27.041,10.371-44.244s8.6-32.709,11.57-43.963c1.434-5.532,2.609-10.057,3.459-13.34l.884-3.643a5.888,5.888,0,0,0,.237-1.29" transform="translate(102.134 102.535)" fill="#263238"/>
                    <path id="Trazado_559086" data-name="Trazado 559086" d="M251.683,309.55a1.923,1.923,0,0,0-.46.13l-1.322.466-5.094,1.889-19,7.224L160.337,344.5l.683.31c-4.114-11.51-8.569-23.979-13.186-36.894-2.207-6.16-4.378-12.218-6.485-18.1l-.275.661,69.9-33.394-.049.019a41.828,41.828,0,0,1,16.507-1.869,41.391,41.391,0,0,1,12.216,3.072,51.911,51.911,0,0,1,7.092,3.69l1.747,1.137a3.465,3.465,0,0,0,.617.361,3.544,3.544,0,0,0-.552-.449l-1.69-1.23a46.831,46.831,0,0,0-7.043-3.9,41.062,41.062,0,0,0-12.327-3.287,42.123,42.123,0,0,0-16.8,1.742l-.025.008-.027.013-70.031,33.119-.438.207.163.454c2.1,5.881,4.27,11.94,6.474,18.1,4.632,12.91,9.1,25.374,13.23,36.879l.18.506.5-.2,65.326-25.6,18.891-7.505,5.031-2.046,1.29-.549a1.893,1.893,0,0,0,.427-.215" transform="translate(81.438 147.812)" fill="#263238"/>
                    <path id="Trazado_559087" data-name="Trazado 559087" d="M110.263,166.186a14.66,14.66,0,0,0,1.99-1.783l5.273-5.187,17.805-18-.773-.025a21.625,21.625,0,0,1,4.593,9.668,21.351,21.351,0,0,1,.44,5.654l-.071,1.217.947-.76c9.005-7.224,16.3-14.31,21.761-19.148,2.708-2.441,4.9-4.381,6.428-5.7a20.573,20.573,0,0,0,2.313-2.109,17.181,17.181,0,0,0-2.564,1.809c-1.608,1.228-3.881,3.089-6.658,5.464-5.592,4.7-13,11.706-21.951,18.842l.874.457a22.065,22.065,0,0,0-.451-5.945,22.409,22.409,0,0,0-4.865-10.141l-.379-.436-.394.41c-6.963,7.255-13.045,13.59-17.535,18.268L112,164.147a14.738,14.738,0,0,0-1.733,2.039" transform="translate(64.062 75.537)" fill="#263238"/>
                    <path id="Trazado_559088" data-name="Trazado 559088" d="M95.226,127.992a6.024,6.024,0,0,0-.087,1.658c.009,1.077.065,2.647.218,4.621A96.018,96.018,0,0,0,98,150.159l.33,1.3.623-1.2a38.813,38.813,0,0,1,6.9-9.423c.789-.792,1.6-1.541,2.4-2.218l-.882-.291a146.017,146.017,0,0,0,6.439,21.043c1.02,2.591,1.916,4.645,2.574,6.044a10.389,10.389,0,0,0,1.124,2.119,11.227,11.227,0,0,0-.754-2.272c-.6-1.641-1.355-3.695-2.253-6.142a180.916,180.916,0,0,1-6.069-21.026l-.2-.876-.688.583c-.817.692-1.657,1.462-2.468,2.278a38.428,38.428,0,0,0-7.035,9.722l.953.1a116.563,116.563,0,0,1-3-15.7c-.477-3.91-.628-6.224-.759-6.218" transform="translate(55.276 74.364)" fill="#263238"/>
                    <g id="Grupo_720993" data-name="Grupo 720993" transform="translate(108.249 229.938)" opacity="0.3">
                      <g id="Grupo_720992" data-name="Grupo 720992">
                        <g id="Grupo_720991" data-name="Grupo 720991" clip-path="url(#clip-path-7)">
                          <path id="Trazado_559089" data-name="Trazado 559089" d="M74.388,145.438l-5.919,8.076s1.652,122.457,7.94,152.863Z" transform="translate(-68.469 -145.438)"/>
                        </g>
                      </g>
                    </g>
                    <path id="Trazado_559090" data-name="Trazado 559090" d="M30.119,430.48a3.514,3.514,0,0,1,.073-.585c.073-.422.169-.987.292-1.709.28-1.54.683-3.744,1.2-6.569,1.085-5.752,2.642-14.025,4.577-24.294L51.9,315.856l-.008.082c-.049-4.319-.1-8.9-.15-13.535-.351-35.946-.666-68.483-.9-92.082-.074-11.75-.134-21.272-.175-27.9,0-3.262,0-5.81-.006-7.587.008-.836.014-1.489.019-1.973a4.125,4.125,0,0,1,.035-.672,4.194,4.194,0,0,1,.049.673c.016.482.036,1.137.063,1.973.036,1.777.092,4.324.16,7.586.1,6.631.255,16.153.44,27.9.291,23.6.692,56.13,1.137,92.075.049,4.636.1,9.214.145,13.532v.043l-.008.041c-6.286,32.194-11.873,60.807-15.9,81.417-2.04,10.25-3.681,18.507-4.822,24.246-.577,2.814-1.028,5.009-1.342,6.542-.155.716-.277,1.276-.367,1.693a3.449,3.449,0,0,1-.15.571" transform="translate(17.498 100.04)" fill="#263238"/>
                    <path id="Trazado_559091" data-name="Trazado 559091" d="M41.081,260.432c-.025.245-4.114-.107-9.13.251-5.021.33-9.021,1.238-9.081,1-.063-.2,3.913-1.483,9.024-1.821,5.108-.362,9.224.365,9.187.571" transform="translate(13.287 150.923)" fill="#263238"/>
                    <path id="Trazado_559092" data-name="Trazado 559092" d="M177.672,279.239s-39.871,8.321-45.8,9.617-29.331,18.868-31.65,20.166-9.081,5.59-9.081,5.59,4.357,7.145,12.088,4.55a41.557,41.557,0,0,0,12.827-7.023l-16.49,15.042L80.8,338.648a5.539,5.539,0,0,0-2.348,6.792,3.255,3.255,0,0,0,3.932,2.081c5.336-.949,22.643-7.7,22.643-7.7s.813,10.446,10.346,11.744c0,0,2.051,8.974,10.345,7.061,0,0,8.158,6.678,15.382,2.863S167.075,350,170.94,342.225A115.412,115.412,0,0,1,179.7,327.7l14.442-2.506Z" transform="translate(45.346 162.239)" fill="#ffc09d"/>
                    <path id="Trazado_559093" data-name="Trazado 559093" d="M95.113,321.973c.134.28,5.121-1.728,10.941-4.949,5.847-3.206,9.971-6.787,9.75-7.048s-4.571,2.806-10.344,5.971c-5.758,3.186-10.507,5.695-10.346,6.025" transform="translate(55.259 180.088)" fill="#ff9b6c"/>
                    <path id="Trazado_559094" data-name="Trazado 559094" d="M122.05,316.593c-.183-.319-5.121,2.452-10.787,6.435s-10.307,7.081-10.15,7.366c.172.311,5.162-2.364,10.843-6.349s10.246-7.178,10.095-7.451" transform="translate(58.744 183.928)" fill="#ff9b6c"/>
                    <path id="Trazado_559095" data-name="Trazado 559095" d="M125.384,321.657c-.228-.223-3.84,2.816-8.694,6.1-4.833,3.311-8.694,6.149-8.487,6.449.177.259,4.31-2.1,9.182-5.436,4.906-3.315,8.262-6.86,8-7.11" transform="translate(62.862 186.878)" fill="#ff9b6c"/>
                    <path id="Trazado_559096" data-name="Trazado 559096" d="M124.373,289.6c-.028-.139-1.671.035-4.18.908a31.938,31.938,0,0,0-9.015,5.07,42.378,42.378,0,0,0-7.241,7.382c-1.6,2.107-2.4,3.541-2.277,3.632.327.266,4.082-5.121,10.272-10.043,6.171-5.018,12.558-6.593,12.441-6.949" transform="translate(59.058 168.233)" fill="#ff9b6c"/>
                  </g>
                </g>
              </g>
            </g>
            <g id="Grupo_721004" data-name="Grupo 721004" transform="translate(-7589.771 121.707)">
              <g id="Grupo_721003" data-name="Grupo 721003" clip-path="url(#clip-path-8)">
                <g id="Grupo_721002" data-name="Grupo 721002">
                  <g id="Grupo_721001" data-name="Grupo 721001" clip-path="url(#clip-path-8)">
                    <path id="Trazado_559097" data-name="Trazado 559097" d="M190.516,231.272l23.019-6.635,28.559-10.789,22.666-12.29s1.98-1.958-.8-4.4-15.107,4.382-15.107,4.382l-9.759,3.637s-8.229.679-7.77-.095,13.222-6.943,13.222-6.943l21.783-11.854s6.146-3.181,4.239-7.252c-.908-1.938-3.173-3.088-7.354-1.482s-10.768,5.738-13.125,6.7-15.814,7.011-15.814,7.011l27.872-19.1s9.086-5.415,6.174-9.247-8.445.393-11.626,1.622-20.678,12.4-27.495,15.509c-5.846,2.66-4.439.451-4.439.451s9.254-5.718,16.551-10.225,12.837-8.982,8.084-11.947c-3.1-1.933-17.093,5.535-17.093,5.535l-20.665,11.543-9.848,4.356,8.207-7.35a27.911,27.911,0,0,0,8.976-11.179c2.878-7.109-2.948-7.345-2.948-7.345l-33.713,23.059c-5.246,4.583-11.428,26.644-11.428,26.644L105.855,229.6l26.989,39.488Z" transform="translate(70.257 102.138)" fill="#ffc09d"/>
                    <path id="Trazado_559098" data-name="Trazado 559098" d="M164.927,168.952a4.811,4.811,0,0,1,1.012,1.176,21.617,21.617,0,0,1,2.11,3.665,24.767,24.767,0,0,1-3.615,26.376,21.84,21.84,0,0,1-3.011,2.968,4.83,4.83,0,0,1-1.288.865c-.107-.123,1.67-1.447,3.822-4.218a25.624,25.624,0,0,0,3.53-25.749c-1.331-3.244-2.694-4.993-2.559-5.084" transform="translate(106.28 112.135)" fill="#ff9b6c"/>
                    <path id="Trazado_559099" data-name="Trazado 559099" d="M242.257,191.187c.511-2.367,2.926-3.762,4.926-5.194a23.991,23.991,0,0,0,9.635-22.866A24.534,24.534,0,0,0,240.4,144.251c-2.083-.675-4.329-1.113-6.041-2.456-4.256-3.342-2.887-9.882-4.505-14.972-3.424-10.778-19.191-12.9-24.841-22.751-3.444-6.008-2.293-13.376-1.986-20.249s-1.018-14.89-7.137-18.326c-3.292-1.847-7.4-1.967-10.614-3.941-6.632-4.073-6.35-13.338-8.8-20.6-3.86-11.431-17.015-19.086-29.155-16.967,0,0,4.831-10.358-7.963-15.656-15.446-6.394-16.432,4.427-23.547-2.314-7.56-7.166-20.5-8.066-29.01-2.018C84.146,5.891,81.905,8.349,79,9.838c-3.544,1.818-7.693,2.011-11.6,2.855C52.486,15.908,40.875,30.062,40.928,44.96L138.5,211.022c3.381,15.8-6.5,22.873,7.33,31.739,2.9,1.86,23.681,7.35,27.1,7.931,4.269.722,14.531,1.088,18.491-.622,8.6-3.713,21.56-9.345,25-17.88,9.245,4.038,21.076,1.381,27.563-6.189a23.061,23.061,0,0,0,1.353-27.556c-1.562-2.229-3.645-4.617-3.076-7.257" transform="translate(27.164 0)" fill="#263238"/>
                    <path id="Trazado_559100" data-name="Trazado 559100" d="M42.551,54.513,41.2,43.138l68.9-19.484c21.42-4.224,46.9,14.772,50.354,35.826,3.835,23.392,7.57,52.1,6.439,69.918-2.276,35.835-29.581,42.884-29.581,42.884l6.312,60.942L142.545,248.9,74.356,189.279Z" transform="translate(27.344 15.306)" fill="#ffc09d"/>
                    <path id="Trazado_559101" data-name="Trazado 559101" d="M112.355,64.05a4.566,4.566,0,0,1-4.028,4.979,4.453,4.453,0,0,1-5.186-3.64,4.565,4.565,0,0,1,4.021-4.983,4.458,4.458,0,0,1,5.192,3.644" transform="translate(68.431 40.057)" fill="#263238"/>
                    <path id="Trazado_559102" data-name="Trazado 559102" d="M116.5,55.979c-.517.642-4.286-1.572-9.279-1.1-5,.4-8.417,3.246-9.017,2.7-.293-.238.19-1.358,1.674-2.639a12.943,12.943,0,0,1,7.147-2.893,12.55,12.55,0,0,1,7.457,1.612c1.65,1.008,2.276,2.028,2.018,2.319" transform="translate(65.123 34.512)" fill="#263238"/>
                    <path id="Trazado_559103" data-name="Trazado 559103" d="M84.9,66.673a4.564,4.564,0,0,1-4.028,4.98,4.453,4.453,0,0,1-5.186-3.64,4.566,4.566,0,0,1,4.021-4.983A4.458,4.458,0,0,1,84.9,66.673" transform="translate(50.208 41.798)" fill="#263238"/>
                    <path id="Trazado_559104" data-name="Trazado 559104" d="M87.033,59.243c-.519.642-4.289-1.571-9.28-1.1-5,.4-8.417,3.246-9.017,2.7-.291-.238.185-1.358,1.675-2.639a12.925,12.925,0,0,1,7.146-2.892,12.547,12.547,0,0,1,7.458,1.61c1.645,1.008,2.274,2.03,2.018,2.319" transform="translate(45.567 36.679)" fill="#263238"/>
                    <path id="Trazado_559105" data-name="Trazado 559105" d="M95.256,94.483c-.052-.275,3-1.083,7.974-2.174,1.263-.246,2.447-.606,2.579-1.474.211-.927-.454-2.218-1.216-3.61q-2.241-4.35-4.7-9.125c-6.567-13.007-11.45-23.748-10.911-24s6.3,10.084,12.864,23.092q2.383,4.814,4.552,9.2c.622,1.369,1.61,2.9,1.143,4.821a3.166,3.166,0,0,1-1.92,2.013,8.9,8.9,0,0,1-2.138.492c-5.038.732-8.177,1.043-8.224.769" transform="translate(59.03 35.902)" fill="#263238"/>
                    <path id="Trazado_559106" data-name="Trazado 559106" d="M119.3,116.044s-25.448,3.817-50.966-8.106c0,0,14.869,24.8,52.019,18.121Z" transform="translate(45.353 71.64)" fill="#ff9b6c"/>
                    <path id="Trazado_559107" data-name="Trazado 559107" d="M88.361,47.247c-.363,1.369-5.412,1.2-11.207,2.429-5.818,1.116-10.38,3.224-11.275,2.108-.4-.536.3-1.858,2.083-3.317a19.3,19.3,0,0,1,8.152-3.657,19.591,19.591,0,0,1,8.976.2c2.234.647,3.421,1.589,3.271,2.238" transform="translate(43.652 29.462)" fill="#263238"/>
                    <path id="Trazado_559108" data-name="Trazado 559108" d="M114.052,47.733c-.77,1.186-4.326.356-8.468.682-4.156.186-7.57,1.447-8.492.364-.408-.529.035-1.689,1.464-2.877a12.56,12.56,0,0,1,13.664-.845c1.574,1,2.166,2.1,1.832,2.675" transform="translate(64.345 28.826)" fill="#263238"/>
                    <path id="Trazado_559109" data-name="Trazado 559109" d="M189.156,36.7a62.475,62.475,0,0,0-34.184-18.84L96.638,27.1,81.076,36.675C79.79,33.3,78.965,31.2,78.965,31.2,73.238,27.521,57.656,20.1,45.03,33.511c-4.555,4.838-7.906,17.353-7.671,23.781.088,2.432.5,5.382-1.63,6.808a7.938,7.938,0,0,1-2.559.908C18.4,68.642,8.621,84.4,12.657,98.056a6.824,6.824,0,0,1,.469,2.747c-.183,1.459-1.389,2.59-2.422,3.7a22.489,22.489,0,0,0-2.682,26.819c1.6,2.567,3.76,4.94,4.422,7.833,1.186,5.181-2.687,10-5.647,14.516-8.873,13.536-9.9,32.714,1.981,44.215,2.888,2.8,6.55,5.247,7.775,8.939a20.668,20.668,0,0,1,.624,5.61c.441,9.55,6.46,20.008,16.667,21.607,5.665.887,12.393-.854,16.586,2.79,1.827,1.587,2.685,3.875,3.9,5.9,4.647,7.725,15.687,11.579,24.656,8.611s14.79-12.406,13-21.076c10.834-4.158,18.026-15.221,16.928-26.039,0,0-6.405-33.356-3.627-42.576s-4.815-28.291-9.052-37.528-.963-31.286-.431-40.017A29.33,29.33,0,0,0,94.63,76.7l0,.007-.01-.025c-.522-2.1-1.186-4.454-1.953-6.979a62.068,62.068,0,0,1-.586-7c-.3-8.222,8.324-14.478,16.893-12.2a23.536,23.536,0,0,0,6.379.792,22.99,22.99,0,0,0,17.7-8.685c8.38,7.515,21.417,10.238,32.422,6.771,4.848,5.662,9.773,11.395,16.05,15.692s14.175,7.064,21.866,5.948A54.19,54.19,0,0,0,189.156,36.7" transform="translate(0 11.857)" fill="#263238"/>
                    <path id="Trazado_559110" data-name="Trazado 559110" d="M146.633,48.762c-.106,0,0-1.291-.308-3.6a22.543,22.543,0,0,0-3.46-9.2,21.5,21.5,0,0,0-11.7-8.9A23.174,23.174,0,0,0,112.966,29l-.416.24-.326-.351a33.5,33.5,0,0,0-8.332-6.464,34.783,34.783,0,0,0-22.054-3.845,33.629,33.629,0,0,0-16.557,7.891,34.869,34.869,0,0,0-7.733,9.683c-1.361,2.605-1.855,4.169-1.971,4.129a4.412,4.412,0,0,1,.3-1.151,25.007,25.007,0,0,1,1.258-3.178,33.117,33.117,0,0,1,7.58-10.092,33.932,33.932,0,0,1,16.938-8.34A35.551,35.551,0,0,1,104.475,21.4a34.3,34.3,0,0,1,8.626,6.718l-.739-.111a24.1,24.1,0,0,1,19.123-1.9,22.049,22.049,0,0,1,12.034,9.462,21.733,21.733,0,0,1,3.221,9.548,15.4,15.4,0,0,1,.028,2.71,3.113,3.113,0,0,1-.135.93" transform="translate(36.881 11.295)" fill="#455a64"/>
                    <path id="Trazado_559111" data-name="Trazado 559111" d="M9.719,90.076c-.032-.281,5.55.017,14-2.391A55.672,55.672,0,0,0,51.6,69.333l1.241-1.582.173-.22.27-.022a31.6,31.6,0,0,0,16.469-6.329,33.286,33.286,0,0,0,9.388-10.812c3.911-7.275,3.482-12.634,3.822-12.548a2.765,2.765,0,0,1,.047.922,18.656,18.656,0,0,1-.171,2.649,28.141,28.141,0,0,1-2.96,9.348,33.164,33.164,0,0,1-9.458,11.278A32.2,32.2,0,0,1,53.37,68.671l.443-.241c-.4.512-.832,1.065-1.268,1.62A52.94,52.94,0,0,1,38.277,82.44a54.694,54.694,0,0,1-14.325,6.039,50.889,50.889,0,0,1-10.38,1.649c-1.238.088-2.206.028-2.858.03a3.2,3.2,0,0,1-.995-.082" transform="translate(6.451 25.101)" fill="#455a64"/>
                    <path id="Trazado_559112" data-name="Trazado 559112" d="M14.7,188.953a17.89,17.89,0,0,0,2.148,1.534,12.22,12.22,0,0,0,2.96,1.161,13.177,13.177,0,0,0,4.307.263,11.828,11.828,0,0,0,5.063-1.694,10.447,10.447,0,0,0,2.324-1.955,10.284,10.284,0,0,0,1.7-2.782,12.025,12.025,0,0,0,.541-7.079,11.172,11.172,0,0,0-4.267-6.608l-.639-.454.787,0a24.3,24.3,0,0,0,12.16-3.5,32.421,32.421,0,0,0,10.057-9.849c.724-1,1.289-2.115,1.927-3.2.534-1.135,1.15-2.248,1.586-3.449a34.8,34.8,0,0,0,2.141-7.458,56.382,56.382,0,0,0,.339-16.175c-.925-8.37-3.1-16.3-5.081-23.686l-.057-.21.181-.126A59.5,59.5,0,0,0,71.724,82.342a62.99,62.99,0,0,0,4.657-11.295c.466-1.843,1.056-3.587,1.329-5.322q.25-1.293.491-2.529c.16-.824.213-1.642.321-2.434a58.922,58.922,0,0,0-.045-14.95c-.183-1.744-.541-3.056-.672-3.963-.075-.428-.135-.767-.18-1.025a1.908,1.908,0,0,1-.043-.353s.524,1.843,1.108,5.311a57.144,57.144,0,0,1,.228,15.027c-.1.8-.15,1.622-.3,2.452s-.314,1.68-.476,2.549c-.263,1.75-.845,3.509-1.3,5.369A62.767,62.767,0,0,1,72.2,82.588a59.761,59.761,0,0,1-18.98,21.607l.126-.336c1.991,7.39,4.186,15.339,5.119,23.779a56.786,56.786,0,0,1-.354,16.351,35.462,35.462,0,0,1-2.188,7.582c-.446,1.22-1.073,2.351-1.619,3.5-.649,1.1-1.228,2.226-1.965,3.244a32.942,32.942,0,0,1-10.272,10,24.782,24.782,0,0,1-12.455,3.525l.148-.458a11.637,11.637,0,0,1,4.424,6.921,12.409,12.409,0,0,1-.616,7.332,10.115,10.115,0,0,1-4.213,4.876,12.025,12.025,0,0,1-5.219,1.682,13.189,13.189,0,0,1-4.389-.334,11.855,11.855,0,0,1-2.981-1.244,8.893,8.893,0,0,1-1.592-1.186c-.328-.306-.481-.476-.481-.476" transform="translate(9.755 26.861)" fill="#455a64"/>
                    <path id="Trazado_559113" data-name="Trazado 559113" d="M149.793,210.623a2.294,2.294,0,0,1,.351-.245c.261-.166.611-.389,1.058-.672a18.5,18.5,0,0,0,1.69-1.143,27.079,27.079,0,0,0,2.213-1.7,39.735,39.735,0,0,0,14.127-26.034,35.86,35.86,0,0,0-1.329-14.245,39.482,39.482,0,0,0-7.638-14.078,38.533,38.533,0,0,0-13.907-10.525l-.419-.188.323-.321a35.5,35.5,0,0,0,9.693-18.151,33.811,33.811,0,0,0,.709-6.793,31.778,31.778,0,0,0-.614-6.68,31.175,31.175,0,0,0-1.895-6.3,33.881,33.881,0,0,0-2.995-5.7,36.164,36.164,0,0,0-18.57-14.566l-.3-.1.138-.285a31.981,31.981,0,0,0,2.095-21.884,31.257,31.257,0,0,0-8.833-14.746,32.96,32.96,0,0,0-9.367-6.229c-1.2-.524-2.141-.88-2.788-1.086-.3-.106-.539-.188-.727-.253a1.315,1.315,0,0,1-.241-.1,23.88,23.88,0,0,1,3.827,1.279,32.245,32.245,0,0,1,9.525,6.149A31.412,31.412,0,0,1,134.967,60.9a32.356,32.356,0,0,1-2.033,22.244l-.165-.388a36.665,36.665,0,0,1,18.915,14.762,34.454,34.454,0,0,1,3.056,5.8,31.944,31.944,0,0,1,1.938,6.414,32.51,32.51,0,0,1,.629,6.8,34.534,34.534,0,0,1-.72,6.914,36.076,36.076,0,0,1-9.881,18.471l-.095-.511a39.05,39.05,0,0,1,14.117,10.718,39.9,39.9,0,0,1,7.7,14.3,36.247,36.247,0,0,1,1.286,14.453,39.687,39.687,0,0,1-14.473,26.15,25.956,25.956,0,0,1-2.256,1.669,16.9,16.9,0,0,1-1.729,1.1l-1.09.626a2.465,2.465,0,0,1-.379.195" transform="translate(74.709 25.621)" fill="#455a64"/>
                    <path id="Trazado_559114" data-name="Trazado 559114" d="M85.106,83.453A58.794,58.794,0,0,1,98.68,87.14l.043.116c-.408,3.141-1.2,6.6-3.86,8.372a6.8,6.8,0,0,1-6.793.228,7.493,7.493,0,0,1-3.963-5.231c-.474-2.308.331-4.973,1-7.172" transform="translate(55.729 55.389)" fill="#ff9b6c"/>
                    <path id="Trazado_559115" data-name="Trazado 559115" d="M92.387,96.514c.032.082-.369.371-1.239.516a5.811,5.811,0,0,1-3.607-.717,7.424,7.424,0,0,1-3.507-4.186,11.4,11.4,0,0,1-.058-6.583,8.883,8.883,0,0,1,.616-1.757,1.442,1.442,0,0,1,1.474-.667c.406.083.567.148.85.22l2.933.824,4.941,1.482c2.8.888,4.505,1.541,4.45,1.747s-1.862-.073-4.737-.692l-5.028-1.161L86.519,84.8l-.7-.173c-.045.116-.042-.3-.062-.25-.052-.012.253.243.163.2a12.16,12.16,0,0,0-.517,7.112,6.613,6.613,0,0,0,2.705,3.683c2.324,1.549,4.256.88,4.277,1.138" transform="translate(55.434 55.141)" fill="#263238"/>
                    <path id="Trazado_559116" data-name="Trazado 559116" d="M29.523,436.414H227.909l-4.682-78.986L216.2,262.714a97.266,97.266,0,0,0-18.03-49.555l-15.082-21-18.652-25-11.488-22.5L81.732,115.552l-8.8,18.158s-10.363,7.448-17.011,13.123c-12.909,11.022-20.459,25.54-24.763,41.867l-.125.479c-4.163,16.028-.918,39.18-.918,39.18L53.8,342.236A213.127,213.127,0,0,0,35.845,394.69c-1.012,5.053-4.2,25.222-6.322,41.724" transform="translate(19.191 76.694)" fill="#455a64"/>
                    <path id="Trazado_559117" data-name="Trazado 559117" d="M131.825,145.649a13.45,13.45,0,0,1-1.63-2.818q-1.617-3.262-3.975-8.016l1-.017c-2.148,5.286-4.82,11.857-7.806,19.209l-.288.705-.72-.293c-3.545-1.436-7.339-2.975-11.263-4.565-11.588-4.732-22.043-9.1-29.581-12.328l-8.893-3.9a15.391,15.391,0,0,1-3.178-1.632,15.688,15.688,0,0,1,3.416,1.061l9.087,3.437c7.648,2.966,18.171,7.167,29.759,11.9l11.242,4.622-1.007.413c3.148-7.285,5.961-13.8,8.224-19.038l.506-1.173.5,1.155q2.091,4.879,3.524,8.219a13.231,13.231,0,0,1,1.088,3.065" transform="translate(43.467 87.594)" fill="#263238"/>
                    <path id="Trazado_559118" data-name="Trazado 559118" d="M134.129,293.156a14.615,14.615,0,0,1-3.422-.619c-2.181-.487-5.3-1.319-9.132-2.457A226.63,226.63,0,0,1,65.04,264.151c-3.352-2.156-6.013-3.976-7.8-5.309a14.408,14.408,0,0,1-2.689-2.183,14.6,14.6,0,0,1,3.038,1.672q3.292,1.989,8.047,4.868a299.333,299.333,0,0,0,27.435,14.419,299.706,299.706,0,0,0,28.847,11.393l8.954,2.93a14.676,14.676,0,0,1,3.254,1.214" transform="translate(36.206 170.343)" fill="#263238"/>
                    <g id="Grupo_721000" data-name="Grupo 721000" transform="translate(57.214 306.569)" opacity="0.3">
                      <g id="Grupo_720999" data-name="Grupo 720999">
                        <g id="Grupo_720998" data-name="Grupo 720998" clip-path="url(#clip-path-10)">
                          <path id="Trazado_559119" data-name="Trazado 559119" d="M34.389,184.268s36.558,100.325,48.58,118.5,17.978,23.329,36.332,20.182,98.921-29.622,98.921-29.622l-1.178-16.433-74.589,15.769-43.04-8.843-39.3-60.511Z" transform="translate(-34.389 -184.268)"/>
                        </g>
                      </g>
                    </g>
                    <path id="Trazado_559120" data-name="Trazado 559120" d="M193.951,256.439l-4.059-6.622-19.7,4.682L140.4,261.155S123.107,160.364,98.124,144.2s-43.24-13.313-58.614,15.213-7.094,45.148-7.094,45.148S72.18,315.649,98.124,338.323s111.462-20.116,111.462-20.116l17.336-14.388Z" transform="translate(20.038 89.173)" fill="#455a64"/>
                    <path id="Trazado_559121" data-name="Trazado 559121" d="M194.262,256.734a5.655,5.655,0,0,1,.609.765c.414.571.973,1.339,1.7,2.333,1.512,2.125,3.692,5.189,6.515,9.157l24.523,34.871.235.334-.316.265c-5.227,4.367-11.055,9.234-17.289,14.441l-.048.04-.053.027a358.136,358.136,0,0,1-45.824,18.627,197.55,197.55,0,0,1-27.554,6.926,101.533,101.533,0,0,1-15.007,1.4,46.4,46.4,0,0,1-15.491-2.148,24.513,24.513,0,0,1-3.712-1.586l-1.8-.965c-.567-.376-1.1-.805-1.657-1.208a17.83,17.83,0,0,1-2.976-2.758L93.3,334.322c-1.747-2.066-3.287-4.3-4.956-6.472-1.637-2.189-2.991-4.574-4.514-6.875A315.691,315.691,0,0,1,67.778,291.27c-10.037-20.682-19.208-42.769-28.1-65.624-2.68-6.928-5.287-13.814-7.71-20.527l.037.085c-2.547-6.239-2.585-12.776-1.935-19.066a70.222,70.222,0,0,1,4.933-18.078,90.868,90.868,0,0,1,8.671-16.195,47.384,47.384,0,0,1,12.438-13.093,27.612,27.612,0,0,1,17.021-4.816A45,45,0,0,1,89.726,138.7c2.506,1.311,5,2.607,7.329,4.111a27.868,27.868,0,0,1,6.525,5.212,65.256,65.256,0,0,1,8.873,13.393,196.186,196.186,0,0,1,11.268,27.96c2.986,9.159,5.484,18.025,7.643,26.495,4.319,16.945,7.465,32.259,9.8,45.506l-.547-.364,30.421-6.668c8.239-1.895,14.642-3.366,19.126-4.4l.125-.03.062.106,2.978,5.016c.649,1.116.935,1.694.935,1.694s-.383-.514-1.083-1.6c-.724-1.145-1.755-2.775-3.123-4.935l.186.078c-4.469,1.1-10.849,2.665-19.061,4.682l-30.366,6.931-.463.1-.087-.469c-2.422-13.192-5.655-28.481-10.042-45.366-2.194-8.442-4.722-17.276-7.731-26.388a196.052,196.052,0,0,0-11.275-27.727,63.922,63.922,0,0,0-8.7-13.069,26.3,26.3,0,0,0-6.234-4.948c-2.3-1.479-4.748-2.742-7.207-4.023a43.615,43.615,0,0,0-16.02-4.565,26.084,26.084,0,0,0-16.083,4.587,45.922,45.922,0,0,0-12,12.694,89.458,89.458,0,0,0-8.507,15.928,68.724,68.724,0,0,0-4.813,17.67c-.655,6.053-.514,12.564,1.79,18.186l.037.086c2.416,6.686,5.024,13.573,7.7,20.487C50.055,247.9,59.2,269.967,69.189,290.6a315.854,315.854,0,0,0,15.932,29.584c1.5,2.278,2.847,4.655,4.455,6.813,1.637,2.131,3.156,4.351,4.858,6.372l2.724,2.85a16.859,16.859,0,0,0,2.835,2.647c.517.376,1.013.779,1.542,1.133l1.689.908a23.042,23.042,0,0,0,3.514,1.511,45.028,45.028,0,0,0,15,2.106,100.663,100.663,0,0,0,14.792-1.344,197.359,197.359,0,0,0,27.383-6.79,362.032,362.032,0,0,0,45.745-18.351l-.1.067,17.381-14.335-.082.6-24.18-35.118c-2.74-4.025-4.853-7.131-6.32-9.287l-1.594-2.4a5.769,5.769,0,0,1-.5-.834" transform="translate(19.727 88.878)" fill="#263238"/>
                    <path id="Trazado_559122" data-name="Trazado 559122" d="M88.147,261.313c-.19.008-.564-2.966-.454-7.806a82.936,82.936,0,0,1,9.6-36.3c2.3-4.272,4.1-6.683,4.259-6.583.216.128-1.231,2.734-3.243,7.077a104.467,104.467,0,0,0-9.488,35.87c-.4,4.762-.424,7.738-.677,7.745" transform="translate(58.19 139.79)" fill="#263238"/>
                    <path id="Trazado_559123" data-name="Trazado 559123" d="M153.114,270.106a10.6,10.6,0,0,1-2.189-1.983c-1.334-1.343-3.2-3.347-5.44-5.886A175.188,175.188,0,0,1,129.5,241.172a110.048,110.048,0,0,1-11.618-23.726,63.63,63.63,0,0,1-2.148-7.711,10.468,10.468,0,0,1-.428-2.906c.275-.065,1.253,3.986,3.644,10.24a130.634,130.634,0,0,0,11.906,23.259,236.989,236.989,0,0,0,15.5,21.191c4.241,5.236,6.938,8.43,6.758,8.588" transform="translate(76.511 137.274)" fill="#263238"/>
                    <path id="Trazado_559124" data-name="Trazado 559124" d="M213.282,239.61l23.019-6.635,28.559-10.789,22.666-12.29s1.98-1.958-.8-4.4-15.107,4.382-15.107,4.382l-9.759,3.637s-8.229.679-7.77-.095,13.222-6.943,13.222-6.943L289.1,194.622s6.146-3.181,4.239-7.252c-.908-1.938-3.173-3.088-7.354-1.482s-10.768,5.738-13.125,6.7-15.814,7.011-15.814,7.011l27.872-19.1s9.086-5.415,6.174-9.247-8.445.393-11.626,1.622-20.678,12.4-27.495,15.509c-5.846,2.66-4.439.451-4.439.451s9.254-5.718,16.551-10.225,12.837-8.982,8.084-11.947c-3.1-1.932-17.093,5.534-17.093,5.534L234.41,183.745l-9.849,4.356,8.207-7.35a27.911,27.911,0,0,0,8.976-11.178c2.878-7.109-2.948-7.345-2.948-7.345l-33.713,23.059c-5.246,4.584-11.428,26.644-11.428,26.644l-65.033,25.052,27.663,40Z" transform="translate(85.368 107.672)" fill="#ffc09d"/>
                    <path id="Trazado_559125" data-name="Trazado 559125" d="M213.482,239.782s-.319.238-.96.672l-2.862,1.918-11.139,7.384-41.9,27.616-.21.14-.145-.208-27.716-39.966L128.32,237l.384-.15,65.011-25.109-.233.255c1.271-4.42,2.74-8.961,4.46-13.553.878-2.288,1.8-4.594,2.888-6.861a22.943,22.943,0,0,1,4.186-6.427l.012-.012.025-.018,33.705-23.074.123-.085.13.012a4.923,4.923,0,0,1,2.877,1.173,4.054,4.054,0,0,1,1.254,2.9,12.583,12.583,0,0,1-1.762,5.871,28.631,28.631,0,0,1-8.171,9.35l.042-.033-8.205,7.35-.459-.71,9.848-4.356-.037.017,17.471-9.761a93.563,93.563,0,0,1,9.2-4.687c1.591-.7,3.2-1.363,4.865-1.925a16.179,16.179,0,0,1,5.249-1.071,3.022,3.022,0,0,1,1.351.343,6.96,6.96,0,0,1,1.035.8,2.943,2.943,0,0,1,.962,2.5,4.815,4.815,0,0,1-1.051,2.367,12.814,12.814,0,0,1-1.674,1.817,53.594,53.594,0,0,1-7.824,5.557l-16.02,9.9.136-.135c-.611.373.888.158,1.752-.2a27.429,27.429,0,0,0,2.855-1.218c1.87-.91,3.7-1.915,5.515-2.938,3.629-2.048,7.189-4.173,10.734-6.272l5.312-3.129a56.628,56.628,0,0,1,5.442-2.911c1.815-.77,3.572-1.865,5.53-2.554a8.356,8.356,0,0,1,3.113-.564,4.169,4.169,0,0,1,2.94,1.351,3.3,3.3,0,0,1,.877,3.129,6.806,6.806,0,0,1-1.549,2.745,22.183,22.183,0,0,1-4.6,3.911c-3.293,2.189-6.49,4.425-9.7,6.607q-9.6,6.568-18.85,12.9l-.389-.692,12.3-5.449c2.031-.932,4.054-1.705,5.944-2.77l5.718-3.121a39.717,39.717,0,0,1,5.908-2.68,8.934,8.934,0,0,1,3.271-.446,4.2,4.2,0,0,1,4.006,4.658,5.432,5.432,0,0,1-1.459,2.936,12.135,12.135,0,0,1-2.426,2.05c-.9.581-1.813,1.015-2.7,1.514-7.162,3.87-14.053,7.68-20.793,11.243-3.416,1.669-6.771,3.317-9.992,5.041a20.2,20.2,0,0,0-2.236,1.334c-.037.008-.053.088-.023-.082a.206.206,0,0,0-.062-.15c0-.008-.013-.012-.013-.012a1.232,1.232,0,0,0,.236.062,5.367,5.367,0,0,0,.636.067c.438.025.883.028,1.328.025,1.782-.022,3.56-.133,5.307-.266l-.085.02,9.763-3.627-.04.018a55.278,55.278,0,0,1,10.109-4.366,14.974,14.974,0,0,1,2.627-.531,3.734,3.734,0,0,1,2.692.559,4.557,4.557,0,0,1,1.5,2.223,2.844,2.844,0,0,1-.684,2.6l-.023.027-.04.02L265.17,222.563l-.015.007-.013.007L236.556,233.3l-.007,0,0,0-17.2,4.876-4.381,1.221c-.982.27-1.486.386-1.486.386s.481-.168,1.452-.461l4.352-1.3L236.458,233l-.012,0,28.531-10.859-.028.012q10.264-5.588,22.645-12.33l-.062.047a2.294,2.294,0,0,0,.527-2.071,4.02,4.02,0,0,0-1.331-1.927,3.231,3.231,0,0,0-2.266-.414,14.584,14.584,0,0,0-2.521.516,54.788,54.788,0,0,0-9.972,4.342l-.022.012-.02.007-9.754,3.65-.042.015-.043,0c-1.763.136-3.54.253-5.354.279-.454.005-.908,0-1.373-.023a5.788,5.788,0,0,1-.714-.075,1.707,1.707,0,0,1-.414-.12.876.876,0,0,1-.155-.11.471.471,0,0,1-.131-.3.419.419,0,0,1,.168-.346,15.677,15.677,0,0,1,2.431-1.506c3.239-1.742,6.59-3.4,10.007-5.074,6.7-3.564,13.606-7.4,20.753-11.27.885-.5,1.817-.95,2.64-1.486a11.418,11.418,0,0,0,2.273-1.923,4.717,4.717,0,0,0,1.276-2.539,3.452,3.452,0,0,0-3.331-3.818,8.211,8.211,0,0,0-2.986.419,39.079,39.079,0,0,0-5.773,2.634l-5.708,3.126c-1.922,1.085-4.02,1.893-6.009,2.81l-12.282,5.454-.388-.692q9.249-6.346,18.852-12.932c3.2-2.183,6.417-4.434,9.688-6.613a21.362,21.362,0,0,0,4.421-3.757,6.028,6.028,0,0,0,1.373-2.4,2.442,2.442,0,0,0-.674-2.364c-1.228-1.432-3.364-1.249-5.159-.566-1.86.651-3.569,1.72-5.494,2.542-3.6,1.68-7.087,3.938-10.639,5.991-3.544,2.1-7.106,4.229-10.748,6.287-1.82,1.028-3.658,2.038-5.565,2.966a27.864,27.864,0,0,1-2.943,1.254,7.915,7.915,0,0,1-1.62.423,1.428,1.428,0,0,1-1.091-.221.79.79,0,0,1-.251-.742,1.411,1.411,0,0,1,.2-.536l.047-.08.091-.057,16.018-9.9a53.206,53.206,0,0,0,7.691-5.457,11.982,11.982,0,0,0,1.562-1.7,3.967,3.967,0,0,0,.888-1.942,2.064,2.064,0,0,0-.712-1.8,6.148,6.148,0,0,0-.857-.665,2.239,2.239,0,0,0-.962-.228,15.532,15.532,0,0,0-4.926,1.027c-1.625.551-3.219,1.208-4.793,1.9a93.178,93.178,0,0,0-9.132,4.65c-5.943,3.321-11.786,6.583-17.466,9.756l-.018.01-.018.008-9.849,4.352-2.474,1.095,2.015-1.805,8.21-7.349.01-.01.032-.023a27.813,27.813,0,0,0,7.908-9.044,11.83,11.83,0,0,0,1.667-5.439,3.188,3.188,0,0,0-.978-2.314,4.118,4.118,0,0,0-2.344-.958l.253-.072-33.724,23.044.037-.028a22.447,22.447,0,0,0-4,6.167c-1.075,2.234-1.995,4.524-2.868,6.8-1.715,4.559-3.189,9.092-4.457,13.481l-.053.186-.178.068-65.053,25,.15-.487c10.22,14.824,19.474,28.245,27.608,40.041l-.354-.068L198.4,249.508l11.2-7.264,2.893-1.855c.651-.413.99-.607.99-.607" transform="translate(85.168 107.5)" fill="#ff9b6c"/>
                  </g>
                </g>
              </g>
            </g>
            <g id="Grupo_721014" data-name="Grupo 721014" transform="translate(-6974.688 103.224)">
              <g id="Grupo_721013" data-name="Grupo 721013" clip-path="url(#clip-path-11)">
                <g id="Grupo_721012" data-name="Grupo 721012">
                  <g id="Grupo_721011" data-name="Grupo 721011" clip-path="url(#clip-path-11)">
                    <path id="Trazado_559126" data-name="Trazado 559126" d="M108.764,192.755c.23,1.9-17.1,48.955-17.1,48.955L67.488,153.936l-33.441,7S43.114,282.22,48.979,298.619c6.262,17.507,42.873,30.593,63.336,6.864,5.857-6.789,24.549-50.131,24.549-50.131Z" transform="translate(22.223 100.474)" fill="#a26760"/>
                    <path id="Trazado_559127" data-name="Trazado 559127" d="M89.71,177.964s4.062-10.878.843-20.292S76.411,140.967,77.09,135.314s-5.122-19.2-10.353-18.132-9.1,6.171-4.674,14.874a111.919,111.919,0,0,1,6.983,17.7s-54.461-28.073-58.911-28.681-8.9-1.218-10.05,2.291,9.718,8,9.718,8l14.618,18.849s3.872,11.855,10.162,20.265,18.661,14.041,18.661,14.041l15.881,18.912s24.08-8.141,20.584-25.47" transform="translate(0 76.447)" fill="#a26760"/>
                    <path id="Trazado_559128" data-name="Trazado 559128" d="M6.494,127.091c.089.079.483-.319,1.339-.724A6.58,6.58,0,0,1,11.7,125.9c3.3.595,7.512,3.414,10.964,7.369a57.036,57.036,0,0,1,7.356,11.465c1.613,3.138,2.636,5.087,2.834,5,.178-.078-.494-2.163-1.876-5.441A44.906,44.906,0,0,0,23.8,132.3c-3.649-4.148-8.128-7.016-11.959-7.437a6.472,6.472,0,0,0-4.3,1.01c-.864.62-1.111,1.172-1.043,1.22" transform="translate(4.232 81.474)" fill="#7b4b45"/>
                    <path id="Trazado_559129" data-name="Trazado 559129" d="M18.57,130.482c-.2.355,3.305,2.727,7.84,5.3s8.379,4.368,8.584,4.013-3.3-2.725-7.84-5.3-8.379-4.368-8.584-4.013" transform="translate(12.115 85.136)" fill="#7b4b45"/>
                    <path id="Trazado_559130" data-name="Trazado 559130" d="M42.523,138.15c.175-.347-4.114-1.792-9.156-.084-5.062,1.651-7.6,5.365-7.249,5.537.324.306,3.119-2.651,7.725-4.133,4.576-1.57,8.609-.883,8.68-1.319" transform="translate(17.027 89.583)" fill="#7b4b45"/>
                    <path id="Trazado_559131" data-name="Trazado 559131" d="M130.491,130.027l18.871-8.154,64.925,1.689,24.366,10.245,4.922,62.34S151.246,229,150.879,229s-54.954-53.564-54.954-53.564Z" transform="translate(62.61 79.547)" fill="#a26760"/>
                    <path id="Trazado_559132" data-name="Trazado 559132" d="M111.65,152.761c.679.486,7.1,2.033,15.395,3.889A146.429,146.429,0,0,0,207,152.093l25.019-8.69s41.237,82.63,42.061,85.486-35.935,209.1-35.935,209.1H91.158l3.59-118.533s-2.474-108.928-2.063-110.153,18.965-56.546,18.965-56.546" transform="translate(59.499 93.6)" fill="#263238"/>
                    <path id="Trazado_559133" data-name="Trazado 559133" d="M185.293,117.221l-19.079,13.471c-14.674,4.659-40.757,13.567-48.672,21.4-11.956,11.832-27.628,91.345-27.628,91.345s-2.743-6.826-8.977-6.826L38.222,303.643s4.332,35.019,14.638,38.69,38.655,1.654,39.068,1.654h17.727L103.1,454.934l34.451.145,1.373-123.331,6.427-76.877,17.8-71.592Z" transform="translate(24.948 76.51)" fill="#455a64"/>
                    <path id="Trazado_559134" data-name="Trazado 559134" d="M85.652,166.814a8.684,8.684,0,0,1,.134,1.5q.072,1.609.193,4.3c.152,3.737.3,9.148.416,15.836.236,13.375.243,31.861-.365,52.265s-1.735,38.867-2.775,52.2c-.517,6.669-.988,12.061-1.367,15.783-.188,1.79-.339,3.215-.451,4.284a8.763,8.763,0,0,1-.223,1.487,8.713,8.713,0,0,1,.028-1.5c.066-1.073.155-2.5.268-4.3.256-3.829.616-9.2,1.058-15.8.863-13.342,1.869-31.79,2.487-52.184s.711-38.86.65-52.23c-.045-6.612-.081-12-.106-15.835,0-1.8-.008-3.233-.01-4.307a8.756,8.756,0,0,1,.063-1.5" transform="translate(52.996 108.88)" fill="#263238"/>
                    <path id="Trazado_559135" data-name="Trazado 559135" d="M85.406,170.623c-.263.061-1.469-4.036-2.694-9.151s-2.006-9.315-1.744-9.376,1.468,4.036,2.694,9.153,2.006,9.313,1.744,9.374" transform="translate(52.815 99.273)" fill="#263238"/>
                    <g id="Grupo_721010" data-name="Grupo 721010" transform="translate(130.987 279.122)" opacity="0.3">
                      <g id="Grupo_721009" data-name="Grupo 721009">
                        <g id="Grupo_721008" data-name="Grupo 721008" clip-path="url(#clip-path-13)">
                          <path id="Trazado_559136" data-name="Trazado 559136" d="M87.07,168.888q-.27,1.309-.534,2.62c-8.672,43.3-9.207,94.959-3.664,138.758,1.654.22,7.624-134.7,4.018-140.5" transform="translate(-79.256 -168.888)"/>
                        </g>
                      </g>
                    </g>
                    <path id="Trazado_559137" data-name="Trazado 559137" d="M251.314,166.729c-4.195-17.02-14.023-25.121-14.023-25.121l-42.9,55.756L210.53,439.017h62l-7.1-122.685s-9.924-132.583-14.119-149.6" transform="translate(126.877 92.428)" fill="#455a64"/>
                    <path id="Trazado_559138" data-name="Trazado 559138" d="M259.066,176.622l8.409-10.553S250.444,148.375,225.647,139c-12.1-4.575-30.616-12.927-30.616-12.927l-13.3-16.4-3.221,47.36s-2.35,104.633-4.006,123.592c-1.585,18.155-20.733,101.21-20.484,179.381l92.791-.15L226.174,338.3s8.435-77.477,8.963-80,23.929-81.67,23.929-81.67" transform="translate(100.526 71.585)" fill="#455a64"/>
                    <path id="Trazado_559139" data-name="Trazado 559139" d="M232.5,149.788c.2.174-6.517,8.262-15.011,18.064s-15.55,17.61-15.755,17.436,6.517-8.26,15.015-18.066,15.547-17.608,15.752-17.434" transform="translate(131.666 97.765)" fill="#263238"/>
                    <path id="Trazado_559140" data-name="Trazado 559140" d="M114.133,191.472a3.194,3.194,0,0,1-.149-.815c-.071-.626-.162-1.41-.273-2.372-.213-2.19-.507-5.194-.874-8.928l.512.169A137.031,137.031,0,0,0,97.289,202.14l-1.03,1.82.172-2.079a142.6,142.6,0,0,1,3.107-20.333c3.747-16.4,10.706-30.137,16.21-39.6,2.747-4.758,5.151-8.5,6.827-11.071.811-1.206,1.468-2.178,1.975-2.934a5.793,5.793,0,0,1,.745-.987,5.9,5.9,0,0,1-.578,1.091l-1.82,3.029c-1.575,2.631-3.886,6.419-6.548,11.205-5.337,9.525-12.142,23.206-15.859,39.478a147.591,147.591,0,0,0-3.143,20.191l-.858-.259a128.513,128.513,0,0,1,16.421-22.553l.466-.511.046.679c.251,3.742.454,6.753.6,8.949.048.967.088,1.754.121,2.385a3.168,3.168,0,0,1-.013.826" transform="translate(62.828 82.867)" fill="#263238"/>
                    <path id="Trazado_559141" data-name="Trazado 559141" d="M59.981,286.411a4.334,4.334,0,0,1,.36-.921c.309-.669.7-1.517,1.18-2.56.532-1.1,1.168-2.456,1.836-4.061s1.512-3.391,2.271-5.442c.8-2.033,1.677-4.261,2.484-6.7.884-2.413,1.649-5.049,2.5-7.809a171.35,171.35,0,0,0,4.145-18.312,172.044,172.044,0,0,0,1.92-18.679c.076-2.887.2-5.631.126-8.2.013-2.57-.1-4.96-.216-7.143-.066-2.185-.286-4.15-.418-5.882s-.293-3.219-.446-4.434c-.124-1.14-.225-2.068-.3-2.8a4.281,4.281,0,0,1-.048-.987,4.191,4.191,0,0,1,.22.96c.122.729.276,1.651.464,2.785.2,1.21.425,2.694.592,4.428s.443,3.7.547,5.9c.154,2.188.306,4.588.324,7.169.1,2.58.008,5.338-.048,8.24A161.652,161.652,0,0,1,75.6,240.747a161.779,161.779,0,0,1-4.233,18.393c-.871,2.77-1.666,5.411-2.585,7.824-.84,2.441-1.75,4.667-2.593,6.693-.8,2.044-1.676,3.826-2.4,5.411S62.4,282,61.824,283.077c-.542,1.015-.98,1.839-1.329,2.492a4.2,4.2,0,0,1-.514.841" transform="translate(39.148 125.633)" fill="#263238"/>
                    <path id="Trazado_559142" data-name="Trazado 559142" d="M186.575,119.6a8.1,8.1,0,0,1,.1,1.365q.04,1.46.107,3.914c.055,3.487.131,8.386.223,14.4.136,12.159.274,28.955.193,47.51-.045,4.158-.089,8.229-.132,12.175-.04,1.977-.083,3.915-.178,5.831-.026.481-.055.955-.106,1.443l-.053.38a1.889,1.889,0,0,1-.059.236.875.875,0,0,1-.061.126l-.02.031a.474.474,0,0,1-.116.1.456.456,0,0,1-.248.074,1.408,1.408,0,0,1-.212-.051,2.983,2.983,0,0,1-.7-.5c-.714-.648-1.352-1.319-1.987-1.987-5-5.386-9.308-10.495-13.048-14.891l.572-.164c-1.14,7.171-2.072,13.027-2.734,17.183-.334,1.968-.6,3.533-.793,4.685-.093.489-.169.887-.231,1.218a1.46,1.46,0,0,1-.111.41,1.378,1.378,0,0,1,.015-.423c.038-.336.083-.74.137-1.233q.231-1.74.621-4.712c.592-4.166,1.426-10.039,2.448-17.226l.1-.707.473.544c3.783,4.347,8.141,9.43,13.136,14.76.628.656,1.273,1.324,1.944,1.929a4.708,4.708,0,0,0,.426.335c0-.069-.069.127-.05.3.041.179-.177-.1-.337-.084l.023-.107.043-.321c.046-.451.073-.924.1-1.4.089-1.892.127-3.834.162-5.8.038-3.943.078-8.009.117-12.164.023-18.512.045-35.267.059-47.5.021-6.013.038-10.913.051-14.4q.032-2.462.053-3.919a8.2,8.2,0,0,1,.076-1.365" transform="translate(108.982 78.061)" fill="#263238"/>
                    <path id="Trazado_559143" data-name="Trazado 559143" d="M204.633,178.791a2.755,2.755,0,0,1,.007.564c-.015.415-.036.962-.063,1.654-.076,1.5-.183,3.636-.321,6.365-.319,5.583-.775,13.59-1.34,23.506-1.216,19.945-2.9,47.555-4.785,78.446l0-.1c.454,2.62.94,5.419,1.43,8.244,5.571,32.4,10.612,61.722,14.271,83,1.778,10.592,3.221,19.178,4.228,25.171.474,2.937.846,5.236,1.106,6.852.112.749.2,1.339.266,1.785a3.211,3.211,0,0,1,.063.613,3.3,3.3,0,0,1-.149-.6c-.088-.441-.2-1.028-.35-1.772-.3-1.608-.724-3.9-1.266-6.822-1.071-5.981-2.6-14.552-4.5-25.124-3.722-21.27-8.852-50.579-14.519-82.961-.489-2.824-.973-5.624-1.428-8.244l-.008-.051,0-.05c1.99-30.886,3.768-58.489,5.054-78.431.678-9.908,1.225-17.909,1.606-23.488.2-2.724.364-4.854.476-6.355.06-.691.107-1.236.144-1.649a3.011,3.011,0,0,1,.078-.559" transform="translate(128.76 116.697)" fill="#263238"/>
                    <path id="Trazado_559144" data-name="Trazado 559144" d="M137.7,23.318c-14.76.316-27.433,22.022-25.24,34.249,1.066,5.94,3.778,12.754-1.078,17.152-4.806,4.352-14.919,3.98-19.5,8.467,0,0-5.87,5.778-5.232,13.276s-.595,17.474-6.626,20.132l29.962,10.635c3.1-3.1,4.333-7.976,7.429-11.071-3.542,3.244-6.979,14.82,9.057,16.13l9.976-8.7c27.266,6.951,55.909,15.59,77.705,3.867" transform="translate(52.233 15.22)" fill="#263238"/>
                    <path id="Trazado_559145" data-name="Trazado 559145" d="M259.59,103.565c-1.967-5.616-5.194-10.8-6.555-16.588-2.924-12.445,2.97-26.618-3.358-37.756-4.5-7.928-13.865-11.683-22.695-14.2s-17.267-4.011-23.931-10.273c-4.887-4.593-7.738-10.987-12.61-15.6C183.5,2.582,173.386.494,163.79.083,153.935-.342,143.774.777,135,5.233s-15.983,12.661-17.385,22.323c-.684,4.71-.013,9.624-1.426,14.172-1.555,5-5.432,8.941-7.781,13.631-4.963,9.908-1.937,23.078,6.869,29.889l69.151,85.185c14.294,5.054,29.859-12.914,40.645-23.483s39.491-29.192,34.52-43.385" transform="translate(69.201 0)" fill="#263238"/>
                    <path id="Trazado_559146" data-name="Trazado 559146" d="M114.165,61.346c2.429-19.662,17.082-43.107,36.83-39.871l61.128,19.132c6,.983,9.211,5.733,8.735,11.733L208.253,198.366c.144.041-1.527,2.345-1.382,2.385,0,0-16.525,40.975-56.81,25.919-7.988-2.986-11.607-.218-12.7-9.363-1.745-.684-10.058-3.567-10.014-4.593l11-32.8c.569-11.962.921-15.595.906-15.484,0,0-25.23-4.747-28.554-37.951-1.654-16.512.772-43.288,3.471-65.133" transform="translate(71.898 13.819)" fill="#a26760"/>
                    <path id="Trazado_559147" data-name="Trazado 559147" d="M141.782,64.016a4.238,4.238,0,0,0,3.857,4.5,4.075,4.075,0,0,0,4.621-3.547,4.241,4.241,0,0,0-3.852-4.5,4.078,4.078,0,0,0-4.626,3.55" transform="translate(92.53 39.448)" fill="#263238"/>
                    <path id="Trazado_559148" data-name="Trazado 559148" d="M116.063,63.356a4.239,4.239,0,0,0,3.859,4.5,4.074,4.074,0,0,0,4.619-3.548,4.241,4.241,0,0,0-3.852-4.5,4.079,4.079,0,0,0-4.626,3.55" transform="translate(75.743 39.017)" fill="#263238"/>
                    <path id="Trazado_559149" data-name="Trazado 559149" d="M114.971,55.821c.476.764,4.395-1.785,9.366-1.159,4.976.544,8.216,3.935,8.852,3.3.309-.278-.1-1.6-1.5-3.127a11.4,11.4,0,0,0-14.54-1.712c-1.719,1.16-2.411,2.352-2.173,2.7" transform="translate(75.012 33.458)" fill="#263238"/>
                    <path id="Trazado_559150" data-name="Trazado 559150" d="M142.5,58.638c.6.7,4.446-2.168,9.782-2.038,5.337.048,9.174,3.044,9.772,2.365.293-.3-.291-1.552-1.968-2.907a13.02,13.02,0,0,0-7.8-2.743,12.686,12.686,0,0,0-7.809,2.479c-1.676,1.3-2.271,2.53-1.978,2.844" transform="translate(92.962 34.798)" fill="#263238"/>
                    <path id="Trazado_559151" data-name="Trazado 559151" d="M136.15,90.349c.036-.256-2.786-.911-7.373-1.763-1.164-.188-2.259-.483-2.41-1.286-.226-.854.337-2.074.985-3.391q1.9-4.11,3.99-8.625C136.9,62.995,141,52.862,140.5,52.645s-5.414,9.567-10.972,21.855c-1.342,3.033-2.624,5.922-3.846,8.688-.522,1.291-1.373,2.74-.879,4.514a2.938,2.938,0,0,0,1.826,1.808,8.068,8.068,0,0,0,1.973.388c4.636.519,7.52.707,7.553.45" transform="translate(81.359 34.359)" fill="#263238"/>
                    <path id="Trazado_559152" data-name="Trazado 559152" d="M127.949,111.47a85.485,85.485,0,0,0,45.22-9.161s-12.612,23.437-45.7,18.423Z" transform="translate(83.197 66.777)" fill="#7b4b45"/>
                    <path id="Trazado_559153" data-name="Trazado 559153" d="M142.57,48.336c.378,1.261,4.994.942,10.338,1.9,5.365.848,9.612,2.659,10.392,1.593.35-.509-.337-1.716-2.021-3.013a18.439,18.439,0,0,0-15.793-2.661c-2.023.673-3.076,1.585-2.915,2.182" transform="translate(93.045 29.642)" fill="#263238"/>
                    <path id="Trazado_559154" data-name="Trazado 559154" d="M115.858,45.766c.861,1.086,4.537.226,8.883.428,4.352.071,7.979,1.16,8.892.132.4-.5-.117-1.568-1.666-2.639a13.724,13.724,0,0,0-7.118-2.109,13.553,13.553,0,0,0-7.2,1.659c-1.6.97-2.165,2-1.788,2.529" transform="translate(75.548 27.133)" fill="#263238"/>
                    <path id="Trazado_559155" data-name="Trazado 559155" d="M264.857,84.366c-3.145-5.743,2.915-12.149-1.9-17.448-4.4-4.834-15.98-5-20.108-9.929-3.224-3.846-3.36-4.861-3.467-8.467-.134-4.517-2.195-23.5-30.19-27.356L205.3,38.414c-1.745-.81-3.56-1.512-5.348-2.16a308.788,308.788,0,0,0-70.7-16.486c-2.907,4.942-.017,11.544,4.571,15.021s10.42,4.78,15.868,6.685,11.05,4.894,13.374,10.128c2.472,5.568.592,12.245,2.778,17.927,3.762,9.777,17.7,12.7,21.4,22.5,2.8,7.411-1.418,15.426-2.368,23.283a28.7,28.7,0,0,0,9.1,24.291c5.269,4.778,14.226,13.446,14.845,11.706l74.943-46.383c4.3-10.407-14.6-12.7-18.909-20.565" transform="translate(83.603 12.903)" fill="#263238"/>
                    <path id="Trazado_559156" data-name="Trazado 559156" d="M123.562,108.9a4.105,4.105,0,0,1-.767.387,15.866,15.866,0,0,1-2.31.869,21.9,21.9,0,0,1-9.04.645,22.65,22.65,0,0,1-12.131-5.594,20.124,20.124,0,0,1-4.662-6.432,22.8,22.8,0,0,1-1.93-8.278,20.957,20.957,0,0,1,16.955-21.781,20.746,20.746,0,0,1,9.057.169,16.54,16.54,0,0,1,2.348.767,4.112,4.112,0,0,1,.783.352,4.168,4.168,0,0,1-.83-.226,21.3,21.3,0,0,0-22.511,5.91,20.857,20.857,0,0,0-5.132,14.783,22.342,22.342,0,0,0,1.859,8.039,19.655,19.655,0,0,0,4.485,6.252,22.617,22.617,0,0,0,20.677,5.147,20.7,20.7,0,0,0,2.33-.742,4.27,4.27,0,0,1,.818-.264" transform="translate(60.506 44.581)" fill="#e0e0e0"/>
                    <path id="Trazado_559157" data-name="Trazado 559157" d="M251.539,130.785a3.216,3.216,0,0,1,.183-.511,9.659,9.659,0,0,0,.516-1.487,13.2,13.2,0,0,0,.248-5.984,14.741,14.741,0,0,0-4.515-8.224,12.694,12.694,0,0,0-5.18-2.843c-2.049-.575-4.34-.764-6.646-1.55a9.01,9.01,0,0,1-3.229-1.866,8.782,8.782,0,0,1-2.158-3.226,19.165,19.165,0,0,1-.965-8.039,43.662,43.662,0,0,0,.109-8.541,10.928,10.928,0,0,0-1.408-4.128,10.248,10.248,0,0,0-3.16-3.168c-2.6-1.671-5.791-2.413-8.982-3.195s-6.593-1.547-9.541-3.5a11.37,11.37,0,0,1-3.624-3.828,15.983,15.983,0,0,1-1.755-5.019c-.678-3.5-.678-7.088-1.344-10.6A20.54,20.54,0,0,0,187.173,39.9c-3.163-1.235-6.56-1.311-9.858-1.635a23.16,23.16,0,0,1-4.879-.906A10.226,10.226,0,0,1,168.22,34.9c-2.337-2.345-3.143-5.477-4.162-8.207a20.626,20.626,0,0,0-4.305-7.288A21.906,21.906,0,0,0,146.3,12.587a19.931,19.931,0,0,0-12.247,2.62,22.586,22.586,0,0,0-7.037,6.446,20.439,20.439,0,0,0-2.7,5.411c-.25.65-.326,1.178-.438,1.519a3.112,3.112,0,0,1-.159.517,14.869,14.869,0,0,1,.468-2.076,19.65,19.65,0,0,1,2.616-5.517,22.608,22.608,0,0,1,7.064-6.619,20.271,20.271,0,0,1,12.488-2.768,22.369,22.369,0,0,1,13.813,6.917,21.134,21.134,0,0,1,4.449,7.462c1.031,2.758,1.856,5.8,4.044,7.973,2.18,2.2,5.492,2.874,8.723,3.167,3.251.316,6.74.382,10.027,1.658a21.179,21.179,0,0,1,13.341,15.663c.678,3.59.678,7.183,1.339,10.594a15.411,15.411,0,0,0,1.676,4.821,10.714,10.714,0,0,0,3.419,3.613c5.712,3.676,12.977,3.218,18.492,6.722a10.836,10.836,0,0,1,3.34,3.372,11.5,11.5,0,0,1,1.474,4.355,43.836,43.836,0,0,1-.139,8.654,18.691,18.691,0,0,0,.892,7.821,8.284,8.284,0,0,0,2.016,3.054,8.5,8.5,0,0,0,3.049,1.782c2.216.777,4.51.985,6.6,1.587a13.058,13.058,0,0,1,5.318,2.977,14.915,14.915,0,0,1,4.517,8.454,12.966,12.966,0,0,1-.373,6.064,8.292,8.292,0,0,1-.585,1.479,3.243,3.243,0,0,1-.245.483" transform="translate(80.748 7.834)" fill="#455a64"/>
                    <path id="Trazado_559158" data-name="Trazado 559158" d="M147.887,79.944a2.411,2.411,0,0,0-1.163-.926,2.781,2.781,0,0,0-1.729.279l-13.6,5.373c.362,7.54,5.142,10.457,8.723,10.523a9.809,9.809,0,0,0,8.728-5.208,9.608,9.608,0,0,0-.962-10.042" transform="translate(85.764 51.54)" fill="#7b4b45"/>
                    <path id="Trazado_559159" data-name="Trazado 559159" d="M138.546,95.124a13.707,13.707,0,0,0,5.885-.949,8.016,8.016,0,0,0,4.479-4.252,10.777,10.777,0,0,0-.074-7.647,10.47,10.47,0,0,0-1.639-2.828l.486.122c-4.616,1.853-8.769,3.251-11.771,4.152a27.273,27.273,0,0,1-4.874,1.23,38.885,38.885,0,0,1,4.7-1.762c2.945-1.04,7.044-2.53,11.625-4.406l.288-.117.2.24a11.109,11.109,0,0,1,1.788,3.058,11.35,11.35,0,0,1,.01,8.247,8.476,8.476,0,0,1-4.988,4.528,10.772,10.772,0,0,1-4.487.719,4.033,4.033,0,0,1-1.628-.334" transform="translate(85.529 51.346)" fill="#263238"/>
                  </g>
                </g>
              </g>
            </g>
          </g>
          <g id="Grupo_721268" data-name="Grupo 721268" transform="translate(9953.889 12584)">
            <path id="Trazado_558626" data-name="Trazado 558626" d="M10.185,0H300.471c5.625,0,10.185,2.73,10.185,6.1V65.856c0,3.368-4.56,6.1-10.185,6.1H10.185C4.56,71.954,0,69.224,0,65.856V6.1C0,2.73,4.56,0,10.185,0Z" transform="translate(-9610 -284.034)" fill="#81b5e0"/>
            <text id="Para_tomar_las_fotos_de_mis_productos_y_subirlas_a_las_redes_de_la_empresa." data-name="Para tomar las fotos de mis productos y subirlas a las redes de la empresa." transform="translate(-9586 -269.918)" fill="#12263f" font-size="15" font-family="Roboto-Regular, Roboto"><tspan x="0" y="16">Para tomar las fotos de mis productos </tspan><tspan x="0" y="38">y subirlas a las redes de la empresa.</tspan></text>
          </g>
        </g>
        <g id="Grupo_721269" data-name="Grupo 721269" transform="translate(9953.889 12584)">
          <path id="Trazado_558624" data-name="Trazado 558624" d="M8.738,0H257.762c4.826,0,8.738,2.786,8.738,6.222V67.2c0,3.436-3.912,6.222-8.738,6.222H8.738C3.912,73.419,0,70.633,0,67.2V6.222C0,2.786,3.912,0,8.738,0Z" transform="translate(-9699.889 -377.547)" fill="#81b5e0"/>
          <text id="Hola_chicos_no_se_si_comprar_una_cámara_o_un_celular._" data-name="Hola chicos no se si comprar una cámara o un celular.
" transform="translate(-9682.389 -363.431)" fill="#12263f" font-size="15" font-family="Roboto-Regular, Roboto"><tspan x="0" y="16">Hola chicos no se si comprar una </tspan><tspan x="0" y="38">cámara o un celular.</tspan></text>
        </g>
        <g id="Grupo_721270" data-name="Grupo 721270" transform="translate(10652.434 12584)">
          <path id="Trazado_558624-2" data-name="Trazado 558624" d="M8.738,0H257.762c4.826,0,8.738,2.786,8.738,6.222V67.2c0,3.436-3.912,6.222-8.738,6.222H8.738C3.912,73.419,0,70.633,0,67.2V6.222C0,2.786,3.912,0,8.738,0Z" transform="translate(-9699.889 -377.547)" fill="#e8e8e8"/>
          <text id="_Para_qué_es_" data-name="¿Para qué es?" transform="translate(-9679.389 -363.431)" fill="#12263f" font-size="15" font-family="Roboto-Regular, Roboto"><tspan x="0" y="16">¿Para qué es?</tspan></text>
        </g>
      </g>
    </g>
  </g>
</svg>
