<svg xmlns="http://www.w3.org/2000/svg" xmlns:xlink="http://www.w3.org/1999/xlink" width="1240" height="713" viewBox="0 0 1240 713">
  <defs>
    <clipPath id="clip-path">
      <rect id="Rectángulo_278342" data-name="Rectángulo 278342" width="1240" height="713" rx="16" fill="#ff9c8a" opacity="0.61"/>
    </clipPath>
    <clipPath id="clip-path-2">
      <rect id="Rectángulo_278341" data-name="Rectángulo 278341" width="1188" height="576" fill="#ca5cff" opacity="0.3"/>
    </clipPath>
    <clipPath id="clip-path-3">
      <rect id="Rectángulo_278340" data-name="Rectángulo 278340" width="1197.631" height="442.69" fill="none"/>
    </clipPath>
    <clipPath id="clip-path-4">
      <rect id="Rectángulo_277446" data-name="Rectángulo 277446" width="381.794" height="557.614" fill="none"/>
    </clipPath>
    <clipPath id="clip-path-6">
      <rect id="Rectángulo_277443" data-name="Rectángulo 277443" width="68.777" height="52.553" fill="none"/>
    </clipPath>
    <clipPath id="clip-path-7">
      <rect id="Rectángulo_277444" data-name="Rectángulo 277444" width="8.329" height="168.818" fill="none"/>
    </clipPath>
    <clipPath id="clip-path-8">
      <rect id="Rectángulo_277449" data-name="Rectángulo 277449" width="379.425" height="513.108" fill="none"/>
    </clipPath>
    <clipPath id="clip-path-10">
      <rect id="Rectángulo_277447" data-name="Rectángulo 277447" width="183.833" height="139.546" fill="none"/>
    </clipPath>
  </defs>
  <g id="Grupo_721996" data-name="Grupo 721996" transform="translate(3504 -3919)">
    <g id="Grupo_722357" data-name="Grupo 722357">
      <g id="Enmascarar_grupo_699932" data-name="Enmascarar grupo 699932" transform="translate(-3504 3919)" clip-path="url(#clip-path)">
        <path id="Trazado_560729" data-name="Trazado 560729" d="M1224,0H16A16,16,0,0,0,0,16V697a16,16,0,0,0,16,16H1224a16,16,0,0,0,16-16V16A16,16,0,0,0,1224,0Z" fill="#e7eff8"/>
        <g id="Enmascarar_grupo_699931" data-name="Enmascarar grupo 699931" transform="translate(26 137)" opacity="0.76" clip-path="url(#clip-path-2)">
          <g id="Grupo_721337" data-name="Grupo 721337" transform="translate(0 -21.753)">
            <rect id="Rectángulo_278307" data-name="Rectángulo 278307" width="58.037" height="115.041" transform="translate(1139.594 106.304)" fill="#f5f5f5"/>
            <rect id="Rectángulo_278308" data-name="Rectángulo 278308" width="62.708" height="115.041" transform="translate(1074.655 106.304)" fill="#f5f5f5"/>
            <rect id="Rectángulo_278309" data-name="Rectángulo 278309" width="62.708" height="111.154" transform="translate(1074.655 229.383)" fill="#f5f5f5"/>
            <path id="Trazado_560730" data-name="Trazado 560730" d="M197.168,0V104.315H131.131V2.263H128.9V104.315H75.156V0Z" transform="translate(869.45 0)" fill="#f5f5f5"/>
            <rect id="Rectángulo_278310" data-name="Rectángulo 278310" width="53.743" height="115.041" transform="translate(944.605 106.304)" fill="#f5f5f5"/>
            <rect id="Rectángulo_278311" data-name="Rectángulo 278311" width="53.743" height="111.154" transform="translate(944.605 229.383)" fill="#f5f5f5"/>
            <rect id="Rectángulo_278312" data-name="Rectángulo 278312" width="58.037" height="111.154" transform="translate(1139.594 229.383)" fill="#f5f5f5"/>
            <rect id="Rectángulo_278313" data-name="Rectángulo 278313" width="66.038" height="111.154" transform="translate(1000.581 229.383)" fill="#f5f5f5"/>
            <rect id="Rectángulo_278314" data-name="Rectángulo 278314" width="58.037" height="100.165" transform="translate(1139.594 342.526)" fill="#f5f5f5"/>
            <rect id="Rectángulo_278315" data-name="Rectángulo 278315" width="53.741" height="100.165" transform="translate(944.606 342.526)" fill="#f5f5f5"/>
            <path id="Trazado_560731" data-name="Trazado 560731" d="M122.976,0V104.315H64.94V2.263H62.707V104.315H0V0Z" transform="translate(1074.655 0)" fill="#f5f5f5"/>
            <rect id="Rectángulo_278316" data-name="Rectángulo 278316" width="66.038" height="100.165" transform="translate(1000.581 342.526)" fill="#f5f5f5"/>
            <rect id="Rectángulo_278317" data-name="Rectángulo 278317" width="62.707" height="100.165" transform="translate(1074.655 342.526)" fill="#f5f5f5"/>
            <rect id="Rectángulo_278318" data-name="Rectángulo 278318" width="66.038" height="115.041" transform="translate(1000.581 106.304)" fill="#f5f5f5"/>
            <rect id="Rectángulo_278319" data-name="Rectángulo 278319" width="136.868" height="142.673" transform="translate(742.55 62.904)" fill="#e0e0e0"/>
            <rect id="Rectángulo_278320" data-name="Rectángulo 278320" width="136.866" height="142.673" transform="translate(751.82 62.904)" fill="#fafafa"/>
            <path id="Trazado_560732" data-name="Trazado 560732" d="M177.2,178.817H314.155V36.061H177.2Zm136.868-.085H177.289V36.145H314.072Z" transform="translate(574.572 26.801)" fill="#e0e0e0"/>
            <rect id="Rectángulo_278321" data-name="Rectángulo 278321" width="100.069" height="104.313" transform="translate(770.218 82.083)" fill="#fff"/>
            <g id="Grupo_721336" data-name="Grupo 721336" transform="translate(0 0)">
              <g id="Grupo_721335" data-name="Grupo 721335" clip-path="url(#clip-path-3)">
                <path id="Trazado_560733" data-name="Trazado 560733" d="M177.308,107.328a16.39,16.39,0,0,0,2.47,2.871c1.6,1.686,3.844,3.969,6.361,6.448s4.83,4.689,6.537,6.258a16.031,16.031,0,0,0,2.892,2.409,15.829,15.829,0,0,0-2.456-2.859c-1.6-1.687-3.849-3.975-6.375-6.462s-4.843-4.7-6.549-6.269a15.6,15.6,0,0,0-2.88-2.4" transform="translate(692.98 79.762)" fill="#e0e0e0"/>
                <path id="Trazado_560734" data-name="Trazado 560734" d="M263.176,107.18a16.343,16.343,0,0,0-2.871,2.468c-1.687,1.6-3.969,3.846-6.45,6.363s-4.689,4.83-6.256,6.537a15.867,15.867,0,0,0-2.409,2.892,15.994,15.994,0,0,0,2.859-2.456c1.686-1.6,3.974-3.851,6.462-6.375s4.7-4.844,6.269-6.549a15.782,15.782,0,0,0,2.4-2.88" transform="translate(507.041 79.653)" fill="#e0e0e0"/>
                <path id="Trazado_560735" data-name="Trazado 560735" d="M263.294,54.918a16.314,16.314,0,0,0-2.47-2.871c-1.6-1.687-3.844-3.969-6.361-6.448s-4.83-4.689-6.537-6.258a15.938,15.938,0,0,0-2.892-2.409,15.829,15.829,0,0,0,2.456,2.859c1.6,1.687,3.849,3.975,6.375,6.462s4.843,4.7,6.549,6.269a15.6,15.6,0,0,0,2.88,2.4" transform="translate(507.197 27.443)" fill="#e0e0e0"/>
                <path id="Trazado_560736" data-name="Trazado 560736" d="M177.31,55.181a16.313,16.313,0,0,0,2.871-2.47c1.686-1.6,3.969-3.844,6.448-6.361s4.691-4.83,6.258-6.537a15.937,15.937,0,0,0,2.409-2.892,15.832,15.832,0,0,0-2.859,2.456c-1.687,1.6-3.974,3.851-6.462,6.375s-4.7,4.844-6.269,6.551a15.493,15.493,0,0,0-2.4,2.878" transform="translate(693.252 27.436)" fill="#e0e0e0"/>
                <path id="Trazado_560737" data-name="Trazado 560737" d="M187.915,151.589a5,5,0,0,0,.021-.507c.007-.356.014-.835.023-1.456.01-1.307.026-3.188.045-5.631.023-4.942.057-12.131.1-21.26.047-18.271.115-44.3.2-75.46l-.385.385,99.786.058h.009l-.443-.443c.023,38.288.045,74.105.063,104.313l.38-.38c-29.9.08-54.8.148-72.258.193l-20.3.1-5.371.045-1.388.021a4.531,4.531,0,0,0-.483.021,3.27,3.27,0,0,0,.441.021c.329.007.774.012,1.346.023q1.849.013,5.3.044l20.211.1,72.5.193.38,0,0-.382c.017-30.208.04-66.026.063-104.313v-.443H287.7c-36.443.019-70.656.04-99.786.056h-.387v.387c.082,31.266.15,57.378.2,75.707.044,9.091.078,16.252.1,21.171.019,2.411.035,4.267.045,5.557.009.6.016,1.069.021,1.414a3.743,3.743,0,0,0,.023.464" transform="translate(582.577 34.807)" fill="#e0e0e0"/>
                <rect id="Rectángulo_278322" data-name="Rectángulo 278322" width="33.391" height="33.391" transform="translate(803.557 117.544)" fill="#ebebeb"/>
                <rect id="Rectángulo_278323" data-name="Rectángulo 278323" width="136.868" height="142.673" transform="translate(291.691 62.872)" fill="#e0e0e0"/>
                <rect id="Rectángulo_278324" data-name="Rectángulo 278324" width="136.868" height="142.673" transform="translate(300.959 62.872)" fill="#fafafa"/>
                <path id="Trazado_560738" data-name="Trazado 560738" d="M435.842,178.8H572.793V36.042H435.842Zm136.866-.084H435.926V36.129H572.708Z" transform="translate(-134.925 26.787)" fill="#e0e0e0"/>
                <rect id="Rectángulo_278325" data-name="Rectángulo 278325" width="100.07" height="104.313" transform="translate(319.359 82.053)" fill="#fff"/>
                <path id="Trazado_560739" data-name="Trazado 560739" d="M435.947,107.311a16.385,16.385,0,0,0,2.47,2.871c1.6,1.686,3.842,3.969,6.359,6.448s4.832,4.689,6.539,6.258a16.033,16.033,0,0,0,2.892,2.409,15.825,15.825,0,0,0-2.456-2.859c-1.6-1.687-3.851-3.975-6.375-6.462s-4.844-4.7-6.549-6.269a15.6,15.6,0,0,0-2.88-2.4" transform="translate(-16.52 79.749)" fill="#e0e0e0"/>
                <path id="Trazado_560740" data-name="Trazado 560740" d="M521.814,107.163a16.338,16.338,0,0,0-2.871,2.468c-1.687,1.6-3.969,3.846-6.448,6.363s-4.691,4.83-6.258,6.537a15.868,15.868,0,0,0-2.409,2.892,16,16,0,0,0,2.859-2.456c1.686-1.6,3.975-3.851,6.462-6.375s4.7-4.844,6.269-6.549a15.6,15.6,0,0,0,2.4-2.88" transform="translate(-202.455 79.641)" fill="#e0e0e0"/>
                <path id="Trazado_560741" data-name="Trazado 560741" d="M521.932,54.9a16.324,16.324,0,0,0-2.47-2.871c-1.6-1.687-3.844-3.969-6.361-6.448s-4.83-4.689-6.537-6.258a15.866,15.866,0,0,0-2.892-2.409,15.928,15.928,0,0,0,2.456,2.859c1.6,1.687,3.849,3.975,6.375,6.462s4.844,4.7,6.549,6.269a15.6,15.6,0,0,0,2.88,2.4" transform="translate(-202.299 27.43)" fill="#e0e0e0"/>
                <path id="Trazado_560742" data-name="Trazado 560742" d="M435.949,55.163a16.313,16.313,0,0,0,2.871-2.47c1.686-1.6,3.969-3.844,6.448-6.361s4.689-4.83,6.258-6.537a15.935,15.935,0,0,0,2.409-2.892,15.835,15.835,0,0,0-2.859,2.456c-1.687,1.6-3.974,3.851-6.462,6.375s-4.7,4.844-6.269,6.551a15.5,15.5,0,0,0-2.4,2.878" transform="translate(-16.248 27.423)" fill="#e0e0e0"/>
                <path id="Trazado_560743" data-name="Trazado 560743" d="M446.553,151.572a5.017,5.017,0,0,0,.021-.507c.007-.356.014-.835.023-1.456.01-1.307.026-3.188.045-5.631.023-4.942.057-12.131.1-21.26.047-18.271.115-44.3.2-75.46l-.385.385,99.786.058h.009l-.443-.443c.023,38.288.045,74.105.063,104.313l.38-.38c-29.9.08-54.8.148-72.258.193l-20.3.1-5.371.045-1.388.021a4.529,4.529,0,0,0-.483.021,3.265,3.265,0,0,0,.441.021c.329.007.774.012,1.346.023q1.849.013,5.3.044l20.211.1,72.5.193.38,0,0-.382c.017-30.208.04-66.026.063-104.313v-.443h-.453c-36.443.019-70.656.04-99.786.056h-.387v.387c.082,31.266.15,57.378.2,75.707.044,9.091.078,16.252.1,21.173.019,2.409.035,4.266.045,5.556.009.6.017,1.069.021,1.414a3.729,3.729,0,0,0,.023.464" transform="translate(-126.921 34.794)" fill="#e0e0e0"/>
                <rect id="Rectángulo_278326" data-name="Rectángulo 278326" width="33.391" height="33.391" transform="translate(352.698 117.513)" fill="#ebebeb"/>
                <rect id="Rectángulo_278327" data-name="Rectángulo 278327" width="12.323" height="264.927" transform="translate(486.924 40.69)" fill="#e0e0e0"/>
                <path id="Trazado_560744" data-name="Trazado 560744" d="M474.964,24.7V287.587a.179.179,0,0,1-.178.178H298.275a.177.177,0,0,1-.178-.178V24.7a.177.177,0,0,1,.178-.178H474.787a.179.179,0,0,1,.178.178" transform="translate(203.022 18.222)" fill="#f5f5f5"/>
                <path id="Trazado_560745" data-name="Trazado 560745" d="M297.1,290.687H477.712a.179.179,0,0,0,.178-.178V23.52a.179.179,0,0,0-.178-.178H297.1a.179.179,0,0,0-.178.178V290.509a.179.179,0,0,0,.178.178m176.513-4.1H301.2a.177.177,0,0,1-.178-.178V27.618a.177.177,0,0,1,.178-.178H473.613a.179.179,0,0,1,.178.178V286.411a.179.179,0,0,1-.178.178" transform="translate(202.146 17.348)" fill="#ebebeb"/>
                <path id="Trazado_560746" data-name="Trazado 560746" d="M449.875,34.012V264.249a.179.179,0,0,1-.178.178H308.491a.177.177,0,0,1-.178-.178V34.012a.177.177,0,0,1,.178-.178H449.7a.179.179,0,0,1,.178.178" transform="translate(210.303 25.146)" fill="#fff"/>
                <path id="Trazado_560747" data-name="Trazado 560747" d="M326.141,164.5H405.4a.113.113,0,0,0,.113-.112V71.447a.113.113,0,0,0-.113-.112H326.141a.112.112,0,0,0-.112.112v92.941a.112.112,0,0,0,.112.112" transform="translate(223.78 53.017)" fill="#ebebeb"/>
                <path id="Trazado_560748" data-name="Trazado 560748" d="M326.8,149.545c-.1.3,3.821,2.019,11.286,1.144a27.594,27.594,0,0,0,12.685-5.071,25.734,25.734,0,0,0,9.856-15.5,22.285,22.285,0,0,0-7.538-21.194,19.8,19.8,0,0,0-5.716-3.349,15.219,15.219,0,0,0-7.151-.825,12.6,12.6,0,0,0-7.149,3.122,9.329,9.329,0,0,0-2.819,8.329,13.6,13.6,0,0,0,3.924,7.149,25.872,25.872,0,0,0,5.988,4.412,32.8,32.8,0,0,0,14.286,4.079,28.4,28.4,0,0,0,15.223-3.466,27.67,27.67,0,0,0,11.2-11.611,23.681,23.681,0,0,0,2.01-16.264,24.176,24.176,0,0,0-8.573-13.4,21.129,21.129,0,0,0-7.186-3.628,17.874,17.874,0,0,0-8.092-.253A13.191,13.191,0,0,0,351.7,87.36a12.179,12.179,0,0,0-2.878,7.848,14.935,14.935,0,0,0,1.914,7.475,20.011,20.011,0,0,0,4.532,5.449,30.509,30.509,0,0,0,11.261,5.983,28.89,28.89,0,0,0,11.847.915,24.26,24.26,0,0,0,10.309-3.95,22.328,22.328,0,0,0,9.847-15.6,18.841,18.841,0,0,0-3.649-13.372,15.978,15.978,0,0,0-6.748-5.392c-1.858-.7-2.915-.678-2.962-.5-.078.253.84.662,2.346,1.667a17.584,17.584,0,0,1,5.247,5.641,16.665,16.665,0,0,1,2.149,11.421,18.706,18.706,0,0,1-8.756,12.262c-4.815,3.059-11.571,3.847-18.06,1.721a25.415,25.415,0,0,1-9.039-5.113c-2.6-2.332-4.368-5.331-4.22-8.47.084-3.146,2.066-5.364,5.441-6.011a11.719,11.719,0,0,1,5.195.246,14.95,14.95,0,0,1,4.905,2.568A17.9,17.9,0,0,1,376.563,102a17.22,17.22,0,0,1-1.518,11.812,21.368,21.368,0,0,1-8.552,8.889,22.146,22.146,0,0,1-11.767,2.739,26.781,26.781,0,0,1-11.571-3.164,19.956,19.956,0,0,1-4.618-3.255,7.8,7.8,0,0,1-2.343-3.818,3.333,3.333,0,0,1,.947-3.073,6.918,6.918,0,0,1,3.828-1.686,9.652,9.652,0,0,1,4.506.383,14.432,14.432,0,0,1,4.2,2.3,17.472,17.472,0,0,1,6.4,16.207,22.328,22.328,0,0,1-7.574,13.417,26.7,26.7,0,0,1-10.886,5.434c-6.724,1.564-10.759.79-10.811,1.356" transform="translate(229.302 56.568)" fill="#e0e0e0"/>
                <rect id="Rectángulo_278328" data-name="Rectángulo 278328" width="58.036" height="115.041" transform="translate(194.988 106.304)" fill="#f5f5f5"/>
                <rect id="Rectángulo_278329" data-name="Rectángulo 278329" width="62.708" height="115.041" transform="translate(130.048 106.304)" fill="#f5f5f5"/>
                <rect id="Rectángulo_278330" data-name="Rectángulo 278330" width="62.708" height="111.154" transform="translate(130.048 229.383)" fill="#f5f5f5"/>
                <path id="Trazado_560749" data-name="Trazado 560749" d="M739.047,104.315H673.009V2.264h-2.233V104.315H617.035V0H739.047Z" transform="translate(-617.035 0)" fill="#f5f5f5"/>
                <rect id="Rectángulo_278331" data-name="Rectángulo 278331" width="53.743" height="115.041" transform="translate(0 106.304)" fill="#f5f5f5"/>
                <rect id="Rectángulo_278332" data-name="Rectángulo 278332" width="53.743" height="111.154" transform="translate(0 229.383)" fill="#f5f5f5"/>
                <rect id="Rectángulo_278333" data-name="Rectángulo 278333" width="58.036" height="111.154" transform="translate(194.988 229.383)" fill="#f5f5f5"/>
                <rect id="Rectángulo_278334" data-name="Rectángulo 278334" width="66.038" height="111.154" transform="translate(55.974 229.383)" fill="#f5f5f5"/>
                <rect id="Rectángulo_278335" data-name="Rectángulo 278335" width="58.036" height="100.163" transform="translate(194.988 342.528)" fill="#f5f5f5"/>
                <rect id="Rectángulo_278336" data-name="Rectángulo 278336" width="53.743" height="100.163" transform="translate(0 342.528)" fill="#f5f5f5"/>
                <path id="Trazado_560750" data-name="Trazado 560750" d="M606.819,104.315V2.264h-2.231V104.315H541.879V0H664.855V104.315Z" transform="translate(-411.831 0)" fill="#f5f5f5"/>
                <rect id="Rectángulo_278337" data-name="Rectángulo 278337" width="66.038" height="100.163" transform="translate(55.974 342.528)" fill="#f5f5f5"/>
                <rect id="Rectángulo_278338" data-name="Rectángulo 278338" width="62.708" height="100.163" transform="translate(130.048 342.528)" fill="#f5f5f5"/>
                <rect id="Rectángulo_278339" data-name="Rectángulo 278339" width="66.038" height="115.041" transform="translate(55.974 106.304)" fill="#f5f5f5"/>
              </g>
            </g>
          </g>
          <g id="Grupo_721338" data-name="Grupo 721338" transform="translate(-26 153.139)">
            <path id="Trazado_560751" data-name="Trazado 560751" d="M-15872.821-10070.38s-158.984-126.318-358.218-145.353-218.379,66.726-299.129,113.469-123.578,40.792-123.578,40.792v265.889h1241.367l.951-351.067s-21.275,68.293-42.975,75.477c-5.354,1.773-4.564,93-43.611,147.709-37.9,53.106-120.469,74.786-168.943,73.866-51.051-.97-129.6-34.172-168.1-88.639C-15874.225-9993.67-15872.821-10070.38-15872.821-10070.38Z" transform="translate(16653.746 10218.444)" fill="#13a0ff" opacity="0.12"/>
            <path id="Trazado_560752" data-name="Trazado 560752" d="M-15414.777-9856.1l-.469,56.52h-1239.531v-89.21s81.977,32.751,187.086,21.568,176.466-42.747,312.081-48.139,394.042,77.45,471.778,83.7C-15498.738-9816.787-15414.777-9856.1-15414.777-9856.1Z" transform="translate(16654.777 10222.444)" fill="#147dc4" opacity="0.11"/>
          </g>
        </g>
      </g>
      <g id="Grupo_721233" data-name="Grupo 721233" transform="translate(4205 -659)">
        <g id="Grupo_721088" data-name="Grupo 721088" transform="translate(-7016.455 4732.954)">
          <g id="Grupo_720996" data-name="Grupo 720996" clip-path="url(#clip-path-4)">
            <g id="Grupo_720995" data-name="Grupo 720995">
              <g id="Grupo_720994" data-name="Grupo 720994" clip-path="url(#clip-path-4)">
                <path id="Trazado_559058" data-name="Trazado 559058" d="M167.884,12.038a14.863,14.863,0,0,0-15.232-7.766,20.42,20.42,0,0,0-24.944-.038,18.547,18.547,0,0,0-17.756-.7,18.179,18.179,0,0,0-9.723,14.718,15.521,15.521,0,0,0-15.889,7.534,15.183,15.183,0,0,0,2.219,17.3A14.817,14.817,0,0,0,76.541,59.529C77.9,66.415,85.012,71.69,92.071,71.047l72.764-42.324a14.548,14.548,0,0,0,3.048-16.685" transform="translate(50.238 0.001)" fill="#263238"/>
                <path id="Trazado_559059" data-name="Trazado 559059" d="M86.929,65.709c3.227-31.5,30.36-55.261,62.348-54.608l3.179.065c34.231,2.68,51.055,32.946,47.4,66.734l-7.315,112.838-4.993,14.108-58.971,73.126-14.864-65.877-.284-30.586s-32.843-5.741-32.571-38.347c.133-15.748,3.068-48.153,6.071-77.452" transform="translate(53.236 7.3)" fill="#ffc09d"/>
                <path id="Trazado_559060" data-name="Trazado 559060" d="M100.522,118.533s20.7,1.582,43.112-11.722c0,0-10.581,23.315-43.077,19.81Z" transform="translate(66.184 70.324)" fill="#ff9b6c"/>
                <path id="Trazado_559061" data-name="Trazado 559061" d="M89.163,63.3A4.675,4.675,0,0,0,93.6,68.087a4.487,4.487,0,0,0,4.937-4.1A4.678,4.678,0,0,0,94.1,59.2a4.491,4.491,0,0,0-4.942,4.1" transform="translate(58.7 38.966)" fill="#263238"/>
                <path id="Trazado_559062" data-name="Trazado 559062" d="M88.373,56.593c.571.619,4.187-1.919,9.251-1.8,5.058.045,8.72,2.7,9.28,2.1.275-.267-.3-1.375-1.889-2.572a12.99,12.99,0,0,0-7.415-2.43,12.5,12.5,0,0,0-7.378,2.192c-1.582,1.151-2.131,2.239-1.849,2.516" transform="translate(58.138 34.16)" fill="#263238"/>
                <path id="Trazado_559063" data-name="Trazado 559063" d="M116.493,64.815a4.675,4.675,0,0,0,4.438,4.788,4.485,4.485,0,0,0,4.937-4.1,4.68,4.68,0,0,0-4.435-4.793,4.49,4.49,0,0,0-4.94,4.1" transform="translate(76.694 39.964)" fill="#263238"/>
                <path id="Trazado_559064" data-name="Trazado 559064" d="M117.583,56.765c.572.622,4.194-1.915,9.252-1.8,5.056.046,8.72,2.7,9.282,2.095.275-.264-.29-1.371-1.891-2.572a13.017,13.017,0,0,0-7.413-2.426,12.474,12.474,0,0,0-7.38,2.192c-1.577,1.148-2.129,2.236-1.851,2.512" transform="translate(77.371 34.276)" fill="#263238"/>
                <path id="Trazado_559065" data-name="Trazado 559065" d="M112.127,93.633c.03-.285-3.106-.887-8.191-1.637-1.29-.158-2.507-.436-2.708-1.315-.285-.93.285-2.3.942-3.775q1.92-4.6,4.025-9.662c5.6-13.76,9.678-25.085,9.116-25.3S109.755,62.7,104.16,76.46q-2.025,5.09-3.867,9.723c-.519,1.444-1.395,3.076-.774,5.007A3.229,3.229,0,0,0,101.6,93.1a8.813,8.813,0,0,0,2.189.347c5.126.378,8.309.466,8.333.182" transform="translate(65.382 34.197)" fill="#263238"/>
                <path id="Trazado_559066" data-name="Trazado 559066" d="M117.714,48.118c.575,1.312,4.959.234,10.254.428,5.3.075,9.685,1.376,10.257.093.25-.614-.61-1.816-2.446-2.962a15.931,15.931,0,0,0-7.818-2.211,15.345,15.345,0,0,0-7.809,1.814c-1.833,1.053-2.692,2.212-2.438,2.838" transform="translate(77.474 28.615)" fill="#263238"/>
                <path id="Trazado_559067" data-name="Trazado 559067" d="M89.245,48.174c.768,1.222,4.36.4,8.537.771,4.191.226,7.627,1.547,8.562.446.416-.539-.022-1.73-1.453-2.959a12.521,12.521,0,0,0-13.78-.98c-1.6,1.013-2.2,2.129-1.867,2.721" transform="translate(58.701 28.863)" fill="#263238"/>
                <path id="Trazado_559068" data-name="Trazado 559068" d="M86.623,52.429s9.113-20.236,19.16-24.8c12.163-5.522,17.075,7.663,28.617,4.725s23.155-8.242,34.7.778c12.637,9.871,6.483,16.489,6.974,30.967,2,58.709,12.471,75.512,16.125,47.954.4-3.02,8.937-5.254,10.461-18.012,1.977-16.546,3.038-36.664-.454-48.507-2.945-9.98-8.518-16.949-18.606-24.712C167.674,8.575,145.463,7.865,130.343,9.061S85.781,26.84,86.623,52.429" transform="translate(57.021 5.694)" fill="#263238"/>
                <path id="Trazado_559069" data-name="Trazado 559069" d="M149.61,73.772a8.913,8.913,0,0,1,9.831-8.33c6.133.7,12.9,4.3,12.229,16.851-1.182,22.271-23.534,16.5-23.539,15.859,0-.435.9-15.065,1.479-24.38" transform="translate(97.53 43.049)" fill="#ffc09d"/>
                <path id="Trazado_559070" data-name="Trazado 559070" d="M151.362,87.154c.1-.066.378.292,1.025.627a3.952,3.952,0,0,0,2.927.212c2.425-.74,4.624-4.372,4.947-8.38a12.723,12.723,0,0,0-.8-5.61c-.6-1.667-1.605-2.859-2.791-3.133a2,2,0,0,0-2.37.944c-.335.607-.216,1.058-.337,1.091-.066.053-.463-.4-.234-1.31a2.482,2.482,0,0,1,.96-1.348,2.99,2.99,0,0,1,2.2-.454c1.73.209,3.207,1.871,3.912,3.667a13.06,13.06,0,0,1,1.03,6.277c-.383,4.481-2.927,8.559-6.231,9.32a4.24,4.24,0,0,1-3.554-.774c-.668-.587-.76-1.091-.68-1.128" transform="translate(99.641 45.923)" fill="#ff9b6c"/>
                <path id="Trazado_559071" data-name="Trazado 559071" d="M184.28,70.963c-2.965,1.915-6.1,3.891-9.63,4.164s-7.519-1.813-8.042-5.28c-.235-1.556.186-3.348-.821-4.567-1.2-1.456-3.478-1.055-5.368-.9a14.363,14.363,0,0,1-14.708-10.5c-1.721,2.441-5.617,2.254-8.111.59s-4.065-4.335-6-6.617-4.665-4.343-7.65-3.985c-1.67.2-3.249,1.149-4.92.969-2.954-.32-4.325-3.778-4.712-6.692s-.665-6.31-3.138-7.94c-2.29-1.511-5.315-.726-8.047-.385s-6.234-.362-6.876-3.01a5.258,5.258,0,0,1,1.093-4.023,14.679,14.679,0,0,1,17.33-5.113,19.851,19.851,0,0,1,36.4-3.05,20.57,20.57,0,0,1,18.04-4.287,20.342,20.342,0,0,1,13.882,12.179,14.984,14.984,0,0,1,15.086,5.411,14.622,14.622,0,0,1,.874,15.856c4,2.372,7.383,6.423,7.372,11.038s-4.65,9.118-9.123,7.811a8.222,8.222,0,0,1-3.395,10.408,8.407,8.407,0,0,1-10.7-2.743" transform="translate(63.317 2.67)" fill="#263238"/>
                <path id="Trazado_559072" data-name="Trazado 559072" d="M171.249,39.37c.08-.058.376,1.881-1.493,4.255a7.255,7.255,0,0,1-4.569,2.571,7.851,7.851,0,0,1-6.382-1.977l.955-.123a22.3,22.3,0,0,1-4.61,5.466A12.984,12.984,0,0,1,150.993,52a10.071,10.071,0,0,1-10.964-3.5,12.8,12.8,0,0,1-1.726-4.675,4.326,4.326,0,0,1-.136-1.8c.1-.018.275.6.627,1.685a14.921,14.921,0,0,0,1.992,4.282c2.068,3.239,8.989,5.013,13.528.589a22.421,22.421,0,0,0,4.395-5.121l.41-.648.546.527a6.894,6.894,0,0,0,5.395,1.823,6.664,6.664,0,0,0,4.121-2.043c1.849-1.993,1.874-3.813,2.07-3.751" transform="translate(90.939 25.92)" fill="#455a64"/>
                <path id="Trazado_559073" data-name="Trazado 559073" d="M157.07,11.681c.012.078-.59.144-1.605.546a7.721,7.721,0,0,0-3.559,2.871l-.279.42-.3-.42a27.95,27.95,0,0,0-10.707-8.947,22.083,22.083,0,0,0-8.828-2.106,18.717,18.717,0,0,0-15.382,7.713,14.99,14.99,0,0,0-2.617,6.668l-.086.7-.678-.2a12.757,12.757,0,0,0-9.383.937,12.249,12.249,0,0,0-5.234,5.325c-1.9,3.882-1.312,6.609-1.541,6.572a4.454,4.454,0,0,1-.235-1.828,12.291,12.291,0,0,1,1.121-5.053,12.733,12.733,0,0,1,5.41-5.889,13.654,13.654,0,0,1,10.2-1.2l-.763.5a15.984,15.984,0,0,1,2.761-7.259A19.715,19.715,0,0,1,131.819,2.8a22.778,22.778,0,0,1,9.289,2.335,27.287,27.287,0,0,1,10.8,9.569l-.58,0a7.66,7.66,0,0,1,4.017-2.828,3.438,3.438,0,0,1,1.728-.2" transform="translate(63.623 1.84)" fill="#455a64"/>
                <path id="Trazado_559074" data-name="Trazado 559074" d="M121.975,81.81s6.5,13.426-7.416,16.65a6.786,6.786,0,0,1-8.018-4.847L104.622,86.3c.653.176,17.353-4.494,17.353-4.494" transform="translate(68.883 53.864)" fill="#ff9b6c"/>
                <path id="Trazado_559075" data-name="Trazado 559075" d="M110.229,98.631c.02-.075.652.091,1.8.168a12.054,12.054,0,0,0,4.77-.713,10.434,10.434,0,0,0,6.627-12.717,10.109,10.109,0,0,0-1.423-3.144l.466.169c-5.377,1.363-10.125,2.529-13.533,3.325l-4.02.9a5.477,5.477,0,0,1-1.483.222,5.607,5.607,0,0,1,1.411-.521c1.1-.318,2.413-.7,3.957-1.149,3.367-.942,8.08-2.207,13.436-3.6l.3-.076.169.245a10.748,10.748,0,0,1,1.556,3.41,11.48,11.48,0,0,1-1.328,9A11.374,11.374,0,0,1,112,99.132a4.739,4.739,0,0,1-1.77-.5" transform="translate(68.102 53.656)" fill="#263238"/>
                <path id="Trazado_559076" data-name="Trazado 559076" d="M79.441,142.437s-23.569,12.622-28.367,45.672c-4.121,28.39-28.937,180.6-28.937,180.6L0,462.4H57.354L88.547,296.123Z" transform="translate(0 93.781)" fill="#c2b5ff"/>
                <path id="Trazado_559077" data-name="Trazado 559077" d="M58.046,479.865,90.287,187.912l28.123-64.366,9.41-6.518,6.8,28.655,9.1,32.407,24.878-31.259,39.283-30.45.905,15.027,18.864,55.147L212.008,330.472V479.554Z" transform="translate(38.217 76.626)" fill="#fff"/>
                <path id="Trazado_559078" data-name="Trazado 559078" d="M100.542,454.514a3.858,3.858,0,0,0,.078-.774c.028-.57.065-1.323.113-2.275.076-2.07.184-5.005.323-8.751.26-7.668.635-18.647,1.1-32.185.952-27.176,2.461-64.709,4.622-106.141s4.587-78.935,6.474-106.063c.954-13.511,1.726-24.468,2.265-32.123.254-3.74.453-6.67.592-8.736.053-.95.095-1.7.126-2.274a3.9,3.9,0,0,0,0-.778,3.8,3.8,0,0,0-.121.768c-.06.569-.138,1.318-.239,2.265-.191,2.063-.459,4.987-.806,8.72-.682,7.576-1.585,18.543-2.629,32.1-2.095,27.117-4.637,64.608-6.809,106.061s-3.544,78.988-4.29,106.174c-.375,13.592-.62,24.594-.731,32.2-.046,3.748-.083,6.685-.108,8.756v2.277a3.877,3.877,0,0,0,.04.778" transform="translate(-346.771 209.574)" fill="#263238"/>
                <path id="Trazado_559079" data-name="Trazado 559079" d="M207.412,319.956l45.167-139.816-79.917-42.954-16.7-18.073s-3.551,75.006-4.108,94.872-9.307,95.172-13.211,140.974c-2.085,24.47-.745,65.343.478,88.381,1.4,26.427,1.116,35.161,1.116,35.161l78.187-.433L192.566,375.114Z" transform="translate(90.57 78.423)" fill="#c2b5ff"/>
                <path id="Trazado_559080" data-name="Trazado 559080" d="M114.094,137.174,59.61,158.123l-8.451,202.59L30.119,478.4l60.089,1.123c.557-14.347,15.846-133.874,15.846-133.874l20.075-187.066L141.8,118.612Z" transform="translate(19.83 78.094)" fill="#c2b5ff"/>
                <path id="Trazado_559081" data-name="Trazado 559081" d="M87.561,129.134a9.038,9.038,0,0,0-1,1.113q-1.02,1.234-2.755,3.342c-2.436,3.017-5.892,7.3-10.231,12.678l-.219.27.284.214c2.589,1.945,5.513,4.143,8.668,6.513l.121-.708-10.174,3.186-.32.1,0,.337c.194,17.946.436,40.54.7,65.031.439,29.9.839,56.953,1.129,76.646.2,9.736.36,17.647.473,23.224.08,2.672.143,4.781.187,6.314.032.667.056,1.206.078,1.642a2.056,2.056,0,0,0,.065.559,2.084,2.084,0,0,0,.051-.561c.01-.436.022-.977.036-1.642.007-1.534.017-3.645.028-6.317-.027-5.579-.063-13.491-.109-23.229-.2-19.7-.484-46.754-.794-76.65-.352-24.491-.675-47.084-.932-65.029l-.317.436,10.144-3.274.755-.244-.634-.468c-3.184-2.333-6.136-4.5-8.748-6.411l.065.483L84.1,133.814c1.1-1.454,1.969-2.6,2.614-3.453a8.94,8.94,0,0,0,.851-1.227" transform="translate(47.363 85.022)" fill="#263238"/>
                <path id="Trazado_559082" data-name="Trazado 559082" d="M141.16,328.375a2.334,2.334,0,0,0,.214-.539c.139-.425.313-.954.531-1.609.491-1.5,1.169-3.564,2.028-6.184,1.779-5.363,4.423-13.1,7.813-22.627,1.721-4.761,3.6-9.965,5.622-15.549a185.82,185.82,0,0,0,5.717-18.136,406.148,406.148,0,0,0,7.99-42.754c2.76-19.893,4.544-38.647,5.632-54.784l.015-.229-.166-.158-8.766-8.365-.043.685,8.312-6.259.325-.244-.241-.322-15.009-20.136c-1.751-2.307-3.131-4.126-4.129-5.44-.448-.57-.808-1.03-1.1-1.4a2.311,2.311,0,0,0-.406-.453,2.458,2.458,0,0,0,.31.522l1,1.464c.955,1.345,2.275,3.207,3.952,5.569l14.71,20.35.086-.564c-2.624,1.939-5.4,3.992-8.367,6.186l-.426.317.383.37q4.134,4,8.71,8.425l-.151-.385c-1.179,16.095-3.017,34.835-5.771,54.691a422.271,422.271,0,0,1-7.879,42.654q-2.5,9.692-5.587,18.075l-5.493,15.6c-3.3,9.562-5.823,17.347-7.474,22.757-.826,2.7-1.433,4.816-1.824,6.252-.171.668-.31,1.207-.421,1.642a2.028,2.028,0,0,0-.1.57" transform="translate(92.936 81.56)" fill="#263238"/>
                <g id="Grupo_720990" data-name="Grupo 720990" transform="translate(229.204 486.045)" opacity="0.3">
                  <g id="Grupo_720989" data-name="Grupo 720989">
                    <g id="Grupo_720988" data-name="Grupo 720988" clip-path="url(#clip-path-6)">
                      <path id="Trazado_559083" data-name="Trazado 559083" d="M206.985,320.686l-43.278,16.8-2.886-9.542-21.436,17.7-1.177-26.4,18.841-26.16,46.767,14.994Z" transform="translate(-138.208 -293.081)"/>
                    </g>
                  </g>
                </g>
                <path id="Trazado_559084" data-name="Trazado 559084" d="M281.427,365.252a16.282,16.282,0,0,0,7.746-13.269,147.163,147.163,0,0,0-1.318-22.609c-3.091-25.485-37.274-173.462-37.274-173.462l-50.364,115.32,14.556,50.206-74.18,35.148,20.652,57.678s98.564-35.692,120.183-49.012" transform="translate(92.566 102.653)" fill="#c2b5ff"/>
                <path id="Trazado_559085" data-name="Trazado 559085" d="M207.675,176.478a6.275,6.275,0,0,0-.471,1.294l-1.134,3.765c-.98,3.423-2.33,8.136-3.982,13.9-3.31,11.751-7.851,28-12.465,46.047s-8.264,34.54-10.561,46.53c-1.153,6-2.02,10.859-2.542,14.232-.242,1.592-.436,2.879-.589,3.887a6.037,6.037,0,0,0-.128,1.368,6.345,6.345,0,0,0,.355-1.33c.207-1,.473-2.272.8-3.847.713-3.483,1.7-8.282,2.9-14.153,2.5-11.939,6.274-28.365,10.879-46.41s9.025-34.311,12.136-46.115c1.5-5.8,2.736-10.549,3.629-13.994.38-1.566.687-2.831.927-3.821a6.18,6.18,0,0,0,.249-1.353" transform="translate(115.74 116.193)" fill="#263238"/>
                <path id="Trazado_559086" data-name="Trazado 559086" d="M257.142,312.25a2.018,2.018,0,0,0-.483.136l-1.386.489-5.343,1.982L230,322.434c-17.057,6.576-40.964,15.793-68.671,26.473l.716.325c-4.315-12.073-8.989-25.153-13.831-38.7-2.315-6.461-4.592-12.816-6.8-18.984l-.289.693,73.32-35.029-.051.02a43.876,43.876,0,0,1,17.315-1.96,43.418,43.418,0,0,1,12.814,3.222,54.457,54.457,0,0,1,7.44,3.871l1.833,1.192a3.637,3.637,0,0,0,.647.378,3.718,3.718,0,0,0-.579-.471l-1.773-1.29a49.124,49.124,0,0,0-7.388-4.086,43.072,43.072,0,0,0-12.931-3.448,44.185,44.185,0,0,0-17.624,1.828l-.027.008-.028.013-73.459,34.74-.459.217.171.476c2.206,6.169,4.479,12.524,6.791,18.987,4.859,13.543,9.547,26.616,13.877,38.684l.189.531.527-.206,68.523-26.85,19.816-7.872,5.277-2.146,1.353-.576a1.985,1.985,0,0,0,.448-.226" transform="translate(92.287 167.503)" fill="#263238"/>
                <path id="Trazado_559087" data-name="Trazado 559087" d="M110.263,167.957a15.377,15.377,0,0,0,2.088-1.871l5.531-5.441,18.677-18.881-.811-.027a22.684,22.684,0,0,1,4.818,10.141,22.4,22.4,0,0,1,.461,5.93l-.075,1.277.993-.8c9.446-7.577,17.1-15.01,22.826-20.085,2.841-2.561,5.143-4.6,6.743-5.979a21.58,21.58,0,0,0,2.426-2.212,18.023,18.023,0,0,0-2.69,1.9c-1.687,1.289-4.071,3.24-6.984,5.731-5.866,4.929-13.634,12.279-23.025,19.765l.917.479a23.145,23.145,0,0,0-.473-6.236,23.506,23.506,0,0,0-5.1-10.637l-.4-.458-.413.43c-7.3,7.61-13.683,14.256-18.393,19.163l-5.3,5.67a15.46,15.46,0,0,0-1.818,2.139" transform="translate(72.596 85.599)" fill="#263238"/>
                <path id="Trazado_559088" data-name="Trazado 559088" d="M95.23,127.992a6.318,6.318,0,0,0-.091,1.74c.01,1.129.068,2.776.229,4.848a100.717,100.717,0,0,0,2.768,16.665l.347,1.368.653-1.259a40.712,40.712,0,0,1,7.237-9.884c.828-.831,1.682-1.617,2.512-2.327l-.925-.305a153.166,153.166,0,0,0,6.755,22.073c1.07,2.718,2.01,4.872,2.7,6.34a10.9,10.9,0,0,0,1.179,2.222,11.777,11.777,0,0,0-.791-2.383c-.632-1.721-1.421-3.876-2.363-6.443a189.77,189.77,0,0,1-6.367-22.055l-.206-.919-.721.612c-.857.726-1.738,1.534-2.589,2.39a40.31,40.31,0,0,0-7.38,10.2l1,.108a122.27,122.27,0,0,1-3.151-16.466c-.5-4.1-.658-6.529-.8-6.522" transform="translate(62.639 84.27)" fill="#263238"/>
                <g id="Grupo_720993" data-name="Grupo 720993" transform="translate(113.549 241.194)" opacity="0.3">
                  <g id="Grupo_720992" data-name="Grupo 720992">
                    <g id="Grupo_720991" data-name="Grupo 720991" clip-path="url(#clip-path-7)">
                      <path id="Trazado_559089" data-name="Trazado 559089" d="M74.678,145.438l-6.209,8.471S70.2,282.361,76.8,314.255Z" transform="translate(-68.469 -145.438)"/>
                    </g>
                  </g>
                </g>
                <path id="Trazado_559090" data-name="Trazado 559090" d="M30.119,443.125a3.686,3.686,0,0,1,.076-.614c.076-.443.177-1.035.307-1.793.294-1.615.716-3.927,1.255-6.891,1.138-6.033,2.771-14.712,4.8-25.483l16.4-85.456-.008.086c-.051-4.531-.1-9.334-.158-14.2-.368-37.705-.7-71.835-.94-96.59-.078-12.325-.141-22.314-.184-29.269,0-3.421,0-6.095-.007-7.959.008-.877.015-1.562.02-2.07a4.327,4.327,0,0,1,.036-.7,4.4,4.4,0,0,1,.051.706c.017.506.038,1.192.066,2.07.038,1.864.1,4.536.167,7.957.109,6.955.267,16.944.461,29.269.305,24.752.726,58.878,1.192,96.582.051,4.862.1,9.665.153,14.194v.045l-.008.043c-6.594,33.77-12.455,63.784-16.677,85.4-2.139,10.751-3.861,19.413-5.058,25.433-.605,2.952-1.078,5.254-1.408,6.862-.163.751-.29,1.338-.385,1.776a3.618,3.618,0,0,1-.158.6" transform="translate(19.828 113.367)" fill="#263238"/>
                <path id="Trazado_559091" data-name="Trazado 559091" d="M41.972,260.465c-.027.257-4.315-.113-9.577.264-5.267.347-9.463,1.3-9.526,1.048-.066-.207,4.1-1.556,9.466-1.91,5.358-.38,9.675.383,9.637.6" transform="translate(15.057 171.028)" fill="#263238"/>
                <path id="Trazado_559092" data-name="Trazado 559092" d="M182.549,279.239s-41.823,8.728-48.039,10.088-30.767,19.791-33.2,21.153-9.526,5.864-9.526,5.864,4.571,7.494,12.68,4.773a43.591,43.591,0,0,0,13.455-7.367l-17.3,15.778L80.934,341.557a5.811,5.811,0,0,0-2.463,7.125,3.414,3.414,0,0,0,4.124,2.182c5.6-1,23.752-8.076,23.752-8.076s.852,10.957,10.853,12.319c0,0,2.151,9.413,10.851,7.406,0,0,8.557,7.005,16.135,3s27.248-12.047,31.3-20.208a121.062,121.062,0,0,1,9.189-15.236l15.15-2.629Z" transform="translate(51.386 183.851)" fill="#ffc09d"/>
                <path id="Trazado_559093" data-name="Trazado 559093" d="M95.114,322.561c.141.293,5.372-1.813,11.476-5.191,6.133-3.363,10.46-7.12,10.227-7.393s-4.794,2.944-10.851,6.264c-6.04,3.342-11.022,5.974-10.853,6.32" transform="translate(62.62 204.078)" fill="#ff9b6c"/>
                <path id="Trazado_559094" data-name="Trazado 559094" d="M123.075,316.594c-.192-.335-5.372,2.572-11.315,6.75s-10.811,7.428-10.647,7.726c.181.327,5.415-2.479,11.373-6.66s10.748-7.529,10.589-7.816" transform="translate(66.57 208.429)" fill="#ff9b6c"/>
                <path id="Trazado_559095" data-name="Trazado 559095" d="M126.225,321.658c-.239-.234-4.028,2.954-9.12,6.395-5.07,3.473-9.12,6.45-8.9,6.765.186.272,4.521-2.2,9.632-5.7,5.146-3.478,8.667-7.2,8.39-7.458" transform="translate(71.236 211.772)" fill="#ff9b6c"/>
                <path id="Trazado_559096" data-name="Trazado 559096" d="M125.486,289.6c-.03-.146-1.753.037-4.385.952a33.5,33.5,0,0,0-9.456,5.319,44.453,44.453,0,0,0-7.6,7.743c-1.682,2.211-2.521,3.715-2.388,3.809.343.279,4.282-5.372,10.775-10.534,6.473-5.264,13.173-6.915,13.05-7.289" transform="translate(66.925 190.643)" fill="#ff9b6c"/>
              </g>
            </g>
          </g>
        </g>
        <g id="Grupo_721090" data-name="Grupo 721090" transform="translate(-7482.424 4777.46)">
          <g id="Grupo_721003" data-name="Grupo 721003" clip-path="url(#clip-path-8)">
            <g id="Grupo_721002" data-name="Grupo 721002">
              <g id="Grupo_721001" data-name="Grupo 721001" clip-path="url(#clip-path-8)">
                <path id="Trazado_559097" data-name="Trazado 559097" d="M190.516,231.272l23.019-6.635,28.559-10.789,22.666-12.29s1.98-1.958-.8-4.4-15.107,4.382-15.107,4.382l-9.759,3.637s-8.229.679-7.77-.095,13.222-6.943,13.222-6.943l21.783-11.854s6.146-3.181,4.239-7.252c-.908-1.938-3.173-3.088-7.354-1.482s-10.768,5.738-13.125,6.7-15.814,7.011-15.814,7.011l27.872-19.1s9.086-5.415,6.174-9.247-8.445.393-11.626,1.622-20.678,12.4-27.495,15.509c-5.846,2.66-4.439.451-4.439.451s9.254-5.718,16.551-10.225,12.837-8.982,8.084-11.947c-3.1-1.933-17.093,5.535-17.093,5.535l-20.665,11.543-9.848,4.356,8.207-7.35a27.911,27.911,0,0,0,8.976-11.179c2.878-7.109-2.948-7.345-2.948-7.345l-33.713,23.059c-5.246,4.583-11.428,26.644-11.428,26.644L105.855,229.6l26.989,39.488Z" transform="translate(70.257 102.138)" fill="#ffc09d"/>
                <path id="Trazado_559098" data-name="Trazado 559098" d="M164.927,168.952a4.811,4.811,0,0,1,1.012,1.176,21.617,21.617,0,0,1,2.11,3.665,24.767,24.767,0,0,1-3.615,26.376,21.84,21.84,0,0,1-3.011,2.968,4.83,4.83,0,0,1-1.288.865c-.107-.123,1.67-1.447,3.822-4.218a25.624,25.624,0,0,0,3.53-25.749c-1.331-3.244-2.694-4.993-2.559-5.084" transform="translate(106.28 112.135)" fill="#ff9b6c"/>
                <path id="Trazado_559099" data-name="Trazado 559099" d="M242.257,191.187c.511-2.367,2.926-3.762,4.926-5.194a23.991,23.991,0,0,0,9.635-22.866A24.534,24.534,0,0,0,240.4,144.251c-2.083-.675-4.329-1.113-6.041-2.456-4.256-3.342-2.887-9.882-4.505-14.972-3.424-10.778-19.191-12.9-24.841-22.751-3.444-6.008-2.293-13.376-1.986-20.249s-1.018-14.89-7.137-18.326c-3.292-1.847-7.4-1.967-10.614-3.941-6.632-4.073-6.35-13.338-8.8-20.6-3.86-11.431-17.015-19.086-29.155-16.967,0,0,4.831-10.358-7.963-15.656-15.446-6.394-16.432,4.427-23.547-2.314-7.56-7.166-20.5-8.066-29.01-2.018C84.146,5.891,81.905,8.349,79,9.838c-3.544,1.818-7.693,2.011-11.6,2.855C52.486,15.908,40.875,30.062,40.928,44.96L138.5,211.022c3.381,15.8-6.5,22.873,7.33,31.739,2.9,1.86,23.681,7.35,27.1,7.931,4.269.722,14.531,1.088,18.491-.622,8.6-3.713,21.56-9.345,25-17.88,9.245,4.038,21.076,1.381,27.563-6.189a23.061,23.061,0,0,0,1.353-27.556c-1.562-2.229-3.645-4.617-3.076-7.257" transform="translate(27.164 0)" fill="#263238"/>
                <path id="Trazado_559100" data-name="Trazado 559100" d="M42.551,54.513,41.2,43.138l68.9-19.484c21.42-4.224,46.9,14.772,50.354,35.826,3.835,23.392,7.57,52.1,6.439,69.918-2.276,35.835-29.581,42.884-29.581,42.884l6.312,60.942L142.545,248.9,74.356,189.279Z" transform="translate(27.344 15.306)" fill="#ffc09d"/>
                <path id="Trazado_559101" data-name="Trazado 559101" d="M112.355,64.05a4.566,4.566,0,0,1-4.028,4.979,4.453,4.453,0,0,1-5.186-3.64,4.565,4.565,0,0,1,4.021-4.983,4.458,4.458,0,0,1,5.192,3.644" transform="translate(68.431 40.057)" fill="#263238"/>
                <path id="Trazado_559102" data-name="Trazado 559102" d="M116.5,55.979c-.517.642-4.286-1.572-9.279-1.1-5,.4-8.417,3.246-9.017,2.7-.293-.238.19-1.358,1.674-2.639a12.943,12.943,0,0,1,7.147-2.893,12.55,12.55,0,0,1,7.457,1.612c1.65,1.008,2.276,2.028,2.018,2.319" transform="translate(65.123 34.512)" fill="#263238"/>
                <path id="Trazado_559103" data-name="Trazado 559103" d="M84.9,66.673a4.564,4.564,0,0,1-4.028,4.98,4.453,4.453,0,0,1-5.186-3.64,4.566,4.566,0,0,1,4.021-4.983A4.458,4.458,0,0,1,84.9,66.673" transform="translate(50.208 41.798)" fill="#263238"/>
                <path id="Trazado_559104" data-name="Trazado 559104" d="M87.033,59.243c-.519.642-4.289-1.571-9.28-1.1-5,.4-8.417,3.246-9.017,2.7-.291-.238.185-1.358,1.675-2.639a12.925,12.925,0,0,1,7.146-2.892,12.547,12.547,0,0,1,7.458,1.61c1.645,1.008,2.274,2.03,2.018,2.319" transform="translate(45.567 36.679)" fill="#263238"/>
                <path id="Trazado_559105" data-name="Trazado 559105" d="M95.256,94.483c-.052-.275,3-1.083,7.974-2.174,1.263-.246,2.447-.606,2.579-1.474.211-.927-.454-2.218-1.216-3.61q-2.241-4.35-4.7-9.125c-6.567-13.007-11.45-23.748-10.911-24s6.3,10.084,12.864,23.092q2.383,4.814,4.552,9.2c.622,1.369,1.61,2.9,1.143,4.821a3.166,3.166,0,0,1-1.92,2.013,8.9,8.9,0,0,1-2.138.492c-5.038.732-8.177,1.043-8.224.769" transform="translate(59.03 35.902)" fill="#263238"/>
                <path id="Trazado_559106" data-name="Trazado 559106" d="M119.3,116.044s-25.448,3.817-50.966-8.106c0,0,14.869,24.8,52.019,18.121Z" transform="translate(45.353 71.64)" fill="#ff9b6c"/>
                <path id="Trazado_559107" data-name="Trazado 559107" d="M88.361,47.247c-.363,1.369-5.412,1.2-11.207,2.429-5.818,1.116-10.38,3.224-11.275,2.108-.4-.536.3-1.858,2.083-3.317a19.3,19.3,0,0,1,8.152-3.657,19.591,19.591,0,0,1,8.976.2c2.234.647,3.421,1.589,3.271,2.238" transform="translate(43.652 29.462)" fill="#263238"/>
                <path id="Trazado_559108" data-name="Trazado 559108" d="M114.052,47.733c-.77,1.186-4.326.356-8.468.682-4.156.186-7.57,1.447-8.492.364-.408-.529.035-1.689,1.464-2.877a12.56,12.56,0,0,1,13.664-.845c1.574,1,2.166,2.1,1.832,2.675" transform="translate(64.345 28.826)" fill="#263238"/>
                <path id="Trazado_559109" data-name="Trazado 559109" d="M189.156,36.7a62.475,62.475,0,0,0-34.184-18.84L96.638,27.1,81.076,36.675C79.79,33.3,78.965,31.2,78.965,31.2,73.238,27.521,57.656,20.1,45.03,33.511c-4.555,4.838-7.906,17.353-7.671,23.781.088,2.432.5,5.382-1.63,6.808a7.938,7.938,0,0,1-2.559.908C18.4,68.642,8.621,84.4,12.657,98.056a6.824,6.824,0,0,1,.469,2.747c-.183,1.459-1.389,2.59-2.422,3.7a22.489,22.489,0,0,0-2.682,26.819c1.6,2.567,3.76,4.94,4.422,7.833,1.186,5.181-2.687,10-5.647,14.516-8.873,13.536-9.9,32.714,1.981,44.215,2.888,2.8,6.55,5.247,7.775,8.939a20.668,20.668,0,0,1,.624,5.61c.441,9.55,6.46,20.008,16.667,21.607,5.665.887,12.393-.854,16.586,2.79,1.827,1.587,2.685,3.875,3.9,5.9,4.647,7.725,15.687,11.579,24.656,8.611s14.79-12.406,13-21.076c10.834-4.158,18.026-15.221,16.928-26.039,0,0-6.405-33.356-3.627-42.576s-4.815-28.291-9.052-37.528-.963-31.286-.431-40.017A29.33,29.33,0,0,0,94.63,76.7l0,.007-.01-.025c-.522-2.1-1.186-4.454-1.953-6.979a62.068,62.068,0,0,1-.586-7c-.3-8.222,8.324-14.478,16.893-12.2a23.536,23.536,0,0,0,6.379.792,22.99,22.99,0,0,0,17.7-8.685c8.38,7.515,21.417,10.238,32.422,6.771,4.848,5.662,9.773,11.395,16.05,15.692s14.175,7.064,21.866,5.948A54.19,54.19,0,0,0,189.156,36.7" transform="translate(0 11.857)" fill="#263238"/>
                <path id="Trazado_559110" data-name="Trazado 559110" d="M146.633,48.762c-.106,0,0-1.291-.308-3.6a22.543,22.543,0,0,0-3.46-9.2,21.5,21.5,0,0,0-11.7-8.9A23.174,23.174,0,0,0,112.966,29l-.416.24-.326-.351a33.5,33.5,0,0,0-8.332-6.464,34.783,34.783,0,0,0-22.054-3.845,33.629,33.629,0,0,0-16.557,7.891,34.869,34.869,0,0,0-7.733,9.683c-1.361,2.605-1.855,4.169-1.971,4.129a4.412,4.412,0,0,1,.3-1.151,25.007,25.007,0,0,1,1.258-3.178,33.117,33.117,0,0,1,7.58-10.092,33.932,33.932,0,0,1,16.938-8.34A35.551,35.551,0,0,1,104.475,21.4a34.3,34.3,0,0,1,8.626,6.718l-.739-.111a24.1,24.1,0,0,1,19.123-1.9,22.049,22.049,0,0,1,12.034,9.462,21.733,21.733,0,0,1,3.221,9.548,15.4,15.4,0,0,1,.028,2.71,3.113,3.113,0,0,1-.135.93" transform="translate(36.881 11.295)" fill="#455a64"/>
                <path id="Trazado_559111" data-name="Trazado 559111" d="M9.719,90.076c-.032-.281,5.55.017,14-2.391A55.672,55.672,0,0,0,51.6,69.333l1.241-1.582.173-.22.27-.022a31.6,31.6,0,0,0,16.469-6.329,33.286,33.286,0,0,0,9.388-10.812c3.911-7.275,3.482-12.634,3.822-12.548a2.765,2.765,0,0,1,.047.922,18.656,18.656,0,0,1-.171,2.649,28.141,28.141,0,0,1-2.96,9.348,33.164,33.164,0,0,1-9.458,11.278A32.2,32.2,0,0,1,53.37,68.671l.443-.241c-.4.512-.832,1.065-1.268,1.62A52.94,52.94,0,0,1,38.277,82.44a54.694,54.694,0,0,1-14.325,6.039,50.889,50.889,0,0,1-10.38,1.649c-1.238.088-2.206.028-2.858.03a3.2,3.2,0,0,1-.995-.082" transform="translate(6.451 25.101)" fill="#455a64"/>
                <path id="Trazado_559112" data-name="Trazado 559112" d="M14.7,188.953a17.89,17.89,0,0,0,2.148,1.534,12.22,12.22,0,0,0,2.96,1.161,13.177,13.177,0,0,0,4.307.263,11.828,11.828,0,0,0,5.063-1.694,10.447,10.447,0,0,0,2.324-1.955,10.284,10.284,0,0,0,1.7-2.782,12.025,12.025,0,0,0,.541-7.079,11.172,11.172,0,0,0-4.267-6.608l-.639-.454.787,0a24.3,24.3,0,0,0,12.16-3.5,32.421,32.421,0,0,0,10.057-9.849c.724-1,1.289-2.115,1.927-3.2.534-1.135,1.15-2.248,1.586-3.449a34.8,34.8,0,0,0,2.141-7.458,56.382,56.382,0,0,0,.339-16.175c-.925-8.37-3.1-16.3-5.081-23.686l-.057-.21.181-.126A59.5,59.5,0,0,0,71.724,82.342a62.99,62.99,0,0,0,4.657-11.295c.466-1.843,1.056-3.587,1.329-5.322q.25-1.293.491-2.529c.16-.824.213-1.642.321-2.434a58.922,58.922,0,0,0-.045-14.95c-.183-1.744-.541-3.056-.672-3.963-.075-.428-.135-.767-.18-1.025a1.908,1.908,0,0,1-.043-.353s.524,1.843,1.108,5.311a57.144,57.144,0,0,1,.228,15.027c-.1.8-.15,1.622-.3,2.452s-.314,1.68-.476,2.549c-.263,1.75-.845,3.509-1.3,5.369A62.767,62.767,0,0,1,72.2,82.588a59.761,59.761,0,0,1-18.98,21.607l.126-.336c1.991,7.39,4.186,15.339,5.119,23.779a56.786,56.786,0,0,1-.354,16.351,35.462,35.462,0,0,1-2.188,7.582c-.446,1.22-1.073,2.351-1.619,3.5-.649,1.1-1.228,2.226-1.965,3.244a32.942,32.942,0,0,1-10.272,10,24.782,24.782,0,0,1-12.455,3.525l.148-.458a11.637,11.637,0,0,1,4.424,6.921,12.409,12.409,0,0,1-.616,7.332,10.115,10.115,0,0,1-4.213,4.876,12.025,12.025,0,0,1-5.219,1.682,13.189,13.189,0,0,1-4.389-.334,11.855,11.855,0,0,1-2.981-1.244,8.893,8.893,0,0,1-1.592-1.186c-.328-.306-.481-.476-.481-.476" transform="translate(9.755 26.861)" fill="#455a64"/>
                <path id="Trazado_559113" data-name="Trazado 559113" d="M149.793,210.623a2.294,2.294,0,0,1,.351-.245c.261-.166.611-.389,1.058-.672a18.5,18.5,0,0,0,1.69-1.143,27.079,27.079,0,0,0,2.213-1.7,39.735,39.735,0,0,0,14.127-26.034,35.86,35.86,0,0,0-1.329-14.245,39.482,39.482,0,0,0-7.638-14.078,38.533,38.533,0,0,0-13.907-10.525l-.419-.188.323-.321a35.5,35.5,0,0,0,9.693-18.151,33.811,33.811,0,0,0,.709-6.793,31.778,31.778,0,0,0-.614-6.68,31.175,31.175,0,0,0-1.895-6.3,33.881,33.881,0,0,0-2.995-5.7,36.164,36.164,0,0,0-18.57-14.566l-.3-.1.138-.285a31.981,31.981,0,0,0,2.095-21.884,31.257,31.257,0,0,0-8.833-14.746,32.96,32.96,0,0,0-9.367-6.229c-1.2-.524-2.141-.88-2.788-1.086-.3-.106-.539-.188-.727-.253a1.315,1.315,0,0,1-.241-.1,23.88,23.88,0,0,1,3.827,1.279,32.245,32.245,0,0,1,9.525,6.149A31.412,31.412,0,0,1,134.967,60.9a32.356,32.356,0,0,1-2.033,22.244l-.165-.388a36.665,36.665,0,0,1,18.915,14.762,34.454,34.454,0,0,1,3.056,5.8,31.944,31.944,0,0,1,1.938,6.414,32.51,32.51,0,0,1,.629,6.8,34.534,34.534,0,0,1-.72,6.914,36.076,36.076,0,0,1-9.881,18.471l-.095-.511a39.05,39.05,0,0,1,14.117,10.718,39.9,39.9,0,0,1,7.7,14.3,36.247,36.247,0,0,1,1.286,14.453,39.687,39.687,0,0,1-14.473,26.15,25.956,25.956,0,0,1-2.256,1.669,16.9,16.9,0,0,1-1.729,1.1l-1.09.626a2.465,2.465,0,0,1-.379.195" transform="translate(74.709 25.621)" fill="#455a64"/>
                <path id="Trazado_559114" data-name="Trazado 559114" d="M85.106,83.453A58.794,58.794,0,0,1,98.68,87.14l.043.116c-.408,3.141-1.2,6.6-3.86,8.372a6.8,6.8,0,0,1-6.793.228,7.493,7.493,0,0,1-3.963-5.231c-.474-2.308.331-4.973,1-7.172" transform="translate(55.729 55.389)" fill="#ff9b6c"/>
                <path id="Trazado_559115" data-name="Trazado 559115" d="M92.387,96.514c.032.082-.369.371-1.239.516a5.811,5.811,0,0,1-3.607-.717,7.424,7.424,0,0,1-3.507-4.186,11.4,11.4,0,0,1-.058-6.583,8.883,8.883,0,0,1,.616-1.757,1.442,1.442,0,0,1,1.474-.667c.406.083.567.148.85.22l2.933.824,4.941,1.482c2.8.888,4.505,1.541,4.45,1.747s-1.862-.073-4.737-.692l-5.028-1.161L86.519,84.8l-.7-.173c-.045.116-.042-.3-.062-.25-.052-.012.253.243.163.2a12.16,12.16,0,0,0-.517,7.112,6.613,6.613,0,0,0,2.705,3.683c2.324,1.549,4.256.88,4.277,1.138" transform="translate(55.434 55.141)" fill="#263238"/>
                <path id="Trazado_559116" data-name="Trazado 559116" d="M29.523,436.414H227.909l-4.682-78.986L216.2,262.714a97.266,97.266,0,0,0-18.03-49.555l-15.082-21-18.652-25-11.488-22.5L81.732,115.552l-8.8,18.158s-10.363,7.448-17.011,13.123c-12.909,11.022-20.459,25.54-24.763,41.867l-.125.479c-4.163,16.028-.918,39.18-.918,39.18L53.8,342.236A213.127,213.127,0,0,0,35.845,394.69c-1.012,5.053-4.2,25.222-6.322,41.724" transform="translate(19.191 76.694)" fill="#455a64"/>
                <path id="Trazado_559117" data-name="Trazado 559117" d="M131.825,145.649a13.45,13.45,0,0,1-1.63-2.818q-1.617-3.262-3.975-8.016l1-.017c-2.148,5.286-4.82,11.857-7.806,19.209l-.288.705-.72-.293c-3.545-1.436-7.339-2.975-11.263-4.565-11.588-4.732-22.043-9.1-29.581-12.328l-8.893-3.9a15.391,15.391,0,0,1-3.178-1.632,15.688,15.688,0,0,1,3.416,1.061l9.087,3.437c7.648,2.966,18.171,7.167,29.759,11.9l11.242,4.622-1.007.413c3.148-7.285,5.961-13.8,8.224-19.038l.506-1.173.5,1.155q2.091,4.879,3.524,8.219a13.231,13.231,0,0,1,1.088,3.065" transform="translate(43.467 87.594)" fill="#263238"/>
                <path id="Trazado_559118" data-name="Trazado 559118" d="M134.129,293.156a14.615,14.615,0,0,1-3.422-.619c-2.181-.487-5.3-1.319-9.132-2.457A226.63,226.63,0,0,1,65.04,264.151c-3.352-2.156-6.013-3.976-7.8-5.309a14.408,14.408,0,0,1-2.689-2.183,14.6,14.6,0,0,1,3.038,1.672q3.292,1.989,8.047,4.868a299.333,299.333,0,0,0,27.435,14.419,299.706,299.706,0,0,0,28.847,11.393l8.954,2.93a14.676,14.676,0,0,1,3.254,1.214" transform="translate(36.206 170.343)" fill="#263238"/>
                <g id="Grupo_721000" data-name="Grupo 721000" transform="translate(57.214 306.569)" opacity="0.3">
                  <g id="Grupo_720999" data-name="Grupo 720999">
                    <g id="Grupo_720998" data-name="Grupo 720998" clip-path="url(#clip-path-10)">
                      <path id="Trazado_559119" data-name="Trazado 559119" d="M34.389,184.268s36.558,100.325,48.58,118.5,17.978,23.329,36.332,20.182,98.921-29.622,98.921-29.622l-1.178-16.433-74.589,15.769-43.04-8.843-39.3-60.511Z" transform="translate(-34.389 -184.268)"/>
                    </g>
                  </g>
                </g>
                <path id="Trazado_559120" data-name="Trazado 559120" d="M193.951,256.439l-4.059-6.622-19.7,4.682L140.4,261.155S123.107,160.364,98.124,144.2s-43.24-13.313-58.614,15.213-7.094,45.148-7.094,45.148S72.18,315.649,98.124,338.323s111.462-20.116,111.462-20.116l17.336-14.388Z" transform="translate(20.038 89.173)" fill="#455a64"/>
                <path id="Trazado_559121" data-name="Trazado 559121" d="M194.262,256.734a5.655,5.655,0,0,1,.609.765c.414.571.973,1.339,1.7,2.333,1.512,2.125,3.692,5.189,6.515,9.157l24.523,34.871.235.334-.316.265c-5.227,4.367-11.055,9.234-17.289,14.441l-.048.04-.053.027a358.136,358.136,0,0,1-45.824,18.627,197.55,197.55,0,0,1-27.554,6.926,101.533,101.533,0,0,1-15.007,1.4,46.4,46.4,0,0,1-15.491-2.148,24.513,24.513,0,0,1-3.712-1.586l-1.8-.965c-.567-.376-1.1-.805-1.657-1.208a17.83,17.83,0,0,1-2.976-2.758L93.3,334.322c-1.747-2.066-3.287-4.3-4.956-6.472-1.637-2.189-2.991-4.574-4.514-6.875A315.691,315.691,0,0,1,67.778,291.27c-10.037-20.682-19.208-42.769-28.1-65.624-2.68-6.928-5.287-13.814-7.71-20.527l.037.085c-2.547-6.239-2.585-12.776-1.935-19.066a70.222,70.222,0,0,1,4.933-18.078,90.868,90.868,0,0,1,8.671-16.195,47.384,47.384,0,0,1,12.438-13.093,27.612,27.612,0,0,1,17.021-4.816A45,45,0,0,1,89.726,138.7c2.506,1.311,5,2.607,7.329,4.111a27.868,27.868,0,0,1,6.525,5.212,65.256,65.256,0,0,1,8.873,13.393,196.186,196.186,0,0,1,11.268,27.96c2.986,9.159,5.484,18.025,7.643,26.495,4.319,16.945,7.465,32.259,9.8,45.506l-.547-.364,30.421-6.668c8.239-1.895,14.642-3.366,19.126-4.4l.125-.03.062.106,2.978,5.016c.649,1.116.935,1.694.935,1.694s-.383-.514-1.083-1.6c-.724-1.145-1.755-2.775-3.123-4.935l.186.078c-4.469,1.1-10.849,2.665-19.061,4.682l-30.366,6.931-.463.1-.087-.469c-2.422-13.192-5.655-28.481-10.042-45.366-2.194-8.442-4.722-17.276-7.731-26.388a196.052,196.052,0,0,0-11.275-27.727,63.922,63.922,0,0,0-8.7-13.069,26.3,26.3,0,0,0-6.234-4.948c-2.3-1.479-4.748-2.742-7.207-4.023a43.615,43.615,0,0,0-16.02-4.565,26.084,26.084,0,0,0-16.083,4.587,45.922,45.922,0,0,0-12,12.694,89.458,89.458,0,0,0-8.507,15.928,68.724,68.724,0,0,0-4.813,17.67c-.655,6.053-.514,12.564,1.79,18.186l.037.086c2.416,6.686,5.024,13.573,7.7,20.487C50.055,247.9,59.2,269.967,69.189,290.6a315.854,315.854,0,0,0,15.932,29.584c1.5,2.278,2.847,4.655,4.455,6.813,1.637,2.131,3.156,4.351,4.858,6.372l2.724,2.85a16.859,16.859,0,0,0,2.835,2.647c.517.376,1.013.779,1.542,1.133l1.689.908a23.042,23.042,0,0,0,3.514,1.511,45.028,45.028,0,0,0,15,2.106,100.663,100.663,0,0,0,14.792-1.344,197.359,197.359,0,0,0,27.383-6.79,362.032,362.032,0,0,0,45.745-18.351l-.1.067,17.381-14.335-.082.6-24.18-35.118c-2.74-4.025-4.853-7.131-6.32-9.287l-1.594-2.4a5.769,5.769,0,0,1-.5-.834" transform="translate(19.727 88.878)" fill="#263238"/>
                <path id="Trazado_559122" data-name="Trazado 559122" d="M88.147,261.313c-.19.008-.564-2.966-.454-7.806a82.936,82.936,0,0,1,9.6-36.3c2.3-4.272,4.1-6.683,4.259-6.583.216.128-1.231,2.734-3.243,7.077a104.467,104.467,0,0,0-9.488,35.87c-.4,4.762-.424,7.738-.677,7.745" transform="translate(58.19 139.79)" fill="#263238"/>
                <path id="Trazado_559123" data-name="Trazado 559123" d="M153.114,270.106a10.6,10.6,0,0,1-2.189-1.983c-1.334-1.343-3.2-3.347-5.44-5.886A175.188,175.188,0,0,1,129.5,241.172a110.048,110.048,0,0,1-11.618-23.726,63.63,63.63,0,0,1-2.148-7.711,10.468,10.468,0,0,1-.428-2.906c.275-.065,1.253,3.986,3.644,10.24a130.634,130.634,0,0,0,11.906,23.259,236.989,236.989,0,0,0,15.5,21.191c4.241,5.236,6.938,8.43,6.758,8.588" transform="translate(76.511 137.274)" fill="#263238"/>
                <path id="Trazado_559124" data-name="Trazado 559124" d="M213.282,239.61l23.019-6.635,28.559-10.789,22.666-12.29s1.98-1.958-.8-4.4-15.107,4.382-15.107,4.382l-9.759,3.637s-8.229.679-7.77-.095,13.222-6.943,13.222-6.943L289.1,194.622s6.146-3.181,4.239-7.252c-.908-1.938-3.173-3.088-7.354-1.482s-10.768,5.738-13.125,6.7-15.814,7.011-15.814,7.011l27.872-19.1s9.086-5.415,6.174-9.247-8.445.393-11.626,1.622-20.678,12.4-27.495,15.509c-5.846,2.66-4.439.451-4.439.451s9.254-5.718,16.551-10.225,12.837-8.982,8.084-11.947c-3.1-1.932-17.093,5.534-17.093,5.534L234.41,183.745l-9.849,4.356,8.207-7.35a27.911,27.911,0,0,0,8.976-11.178c2.878-7.109-2.948-7.345-2.948-7.345l-33.713,23.059c-5.246,4.584-11.428,26.644-11.428,26.644l-65.033,25.052,27.663,40Z" transform="translate(85.368 107.672)" fill="#ffc09d"/>
                <path id="Trazado_559125" data-name="Trazado 559125" d="M213.482,239.782s-.319.238-.96.672l-2.862,1.918-11.139,7.384-41.9,27.616-.21.14-.145-.208-27.716-39.966L128.32,237l.384-.15,65.011-25.109-.233.255c1.271-4.42,2.74-8.961,4.46-13.553.878-2.288,1.8-4.594,2.888-6.861a22.943,22.943,0,0,1,4.186-6.427l.012-.012.025-.018,33.705-23.074.123-.085.13.012a4.923,4.923,0,0,1,2.877,1.173,4.054,4.054,0,0,1,1.254,2.9,12.583,12.583,0,0,1-1.762,5.871,28.631,28.631,0,0,1-8.171,9.35l.042-.033-8.205,7.35-.459-.71,9.848-4.356-.037.017,17.471-9.761a93.563,93.563,0,0,1,9.2-4.687c1.591-.7,3.2-1.363,4.865-1.925a16.179,16.179,0,0,1,5.249-1.071,3.022,3.022,0,0,1,1.351.343,6.96,6.96,0,0,1,1.035.8,2.943,2.943,0,0,1,.962,2.5,4.815,4.815,0,0,1-1.051,2.367,12.814,12.814,0,0,1-1.674,1.817,53.594,53.594,0,0,1-7.824,5.557l-16.02,9.9.136-.135c-.611.373.888.158,1.752-.2a27.429,27.429,0,0,0,2.855-1.218c1.87-.91,3.7-1.915,5.515-2.938,3.629-2.048,7.189-4.173,10.734-6.272l5.312-3.129a56.628,56.628,0,0,1,5.442-2.911c1.815-.77,3.572-1.865,5.53-2.554a8.356,8.356,0,0,1,3.113-.564,4.169,4.169,0,0,1,2.94,1.351,3.3,3.3,0,0,1,.877,3.129,6.806,6.806,0,0,1-1.549,2.745,22.183,22.183,0,0,1-4.6,3.911c-3.293,2.189-6.49,4.425-9.7,6.607q-9.6,6.568-18.85,12.9l-.389-.692,12.3-5.449c2.031-.932,4.054-1.705,5.944-2.77l5.718-3.121a39.717,39.717,0,0,1,5.908-2.68,8.934,8.934,0,0,1,3.271-.446,4.2,4.2,0,0,1,4.006,4.658,5.432,5.432,0,0,1-1.459,2.936,12.135,12.135,0,0,1-2.426,2.05c-.9.581-1.813,1.015-2.7,1.514-7.162,3.87-14.053,7.68-20.793,11.243-3.416,1.669-6.771,3.317-9.992,5.041a20.2,20.2,0,0,0-2.236,1.334c-.037.008-.053.088-.023-.082a.206.206,0,0,0-.062-.15c0-.008-.013-.012-.013-.012a1.232,1.232,0,0,0,.236.062,5.367,5.367,0,0,0,.636.067c.438.025.883.028,1.328.025,1.782-.022,3.56-.133,5.307-.266l-.085.02,9.763-3.627-.04.018a55.278,55.278,0,0,1,10.109-4.366,14.974,14.974,0,0,1,2.627-.531,3.734,3.734,0,0,1,2.692.559,4.557,4.557,0,0,1,1.5,2.223,2.844,2.844,0,0,1-.684,2.6l-.023.027-.04.02L265.17,222.563l-.015.007-.013.007L236.556,233.3l-.007,0,0,0-17.2,4.876-4.381,1.221c-.982.27-1.486.386-1.486.386s.481-.168,1.452-.461l4.352-1.3L236.458,233l-.012,0,28.531-10.859-.028.012q10.264-5.588,22.645-12.33l-.062.047a2.294,2.294,0,0,0,.527-2.071,4.02,4.02,0,0,0-1.331-1.927,3.231,3.231,0,0,0-2.266-.414,14.584,14.584,0,0,0-2.521.516,54.788,54.788,0,0,0-9.972,4.342l-.022.012-.02.007-9.754,3.65-.042.015-.043,0c-1.763.136-3.54.253-5.354.279-.454.005-.908,0-1.373-.023a5.788,5.788,0,0,1-.714-.075,1.707,1.707,0,0,1-.414-.12.876.876,0,0,1-.155-.11.471.471,0,0,1-.131-.3.419.419,0,0,1,.168-.346,15.677,15.677,0,0,1,2.431-1.506c3.239-1.742,6.59-3.4,10.007-5.074,6.7-3.564,13.606-7.4,20.753-11.27.885-.5,1.817-.95,2.64-1.486a11.418,11.418,0,0,0,2.273-1.923,4.717,4.717,0,0,0,1.276-2.539,3.452,3.452,0,0,0-3.331-3.818,8.211,8.211,0,0,0-2.986.419,39.079,39.079,0,0,0-5.773,2.634l-5.708,3.126c-1.922,1.085-4.02,1.893-6.009,2.81l-12.282,5.454-.388-.692q9.249-6.346,18.852-12.932c3.2-2.183,6.417-4.434,9.688-6.613a21.362,21.362,0,0,0,4.421-3.757,6.028,6.028,0,0,0,1.373-2.4,2.442,2.442,0,0,0-.674-2.364c-1.228-1.432-3.364-1.249-5.159-.566-1.86.651-3.569,1.72-5.494,2.542-3.6,1.68-7.087,3.938-10.639,5.991-3.544,2.1-7.106,4.229-10.748,6.287-1.82,1.028-3.658,2.038-5.565,2.966a27.864,27.864,0,0,1-2.943,1.254,7.915,7.915,0,0,1-1.62.423,1.428,1.428,0,0,1-1.091-.221.79.79,0,0,1-.251-.742,1.411,1.411,0,0,1,.2-.536l.047-.08.091-.057,16.018-9.9a53.206,53.206,0,0,0,7.691-5.457,11.982,11.982,0,0,0,1.562-1.7,3.967,3.967,0,0,0,.888-1.942,2.064,2.064,0,0,0-.712-1.8,6.148,6.148,0,0,0-.857-.665,2.239,2.239,0,0,0-.962-.228,15.532,15.532,0,0,0-4.926,1.027c-1.625.551-3.219,1.208-4.793,1.9a93.178,93.178,0,0,0-9.132,4.65c-5.943,3.321-11.786,6.583-17.466,9.756l-.018.01-.018.008-9.849,4.352-2.474,1.095,2.015-1.805,8.21-7.349.01-.01.032-.023a27.813,27.813,0,0,0,7.908-9.044,11.83,11.83,0,0,0,1.667-5.439,3.188,3.188,0,0,0-.978-2.314,4.118,4.118,0,0,0-2.344-.958l.253-.072-33.724,23.044.037-.028a22.447,22.447,0,0,0-4,6.167c-1.075,2.234-1.995,4.524-2.868,6.8-1.715,4.559-3.189,9.092-4.457,13.481l-.053.186-.178.068-65.053,25,.15-.487c10.22,14.824,19.474,28.245,27.608,40.041l-.354-.068L198.4,249.508l11.2-7.264,2.893-1.855c.651-.413.99-.607.99-.607" transform="translate(85.168 107.5)" fill="#ff9b6c"/>
              </g>
            </g>
          </g>
        </g>
      </g>
      <g id="Grupo_721281" data-name="Grupo 721281" transform="translate(6977.344 4615.291)">
        <path id="Trazado_558626" data-name="Trazado 558626" d="M10.185,0H300.471c5.625,0,10.185,5.12,10.185,11.437V123.514c0,6.316-4.56,11.436-10.185,11.436H10.185C4.56,134.951,0,129.83,0,123.514V11.437C0,5.12,4.56,0,10.185,0Z" transform="translate(-9610 -284.034)" fill="#ffd947"/>
        <text id="Si_realmente_todas_las_piezas_las_venden_por_separado_y_no_es_para_alguien_que_no_se_dedique_a_la_fotografía_yo_la_tengo_por_que_es_mi_pasión." data-name="Si, realmente todas las piezas las venden por separado y no es para alguien que no se dedique a la fotografía, yo la tengo por que es mi pasión." transform="translate(-9586 -275.918)" fill="#12263f" font-size="15" font-family="Roboto-Regular, Roboto"><tspan x="0" y="16">Si, realmente todas las piezas las </tspan><tspan x="0" y="38">venden por separado y no es para </tspan><tspan x="0" y="60">alguien que no se dedique a la </tspan><tspan x="0" y="82">fotografía, yo la tengo por que es mi </tspan><tspan x="0" y="104">pasión.</tspan></text>
      </g>
      <g id="Grupo_721282" data-name="Grupo 721282" transform="translate(6576.235 4739.569)">
        <path id="Trazado_558624" data-name="Trazado 558624" d="M8.738,0H257.762c4.826,0,8.738,2.786,8.738,6.222V67.2c0,3.436-3.912,6.222-8.738,6.222H8.738C3.912,73.419,0,70.633,0,67.2V6.222C0,2.786,3.912,0,8.738,0Z" transform="translate(-9699.889 -377.547)" fill="#81b5e0"/>
        <text id="_cuesta_mucho_dinero_esa_Me_gusta_lo_que_oigo." data-name="¿cuesta mucho dinero esa? Me gusta lo que oigo." transform="translate(-9682.389 -363.431)" fill="#12263f" font-size="15" font-family="Roboto-Regular, Roboto"><tspan x="0" y="16">¿cuesta mucho dinero esa? Me </tspan><tspan x="0" y="38">gusta lo que oigo.</tspan></text>
      </g>
    </g>
  </g>
</svg>
